<svg width="1200" height="630" viewBox="0 0 1200 630" xmlns="http://www.w3.org/2000/svg"><defs><pattern id="satori_pattern_id_1" x="0" y="0" width="0.08333333333333333" height="0.15873015873015872" patternUnits="objectBoundingBox"><radialGradient id="satori_radial_id_1" spreadMethod="pad"><stop offset="0" stop-color="lightgray"/><stop offset="0.03" stop-color="lightgray"/><stop offset="0" stop-color="transparent"/><stop offset="1" stop-color="transparent"/></radialGradient><mask id="satori_mask_id_1"><rect x="0" y="0" width="100" height="100" fill="#fff"/></mask><rect x="0" y="0" width="100" height="100" fill="transparent"/><circle cx="75" cy="75" width="100" height="100" r="106.06601717798213" fill="url(#satori_radial_id_1)" mask="url(#satori_mask_id_1)"/></pattern><pattern id="satori_pattern_id_0" x="0" y="0" width="0.08333333333333333" height="0.15873015873015872" patternUnits="objectBoundingBox"><radialGradient id="satori_radial_id_0" spreadMethod="pad"><stop offset="0" stop-color="lightgray"/><stop offset="0.03" stop-color="lightgray"/><stop offset="0" stop-color="transparent"/><stop offset="1" stop-color="transparent"/></radialGradient><mask id="satori_mask_id_0"><rect x="0" y="0" width="100" height="100" fill="#fff"/></mask><rect x="0" y="0" width="100" height="100" fill="transparent"/><circle cx="25" cy="25" width="100" height="100" r="106.06601717798213" fill="url(#satori_radial_id_0)" mask="url(#satori_mask_id_0)"/></pattern></defs><mask id="satori_om-id"><rect x="0" y="0" width="1200" height="630" fill="#fff"/></mask><rect x="0" y="0" width="1200" height="630" fill="white"/><rect x="0" y="0" width="1200" height="630" fill="url(#satori_pattern_id_1)"/><rect x="0" y="0" width="1200" height="630" fill="url(#satori_pattern_id_0)"/><mask id="satori_om-id-0"><rect x="0" y="182" width="1200" height="267" fill="#fff"/></mask><mask id="satori_om-id-0-0"><rect x="476" y="182" width="248" height="47" fill="#fff"/></mask><mask id="satori_om-id-0-0-0"><rect x="476" y="198" width="16" height="16" fill="#fff"/></mask><rect x="476" y="198" width="16" height="16" fill="black"/><mask id="satori_om-id-0-0-1"><rect x="508" y="182" width="216" height="47" fill="#fff"/></mask><g  ><path fill="black" d="M511.7 226.2L511.7 223.8L520.7 223.8L520.7 202.9L511.3 202.9L511.3 200.4L523.6 200.4L523.6 222.0Q523.6 223.8 522.6 225.0Q521.6 226.2 519.4 226.2L519.4 226.2L511.7 226.2ZM522.1 196.3L522.1 196.3Q520.9 196.3 520.3 195.8Q519.8 195.3 519.8 194.5L519.8 194.5L519.8 193.9Q519.8 193.1 520.3 192.6Q520.9 192.1 522.1 192.1L522.1 192.1Q523.4 192.1 523.9 192.6Q524.4 193.1 524.4 193.9L524.4 193.9L524.4 194.5Q524.4 195.3 523.9 195.8Q523.4 196.3 522.1 196.3ZM549.4 219L547.4 219Q545.7 219 545.0 218.1Q544.3 217.3 544.1 216.0L544.1 216.0L543.9 216.0Q543.3 217.6 542.0 218.5Q540.6 219.4 538.3 219.4L538.3 219.4Q535.4 219.4 533.7 217.9Q532.0 216.4 532.0 213.8L532.0 213.8Q532.0 211.2 533.9 209.8Q535.8 208.4 540.0 208.4L540.0 208.4L543.9 208.4L543.9 206.5Q543.9 204.5 542.8 203.5Q541.6 202.4 539.5 202.4L539.5 202.4Q537.6 202.4 536.4 203.2Q535.3 203.9 534.5 205.2L534.5 205.2L532.6 203.7Q532.9 203.0 533.6 202.3Q534.2 201.6 535.1 201.1Q536.0 200.6 537.1 200.3Q538.3 200.0 539.7 200.0L539.7 200.0Q543.0 200.0 544.9 201.6Q546.8 203.3 546.8 206.3L546.8 206.3L546.8 216.5L549.4 216.5L549.4 219ZM538.9 217.0L538.9 217.0Q540.0 217.0 540.9 216.8Q541.8 216.5 542.5 216.0Q543.2 215.6 543.6 214.9Q543.9 214.3 543.9 213.6L543.9 213.6L543.9 210.5L540.0 210.5Q537.4 210.5 536.2 211.3Q535 212.0 535 213.3L535 213.3L535 214.1Q535 215.5 536.0 216.3Q537.1 217.0 538.9 217.0ZM562.3 219.4L562.3 219.4Q560.3 219.4 558.7 218.7Q557.1 218.1 556.0 216.8Q554.8 215.5 554.2 213.7Q553.6 211.9 553.6 209.7L553.6 209.7Q553.6 207.5 554.2 205.7Q554.9 203.9 556.0 202.6Q557.1 201.4 558.7 200.7Q560.2 200.0 562.1 200.0L562.1 200.0Q564.0 200.0 565.5 200.7Q567.1 201.4 568.2 202.6Q569.2 203.8 569.8 205.4Q570.4 207.1 570.4 209.1L570.4 209.1L570.4 210.4L556.6 210.4L556.6 211.3Q556.6 212.5 557.0 213.6Q557.4 214.6 558.2 215.4Q558.9 216.1 560.0 216.5Q561.0 216.9 562.3 216.9L562.3 216.9Q564.2 216.9 565.6 216.1Q566.9 215.2 567.7 213.7L567.7 213.7L569.8 215.1Q568.9 217.0 567.0 218.2Q565.1 219.4 562.3 219.4ZM562.1 202.4L562.1 202.4Q561.0 202.4 559.9 202.8Q558.9 203.2 558.2 204.0Q557.5 204.7 557.1 205.8Q556.6 206.8 556.6 208.0L556.6 208.0L556.6 208.3L567.3 208.3L567.3 207.9Q567.3 206.7 566.9 205.6Q566.5 204.6 565.9 203.9Q565.2 203.2 564.3 202.8Q563.3 202.4 562.1 202.4ZM576.3 219L576.3 192.4L579.2 192.4L579.2 203.4L579.4 203.4Q579.6 202.8 580.1 202.1Q580.5 201.5 581.1 201.0Q581.8 200.6 582.6 200.3Q583.5 200.0 584.6 200.0L584.6 200.0Q587.6 200.0 589.3 201.8Q591.1 203.7 591.1 207.1L591.1 207.1L591.1 219L588.2 219L588.2 207.6Q588.2 205.0 587.1 203.8Q586.0 202.5 583.8 202.5L583.8 202.5Q583.0 202.5 582.1 202.8Q581.3 203.0 580.6 203.4Q580.0 203.8 579.6 204.5Q579.2 205.2 579.2 206.1L579.2 206.1L579.2 219L576.3 219ZM605.5 219.4L605.5 219.4Q603.5 219.4 601.9 218.7Q600.3 218.1 599.2 216.8Q598.0 215.5 597.4 213.7Q596.8 211.9 596.8 209.7L596.8 209.7Q596.8 207.5 597.4 205.7Q598.1 203.9 599.2 202.6Q600.3 201.4 601.9 200.7Q603.4 200.0 605.3 200.0L605.3 200.0Q607.2 200.0 608.7 200.7Q610.3 201.4 611.4 202.6Q612.4 203.8 613.0 205.4Q613.6 207.1 613.6 209.1L613.6 209.1L613.6 210.4L599.8 210.4L599.8 211.3Q599.8 212.5 600.2 213.6Q600.6 214.6 601.4 215.4Q602.1 216.1 603.2 216.5Q604.2 216.9 605.5 216.9L605.5 216.9Q607.4 216.9 608.8 216.1Q610.1 215.2 610.9 213.7L610.9 213.7L613.0 215.1Q612.1 217.0 610.2 218.2Q608.3 219.4 605.5 219.4ZM605.3 202.4L605.3 202.4Q604.2 202.4 603.1 202.8Q602.1 203.2 601.4 204.0Q600.7 204.7 600.3 205.8Q599.8 206.8 599.8 208.0L599.8 208.0L599.8 208.3L610.5 208.3L610.5 207.9Q610.5 206.7 610.1 205.6Q609.7 204.6 609.1 203.9Q608.4 203.2 607.5 202.8Q606.5 202.4 605.3 202.4ZM627.1 219.4L627.1 219.4Q625.1 219.4 623.5 218.7Q621.9 218.1 620.8 216.8Q619.6 215.5 619.0 213.7Q618.4 211.9 618.4 209.7L618.4 209.7Q618.4 207.5 619.0 205.7Q619.7 203.9 620.8 202.6Q621.9 201.4 623.5 200.7Q625.0 200.0 626.9 200.0L626.9 200.0Q628.8 200.0 630.3 200.7Q631.9 201.4 633.0 202.6Q634.0 203.8 634.6 205.4Q635.2 207.1 635.2 209.1L635.2 209.1L635.2 210.4L621.4 210.4L621.4 211.3Q621.4 212.5 621.8 213.6Q622.2 214.6 623.0 215.4Q623.7 216.1 624.8 216.5Q625.8 216.9 627.1 216.9L627.1 216.9Q629.0 216.9 630.4 216.1Q631.7 215.2 632.5 213.7L632.5 213.7L634.6 215.1Q633.7 217.0 631.8 218.2Q629.9 219.4 627.1 219.4ZM626.9 202.4L626.9 202.4Q625.8 202.4 624.7 202.8Q623.7 203.2 623.0 204.0Q622.3 204.7 621.9 205.8Q621.4 206.8 621.4 208.0L621.4 208.0L621.4 208.3L632.1 208.3L632.1 207.9Q632.1 206.7 631.7 205.6Q631.3 204.6 630.7 203.9Q630.0 203.2 629.1 202.8Q628.1 202.4 626.9 202.4ZM648.4 219.3L648.4 219.3Q646.9 219.3 646.3 218.7Q645.7 218.1 645.7 217.2L645.7 217.2L645.7 216.5Q645.7 215.6 646.3 215.0Q646.9 214.4 648.4 214.4L648.4 214.4Q649.9 214.4 650.5 215.0Q651.1 215.6 651.1 216.5L651.1 216.5L651.1 217.2Q651.1 218.1 650.5 218.7Q649.9 219.3 648.4 219.3ZM674.5 219L674.5 216.0L674.4 216.0Q672.6 219.4 668.6 219.4L668.6 219.4Q665.2 219.4 663.3 216.9Q661.4 214.3 661.4 209.7L661.4 209.7Q661.4 205.1 663.3 202.5Q665.2 200.0 668.6 200.0L668.6 200.0Q672.6 200.0 674.4 203.4L674.4 203.4L674.5 203.4L674.5 192.4L677.4 192.4L677.4 219L674.5 219ZM669.7 216.9L669.7 216.9Q670.7 216.9 671.6 216.6Q672.4 216.4 673.1 215.9Q673.7 215.4 674.1 214.7Q674.5 214.0 674.5 213.1L674.5 213.1L674.5 206.4Q674.5 205.4 674.1 204.7Q673.7 204.0 673.1 203.5Q672.4 203.1 671.6 202.8Q670.7 202.5 669.7 202.5L669.7 202.5Q667.2 202.5 665.8 204.1Q664.5 205.6 664.5 208.1L664.5 208.1L664.5 211.3Q664.5 213.8 665.8 215.3Q667.2 216.9 669.7 216.9ZM691.9 219.4L691.9 219.4Q689.9 219.4 688.3 218.7Q686.7 218.1 685.6 216.8Q684.4 215.5 683.8 213.7Q683.2 211.9 683.2 209.7L683.2 209.7Q683.2 207.5 683.8 205.7Q684.5 203.9 685.6 202.6Q686.7 201.4 688.3 200.7Q689.8 200.0 691.7 200.0L691.7 200.0Q693.6 200.0 695.1 200.7Q696.7 201.4 697.8 202.6Q698.8 203.8 699.4 205.4Q700.0 207.1 700.0 209.1L700.0 209.1L700.0 210.4L686.2 210.4L686.2 211.3Q686.2 212.5 686.6 213.6Q687.0 214.6 687.8 215.4Q688.5 216.1 689.6 216.5Q690.6 216.9 691.9 216.9L691.9 216.9Q693.8 216.9 695.2 216.1Q696.5 215.2 697.3 213.7L697.3 213.7L699.4 215.1Q698.5 217.0 696.6 218.2Q694.7 219.4 691.9 219.4ZM691.7 202.4L691.7 202.4Q690.6 202.4 689.5 202.8Q688.5 203.2 687.8 204.0Q687.1 204.7 686.7 205.8Q686.2 206.8 686.2 208.0L686.2 208.0L686.2 208.3L696.9 208.3L696.9 207.9Q696.9 206.7 696.5 205.6Q696.1 204.6 695.5 203.9Q694.8 203.2 693.9 202.8Q692.9 202.4 691.7 202.4ZM715.0 219L711.4 219L704.7 200.4L707.6 200.4L710.3 208.2L713.2 216.6L713.3 216.6L716.2 208.2L718.9 200.4L721.7 200.4L715.0 219Z "/></g><mask id="satori_om-id-0-1"><rect x="0" y="325" width="1200" height="124" fill="#fff"/></mask><g  ><path fill="black" d="M64.1 374L42.4 374L42.4 340.5L49.7 340.5L49.7 368.1L64.1 368.1L64.1 374ZM81.9 374.6L81.9 374.6Q75.6 374.6 72.4 371.1Q69.2 367.7 69.2 361.7L69.2 361.7Q69.2 358.7 70.0 356.3Q70.9 353.8 72.4 352.1Q74 350.4 76.2 349.5Q78.5 348.7 81.2 348.7L81.2 348.7Q84.0 348.7 86.2 349.5Q88.4 350.4 90.0 352.1Q91.5 353.7 92.4 356.0Q93.2 358.4 93.2 361.2L93.2 361.2L93.2 363.3L76.3 363.3L76.3 363.8Q76.3 366.2 77.7 367.6Q79.2 369.1 82.1 369.1L82.1 369.1Q84.3 369.1 85.9 368.3Q87.5 367.4 88.6 366.0L88.6 366.0L92.5 370.2Q91.0 372.0 88.4 373.3Q85.9 374.6 81.9 374.6ZM81.3 353.7L81.3 353.7Q79.0 353.7 77.6 355.2Q76.3 356.6 76.3 359.0L76.3 359.0L76.3 359.4L86.2 359.4L86.2 359.0Q86.2 356.5 84.9 355.1Q83.6 353.7 81.3 353.7ZM110.7 374.6L110.7 374.6Q104.4 374.6 101.2 371.1Q98 367.7 98 361.7L98 361.7Q98 358.7 98.8 356.3Q99.7 353.8 101.2 352.1Q102.8 350.4 105.0 349.5Q107.3 348.7 110.0 348.7L110.0 348.7Q112.8 348.7 115.0 349.5Q117.2 350.4 118.8 352.1Q120.3 353.7 121.2 356.0Q122 358.4 122 361.2L122 361.2L122 363.3L105.1 363.3L105.1 363.8Q105.1 366.2 106.5 367.6Q108.0 369.1 110.9 369.1L110.9 369.1Q113.1 369.1 114.7 368.3Q116.3 367.4 117.4 366.0L117.4 366.0L121.3 370.2Q119.8 372.0 117.2 373.3Q114.7 374.6 110.7 374.6ZM110.1 353.7L110.1 353.7Q107.8 353.7 106.4 355.2Q105.1 356.6 105.1 359.0L105.1 359.0L105.1 359.4L115.0 359.4L115.0 359.0Q115.0 356.5 113.7 355.1Q112.4 353.7 110.1 353.7ZM149.9 374L140.7 374Q136.9 374 135.0 372.0Q133.1 370.0 133.1 366.8L133.1 366.8L133.1 354.8L126.4 354.8L126.4 349.2L130.8 349.2Q132.4 349.2 133.0 348.6Q133.7 348.0 133.7 346.3L133.7 346.3L133.7 340.5L140.2 340.5L140.2 349.2L149.9 349.2L149.9 354.8L140.2 354.8L140.2 368.5L149.9 368.5L149.9 374ZM168.4 374.6L168.4 374.6Q161.6 374.6 158.4 370.0Q155.2 365.5 155.2 357.2L155.2 357.2Q155.2 349.0 158.4 344.5Q161.6 339.9 168.4 339.9L168.4 339.9Q171.0 339.9 173.0 340.6Q174.9 341.3 176.4 342.6Q177.8 343.8 178.8 345.6Q179.7 347.4 180.2 349.6L180.2 349.6L173.5 351.2Q173.2 350 172.8 349.0Q172.4 348.0 171.8 347.3Q171.2 346.5 170.4 346.1Q169.5 345.7 168.2 345.7L168.2 345.7Q165.3 345.7 164.1 348.0Q162.8 350.3 162.8 354.3L162.8 354.3L162.8 360.2Q162.8 364.2 164.1 366.5Q165.3 368.8 168.2 368.8L168.2 368.8Q170.7 368.8 171.8 367.2Q173.0 365.7 173.5 363.3L173.5 363.3L180.2 364.9Q179.7 367.1 178.8 368.9Q177.8 370.7 176.4 372.0Q174.9 373.2 173.0 373.9Q171.0 374.6 168.4 374.6ZM196.4 374.6L196.4 374.6Q193.5 374.6 191.2 373.7Q188.9 372.8 187.3 371.1Q185.7 369.4 184.8 367.0Q184.0 364.6 184.0 361.6L184.0 361.6Q184.0 358.6 184.8 356.2Q185.7 353.8 187.3 352.1Q188.9 350.4 191.2 349.5Q193.5 348.7 196.4 348.7L196.4 348.7Q199.3 348.7 201.6 349.5Q203.9 350.4 205.5 352.1Q207.1 353.8 208.0 356.2Q208.8 358.6 208.8 361.6L208.8 361.6Q208.8 364.6 208.0 367.0Q207.1 369.4 205.5 371.1Q203.9 372.8 201.6 373.7Q199.3 374.6 196.4 374.6ZM196.4 369.3L196.4 369.3Q198.8 369.3 200.1 367.8Q201.5 366.3 201.5 363.6L201.5 363.6L201.5 359.6Q201.5 356.9 200.1 355.4Q198.8 353.9 196.4 353.9L196.4 353.9Q194 353.9 192.7 355.4Q191.3 356.9 191.3 359.6L191.3 359.6L191.3 363.6Q191.3 366.3 192.7 367.8Q194 369.3 196.4 369.3ZM229.7 374L229.7 369.5L229.3 369.5Q228.4 371.7 226.7 373.2Q225.0 374.6 222.0 374.6L222.0 374.6Q219.9 374.6 218.2 373.8Q216.5 373.0 215.3 371.5Q214.1 369.9 213.4 367.4Q212.7 365.0 212.7 361.6L212.7 361.6Q212.7 358.3 213.4 355.8Q214.1 353.4 215.3 351.8Q216.5 350.2 218.2 349.4Q219.9 348.7 222.0 348.7L222.0 348.7Q223.5 348.7 224.6 349.0Q225.8 349.4 226.7 350.1Q227.6 350.8 228.2 351.7Q228.8 352.6 229.3 353.7L229.3 353.7L229.7 353.7L229.7 338.5L236.8 338.5L236.8 374L229.7 374ZM225.1 369.1L225.1 369.1Q226.9 369.1 228.3 368.1Q229.7 367.2 229.7 365.3L229.7 365.3L229.7 358.0Q229.7 356 228.3 355.1Q226.9 354.2 225.1 354.2L225.1 354.2Q222.7 354.2 221.4 355.6Q220.1 357.1 220.1 359.7L220.1 359.7L220.1 363.5Q220.1 366.1 221.4 367.6Q222.7 369.1 225.1 369.1ZM254.7 374.6L254.7 374.6Q248.4 374.6 245.2 371.1Q242 367.7 242 361.7L242 361.7Q242 358.7 242.8 356.3Q243.7 353.8 245.2 352.1Q246.8 350.4 249.0 349.5Q251.3 348.7 254.0 348.7L254.0 348.7Q256.8 348.7 259.0 349.5Q261.2 350.4 262.8 352.1Q264.3 353.7 265.2 356.0Q266 358.4 266 361.2L266 361.2L266 363.3L249.1 363.3L249.1 363.8Q249.1 366.2 250.5 367.6Q252.0 369.1 254.9 369.1L254.9 369.1Q257.1 369.1 258.7 368.3Q260.3 367.4 261.4 366.0L261.4 366.0L265.3 370.2Q263.8 372.0 261.2 373.3Q258.7 374.6 254.7 374.6ZM254.1 353.7L254.1 353.7Q251.8 353.7 250.4 355.2Q249.1 356.6 249.1 359.0L249.1 359.0L249.1 359.4L259.0 359.4L259.0 359.0Q259.0 356.5 257.7 355.1Q256.4 353.7 254.1 353.7Z M320.1 362.8L304.7 362.8L304.7 356.0L320.1 356.0L320.1 362.8Z M382.8 374L359.5 374L359.5 368.2L368.5 368.2L368.5 345.7L368.1 345.7L361.3 354.7L356.7 351.1L364.7 340.5L375.7 340.5L375.7 368.2L382.8 368.2L382.8 374ZM410.8 353.2L410.8 353.2Q410.8 356.8 409.7 359.9Q408.6 363.0 406.8 365.7Q405.1 368.3 402.9 370.4Q400.7 372.6 398.5 374L398.5 374L388.6 374Q391.7 371.8 394.2 369.8Q396.7 367.9 398.5 365.9Q400.4 363.9 401.5 361.8Q402.7 359.6 403.2 357.2L403.2 357.2L402.8 357.1Q402.4 358.0 401.7 358.9Q401.1 359.8 400.2 360.5Q399.3 361.2 398.1 361.7Q396.9 362.1 395.2 362.1L395.2 362.1Q393.1 362.1 391.3 361.4Q389.5 360.6 388.1 359.2Q386.8 357.9 386.1 356.0Q385.3 354.0 385.3 351.6L385.3 351.6Q385.3 349.1 386.2 346.9Q387.1 344.8 388.8 343.2Q390.4 341.6 392.8 340.8Q395.1 339.9 398.0 339.9L398.0 339.9Q401.0 339.9 403.4 340.9Q405.8 341.8 407.4 343.5Q409.0 345.3 409.9 347.7Q410.8 350.2 410.8 353.2ZM398.1 356.6L398.1 356.6Q400.5 356.6 401.9 355.3Q403.3 353.9 403.3 351.4L403.3 351.4L403.3 350.8Q403.3 348.3 402.0 346.9Q400.6 345.5 398.1 345.5L398.1 345.5Q395.5 345.5 394.1 346.9Q392.8 348.3 392.8 350.8L392.8 350.8L392.8 351.4Q392.8 353.9 394.1 355.3Q395.5 356.6 398.1 356.6ZM427 374.6L427 374.6Q424.3 374.6 423.1 373.4Q422.0 372.2 422.0 370.6L422.0 370.6L422.0 368.9Q422.0 367.3 423.1 366.1Q424.3 364.9 427 364.9L427 364.9Q429.7 364.9 430.9 366.1Q432.0 367.3 432.0 368.9L432.0 368.9L432.0 370.6Q432.0 372.2 430.9 373.4Q429.7 374.6 427 374.6Z M480.8 361.6L480.8 374L473.6 374L473.6 340.5L486.6 340.5Q489.1 340.5 491.0 341.2Q492.9 342.0 494.2 343.4Q495.5 344.8 496.2 346.7Q496.9 348.7 496.9 351.2L496.9 351.2Q496.9 354.7 495.3 357.2Q493.8 359.8 491.0 360.6L491.0 360.6L497.6 374L489.7 374L484.1 361.6L480.8 361.6ZM480.8 356L484.9 356Q487.4 356 488.4 355.0Q489.4 354.1 489.4 351.9L489.4 351.9L489.4 350.4Q489.4 348.2 488.4 347.3Q487.4 346.3 484.9 346.3L484.9 346.3L480.8 346.3L480.8 356ZM513.9 374.6L513.9 374.6Q507.6 374.6 504.4 371.1Q501.2 367.7 501.2 361.7L501.2 361.7Q501.2 358.7 502.0 356.3Q502.9 353.8 504.4 352.1Q506 350.4 508.2 349.5Q510.5 348.7 513.2 348.7L513.2 348.7Q516.0 348.7 518.2 349.5Q520.4 350.4 522.0 352.1Q523.5 353.7 524.4 356.0Q525.2 358.4 525.2 361.2L525.2 361.2L525.2 363.3L508.3 363.3L508.3 363.8Q508.3 366.2 509.7 367.6Q511.2 369.1 514.1 369.1L514.1 369.1Q516.3 369.1 517.9 368.3Q519.5 367.4 520.6 366.0L520.6 366.0L524.5 370.2Q523.0 372.0 520.4 373.3Q517.9 374.6 513.9 374.6ZM513.3 353.7L513.3 353.7Q511.0 353.7 509.6 355.2Q508.3 356.6 508.3 359.0L508.3 359.0L508.3 359.4L518.2 359.4L518.2 359.0Q518.2 356.5 516.9 355.1Q515.6 353.7 513.3 353.7ZM534.8 374L529.0 374L529.0 349.2L534.8 349.2L534.8 352.9L535.1 352.9Q535.7 351.2 536.7 349.9Q537.8 348.7 539.8 348.7L539.8 348.7Q543.4 348.7 544.2 352.9L544.2 352.9L544.5 352.9Q544.8 352.0 545.2 351.2Q545.6 350.5 546.3 349.9Q546.9 349.3 547.8 349.0Q548.6 348.7 549.8 348.7L549.8 348.7Q555.0 348.7 555.0 356.3L555.0 356.3L555.0 374L549.2 374L549.2 357.0Q549.2 355.3 548.6 354.6Q548.0 353.9 547.1 353.9L547.1 353.9Q546.2 353.9 545.5 354.5Q544.9 355.1 544.9 356.3L544.9 356.3L544.9 374L539.1 374L539.1 357.0Q539.1 355.3 538.6 354.6Q538.0 353.9 537.1 353.9L537.1 353.9Q536.1 353.9 535.4 354.5Q534.8 355.1 534.8 356.3L534.8 356.3L534.8 374ZM570.8 374.6L570.8 374.6Q567.9 374.6 565.6 373.7Q563.3 372.8 561.7 371.1Q560.1 369.4 559.2 367.0Q558.4 364.6 558.4 361.6L558.4 361.6Q558.4 358.6 559.2 356.2Q560.1 353.8 561.7 352.1Q563.3 350.4 565.6 349.5Q567.9 348.7 570.8 348.7L570.8 348.7Q573.7 348.7 576.0 349.5Q578.3 350.4 579.9 352.1Q581.5 353.8 582.4 356.2Q583.2 358.6 583.2 361.6L583.2 361.6Q583.2 364.6 582.4 367.0Q581.5 369.4 579.9 371.1Q578.3 372.8 576.0 373.7Q573.7 374.6 570.8 374.6ZM570.8 369.3L570.8 369.3Q573.2 369.3 574.5 367.8Q575.9 366.3 575.9 363.6L575.9 363.6L575.9 359.6Q575.9 356.9 574.5 355.4Q573.2 353.9 570.8 353.9L570.8 353.9Q568.4 353.9 567.1 355.4Q565.7 356.9 565.7 359.6L565.7 359.6L565.7 363.6Q565.7 366.3 567.1 367.8Q568.4 369.3 570.8 369.3ZM603.8 374L595.4 374L586.5 349.2L594.0 349.2L597.2 359.8L599.6 368.1L599.9 368.1L602.3 359.8L605.5 349.2L612.7 349.2L603.8 374ZM629.1 374.6L629.1 374.6Q622.8 374.6 619.6 371.1Q616.4 367.7 616.4 361.7L616.4 361.7Q616.4 358.7 617.2 356.3Q618.1 353.8 619.6 352.1Q621.2 350.4 623.4 349.5Q625.7 348.7 628.4 348.7L628.4 348.7Q631.2 348.7 633.4 349.5Q635.6 350.4 637.2 352.1Q638.7 353.7 639.6 356.0Q640.4 358.4 640.4 361.2L640.4 361.2L640.4 363.3L623.5 363.3L623.5 363.8Q623.5 366.2 624.9 367.6Q626.4 369.1 629.3 369.1L629.3 369.1Q631.5 369.1 633.1 368.3Q634.7 367.4 635.8 366.0L635.8 366.0L639.7 370.2Q638.2 372.0 635.6 373.3Q633.1 374.6 629.1 374.6ZM628.5 353.7L628.5 353.7Q626.2 353.7 624.8 355.2Q623.5 356.6 623.5 359.0L623.5 359.0L623.5 359.4L633.4 359.4L633.4 359.0Q633.4 356.5 632.1 355.1Q630.8 353.7 628.5 353.7Z M689.2 374L681.6 351.7L681.1 351.7L681.1 374L674.9 374L674.9 340.5L683.6 340.5L691.2 362.8L691.7 362.8L691.7 340.5L697.9 340.5L697.9 374L689.2 374ZM726.3 374L717.1 374Q713.3 374 711.4 372.0Q709.5 370.0 709.5 366.8L709.5 366.8L709.5 354.8L702.8 354.8L702.8 349.2L707.2 349.2Q708.8 349.2 709.4 348.6Q710.1 348.0 710.1 346.3L710.1 346.3L710.1 340.5L716.6 340.5L716.6 349.2L726.3 349.2L726.3 354.8L716.6 354.8L716.6 368.5L726.3 368.5L726.3 374ZM732.7 374L732.7 338.5L739.8 338.5L739.8 353.7L740.1 353.7Q740.5 352.7 741.2 351.8Q741.8 350.9 742.7 350.2Q743.6 349.5 744.7 349.1Q745.9 348.7 747.4 348.7L747.4 348.7Q749.2 348.7 750.7 349.3Q752.2 349.9 753.2 351.1Q754.3 352.3 754.9 354.0Q755.5 355.7 755.5 358.0L755.5 358.0L755.5 374L748.4 374L748.4 358.9Q748.4 354.1 744.2 354.1L744.2 354.1Q743.4 354.1 742.6 354.3Q741.8 354.6 741.2 355.0Q740.5 355.5 740.2 356.1Q739.8 356.8 739.8 357.7L739.8 357.7L739.8 374L732.7 374Z M804.2 374L796.6 351.7L796.1 351.7L796.1 374L789.9 374L789.9 340.5L798.6 340.5L806.2 362.8L806.7 362.8L806.7 340.5L812.9 340.5L812.9 374L804.2 374ZM830.2 374.6L830.2 374.6Q827.3 374.6 825.0 373.7Q822.7 372.8 821.1 371.1Q819.5 369.4 818.6 367.0Q817.8 364.6 817.8 361.6L817.8 361.6Q817.8 358.6 818.6 356.2Q819.5 353.8 821.1 352.1Q822.7 350.4 825.0 349.5Q827.3 348.7 830.2 348.7L830.2 348.7Q833.1 348.7 835.4 349.5Q837.7 350.4 839.3 352.1Q840.9 353.8 841.8 356.2Q842.6 358.6 842.6 361.6L842.6 361.6Q842.6 364.6 841.8 367.0Q840.9 369.4 839.3 371.1Q837.7 372.8 835.4 373.7Q833.1 374.6 830.2 374.6ZM830.2 369.3L830.2 369.3Q832.6 369.3 833.9 367.8Q835.3 366.3 835.3 363.6L835.3 363.6L835.3 359.6Q835.3 356.9 833.9 355.4Q832.6 353.9 830.2 353.9L830.2 353.9Q827.8 353.9 826.5 355.4Q825.1 356.9 825.1 359.6L825.1 359.6L825.1 363.6Q825.1 366.3 826.5 367.8Q827.8 369.3 830.2 369.3ZM863.5 374L863.5 369.5L863.1 369.5Q862.2 371.7 860.5 373.2Q858.8 374.6 855.8 374.6L855.8 374.6Q853.7 374.6 852.0 373.8Q850.3 373.0 849.1 371.5Q847.9 369.9 847.2 367.4Q846.5 365.0 846.5 361.6L846.5 361.6Q846.5 358.3 847.2 355.8Q847.9 353.4 849.1 351.8Q850.3 350.2 852.0 349.4Q853.7 348.7 855.8 348.7L855.8 348.7Q857.3 348.7 858.4 349.0Q859.6 349.4 860.5 350.1Q861.4 350.8 862.0 351.7Q862.6 352.6 863.1 353.7L863.1 353.7L863.5 353.7L863.5 338.5L870.6 338.5L870.6 374L863.5 374ZM858.9 369.1L858.9 369.1Q860.7 369.1 862.1 368.1Q863.5 367.2 863.5 365.3L863.5 365.3L863.5 358.0Q863.5 356 862.1 355.1Q860.7 354.2 858.9 354.2L858.9 354.2Q856.5 354.2 855.2 355.6Q853.9 357.1 853.9 359.7L853.9 359.7L853.9 363.5Q853.9 366.1 855.2 367.6Q856.5 369.1 858.9 369.1ZM888.5 374.6L888.5 374.6Q882.2 374.6 879.0 371.1Q875.8 367.7 875.8 361.7L875.8 361.7Q875.8 358.7 876.6 356.3Q877.5 353.8 879.0 352.1Q880.6 350.4 882.8 349.5Q885.1 348.7 887.8 348.7L887.8 348.7Q890.6 348.7 892.8 349.5Q895.0 350.4 896.6 352.1Q898.1 353.7 899.0 356.0Q899.8 358.4 899.8 361.2L899.8 361.2L899.8 363.3L882.9 363.3L882.9 363.8Q882.9 366.2 884.3 367.6Q885.8 369.1 888.7 369.1L888.7 369.1Q890.9 369.1 892.5 368.3Q894.1 367.4 895.2 366.0L895.2 366.0L899.1 370.2Q897.6 372.0 895.0 373.3Q892.5 374.6 888.5 374.6ZM887.9 353.7L887.9 353.7Q885.6 353.7 884.2 355.2Q882.9 356.6 882.9 359.0L882.9 359.0L882.9 359.4L892.8 359.4L892.8 359.0Q892.8 356.5 891.5 355.1Q890.2 353.7 887.9 353.7Z M942.0 374L934.8 374L934.8 340.5L957.1 340.5L957.1 346.4L942.0 346.4L942.0 354.1L955.5 354.1L955.5 360.0L942.0 360.0L942.0 374ZM963.4 374L963.4 368.5L969.1 368.5L969.1 354.8L963.4 354.8L963.4 349.2L976.2 349.2L976.2 356.2L976.5 356.2Q976.8 354.9 977.4 353.6Q978.0 352.4 979.0 351.4Q979.9 350.4 981.3 349.8Q982.6 349.2 984.4 349.2L984.4 349.2L986.8 349.2L986.8 355.8L981.5 355.8Q978.9 355.8 977.5 357.3Q976.2 358.9 976.2 361.1L976.2 361.1L976.2 368.5L984.3 368.5L984.3 374L963.4 374ZM1003.0 374.6L1003.0 374.6Q1000.1 374.6 997.8 373.7Q995.5 372.8 993.9 371.1Q992.3 369.4 991.4 367.0Q990.6 364.6 990.6 361.6L990.6 361.6Q990.6 358.6 991.4 356.2Q992.3 353.8 993.9 352.1Q995.5 350.4 997.8 349.5Q1000.1 348.7 1003.0 348.7L1003.0 348.7Q1005.9 348.7 1008.2 349.5Q1010.5 350.4 1012.1 352.1Q1013.7 353.8 1014.6 356.2Q1015.4 358.6 1015.4 361.6L1015.4 361.6Q1015.4 364.6 1014.6 367.0Q1013.7 369.4 1012.1 371.1Q1010.5 372.8 1008.2 373.7Q1005.9 374.6 1003.0 374.6ZM1003.0 369.3L1003.0 369.3Q1005.4 369.3 1006.7 367.8Q1008.1 366.3 1008.1 363.6L1008.1 363.6L1008.1 359.6Q1008.1 356.9 1006.7 355.4Q1005.4 353.9 1003.0 353.9L1003.0 353.9Q1000.6 353.9 999.3 355.4Q997.9 356.9 997.9 359.6L997.9 359.6L997.9 363.6Q997.9 366.3 999.3 367.8Q1000.6 369.3 1003.0 369.3ZM1024.6 374L1018.8 374L1018.8 349.2L1024.6 349.2L1024.6 352.9L1024.9 352.9Q1025.5 351.2 1026.5 349.9Q1027.6 348.7 1029.6 348.7L1029.6 348.7Q1033.2 348.7 1034.0 352.9L1034.0 352.9L1034.3 352.9Q1034.6 352.0 1035.0 351.2Q1035.4 350.5 1036.1 349.9Q1036.7 349.3 1037.6 349.0Q1038.4 348.7 1039.6 348.7L1039.6 348.7Q1044.8 348.7 1044.8 356.3L1044.8 356.3L1044.8 374L1039.0 374L1039.0 357.0Q1039.0 355.3 1038.4 354.6Q1037.8 353.9 1036.9 353.9L1036.9 353.9Q1036.0 353.9 1035.3 354.5Q1034.7 355.1 1034.7 356.3L1034.7 356.3L1034.7 374L1028.9 374L1028.9 357.0Q1028.9 355.3 1028.4 354.6Q1027.8 353.9 1026.9 353.9L1026.9 353.9Q1025.9 353.9 1025.2 354.5Q1024.6 355.1 1024.6 356.3L1024.6 356.3L1024.6 374Z M1100.2 374L1078.8 374L1078.8 340.5L1100.2 340.5L1100.2 346.4L1086.0 346.4L1086.0 354.1L1099.8 354.1L1099.8 360.0L1086.0 360.0L1086.0 368.1L1100.2 368.1L1100.2 374ZM1114.0 374L1106.9 374L1106.9 349.2L1114.0 349.2L1114.0 353.7L1114.3 353.7Q1114.7 352.7 1115.4 351.8Q1116.0 350.9 1116.9 350.2Q1117.8 349.5 1118.9 349.1Q1120.1 348.7 1121.6 348.7L1121.6 348.7Q1123.4 348.7 1124.9 349.3Q1126.4 349.9 1127.4 351.1Q1128.5 352.3 1129.1 354.0Q1129.7 355.7 1129.7 358.0L1129.7 358.0L1129.7 374L1122.6 374L1122.6 358.9Q1122.6 354.1 1118.4 354.1L1118.4 354.1Q1117.6 354.1 1116.8 354.3Q1116.0 354.6 1115.4 355.0Q1114.7 355.5 1114.4 356.1Q1114.0 356.8 1114.0 357.7L1114.0 357.7L1114.0 374ZM1151.5 374L1151.5 369.5L1151.1 369.5Q1150.2 371.7 1148.5 373.2Q1146.8 374.6 1143.8 374.6L1143.8 374.6Q1141.7 374.6 1140.0 373.8Q1138.3 373.0 1137.1 371.5Q1135.9 369.9 1135.2 367.4Q1134.5 365.0 1134.5 361.6L1134.5 361.6Q1134.5 358.3 1135.2 355.8Q1135.9 353.4 1137.1 351.8Q1138.3 350.2 1140.0 349.4Q1141.7 348.7 1143.8 348.7L1143.8 348.7Q1145.3 348.7 1146.4 349.0Q1147.6 349.4 1148.5 350.1Q1149.4 350.8 1150 351.7Q1150.6 352.6 1151.1 353.7L1151.1 353.7L1151.5 353.7L1151.5 338.5L1158.6 338.5L1158.6 374L1151.5 374ZM1146.9 369.1L1146.9 369.1Q1148.7 369.1 1150.1 368.1Q1151.5 367.2 1151.5 365.3L1151.5 365.3L1151.5 358.0Q1151.5 356 1150.1 355.1Q1148.7 354.2 1146.9 354.2L1146.9 354.2Q1144.5 354.2 1143.2 355.6Q1141.9 357.1 1141.9 359.7L1141.9 359.7L1141.9 363.5Q1141.9 366.1 1143.2 367.6Q1144.5 369.1 1146.9 369.1Z M513.4 436.6L513.4 436.6Q510.5 436.6 508.2 435.7Q505.9 434.8 504.3 433.1Q502.7 431.4 501.8 429.0Q501.0 426.6 501.0 423.6L501.0 423.6Q501.0 420.6 501.8 418.2Q502.7 415.8 504.3 414.1Q505.9 412.4 508.2 411.5Q510.5 410.7 513.4 410.7L513.4 410.7Q516.3 410.7 518.6 411.5Q520.9 412.4 522.5 414.1Q524.1 415.8 525.0 418.2Q525.8 420.6 525.8 423.6L525.8 423.6Q525.8 426.6 525.0 429.0Q524.1 431.4 522.5 433.1Q520.9 434.8 518.6 435.7Q516.3 436.6 513.4 436.6ZM513.4 431.3L513.4 431.3Q515.8 431.3 517.1 429.8Q518.5 428.3 518.5 425.6L518.5 425.6L518.5 421.6Q518.5 418.9 517.1 417.4Q515.8 415.9 513.4 415.9L513.4 415.9Q511 415.9 509.7 417.4Q508.3 418.9 508.3 421.6L508.3 421.6L508.3 425.6Q508.3 428.3 509.7 429.8Q511 431.3 513.4 431.3ZM531.2 436L531.2 430.5L538.5 430.5L538.5 416.8L530.7 416.8L530.7 411.2L538.5 411.2L538.5 407.6Q538.5 404.5 540.4 402.5Q542.2 400.5 546.1 400.5L546.1 400.5L554.5 400.5L554.5 406L545.6 406L545.6 411.2L554.5 411.2L554.5 416.8L545.6 416.8L545.6 430.5L553.4 430.5L553.4 436L531.2 436Z M612.1 436L590.4 436L590.4 402.5L597.7 402.5L597.7 430.1L612.1 430.1L612.1 436ZM630.7 408.1L630.7 408.1Q628.3 408.1 627.4 407.1Q626.5 406.1 626.5 404.7L626.5 404.7L626.5 403.3Q626.5 401.9 627.4 400.9Q628.3 400.0 630.7 400.0L630.7 400.0Q633.1 400.0 634.1 400.9Q635.0 401.9 635.0 403.3L635.0 403.3L635.0 404.7Q635.0 406.1 634.1 407.1Q633.1 408.1 630.7 408.1ZM619.3 436L619.3 430.5L627.2 430.5L627.2 416.8L619.3 416.8L619.3 411.2L634.3 411.2L634.3 430.5L641.6 430.5L641.6 436L619.3 436ZM657.7 436.6L657.7 436.6Q653.6 436.6 650.5 435.3Q647.5 434.1 646.0 431.9L646.0 431.9L649.9 428.2Q651.4 429.8 653.3 430.7Q655.3 431.6 657.8 431.6L657.8 431.6Q659.9 431.6 661.1 430.9Q662.3 430.3 662.3 428.9L662.3 428.9Q662.3 427.9 661.5 427.5Q660.6 427.1 659.2 426.8L659.2 426.8L655.2 426.2Q653.5 426.0 652.1 425.5Q650.7 425.0 649.6 424.1Q648.5 423.2 647.9 422.0Q647.3 420.7 647.3 419.0L647.3 419.0Q647.3 415.1 650.3 412.9Q653.2 410.7 658.6 410.7L658.6 410.7Q662.3 410.7 664.8 411.6Q667.4 412.6 668.9 414.4L668.9 414.4L665.4 418.5Q664.3 417.3 662.6 416.5Q660.8 415.6 658.4 415.6L658.4 415.6Q654.3 415.6 654.3 418.1L654.3 418.1Q654.3 419.2 655.1 419.7Q655.9 420.1 657.3 420.3L657.3 420.3L661.3 420.9Q662.9 421.2 664.4 421.7Q665.8 422.2 666.9 423.0Q668.0 423.9 668.6 425.2Q669.2 426.4 669.2 428.2L669.2 428.2Q669.2 432.1 666.2 434.3Q663.2 436.6 657.7 436.6ZM697.9 436L688.7 436Q684.9 436 683.0 434.0Q681.1 432.0 681.1 428.8L681.1 428.8L681.1 416.8L674.4 416.8L674.4 411.2L678.8 411.2Q680.4 411.2 681.0 410.6Q681.7 410.0 681.7 408.3L681.7 408.3L681.7 402.5L688.2 402.5L688.2 411.2L697.9 411.2L697.9 416.8L688.2 416.8L688.2 430.5L697.9 430.5L697.9 436Z "/></g></svg>