<svg width="1200" height="630" viewBox="0 0 1200 630" xmlns="http://www.w3.org/2000/svg"><defs><pattern id="satori_pattern_id_1" x="0" y="0" width="0.08333333333333333" height="0.15873015873015872" patternUnits="objectBoundingBox"><radialGradient id="satori_radial_id_1" spreadMethod="pad"><stop offset="0" stop-color="lightgray"/><stop offset="0.03" stop-color="lightgray"/><stop offset="0" stop-color="transparent"/><stop offset="1" stop-color="transparent"/></radialGradient><mask id="satori_mask_id_1"><rect x="0" y="0" width="100" height="100" fill="#fff"/></mask><rect x="0" y="0" width="100" height="100" fill="transparent"/><circle cx="75" cy="75" width="100" height="100" r="106.06601717798213" fill="url(#satori_radial_id_1)" mask="url(#satori_mask_id_1)"/></pattern><pattern id="satori_pattern_id_0" x="0" y="0" width="0.08333333333333333" height="0.15873015873015872" patternUnits="objectBoundingBox"><radialGradient id="satori_radial_id_0" spreadMethod="pad"><stop offset="0" stop-color="lightgray"/><stop offset="0.03" stop-color="lightgray"/><stop offset="0" stop-color="transparent"/><stop offset="1" stop-color="transparent"/></radialGradient><mask id="satori_mask_id_0"><rect x="0" y="0" width="100" height="100" fill="#fff"/></mask><rect x="0" y="0" width="100" height="100" fill="transparent"/><circle cx="25" cy="25" width="100" height="100" r="106.06601717798213" fill="url(#satori_radial_id_0)" mask="url(#satori_mask_id_0)"/></pattern></defs><mask id="satori_om-id"><rect x="0" y="0" width="1200" height="630" fill="#fff"/></mask><rect x="0" y="0" width="1200" height="630" fill="white"/><rect x="0" y="0" width="1200" height="630" fill="url(#satori_pattern_id_1)"/><rect x="0" y="0" width="1200" height="630" fill="url(#satori_pattern_id_0)"/><mask id="satori_om-id-0"><rect x="154" y="213" width="893" height="205" fill="#fff"/></mask><mask id="satori_om-id-0-0"><rect x="477" y="213" width="248" height="47" fill="#fff"/></mask><mask id="satori_om-id-0-0-0"><rect x="477" y="229" width="16" height="16" fill="#fff"/></mask><rect x="477" y="229" width="16" height="16" fill="black"/><mask id="satori_om-id-0-0-1"><rect x="509" y="213" width="216" height="47" fill="#fff"/></mask><g  ><path fill="black" d="M512.7 257.2L512.7 254.8L521.7 254.8L521.7 233.9L512.3 233.9L512.3 231.4L524.6 231.4L524.6 253.0Q524.6 254.8 523.6 256.0Q522.6 257.2 520.4 257.2L520.4 257.2L512.7 257.2ZM523.1 227.3L523.1 227.3Q521.9 227.3 521.3 226.8Q520.8 226.3 520.8 225.5L520.8 225.5L520.8 224.9Q520.8 224.1 521.3 223.6Q521.9 223.1 523.1 223.1L523.1 223.1Q524.4 223.1 524.9 223.6Q525.4 224.1 525.4 224.9L525.4 224.9L525.4 225.5Q525.4 226.3 524.9 226.8Q524.4 227.3 523.1 227.3ZM550.4 250L548.4 250Q546.7 250 546.0 249.1Q545.3 248.3 545.1 247.0L545.1 247.0L544.9 247.0Q544.3 248.6 543.0 249.5Q541.6 250.4 539.3 250.4L539.3 250.4Q536.4 250.4 534.7 248.9Q533.0 247.4 533.0 244.8L533.0 244.8Q533.0 242.2 534.9 240.8Q536.8 239.4 541.0 239.4L541.0 239.4L544.9 239.4L544.9 237.5Q544.9 235.5 543.8 234.5Q542.6 233.4 540.5 233.4L540.5 233.4Q538.6 233.4 537.4 234.2Q536.3 234.9 535.5 236.2L535.5 236.2L533.6 234.7Q533.9 234.0 534.6 233.3Q535.2 232.6 536.1 232.1Q537.0 231.6 538.1 231.3Q539.3 231.0 540.7 231.0L540.7 231.0Q544.0 231.0 545.9 232.6Q547.8 234.3 547.8 237.3L547.8 237.3L547.8 247.5L550.4 247.5L550.4 250ZM539.9 248.0L539.9 248.0Q541.0 248.0 541.9 247.8Q542.8 247.5 543.5 247.0Q544.2 246.6 544.6 245.9Q544.9 245.3 544.9 244.6L544.9 244.6L544.9 241.5L541.0 241.5Q538.4 241.5 537.2 242.3Q536 243.0 536 244.3L536 244.3L536 245.1Q536 246.5 537.0 247.3Q538.1 248.0 539.9 248.0ZM563.3 250.4L563.3 250.4Q561.3 250.4 559.7 249.7Q558.1 249.1 557.0 247.8Q555.8 246.5 555.2 244.7Q554.6 242.9 554.6 240.7L554.6 240.7Q554.6 238.5 555.2 236.7Q555.9 234.9 557.0 233.6Q558.1 232.4 559.7 231.7Q561.2 231.0 563.1 231.0L563.1 231.0Q565.0 231.0 566.5 231.7Q568.1 232.4 569.2 233.6Q570.2 234.8 570.8 236.4Q571.4 238.1 571.4 240.1L571.4 240.1L571.4 241.4L557.6 241.4L557.6 242.3Q557.6 243.5 558.0 244.6Q558.4 245.6 559.2 246.4Q559.9 247.1 561.0 247.5Q562.0 247.9 563.3 247.9L563.3 247.9Q565.2 247.9 566.6 247.1Q567.9 246.2 568.7 244.7L568.7 244.7L570.8 246.1Q569.9 248.0 568.0 249.2Q566.1 250.4 563.3 250.4ZM563.1 233.4L563.1 233.4Q562.0 233.4 560.9 233.8Q559.9 234.2 559.2 235.0Q558.5 235.7 558.1 236.8Q557.6 237.8 557.6 239.0L557.6 239.0L557.6 239.3L568.3 239.3L568.3 238.9Q568.3 237.7 567.9 236.6Q567.5 235.6 566.9 234.9Q566.2 234.2 565.3 233.8Q564.3 233.4 563.1 233.4ZM577.3 250L577.3 223.4L580.2 223.4L580.2 234.4L580.4 234.4Q580.6 233.8 581.1 233.1Q581.5 232.5 582.1 232.0Q582.8 231.6 583.6 231.3Q584.5 231.0 585.6 231.0L585.6 231.0Q588.6 231.0 590.3 232.8Q592.1 234.7 592.1 238.1L592.1 238.1L592.1 250L589.2 250L589.2 238.6Q589.2 236.0 588.1 234.8Q587.0 233.5 584.8 233.5L584.8 233.5Q584.0 233.5 583.1 233.8Q582.3 234.0 581.6 234.4Q581.0 234.8 580.6 235.5Q580.2 236.2 580.2 237.1L580.2 237.1L580.2 250L577.3 250ZM606.5 250.4L606.5 250.4Q604.5 250.4 602.9 249.7Q601.3 249.1 600.2 247.8Q599.0 246.5 598.4 244.7Q597.8 242.9 597.8 240.7L597.8 240.7Q597.8 238.5 598.4 236.7Q599.1 234.9 600.2 233.6Q601.3 232.4 602.9 231.7Q604.4 231.0 606.3 231.0L606.3 231.0Q608.2 231.0 609.7 231.7Q611.3 232.4 612.4 233.6Q613.4 234.8 614.0 236.4Q614.6 238.1 614.6 240.1L614.6 240.1L614.6 241.4L600.8 241.4L600.8 242.3Q600.8 243.5 601.2 244.6Q601.6 245.6 602.4 246.4Q603.1 247.1 604.2 247.5Q605.2 247.9 606.5 247.9L606.5 247.9Q608.4 247.9 609.8 247.1Q611.1 246.2 611.9 244.7L611.9 244.7L614.0 246.1Q613.1 248.0 611.2 249.2Q609.3 250.4 606.5 250.4ZM606.3 233.4L606.3 233.4Q605.2 233.4 604.1 233.8Q603.1 234.2 602.4 235.0Q601.7 235.7 601.3 236.8Q600.8 237.8 600.8 239.0L600.8 239.0L600.8 239.3L611.5 239.3L611.5 238.9Q611.5 237.7 611.1 236.6Q610.7 235.6 610.1 234.9Q609.4 234.2 608.5 233.8Q607.5 233.4 606.3 233.4ZM628.1 250.4L628.1 250.4Q626.1 250.4 624.5 249.7Q622.9 249.1 621.8 247.8Q620.6 246.5 620.0 244.7Q619.4 242.9 619.4 240.7L619.4 240.7Q619.4 238.5 620.0 236.7Q620.7 234.9 621.8 233.6Q622.9 232.4 624.5 231.7Q626.0 231.0 627.9 231.0L627.9 231.0Q629.8 231.0 631.3 231.7Q632.9 232.4 634.0 233.6Q635.0 234.8 635.6 236.4Q636.2 238.1 636.2 240.1L636.2 240.1L636.2 241.4L622.4 241.4L622.4 242.3Q622.4 243.5 622.8 244.6Q623.2 245.6 624.0 246.4Q624.7 247.1 625.8 247.5Q626.8 247.9 628.1 247.9L628.1 247.9Q630.0 247.9 631.4 247.1Q632.7 246.2 633.5 244.7L633.5 244.7L635.6 246.1Q634.7 248.0 632.8 249.2Q630.9 250.4 628.1 250.4ZM627.9 233.4L627.9 233.4Q626.8 233.4 625.7 233.8Q624.7 234.2 624.0 235.0Q623.3 235.7 622.9 236.8Q622.4 237.8 622.4 239.0L622.4 239.0L622.4 239.3L633.1 239.3L633.1 238.9Q633.1 237.7 632.7 236.6Q632.3 235.6 631.7 234.9Q631.0 234.2 630.1 233.8Q629.1 233.4 627.9 233.4ZM649.4 250.3L649.4 250.3Q647.9 250.3 647.3 249.7Q646.7 249.1 646.7 248.2L646.7 248.2L646.7 247.5Q646.7 246.6 647.3 246.0Q647.9 245.4 649.4 245.4L649.4 245.4Q650.9 245.4 651.5 246.0Q652.1 246.6 652.1 247.5L652.1 247.5L652.1 248.2Q652.1 249.1 651.5 249.7Q650.9 250.3 649.4 250.3ZM675.5 250L675.5 247.0L675.4 247.0Q673.6 250.4 669.6 250.4L669.6 250.4Q666.2 250.4 664.3 247.9Q662.4 245.3 662.4 240.7L662.4 240.7Q662.4 236.1 664.3 233.5Q666.2 231.0 669.6 231.0L669.6 231.0Q673.6 231.0 675.4 234.4L675.4 234.4L675.5 234.4L675.5 223.4L678.4 223.4L678.4 250L675.5 250ZM670.7 247.9L670.7 247.9Q671.7 247.9 672.6 247.6Q673.4 247.4 674.1 246.9Q674.7 246.4 675.1 245.7Q675.5 245.0 675.5 244.1L675.5 244.1L675.5 237.4Q675.5 236.4 675.1 235.7Q674.7 235.0 674.1 234.5Q673.4 234.1 672.6 233.8Q671.7 233.5 670.7 233.5L670.7 233.5Q668.2 233.5 666.8 235.1Q665.5 236.6 665.5 239.1L665.5 239.1L665.5 242.3Q665.5 244.8 666.8 246.3Q668.2 247.9 670.7 247.9ZM692.9 250.4L692.9 250.4Q690.9 250.4 689.3 249.7Q687.7 249.1 686.6 247.8Q685.4 246.5 684.8 244.7Q684.2 242.9 684.2 240.7L684.2 240.7Q684.2 238.5 684.8 236.7Q685.5 234.9 686.6 233.6Q687.7 232.4 689.3 231.7Q690.8 231.0 692.7 231.0L692.7 231.0Q694.6 231.0 696.1 231.7Q697.7 232.4 698.8 233.6Q699.8 234.8 700.4 236.4Q701.0 238.1 701.0 240.1L701.0 240.1L701.0 241.4L687.2 241.4L687.2 242.3Q687.2 243.5 687.6 244.6Q688.0 245.6 688.8 246.4Q689.5 247.1 690.6 247.5Q691.6 247.9 692.9 247.9L692.9 247.9Q694.8 247.9 696.2 247.1Q697.5 246.2 698.3 244.7L698.3 244.7L700.4 246.1Q699.5 248.0 697.6 249.2Q695.7 250.4 692.9 250.4ZM692.7 233.4L692.7 233.4Q691.6 233.4 690.5 233.8Q689.5 234.2 688.8 235.0Q688.1 235.7 687.7 236.8Q687.2 237.8 687.2 239.0L687.2 239.0L687.2 239.3L697.9 239.3L697.9 238.9Q697.9 237.7 697.5 236.6Q697.1 235.6 696.5 234.9Q695.8 234.2 694.9 233.8Q693.9 233.4 692.7 233.4ZM716.0 250L712.4 250L705.7 231.4L708.6 231.4L711.3 239.2L714.2 247.6L714.3 247.6L717.2 239.2L719.9 231.4L722.7 231.4L716.0 250Z "/></g><mask id="satori_om-id-0-1"><rect x="154" y="356" width="893" height="62" fill="#fff"/></mask><g  ><path fill="black" d="M180.1 405L158.4 405L158.4 371.5L165.7 371.5L165.7 399.1L180.1 399.1L180.1 405ZM197.9 405.6L197.9 405.6Q191.6 405.6 188.4 402.1Q185.2 398.7 185.2 392.7L185.2 392.7Q185.2 389.7 186.0 387.3Q186.9 384.8 188.4 383.1Q190 381.4 192.2 380.5Q194.5 379.7 197.2 379.7L197.2 379.7Q200.0 379.7 202.2 380.5Q204.4 381.4 206.0 383.1Q207.5 384.7 208.4 387.0Q209.2 389.4 209.2 392.2L209.2 392.2L209.2 394.3L192.3 394.3L192.3 394.8Q192.3 397.2 193.7 398.6Q195.2 400.1 198.1 400.1L198.1 400.1Q200.3 400.1 201.9 399.3Q203.5 398.4 204.6 397.0L204.6 397.0L208.5 401.2Q207.0 403.0 204.4 404.3Q201.9 405.6 197.9 405.6ZM197.3 384.7L197.3 384.7Q195.0 384.7 193.6 386.2Q192.3 387.6 192.3 390.0L192.3 390.0L192.3 390.4L202.2 390.4L202.2 390.0Q202.2 387.5 200.9 386.1Q199.6 384.7 197.3 384.7ZM226.7 405.6L226.7 405.6Q220.4 405.6 217.2 402.1Q214.0 398.7 214.0 392.7L214.0 392.7Q214.0 389.7 214.8 387.3Q215.7 384.8 217.2 383.1Q218.8 381.4 221.0 380.5Q223.3 379.7 226.0 379.7L226.0 379.7Q228.8 379.7 231.0 380.5Q233.2 381.4 234.8 383.1Q236.3 384.7 237.2 387.0Q238.0 389.4 238.0 392.2L238.0 392.2L238.0 394.3L221.1 394.3L221.1 394.8Q221.1 397.2 222.5 398.6Q224.0 400.1 226.9 400.1L226.9 400.1Q229.1 400.1 230.7 399.3Q232.3 398.4 233.4 397.0L233.4 397.0L237.3 401.2Q235.8 403.0 233.2 404.3Q230.7 405.6 226.7 405.6ZM226.1 384.7L226.1 384.7Q223.8 384.7 222.4 386.2Q221.1 387.6 221.1 390.0L221.1 390.0L221.1 390.4L231.0 390.4L231.0 390.0Q231.0 387.5 229.7 386.1Q228.4 384.7 226.1 384.7ZM265.9 405L256.7 405Q252.9 405 251.0 403.0Q249.1 401.0 249.1 397.8L249.1 397.8L249.1 385.8L242.4 385.8L242.4 380.2L246.8 380.2Q248.4 380.2 249.0 379.6Q249.7 379.0 249.7 377.3L249.7 377.3L249.7 371.5L256.2 371.5L256.2 380.2L265.9 380.2L265.9 385.8L256.2 385.8L256.2 399.5L265.9 399.5L265.9 405ZM284.4 405.6L284.4 405.6Q277.6 405.6 274.4 401.0Q271.2 396.5 271.2 388.2L271.2 388.2Q271.2 380.0 274.4 375.5Q277.6 370.9 284.4 370.9L284.4 370.9Q287.0 370.9 289.0 371.6Q290.9 372.3 292.4 373.6Q293.8 374.8 294.8 376.6Q295.7 378.4 296.2 380.6L296.2 380.6L289.5 382.2Q289.2 381 288.8 380.0Q288.4 379.0 287.8 378.3Q287.2 377.5 286.4 377.1Q285.5 376.7 284.2 376.7L284.2 376.7Q281.3 376.7 280.1 379.0Q278.8 381.3 278.8 385.3L278.8 385.3L278.8 391.2Q278.8 395.2 280.1 397.5Q281.3 399.8 284.2 399.8L284.2 399.8Q286.7 399.8 287.8 398.2Q289.0 396.7 289.5 394.3L289.5 394.3L296.2 395.9Q295.7 398.1 294.8 399.9Q293.8 401.7 292.4 403.0Q290.9 404.2 289.0 404.9Q287.0 405.6 284.4 405.6ZM312.4 405.6L312.4 405.6Q309.5 405.6 307.2 404.7Q304.9 403.8 303.3 402.1Q301.7 400.4 300.8 398.0Q300.0 395.6 300.0 392.6L300.0 392.6Q300.0 389.6 300.8 387.2Q301.7 384.8 303.3 383.1Q304.9 381.4 307.2 380.5Q309.5 379.7 312.4 379.7L312.4 379.7Q315.3 379.7 317.6 380.5Q319.9 381.4 321.5 383.1Q323.1 384.8 324.0 387.2Q324.8 389.6 324.8 392.6L324.8 392.6Q324.8 395.6 324.0 398.0Q323.1 400.4 321.5 402.1Q319.9 403.8 317.6 404.7Q315.3 405.6 312.4 405.6ZM312.4 400.3L312.4 400.3Q314.8 400.3 316.1 398.8Q317.5 397.3 317.5 394.6L317.5 394.6L317.5 390.6Q317.5 387.9 316.1 386.4Q314.8 384.9 312.4 384.9L312.4 384.9Q310.0 384.9 308.7 386.4Q307.3 387.9 307.3 390.6L307.3 390.6L307.3 394.6Q307.3 397.3 308.7 398.8Q310.0 400.3 312.4 400.3ZM345.7 405L345.7 400.5L345.3 400.5Q344.4 402.7 342.7 404.2Q341.0 405.6 338.0 405.6L338.0 405.6Q335.9 405.6 334.2 404.8Q332.5 404.0 331.3 402.5Q330.1 400.9 329.4 398.4Q328.7 396.0 328.7 392.6L328.7 392.6Q328.7 389.3 329.4 386.8Q330.1 384.4 331.3 382.8Q332.5 381.2 334.2 380.4Q335.9 379.7 338.0 379.7L338.0 379.7Q339.5 379.7 340.6 380.0Q341.8 380.4 342.7 381.1Q343.6 381.8 344.2 382.7Q344.8 383.6 345.3 384.7L345.3 384.7L345.7 384.7L345.7 369.5L352.8 369.5L352.8 405L345.7 405ZM341.1 400.1L341.1 400.1Q342.9 400.1 344.3 399.1Q345.7 398.2 345.7 396.3L345.7 396.3L345.7 389.0Q345.7 387 344.3 386.1Q342.9 385.2 341.1 385.2L341.1 385.2Q338.7 385.2 337.4 386.6Q336.1 388.1 336.1 390.7L336.1 390.7L336.1 394.5Q336.1 397.1 337.4 398.6Q338.7 400.1 341.1 400.1ZM370.7 405.6L370.7 405.6Q364.4 405.6 361.2 402.1Q358.0 398.7 358.0 392.7L358.0 392.7Q358.0 389.7 358.8 387.3Q359.7 384.8 361.2 383.1Q362.8 381.4 365.0 380.5Q367.3 379.7 370.0 379.7L370.0 379.7Q372.8 379.7 375.0 380.5Q377.2 381.4 378.8 383.1Q380.3 384.7 381.2 387.0Q382.0 389.4 382.0 392.2L382.0 392.2L382.0 394.3L365.1 394.3L365.1 394.8Q365.1 397.2 366.5 398.6Q368.0 400.1 370.9 400.1L370.9 400.1Q373.1 400.1 374.7 399.3Q376.3 398.4 377.4 397.0L377.4 397.0L381.3 401.2Q379.8 403.0 377.2 404.3Q374.7 405.6 370.7 405.6ZM370.1 384.7L370.1 384.7Q367.8 384.7 366.4 386.2Q365.1 387.6 365.1 390.0L365.1 390.0L365.1 390.4L375.0 390.4L375.0 390.0Q375.0 387.5 373.7 386.1Q372.4 384.7 370.1 384.7Z M435.3 393.8L419.9 393.8L419.9 387.0L435.3 387.0L435.3 393.8Z M498.6 405L475.3 405L475.3 399.2L484.3 399.2L484.3 376.7L483.9 376.7L477.1 385.7L472.5 382.1L480.5 371.5L491.5 371.5L491.5 399.2L498.6 399.2L498.6 405ZM526.2 399.0L526.2 405L502.1 405L502.1 398.4L512.7 389.6Q515.4 387.3 516.6 385.6Q517.8 383.8 517.8 381.9L517.8 381.9L517.8 381.4Q517.8 379.3 516.6 378.2Q515.3 377.2 513.2 377.2L513.2 377.2Q510.8 377.2 509.5 378.6Q508.2 379.9 507.7 381.9L507.7 381.9L501.4 379.5Q502.0 377.7 503.0 376.2Q504.0 374.6 505.6 373.5Q507.1 372.3 509.2 371.6Q511.3 370.9 514.0 370.9L514.0 370.9Q516.7 370.9 518.8 371.7Q521.0 372.5 522.5 373.8Q524.0 375.1 524.8 377.0Q525.5 378.8 525.5 381L525.5 381Q525.5 383.1 524.8 384.9Q524.1 386.6 522.9 388.2Q521.7 389.7 520.0 391.1Q518.4 392.6 516.5 394.0L516.5 394.0L510.1 399.0L526.2 399.0ZM542.8 405.6L542.8 405.6Q540.1 405.6 538.9 404.4Q537.8 403.2 537.8 401.6L537.8 401.6L537.8 399.9Q537.8 398.3 538.9 397.1Q540.1 395.9 542.8 395.9L542.8 395.9Q545.5 395.9 546.7 397.1Q547.8 398.3 547.8 399.9L547.8 399.9L547.8 401.6Q547.8 403.2 546.7 404.4Q545.5 405.6 542.8 405.6Z M611.2 405L589.6 405L589.6 399.7L596.8 399.7L596.8 376.8L589.6 376.8L589.6 371.5L611.2 371.5L611.2 376.8L604 376.8L604 399.7L611.2 399.7L611.2 405ZM625.0 405L617.9 405L617.9 380.2L625.0 380.2L625.0 384.7L625.3 384.7Q625.7 383.7 626.4 382.8Q627.0 381.9 627.9 381.2Q628.8 380.5 629.9 380.1Q631.1 379.7 632.6 379.7L632.6 379.7Q634.4 379.7 635.9 380.3Q637.4 380.9 638.4 382.1Q639.5 383.3 640.1 385.0Q640.7 386.7 640.7 389.0L640.7 389.0L640.7 405L633.6 405L633.6 389.9Q633.6 385.1 629.4 385.1L629.4 385.1Q628.6 385.1 627.8 385.3Q627.0 385.6 626.4 386.0Q625.7 386.5 625.4 387.1Q625.0 387.8 625.0 388.7L625.0 388.7L625.0 405ZM669.1 405L659.9 405Q656.1 405 654.2 403.0Q652.3 401.0 652.3 397.8L652.3 397.8L652.3 385.8L645.6 385.8L645.6 380.2L650.0 380.2Q651.6 380.2 652.2 379.6Q652.9 379.0 652.9 377.3L652.9 377.3L652.9 371.5L659.4 371.5L659.4 380.2L669.1 380.2L669.1 385.8L659.4 385.8L659.4 399.5L669.1 399.5L669.1 405ZM687.5 405.6L687.5 405.6Q681.2 405.6 678.0 402.1Q674.8 398.7 674.8 392.7L674.8 392.7Q674.8 389.7 675.6 387.3Q676.5 384.8 678.0 383.1Q679.6 381.4 681.8 380.5Q684.1 379.7 686.8 379.7L686.8 379.7Q689.6 379.7 691.8 380.5Q694.0 381.4 695.6 383.1Q697.1 384.7 698.0 387.0Q698.8 389.4 698.8 392.2L698.8 392.2L698.8 394.3L681.9 394.3L681.9 394.8Q681.9 397.2 683.3 398.6Q684.8 400.1 687.7 400.1L687.7 400.1Q689.9 400.1 691.5 399.3Q693.1 398.4 694.2 397.0L694.2 397.0L698.1 401.2Q696.6 403.0 694.0 404.3Q691.5 405.6 687.5 405.6ZM686.9 384.7L686.9 384.7Q684.6 384.7 683.2 386.2Q681.9 387.6 681.9 390.0L681.9 390.0L681.9 390.4L691.8 390.4L691.8 390.0Q691.8 387.5 690.5 386.1Q689.2 384.7 686.9 384.7ZM729.2 407.5L729.2 407.5Q729.2 411.4 725.9 413.3Q722.6 415.2 715.5 415.2L715.5 415.2Q711.9 415.2 709.6 414.8Q707.3 414.4 705.9 413.6Q704.6 412.8 704.0 411.8Q703.5 410.7 703.5 409.5L703.5 409.5Q703.5 407.4 704.7 406.3Q706.0 405.2 708.2 404.6L708.2 404.6L708.2 404.3Q706.6 403.8 705.7 403.0Q704.8 402.1 704.8 400.4L704.8 400.4Q704.8 398.6 706.0 397.8Q707.2 396.9 709.2 396.4L709.2 396.4L709.2 396.1Q707.0 395.1 705.8 393.1Q704.6 391.2 704.6 388.5L704.6 388.5Q704.6 386.3 705.3 384.7Q706.1 383.0 707.5 381.9Q708.9 380.8 710.9 380.2Q712.9 379.7 715.3 379.7L715.3 379.7Q717.7 379.7 719.7 380.2L719.7 380.2L719.7 378.8Q719.7 377.4 720.7 376.4Q721.7 375.5 723.5 375.5L723.5 375.5L727.8 375.5L727.8 380.7L721.9 380.7L721.9 381.1Q723.9 382.2 725.0 384Q726.2 385.8 726.2 388.5L726.2 388.5Q726.2 390.6 725.4 392.3Q724.6 393.9 723.2 395.0Q721.7 396.2 719.8 396.7Q717.8 397.3 715.3 397.3L715.3 397.3Q714.2 397.3 713.2 397.2Q712.2 397.1 711.3 396.8L711.3 396.8Q710.8 397.1 710.4 397.6Q710.0 398.0 710.0 398.7L710.0 398.7Q710.0 399.2 710.3 399.6Q710.6 399.9 711.1 400.1Q711.6 400.2 712.3 400.3Q713.0 400.3 713.7 400.3L713.7 400.3L719.3 400.3Q722.0 400.3 723.9 400.9Q725.7 401.4 726.9 402.4Q728.1 403.3 728.7 404.6Q729.2 405.9 729.2 407.5ZM722.5 408.0L722.5 408.0Q722.5 407.1 721.7 406.5Q720.9 406.0 718.8 406.0L718.8 406.0L710.3 406.0Q709.3 406.8 709.3 408.0L709.3 408.0Q709.3 409.1 710.3 409.9Q711.3 410.6 713.6 410.6L713.6 410.6L717.8 410.6Q720.3 410.6 721.4 409.9Q722.5 409.3 722.5 408.0ZM715.3 392.8L715.3 392.8Q717.5 392.8 718.5 391.8Q719.4 390.7 719.4 389.1L719.4 389.1L719.4 387.9Q719.4 386.3 718.5 385.2Q717.5 384.2 715.3 384.2L715.3 384.2Q713.2 384.2 712.2 385.2Q711.3 386.3 711.3 387.9L711.3 387.9L711.3 389.1Q711.3 390.7 712.2 391.8Q713.2 392.8 715.3 392.8ZM745.1 405.6L745.1 405.6Q738.8 405.6 735.6 402.1Q732.4 398.7 732.4 392.7L732.4 392.7Q732.4 389.7 733.2 387.3Q734.1 384.8 735.6 383.1Q737.2 381.4 739.4 380.5Q741.7 379.7 744.4 379.7L744.4 379.7Q747.2 379.7 749.4 380.5Q751.6 381.4 753.2 383.1Q754.7 384.7 755.6 387.0Q756.4 389.4 756.4 392.2L756.4 392.2L756.4 394.3L739.5 394.3L739.5 394.8Q739.5 397.2 740.9 398.6Q742.4 400.1 745.3 400.1L745.3 400.1Q747.5 400.1 749.1 399.3Q750.7 398.4 751.8 397.0L751.8 397.0L755.7 401.2Q754.2 403.0 751.6 404.3Q749.1 405.6 745.1 405.6ZM744.5 384.7L744.5 384.7Q742.2 384.7 740.8 386.2Q739.5 387.6 739.5 390.0L739.5 390.0L739.5 390.4L749.4 390.4L749.4 390.0Q749.4 387.5 748.1 386.1Q746.8 384.7 744.5 384.7ZM762.4 405L762.4 399.5L768.1 399.5L768.1 385.8L762.4 385.8L762.4 380.2L775.2 380.2L775.2 387.2L775.5 387.2Q775.8 385.9 776.4 384.6Q777.0 383.4 778.0 382.4Q778.9 381.4 780.3 380.8Q781.6 380.2 783.4 380.2L783.4 380.2L785.8 380.2L785.8 386.8L780.5 386.8Q777.9 386.8 776.5 388.3Q775.2 389.9 775.2 392.1L775.2 392.1L775.2 399.5L783.3 399.5L783.3 405L762.4 405Z M841.9 405L832.7 405Q828.9 405 827.0 403.0Q825.1 401.0 825.1 397.8L825.1 397.8L825.1 385.8L818.4 385.8L818.4 380.2L822.8 380.2Q824.4 380.2 825.0 379.6Q825.7 379.0 825.7 377.3L825.7 377.3L825.7 371.5L832.2 371.5L832.2 380.2L841.9 380.2L841.9 385.8L832.2 385.8L832.2 399.5L841.9 399.5L841.9 405ZM859.6 405.6L859.6 405.6Q856.7 405.6 854.4 404.7Q852.1 403.8 850.5 402.1Q848.9 400.4 848.0 398.0Q847.2 395.6 847.2 392.6L847.2 392.6Q847.2 389.6 848.0 387.2Q848.9 384.8 850.5 383.1Q852.1 381.4 854.4 380.5Q856.7 379.7 859.6 379.7L859.6 379.7Q862.5 379.7 864.8 380.5Q867.1 381.4 868.7 383.1Q870.3 384.8 871.2 387.2Q872.0 389.6 872.0 392.6L872.0 392.6Q872.0 395.6 871.2 398.0Q870.3 400.4 868.7 402.1Q867.1 403.8 864.8 404.7Q862.5 405.6 859.6 405.6ZM859.6 400.3L859.6 400.3Q862 400.3 863.3 398.8Q864.7 397.3 864.7 394.6L864.7 394.6L864.7 390.6Q864.7 387.9 863.3 386.4Q862 384.9 859.6 384.9L859.6 384.9Q857.2 384.9 855.9 386.4Q854.5 387.9 854.5 390.6L854.5 390.6L854.5 394.6Q854.5 397.3 855.9 398.8Q857.2 400.3 859.6 400.3Z M913.6 392.6L913.6 405L906.4 405L906.4 371.5L919.4 371.5Q921.9 371.5 923.8 372.2Q925.7 373.0 927.0 374.4Q928.3 375.8 929.0 377.7Q929.7 379.7 929.7 382.2L929.7 382.2Q929.7 385.7 928.1 388.2Q926.6 390.8 923.8 391.6L923.8 391.6L930.4 405L922.5 405L916.9 392.6L913.6 392.6ZM913.6 387L917.7 387Q920.2 387 921.2 386.0Q922.2 385.1 922.2 382.9L922.2 382.9L922.2 381.4Q922.2 379.2 921.2 378.3Q920.2 377.3 917.7 377.3L917.7 377.3L913.6 377.3L913.6 387ZM946 405.6L946 405.6Q943.1 405.6 940.8 404.7Q938.5 403.8 936.9 402.1Q935.3 400.4 934.4 398.0Q933.6 395.6 933.6 392.6L933.6 392.6Q933.6 389.6 934.4 387.2Q935.3 384.8 936.9 383.1Q938.5 381.4 940.8 380.5Q943.1 379.7 946 379.7L946 379.7Q948.9 379.7 951.2 380.5Q953.5 381.4 955.1 383.1Q956.7 384.8 957.6 387.2Q958.4 389.6 958.4 392.6L958.4 392.6Q958.4 395.6 957.6 398.0Q956.7 400.4 955.1 402.1Q953.5 403.8 951.2 404.7Q948.9 405.6 946 405.6ZM946 400.3L946 400.3Q948.4 400.3 949.7 398.8Q951.1 397.3 951.1 394.6L951.1 394.6L951.1 390.6Q951.1 387.9 949.7 386.4Q948.4 384.9 946 384.9L946 384.9Q943.6 384.9 942.3 386.4Q940.9 387.9 940.9 390.6L940.9 390.6L940.9 394.6Q940.9 397.3 942.3 398.8Q943.6 400.3 946 400.3ZM967.6 405L961.8 405L961.8 380.2L967.6 380.2L967.6 383.9L967.9 383.9Q968.5 382.2 969.5 380.9Q970.6 379.7 972.6 379.7L972.6 379.7Q976.2 379.7 977.0 383.9L977.0 383.9L977.3 383.9Q977.6 383.0 978.0 382.2Q978.4 381.5 979.1 380.9Q979.7 380.3 980.6 380.0Q981.4 379.7 982.6 379.7L982.6 379.7Q987.8 379.7 987.8 387.3L987.8 387.3L987.8 405L982.0 405L982.0 388.0Q982.0 386.3 981.4 385.6Q980.8 384.9 979.9 384.9L979.9 384.9Q979.0 384.9 978.3 385.5Q977.7 386.1 977.7 387.3L977.7 387.3L977.7 405L971.9 405L971.9 388.0Q971.9 386.3 971.4 385.6Q970.8 384.9 969.9 384.9L969.9 384.9Q968.9 384.9 968.2 385.5Q967.6 386.1 967.6 387.3L967.6 387.3L967.6 405ZM1016.7 405L1012.6 405Q1010.4 405 1009.0 403.9Q1007.7 402.7 1007.4 400.6L1007.4 400.6L1007.2 400.6Q1006.5 403.1 1004.5 404.3Q1002.5 405.6 999.7 405.6L999.7 405.6Q996.1 405.6 993.9 403.6Q991.7 401.7 991.7 398.2L991.7 398.2Q991.7 394.3 994.5 392.4Q997.4 390.6 1002.8 390.6L1002.8 390.6L1006.8 390.6L1006.8 389.3Q1006.8 387.1 1005.8 386.0Q1004.8 384.8 1002.3 384.8L1002.3 384.8Q1000.0 384.8 998.7 385.7Q997.3 386.6 996.3 388.0L996.3 388.0L992.4 384.5Q993.6 382.4 996.3 381.0Q998.9 379.7 1003.1 379.7L1003.1 379.7Q1008.2 379.7 1011.1 382.0Q1013.9 384.3 1013.9 389.0L1013.9 389.0L1013.9 399.9L1016.7 399.9L1016.7 405ZM1002.4 400.9L1002.4 400.9Q1004.2 400.9 1005.5 400.0Q1006.8 399.1 1006.8 397.4L1006.8 397.4L1006.8 394.4L1003.0 394.4Q998.7 394.4 998.7 397.3L998.7 397.3L998.7 398.3Q998.7 399.6 999.7 400.2Q1000.7 400.9 1002.4 400.9ZM1028.2 405L1021.1 405L1021.1 380.2L1028.2 380.2L1028.2 384.7L1028.5 384.7Q1028.9 383.7 1029.6 382.8Q1030.2 381.9 1031.1 381.2Q1032.0 380.5 1033.1 380.1Q1034.3 379.7 1035.8 379.7L1035.8 379.7Q1037.6 379.7 1039.1 380.3Q1040.6 380.9 1041.6 382.1Q1042.7 383.3 1043.3 385.0Q1043.9 386.7 1043.9 389.0L1043.9 389.0L1043.9 405L1036.8 405L1036.8 389.9Q1036.8 385.1 1032.6 385.1L1032.6 385.1Q1031.8 385.1 1031.0 385.3Q1030.2 385.6 1029.6 386.0Q1028.9 386.5 1028.6 387.1Q1028.2 387.8 1028.2 388.7L1028.2 388.7L1028.2 405Z "/></g></svg>