<svg width="1200" height="630" viewBox="0 0 1200 630" xmlns="http://www.w3.org/2000/svg"><defs><pattern id="satori_pattern_id_1" x="0" y="0" width="0.08333333333333333" height="0.15873015873015872" patternUnits="objectBoundingBox"><radialGradient id="satori_radial_id_1" spreadMethod="pad"><stop offset="0" stop-color="lightgray"/><stop offset="0.03" stop-color="lightgray"/><stop offset="0" stop-color="transparent"/><stop offset="1" stop-color="transparent"/></radialGradient><mask id="satori_mask_id_1"><rect x="0" y="0" width="100" height="100" fill="#fff"/></mask><rect x="0" y="0" width="100" height="100" fill="transparent"/><circle cx="75" cy="75" width="100" height="100" r="106.06601717798213" fill="url(#satori_radial_id_1)" mask="url(#satori_mask_id_1)"/></pattern><pattern id="satori_pattern_id_0" x="0" y="0" width="0.08333333333333333" height="0.15873015873015872" patternUnits="objectBoundingBox"><radialGradient id="satori_radial_id_0" spreadMethod="pad"><stop offset="0" stop-color="lightgray"/><stop offset="0.03" stop-color="lightgray"/><stop offset="0" stop-color="transparent"/><stop offset="1" stop-color="transparent"/></radialGradient><mask id="satori_mask_id_0"><rect x="0" y="0" width="100" height="100" fill="#fff"/></mask><rect x="0" y="0" width="100" height="100" fill="transparent"/><circle cx="25" cy="25" width="100" height="100" r="106.06601717798213" fill="url(#satori_radial_id_0)" mask="url(#satori_mask_id_0)"/></pattern></defs><mask id="satori_om-id"><rect x="0" y="0" width="1200" height="630" fill="#fff"/></mask><rect x="0" y="0" width="1200" height="630" fill="white"/><rect x="0" y="0" width="1200" height="630" fill="url(#satori_pattern_id_1)"/><rect x="0" y="0" width="1200" height="630" fill="url(#satori_pattern_id_0)"/><mask id="satori_om-id-0"><rect x="96" y="213" width="1009" height="205" fill="#fff"/></mask><mask id="satori_om-id-0-0"><rect x="477" y="213" width="248" height="47" fill="#fff"/></mask><mask id="satori_om-id-0-0-0"><rect x="477" y="229" width="16" height="16" fill="#fff"/></mask><rect x="477" y="229" width="16" height="16" fill="black"/><mask id="satori_om-id-0-0-1"><rect x="509" y="213" width="216" height="47" fill="#fff"/></mask><g  ><path fill="black" d="M512.7 257.2L512.7 254.8L521.7 254.8L521.7 233.9L512.3 233.9L512.3 231.4L524.6 231.4L524.6 253.0Q524.6 254.8 523.6 256.0Q522.6 257.2 520.4 257.2L520.4 257.2L512.7 257.2ZM523.1 227.3L523.1 227.3Q521.9 227.3 521.3 226.8Q520.8 226.3 520.8 225.5L520.8 225.5L520.8 224.9Q520.8 224.1 521.3 223.6Q521.9 223.1 523.1 223.1L523.1 223.1Q524.4 223.1 524.9 223.6Q525.4 224.1 525.4 224.9L525.4 224.9L525.4 225.5Q525.4 226.3 524.9 226.8Q524.4 227.3 523.1 227.3ZM550.4 250L548.4 250Q546.7 250 546.0 249.1Q545.3 248.3 545.1 247.0L545.1 247.0L544.9 247.0Q544.3 248.6 543.0 249.5Q541.6 250.4 539.3 250.4L539.3 250.4Q536.4 250.4 534.7 248.9Q533.0 247.4 533.0 244.8L533.0 244.8Q533.0 242.2 534.9 240.8Q536.8 239.4 541.0 239.4L541.0 239.4L544.9 239.4L544.9 237.5Q544.9 235.5 543.8 234.5Q542.6 233.4 540.5 233.4L540.5 233.4Q538.6 233.4 537.4 234.2Q536.3 234.9 535.5 236.2L535.5 236.2L533.6 234.7Q533.9 234.0 534.6 233.3Q535.2 232.6 536.1 232.1Q537.0 231.6 538.1 231.3Q539.3 231.0 540.7 231.0L540.7 231.0Q544.0 231.0 545.9 232.6Q547.8 234.3 547.8 237.3L547.8 237.3L547.8 247.5L550.4 247.5L550.4 250ZM539.9 248.0L539.9 248.0Q541.0 248.0 541.9 247.8Q542.8 247.5 543.5 247.0Q544.2 246.6 544.6 245.9Q544.9 245.3 544.9 244.6L544.9 244.6L544.9 241.5L541.0 241.5Q538.4 241.5 537.2 242.3Q536 243.0 536 244.3L536 244.3L536 245.1Q536 246.5 537.0 247.3Q538.1 248.0 539.9 248.0ZM563.3 250.4L563.3 250.4Q561.3 250.4 559.7 249.7Q558.1 249.1 557.0 247.8Q555.8 246.5 555.2 244.7Q554.6 242.9 554.6 240.7L554.6 240.7Q554.6 238.5 555.2 236.7Q555.9 234.9 557.0 233.6Q558.1 232.4 559.7 231.7Q561.2 231.0 563.1 231.0L563.1 231.0Q565.0 231.0 566.5 231.7Q568.1 232.4 569.2 233.6Q570.2 234.8 570.8 236.4Q571.4 238.1 571.4 240.1L571.4 240.1L571.4 241.4L557.6 241.4L557.6 242.3Q557.6 243.5 558.0 244.6Q558.4 245.6 559.2 246.4Q559.9 247.1 561.0 247.5Q562.0 247.9 563.3 247.9L563.3 247.9Q565.2 247.9 566.6 247.1Q567.9 246.2 568.7 244.7L568.7 244.7L570.8 246.1Q569.9 248.0 568.0 249.2Q566.1 250.4 563.3 250.4ZM563.1 233.4L563.1 233.4Q562.0 233.4 560.9 233.8Q559.9 234.2 559.2 235.0Q558.5 235.7 558.1 236.8Q557.6 237.8 557.6 239.0L557.6 239.0L557.6 239.3L568.3 239.3L568.3 238.9Q568.3 237.7 567.9 236.6Q567.5 235.6 566.9 234.9Q566.2 234.2 565.3 233.8Q564.3 233.4 563.1 233.4ZM577.3 250L577.3 223.4L580.2 223.4L580.2 234.4L580.4 234.4Q580.6 233.8 581.1 233.1Q581.5 232.5 582.1 232.0Q582.8 231.6 583.6 231.3Q584.5 231.0 585.6 231.0L585.6 231.0Q588.6 231.0 590.3 232.8Q592.1 234.7 592.1 238.1L592.1 238.1L592.1 250L589.2 250L589.2 238.6Q589.2 236.0 588.1 234.8Q587.0 233.5 584.8 233.5L584.8 233.5Q584.0 233.5 583.1 233.8Q582.3 234.0 581.6 234.4Q581.0 234.8 580.6 235.5Q580.2 236.2 580.2 237.1L580.2 237.1L580.2 250L577.3 250ZM606.5 250.4L606.5 250.4Q604.5 250.4 602.9 249.7Q601.3 249.1 600.2 247.8Q599.0 246.5 598.4 244.7Q597.8 242.9 597.8 240.7L597.8 240.7Q597.8 238.5 598.4 236.7Q599.1 234.9 600.2 233.6Q601.3 232.4 602.9 231.7Q604.4 231.0 606.3 231.0L606.3 231.0Q608.2 231.0 609.7 231.7Q611.3 232.4 612.4 233.6Q613.4 234.8 614.0 236.4Q614.6 238.1 614.6 240.1L614.6 240.1L614.6 241.4L600.8 241.4L600.8 242.3Q600.8 243.5 601.2 244.6Q601.6 245.6 602.4 246.4Q603.1 247.1 604.2 247.5Q605.2 247.9 606.5 247.9L606.5 247.9Q608.4 247.9 609.8 247.1Q611.1 246.2 611.9 244.7L611.9 244.7L614.0 246.1Q613.1 248.0 611.2 249.2Q609.3 250.4 606.5 250.4ZM606.3 233.4L606.3 233.4Q605.2 233.4 604.1 233.8Q603.1 234.2 602.4 235.0Q601.7 235.7 601.3 236.8Q600.8 237.8 600.8 239.0L600.8 239.0L600.8 239.3L611.5 239.3L611.5 238.9Q611.5 237.7 611.1 236.6Q610.7 235.6 610.1 234.9Q609.4 234.2 608.5 233.8Q607.5 233.4 606.3 233.4ZM628.1 250.4L628.1 250.4Q626.1 250.4 624.5 249.7Q622.9 249.1 621.8 247.8Q620.6 246.5 620.0 244.7Q619.4 242.9 619.4 240.7L619.4 240.7Q619.4 238.5 620.0 236.7Q620.7 234.9 621.8 233.6Q622.9 232.4 624.5 231.7Q626.0 231.0 627.9 231.0L627.9 231.0Q629.8 231.0 631.3 231.7Q632.9 232.4 634.0 233.6Q635.0 234.8 635.6 236.4Q636.2 238.1 636.2 240.1L636.2 240.1L636.2 241.4L622.4 241.4L622.4 242.3Q622.4 243.5 622.8 244.6Q623.2 245.6 624.0 246.4Q624.7 247.1 625.8 247.5Q626.8 247.9 628.1 247.9L628.1 247.9Q630.0 247.9 631.4 247.1Q632.7 246.2 633.5 244.7L633.5 244.7L635.6 246.1Q634.7 248.0 632.8 249.2Q630.9 250.4 628.1 250.4ZM627.9 233.4L627.9 233.4Q626.8 233.4 625.7 233.8Q624.7 234.2 624.0 235.0Q623.3 235.7 622.9 236.8Q622.4 237.8 622.4 239.0L622.4 239.0L622.4 239.3L633.1 239.3L633.1 238.9Q633.1 237.7 632.7 236.6Q632.3 235.6 631.7 234.9Q631.0 234.2 630.1 233.8Q629.1 233.4 627.9 233.4ZM649.4 250.3L649.4 250.3Q647.9 250.3 647.3 249.7Q646.7 249.1 646.7 248.2L646.7 248.2L646.7 247.5Q646.7 246.6 647.3 246.0Q647.9 245.4 649.4 245.4L649.4 245.4Q650.9 245.4 651.5 246.0Q652.1 246.6 652.1 247.5L652.1 247.5L652.1 248.2Q652.1 249.1 651.5 249.7Q650.9 250.3 649.4 250.3ZM675.5 250L675.5 247.0L675.4 247.0Q673.6 250.4 669.6 250.4L669.6 250.4Q666.2 250.4 664.3 247.9Q662.4 245.3 662.4 240.7L662.4 240.7Q662.4 236.1 664.3 233.5Q666.2 231.0 669.6 231.0L669.6 231.0Q673.6 231.0 675.4 234.4L675.4 234.4L675.5 234.4L675.5 223.4L678.4 223.4L678.4 250L675.5 250ZM670.7 247.9L670.7 247.9Q671.7 247.9 672.6 247.6Q673.4 247.4 674.1 246.9Q674.7 246.4 675.1 245.7Q675.5 245.0 675.5 244.1L675.5 244.1L675.5 237.4Q675.5 236.4 675.1 235.7Q674.7 235.0 674.1 234.5Q673.4 234.1 672.6 233.8Q671.7 233.5 670.7 233.5L670.7 233.5Q668.2 233.5 666.8 235.1Q665.5 236.6 665.5 239.1L665.5 239.1L665.5 242.3Q665.5 244.8 666.8 246.3Q668.2 247.9 670.7 247.9ZM692.9 250.4L692.9 250.4Q690.9 250.4 689.3 249.7Q687.7 249.1 686.6 247.8Q685.4 246.5 684.8 244.7Q684.2 242.9 684.2 240.7L684.2 240.7Q684.2 238.5 684.8 236.7Q685.5 234.9 686.6 233.6Q687.7 232.4 689.3 231.7Q690.8 231.0 692.7 231.0L692.7 231.0Q694.6 231.0 696.1 231.7Q697.7 232.4 698.8 233.6Q699.8 234.8 700.4 236.4Q701.0 238.1 701.0 240.1L701.0 240.1L701.0 241.4L687.2 241.4L687.2 242.3Q687.2 243.5 687.6 244.6Q688.0 245.6 688.8 246.4Q689.5 247.1 690.6 247.5Q691.6 247.9 692.9 247.9L692.9 247.9Q694.8 247.9 696.2 247.1Q697.5 246.2 698.3 244.7L698.3 244.7L700.4 246.1Q699.5 248.0 697.6 249.2Q695.7 250.4 692.9 250.4ZM692.7 233.4L692.7 233.4Q691.6 233.4 690.5 233.8Q689.5 234.2 688.8 235.0Q688.1 235.7 687.7 236.8Q687.2 237.8 687.2 239.0L687.2 239.0L687.2 239.3L697.9 239.3L697.9 238.9Q697.9 237.7 697.5 236.6Q697.1 235.6 696.5 234.9Q695.8 234.2 694.9 233.8Q693.9 233.4 692.7 233.4ZM716.0 250L712.4 250L705.7 231.4L708.6 231.4L711.3 239.2L714.2 247.6L714.3 247.6L717.2 239.2L719.9 231.4L722.7 231.4L716.0 250Z "/></g><mask id="satori_om-id-0-1"><rect x="96" y="356" width="1009" height="62" fill="#fff"/></mask><g  ><path fill="black" d="M122.1 405L100.4 405L100.4 371.5L107.7 371.5L107.7 399.1L122.1 399.1L122.1 405ZM139.9 405.6L139.9 405.6Q133.6 405.6 130.4 402.1Q127.2 398.7 127.2 392.7L127.2 392.7Q127.2 389.7 128.0 387.3Q128.9 384.8 130.4 383.1Q132 381.4 134.2 380.5Q136.5 379.7 139.2 379.7L139.2 379.7Q142.0 379.7 144.2 380.5Q146.4 381.4 148.0 383.1Q149.5 384.7 150.4 387.0Q151.2 389.4 151.2 392.2L151.2 392.2L151.2 394.3L134.3 394.3L134.3 394.8Q134.3 397.2 135.7 398.6Q137.2 400.1 140.1 400.1L140.1 400.1Q142.3 400.1 143.9 399.3Q145.5 398.4 146.6 397.0L146.6 397.0L150.5 401.2Q149.0 403.0 146.4 404.3Q143.9 405.6 139.9 405.6ZM139.3 384.7L139.3 384.7Q137.0 384.7 135.6 386.2Q134.3 387.6 134.3 390.0L134.3 390.0L134.3 390.4L144.2 390.4L144.2 390.0Q144.2 387.5 142.9 386.1Q141.6 384.7 139.3 384.7ZM168.7 405.6L168.7 405.6Q162.4 405.6 159.2 402.1Q156 398.7 156 392.7L156 392.7Q156 389.7 156.8 387.3Q157.7 384.8 159.2 383.1Q160.8 381.4 163.0 380.5Q165.3 379.7 168.0 379.7L168.0 379.7Q170.8 379.7 173.0 380.5Q175.2 381.4 176.8 383.1Q178.3 384.7 179.2 387.0Q180 389.4 180 392.2L180 392.2L180 394.3L163.1 394.3L163.1 394.8Q163.1 397.2 164.5 398.6Q166.0 400.1 168.9 400.1L168.9 400.1Q171.1 400.1 172.7 399.3Q174.3 398.4 175.4 397.0L175.4 397.0L179.3 401.2Q177.8 403.0 175.2 404.3Q172.7 405.6 168.7 405.6ZM168.1 384.7L168.1 384.7Q165.8 384.7 164.4 386.2Q163.1 387.6 163.1 390.0L163.1 390.0L163.1 390.4L173.0 390.4L173.0 390.0Q173.0 387.5 171.7 386.1Q170.4 384.7 168.1 384.7ZM207.9 405L198.7 405Q194.9 405 193.0 403.0Q191.1 401.0 191.1 397.8L191.1 397.8L191.1 385.8L184.4 385.8L184.4 380.2L188.8 380.2Q190.4 380.2 191.0 379.6Q191.7 379.0 191.7 377.3L191.7 377.3L191.7 371.5L198.2 371.5L198.2 380.2L207.9 380.2L207.9 385.8L198.2 385.8L198.2 399.5L207.9 399.5L207.9 405ZM226.4 405.6L226.4 405.6Q219.6 405.6 216.4 401.0Q213.2 396.5 213.2 388.2L213.2 388.2Q213.2 380.0 216.4 375.5Q219.6 370.9 226.4 370.9L226.4 370.9Q229.0 370.9 231.0 371.6Q232.9 372.3 234.4 373.6Q235.8 374.8 236.8 376.6Q237.7 378.4 238.2 380.6L238.2 380.6L231.5 382.2Q231.2 381 230.8 380.0Q230.4 379.0 229.8 378.3Q229.2 377.5 228.4 377.1Q227.5 376.7 226.2 376.7L226.2 376.7Q223.3 376.7 222.1 379.0Q220.8 381.3 220.8 385.3L220.8 385.3L220.8 391.2Q220.8 395.2 222.1 397.5Q223.3 399.8 226.2 399.8L226.2 399.8Q228.7 399.8 229.8 398.2Q231.0 396.7 231.5 394.3L231.5 394.3L238.2 395.9Q237.7 398.1 236.8 399.9Q235.8 401.7 234.4 403.0Q232.9 404.2 231.0 404.9Q229.0 405.6 226.4 405.6ZM254.4 405.6L254.4 405.6Q251.5 405.6 249.2 404.7Q246.9 403.8 245.3 402.1Q243.7 400.4 242.8 398.0Q242.0 395.6 242.0 392.6L242.0 392.6Q242.0 389.6 242.8 387.2Q243.7 384.8 245.3 383.1Q246.9 381.4 249.2 380.5Q251.5 379.7 254.4 379.7L254.4 379.7Q257.3 379.7 259.6 380.5Q261.9 381.4 263.5 383.1Q265.1 384.8 266.0 387.2Q266.8 389.6 266.8 392.6L266.8 392.6Q266.8 395.6 266.0 398.0Q265.1 400.4 263.5 402.1Q261.9 403.8 259.6 404.7Q257.3 405.6 254.4 405.6ZM254.4 400.3L254.4 400.3Q256.8 400.3 258.1 398.8Q259.5 397.3 259.5 394.6L259.5 394.6L259.5 390.6Q259.5 387.9 258.1 386.4Q256.8 384.9 254.4 384.9L254.4 384.9Q252.0 384.9 250.7 386.4Q249.3 387.9 249.3 390.6L249.3 390.6L249.3 394.6Q249.3 397.3 250.7 398.8Q252.0 400.3 254.4 400.3ZM287.7 405L287.7 400.5L287.3 400.5Q286.4 402.7 284.7 404.2Q283.0 405.6 280.0 405.6L280.0 405.6Q277.9 405.6 276.2 404.8Q274.5 404.0 273.3 402.5Q272.1 400.9 271.4 398.4Q270.7 396.0 270.7 392.6L270.7 392.6Q270.7 389.3 271.4 386.8Q272.1 384.4 273.3 382.8Q274.5 381.2 276.2 380.4Q277.9 379.7 280.0 379.7L280.0 379.7Q281.5 379.7 282.6 380.0Q283.8 380.4 284.7 381.1Q285.6 381.8 286.2 382.7Q286.8 383.6 287.3 384.7L287.3 384.7L287.7 384.7L287.7 369.5L294.8 369.5L294.8 405L287.7 405ZM283.1 400.1L283.1 400.1Q284.9 400.1 286.3 399.1Q287.7 398.2 287.7 396.3L287.7 396.3L287.7 389.0Q287.7 387 286.3 386.1Q284.9 385.2 283.1 385.2L283.1 385.2Q280.7 385.2 279.4 386.6Q278.1 388.1 278.1 390.7L278.1 390.7L278.1 394.5Q278.1 397.1 279.4 398.6Q280.7 400.1 283.1 400.1ZM312.7 405.6L312.7 405.6Q306.4 405.6 303.2 402.1Q300 398.7 300 392.7L300 392.7Q300 389.7 300.8 387.3Q301.7 384.8 303.2 383.1Q304.8 381.4 307.0 380.5Q309.3 379.7 312.0 379.7L312.0 379.7Q314.8 379.7 317.0 380.5Q319.2 381.4 320.8 383.1Q322.3 384.7 323.2 387.0Q324 389.4 324 392.2L324 392.2L324 394.3L307.1 394.3L307.1 394.8Q307.1 397.2 308.5 398.6Q310.0 400.1 312.9 400.1L312.9 400.1Q315.1 400.1 316.7 399.3Q318.3 398.4 319.4 397.0L319.4 397.0L323.3 401.2Q321.8 403.0 319.2 404.3Q316.7 405.6 312.7 405.6ZM312.1 384.7L312.1 384.7Q309.8 384.7 308.4 386.2Q307.1 387.6 307.1 390.0L307.1 390.0L307.1 390.4L317.0 390.4L317.0 390.0Q317.0 387.5 315.7 386.1Q314.4 384.7 312.1 384.7Z M377.3 393.8L361.9 393.8L361.9 387.0L377.3 387.0L377.3 393.8Z M439.4 399.0L439.4 405L415.3 405L415.3 398.4L425.9 389.6Q428.6 387.3 429.8 385.6Q431.0 383.8 431.0 381.9L431.0 381.9L431.0 381.4Q431.0 379.3 429.8 378.2Q428.5 377.2 426.4 377.2L426.4 377.2Q424.0 377.2 422.7 378.6Q421.4 379.9 420.9 381.9L420.9 381.9L414.6 379.5Q415.2 377.7 416.2 376.2Q417.2 374.6 418.8 373.5Q420.3 372.3 422.4 371.6Q424.5 370.9 427.2 370.9L427.2 370.9Q429.9 370.9 432.0 371.7Q434.2 372.5 435.7 373.8Q437.2 375.1 438.0 377.0Q438.7 378.8 438.7 381L438.7 381Q438.7 383.1 438.0 384.9Q437.3 386.6 436.1 388.2Q434.9 389.7 433.2 391.1Q431.6 392.6 429.7 394.0L429.7 394.0L423.3 399.0L439.4 399.0ZM451.5 384.7L454.7 384.7Q457.5 384.7 458.8 383.7Q460.0 382.6 460.0 381.1L460.0 381.1L460.0 380.8Q460.0 378.9 458.8 377.9Q457.6 376.8 455.3 376.8L455.3 376.8Q453.3 376.8 451.5 377.8Q449.7 378.8 448.4 380.8L448.4 380.8L443.9 376.5Q444.8 375.3 446.0 374.3Q447.1 373.2 448.5 372.5Q449.9 371.7 451.7 371.3Q453.4 370.9 455.6 370.9L455.6 370.9Q458.4 370.9 460.6 371.5Q462.8 372.2 464.3 373.3Q465.9 374.5 466.8 376.2Q467.6 377.8 467.6 379.8L467.6 379.8Q467.6 381.4 467.1 382.7Q466.6 384.0 465.7 384.9Q464.8 385.9 463.6 386.5Q462.4 387.1 461.1 387.3L461.1 387.3L461.1 387.6Q464.2 388.2 466.2 390.2Q468.2 392.2 468.2 395.7L468.2 395.7Q468.2 397.9 467.3 399.8Q466.4 401.6 464.7 402.9Q463.0 404.2 460.5 404.9Q458.1 405.6 455.1 405.6L455.1 405.6Q452.6 405.6 450.6 405.0Q448.7 404.5 447.2 403.6Q445.7 402.7 444.6 401.6Q443.6 400.4 442.8 399.1L442.8 399.1L448.1 395.0Q449.2 397.1 450.8 398.4Q452.5 399.7 455.3 399.7L455.3 399.7Q457.9 399.7 459.3 398.5Q460.7 397.3 460.7 395.2L460.7 395.2L460.7 394.9Q460.7 392.8 459.1 391.8Q457.5 390.7 454.7 390.7L454.7 390.7L451.5 390.7L451.5 384.7ZM484.8 405.6L484.8 405.6Q482.1 405.6 480.9 404.4Q479.8 403.2 479.8 401.6L479.8 401.6L479.8 399.9Q479.8 398.3 480.9 397.1Q482.1 395.9 484.8 395.9L484.8 395.9Q487.5 395.9 488.7 397.1Q489.8 398.3 489.8 399.9L489.8 399.9L489.8 401.6Q489.8 403.2 488.7 404.4Q487.5 405.6 484.8 405.6Z M548.7 405L548.7 390.1L549.1 380.7L548.6 380.7L542.4 397.9L536.2 380.7L535.7 380.7L536.1 390.1L536.1 405L529.9 405L529.9 371.5L538.4 371.5L542.5 382.8L542.9 382.8L547.0 371.5L554.9 371.5L554.9 405L548.7 405ZM571.9 405.6L571.9 405.6Q565.6 405.6 562.4 402.1Q559.2 398.7 559.2 392.7L559.2 392.7Q559.2 389.7 560.0 387.3Q560.9 384.8 562.4 383.1Q564 381.4 566.2 380.5Q568.5 379.7 571.2 379.7L571.2 379.7Q574.0 379.7 576.2 380.5Q578.4 381.4 580.0 383.1Q581.5 384.7 582.4 387.0Q583.2 389.4 583.2 392.2L583.2 392.2L583.2 394.3L566.3 394.3L566.3 394.8Q566.3 397.2 567.7 398.6Q569.2 400.1 572.1 400.1L572.1 400.1Q574.3 400.1 575.9 399.3Q577.5 398.4 578.6 397.0L578.6 397.0L582.5 401.2Q581.0 403.0 578.4 404.3Q575.9 405.6 571.9 405.6ZM571.3 384.7L571.3 384.7Q569.0 384.7 567.6 386.2Q566.3 387.6 566.3 390.0L566.3 390.0L566.3 390.4L576.2 390.4L576.2 390.0Q576.2 387.5 574.9 386.1Q573.6 384.7 571.3 384.7ZM589.2 405L589.2 399.5L594.9 399.5L594.9 385.8L589.2 385.8L589.2 380.2L602.0 380.2L602.0 387.2L602.3 387.2Q602.6 385.9 603.2 384.6Q603.8 383.4 604.8 382.4Q605.7 381.4 607.1 380.8Q608.4 380.2 610.2 380.2L610.2 380.2L612.6 380.2L612.6 386.8L607.3 386.8Q604.7 386.8 603.3 388.3Q602.0 389.9 602.0 392.1L602.0 392.1L602.0 399.5L610.1 399.5L610.1 405L589.2 405ZM642.4 407.5L642.4 407.5Q642.4 411.4 639.1 413.3Q635.8 415.2 628.7 415.2L628.7 415.2Q625.1 415.2 622.8 414.8Q620.5 414.4 619.1 413.6Q617.8 412.8 617.2 411.8Q616.7 410.7 616.7 409.5L616.7 409.5Q616.7 407.4 617.9 406.3Q619.2 405.2 621.4 404.6L621.4 404.6L621.4 404.3Q619.8 403.8 618.9 403.0Q618.0 402.1 618.0 400.4L618.0 400.4Q618.0 398.6 619.2 397.8Q620.4 396.9 622.4 396.4L622.4 396.4L622.4 396.1Q620.2 395.1 619.0 393.1Q617.8 391.2 617.8 388.5L617.8 388.5Q617.8 386.3 618.5 384.7Q619.3 383.0 620.7 381.9Q622.1 380.8 624.1 380.2Q626.1 379.7 628.5 379.7L628.5 379.7Q630.9 379.7 632.9 380.2L632.9 380.2L632.9 378.8Q632.9 377.4 633.9 376.4Q634.9 375.5 636.7 375.5L636.7 375.5L641.0 375.5L641.0 380.7L635.1 380.7L635.1 381.1Q637.1 382.2 638.2 384Q639.4 385.8 639.4 388.5L639.4 388.5Q639.4 390.6 638.6 392.3Q637.8 393.9 636.4 395.0Q634.9 396.2 633.0 396.7Q631.0 397.3 628.5 397.3L628.5 397.3Q627.4 397.3 626.4 397.2Q625.4 397.1 624.5 396.8L624.5 396.8Q624.0 397.1 623.6 397.6Q623.2 398.0 623.2 398.7L623.2 398.7Q623.2 399.2 623.5 399.6Q623.8 399.9 624.3 400.1Q624.8 400.2 625.5 400.3Q626.2 400.3 626.9 400.3L626.9 400.3L632.5 400.3Q635.2 400.3 637.1 400.9Q638.9 401.4 640.1 402.4Q641.3 403.3 641.9 404.6Q642.4 405.9 642.4 407.5ZM635.7 408.0L635.7 408.0Q635.7 407.1 634.9 406.5Q634.1 406.0 632.0 406.0L632.0 406.0L623.5 406.0Q622.5 406.8 622.5 408.0L622.5 408.0Q622.5 409.1 623.5 409.9Q624.5 410.6 626.8 410.6L626.8 410.6L631.0 410.6Q633.5 410.6 634.6 409.9Q635.7 409.3 635.7 408.0ZM628.5 392.8L628.5 392.8Q630.7 392.8 631.7 391.8Q632.6 390.7 632.6 389.1L632.6 389.1L632.6 387.9Q632.6 386.3 631.7 385.2Q630.7 384.2 628.5 384.2L628.5 384.2Q626.4 384.2 625.4 385.2Q624.5 386.3 624.5 387.9L624.5 387.9L624.5 389.1Q624.5 390.7 625.4 391.8Q626.4 392.8 628.5 392.8ZM658.3 405.6L658.3 405.6Q652.0 405.6 648.8 402.1Q645.6 398.7 645.6 392.7L645.6 392.7Q645.6 389.7 646.4 387.3Q647.3 384.8 648.8 383.1Q650.4 381.4 652.6 380.5Q654.9 379.7 657.6 379.7L657.6 379.7Q660.4 379.7 662.6 380.5Q664.8 381.4 666.4 383.1Q667.9 384.7 668.8 387.0Q669.6 389.4 669.6 392.2L669.6 392.2L669.6 394.3L652.7 394.3L652.7 394.8Q652.7 397.2 654.1 398.6Q655.6 400.1 658.5 400.1L658.5 400.1Q660.7 400.1 662.3 399.3Q663.9 398.4 665.0 397.0L665.0 397.0L668.9 401.2Q667.4 403.0 664.8 404.3Q662.3 405.6 658.3 405.6ZM657.7 384.7L657.7 384.7Q655.4 384.7 654.0 386.2Q652.7 387.6 652.7 390.0L652.7 390.0L652.7 390.4L662.6 390.4L662.6 390.0Q662.6 387.5 661.3 386.1Q660.0 384.7 657.7 384.7Z M703.9 405L703.9 369.5L711.0 369.5L711.0 389.6L711.4 389.6L714.7 385.8L719.9 380.2L728.0 380.2L718.4 390.0L729.0 405L720.6 405L713.4 394.1L711.0 396.4L711.0 405L703.9 405Z M772.3 405.6L772.3 405.6Q768.0 405.6 764.9 404.2Q761.8 402.8 759.9 400.4L759.9 400.4L764.1 395.8Q765.9 397.8 768.1 398.8Q770.3 399.7 772.5 399.7L772.5 399.7Q775.1 399.7 776.4 398.6Q777.8 397.4 777.8 395.3L777.8 395.3Q777.8 393.5 776.8 392.6Q775.7 391.7 773.3 391.3L773.3 391.3L769.8 390.7Q765.3 389.9 763.2 387.4Q761.2 384.8 761.2 381.1L761.2 381.1Q761.2 376.2 764.4 373.6Q767.6 370.9 773.3 370.9L773.3 370.9Q777.2 370.9 780.0 372.1Q782.9 373.3 784.7 375.4L784.7 375.4L780.6 379.9Q779.3 378.5 777.5 377.6Q775.6 376.8 773.3 376.8L773.3 376.8Q768.5 376.8 768.5 380.8L768.5 380.8Q768.5 382.5 769.6 383.4Q770.6 384.2 773.1 384.6L773.1 384.6L776.6 385.3Q780.7 386.0 782.9 388.3Q785.1 390.7 785.1 394.7L785.1 394.7Q785.1 397.0 784.3 399.0Q783.5 401.0 781.8 402.5Q780.2 403.9 777.8 404.8Q775.4 405.6 772.3 405.6ZM801.6 405.6L801.6 405.6Q798.7 405.6 796.4 404.7Q794.1 403.8 792.5 402.1Q790.9 400.4 790.0 398.0Q789.2 395.6 789.2 392.6L789.2 392.6Q789.2 389.6 790.0 387.2Q790.9 384.8 792.5 383.1Q794.1 381.4 796.4 380.5Q798.7 379.7 801.6 379.7L801.6 379.7Q804.5 379.7 806.8 380.5Q809.1 381.4 810.7 383.1Q812.3 384.8 813.2 387.2Q814.0 389.6 814.0 392.6L814.0 392.6Q814.0 395.6 813.2 398.0Q812.3 400.4 810.7 402.1Q809.1 403.8 806.8 404.7Q804.5 405.6 801.6 405.6ZM801.6 400.3L801.6 400.3Q804 400.3 805.3 398.8Q806.7 397.3 806.7 394.6L806.7 394.6L806.7 390.6Q806.7 387.9 805.3 386.4Q804 384.9 801.6 384.9L801.6 384.9Q799.2 384.9 797.9 386.4Q796.5 387.9 796.5 390.6L796.5 390.6L796.5 394.6Q796.5 397.3 797.9 398.8Q799.2 400.3 801.6 400.3ZM819.6 405L819.6 399.5L825.3 399.5L825.3 385.8L819.6 385.8L819.6 380.2L832.4 380.2L832.4 387.2L832.7 387.2Q833.0 385.9 833.6 384.6Q834.2 383.4 835.2 382.4Q836.1 381.4 837.5 380.8Q838.8 380.2 840.6 380.2L840.6 380.2L843.0 380.2L843.0 386.8L837.7 386.8Q835.1 386.8 833.7 388.3Q832.4 389.9 832.4 392.1L832.4 392.1L832.4 399.5L840.5 399.5L840.5 405L819.6 405ZM870.3 405L861.1 405Q857.3 405 855.4 403.0Q853.5 401.0 853.5 397.8L853.5 397.8L853.5 385.8L846.8 385.8L846.8 380.2L851.2 380.2Q852.8 380.2 853.4 379.6Q854.1 379.0 854.1 377.3L854.1 377.3L854.1 371.5L860.6 371.5L860.6 380.2L870.3 380.2L870.3 385.8L860.6 385.8L860.6 399.5L870.3 399.5L870.3 405ZM888.7 405.6L888.7 405.6Q882.4 405.6 879.2 402.1Q876.0 398.7 876.0 392.7L876.0 392.7Q876.0 389.7 876.8 387.3Q877.7 384.8 879.2 383.1Q880.8 381.4 883.0 380.5Q885.3 379.7 888.0 379.7L888.0 379.7Q890.8 379.7 893.0 380.5Q895.2 381.4 896.8 383.1Q898.3 384.7 899.2 387.0Q900.0 389.4 900.0 392.2L900.0 392.2L900.0 394.3L883.1 394.3L883.1 394.8Q883.1 397.2 884.5 398.6Q886.0 400.1 888.9 400.1L888.9 400.1Q891.1 400.1 892.7 399.3Q894.3 398.4 895.4 397.0L895.4 397.0L899.3 401.2Q897.8 403.0 895.2 404.3Q892.7 405.6 888.7 405.6ZM888.1 384.7L888.1 384.7Q885.8 384.7 884.4 386.2Q883.1 387.6 883.1 390.0L883.1 390.0L883.1 390.4L893.0 390.4L893.0 390.0Q893.0 387.5 891.7 386.1Q890.4 384.7 888.1 384.7ZM921.3 405L921.3 400.5L920.9 400.5Q920.0 402.7 918.3 404.2Q916.6 405.6 913.6 405.6L913.6 405.6Q911.5 405.6 909.8 404.8Q908.1 404.0 906.9 402.5Q905.7 400.9 905.0 398.4Q904.3 396.0 904.3 392.6L904.3 392.6Q904.3 389.3 905.0 386.8Q905.7 384.4 906.9 382.8Q908.1 381.2 909.8 380.4Q911.5 379.7 913.6 379.7L913.6 379.7Q915.1 379.7 916.2 380.0Q917.4 380.4 918.3 381.1Q919.2 381.8 919.8 382.7Q920.4 383.6 920.9 384.7L920.9 384.7L921.3 384.7L921.3 369.5L928.4 369.5L928.4 405L921.3 405ZM916.7 400.1L916.7 400.1Q918.5 400.1 919.9 399.1Q921.3 398.2 921.3 396.3L921.3 396.3L921.3 389.0Q921.3 387 919.9 386.1Q918.5 385.2 916.7 385.2L916.7 385.2Q914.3 385.2 913.0 386.6Q911.7 388.1 911.7 390.7L911.7 390.7L911.7 394.5Q911.7 397.1 913.0 398.6Q914.3 400.1 916.7 400.1Z M986.1 405L964.4 405L964.4 371.5L971.7 371.5L971.7 399.1L986.1 399.1L986.1 405ZM1004.7 377.1L1004.7 377.1Q1002.3 377.1 1001.4 376.1Q1000.5 375.1 1000.5 373.7L1000.5 373.7L1000.5 372.3Q1000.5 370.9 1001.4 369.9Q1002.3 369.0 1004.7 369.0L1004.7 369.0Q1007.1 369.0 1008.1 369.9Q1009.0 370.9 1009.0 372.3L1009.0 372.3L1009.0 373.7Q1009.0 375.1 1008.1 376.1Q1007.1 377.1 1004.7 377.1ZM993.3 405L993.3 399.5L1001.2 399.5L1001.2 385.8L993.3 385.8L993.3 380.2L1008.3 380.2L1008.3 399.5L1015.6 399.5L1015.6 405L993.3 405ZM1031.7 405.6L1031.7 405.6Q1027.6 405.6 1024.5 404.3Q1021.5 403.1 1020.0 400.9L1020.0 400.9L1023.9 397.2Q1025.4 398.8 1027.3 399.7Q1029.3 400.6 1031.8 400.6L1031.8 400.6Q1033.9 400.6 1035.1 399.9Q1036.3 399.3 1036.3 397.9L1036.3 397.9Q1036.3 396.9 1035.5 396.5Q1034.6 396.1 1033.2 395.8L1033.2 395.8L1029.2 395.2Q1027.5 395.0 1026.1 394.5Q1024.7 394.0 1023.6 393.1Q1022.5 392.2 1021.9 391.0Q1021.3 389.7 1021.3 388.0L1021.3 388.0Q1021.3 384.1 1024.3 381.9Q1027.2 379.7 1032.6 379.7L1032.6 379.7Q1036.3 379.7 1038.8 380.6Q1041.4 381.6 1042.9 383.4L1042.9 383.4L1039.4 387.5Q1038.3 386.3 1036.6 385.5Q1034.8 384.6 1032.4 384.6L1032.4 384.6Q1028.3 384.6 1028.3 387.1L1028.3 387.1Q1028.3 388.2 1029.1 388.7Q1029.9 389.1 1031.3 389.3L1031.3 389.3L1035.3 389.9Q1036.9 390.2 1038.4 390.7Q1039.8 391.2 1040.9 392.0Q1042.0 392.9 1042.6 394.2Q1043.2 395.4 1043.2 397.2L1043.2 397.2Q1043.2 401.1 1040.2 403.3Q1037.2 405.6 1031.7 405.6ZM1071.9 405L1062.7 405Q1058.9 405 1057.0 403.0Q1055.1 401.0 1055.1 397.8L1055.1 397.8L1055.1 385.8L1048.4 385.8L1048.4 380.2L1052.8 380.2Q1054.4 380.2 1055.0 379.6Q1055.7 379.0 1055.7 377.3L1055.7 377.3L1055.7 371.5L1062.2 371.5L1062.2 380.2L1071.9 380.2L1071.9 385.8L1062.2 385.8L1062.2 399.5L1071.9 399.5L1071.9 405ZM1089.3 405.6L1089.3 405.6Q1085.2 405.6 1082.1 404.3Q1079.1 403.1 1077.6 400.9L1077.6 400.9L1081.5 397.2Q1083.0 398.8 1084.9 399.7Q1086.9 400.6 1089.4 400.6L1089.4 400.6Q1091.5 400.6 1092.7 399.9Q1093.9 399.3 1093.9 397.9L1093.9 397.9Q1093.9 396.9 1093.1 396.5Q1092.2 396.1 1090.8 395.8L1090.8 395.8L1086.8 395.2Q1085.1 395.0 1083.7 394.5Q1082.3 394.0 1081.2 393.1Q1080.1 392.2 1079.5 391.0Q1078.9 389.7 1078.9 388.0L1078.9 388.0Q1078.9 384.1 1081.9 381.9Q1084.8 379.7 1090.2 379.7L1090.2 379.7Q1093.9 379.7 1096.4 380.6Q1099.0 381.6 1100.5 383.4L1100.5 383.4L1097.0 387.5Q1095.9 386.3 1094.2 385.5Q1092.4 384.6 1090.0 384.6L1090.0 384.6Q1085.9 384.6 1085.9 387.1L1085.9 387.1Q1085.9 388.2 1086.7 388.7Q1087.5 389.1 1088.9 389.3L1088.9 389.3L1092.9 389.9Q1094.5 390.2 1096.0 390.7Q1097.4 391.2 1098.5 392.0Q1099.6 392.9 1100.2 394.2Q1100.8 395.4 1100.8 397.2L1100.8 397.2Q1100.8 401.1 1097.8 403.3Q1094.8 405.6 1089.3 405.6Z "/></g></svg>