<svg width="1200" height="630" viewBox="0 0 1200 630" xmlns="http://www.w3.org/2000/svg"><defs><pattern id="satori_pattern_id_1" x="0" y="0" width="0.08333333333333333" height="0.15873015873015872" patternUnits="objectBoundingBox"><radialGradient id="satori_radial_id_1" spreadMethod="pad"><stop offset="0" stop-color="lightgray"/><stop offset="0.03" stop-color="lightgray"/><stop offset="0" stop-color="transparent"/><stop offset="1" stop-color="transparent"/></radialGradient><mask id="satori_mask_id_1"><rect x="0" y="0" width="100" height="100" fill="#fff"/></mask><rect x="0" y="0" width="100" height="100" fill="transparent"/><circle cx="75" cy="75" width="100" height="100" r="106.06601717798213" fill="url(#satori_radial_id_1)" mask="url(#satori_mask_id_1)"/></pattern><pattern id="satori_pattern_id_0" x="0" y="0" width="0.08333333333333333" height="0.15873015873015872" patternUnits="objectBoundingBox"><radialGradient id="satori_radial_id_0" spreadMethod="pad"><stop offset="0" stop-color="lightgray"/><stop offset="0.03" stop-color="lightgray"/><stop offset="0" stop-color="transparent"/><stop offset="1" stop-color="transparent"/></radialGradient><mask id="satori_mask_id_0"><rect x="0" y="0" width="100" height="100" fill="#fff"/></mask><rect x="0" y="0" width="100" height="100" fill="transparent"/><circle cx="25" cy="25" width="100" height="100" r="106.06601717798213" fill="url(#satori_radial_id_0)" mask="url(#satori_mask_id_0)"/></pattern></defs><mask id="satori_om-id"><rect x="0" y="0" width="1200" height="630" fill="#fff"/></mask><rect x="0" y="0" width="1200" height="630" fill="white"/><rect x="0" y="0" width="1200" height="630" fill="url(#satori_pattern_id_1)"/><rect x="0" y="0" width="1200" height="630" fill="url(#satori_pattern_id_0)"/><mask id="satori_om-id-0"><rect x="182" y="213" width="836" height="205" fill="#fff"/></mask><mask id="satori_om-id-0-0"><rect x="476" y="213" width="248" height="47" fill="#fff"/></mask><mask id="satori_om-id-0-0-0"><rect x="476" y="229" width="16" height="16" fill="#fff"/></mask><rect x="476" y="229" width="16" height="16" fill="black"/><mask id="satori_om-id-0-0-1"><rect x="508" y="213" width="216" height="47" fill="#fff"/></mask><g  ><path fill="black" d="M511.7 257.2L511.7 254.8L520.7 254.8L520.7 233.9L511.3 233.9L511.3 231.4L523.6 231.4L523.6 253.0Q523.6 254.8 522.6 256.0Q521.6 257.2 519.4 257.2L519.4 257.2L511.7 257.2ZM522.1 227.3L522.1 227.3Q520.9 227.3 520.3 226.8Q519.8 226.3 519.8 225.5L519.8 225.5L519.8 224.9Q519.8 224.1 520.3 223.6Q520.9 223.1 522.1 223.1L522.1 223.1Q523.4 223.1 523.9 223.6Q524.4 224.1 524.4 224.9L524.4 224.9L524.4 225.5Q524.4 226.3 523.9 226.8Q523.4 227.3 522.1 227.3ZM549.4 250L547.4 250Q545.7 250 545.0 249.1Q544.3 248.3 544.1 247.0L544.1 247.0L543.9 247.0Q543.3 248.6 542.0 249.5Q540.6 250.4 538.3 250.4L538.3 250.4Q535.4 250.4 533.7 248.9Q532.0 247.4 532.0 244.8L532.0 244.8Q532.0 242.2 533.9 240.8Q535.8 239.4 540.0 239.4L540.0 239.4L543.9 239.4L543.9 237.5Q543.9 235.5 542.8 234.5Q541.6 233.4 539.5 233.4L539.5 233.4Q537.6 233.4 536.4 234.2Q535.3 234.9 534.5 236.2L534.5 236.2L532.6 234.7Q532.9 234.0 533.6 233.3Q534.2 232.6 535.1 232.1Q536.0 231.6 537.1 231.3Q538.3 231.0 539.7 231.0L539.7 231.0Q543.0 231.0 544.9 232.6Q546.8 234.3 546.8 237.3L546.8 237.3L546.8 247.5L549.4 247.5L549.4 250ZM538.9 248.0L538.9 248.0Q540.0 248.0 540.9 247.8Q541.8 247.5 542.5 247.0Q543.2 246.6 543.6 245.9Q543.9 245.3 543.9 244.6L543.9 244.6L543.9 241.5L540.0 241.5Q537.4 241.5 536.2 242.3Q535 243.0 535 244.3L535 244.3L535 245.1Q535 246.5 536.0 247.3Q537.1 248.0 538.9 248.0ZM562.3 250.4L562.3 250.4Q560.3 250.4 558.7 249.7Q557.1 249.1 556.0 247.8Q554.8 246.5 554.2 244.7Q553.6 242.9 553.6 240.7L553.6 240.7Q553.6 238.5 554.2 236.7Q554.9 234.9 556.0 233.6Q557.1 232.4 558.7 231.7Q560.2 231.0 562.1 231.0L562.1 231.0Q564.0 231.0 565.5 231.7Q567.1 232.4 568.2 233.6Q569.2 234.8 569.8 236.4Q570.4 238.1 570.4 240.1L570.4 240.1L570.4 241.4L556.6 241.4L556.6 242.3Q556.6 243.5 557.0 244.6Q557.4 245.6 558.2 246.4Q558.9 247.1 560.0 247.5Q561.0 247.9 562.3 247.9L562.3 247.9Q564.2 247.9 565.6 247.1Q566.9 246.2 567.7 244.7L567.7 244.7L569.8 246.1Q568.9 248.0 567.0 249.2Q565.1 250.4 562.3 250.4ZM562.1 233.4L562.1 233.4Q561.0 233.4 559.9 233.8Q558.9 234.2 558.2 235.0Q557.5 235.7 557.1 236.8Q556.6 237.8 556.6 239.0L556.6 239.0L556.6 239.3L567.3 239.3L567.3 238.9Q567.3 237.7 566.9 236.6Q566.5 235.6 565.9 234.9Q565.2 234.2 564.3 233.8Q563.3 233.4 562.1 233.4ZM576.3 250L576.3 223.4L579.2 223.4L579.2 234.4L579.4 234.4Q579.6 233.8 580.1 233.1Q580.5 232.5 581.1 232.0Q581.8 231.6 582.6 231.3Q583.5 231.0 584.6 231.0L584.6 231.0Q587.6 231.0 589.3 232.8Q591.1 234.7 591.1 238.1L591.1 238.1L591.1 250L588.2 250L588.2 238.6Q588.2 236.0 587.1 234.8Q586.0 233.5 583.8 233.5L583.8 233.5Q583.0 233.5 582.1 233.8Q581.3 234.0 580.6 234.4Q580.0 234.8 579.6 235.5Q579.2 236.2 579.2 237.1L579.2 237.1L579.2 250L576.3 250ZM605.5 250.4L605.5 250.4Q603.5 250.4 601.9 249.7Q600.3 249.1 599.2 247.8Q598.0 246.5 597.4 244.7Q596.8 242.9 596.8 240.7L596.8 240.7Q596.8 238.5 597.4 236.7Q598.1 234.9 599.2 233.6Q600.3 232.4 601.9 231.7Q603.4 231.0 605.3 231.0L605.3 231.0Q607.2 231.0 608.7 231.7Q610.3 232.4 611.4 233.6Q612.4 234.8 613.0 236.4Q613.6 238.1 613.6 240.1L613.6 240.1L613.6 241.4L599.8 241.4L599.8 242.3Q599.8 243.5 600.2 244.6Q600.6 245.6 601.4 246.4Q602.1 247.1 603.2 247.5Q604.2 247.9 605.5 247.9L605.5 247.9Q607.4 247.9 608.8 247.1Q610.1 246.2 610.9 244.7L610.9 244.7L613.0 246.1Q612.1 248.0 610.2 249.2Q608.3 250.4 605.5 250.4ZM605.3 233.4L605.3 233.4Q604.2 233.4 603.1 233.8Q602.1 234.2 601.4 235.0Q600.7 235.7 600.3 236.8Q599.8 237.8 599.8 239.0L599.8 239.0L599.8 239.3L610.5 239.3L610.5 238.9Q610.5 237.7 610.1 236.6Q609.7 235.6 609.1 234.9Q608.4 234.2 607.5 233.8Q606.5 233.4 605.3 233.4ZM627.1 250.4L627.1 250.4Q625.1 250.4 623.5 249.7Q621.9 249.1 620.8 247.8Q619.6 246.5 619.0 244.7Q618.4 242.9 618.4 240.7L618.4 240.7Q618.4 238.5 619.0 236.7Q619.7 234.9 620.8 233.6Q621.9 232.4 623.5 231.7Q625.0 231.0 626.9 231.0L626.9 231.0Q628.8 231.0 630.3 231.7Q631.9 232.4 633.0 233.6Q634.0 234.8 634.6 236.4Q635.2 238.1 635.2 240.1L635.2 240.1L635.2 241.4L621.4 241.4L621.4 242.3Q621.4 243.5 621.8 244.6Q622.2 245.6 623.0 246.4Q623.7 247.1 624.8 247.5Q625.8 247.9 627.1 247.9L627.1 247.9Q629.0 247.9 630.4 247.1Q631.7 246.2 632.5 244.7L632.5 244.7L634.6 246.1Q633.7 248.0 631.8 249.2Q629.9 250.4 627.1 250.4ZM626.9 233.4L626.9 233.4Q625.8 233.4 624.7 233.8Q623.7 234.2 623.0 235.0Q622.3 235.7 621.9 236.8Q621.4 237.8 621.4 239.0L621.4 239.0L621.4 239.3L632.1 239.3L632.1 238.9Q632.1 237.7 631.7 236.6Q631.3 235.6 630.7 234.9Q630.0 234.2 629.1 233.8Q628.1 233.4 626.9 233.4ZM648.4 250.3L648.4 250.3Q646.9 250.3 646.3 249.7Q645.7 249.1 645.7 248.2L645.7 248.2L645.7 247.5Q645.7 246.6 646.3 246.0Q646.9 245.4 648.4 245.4L648.4 245.4Q649.9 245.4 650.5 246.0Q651.1 246.6 651.1 247.5L651.1 247.5L651.1 248.2Q651.1 249.1 650.5 249.7Q649.9 250.3 648.4 250.3ZM674.5 250L674.5 247.0L674.4 247.0Q672.6 250.4 668.6 250.4L668.6 250.4Q665.2 250.4 663.3 247.9Q661.4 245.3 661.4 240.7L661.4 240.7Q661.4 236.1 663.3 233.5Q665.2 231.0 668.6 231.0L668.6 231.0Q672.6 231.0 674.4 234.4L674.4 234.4L674.5 234.4L674.5 223.4L677.4 223.4L677.4 250L674.5 250ZM669.7 247.9L669.7 247.9Q670.7 247.9 671.6 247.6Q672.4 247.4 673.1 246.9Q673.7 246.4 674.1 245.7Q674.5 245.0 674.5 244.1L674.5 244.1L674.5 237.4Q674.5 236.4 674.1 235.7Q673.7 235.0 673.1 234.5Q672.4 234.1 671.6 233.8Q670.7 233.5 669.7 233.5L669.7 233.5Q667.2 233.5 665.8 235.1Q664.5 236.6 664.5 239.1L664.5 239.1L664.5 242.3Q664.5 244.8 665.8 246.3Q667.2 247.9 669.7 247.9ZM691.9 250.4L691.9 250.4Q689.9 250.4 688.3 249.7Q686.7 249.1 685.6 247.8Q684.4 246.5 683.8 244.7Q683.2 242.9 683.2 240.7L683.2 240.7Q683.2 238.5 683.8 236.7Q684.5 234.9 685.6 233.6Q686.7 232.4 688.3 231.7Q689.8 231.0 691.7 231.0L691.7 231.0Q693.6 231.0 695.1 231.7Q696.7 232.4 697.8 233.6Q698.8 234.8 699.4 236.4Q700.0 238.1 700.0 240.1L700.0 240.1L700.0 241.4L686.2 241.4L686.2 242.3Q686.2 243.5 686.6 244.6Q687.0 245.6 687.8 246.4Q688.5 247.1 689.6 247.5Q690.6 247.9 691.9 247.9L691.9 247.9Q693.8 247.9 695.2 247.1Q696.5 246.2 697.3 244.7L697.3 244.7L699.4 246.1Q698.5 248.0 696.6 249.2Q694.7 250.4 691.9 250.4ZM691.7 233.4L691.7 233.4Q690.6 233.4 689.5 233.8Q688.5 234.2 687.8 235.0Q687.1 235.7 686.7 236.8Q686.2 237.8 686.2 239.0L686.2 239.0L686.2 239.3L696.9 239.3L696.9 238.9Q696.9 237.7 696.5 236.6Q696.1 235.6 695.5 234.9Q694.8 234.2 693.9 233.8Q692.9 233.4 691.7 233.4ZM715.0 250L711.4 250L704.7 231.4L707.6 231.4L710.3 239.2L713.2 247.6L713.3 247.6L716.2 239.2L718.9 231.4L721.7 231.4L715.0 250Z "/></g><mask id="satori_om-id-0-1"><rect x="182" y="356" width="836" height="62" fill="#fff"/></mask><g  ><path fill="black" d="M208.1 405L186.4 405L186.4 371.5L193.7 371.5L193.7 399.1L208.1 399.1L208.1 405ZM225.9 405.6L225.9 405.6Q219.6 405.6 216.4 402.1Q213.2 398.7 213.2 392.7L213.2 392.7Q213.2 389.7 214.0 387.3Q214.9 384.8 216.4 383.1Q218 381.4 220.2 380.5Q222.5 379.7 225.2 379.7L225.2 379.7Q228.0 379.7 230.2 380.5Q232.4 381.4 234.0 383.1Q235.5 384.7 236.4 387.0Q237.2 389.4 237.2 392.2L237.2 392.2L237.2 394.3L220.3 394.3L220.3 394.8Q220.3 397.2 221.7 398.6Q223.2 400.1 226.1 400.1L226.1 400.1Q228.3 400.1 229.9 399.3Q231.5 398.4 232.6 397.0L232.6 397.0L236.5 401.2Q235.0 403.0 232.4 404.3Q229.9 405.6 225.9 405.6ZM225.3 384.7L225.3 384.7Q223.0 384.7 221.6 386.2Q220.3 387.6 220.3 390.0L220.3 390.0L220.3 390.4L230.2 390.4L230.2 390.0Q230.2 387.5 228.9 386.1Q227.6 384.7 225.3 384.7ZM254.7 405.6L254.7 405.6Q248.4 405.6 245.2 402.1Q242.0 398.7 242.0 392.7L242.0 392.7Q242.0 389.7 242.8 387.3Q243.7 384.8 245.2 383.1Q246.8 381.4 249.0 380.5Q251.3 379.7 254.0 379.7L254.0 379.7Q256.8 379.7 259.0 380.5Q261.2 381.4 262.8 383.1Q264.3 384.7 265.2 387.0Q266 389.4 266 392.2L266 392.2L266 394.3L249.1 394.3L249.1 394.8Q249.1 397.2 250.5 398.6Q252.0 400.1 254.9 400.1L254.9 400.1Q257.1 400.1 258.7 399.3Q260.3 398.4 261.4 397.0L261.4 397.0L265.3 401.2Q263.8 403.0 261.2 404.3Q258.7 405.6 254.7 405.6ZM254.1 384.7L254.1 384.7Q251.8 384.7 250.4 386.2Q249.1 387.6 249.1 390.0L249.1 390.0L249.1 390.4L259.0 390.4L259.0 390.0Q259.0 387.5 257.7 386.1Q256.4 384.7 254.1 384.7ZM293.9 405L284.7 405Q280.9 405 279.0 403.0Q277.1 401.0 277.1 397.8L277.1 397.8L277.1 385.8L270.4 385.8L270.4 380.2L274.8 380.2Q276.4 380.2 277.0 379.6Q277.7 379.0 277.7 377.3L277.7 377.3L277.7 371.5L284.2 371.5L284.2 380.2L293.9 380.2L293.9 385.8L284.2 385.8L284.2 399.5L293.9 399.5L293.9 405ZM312.4 405.6L312.4 405.6Q305.6 405.6 302.4 401.0Q299.2 396.5 299.2 388.2L299.2 388.2Q299.2 380.0 302.4 375.5Q305.6 370.9 312.4 370.9L312.4 370.9Q315.0 370.9 317.0 371.6Q318.9 372.3 320.4 373.6Q321.8 374.8 322.8 376.6Q323.7 378.4 324.2 380.6L324.2 380.6L317.5 382.2Q317.2 381 316.8 380.0Q316.4 379.0 315.8 378.3Q315.2 377.5 314.4 377.1Q313.5 376.7 312.2 376.7L312.2 376.7Q309.3 376.7 308.1 379.0Q306.8 381.3 306.8 385.3L306.8 385.3L306.8 391.2Q306.8 395.2 308.1 397.5Q309.3 399.8 312.2 399.8L312.2 399.8Q314.7 399.8 315.8 398.2Q317.0 396.7 317.5 394.3L317.5 394.3L324.2 395.9Q323.7 398.1 322.8 399.9Q321.8 401.7 320.4 403.0Q318.9 404.2 317.0 404.9Q315.0 405.6 312.4 405.6ZM340.4 405.6L340.4 405.6Q337.5 405.6 335.2 404.7Q332.9 403.8 331.3 402.1Q329.7 400.4 328.8 398.0Q328.0 395.6 328.0 392.6L328.0 392.6Q328.0 389.6 328.8 387.2Q329.7 384.8 331.3 383.1Q332.9 381.4 335.2 380.5Q337.5 379.7 340.4 379.7L340.4 379.7Q343.3 379.7 345.6 380.5Q347.9 381.4 349.5 383.1Q351.1 384.8 352.0 387.2Q352.8 389.6 352.8 392.6L352.8 392.6Q352.8 395.6 352.0 398.0Q351.1 400.4 349.5 402.1Q347.9 403.8 345.6 404.7Q343.3 405.6 340.4 405.6ZM340.4 400.3L340.4 400.3Q342.8 400.3 344.1 398.8Q345.5 397.3 345.5 394.6L345.5 394.6L345.5 390.6Q345.5 387.9 344.1 386.4Q342.8 384.9 340.4 384.9L340.4 384.9Q338.0 384.9 336.7 386.4Q335.3 387.9 335.3 390.6L335.3 390.6L335.3 394.6Q335.3 397.3 336.7 398.8Q338.0 400.3 340.4 400.3ZM373.7 405L373.7 400.5L373.3 400.5Q372.4 402.7 370.7 404.2Q369.0 405.6 366.0 405.6L366.0 405.6Q363.9 405.6 362.2 404.8Q360.5 404.0 359.3 402.5Q358.1 400.9 357.4 398.4Q356.7 396.0 356.7 392.6L356.7 392.6Q356.7 389.3 357.4 386.8Q358.1 384.4 359.3 382.8Q360.5 381.2 362.2 380.4Q363.9 379.7 366.0 379.7L366.0 379.7Q367.5 379.7 368.6 380.0Q369.8 380.4 370.7 381.1Q371.6 381.8 372.2 382.7Q372.8 383.6 373.3 384.7L373.3 384.7L373.7 384.7L373.7 369.5L380.8 369.5L380.8 405L373.7 405ZM369.1 400.1L369.1 400.1Q370.9 400.1 372.3 399.1Q373.7 398.2 373.7 396.3L373.7 396.3L373.7 389.0Q373.7 387 372.3 386.1Q370.9 385.2 369.1 385.2L369.1 385.2Q366.7 385.2 365.4 386.6Q364.1 388.1 364.1 390.7L364.1 390.7L364.1 394.5Q364.1 397.1 365.4 398.6Q366.7 400.1 369.1 400.1ZM398.7 405.6L398.7 405.6Q392.4 405.6 389.2 402.1Q386.0 398.7 386.0 392.7L386.0 392.7Q386.0 389.7 386.8 387.3Q387.7 384.8 389.2 383.1Q390.8 381.4 393.0 380.5Q395.3 379.7 398.0 379.7L398.0 379.7Q400.8 379.7 403.0 380.5Q405.2 381.4 406.8 383.1Q408.3 384.7 409.2 387.0Q410.0 389.4 410.0 392.2L410.0 392.2L410.0 394.3L393.1 394.3L393.1 394.8Q393.1 397.2 394.5 398.6Q396.0 400.1 398.9 400.1L398.9 400.1Q401.1 400.1 402.7 399.3Q404.3 398.4 405.4 397.0L405.4 397.0L409.3 401.2Q407.8 403.0 405.2 404.3Q402.7 405.6 398.7 405.6ZM398.1 384.7L398.1 384.7Q395.8 384.7 394.4 386.2Q393.1 387.6 393.1 390.0L393.1 390.0L393.1 390.4L403.0 390.4L403.0 390.0Q403.0 387.5 401.7 386.1Q400.4 384.7 398.1 384.7Z M463.3 393.8L447.9 393.8L447.9 387.0L463.3 387.0L463.3 393.8Z M525.4 399.0L525.4 405L501.3 405L501.3 398.4L511.9 389.6Q514.6 387.3 515.8 385.6Q517.0 383.8 517.0 381.9L517.0 381.9L517.0 381.4Q517.0 379.3 515.8 378.2Q514.5 377.2 512.4 377.2L512.4 377.2Q510.0 377.2 508.7 378.6Q507.4 379.9 506.9 381.9L506.9 381.9L500.6 379.5Q501.2 377.7 502.2 376.2Q503.2 374.6 504.8 373.5Q506.3 372.3 508.4 371.6Q510.5 370.9 513.2 370.9L513.2 370.9Q515.9 370.9 518.0 371.7Q520.2 372.5 521.7 373.8Q523.2 375.1 524.0 377.0Q524.7 378.8 524.7 381L524.7 381Q524.7 383.1 524.0 384.9Q523.3 386.6 522.1 388.2Q520.9 389.7 519.2 391.1Q517.6 392.6 515.7 394.0L515.7 394.0L509.3 399.0L525.4 399.0ZM542 405.6L542 405.6Q539.3 405.6 538.1 404.4Q537.0 403.2 537.0 401.6L537.0 401.6L537.0 399.9Q537.0 398.3 538.1 397.1Q539.3 395.9 542 395.9L542 395.9Q544.7 395.9 545.9 397.1Q547.0 398.3 547.0 399.9L547.0 399.9L547.0 401.6Q547.0 403.2 545.9 404.4Q544.7 405.6 542 405.6Z M613.8 405L606.1 405L604.0 396.9L594.8 396.9L592.7 405L585.4 405L594.5 371.5L604.7 371.5L613.8 405ZM602.9 391.1L599.6 378.5L599.2 378.5L596.0 391.1L602.9 391.1ZM632.9 405L632.9 400.5L632.5 400.5Q631.6 402.7 629.9 404.2Q628.2 405.6 625.2 405.6L625.2 405.6Q623.1 405.6 621.4 404.8Q619.7 404.0 618.5 402.5Q617.3 400.9 616.6 398.4Q615.9 396.0 615.9 392.6L615.9 392.6Q615.9 389.3 616.6 386.8Q617.3 384.4 618.5 382.8Q619.7 381.2 621.4 380.4Q623.1 379.7 625.2 379.7L625.2 379.7Q626.7 379.7 627.8 380.0Q629.0 380.4 629.9 381.1Q630.8 381.8 631.4 382.7Q632.0 383.6 632.5 384.7L632.5 384.7L632.9 384.7L632.9 369.5L640.0 369.5L640.0 405L632.9 405ZM628.3 400.1L628.3 400.1Q630.1 400.1 631.5 399.1Q632.9 398.2 632.9 396.3L632.9 396.3L632.9 389.0Q632.9 387 631.5 386.1Q630.1 385.2 628.3 385.2L628.3 385.2Q625.9 385.2 624.6 386.6Q623.3 388.1 623.3 390.7L623.3 390.7L623.3 394.5Q623.3 397.1 624.6 398.6Q625.9 400.1 628.3 400.1ZM661.7 405L661.7 400.5L661.3 400.5Q660.4 402.7 658.7 404.2Q657.0 405.6 654.0 405.6L654.0 405.6Q651.9 405.6 650.2 404.8Q648.5 404.0 647.3 402.5Q646.1 400.9 645.4 398.4Q644.7 396.0 644.7 392.6L644.7 392.6Q644.7 389.3 645.4 386.8Q646.1 384.4 647.3 382.8Q648.5 381.2 650.2 380.4Q651.9 379.7 654.0 379.7L654.0 379.7Q655.5 379.7 656.6 380.0Q657.8 380.4 658.7 381.1Q659.6 381.8 660.2 382.7Q660.8 383.6 661.3 384.7L661.3 384.7L661.7 384.7L661.7 369.5L668.8 369.5L668.8 405L661.7 405ZM657.1 400.1L657.1 400.1Q658.9 400.1 660.3 399.1Q661.7 398.2 661.7 396.3L661.7 396.3L661.7 389.0Q661.7 387 660.3 386.1Q658.9 385.2 657.1 385.2L657.1 385.2Q654.7 385.2 653.4 386.6Q652.1 388.1 652.1 390.7L652.1 390.7L652.1 394.5Q652.1 397.1 653.4 398.6Q654.7 400.1 657.1 400.1Z M728.0 377.4L718.4 377.4L718.4 405L711.2 405L711.2 377.4L701.6 377.4L701.6 371.5L728.0 371.5L728.0 377.4ZM732.5 405L729.5 380.2L735.4 380.2L737.2 400.3L737.7 400.3L740.6 380.2L746.9 380.2L749.7 400.3L750.2 400.3L752.0 380.2L757.7 380.2L754.7 405L746.3 405L743.8 387.9L743.4 387.9L740.9 405L732.5 405ZM772.4 405.6L772.4 405.6Q769.5 405.6 767.2 404.7Q764.9 403.8 763.3 402.1Q761.7 400.4 760.8 398.0Q760.0 395.6 760.0 392.6L760.0 392.6Q760.0 389.6 760.8 387.2Q761.7 384.8 763.3 383.1Q764.9 381.4 767.2 380.5Q769.5 379.7 772.4 379.7L772.4 379.7Q775.3 379.7 777.6 380.5Q779.9 381.4 781.5 383.1Q783.1 384.8 784.0 387.2Q784.8 389.6 784.8 392.6L784.8 392.6Q784.8 395.6 784.0 398.0Q783.1 400.4 781.5 402.1Q779.9 403.8 777.6 404.7Q775.3 405.6 772.4 405.6ZM772.4 400.3L772.4 400.3Q774.8 400.3 776.1 398.8Q777.5 397.3 777.5 394.6L777.5 394.6L777.5 390.6Q777.5 387.9 776.1 386.4Q774.8 384.9 772.4 384.9L772.4 384.9Q770 384.9 768.7 386.4Q767.3 387.9 767.3 390.6L767.3 390.6L767.3 394.6Q767.3 397.3 768.7 398.8Q770 400.3 772.4 400.3Z M832.8 405L825.2 382.7L824.7 382.7L824.7 405L818.5 405L818.5 371.5L827.2 371.5L834.8 393.8L835.3 393.8L835.3 371.5L841.5 371.5L841.5 405L832.8 405ZM863.0 405L863.0 400.5L862.7 400.5Q861.9 402.6 860.1 404.1Q858.4 405.6 855.4 405.6L855.4 405.6Q853.6 405.6 852.1 405.0Q850.6 404.4 849.6 403.2Q848.5 402.0 847.9 400.2Q847.3 398.5 847.3 396.3L847.3 396.3L847.3 380.2L854.4 380.2L854.4 395.3Q854.4 400.1 858.6 400.1L858.6 400.1Q859.4 400.1 860.2 399.9Q861.0 399.7 861.6 399.2Q862.2 398.8 862.6 398.1Q863.0 397.4 863.0 396.5L863.0 396.5L863.0 380.2L870.1 380.2L870.1 405L863.0 405ZM880.4 405L874.6 405L874.6 380.2L880.4 380.2L880.4 383.9L880.7 383.9Q881.3 382.2 882.3 380.9Q883.4 379.7 885.4 379.7L885.4 379.7Q889.0 379.7 889.8 383.9L889.8 383.9L890.1 383.9Q890.4 383.0 890.8 382.2Q891.2 381.5 891.9 380.9Q892.5 380.3 893.4 380.0Q894.2 379.7 895.4 379.7L895.4 379.7Q900.6 379.7 900.6 387.3L900.6 387.3L900.6 405L894.8 405L894.8 388.0Q894.8 386.3 894.2 385.6Q893.6 384.9 892.7 384.9L892.7 384.9Q891.8 384.9 891.1 385.5Q890.5 386.1 890.5 387.3L890.5 387.3L890.5 405L884.7 405L884.7 388.0Q884.7 386.3 884.2 385.6Q883.6 384.9 882.7 384.9L882.7 384.9Q881.7 384.9 881.0 385.5Q880.4 386.1 880.4 387.3L880.4 387.3L880.4 405ZM904.8 405L904.8 369.5L911.9 369.5L911.9 384.7L912.3 384.7Q913.2 382.5 914.9 381.1Q916.6 379.7 919.6 379.7L919.6 379.7Q921.7 379.7 923.4 380.4Q925.1 381.2 926.3 382.8Q927.5 384.4 928.2 386.8Q928.9 389.3 928.9 392.6L928.9 392.6Q928.9 396.0 928.2 398.4Q927.5 400.9 926.3 402.5Q925.1 404.0 923.4 404.8Q921.7 405.6 919.6 405.6L919.6 405.6Q916.6 405.6 914.9 404.2Q913.2 402.7 912.3 400.5L912.3 400.5L911.9 400.5L911.9 405L904.8 405ZM916.5 400.1L916.5 400.1Q918.9 400.1 920.2 398.6Q921.5 397.1 921.5 394.5L921.5 394.5L921.5 390.7Q921.5 388.1 920.2 386.6Q918.9 385.2 916.5 385.2L916.5 385.2Q914.7 385.2 913.3 386.1Q911.9 387 911.9 389.0L911.9 389.0L911.9 396.3Q911.9 398.2 913.3 399.1Q914.7 400.1 916.5 400.1ZM945.9 405.6L945.9 405.6Q939.6 405.6 936.4 402.1Q933.2 398.7 933.2 392.7L933.2 392.7Q933.2 389.7 934.0 387.3Q934.9 384.8 936.4 383.1Q938 381.4 940.2 380.5Q942.5 379.7 945.2 379.7L945.2 379.7Q948.0 379.7 950.2 380.5Q952.4 381.4 954.0 383.1Q955.5 384.7 956.4 387.0Q957.2 389.4 957.2 392.2L957.2 392.2L957.2 394.3L940.3 394.3L940.3 394.8Q940.3 397.2 941.7 398.6Q943.2 400.1 946.1 400.1L946.1 400.1Q948.3 400.1 949.9 399.3Q951.5 398.4 952.6 397.0L952.6 397.0L956.5 401.2Q955.0 403.0 952.4 404.3Q949.9 405.6 945.9 405.6ZM945.3 384.7L945.3 384.7Q943.0 384.7 941.6 386.2Q940.3 387.6 940.3 390.0L940.3 390.0L940.3 390.4L950.2 390.4L950.2 390.0Q950.2 387.5 948.9 386.1Q947.6 384.7 945.3 384.7ZM963.2 405L963.2 399.5L968.9 399.5L968.9 385.8L963.2 385.8L963.2 380.2L976.0 380.2L976.0 387.2L976.3 387.2Q976.6 385.9 977.2 384.6Q977.8 383.4 978.8 382.4Q979.7 381.4 981.1 380.8Q982.4 380.2 984.2 380.2L984.2 380.2L986.6 380.2L986.6 386.8L981.3 386.8Q978.7 386.8 977.3 388.3Q976.0 389.9 976.0 392.1L976.0 392.1L976.0 399.5L984.1 399.5L984.1 405L963.2 405ZM1002.5 405.6L1002.5 405.6Q998.4 405.6 995.3 404.3Q992.3 403.1 990.8 400.9L990.8 400.9L994.7 397.2Q996.2 398.8 998.1 399.7Q1000.1 400.6 1002.6 400.6L1002.6 400.6Q1004.7 400.6 1005.9 399.9Q1007.1 399.3 1007.1 397.9L1007.1 397.9Q1007.1 396.9 1006.3 396.5Q1005.4 396.1 1004.0 395.8L1004.0 395.8L1000.0 395.2Q998.3 395.0 996.9 394.5Q995.5 394.0 994.4 393.1Q993.3 392.2 992.7 391.0Q992.1 389.7 992.1 388.0L992.1 388.0Q992.1 384.1 995.1 381.9Q998.0 379.7 1003.4 379.7L1003.4 379.7Q1007.1 379.7 1009.6 380.6Q1012.2 381.6 1013.7 383.4L1013.7 383.4L1010.2 387.5Q1009.1 386.3 1007.4 385.5Q1005.6 384.6 1003.2 384.6L1003.2 384.6Q999.1 384.6 999.1 387.1L999.1 387.1Q999.1 388.2 999.9 388.7Q1000.7 389.1 1002.1 389.3L1002.1 389.3L1006.1 389.9Q1007.7 390.2 1009.2 390.7Q1010.6 391.2 1011.7 392.0Q1012.8 392.9 1013.4 394.2Q1014.0 395.4 1014.0 397.2L1014.0 397.2Q1014.0 401.1 1011.0 403.3Q1008.0 405.6 1002.5 405.6Z "/></g></svg>