<svg width="1200" height="630" viewBox="0 0 1200 630" xmlns="http://www.w3.org/2000/svg"><defs><pattern id="satori_pattern_id_1" x="0" y="0" width="0.08333333333333333" height="0.15873015873015872" patternUnits="objectBoundingBox"><radialGradient id="satori_radial_id_1" spreadMethod="pad"><stop offset="0" stop-color="lightgray"/><stop offset="0.03" stop-color="lightgray"/><stop offset="0" stop-color="transparent"/><stop offset="1" stop-color="transparent"/></radialGradient><mask id="satori_mask_id_1"><rect x="0" y="0" width="100" height="100" fill="#fff"/></mask><rect x="0" y="0" width="100" height="100" fill="transparent"/><circle cx="75" cy="75" width="100" height="100" r="106.06601717798213" fill="url(#satori_radial_id_1)" mask="url(#satori_mask_id_1)"/></pattern><pattern id="satori_pattern_id_0" x="0" y="0" width="0.08333333333333333" height="0.15873015873015872" patternUnits="objectBoundingBox"><radialGradient id="satori_radial_id_0" spreadMethod="pad"><stop offset="0" stop-color="lightgray"/><stop offset="0.03" stop-color="lightgray"/><stop offset="0" stop-color="transparent"/><stop offset="1" stop-color="transparent"/></radialGradient><mask id="satori_mask_id_0"><rect x="0" y="0" width="100" height="100" fill="#fff"/></mask><rect x="0" y="0" width="100" height="100" fill="transparent"/><circle cx="25" cy="25" width="100" height="100" r="106.06601717798213" fill="url(#satori_radial_id_0)" mask="url(#satori_mask_id_0)"/></pattern></defs><mask id="satori_om-id"><rect x="0" y="0" width="1200" height="630" fill="#fff"/></mask><rect x="0" y="0" width="1200" height="630" fill="white"/><rect x="0" y="0" width="1200" height="630" fill="url(#satori_pattern_id_1)"/><rect x="0" y="0" width="1200" height="630" fill="url(#satori_pattern_id_0)"/><mask id="satori_om-id-0"><rect x="10" y="213" width="1181" height="205" fill="#fff"/></mask><mask id="satori_om-id-0-0"><rect x="477" y="213" width="248" height="47" fill="#fff"/></mask><mask id="satori_om-id-0-0-0"><rect x="477" y="229" width="16" height="16" fill="#fff"/></mask><rect x="477" y="229" width="16" height="16" fill="black"/><mask id="satori_om-id-0-0-1"><rect x="509" y="213" width="216" height="47" fill="#fff"/></mask><g  ><path fill="black" d="M512.7 257.2L512.7 254.8L521.7 254.8L521.7 233.9L512.3 233.9L512.3 231.4L524.6 231.4L524.6 253.0Q524.6 254.8 523.6 256.0Q522.6 257.2 520.4 257.2L520.4 257.2L512.7 257.2ZM523.1 227.3L523.1 227.3Q521.9 227.3 521.3 226.8Q520.8 226.3 520.8 225.5L520.8 225.5L520.8 224.9Q520.8 224.1 521.3 223.6Q521.9 223.1 523.1 223.1L523.1 223.1Q524.4 223.1 524.9 223.6Q525.4 224.1 525.4 224.9L525.4 224.9L525.4 225.5Q525.4 226.3 524.9 226.8Q524.4 227.3 523.1 227.3ZM550.4 250L548.4 250Q546.7 250 546.0 249.1Q545.3 248.3 545.1 247.0L545.1 247.0L544.9 247.0Q544.3 248.6 543.0 249.5Q541.6 250.4 539.3 250.4L539.3 250.4Q536.4 250.4 534.7 248.9Q533.0 247.4 533.0 244.8L533.0 244.8Q533.0 242.2 534.9 240.8Q536.8 239.4 541.0 239.4L541.0 239.4L544.9 239.4L544.9 237.5Q544.9 235.5 543.8 234.5Q542.6 233.4 540.5 233.4L540.5 233.4Q538.6 233.4 537.4 234.2Q536.3 234.9 535.5 236.2L535.5 236.2L533.6 234.7Q533.9 234.0 534.6 233.3Q535.2 232.6 536.1 232.1Q537.0 231.6 538.1 231.3Q539.3 231.0 540.7 231.0L540.7 231.0Q544.0 231.0 545.9 232.6Q547.8 234.3 547.8 237.3L547.8 237.3L547.8 247.5L550.4 247.5L550.4 250ZM539.9 248.0L539.9 248.0Q541.0 248.0 541.9 247.8Q542.8 247.5 543.5 247.0Q544.2 246.6 544.6 245.9Q544.9 245.3 544.9 244.6L544.9 244.6L544.9 241.5L541.0 241.5Q538.4 241.5 537.2 242.3Q536 243.0 536 244.3L536 244.3L536 245.1Q536 246.5 537.0 247.3Q538.1 248.0 539.9 248.0ZM563.3 250.4L563.3 250.4Q561.3 250.4 559.7 249.7Q558.1 249.1 557.0 247.8Q555.8 246.5 555.2 244.7Q554.6 242.9 554.6 240.7L554.6 240.7Q554.6 238.5 555.2 236.7Q555.9 234.9 557.0 233.6Q558.1 232.4 559.7 231.7Q561.2 231.0 563.1 231.0L563.1 231.0Q565.0 231.0 566.5 231.7Q568.1 232.4 569.2 233.6Q570.2 234.8 570.8 236.4Q571.4 238.1 571.4 240.1L571.4 240.1L571.4 241.4L557.6 241.4L557.6 242.3Q557.6 243.5 558.0 244.6Q558.4 245.6 559.2 246.4Q559.9 247.1 561.0 247.5Q562.0 247.9 563.3 247.9L563.3 247.9Q565.2 247.9 566.6 247.1Q567.9 246.2 568.7 244.7L568.7 244.7L570.8 246.1Q569.9 248.0 568.0 249.2Q566.1 250.4 563.3 250.4ZM563.1 233.4L563.1 233.4Q562.0 233.4 560.9 233.8Q559.9 234.2 559.2 235.0Q558.5 235.7 558.1 236.8Q557.6 237.8 557.6 239.0L557.6 239.0L557.6 239.3L568.3 239.3L568.3 238.9Q568.3 237.7 567.9 236.6Q567.5 235.6 566.9 234.9Q566.2 234.2 565.3 233.8Q564.3 233.4 563.1 233.4ZM577.3 250L577.3 223.4L580.2 223.4L580.2 234.4L580.4 234.4Q580.6 233.8 581.1 233.1Q581.5 232.5 582.1 232.0Q582.8 231.6 583.6 231.3Q584.5 231.0 585.6 231.0L585.6 231.0Q588.6 231.0 590.3 232.8Q592.1 234.7 592.1 238.1L592.1 238.1L592.1 250L589.2 250L589.2 238.6Q589.2 236.0 588.1 234.8Q587.0 233.5 584.8 233.5L584.8 233.5Q584.0 233.5 583.1 233.8Q582.3 234.0 581.6 234.4Q581.0 234.8 580.6 235.5Q580.2 236.2 580.2 237.1L580.2 237.1L580.2 250L577.3 250ZM606.5 250.4L606.5 250.4Q604.5 250.4 602.9 249.7Q601.3 249.1 600.2 247.8Q599.0 246.5 598.4 244.7Q597.8 242.9 597.8 240.7L597.8 240.7Q597.8 238.5 598.4 236.7Q599.1 234.9 600.2 233.6Q601.3 232.4 602.9 231.7Q604.4 231.0 606.3 231.0L606.3 231.0Q608.2 231.0 609.7 231.7Q611.3 232.4 612.4 233.6Q613.4 234.8 614.0 236.4Q614.6 238.1 614.6 240.1L614.6 240.1L614.6 241.4L600.8 241.4L600.8 242.3Q600.8 243.5 601.2 244.6Q601.6 245.6 602.4 246.4Q603.1 247.1 604.2 247.5Q605.2 247.9 606.5 247.9L606.5 247.9Q608.4 247.9 609.8 247.1Q611.1 246.2 611.9 244.7L611.9 244.7L614.0 246.1Q613.1 248.0 611.2 249.2Q609.3 250.4 606.5 250.4ZM606.3 233.4L606.3 233.4Q605.2 233.4 604.1 233.8Q603.1 234.2 602.4 235.0Q601.7 235.7 601.3 236.8Q600.8 237.8 600.8 239.0L600.8 239.0L600.8 239.3L611.5 239.3L611.5 238.9Q611.5 237.7 611.1 236.6Q610.7 235.6 610.1 234.9Q609.4 234.2 608.5 233.8Q607.5 233.4 606.3 233.4ZM628.1 250.4L628.1 250.4Q626.1 250.4 624.5 249.7Q622.9 249.1 621.8 247.8Q620.6 246.5 620.0 244.7Q619.4 242.9 619.4 240.7L619.4 240.7Q619.4 238.5 620.0 236.7Q620.7 234.9 621.8 233.6Q622.9 232.4 624.5 231.7Q626.0 231.0 627.9 231.0L627.9 231.0Q629.8 231.0 631.3 231.7Q632.9 232.4 634.0 233.6Q635.0 234.8 635.6 236.4Q636.2 238.1 636.2 240.1L636.2 240.1L636.2 241.4L622.4 241.4L622.4 242.3Q622.4 243.5 622.8 244.6Q623.2 245.6 624.0 246.4Q624.7 247.1 625.8 247.5Q626.8 247.9 628.1 247.9L628.1 247.9Q630.0 247.9 631.4 247.1Q632.7 246.2 633.5 244.7L633.5 244.7L635.6 246.1Q634.7 248.0 632.8 249.2Q630.9 250.4 628.1 250.4ZM627.9 233.4L627.9 233.4Q626.8 233.4 625.7 233.8Q624.7 234.2 624.0 235.0Q623.3 235.7 622.9 236.8Q622.4 237.8 622.4 239.0L622.4 239.0L622.4 239.3L633.1 239.3L633.1 238.9Q633.1 237.7 632.7 236.6Q632.3 235.6 631.7 234.9Q631.0 234.2 630.1 233.8Q629.1 233.4 627.9 233.4ZM649.4 250.3L649.4 250.3Q647.9 250.3 647.3 249.7Q646.7 249.1 646.7 248.2L646.7 248.2L646.7 247.5Q646.7 246.6 647.3 246.0Q647.9 245.4 649.4 245.4L649.4 245.4Q650.9 245.4 651.5 246.0Q652.1 246.6 652.1 247.5L652.1 247.5L652.1 248.2Q652.1 249.1 651.5 249.7Q650.9 250.3 649.4 250.3ZM675.5 250L675.5 247.0L675.4 247.0Q673.6 250.4 669.6 250.4L669.6 250.4Q666.2 250.4 664.3 247.9Q662.4 245.3 662.4 240.7L662.4 240.7Q662.4 236.1 664.3 233.5Q666.2 231.0 669.6 231.0L669.6 231.0Q673.6 231.0 675.4 234.4L675.4 234.4L675.5 234.4L675.5 223.4L678.4 223.4L678.4 250L675.5 250ZM670.7 247.9L670.7 247.9Q671.7 247.9 672.6 247.6Q673.4 247.4 674.1 246.9Q674.7 246.4 675.1 245.7Q675.5 245.0 675.5 244.1L675.5 244.1L675.5 237.4Q675.5 236.4 675.1 235.7Q674.7 235.0 674.1 234.5Q673.4 234.1 672.6 233.8Q671.7 233.5 670.7 233.5L670.7 233.5Q668.2 233.5 666.8 235.1Q665.5 236.6 665.5 239.1L665.5 239.1L665.5 242.3Q665.5 244.8 666.8 246.3Q668.2 247.9 670.7 247.9ZM692.9 250.4L692.9 250.4Q690.9 250.4 689.3 249.7Q687.7 249.1 686.6 247.8Q685.4 246.5 684.8 244.7Q684.2 242.9 684.2 240.7L684.2 240.7Q684.2 238.5 684.8 236.7Q685.5 234.9 686.6 233.6Q687.7 232.4 689.3 231.7Q690.8 231.0 692.7 231.0L692.7 231.0Q694.6 231.0 696.1 231.7Q697.7 232.4 698.8 233.6Q699.8 234.8 700.4 236.4Q701.0 238.1 701.0 240.1L701.0 240.1L701.0 241.4L687.2 241.4L687.2 242.3Q687.2 243.5 687.6 244.6Q688.0 245.6 688.8 246.4Q689.5 247.1 690.6 247.5Q691.6 247.9 692.9 247.9L692.9 247.9Q694.8 247.9 696.2 247.1Q697.5 246.2 698.3 244.7L698.3 244.7L700.4 246.1Q699.5 248.0 697.6 249.2Q695.7 250.4 692.9 250.4ZM692.7 233.4L692.7 233.4Q691.6 233.4 690.5 233.8Q689.5 234.2 688.8 235.0Q688.1 235.7 687.7 236.8Q687.2 237.8 687.2 239.0L687.2 239.0L687.2 239.3L697.9 239.3L697.9 238.9Q697.9 237.7 697.5 236.6Q697.1 235.6 696.5 234.9Q695.8 234.2 694.9 233.8Q693.9 233.4 692.7 233.4ZM716.0 250L712.4 250L705.7 231.4L708.6 231.4L711.3 239.2L714.2 247.6L714.3 247.6L717.2 239.2L719.9 231.4L722.7 231.4L716.0 250Z "/></g><mask id="satori_om-id-0-1"><rect x="10" y="356" width="1181" height="62" fill="#fff"/></mask><g  ><path fill="black" d="M36.1 405L14.4 405L14.4 371.5L21.7 371.5L21.7 399.1L36.1 399.1L36.1 405ZM53.9 405.6L53.9 405.6Q47.6 405.6 44.4 402.1Q41.2 398.7 41.2 392.7L41.2 392.7Q41.2 389.7 42.0 387.3Q42.9 384.8 44.4 383.1Q46 381.4 48.2 380.5Q50.5 379.7 53.2 379.7L53.2 379.7Q56.0 379.7 58.2 380.5Q60.4 381.4 62.0 383.1Q63.5 384.7 64.4 387.0Q65.2 389.4 65.2 392.2L65.2 392.2L65.2 394.3L48.3 394.3L48.3 394.8Q48.3 397.2 49.7 398.6Q51.2 400.1 54.1 400.1L54.1 400.1Q56.3 400.1 57.9 399.3Q59.5 398.4 60.6 397.0L60.6 397.0L64.5 401.2Q63.0 403.0 60.4 404.3Q57.9 405.6 53.9 405.6ZM53.3 384.7L53.3 384.7Q51.0 384.7 49.6 386.2Q48.3 387.6 48.3 390.0L48.3 390.0L48.3 390.4L58.2 390.4L58.2 390.0Q58.2 387.5 56.9 386.1Q55.6 384.7 53.3 384.7ZM82.7 405.6L82.7 405.6Q76.4 405.6 73.2 402.1Q70 398.7 70 392.7L70 392.7Q70 389.7 70.8 387.3Q71.7 384.8 73.2 383.1Q74.8 381.4 77.0 380.5Q79.3 379.7 82.0 379.7L82.0 379.7Q84.8 379.7 87.0 380.5Q89.2 381.4 90.8 383.1Q92.3 384.7 93.2 387.0Q94 389.4 94 392.2L94 392.2L94 394.3L77.1 394.3L77.1 394.8Q77.1 397.2 78.5 398.6Q80.0 400.1 82.9 400.1L82.9 400.1Q85.1 400.1 86.7 399.3Q88.3 398.4 89.4 397.0L89.4 397.0L93.3 401.2Q91.8 403.0 89.2 404.3Q86.7 405.6 82.7 405.6ZM82.1 384.7L82.1 384.7Q79.8 384.7 78.4 386.2Q77.1 387.6 77.1 390.0L77.1 390.0L77.1 390.4L87.0 390.4L87.0 390.0Q87.0 387.5 85.7 386.1Q84.4 384.7 82.1 384.7ZM121.9 405L112.7 405Q108.9 405 107.0 403.0Q105.1 401.0 105.1 397.8L105.1 397.8L105.1 385.8L98.4 385.8L98.4 380.2L102.8 380.2Q104.4 380.2 105.0 379.6Q105.7 379.0 105.7 377.3L105.7 377.3L105.7 371.5L112.2 371.5L112.2 380.2L121.9 380.2L121.9 385.8L112.2 385.8L112.2 399.5L121.9 399.5L121.9 405ZM140.4 405.6L140.4 405.6Q133.6 405.6 130.4 401.0Q127.2 396.5 127.2 388.2L127.2 388.2Q127.2 380.0 130.4 375.5Q133.6 370.9 140.4 370.9L140.4 370.9Q143.0 370.9 145.0 371.6Q146.9 372.3 148.4 373.6Q149.8 374.8 150.8 376.6Q151.7 378.4 152.2 380.6L152.2 380.6L145.5 382.2Q145.2 381 144.8 380.0Q144.4 379.0 143.8 378.3Q143.2 377.5 142.4 377.1Q141.5 376.7 140.2 376.7L140.2 376.7Q137.3 376.7 136.1 379.0Q134.8 381.3 134.8 385.3L134.8 385.3L134.8 391.2Q134.8 395.2 136.1 397.5Q137.3 399.8 140.2 399.8L140.2 399.8Q142.7 399.8 143.8 398.2Q145.0 396.7 145.5 394.3L145.5 394.3L152.2 395.9Q151.7 398.1 150.8 399.9Q149.8 401.7 148.4 403.0Q146.9 404.2 145.0 404.9Q143.0 405.6 140.4 405.6ZM168.4 405.6L168.4 405.6Q165.5 405.6 163.2 404.7Q160.9 403.8 159.3 402.1Q157.7 400.4 156.8 398.0Q156.0 395.6 156.0 392.6L156.0 392.6Q156.0 389.6 156.8 387.2Q157.7 384.8 159.3 383.1Q160.9 381.4 163.2 380.5Q165.5 379.7 168.4 379.7L168.4 379.7Q171.3 379.7 173.6 380.5Q175.9 381.4 177.5 383.1Q179.1 384.8 180.0 387.2Q180.8 389.6 180.8 392.6L180.8 392.6Q180.8 395.6 180.0 398.0Q179.1 400.4 177.5 402.1Q175.9 403.8 173.6 404.7Q171.3 405.6 168.4 405.6ZM168.4 400.3L168.4 400.3Q170.8 400.3 172.1 398.8Q173.5 397.3 173.5 394.6L173.5 394.6L173.5 390.6Q173.5 387.9 172.1 386.4Q170.8 384.9 168.4 384.9L168.4 384.9Q166 384.9 164.7 386.4Q163.3 387.9 163.3 390.6L163.3 390.6L163.3 394.6Q163.3 397.3 164.7 398.8Q166 400.3 168.4 400.3ZM201.7 405L201.7 400.5L201.3 400.5Q200.4 402.7 198.7 404.2Q197.0 405.6 194.0 405.6L194.0 405.6Q191.9 405.6 190.2 404.8Q188.5 404.0 187.3 402.5Q186.1 400.9 185.4 398.4Q184.7 396.0 184.7 392.6L184.7 392.6Q184.7 389.3 185.4 386.8Q186.1 384.4 187.3 382.8Q188.5 381.2 190.2 380.4Q191.9 379.7 194.0 379.7L194.0 379.7Q195.5 379.7 196.6 380.0Q197.8 380.4 198.7 381.1Q199.6 381.8 200.2 382.7Q200.8 383.6 201.3 384.7L201.3 384.7L201.7 384.7L201.7 369.5L208.8 369.5L208.8 405L201.7 405ZM197.1 400.1L197.1 400.1Q198.9 400.1 200.3 399.1Q201.7 398.2 201.7 396.3L201.7 396.3L201.7 389.0Q201.7 387 200.3 386.1Q198.9 385.2 197.1 385.2L197.1 385.2Q194.7 385.2 193.4 386.6Q192.1 388.1 192.1 390.7L192.1 390.7L192.1 394.5Q192.1 397.1 193.4 398.6Q194.7 400.1 197.1 400.1ZM226.7 405.6L226.7 405.6Q220.4 405.6 217.2 402.1Q214 398.7 214 392.7L214 392.7Q214 389.7 214.8 387.3Q215.7 384.8 217.2 383.1Q218.8 381.4 221.0 380.5Q223.3 379.7 226.0 379.7L226.0 379.7Q228.8 379.7 231.0 380.5Q233.2 381.4 234.8 383.1Q236.3 384.7 237.2 387.0Q238 389.4 238 392.2L238 392.2L238 394.3L221.1 394.3L221.1 394.8Q221.1 397.2 222.5 398.6Q224.0 400.1 226.9 400.1L226.9 400.1Q229.1 400.1 230.7 399.3Q232.3 398.4 233.4 397.0L233.4 397.0L237.3 401.2Q235.8 403.0 233.2 404.3Q230.7 405.6 226.7 405.6ZM226.1 384.7L226.1 384.7Q223.8 384.7 222.4 386.2Q221.1 387.6 221.1 390.0L221.1 390.0L221.1 390.4L231.0 390.4L231.0 390.0Q231.0 387.5 229.7 386.1Q228.4 384.7 226.1 384.7Z M291.3 393.8L275.9 393.8L275.9 387.0L291.3 387.0L291.3 393.8Z M350.0 405L343.1 405L343.1 398.6L328.0 398.6L328.0 392.4L341.3 371.5L350.0 371.5L350.0 393L354.3 393L354.3 398.6L350.0 398.6L350.0 405ZM342.6 378.9L333.8 393L343.1 393L343.1 378.9L342.6 378.9ZM370.0 405.6L370.0 405.6Q367.3 405.6 366.1 404.4Q365.0 403.2 365.0 401.6L365.0 401.6L365.0 399.9Q365.0 398.3 366.1 397.1Q367.3 395.9 370.0 395.9L370.0 395.9Q372.7 395.9 373.9 397.1Q375.0 398.3 375.0 399.9L375.0 399.9L375.0 401.6Q375.0 403.2 373.9 404.4Q372.7 405.6 370.0 405.6Z M433.9 405L433.9 390.1L434.3 380.7L433.8 380.7L427.6 397.9L421.4 380.7L420.9 380.7L421.3 390.1L421.3 405L415.1 405L415.1 371.5L423.6 371.5L427.7 382.8L428.1 382.8L432.2 371.5L440.1 371.5L440.1 405L433.9 405ZM457.1 405.6L457.1 405.6Q450.8 405.6 447.6 402.1Q444.4 398.7 444.4 392.7L444.4 392.7Q444.4 389.7 445.2 387.3Q446.1 384.8 447.6 383.1Q449.2 381.4 451.4 380.5Q453.7 379.7 456.4 379.7L456.4 379.7Q459.2 379.7 461.4 380.5Q463.6 381.4 465.2 383.1Q466.7 384.7 467.6 387.0Q468.4 389.4 468.4 392.2L468.4 392.2L468.4 394.3L451.5 394.3L451.5 394.8Q451.5 397.2 452.9 398.6Q454.4 400.1 457.3 400.1L457.3 400.1Q459.5 400.1 461.1 399.3Q462.7 398.4 463.8 397.0L463.8 397.0L467.7 401.2Q466.2 403.0 463.6 404.3Q461.1 405.6 457.1 405.6ZM456.5 384.7L456.5 384.7Q454.2 384.7 452.8 386.2Q451.5 387.6 451.5 390.0L451.5 390.0L451.5 390.4L461.4 390.4L461.4 390.0Q461.4 387.5 460.1 386.1Q458.8 384.7 456.5 384.7ZM489.7 405L489.7 400.5L489.3 400.5Q488.4 402.7 486.7 404.2Q485.0 405.6 482.0 405.6L482.0 405.6Q479.9 405.6 478.2 404.8Q476.5 404.0 475.3 402.5Q474.1 400.9 473.4 398.4Q472.7 396.0 472.7 392.6L472.7 392.6Q472.7 389.3 473.4 386.8Q474.1 384.4 475.3 382.8Q476.5 381.2 478.2 380.4Q479.9 379.7 482.0 379.7L482.0 379.7Q483.5 379.7 484.6 380.0Q485.8 380.4 486.7 381.1Q487.6 381.8 488.2 382.7Q488.8 383.6 489.3 384.7L489.3 384.7L489.7 384.7L489.7 369.5L496.8 369.5L496.8 405L489.7 405ZM485.1 400.1L485.1 400.1Q486.9 400.1 488.3 399.1Q489.7 398.2 489.7 396.3L489.7 396.3L489.7 389.0Q489.7 387 488.3 386.1Q486.9 385.2 485.1 385.2L485.1 385.2Q482.7 385.2 481.4 386.6Q480.1 388.1 480.1 390.7L480.1 390.7L480.1 394.5Q480.1 397.1 481.4 398.6Q482.7 400.1 485.1 400.1ZM515.5 377.1L515.5 377.1Q513.1 377.1 512.2 376.1Q511.3 375.1 511.3 373.7L511.3 373.7L511.3 372.3Q511.3 370.9 512.2 369.9Q513.1 369.0 515.5 369.0L515.5 369.0Q517.9 369.0 518.9 369.9Q519.8 370.9 519.8 372.3L519.8 372.3L519.8 373.7Q519.8 375.1 518.9 376.1Q517.9 377.1 515.5 377.1ZM504.1 405L504.1 399.5L512.0 399.5L512.0 385.8L504.1 385.8L504.1 380.2L519.1 380.2L519.1 399.5L526.4 399.5L526.4 405L504.1 405ZM555.9 405L551.8 405Q549.6 405 548.2 403.9Q546.9 402.7 546.6 400.6L546.6 400.6L546.4 400.6Q545.7 403.1 543.7 404.3Q541.7 405.6 538.9 405.6L538.9 405.6Q535.3 405.6 533.1 403.6Q530.9 401.7 530.9 398.2L530.9 398.2Q530.9 394.3 533.7 392.4Q536.6 390.6 542.0 390.6L542.0 390.6L546.0 390.6L546.0 389.3Q546.0 387.1 545.0 386.0Q544.0 384.8 541.5 384.8L541.5 384.8Q539.2 384.8 537.9 385.7Q536.5 386.6 535.5 388.0L535.5 388.0L531.6 384.5Q532.8 382.4 535.5 381.0Q538.1 379.7 542.3 379.7L542.3 379.7Q547.4 379.7 550.3 382.0Q553.1 384.3 553.1 389.0L553.1 389.0L553.1 399.9L555.9 399.9L555.9 405ZM541.6 400.9L541.6 400.9Q543.4 400.9 544.7 400.0Q546.0 399.1 546.0 397.4L546.0 397.4L546.0 394.4L542.2 394.4Q537.9 394.4 537.9 397.3L537.9 397.3L537.9 398.3Q537.9 399.6 538.9 400.2Q539.9 400.9 541.6 400.9ZM567.4 405L560.3 405L560.3 380.2L567.4 380.2L567.4 384.7L567.7 384.7Q568.1 383.7 568.8 382.8Q569.4 381.9 570.3 381.2Q571.2 380.5 572.3 380.1Q573.5 379.7 575.0 379.7L575.0 379.7Q576.8 379.7 578.3 380.3Q579.8 380.9 580.8 382.1Q581.9 383.3 582.5 385.0Q583.1 386.7 583.1 389.0L583.1 389.0L583.1 405L576.0 405L576.0 389.9Q576.0 385.1 571.8 385.1L571.8 385.1Q571.0 385.1 570.2 385.3Q569.4 385.6 568.8 386.0Q568.1 386.5 567.8 387.1Q567.4 387.8 567.4 388.7L567.4 388.7L567.4 405Z M629.2 405.6L629.2 405.6Q626.3 405.6 624.0 404.7Q621.7 403.8 620.1 402.1Q618.5 400.4 617.6 398.0Q616.8 395.6 616.8 392.6L616.8 392.6Q616.8 389.6 617.6 387.2Q618.5 384.8 620.1 383.1Q621.7 381.4 624.0 380.5Q626.3 379.7 629.2 379.7L629.2 379.7Q632.1 379.7 634.4 380.5Q636.7 381.4 638.3 383.1Q639.9 384.8 640.8 387.2Q641.6 389.6 641.6 392.6L641.6 392.6Q641.6 395.6 640.8 398.0Q639.9 400.4 638.3 402.1Q636.7 403.8 634.4 404.7Q632.1 405.6 629.2 405.6ZM629.2 400.3L629.2 400.3Q631.6 400.3 632.9 398.8Q634.3 397.3 634.3 394.6L634.3 394.6L634.3 390.6Q634.3 387.9 632.9 386.4Q631.6 384.9 629.2 384.9L629.2 384.9Q626.8 384.9 625.5 386.4Q624.1 387.9 624.1 390.6L624.1 390.6L624.1 394.6Q624.1 397.3 625.5 398.8Q626.8 400.3 629.2 400.3ZM647.0 405L647.0 399.5L654.3 399.5L654.3 385.8L646.5 385.8L646.5 380.2L654.3 380.2L654.3 376.6Q654.3 373.5 656.2 371.5Q658 369.5 661.9 369.5L661.9 369.5L670.3 369.5L670.3 375L661.4 375L661.4 380.2L670.3 380.2L670.3 385.8L661.4 385.8L661.4 399.5L669.2 399.5L669.2 405L647.0 405Z M728.8 377.4L719.2 377.4L719.2 405L712 405L712 377.4L702.4 377.4L702.4 371.5L728.8 371.5L728.8 377.4ZM733.3 405L730.3 380.2L736.2 380.2L738.0 400.3L738.5 400.3L741.4 380.2L747.7 380.2L750.5 400.3L751.0 400.3L752.8 380.2L758.5 380.2L755.5 405L747.1 405L744.6 387.9L744.2 387.9L741.7 405L733.3 405ZM773.2 405.6L773.2 405.6Q770.3 405.6 768.0 404.7Q765.7 403.8 764.1 402.1Q762.5 400.4 761.6 398.0Q760.8 395.6 760.8 392.6L760.8 392.6Q760.8 389.6 761.6 387.2Q762.5 384.8 764.1 383.1Q765.7 381.4 768.0 380.5Q770.3 379.7 773.2 379.7L773.2 379.7Q776.1 379.7 778.4 380.5Q780.7 381.4 782.3 383.1Q783.9 384.8 784.8 387.2Q785.6 389.6 785.6 392.6L785.6 392.6Q785.6 395.6 784.8 398.0Q783.9 400.4 782.3 402.1Q780.7 403.8 778.4 404.7Q776.1 405.6 773.2 405.6ZM773.2 400.3L773.2 400.3Q775.6 400.3 776.9 398.8Q778.3 397.3 778.3 394.6L778.3 394.6L778.3 390.6Q778.3 387.9 776.9 386.4Q775.6 384.9 773.2 384.9L773.2 384.9Q770.8 384.9 769.5 386.4Q768.1 387.9 768.1 390.6L768.1 390.6L768.1 394.6Q768.1 397.3 769.5 398.8Q770.8 400.3 773.2 400.3Z M830.3 405.6L830.3 405.6Q826.0 405.6 822.9 404.2Q819.8 402.8 817.9 400.4L817.9 400.4L822.1 395.8Q823.9 397.8 826.1 398.8Q828.3 399.7 830.5 399.7L830.5 399.7Q833.1 399.7 834.4 398.6Q835.8 397.4 835.8 395.3L835.8 395.3Q835.8 393.5 834.8 392.6Q833.7 391.7 831.3 391.3L831.3 391.3L827.8 390.7Q823.3 389.9 821.2 387.4Q819.2 384.8 819.2 381.1L819.2 381.1Q819.2 376.2 822.4 373.6Q825.6 370.9 831.3 370.9L831.3 370.9Q835.2 370.9 838.0 372.1Q840.9 373.3 842.7 375.4L842.7 375.4L838.6 379.9Q837.3 378.5 835.5 377.6Q833.6 376.8 831.3 376.8L831.3 376.8Q826.5 376.8 826.5 380.8L826.5 380.8Q826.5 382.5 827.6 383.4Q828.6 384.2 831.1 384.6L831.1 384.6L834.6 385.3Q838.7 386.0 840.9 388.3Q843.1 390.7 843.1 394.7L843.1 394.7Q843.1 397.0 842.3 399.0Q841.5 401.0 839.8 402.5Q838.2 403.9 835.8 404.8Q833.4 405.6 830.3 405.6ZM859.6 405.6L859.6 405.6Q856.7 405.6 854.4 404.7Q852.1 403.8 850.5 402.1Q848.9 400.4 848.0 398.0Q847.2 395.6 847.2 392.6L847.2 392.6Q847.2 389.6 848.0 387.2Q848.9 384.8 850.5 383.1Q852.1 381.4 854.4 380.5Q856.7 379.7 859.6 379.7L859.6 379.7Q862.5 379.7 864.8 380.5Q867.1 381.4 868.7 383.1Q870.3 384.8 871.2 387.2Q872.0 389.6 872.0 392.6L872.0 392.6Q872.0 395.6 871.2 398.0Q870.3 400.4 868.7 402.1Q867.1 403.8 864.8 404.7Q862.5 405.6 859.6 405.6ZM859.6 400.3L859.6 400.3Q862 400.3 863.3 398.8Q864.7 397.3 864.7 394.6L864.7 394.6L864.7 390.6Q864.7 387.9 863.3 386.4Q862 384.9 859.6 384.9L859.6 384.9Q857.2 384.9 855.9 386.4Q854.5 387.9 854.5 390.6L854.5 390.6L854.5 394.6Q854.5 397.3 855.9 398.8Q857.2 400.3 859.6 400.3ZM877.6 405L877.6 399.5L883.3 399.5L883.3 385.8L877.6 385.8L877.6 380.2L890.4 380.2L890.4 387.2L890.7 387.2Q891.0 385.9 891.6 384.6Q892.2 383.4 893.2 382.4Q894.1 381.4 895.5 380.8Q896.8 380.2 898.6 380.2L898.6 380.2L901.0 380.2L901.0 386.8L895.7 386.8Q893.1 386.8 891.7 388.3Q890.4 389.9 890.4 392.1L890.4 392.1L890.4 399.5L898.5 399.5L898.5 405L877.6 405ZM928.3 405L919.1 405Q915.3 405 913.4 403.0Q911.5 401.0 911.5 397.8L911.5 397.8L911.5 385.8L904.8 385.8L904.8 380.2L909.2 380.2Q910.8 380.2 911.4 379.6Q912.1 379.0 912.1 377.3L912.1 377.3L912.1 371.5L918.6 371.5L918.6 380.2L928.3 380.2L928.3 385.8L918.6 385.8L918.6 399.5L928.3 399.5L928.3 405ZM946.7 405.6L946.7 405.6Q940.4 405.6 937.2 402.1Q934.0 398.7 934.0 392.7L934.0 392.7Q934.0 389.7 934.8 387.3Q935.7 384.8 937.2 383.1Q938.8 381.4 941.0 380.5Q943.3 379.7 946.0 379.7L946.0 379.7Q948.8 379.7 951.0 380.5Q953.2 381.4 954.8 383.1Q956.3 384.7 957.2 387.0Q958.0 389.4 958.0 392.2L958.0 392.2L958.0 394.3L941.1 394.3L941.1 394.8Q941.1 397.2 942.5 398.6Q944.0 400.1 946.9 400.1L946.9 400.1Q949.1 400.1 950.7 399.3Q952.3 398.4 953.4 397.0L953.4 397.0L957.3 401.2Q955.8 403.0 953.2 404.3Q950.7 405.6 946.7 405.6ZM946.1 384.7L946.1 384.7Q943.8 384.7 942.4 386.2Q941.1 387.6 941.1 390.0L941.1 390.0L941.1 390.4L951.0 390.4L951.0 390.0Q951.0 387.5 949.7 386.1Q948.4 384.7 946.1 384.7ZM979.3 405L979.3 400.5L978.9 400.5Q978.0 402.7 976.3 404.2Q974.6 405.6 971.6 405.6L971.6 405.6Q969.5 405.6 967.8 404.8Q966.1 404.0 964.9 402.5Q963.7 400.9 963.0 398.4Q962.3 396.0 962.3 392.6L962.3 392.6Q962.3 389.3 963.0 386.8Q963.7 384.4 964.9 382.8Q966.1 381.2 967.8 380.4Q969.5 379.7 971.6 379.7L971.6 379.7Q973.1 379.7 974.2 380.0Q975.4 380.4 976.3 381.1Q977.2 381.8 977.8 382.7Q978.4 383.6 978.9 384.7L978.9 384.7L979.3 384.7L979.3 369.5L986.4 369.5L986.4 405L979.3 405ZM974.7 400.1L974.7 400.1Q976.5 400.1 977.9 399.1Q979.3 398.2 979.3 396.3L979.3 396.3L979.3 389.0Q979.3 387 977.9 386.1Q976.5 385.2 974.7 385.2L974.7 385.2Q972.3 385.2 971.0 386.6Q969.7 388.1 969.7 390.7L969.7 390.7L969.7 394.5Q969.7 397.1 971.0 398.6Q972.3 400.1 974.7 400.1Z M1046.6 405L1038.9 405L1036.8 396.9L1027.6 396.9L1025.5 405L1018.2 405L1027.3 371.5L1037.5 371.5L1046.6 405ZM1035.7 391.1L1032.4 378.5L1032.0 378.5L1028.8 391.1L1035.7 391.1ZM1050.4 405L1050.4 399.5L1056.1 399.5L1056.1 385.8L1050.4 385.8L1050.4 380.2L1063.2 380.2L1063.2 387.2L1063.5 387.2Q1063.8 385.9 1064.4 384.6Q1065.0 383.4 1066.0 382.4Q1066.9 381.4 1068.3 380.8Q1069.6 380.2 1071.4 380.2L1071.4 380.2L1073.8 380.2L1073.8 386.8L1068.5 386.8Q1065.9 386.8 1064.5 388.3Q1063.2 389.9 1063.2 392.1L1063.2 392.1L1063.2 399.5L1071.3 399.5L1071.3 405L1050.4 405ZM1079.2 405L1079.2 399.5L1084.9 399.5L1084.9 385.8L1079.2 385.8L1079.2 380.2L1092.0 380.2L1092.0 387.2L1092.3 387.2Q1092.6 385.9 1093.2 384.6Q1093.8 383.4 1094.8 382.4Q1095.7 381.4 1097.1 380.8Q1098.4 380.2 1100.2 380.2L1100.2 380.2L1102.6 380.2L1102.6 386.8L1097.3 386.8Q1094.7 386.8 1093.3 388.3Q1092.0 389.9 1092.0 392.1L1092.0 392.1L1092.0 399.5L1100.1 399.5L1100.1 405L1079.2 405ZM1131.9 405L1127.8 405Q1125.6 405 1124.2 403.9Q1122.9 402.7 1122.6 400.6L1122.6 400.6L1122.4 400.6Q1121.7 403.1 1119.7 404.3Q1117.7 405.6 1114.9 405.6L1114.9 405.6Q1111.3 405.6 1109.1 403.6Q1106.9 401.7 1106.9 398.2L1106.9 398.2Q1106.9 394.3 1109.7 392.4Q1112.6 390.6 1118.0 390.6L1118.0 390.6L1122.0 390.6L1122.0 389.3Q1122.0 387.1 1121.0 386.0Q1120.0 384.8 1117.5 384.8L1117.5 384.8Q1115.2 384.8 1113.9 385.7Q1112.5 386.6 1111.5 388.0L1111.5 388.0L1107.6 384.5Q1108.8 382.4 1111.5 381.0Q1114.1 379.7 1118.3 379.7L1118.3 379.7Q1123.4 379.7 1126.3 382.0Q1129.1 384.3 1129.1 389.0L1129.1 389.0L1129.1 399.9L1131.9 399.9L1131.9 405ZM1117.6 400.9L1117.6 400.9Q1119.4 400.9 1120.7 400.0Q1122.0 399.1 1122.0 397.4L1122.0 397.4L1122.0 394.4L1118.2 394.4Q1113.9 394.4 1113.9 397.3L1113.9 397.3L1113.9 398.3Q1113.9 399.6 1114.9 400.2Q1115.9 400.9 1117.6 400.9ZM1150.1 390.6L1153.8 380.2L1161.1 380.2L1149.4 409.0Q1148.3 411.7 1146.5 413.2Q1144.7 414.6 1141.5 414.6L1141.5 414.6L1136.6 414.6L1136.6 409.1L1142.6 409.1L1144.1 404.9L1134.1 380.2L1141.7 380.2L1145.3 390.6L1147.6 397.8L1148.0 397.8L1150.1 390.6ZM1176.1 405.6L1176.1 405.6Q1172.0 405.6 1168.9 404.3Q1165.9 403.1 1164.4 400.9L1164.4 400.9L1168.3 397.2Q1169.8 398.8 1171.7 399.7Q1173.7 400.6 1176.2 400.6L1176.2 400.6Q1178.3 400.6 1179.5 399.9Q1180.7 399.3 1180.7 397.9L1180.7 397.9Q1180.7 396.9 1179.9 396.5Q1179.0 396.1 1177.6 395.8L1177.6 395.8L1173.6 395.2Q1171.9 395.0 1170.5 394.5Q1169.1 394.0 1168 393.1Q1166.9 392.2 1166.3 391.0Q1165.7 389.7 1165.7 388.0L1165.7 388.0Q1165.7 384.1 1168.7 381.9Q1171.6 379.7 1177.0 379.7L1177.0 379.7Q1180.7 379.7 1183.2 380.6Q1185.8 381.6 1187.3 383.4L1187.3 383.4L1183.8 387.5Q1182.7 386.3 1181.0 385.5Q1179.2 384.6 1176.8 384.6L1176.8 384.6Q1172.7 384.6 1172.7 387.1L1172.7 387.1Q1172.7 388.2 1173.5 388.7Q1174.3 389.1 1175.7 389.3L1175.7 389.3L1179.7 389.9Q1181.3 390.2 1182.8 390.7Q1184.2 391.2 1185.3 392.0Q1186.4 392.9 1187.0 394.2Q1187.6 395.4 1187.6 397.2L1187.6 397.2Q1187.6 401.1 1184.6 403.3Q1181.6 405.6 1176.1 405.6Z "/></g></svg>