<svg width="1200" height="630" viewBox="0 0 1200 630" xmlns="http://www.w3.org/2000/svg"><defs><pattern id="satori_pattern_id_1" x="0" y="0" width="0.08333333333333333" height="0.15873015873015872" patternUnits="objectBoundingBox"><radialGradient id="satori_radial_id_1" spreadMethod="pad"><stop offset="0" stop-color="lightgray"/><stop offset="0.03" stop-color="lightgray"/><stop offset="0" stop-color="transparent"/><stop offset="1" stop-color="transparent"/></radialGradient><mask id="satori_mask_id_1"><rect x="0" y="0" width="100" height="100" fill="#fff"/></mask><rect x="0" y="0" width="100" height="100" fill="transparent"/><circle cx="75" cy="75" width="100" height="100" r="106.06601717798213" fill="url(#satori_radial_id_1)" mask="url(#satori_mask_id_1)"/></pattern><pattern id="satori_pattern_id_0" x="0" y="0" width="0.08333333333333333" height="0.15873015873015872" patternUnits="objectBoundingBox"><radialGradient id="satori_radial_id_0" spreadMethod="pad"><stop offset="0" stop-color="lightgray"/><stop offset="0.03" stop-color="lightgray"/><stop offset="0" stop-color="transparent"/><stop offset="1" stop-color="transparent"/></radialGradient><mask id="satori_mask_id_0"><rect x="0" y="0" width="100" height="100" fill="#fff"/></mask><rect x="0" y="0" width="100" height="100" fill="transparent"/><circle cx="25" cy="25" width="100" height="100" r="106.06601717798213" fill="url(#satori_radial_id_0)" mask="url(#satori_mask_id_0)"/></pattern></defs><mask id="satori_om-id"><rect x="0" y="0" width="1200" height="630" fill="#fff"/></mask><rect x="0" y="0" width="1200" height="630" fill="white"/><rect x="0" y="0" width="1200" height="630" fill="url(#satori_pattern_id_1)"/><rect x="0" y="0" width="1200" height="630" fill="url(#satori_pattern_id_0)"/><mask id="satori_om-id-0"><rect x="154" y="213" width="893" height="205" fill="#fff"/></mask><mask id="satori_om-id-0-0"><rect x="477" y="213" width="248" height="47" fill="#fff"/></mask><mask id="satori_om-id-0-0-0"><rect x="477" y="229" width="16" height="16" fill="#fff"/></mask><rect x="477" y="229" width="16" height="16" fill="black"/><mask id="satori_om-id-0-0-1"><rect x="509" y="213" width="216" height="47" fill="#fff"/></mask><g  ><path fill="black" d="M512.7 257.2L512.7 254.8L521.7 254.8L521.7 233.9L512.3 233.9L512.3 231.4L524.6 231.4L524.6 253.0Q524.6 254.8 523.6 256.0Q522.6 257.2 520.4 257.2L520.4 257.2L512.7 257.2ZM523.1 227.3L523.1 227.3Q521.9 227.3 521.3 226.8Q520.8 226.3 520.8 225.5L520.8 225.5L520.8 224.9Q520.8 224.1 521.3 223.6Q521.9 223.1 523.1 223.1L523.1 223.1Q524.4 223.1 524.9 223.6Q525.4 224.1 525.4 224.9L525.4 224.9L525.4 225.5Q525.4 226.3 524.9 226.8Q524.4 227.3 523.1 227.3ZM550.4 250L548.4 250Q546.7 250 546.0 249.1Q545.3 248.3 545.1 247.0L545.1 247.0L544.9 247.0Q544.3 248.6 543.0 249.5Q541.6 250.4 539.3 250.4L539.3 250.4Q536.4 250.4 534.7 248.9Q533.0 247.4 533.0 244.8L533.0 244.8Q533.0 242.2 534.9 240.8Q536.8 239.4 541.0 239.4L541.0 239.4L544.9 239.4L544.9 237.5Q544.9 235.5 543.8 234.5Q542.6 233.4 540.5 233.4L540.5 233.4Q538.6 233.4 537.4 234.2Q536.3 234.9 535.5 236.2L535.5 236.2L533.6 234.7Q533.9 234.0 534.6 233.3Q535.2 232.6 536.1 232.1Q537.0 231.6 538.1 231.3Q539.3 231.0 540.7 231.0L540.7 231.0Q544.0 231.0 545.9 232.6Q547.8 234.3 547.8 237.3L547.8 237.3L547.8 247.5L550.4 247.5L550.4 250ZM539.9 248.0L539.9 248.0Q541.0 248.0 541.9 247.8Q542.8 247.5 543.5 247.0Q544.2 246.6 544.6 245.9Q544.9 245.3 544.9 244.6L544.9 244.6L544.9 241.5L541.0 241.5Q538.4 241.5 537.2 242.3Q536 243.0 536 244.3L536 244.3L536 245.1Q536 246.5 537.0 247.3Q538.1 248.0 539.9 248.0ZM563.3 250.4L563.3 250.4Q561.3 250.4 559.7 249.7Q558.1 249.1 557.0 247.8Q555.8 246.5 555.2 244.7Q554.6 242.9 554.6 240.7L554.6 240.7Q554.6 238.5 555.2 236.7Q555.9 234.9 557.0 233.6Q558.1 232.4 559.7 231.7Q561.2 231.0 563.1 231.0L563.1 231.0Q565.0 231.0 566.5 231.7Q568.1 232.4 569.2 233.6Q570.2 234.8 570.8 236.4Q571.4 238.1 571.4 240.1L571.4 240.1L571.4 241.4L557.6 241.4L557.6 242.3Q557.6 243.5 558.0 244.6Q558.4 245.6 559.2 246.4Q559.9 247.1 561.0 247.5Q562.0 247.9 563.3 247.9L563.3 247.9Q565.2 247.9 566.6 247.1Q567.9 246.2 568.7 244.7L568.7 244.7L570.8 246.1Q569.9 248.0 568.0 249.2Q566.1 250.4 563.3 250.4ZM563.1 233.4L563.1 233.4Q562.0 233.4 560.9 233.8Q559.9 234.2 559.2 235.0Q558.5 235.7 558.1 236.8Q557.6 237.8 557.6 239.0L557.6 239.0L557.6 239.3L568.3 239.3L568.3 238.9Q568.3 237.7 567.9 236.6Q567.5 235.6 566.9 234.9Q566.2 234.2 565.3 233.8Q564.3 233.4 563.1 233.4ZM577.3 250L577.3 223.4L580.2 223.4L580.2 234.4L580.4 234.4Q580.6 233.8 581.1 233.1Q581.5 232.5 582.1 232.0Q582.8 231.6 583.6 231.3Q584.5 231.0 585.6 231.0L585.6 231.0Q588.6 231.0 590.3 232.8Q592.1 234.7 592.1 238.1L592.1 238.1L592.1 250L589.2 250L589.2 238.6Q589.2 236.0 588.1 234.8Q587.0 233.5 584.8 233.5L584.8 233.5Q584.0 233.5 583.1 233.8Q582.3 234.0 581.6 234.4Q581.0 234.8 580.6 235.5Q580.2 236.2 580.2 237.1L580.2 237.1L580.2 250L577.3 250ZM606.5 250.4L606.5 250.4Q604.5 250.4 602.9 249.7Q601.3 249.1 600.2 247.8Q599.0 246.5 598.4 244.7Q597.8 242.9 597.8 240.7L597.8 240.7Q597.8 238.5 598.4 236.7Q599.1 234.9 600.2 233.6Q601.3 232.4 602.9 231.7Q604.4 231.0 606.3 231.0L606.3 231.0Q608.2 231.0 609.7 231.7Q611.3 232.4 612.4 233.6Q613.4 234.8 614.0 236.4Q614.6 238.1 614.6 240.1L614.6 240.1L614.6 241.4L600.8 241.4L600.8 242.3Q600.8 243.5 601.2 244.6Q601.6 245.6 602.4 246.4Q603.1 247.1 604.2 247.5Q605.2 247.9 606.5 247.9L606.5 247.9Q608.4 247.9 609.8 247.1Q611.1 246.2 611.9 244.7L611.9 244.7L614.0 246.1Q613.1 248.0 611.2 249.2Q609.3 250.4 606.5 250.4ZM606.3 233.4L606.3 233.4Q605.2 233.4 604.1 233.8Q603.1 234.2 602.4 235.0Q601.7 235.7 601.3 236.8Q600.8 237.8 600.8 239.0L600.8 239.0L600.8 239.3L611.5 239.3L611.5 238.9Q611.5 237.7 611.1 236.6Q610.7 235.6 610.1 234.9Q609.4 234.2 608.5 233.8Q607.5 233.4 606.3 233.4ZM628.1 250.4L628.1 250.4Q626.1 250.4 624.5 249.7Q622.9 249.1 621.8 247.8Q620.6 246.5 620.0 244.7Q619.4 242.9 619.4 240.7L619.4 240.7Q619.4 238.5 620.0 236.7Q620.7 234.9 621.8 233.6Q622.9 232.4 624.5 231.7Q626.0 231.0 627.9 231.0L627.9 231.0Q629.8 231.0 631.3 231.7Q632.9 232.4 634.0 233.6Q635.0 234.8 635.6 236.4Q636.2 238.1 636.2 240.1L636.2 240.1L636.2 241.4L622.4 241.4L622.4 242.3Q622.4 243.5 622.8 244.6Q623.2 245.6 624.0 246.4Q624.7 247.1 625.8 247.5Q626.8 247.9 628.1 247.9L628.1 247.9Q630.0 247.9 631.4 247.1Q632.7 246.2 633.5 244.7L633.5 244.7L635.6 246.1Q634.7 248.0 632.8 249.2Q630.9 250.4 628.1 250.4ZM627.9 233.4L627.9 233.4Q626.8 233.4 625.7 233.8Q624.7 234.2 624.0 235.0Q623.3 235.7 622.9 236.8Q622.4 237.8 622.4 239.0L622.4 239.0L622.4 239.3L633.1 239.3L633.1 238.9Q633.1 237.7 632.7 236.6Q632.3 235.6 631.7 234.9Q631.0 234.2 630.1 233.8Q629.1 233.4 627.9 233.4ZM649.4 250.3L649.4 250.3Q647.9 250.3 647.3 249.7Q646.7 249.1 646.7 248.2L646.7 248.2L646.7 247.5Q646.7 246.6 647.3 246.0Q647.9 245.4 649.4 245.4L649.4 245.4Q650.9 245.4 651.5 246.0Q652.1 246.6 652.1 247.5L652.1 247.5L652.1 248.2Q652.1 249.1 651.5 249.7Q650.9 250.3 649.4 250.3ZM675.5 250L675.5 247.0L675.4 247.0Q673.6 250.4 669.6 250.4L669.6 250.4Q666.2 250.4 664.3 247.9Q662.4 245.3 662.4 240.7L662.4 240.7Q662.4 236.1 664.3 233.5Q666.2 231.0 669.6 231.0L669.6 231.0Q673.6 231.0 675.4 234.4L675.4 234.4L675.5 234.4L675.5 223.4L678.4 223.4L678.4 250L675.5 250ZM670.7 247.9L670.7 247.9Q671.7 247.9 672.6 247.6Q673.4 247.4 674.1 246.9Q674.7 246.4 675.1 245.7Q675.5 245.0 675.5 244.1L675.5 244.1L675.5 237.4Q675.5 236.4 675.1 235.7Q674.7 235.0 674.1 234.5Q673.4 234.1 672.6 233.8Q671.7 233.5 670.7 233.5L670.7 233.5Q668.2 233.5 666.8 235.1Q665.5 236.6 665.5 239.1L665.5 239.1L665.5 242.3Q665.5 244.8 666.8 246.3Q668.2 247.9 670.7 247.9ZM692.9 250.4L692.9 250.4Q690.9 250.4 689.3 249.7Q687.7 249.1 686.6 247.8Q685.4 246.5 684.8 244.7Q684.2 242.9 684.2 240.7L684.2 240.7Q684.2 238.5 684.8 236.7Q685.5 234.9 686.6 233.6Q687.7 232.4 689.3 231.7Q690.8 231.0 692.7 231.0L692.7 231.0Q694.6 231.0 696.1 231.7Q697.7 232.4 698.8 233.6Q699.8 234.8 700.4 236.4Q701.0 238.1 701.0 240.1L701.0 240.1L701.0 241.4L687.2 241.4L687.2 242.3Q687.2 243.5 687.6 244.6Q688.0 245.6 688.8 246.4Q689.5 247.1 690.6 247.5Q691.6 247.9 692.9 247.9L692.9 247.9Q694.8 247.9 696.2 247.1Q697.5 246.2 698.3 244.7L698.3 244.7L700.4 246.1Q699.5 248.0 697.6 249.2Q695.7 250.4 692.9 250.4ZM692.7 233.4L692.7 233.4Q691.6 233.4 690.5 233.8Q689.5 234.2 688.8 235.0Q688.1 235.7 687.7 236.8Q687.2 237.8 687.2 239.0L687.2 239.0L687.2 239.3L697.9 239.3L697.9 238.9Q697.9 237.7 697.5 236.6Q697.1 235.6 696.5 234.9Q695.8 234.2 694.9 233.8Q693.9 233.4 692.7 233.4ZM716.0 250L712.4 250L705.7 231.4L708.6 231.4L711.3 239.2L714.2 247.6L714.3 247.6L717.2 239.2L719.9 231.4L722.7 231.4L716.0 250Z "/></g><mask id="satori_om-id-0-1"><rect x="154" y="356" width="893" height="62" fill="#fff"/></mask><g  ><path fill="black" d="M180.1 405L158.4 405L158.4 371.5L165.7 371.5L165.7 399.1L180.1 399.1L180.1 405ZM197.9 405.6L197.9 405.6Q191.6 405.6 188.4 402.1Q185.2 398.7 185.2 392.7L185.2 392.7Q185.2 389.7 186.0 387.3Q186.9 384.8 188.4 383.1Q190 381.4 192.2 380.5Q194.5 379.7 197.2 379.7L197.2 379.7Q200.0 379.7 202.2 380.5Q204.4 381.4 206.0 383.1Q207.5 384.7 208.4 387.0Q209.2 389.4 209.2 392.2L209.2 392.2L209.2 394.3L192.3 394.3L192.3 394.8Q192.3 397.2 193.7 398.6Q195.2 400.1 198.1 400.1L198.1 400.1Q200.3 400.1 201.9 399.3Q203.5 398.4 204.6 397.0L204.6 397.0L208.5 401.2Q207.0 403.0 204.4 404.3Q201.9 405.6 197.9 405.6ZM197.3 384.7L197.3 384.7Q195.0 384.7 193.6 386.2Q192.3 387.6 192.3 390.0L192.3 390.0L192.3 390.4L202.2 390.4L202.2 390.0Q202.2 387.5 200.9 386.1Q199.6 384.7 197.3 384.7ZM226.7 405.6L226.7 405.6Q220.4 405.6 217.2 402.1Q214.0 398.7 214.0 392.7L214.0 392.7Q214.0 389.7 214.8 387.3Q215.7 384.8 217.2 383.1Q218.8 381.4 221.0 380.5Q223.3 379.7 226.0 379.7L226.0 379.7Q228.8 379.7 231.0 380.5Q233.2 381.4 234.8 383.1Q236.3 384.7 237.2 387.0Q238.0 389.4 238.0 392.2L238.0 392.2L238.0 394.3L221.1 394.3L221.1 394.8Q221.1 397.2 222.5 398.6Q224.0 400.1 226.9 400.1L226.9 400.1Q229.1 400.1 230.7 399.3Q232.3 398.4 233.4 397.0L233.4 397.0L237.3 401.2Q235.8 403.0 233.2 404.3Q230.7 405.6 226.7 405.6ZM226.1 384.7L226.1 384.7Q223.8 384.7 222.4 386.2Q221.1 387.6 221.1 390.0L221.1 390.0L221.1 390.4L231.0 390.4L231.0 390.0Q231.0 387.5 229.7 386.1Q228.4 384.7 226.1 384.7ZM265.9 405L256.7 405Q252.9 405 251.0 403.0Q249.1 401.0 249.1 397.8L249.1 397.8L249.1 385.8L242.4 385.8L242.4 380.2L246.8 380.2Q248.4 380.2 249.0 379.6Q249.7 379.0 249.7 377.3L249.7 377.3L249.7 371.5L256.2 371.5L256.2 380.2L265.9 380.2L265.9 385.8L256.2 385.8L256.2 399.5L265.9 399.5L265.9 405ZM284.4 405.6L284.4 405.6Q277.6 405.6 274.4 401.0Q271.2 396.5 271.2 388.2L271.2 388.2Q271.2 380.0 274.4 375.5Q277.6 370.9 284.4 370.9L284.4 370.9Q287.0 370.9 289.0 371.6Q290.9 372.3 292.4 373.6Q293.8 374.8 294.8 376.6Q295.7 378.4 296.2 380.6L296.2 380.6L289.5 382.2Q289.2 381 288.8 380.0Q288.4 379.0 287.8 378.3Q287.2 377.5 286.4 377.1Q285.5 376.7 284.2 376.7L284.2 376.7Q281.3 376.7 280.1 379.0Q278.8 381.3 278.8 385.3L278.8 385.3L278.8 391.2Q278.8 395.2 280.1 397.5Q281.3 399.8 284.2 399.8L284.2 399.8Q286.7 399.8 287.8 398.2Q289.0 396.7 289.5 394.3L289.5 394.3L296.2 395.9Q295.7 398.1 294.8 399.9Q293.8 401.7 292.4 403.0Q290.9 404.2 289.0 404.9Q287.0 405.6 284.4 405.6ZM312.4 405.6L312.4 405.6Q309.5 405.6 307.2 404.7Q304.9 403.8 303.3 402.1Q301.7 400.4 300.8 398.0Q300.0 395.6 300.0 392.6L300.0 392.6Q300.0 389.6 300.8 387.2Q301.7 384.8 303.3 383.1Q304.9 381.4 307.2 380.5Q309.5 379.7 312.4 379.7L312.4 379.7Q315.3 379.7 317.6 380.5Q319.9 381.4 321.5 383.1Q323.1 384.8 324.0 387.2Q324.8 389.6 324.8 392.6L324.8 392.6Q324.8 395.6 324.0 398.0Q323.1 400.4 321.5 402.1Q319.9 403.8 317.6 404.7Q315.3 405.6 312.4 405.6ZM312.4 400.3L312.4 400.3Q314.8 400.3 316.1 398.8Q317.5 397.3 317.5 394.6L317.5 394.6L317.5 390.6Q317.5 387.9 316.1 386.4Q314.8 384.9 312.4 384.9L312.4 384.9Q310.0 384.9 308.7 386.4Q307.3 387.9 307.3 390.6L307.3 390.6L307.3 394.6Q307.3 397.3 308.7 398.8Q310.0 400.3 312.4 400.3ZM345.7 405L345.7 400.5L345.3 400.5Q344.4 402.7 342.7 404.2Q341.0 405.6 338.0 405.6L338.0 405.6Q335.9 405.6 334.2 404.8Q332.5 404.0 331.3 402.5Q330.1 400.9 329.4 398.4Q328.7 396.0 328.7 392.6L328.7 392.6Q328.7 389.3 329.4 386.8Q330.1 384.4 331.3 382.8Q332.5 381.2 334.2 380.4Q335.9 379.7 338.0 379.7L338.0 379.7Q339.5 379.7 340.6 380.0Q341.8 380.4 342.7 381.1Q343.6 381.8 344.2 382.7Q344.8 383.6 345.3 384.7L345.3 384.7L345.7 384.7L345.7 369.5L352.8 369.5L352.8 405L345.7 405ZM341.1 400.1L341.1 400.1Q342.9 400.1 344.3 399.1Q345.7 398.2 345.7 396.3L345.7 396.3L345.7 389.0Q345.7 387 344.3 386.1Q342.9 385.2 341.1 385.2L341.1 385.2Q338.7 385.2 337.4 386.6Q336.1 388.1 336.1 390.7L336.1 390.7L336.1 394.5Q336.1 397.1 337.4 398.6Q338.7 400.1 341.1 400.1ZM370.7 405.6L370.7 405.6Q364.4 405.6 361.2 402.1Q358.0 398.7 358.0 392.7L358.0 392.7Q358.0 389.7 358.8 387.3Q359.7 384.8 361.2 383.1Q362.8 381.4 365.0 380.5Q367.3 379.7 370.0 379.7L370.0 379.7Q372.8 379.7 375.0 380.5Q377.2 381.4 378.8 383.1Q380.3 384.7 381.2 387.0Q382.0 389.4 382.0 392.2L382.0 392.2L382.0 394.3L365.1 394.3L365.1 394.8Q365.1 397.2 366.5 398.6Q368.0 400.1 370.9 400.1L370.9 400.1Q373.1 400.1 374.7 399.3Q376.3 398.4 377.4 397.0L377.4 397.0L381.3 401.2Q379.8 403.0 377.2 404.3Q374.7 405.6 370.7 405.6ZM370.1 384.7L370.1 384.7Q367.8 384.7 366.4 386.2Q365.1 387.6 365.1 390.0L365.1 390.0L365.1 390.4L375.0 390.4L375.0 390.0Q375.0 387.5 373.7 386.1Q372.4 384.7 370.1 384.7Z M435.3 393.8L419.9 393.8L419.9 387.0L435.3 387.0L435.3 393.8Z M497.8 384.2L497.8 384.2Q497.8 387.8 496.7 390.9Q495.6 394.0 493.8 396.7Q492.1 399.3 489.9 401.4Q487.7 403.6 485.5 405L485.5 405L475.6 405Q478.7 402.8 481.2 400.8Q483.7 398.9 485.5 396.9Q487.4 394.9 488.5 392.8Q489.7 390.6 490.2 388.2L490.2 388.2L489.8 388.1Q489.4 389.0 488.7 389.9Q488.1 390.8 487.2 391.5Q486.3 392.2 485.1 392.7Q483.9 393.1 482.2 393.1L482.2 393.1Q480.1 393.1 478.3 392.4Q476.5 391.6 475.1 390.2Q473.8 388.9 473.1 387.0Q472.3 385.0 472.3 382.6L472.3 382.6Q472.3 380.1 473.2 377.9Q474.1 375.8 475.8 374.2Q477.4 372.6 479.8 371.8Q482.1 370.9 485.0 370.9L485.0 370.9Q488.0 370.9 490.4 371.9Q492.8 372.8 494.4 374.5Q496.0 376.3 496.9 378.7Q497.8 381.2 497.8 384.2ZM485.1 387.6L485.1 387.6Q487.5 387.6 488.9 386.3Q490.3 384.9 490.3 382.4L490.3 382.4L490.3 381.8Q490.3 379.3 489.0 377.9Q487.6 376.5 485.1 376.5L485.1 376.5Q482.5 376.5 481.1 377.9Q479.8 379.3 479.8 381.8L479.8 381.8L479.8 382.4Q479.8 384.9 481.1 386.3Q482.5 387.6 485.1 387.6ZM514.0 405.6L514.0 405.6Q511.3 405.6 510.1 404.4Q509.0 403.2 509.0 401.6L509.0 401.6L509.0 399.9Q509.0 398.3 510.1 397.1Q511.3 395.9 514.0 395.9L514.0 395.9Q516.7 395.9 517.9 397.1Q519.0 398.3 519.0 399.9L519.0 399.9L519.0 401.6Q519.0 403.2 517.9 404.4Q516.7 405.6 514.0 405.6Z M568.1 405L560.8 405L560.8 371.5L573.8 371.5Q576.3 371.5 578.2 372.2Q580.1 373.0 581.4 374.4Q582.7 375.8 583.4 377.7Q584.1 379.7 584.1 382.2L584.1 382.2Q584.1 384.6 583.4 386.6Q582.7 388.5 581.4 389.9Q580.1 391.3 578.2 392.1Q576.3 392.8 573.8 392.8L573.8 392.8L568.1 392.8L568.1 405ZM568.1 377.3L568.1 387L572.0 387Q574.5 387 575.5 386.0Q576.5 385.1 576.5 382.9L576.5 382.9L576.5 381.4Q576.5 379.2 575.5 378.3Q574.5 377.3 572.0 377.3L572.0 377.3L568.1 377.3ZM613.5 405L609.4 405Q607.2 405 605.8 403.9Q604.5 402.7 604.2 400.6L604.2 400.6L604 400.6Q603.3 403.1 601.3 404.3Q599.3 405.6 596.5 405.6L596.5 405.6Q592.9 405.6 590.7 403.6Q588.5 401.7 588.5 398.2L588.5 398.2Q588.5 394.3 591.3 392.4Q594.2 390.6 599.6 390.6L599.6 390.6L603.6 390.6L603.6 389.3Q603.6 387.1 602.6 386.0Q601.6 384.8 599.1 384.8L599.1 384.8Q596.8 384.8 595.5 385.7Q594.1 386.6 593.1 388.0L593.1 388.0L589.2 384.5Q590.4 382.4 593.1 381.0Q595.7 379.7 599.9 379.7L599.9 379.7Q605.0 379.7 607.9 382.0Q610.7 384.3 610.7 389.0L610.7 389.0L610.7 399.9L613.5 399.9L613.5 405ZM599.2 400.9L599.2 400.9Q601.0 400.9 602.3 400.0Q603.6 399.1 603.6 397.4L603.6 397.4L603.6 394.4L599.8 394.4Q595.5 394.4 595.5 397.3L595.5 397.3L595.5 398.3Q595.5 399.6 596.5 400.2Q597.5 400.9 599.2 400.9ZM618.1 405L618.1 399.5L625.6 399.5L625.6 375L618.1 375L618.1 369.5L632.8 369.5L632.8 399.5L640.3 399.5L640.3 405L618.1 405ZM659.5 377.1L659.5 377.1Q657.1 377.1 656.2 376.1Q655.3 375.1 655.3 373.7L655.3 373.7L655.3 372.3Q655.3 370.9 656.2 369.9Q657.1 369.0 659.5 369.0L659.5 369.0Q661.9 369.0 662.9 369.9Q663.8 370.9 663.8 372.3L663.8 372.3L663.8 373.7Q663.8 375.1 662.9 376.1Q661.9 377.1 659.5 377.1ZM648.1 405L648.1 399.5L656.0 399.5L656.0 385.8L648.1 385.8L648.1 380.2L663.1 380.2L663.1 399.5L670.4 399.5L670.4 405L648.1 405ZM682.6 405L675.5 405L675.5 380.2L682.6 380.2L682.6 384.7L682.9 384.7Q683.3 383.7 684.0 382.8Q684.6 381.9 685.5 381.2Q686.4 380.5 687.5 380.1Q688.7 379.7 690.2 379.7L690.2 379.7Q692.0 379.7 693.5 380.3Q695.0 380.9 696.0 382.1Q697.1 383.3 697.7 385.0Q698.3 386.7 698.3 389.0L698.3 389.0L698.3 405L691.2 405L691.2 389.9Q691.2 385.1 687.0 385.1L687.0 385.1Q686.2 385.1 685.4 385.3Q684.6 385.6 684.0 386.0Q683.3 386.5 683.0 387.1Q682.6 387.8 682.6 388.7L682.6 388.7L682.6 405ZM720.1 405L720.1 400.5L719.7 400.5Q718.8 402.7 717.1 404.2Q715.4 405.6 712.4 405.6L712.4 405.6Q710.3 405.6 708.6 404.8Q706.9 404.0 705.7 402.5Q704.5 400.9 703.8 398.4Q703.1 396.0 703.1 392.6L703.1 392.6Q703.1 389.3 703.8 386.8Q704.5 384.4 705.7 382.8Q706.9 381.2 708.6 380.4Q710.3 379.7 712.4 379.7L712.4 379.7Q713.9 379.7 715.0 380.0Q716.2 380.4 717.1 381.1Q718.0 381.8 718.6 382.7Q719.2 383.6 719.7 384.7L719.7 384.7L720.1 384.7L720.1 369.5L727.2 369.5L727.2 405L720.1 405ZM715.5 400.1L715.5 400.1Q717.3 400.1 718.7 399.1Q720.1 398.2 720.1 396.3L720.1 396.3L720.1 389.0Q720.1 387 718.7 386.1Q717.3 385.2 715.5 385.2L715.5 385.2Q713.1 385.2 711.8 386.6Q710.5 388.1 710.5 390.7L710.5 390.7L710.5 394.5Q710.5 397.1 711.8 398.6Q713.1 400.1 715.5 400.1ZM733.6 405L733.6 399.5L739.3 399.5L739.3 385.8L733.6 385.8L733.6 380.2L746.4 380.2L746.4 387.2L746.7 387.2Q747.0 385.9 747.6 384.6Q748.2 383.4 749.2 382.4Q750.1 381.4 751.5 380.8Q752.8 380.2 754.6 380.2L754.6 380.2L757.0 380.2L757.0 386.8L751.7 386.8Q749.1 386.8 747.7 388.3Q746.4 389.9 746.4 392.1L746.4 392.1L746.4 399.5L754.5 399.5L754.5 405L733.6 405ZM773.2 405.6L773.2 405.6Q770.3 405.6 768.0 404.7Q765.7 403.8 764.1 402.1Q762.5 400.4 761.6 398.0Q760.8 395.6 760.8 392.6L760.8 392.6Q760.8 389.6 761.6 387.2Q762.5 384.8 764.1 383.1Q765.7 381.4 768.0 380.5Q770.3 379.7 773.2 379.7L773.2 379.7Q776.1 379.7 778.4 380.5Q780.7 381.4 782.3 383.1Q783.9 384.8 784.8 387.2Q785.6 389.6 785.6 392.6L785.6 392.6Q785.6 395.6 784.8 398.0Q783.9 400.4 782.3 402.1Q780.7 403.8 778.4 404.7Q776.1 405.6 773.2 405.6ZM773.2 400.3L773.2 400.3Q775.6 400.3 776.9 398.8Q778.3 397.3 778.3 394.6L778.3 394.6L778.3 390.6Q778.3 387.9 776.9 386.4Q775.6 384.9 773.2 384.9L773.2 384.9Q770.8 384.9 769.5 386.4Q768.1 387.9 768.1 390.6L768.1 390.6L768.1 394.6Q768.1 397.3 769.5 398.8Q770.8 400.3 773.2 400.3ZM794.8 405L789.0 405L789.0 380.2L794.8 380.2L794.8 383.9L795.1 383.9Q795.7 382.2 796.7 380.9Q797.8 379.7 799.8 379.7L799.8 379.7Q803.4 379.7 804.2 383.9L804.2 383.9L804.5 383.9Q804.8 383.0 805.2 382.2Q805.6 381.5 806.3 380.9Q806.9 380.3 807.8 380.0Q808.6 379.7 809.8 379.7L809.8 379.7Q815.0 379.7 815.0 387.3L815.0 387.3L815.0 405L809.2 405L809.2 388.0Q809.2 386.3 808.6 385.6Q808.0 384.9 807.1 384.9L807.1 384.9Q806.2 384.9 805.5 385.5Q804.9 386.1 804.9 387.3L804.9 387.3L804.9 405L799.1 405L799.1 388.0Q799.1 386.3 798.6 385.6Q798.0 384.9 797.1 384.9L797.1 384.9Q796.1 384.9 795.4 385.5Q794.8 386.1 794.8 387.3L794.8 387.3L794.8 405ZM831.5 405.6L831.5 405.6Q825.2 405.6 822.0 402.1Q818.8 398.7 818.8 392.7L818.8 392.7Q818.8 389.7 819.6 387.3Q820.5 384.8 822.0 383.1Q823.6 381.4 825.8 380.5Q828.1 379.7 830.8 379.7L830.8 379.7Q833.6 379.7 835.8 380.5Q838.0 381.4 839.6 383.1Q841.1 384.7 842.0 387.0Q842.8 389.4 842.8 392.2L842.8 392.2L842.8 394.3L825.9 394.3L825.9 394.8Q825.9 397.2 827.3 398.6Q828.8 400.1 831.7 400.1L831.7 400.1Q833.9 400.1 835.5 399.3Q837.1 398.4 838.2 397.0L838.2 397.0L842.1 401.2Q840.6 403.0 838.0 404.3Q835.5 405.6 831.5 405.6ZM830.9 384.7L830.9 384.7Q828.6 384.7 827.2 386.2Q825.9 387.6 825.9 390.0L825.9 390.0L825.9 390.4L835.8 390.4L835.8 390.0Q835.8 387.5 834.5 386.1Q833.2 384.7 830.9 384.7Z M891.2 405L883.6 382.7L883.1 382.7L883.1 405L876.9 405L876.9 371.5L885.6 371.5L893.2 393.8L893.7 393.8L893.7 371.5L899.9 371.5L899.9 405L891.2 405ZM921.4 405L921.4 400.5L921.1 400.5Q920.3 402.6 918.5 404.1Q916.8 405.6 913.8 405.6L913.8 405.6Q912.0 405.6 910.5 405.0Q909.0 404.4 908.0 403.2Q906.9 402.0 906.3 400.2Q905.7 398.5 905.7 396.3L905.7 396.3L905.7 380.2L912.8 380.2L912.8 395.3Q912.8 400.1 917.0 400.1L917.0 400.1Q917.8 400.1 918.6 399.9Q919.4 399.7 920.0 399.2Q920.6 398.8 921.0 398.1Q921.4 397.4 921.4 396.5L921.4 396.5L921.4 380.2L928.5 380.2L928.5 405L921.4 405ZM938.8 405L933.0 405L933.0 380.2L938.8 380.2L938.8 383.9L939.1 383.9Q939.7 382.2 940.7 380.9Q941.8 379.7 943.8 379.7L943.8 379.7Q947.4 379.7 948.2 383.9L948.2 383.9L948.5 383.9Q948.8 383.0 949.2 382.2Q949.6 381.5 950.3 380.9Q950.9 380.3 951.8 380.0Q952.6 379.7 953.8 379.7L953.8 379.7Q959.0 379.7 959.0 387.3L959.0 387.3L959.0 405L953.2 405L953.2 388.0Q953.2 386.3 952.6 385.6Q952.0 384.9 951.1 384.9L951.1 384.9Q950.2 384.9 949.5 385.5Q948.9 386.1 948.9 387.3L948.9 387.3L948.9 405L943.1 405L943.1 388.0Q943.1 386.3 942.6 385.6Q942.0 384.9 941.1 384.9L941.1 384.9Q940.1 384.9 939.4 385.5Q938.8 386.1 938.8 387.3L938.8 387.3L938.8 405ZM963.2 405L963.2 369.5L970.3 369.5L970.3 384.7L970.7 384.7Q971.6 382.5 973.3 381.1Q975.0 379.7 978.0 379.7L978.0 379.7Q980.1 379.7 981.8 380.4Q983.5 381.2 984.7 382.8Q985.9 384.4 986.6 386.8Q987.3 389.3 987.3 392.6L987.3 392.6Q987.3 396.0 986.6 398.4Q985.9 400.9 984.7 402.5Q983.5 404.0 981.8 404.8Q980.1 405.6 978.0 405.6L978.0 405.6Q975.0 405.6 973.3 404.2Q971.6 402.7 970.7 400.5L970.7 400.5L970.3 400.5L970.3 405L963.2 405ZM974.9 400.1L974.9 400.1Q977.3 400.1 978.6 398.6Q979.9 397.1 979.9 394.5L979.9 394.5L979.9 390.7Q979.9 388.1 978.6 386.6Q977.3 385.2 974.9 385.2L974.9 385.2Q973.1 385.2 971.7 386.1Q970.3 387 970.3 389.0L970.3 389.0L970.3 396.3Q970.3 398.2 971.7 399.1Q973.1 400.1 974.9 400.1ZM1004.3 405.6L1004.3 405.6Q998.0 405.6 994.8 402.1Q991.6 398.7 991.6 392.7L991.6 392.7Q991.6 389.7 992.4 387.3Q993.3 384.8 994.8 383.1Q996.4 381.4 998.6 380.5Q1000.9 379.7 1003.6 379.7L1003.6 379.7Q1006.4 379.7 1008.6 380.5Q1010.8 381.4 1012.4 383.1Q1013.9 384.7 1014.8 387.0Q1015.6 389.4 1015.6 392.2L1015.6 392.2L1015.6 394.3L998.7 394.3L998.7 394.8Q998.7 397.2 1000.1 398.6Q1001.6 400.1 1004.5 400.1L1004.5 400.1Q1006.7 400.1 1008.3 399.3Q1009.9 398.4 1011.0 397.0L1011.0 397.0L1014.9 401.2Q1013.4 403.0 1010.8 404.3Q1008.3 405.6 1004.3 405.6ZM1003.7 384.7L1003.7 384.7Q1001.4 384.7 1000.0 386.2Q998.7 387.6 998.7 390.0L998.7 390.0L998.7 390.4L1008.6 390.4L1008.6 390.0Q1008.6 387.5 1007.3 386.1Q1006 384.7 1003.7 384.7ZM1021.6 405L1021.6 399.5L1027.3 399.5L1027.3 385.8L1021.6 385.8L1021.6 380.2L1034.4 380.2L1034.4 387.2L1034.7 387.2Q1035.0 385.9 1035.6 384.6Q1036.2 383.4 1037.2 382.4Q1038.1 381.4 1039.5 380.8Q1040.8 380.2 1042.6 380.2L1042.6 380.2L1045.0 380.2L1045.0 386.8L1039.7 386.8Q1037.1 386.8 1035.7 388.3Q1034.4 389.9 1034.4 392.1L1034.4 392.1L1034.4 399.5L1042.5 399.5L1042.5 405L1021.6 405Z "/></g></svg>