<svg width="1200" height="630" viewBox="0 0 1200 630" xmlns="http://www.w3.org/2000/svg"><defs><pattern id="satori_pattern_id_1" x="0" y="0" width="0.08333333333333333" height="0.15873015873015872" patternUnits="objectBoundingBox"><radialGradient id="satori_radial_id_1" spreadMethod="pad"><stop offset="0" stop-color="lightgray"/><stop offset="0.03" stop-color="lightgray"/><stop offset="0" stop-color="transparent"/><stop offset="1" stop-color="transparent"/></radialGradient><mask id="satori_mask_id_1"><rect x="0" y="0" width="100" height="100" fill="#fff"/></mask><rect x="0" y="0" width="100" height="100" fill="transparent"/><circle cx="75" cy="75" width="100" height="100" r="106.06601717798213" fill="url(#satori_radial_id_1)" mask="url(#satori_mask_id_1)"/></pattern><pattern id="satori_pattern_id_0" x="0" y="0" width="0.08333333333333333" height="0.15873015873015872" patternUnits="objectBoundingBox"><radialGradient id="satori_radial_id_0" spreadMethod="pad"><stop offset="0" stop-color="lightgray"/><stop offset="0.03" stop-color="lightgray"/><stop offset="0" stop-color="transparent"/><stop offset="1" stop-color="transparent"/></radialGradient><mask id="satori_mask_id_0"><rect x="0" y="0" width="100" height="100" fill="#fff"/></mask><rect x="0" y="0" width="100" height="100" fill="transparent"/><circle cx="25" cy="25" width="100" height="100" r="106.06601717798213" fill="url(#satori_radial_id_0)" mask="url(#satori_mask_id_0)"/></pattern></defs><mask id="satori_om-id"><rect x="0" y="0" width="1200" height="630" fill="#fff"/></mask><rect x="0" y="0" width="1200" height="630" fill="white"/><rect x="0" y="0" width="1200" height="630" fill="url(#satori_pattern_id_1)"/><rect x="0" y="0" width="1200" height="630" fill="url(#satori_pattern_id_0)"/><mask id="satori_om-id-0"><rect x="110" y="213" width="980" height="205" fill="#fff"/></mask><mask id="satori_om-id-0-0"><rect x="476" y="213" width="248" height="47" fill="#fff"/></mask><mask id="satori_om-id-0-0-0"><rect x="476" y="229" width="16" height="16" fill="#fff"/></mask><rect x="476" y="229" width="16" height="16" fill="black"/><mask id="satori_om-id-0-0-1"><rect x="508" y="213" width="216" height="47" fill="#fff"/></mask><g  ><path fill="black" d="M511.7 257.2L511.7 254.8L520.7 254.8L520.7 233.9L511.3 233.9L511.3 231.4L523.6 231.4L523.6 253.0Q523.6 254.8 522.6 256.0Q521.6 257.2 519.4 257.2L519.4 257.2L511.7 257.2ZM522.1 227.3L522.1 227.3Q520.9 227.3 520.3 226.8Q519.8 226.3 519.8 225.5L519.8 225.5L519.8 224.9Q519.8 224.1 520.3 223.6Q520.9 223.1 522.1 223.1L522.1 223.1Q523.4 223.1 523.9 223.6Q524.4 224.1 524.4 224.9L524.4 224.9L524.4 225.5Q524.4 226.3 523.9 226.8Q523.4 227.3 522.1 227.3ZM549.4 250L547.4 250Q545.7 250 545.0 249.1Q544.3 248.3 544.1 247.0L544.1 247.0L543.9 247.0Q543.3 248.6 542.0 249.5Q540.6 250.4 538.3 250.4L538.3 250.4Q535.4 250.4 533.7 248.9Q532.0 247.4 532.0 244.8L532.0 244.8Q532.0 242.2 533.9 240.8Q535.8 239.4 540.0 239.4L540.0 239.4L543.9 239.4L543.9 237.5Q543.9 235.5 542.8 234.5Q541.6 233.4 539.5 233.4L539.5 233.4Q537.6 233.4 536.4 234.2Q535.3 234.9 534.5 236.2L534.5 236.2L532.6 234.7Q532.9 234.0 533.6 233.3Q534.2 232.6 535.1 232.1Q536.0 231.6 537.1 231.3Q538.3 231.0 539.7 231.0L539.7 231.0Q543.0 231.0 544.9 232.6Q546.8 234.3 546.8 237.3L546.8 237.3L546.8 247.5L549.4 247.5L549.4 250ZM538.9 248.0L538.9 248.0Q540.0 248.0 540.9 247.8Q541.8 247.5 542.5 247.0Q543.2 246.6 543.6 245.9Q543.9 245.3 543.9 244.6L543.9 244.6L543.9 241.5L540.0 241.5Q537.4 241.5 536.2 242.3Q535 243.0 535 244.3L535 244.3L535 245.1Q535 246.5 536.0 247.3Q537.1 248.0 538.9 248.0ZM562.3 250.4L562.3 250.4Q560.3 250.4 558.7 249.7Q557.1 249.1 556.0 247.8Q554.8 246.5 554.2 244.7Q553.6 242.9 553.6 240.7L553.6 240.7Q553.6 238.5 554.2 236.7Q554.9 234.9 556.0 233.6Q557.1 232.4 558.7 231.7Q560.2 231.0 562.1 231.0L562.1 231.0Q564.0 231.0 565.5 231.7Q567.1 232.4 568.2 233.6Q569.2 234.8 569.8 236.4Q570.4 238.1 570.4 240.1L570.4 240.1L570.4 241.4L556.6 241.4L556.6 242.3Q556.6 243.5 557.0 244.6Q557.4 245.6 558.2 246.4Q558.9 247.1 560.0 247.5Q561.0 247.9 562.3 247.9L562.3 247.9Q564.2 247.9 565.6 247.1Q566.9 246.2 567.7 244.7L567.7 244.7L569.8 246.1Q568.9 248.0 567.0 249.2Q565.1 250.4 562.3 250.4ZM562.1 233.4L562.1 233.4Q561.0 233.4 559.9 233.8Q558.9 234.2 558.2 235.0Q557.5 235.7 557.1 236.8Q556.6 237.8 556.6 239.0L556.6 239.0L556.6 239.3L567.3 239.3L567.3 238.9Q567.3 237.7 566.9 236.6Q566.5 235.6 565.9 234.9Q565.2 234.2 564.3 233.8Q563.3 233.4 562.1 233.4ZM576.3 250L576.3 223.4L579.2 223.4L579.2 234.4L579.4 234.4Q579.6 233.8 580.1 233.1Q580.5 232.5 581.1 232.0Q581.8 231.6 582.6 231.3Q583.5 231.0 584.6 231.0L584.6 231.0Q587.6 231.0 589.3 232.8Q591.1 234.7 591.1 238.1L591.1 238.1L591.1 250L588.2 250L588.2 238.6Q588.2 236.0 587.1 234.8Q586.0 233.5 583.8 233.5L583.8 233.5Q583.0 233.5 582.1 233.8Q581.3 234.0 580.6 234.4Q580.0 234.8 579.6 235.5Q579.2 236.2 579.2 237.1L579.2 237.1L579.2 250L576.3 250ZM605.5 250.4L605.5 250.4Q603.5 250.4 601.9 249.7Q600.3 249.1 599.2 247.8Q598.0 246.5 597.4 244.7Q596.8 242.9 596.8 240.7L596.8 240.7Q596.8 238.5 597.4 236.7Q598.1 234.9 599.2 233.6Q600.3 232.4 601.9 231.7Q603.4 231.0 605.3 231.0L605.3 231.0Q607.2 231.0 608.7 231.7Q610.3 232.4 611.4 233.6Q612.4 234.8 613.0 236.4Q613.6 238.1 613.6 240.1L613.6 240.1L613.6 241.4L599.8 241.4L599.8 242.3Q599.8 243.5 600.2 244.6Q600.6 245.6 601.4 246.4Q602.1 247.1 603.2 247.5Q604.2 247.9 605.5 247.9L605.5 247.9Q607.4 247.9 608.8 247.1Q610.1 246.2 610.9 244.7L610.9 244.7L613.0 246.1Q612.1 248.0 610.2 249.2Q608.3 250.4 605.5 250.4ZM605.3 233.4L605.3 233.4Q604.2 233.4 603.1 233.8Q602.1 234.2 601.4 235.0Q600.7 235.7 600.3 236.8Q599.8 237.8 599.8 239.0L599.8 239.0L599.8 239.3L610.5 239.3L610.5 238.9Q610.5 237.7 610.1 236.6Q609.7 235.6 609.1 234.9Q608.4 234.2 607.5 233.8Q606.5 233.4 605.3 233.4ZM627.1 250.4L627.1 250.4Q625.1 250.4 623.5 249.7Q621.9 249.1 620.8 247.8Q619.6 246.5 619.0 244.7Q618.4 242.9 618.4 240.7L618.4 240.7Q618.4 238.5 619.0 236.7Q619.7 234.9 620.8 233.6Q621.9 232.4 623.5 231.7Q625.0 231.0 626.9 231.0L626.9 231.0Q628.8 231.0 630.3 231.7Q631.9 232.4 633.0 233.6Q634.0 234.8 634.6 236.4Q635.2 238.1 635.2 240.1L635.2 240.1L635.2 241.4L621.4 241.4L621.4 242.3Q621.4 243.5 621.8 244.6Q622.2 245.6 623.0 246.4Q623.7 247.1 624.8 247.5Q625.8 247.9 627.1 247.9L627.1 247.9Q629.0 247.9 630.4 247.1Q631.7 246.2 632.5 244.7L632.5 244.7L634.6 246.1Q633.7 248.0 631.8 249.2Q629.9 250.4 627.1 250.4ZM626.9 233.4L626.9 233.4Q625.8 233.4 624.7 233.8Q623.7 234.2 623.0 235.0Q622.3 235.7 621.9 236.8Q621.4 237.8 621.4 239.0L621.4 239.0L621.4 239.3L632.1 239.3L632.1 238.9Q632.1 237.7 631.7 236.6Q631.3 235.6 630.7 234.9Q630.0 234.2 629.1 233.8Q628.1 233.4 626.9 233.4ZM648.4 250.3L648.4 250.3Q646.9 250.3 646.3 249.7Q645.7 249.1 645.7 248.2L645.7 248.2L645.7 247.5Q645.7 246.6 646.3 246.0Q646.9 245.4 648.4 245.4L648.4 245.4Q649.9 245.4 650.5 246.0Q651.1 246.6 651.1 247.5L651.1 247.5L651.1 248.2Q651.1 249.1 650.5 249.7Q649.9 250.3 648.4 250.3ZM674.5 250L674.5 247.0L674.4 247.0Q672.6 250.4 668.6 250.4L668.6 250.4Q665.2 250.4 663.3 247.9Q661.4 245.3 661.4 240.7L661.4 240.7Q661.4 236.1 663.3 233.5Q665.2 231.0 668.6 231.0L668.6 231.0Q672.6 231.0 674.4 234.4L674.4 234.4L674.5 234.4L674.5 223.4L677.4 223.4L677.4 250L674.5 250ZM669.7 247.9L669.7 247.9Q670.7 247.9 671.6 247.6Q672.4 247.4 673.1 246.9Q673.7 246.4 674.1 245.7Q674.5 245.0 674.5 244.1L674.5 244.1L674.5 237.4Q674.5 236.4 674.1 235.7Q673.7 235.0 673.1 234.5Q672.4 234.1 671.6 233.8Q670.7 233.5 669.7 233.5L669.7 233.5Q667.2 233.5 665.8 235.1Q664.5 236.6 664.5 239.1L664.5 239.1L664.5 242.3Q664.5 244.8 665.8 246.3Q667.2 247.9 669.7 247.9ZM691.9 250.4L691.9 250.4Q689.9 250.4 688.3 249.7Q686.7 249.1 685.6 247.8Q684.4 246.5 683.8 244.7Q683.2 242.9 683.2 240.7L683.2 240.7Q683.2 238.5 683.8 236.7Q684.5 234.9 685.6 233.6Q686.7 232.4 688.3 231.7Q689.8 231.0 691.7 231.0L691.7 231.0Q693.6 231.0 695.1 231.7Q696.7 232.4 697.8 233.6Q698.8 234.8 699.4 236.4Q700.0 238.1 700.0 240.1L700.0 240.1L700.0 241.4L686.2 241.4L686.2 242.3Q686.2 243.5 686.6 244.6Q687.0 245.6 687.8 246.4Q688.5 247.1 689.6 247.5Q690.6 247.9 691.9 247.9L691.9 247.9Q693.8 247.9 695.2 247.1Q696.5 246.2 697.3 244.7L697.3 244.7L699.4 246.1Q698.5 248.0 696.6 249.2Q694.7 250.4 691.9 250.4ZM691.7 233.4L691.7 233.4Q690.6 233.4 689.5 233.8Q688.5 234.2 687.8 235.0Q687.1 235.7 686.7 236.8Q686.2 237.8 686.2 239.0L686.2 239.0L686.2 239.3L696.9 239.3L696.9 238.9Q696.9 237.7 696.5 236.6Q696.1 235.6 695.5 234.9Q694.8 234.2 693.9 233.8Q692.9 233.4 691.7 233.4ZM715.0 250L711.4 250L704.7 231.4L707.6 231.4L710.3 239.2L713.2 247.6L713.3 247.6L716.2 239.2L718.9 231.4L721.7 231.4L715.0 250Z "/></g><mask id="satori_om-id-0-1"><rect x="110" y="356" width="980" height="62" fill="#fff"/></mask><g  ><path fill="black" d="M136.1 405L114.4 405L114.4 371.5L121.7 371.5L121.7 399.1L136.1 399.1L136.1 405ZM153.9 405.6L153.9 405.6Q147.6 405.6 144.4 402.1Q141.2 398.7 141.2 392.7L141.2 392.7Q141.2 389.7 142.0 387.3Q142.9 384.8 144.4 383.1Q146 381.4 148.2 380.5Q150.5 379.7 153.2 379.7L153.2 379.7Q156.0 379.7 158.2 380.5Q160.4 381.4 162.0 383.1Q163.5 384.7 164.4 387.0Q165.2 389.4 165.2 392.2L165.2 392.2L165.2 394.3L148.3 394.3L148.3 394.8Q148.3 397.2 149.7 398.6Q151.2 400.1 154.1 400.1L154.1 400.1Q156.3 400.1 157.9 399.3Q159.5 398.4 160.6 397.0L160.6 397.0L164.5 401.2Q163.0 403.0 160.4 404.3Q157.9 405.6 153.9 405.6ZM153.3 384.7L153.3 384.7Q151.0 384.7 149.6 386.2Q148.3 387.6 148.3 390.0L148.3 390.0L148.3 390.4L158.2 390.4L158.2 390.0Q158.2 387.5 156.9 386.1Q155.6 384.7 153.3 384.7ZM182.7 405.6L182.7 405.6Q176.4 405.6 173.2 402.1Q170.0 398.7 170.0 392.7L170.0 392.7Q170.0 389.7 170.8 387.3Q171.7 384.8 173.2 383.1Q174.8 381.4 177.0 380.5Q179.3 379.7 182.0 379.7L182.0 379.7Q184.8 379.7 187.0 380.5Q189.2 381.4 190.8 383.1Q192.3 384.7 193.2 387.0Q194.0 389.4 194.0 392.2L194.0 392.2L194.0 394.3L177.1 394.3L177.1 394.8Q177.1 397.2 178.5 398.6Q180.0 400.1 182.9 400.1L182.9 400.1Q185.1 400.1 186.7 399.3Q188.3 398.4 189.4 397.0L189.4 397.0L193.3 401.2Q191.8 403.0 189.2 404.3Q186.7 405.6 182.7 405.6ZM182.1 384.7L182.1 384.7Q179.8 384.7 178.4 386.2Q177.1 387.6 177.1 390.0L177.1 390.0L177.1 390.4L187.0 390.4L187.0 390.0Q187.0 387.5 185.7 386.1Q184.4 384.7 182.1 384.7ZM221.9 405L212.7 405Q208.9 405 207.0 403.0Q205.1 401.0 205.1 397.8L205.1 397.8L205.1 385.8L198.4 385.8L198.4 380.2L202.8 380.2Q204.4 380.2 205.0 379.6Q205.7 379.0 205.7 377.3L205.7 377.3L205.7 371.5L212.2 371.5L212.2 380.2L221.9 380.2L221.9 385.8L212.2 385.8L212.2 399.5L221.9 399.5L221.9 405ZM240.4 405.6L240.4 405.6Q233.6 405.6 230.4 401.0Q227.2 396.5 227.2 388.2L227.2 388.2Q227.2 380.0 230.4 375.5Q233.6 370.9 240.4 370.9L240.4 370.9Q243.0 370.9 245.0 371.6Q246.9 372.3 248.4 373.6Q249.8 374.8 250.8 376.6Q251.7 378.4 252.2 380.6L252.2 380.6L245.5 382.2Q245.2 381 244.8 380.0Q244.4 379.0 243.8 378.3Q243.2 377.5 242.4 377.1Q241.5 376.7 240.2 376.7L240.2 376.7Q237.3 376.7 236.1 379.0Q234.8 381.3 234.8 385.3L234.8 385.3L234.8 391.2Q234.8 395.2 236.1 397.5Q237.3 399.8 240.2 399.8L240.2 399.8Q242.7 399.8 243.8 398.2Q245.0 396.7 245.5 394.3L245.5 394.3L252.2 395.9Q251.7 398.1 250.8 399.9Q249.8 401.7 248.4 403.0Q246.9 404.2 245.0 404.9Q243.0 405.6 240.4 405.6ZM268.4 405.6L268.4 405.6Q265.5 405.6 263.2 404.7Q260.9 403.8 259.3 402.1Q257.7 400.4 256.8 398.0Q256.0 395.6 256.0 392.6L256.0 392.6Q256.0 389.6 256.8 387.2Q257.7 384.8 259.3 383.1Q260.9 381.4 263.2 380.5Q265.5 379.7 268.4 379.7L268.4 379.7Q271.3 379.7 273.6 380.5Q275.9 381.4 277.5 383.1Q279.1 384.8 280.0 387.2Q280.8 389.6 280.8 392.6L280.8 392.6Q280.8 395.6 280.0 398.0Q279.1 400.4 277.5 402.1Q275.9 403.8 273.6 404.7Q271.3 405.6 268.4 405.6ZM268.4 400.3L268.4 400.3Q270.8 400.3 272.1 398.8Q273.5 397.3 273.5 394.6L273.5 394.6L273.5 390.6Q273.5 387.9 272.1 386.4Q270.8 384.9 268.4 384.9L268.4 384.9Q266.0 384.9 264.7 386.4Q263.3 387.9 263.3 390.6L263.3 390.6L263.3 394.6Q263.3 397.3 264.7 398.8Q266.0 400.3 268.4 400.3ZM301.7 405L301.7 400.5L301.3 400.5Q300.4 402.7 298.7 404.2Q297.0 405.6 294.0 405.6L294.0 405.6Q291.9 405.6 290.2 404.8Q288.5 404.0 287.3 402.5Q286.1 400.9 285.4 398.4Q284.7 396.0 284.7 392.6L284.7 392.6Q284.7 389.3 285.4 386.8Q286.1 384.4 287.3 382.8Q288.5 381.2 290.2 380.4Q291.9 379.7 294.0 379.7L294.0 379.7Q295.5 379.7 296.6 380.0Q297.8 380.4 298.7 381.1Q299.6 381.8 300.2 382.7Q300.8 383.6 301.3 384.7L301.3 384.7L301.7 384.7L301.7 369.5L308.8 369.5L308.8 405L301.7 405ZM297.1 400.1L297.1 400.1Q298.9 400.1 300.3 399.1Q301.7 398.2 301.7 396.3L301.7 396.3L301.7 389.0Q301.7 387 300.3 386.1Q298.9 385.2 297.1 385.2L297.1 385.2Q294.7 385.2 293.4 386.6Q292.1 388.1 292.1 390.7L292.1 390.7L292.1 394.5Q292.1 397.1 293.4 398.6Q294.7 400.1 297.1 400.1ZM326.7 405.6L326.7 405.6Q320.4 405.6 317.2 402.1Q314.0 398.7 314.0 392.7L314.0 392.7Q314.0 389.7 314.8 387.3Q315.7 384.8 317.2 383.1Q318.8 381.4 321.0 380.5Q323.3 379.7 326.0 379.7L326.0 379.7Q328.8 379.7 331.0 380.5Q333.2 381.4 334.8 383.1Q336.3 384.7 337.2 387.0Q338.0 389.4 338.0 392.2L338.0 392.2L338.0 394.3L321.1 394.3L321.1 394.8Q321.1 397.2 322.5 398.6Q324.0 400.1 326.9 400.1L326.9 400.1Q329.1 400.1 330.7 399.3Q332.3 398.4 333.4 397.0L333.4 397.0L337.3 401.2Q335.8 403.0 333.2 404.3Q330.7 405.6 326.7 405.6ZM326.1 384.7L326.1 384.7Q323.8 384.7 322.4 386.2Q321.1 387.6 321.1 390.0L321.1 390.0L321.1 390.4L331.0 390.4L331.0 390.0Q331.0 387.5 329.7 386.1Q328.4 384.7 326.1 384.7Z M391.3 393.8L375.9 393.8L375.9 387.0L391.3 387.0L391.3 393.8Z M453.4 399.0L453.4 405L429.3 405L429.3 398.4L439.9 389.6Q442.6 387.3 443.8 385.6Q445.0 383.8 445.0 381.9L445.0 381.9L445.0 381.4Q445.0 379.3 443.8 378.2Q442.5 377.2 440.4 377.2L440.4 377.2Q438.0 377.2 436.7 378.6Q435.4 379.9 434.9 381.9L434.9 381.9L428.6 379.5Q429.2 377.7 430.2 376.2Q431.2 374.6 432.8 373.5Q434.3 372.3 436.4 371.6Q438.5 370.9 441.2 370.9L441.2 370.9Q443.9 370.9 446.0 371.7Q448.2 372.5 449.7 373.8Q451.2 375.1 452.0 377.0Q452.7 378.8 452.7 381L452.7 381Q452.7 383.1 452.0 384.9Q451.3 386.6 450.1 388.2Q448.9 389.7 447.2 391.1Q445.6 392.6 443.7 394.0L443.7 394.0L437.3 399.0L453.4 399.0ZM478.8 405L471.9 405L471.9 398.6L456.8 398.6L456.8 392.4L470.1 371.5L478.8 371.5L478.8 393L483.1 393L483.1 398.6L478.8 398.6L478.8 405ZM471.4 378.9L462.6 393L471.9 393L471.9 378.9L471.4 378.9ZM498.8 405.6L498.8 405.6Q496.1 405.6 494.9 404.4Q493.8 403.2 493.8 401.6L493.8 401.6L493.8 399.9Q493.8 398.3 494.9 397.1Q496.1 395.9 498.8 395.9L498.8 395.9Q501.5 395.9 502.7 397.1Q503.8 398.3 503.8 399.9L503.8 399.9L503.8 401.6Q503.8 403.2 502.7 404.4Q501.5 405.6 498.8 405.6Z M555.9 405.6L555.9 405.6Q551.6 405.6 548.5 404.2Q545.4 402.8 543.5 400.4L543.5 400.4L547.7 395.8Q549.5 397.8 551.7 398.8Q553.9 399.7 556.1 399.7L556.1 399.7Q558.7 399.7 560.0 398.6Q561.4 397.4 561.4 395.3L561.4 395.3Q561.4 393.5 560.4 392.6Q559.3 391.7 556.9 391.3L556.9 391.3L553.4 390.7Q548.9 389.9 546.8 387.4Q544.8 384.8 544.8 381.1L544.8 381.1Q544.8 376.2 548 373.6Q551.2 370.9 556.9 370.9L556.9 370.9Q560.8 370.9 563.6 372.1Q566.5 373.3 568.3 375.4L568.3 375.4L564.2 379.9Q562.9 378.5 561.1 377.6Q559.2 376.8 556.9 376.8L556.9 376.8Q552.1 376.8 552.1 380.8L552.1 380.8Q552.1 382.5 553.2 383.4Q554.2 384.2 556.7 384.6L556.7 384.6L560.2 385.3Q564.3 386.0 566.5 388.3Q568.7 390.7 568.7 394.7L568.7 394.7Q568.7 397.0 567.9 399.0Q567.1 401.0 565.4 402.5Q563.8 403.9 561.4 404.8Q559.0 405.6 555.9 405.6ZM574.1 405L571.1 380.2L577.0 380.2L578.8 400.3L579.3 400.3L582.2 380.2L588.5 380.2L591.3 400.3L591.8 400.3L593.6 380.2L599.3 380.2L596.3 405L587.9 405L585.4 387.9L585.0 387.9L582.5 405L574.1 405ZM627.1 405L623.0 405Q620.8 405 619.4 403.9Q618.1 402.7 617.8 400.6L617.8 400.6L617.6 400.6Q616.9 403.1 614.9 404.3Q612.9 405.6 610.1 405.6L610.1 405.6Q606.5 405.6 604.3 403.6Q602.1 401.7 602.1 398.2L602.1 398.2Q602.1 394.3 604.9 392.4Q607.8 390.6 613.2 390.6L613.2 390.6L617.2 390.6L617.2 389.3Q617.2 387.1 616.2 386.0Q615.2 384.8 612.7 384.8L612.7 384.8Q610.4 384.8 609.1 385.7Q607.7 386.6 606.7 388.0L606.7 388.0L602.8 384.5Q604.0 382.4 606.7 381.0Q609.3 379.7 613.5 379.7L613.5 379.7Q618.6 379.7 621.5 382.0Q624.3 384.3 624.3 389.0L624.3 389.0L624.3 399.9L627.1 399.9L627.1 405ZM612.8 400.9L612.8 400.9Q614.6 400.9 615.9 400.0Q617.2 399.1 617.2 397.4L617.2 397.4L617.2 394.4L613.4 394.4Q609.1 394.4 609.1 397.3L609.1 397.3L609.1 398.3Q609.1 399.6 610.1 400.2Q611.1 400.9 612.8 400.9ZM631.2 414.6L631.2 380.2L638.3 380.2L638.3 384.7L638.7 384.7Q639.6 382.5 641.3 381.1Q643.0 379.7 646.0 379.7L646.0 379.7Q648.1 379.7 649.8 380.4Q651.5 381.2 652.7 382.8Q653.9 384.4 654.6 386.8Q655.3 389.3 655.3 392.6L655.3 392.6Q655.3 396.0 654.6 398.4Q653.9 400.9 652.7 402.5Q651.5 404.0 649.8 404.8Q648.1 405.6 646.0 405.6L646.0 405.6Q643.0 405.6 641.3 404.2Q639.6 402.7 638.7 400.5L638.7 400.5L638.3 400.5L638.3 414.6L631.2 414.6ZM642.9 400.1L642.9 400.1Q645.3 400.1 646.6 398.6Q647.9 397.1 647.9 394.5L647.9 394.5L647.9 390.7Q647.9 388.1 646.6 386.6Q645.3 385.2 642.9 385.2L642.9 385.2Q641.1 385.2 639.7 386.1Q638.3 387 638.3 389.0L638.3 389.0L638.3 396.3Q638.3 398.2 639.7 399.1Q641.1 400.1 642.9 400.1Z M703.2 405L695.6 382.7L695.1 382.7L695.1 405L688.9 405L688.9 371.5L697.6 371.5L705.2 393.8L705.7 393.8L705.7 371.5L711.9 371.5L711.9 405L703.2 405ZM729.2 405.6L729.2 405.6Q726.3 405.6 724.0 404.7Q721.7 403.8 720.1 402.1Q718.5 400.4 717.6 398.0Q716.8 395.6 716.8 392.6L716.8 392.6Q716.8 389.6 717.6 387.2Q718.5 384.8 720.1 383.1Q721.7 381.4 724.0 380.5Q726.3 379.7 729.2 379.7L729.2 379.7Q732.1 379.7 734.4 380.5Q736.7 381.4 738.3 383.1Q739.9 384.8 740.8 387.2Q741.6 389.6 741.6 392.6L741.6 392.6Q741.6 395.6 740.8 398.0Q739.9 400.4 738.3 402.1Q736.7 403.8 734.4 404.7Q732.1 405.6 729.2 405.6ZM729.2 400.3L729.2 400.3Q731.6 400.3 732.9 398.8Q734.3 397.3 734.3 394.6L734.3 394.6L734.3 390.6Q734.3 387.9 732.9 386.4Q731.6 384.9 729.2 384.9L729.2 384.9Q726.8 384.9 725.5 386.4Q724.1 387.9 724.1 390.6L724.1 390.6L724.1 394.6Q724.1 397.3 725.5 398.8Q726.8 400.3 729.2 400.3ZM762.5 405L762.5 400.5L762.1 400.5Q761.2 402.7 759.5 404.2Q757.8 405.6 754.8 405.6L754.8 405.6Q752.7 405.6 751.0 404.8Q749.3 404.0 748.1 402.5Q746.9 400.9 746.2 398.4Q745.5 396.0 745.5 392.6L745.5 392.6Q745.5 389.3 746.2 386.8Q746.9 384.4 748.1 382.8Q749.3 381.2 751.0 380.4Q752.7 379.7 754.8 379.7L754.8 379.7Q756.3 379.7 757.4 380.0Q758.6 380.4 759.5 381.1Q760.4 381.8 761.0 382.7Q761.6 383.6 762.1 384.7L762.1 384.7L762.5 384.7L762.5 369.5L769.6 369.5L769.6 405L762.5 405ZM757.9 400.1L757.9 400.1Q759.7 400.1 761.1 399.1Q762.5 398.2 762.5 396.3L762.5 396.3L762.5 389.0Q762.5 387 761.1 386.1Q759.7 385.2 757.9 385.2L757.9 385.2Q755.5 385.2 754.2 386.6Q752.9 388.1 752.9 390.7L752.9 390.7L752.9 394.5Q752.9 397.1 754.2 398.6Q755.5 400.1 757.9 400.1ZM787.5 405.6L787.5 405.6Q781.2 405.6 778.0 402.1Q774.8 398.7 774.8 392.7L774.8 392.7Q774.8 389.7 775.6 387.3Q776.5 384.8 778.0 383.1Q779.6 381.4 781.8 380.5Q784.1 379.7 786.8 379.7L786.8 379.7Q789.6 379.7 791.8 380.5Q794.0 381.4 795.6 383.1Q797.1 384.7 798.0 387.0Q798.8 389.4 798.8 392.2L798.8 392.2L798.8 394.3L781.9 394.3L781.9 394.8Q781.9 397.2 783.3 398.6Q784.8 400.1 787.7 400.1L787.7 400.1Q789.9 400.1 791.5 399.3Q793.1 398.4 794.2 397.0L794.2 397.0L798.1 401.2Q796.6 403.0 794.0 404.3Q791.5 405.6 787.5 405.6ZM786.9 384.7L786.9 384.7Q784.6 384.7 783.2 386.2Q781.9 387.6 781.9 390.0L781.9 390.0L781.9 390.4L791.8 390.4L791.8 390.0Q791.8 387.5 790.5 386.1Q789.2 384.7 786.9 384.7ZM815.3 405.6L815.3 405.6Q811.2 405.6 808.1 404.3Q805.1 403.1 803.6 400.9L803.6 400.9L807.5 397.2Q809.0 398.8 810.9 399.7Q812.9 400.6 815.4 400.6L815.4 400.6Q817.5 400.6 818.7 399.9Q819.9 399.3 819.9 397.9L819.9 397.9Q819.9 396.9 819.1 396.5Q818.2 396.1 816.8 395.8L816.8 395.8L812.8 395.2Q811.1 395.0 809.7 394.5Q808.3 394.0 807.2 393.1Q806.1 392.2 805.5 391.0Q804.9 389.7 804.9 388.0L804.9 388.0Q804.9 384.1 807.9 381.9Q810.8 379.7 816.2 379.7L816.2 379.7Q819.9 379.7 822.4 380.6Q825.0 381.6 826.5 383.4L826.5 383.4L823.0 387.5Q821.9 386.3 820.2 385.5Q818.4 384.6 816.0 384.6L816.0 384.6Q811.9 384.6 811.9 387.1L811.9 387.1Q811.9 388.2 812.7 388.7Q813.5 389.1 814.9 389.3L814.9 389.3L818.9 389.9Q820.5 390.2 822.0 390.7Q823.4 391.2 824.5 392.0Q825.6 392.9 826.2 394.2Q826.8 395.4 826.8 397.2L826.8 397.2Q826.8 401.1 823.8 403.3Q820.8 405.6 815.3 405.6Z M874.7 377.1L874.7 377.1Q872.3 377.1 871.4 376.1Q870.5 375.1 870.5 373.7L870.5 373.7L870.5 372.3Q870.5 370.9 871.4 369.9Q872.3 369.0 874.7 369.0L874.7 369.0Q877.1 369.0 878.1 369.9Q879.0 370.9 879.0 372.3L879.0 372.3L879.0 373.7Q879.0 375.1 878.1 376.1Q877.1 377.1 874.7 377.1ZM863.3 405L863.3 399.5L871.2 399.5L871.2 385.8L863.3 385.8L863.3 380.2L878.3 380.2L878.3 399.5L885.6 399.5L885.6 405L863.3 405ZM897.8 405L890.7 405L890.7 380.2L897.8 380.2L897.8 384.7L898.1 384.7Q898.5 383.7 899.2 382.8Q899.8 381.9 900.7 381.2Q901.6 380.5 902.7 380.1Q903.9 379.7 905.4 379.7L905.4 379.7Q907.2 379.7 908.7 380.3Q910.2 380.9 911.2 382.1Q912.3 383.3 912.9 385.0Q913.5 386.7 913.5 389.0L913.5 389.0L913.5 405L906.4 405L906.4 389.9Q906.4 385.1 902.2 385.1L902.2 385.1Q901.4 385.1 900.6 385.3Q899.8 385.6 899.2 386.0Q898.5 386.5 898.2 387.1Q897.8 387.8 897.8 388.7L897.8 388.7L897.8 405Z M956.1 405L948.8 405L948.8 371.5L961.8 371.5Q964.3 371.5 966.2 372.2Q968.1 373.0 969.4 374.4Q970.7 375.8 971.4 377.7Q972.1 379.7 972.1 382.2L972.1 382.2Q972.1 384.6 971.4 386.6Q970.7 388.5 969.4 389.9Q968.1 391.3 966.2 392.1Q964.3 392.8 961.8 392.8L961.8 392.8L956.1 392.8L956.1 405ZM956.1 377.3L956.1 387L960.0 387Q962.5 387 963.5 386.0Q964.5 385.1 964.5 382.9L964.5 382.9L964.5 381.4Q964.5 379.2 963.5 378.3Q962.5 377.3 960.0 377.3L960.0 377.3L956.1 377.3ZM1001.5 405L997.4 405Q995.2 405 993.8 403.9Q992.5 402.7 992.2 400.6L992.2 400.6L992.0 400.6Q991.3 403.1 989.3 404.3Q987.3 405.6 984.5 405.6L984.5 405.6Q980.9 405.6 978.7 403.6Q976.5 401.7 976.5 398.2L976.5 398.2Q976.5 394.3 979.3 392.4Q982.2 390.6 987.6 390.6L987.6 390.6L991.6 390.6L991.6 389.3Q991.6 387.1 990.6 386.0Q989.6 384.8 987.1 384.8L987.1 384.8Q984.8 384.8 983.5 385.7Q982.1 386.6 981.1 388.0L981.1 388.0L977.2 384.5Q978.4 382.4 981.1 381.0Q983.7 379.7 987.9 379.7L987.9 379.7Q993.0 379.7 995.9 382.0Q998.7 384.3 998.7 389.0L998.7 389.0L998.7 399.9L1001.5 399.9L1001.5 405ZM987.2 400.9L987.2 400.9Q989.0 400.9 990.3 400.0Q991.6 399.1 991.6 397.4L991.6 397.4L991.6 394.4L987.8 394.4Q983.5 394.4 983.5 397.3L983.5 397.3L983.5 398.3Q983.5 399.6 984.5 400.2Q985.5 400.9 987.2 400.9ZM1018.7 377.1L1018.7 377.1Q1016.3 377.1 1015.4 376.1Q1014.5 375.1 1014.5 373.7L1014.5 373.7L1014.5 372.3Q1014.5 370.9 1015.4 369.9Q1016.3 369.0 1018.7 369.0L1018.7 369.0Q1021.1 369.0 1022.1 369.9Q1023.0 370.9 1023.0 372.3L1023.0 372.3L1023.0 373.7Q1023.0 375.1 1022.1 376.1Q1021.1 377.1 1018.7 377.1ZM1007.3 405L1007.3 399.5L1015.2 399.5L1015.2 385.8L1007.3 385.8L1007.3 380.2L1022.3 380.2L1022.3 399.5L1029.6 399.5L1029.6 405L1007.3 405ZM1035.2 405L1035.2 399.5L1040.9 399.5L1040.9 385.8L1035.2 385.8L1035.2 380.2L1048.0 380.2L1048.0 387.2L1048.3 387.2Q1048.6 385.9 1049.2 384.6Q1049.8 383.4 1050.8 382.4Q1051.7 381.4 1053.1 380.8Q1054.4 380.2 1056.2 380.2L1056.2 380.2L1058.6 380.2L1058.6 386.8L1053.3 386.8Q1050.7 386.8 1049.3 388.3Q1048.0 389.9 1048.0 392.1L1048.0 392.1L1048.0 399.5L1056.1 399.5L1056.1 405L1035.2 405ZM1074.5 405.6L1074.5 405.6Q1070.4 405.6 1067.3 404.3Q1064.3 403.1 1062.8 400.9L1062.8 400.9L1066.7 397.2Q1068.2 398.8 1070.1 399.7Q1072.1 400.6 1074.6 400.6L1074.6 400.6Q1076.7 400.6 1077.9 399.9Q1079.1 399.3 1079.1 397.9L1079.1 397.9Q1079.1 396.9 1078.3 396.5Q1077.4 396.1 1076.0 395.8L1076.0 395.8L1072.0 395.2Q1070.3 395.0 1068.9 394.5Q1067.5 394.0 1066.4 393.1Q1065.3 392.2 1064.7 391.0Q1064.1 389.7 1064.1 388.0L1064.1 388.0Q1064.1 384.1 1067.1 381.9Q1070.0 379.7 1075.4 379.7L1075.4 379.7Q1079.1 379.7 1081.6 380.6Q1084.2 381.6 1085.7 383.4L1085.7 383.4L1082.2 387.5Q1081.1 386.3 1079.4 385.5Q1077.6 384.6 1075.2 384.6L1075.2 384.6Q1071.1 384.6 1071.1 387.1L1071.1 387.1Q1071.1 388.2 1071.9 388.7Q1072.7 389.1 1074.1 389.3L1074.1 389.3L1078.1 389.9Q1079.7 390.2 1081.2 390.7Q1082.6 391.2 1083.7 392.0Q1084.8 392.9 1085.4 394.2Q1086.0 395.4 1086.0 397.2L1086.0 397.2Q1086.0 401.1 1083.0 403.3Q1080.0 405.6 1074.5 405.6Z "/></g></svg>