<svg width="1200" height="630" viewBox="0 0 1200 630" xmlns="http://www.w3.org/2000/svg"><defs><pattern id="satori_pattern_id_1" x="0" y="0" width="0.08333333333333333" height="0.15873015873015872" patternUnits="objectBoundingBox"><radialGradient id="satori_radial_id_1" spreadMethod="pad"><stop offset="0" stop-color="lightgray"/><stop offset="0.03" stop-color="lightgray"/><stop offset="0" stop-color="transparent"/><stop offset="1" stop-color="transparent"/></radialGradient><mask id="satori_mask_id_1"><rect x="0" y="0" width="100" height="100" fill="#fff"/></mask><rect x="0" y="0" width="100" height="100" fill="transparent"/><circle cx="75" cy="75" width="100" height="100" r="106.06601717798213" fill="url(#satori_radial_id_1)" mask="url(#satori_mask_id_1)"/></pattern><pattern id="satori_pattern_id_0" x="0" y="0" width="0.08333333333333333" height="0.15873015873015872" patternUnits="objectBoundingBox"><radialGradient id="satori_radial_id_0" spreadMethod="pad"><stop offset="0" stop-color="lightgray"/><stop offset="0.03" stop-color="lightgray"/><stop offset="0" stop-color="transparent"/><stop offset="1" stop-color="transparent"/></radialGradient><mask id="satori_mask_id_0"><rect x="0" y="0" width="100" height="100" fill="#fff"/></mask><rect x="0" y="0" width="100" height="100" fill="transparent"/><circle cx="25" cy="25" width="100" height="100" r="106.06601717798213" fill="url(#satori_radial_id_0)" mask="url(#satori_mask_id_0)"/></pattern></defs><mask id="satori_om-id"><rect x="0" y="0" width="1200" height="630" fill="#fff"/></mask><rect x="0" y="0" width="1200" height="630" fill="white"/><rect x="0" y="0" width="1200" height="630" fill="url(#satori_pattern_id_1)"/><rect x="0" y="0" width="1200" height="630" fill="url(#satori_pattern_id_0)"/><mask id="satori_om-id-0"><rect x="0" y="182" width="1200" height="267" fill="#fff"/></mask><mask id="satori_om-id-0-0"><rect x="476" y="182" width="248" height="47" fill="#fff"/></mask><mask id="satori_om-id-0-0-0"><rect x="476" y="198" width="16" height="16" fill="#fff"/></mask><rect x="476" y="198" width="16" height="16" fill="black"/><mask id="satori_om-id-0-0-1"><rect x="508" y="182" width="216" height="47" fill="#fff"/></mask><g  ><path fill="black" d="M511.7 226.2L511.7 223.8L520.7 223.8L520.7 202.9L511.3 202.9L511.3 200.4L523.6 200.4L523.6 222.0Q523.6 223.8 522.6 225.0Q521.6 226.2 519.4 226.2L519.4 226.2L511.7 226.2ZM522.1 196.3L522.1 196.3Q520.9 196.3 520.3 195.8Q519.8 195.3 519.8 194.5L519.8 194.5L519.8 193.9Q519.8 193.1 520.3 192.6Q520.9 192.1 522.1 192.1L522.1 192.1Q523.4 192.1 523.9 192.6Q524.4 193.1 524.4 193.9L524.4 193.9L524.4 194.5Q524.4 195.3 523.9 195.8Q523.4 196.3 522.1 196.3ZM549.4 219L547.4 219Q545.7 219 545.0 218.1Q544.3 217.3 544.1 216.0L544.1 216.0L543.9 216.0Q543.3 217.6 542.0 218.5Q540.6 219.4 538.3 219.4L538.3 219.4Q535.4 219.4 533.7 217.9Q532.0 216.4 532.0 213.8L532.0 213.8Q532.0 211.2 533.9 209.8Q535.8 208.4 540.0 208.4L540.0 208.4L543.9 208.4L543.9 206.5Q543.9 204.5 542.8 203.5Q541.6 202.4 539.5 202.4L539.5 202.4Q537.6 202.4 536.4 203.2Q535.3 203.9 534.5 205.2L534.5 205.2L532.6 203.7Q532.9 203.0 533.6 202.3Q534.2 201.6 535.1 201.1Q536.0 200.6 537.1 200.3Q538.3 200.0 539.7 200.0L539.7 200.0Q543.0 200.0 544.9 201.6Q546.8 203.3 546.8 206.3L546.8 206.3L546.8 216.5L549.4 216.5L549.4 219ZM538.9 217.0L538.9 217.0Q540.0 217.0 540.9 216.8Q541.8 216.5 542.5 216.0Q543.2 215.6 543.6 214.9Q543.9 214.3 543.9 213.6L543.9 213.6L543.9 210.5L540.0 210.5Q537.4 210.5 536.2 211.3Q535 212.0 535 213.3L535 213.3L535 214.1Q535 215.5 536.0 216.3Q537.1 217.0 538.9 217.0ZM562.3 219.4L562.3 219.4Q560.3 219.4 558.7 218.7Q557.1 218.1 556.0 216.8Q554.8 215.5 554.2 213.7Q553.6 211.9 553.6 209.7L553.6 209.7Q553.6 207.5 554.2 205.7Q554.9 203.9 556.0 202.6Q557.1 201.4 558.7 200.7Q560.2 200.0 562.1 200.0L562.1 200.0Q564.0 200.0 565.5 200.7Q567.1 201.4 568.2 202.6Q569.2 203.8 569.8 205.4Q570.4 207.1 570.4 209.1L570.4 209.1L570.4 210.4L556.6 210.4L556.6 211.3Q556.6 212.5 557.0 213.6Q557.4 214.6 558.2 215.4Q558.9 216.1 560.0 216.5Q561.0 216.9 562.3 216.9L562.3 216.9Q564.2 216.9 565.6 216.1Q566.9 215.2 567.7 213.7L567.7 213.7L569.8 215.1Q568.9 217.0 567.0 218.2Q565.1 219.4 562.3 219.4ZM562.1 202.4L562.1 202.4Q561.0 202.4 559.9 202.8Q558.9 203.2 558.2 204.0Q557.5 204.7 557.1 205.8Q556.6 206.8 556.6 208.0L556.6 208.0L556.6 208.3L567.3 208.3L567.3 207.9Q567.3 206.7 566.9 205.6Q566.5 204.6 565.9 203.9Q565.2 203.2 564.3 202.8Q563.3 202.4 562.1 202.4ZM576.3 219L576.3 192.4L579.2 192.4L579.2 203.4L579.4 203.4Q579.6 202.8 580.1 202.1Q580.5 201.5 581.1 201.0Q581.8 200.6 582.6 200.3Q583.5 200.0 584.6 200.0L584.6 200.0Q587.6 200.0 589.3 201.8Q591.1 203.7 591.1 207.1L591.1 207.1L591.1 219L588.2 219L588.2 207.6Q588.2 205.0 587.1 203.8Q586.0 202.5 583.8 202.5L583.8 202.5Q583.0 202.5 582.1 202.8Q581.3 203.0 580.6 203.4Q580.0 203.8 579.6 204.5Q579.2 205.2 579.2 206.1L579.2 206.1L579.2 219L576.3 219ZM605.5 219.4L605.5 219.4Q603.5 219.4 601.9 218.7Q600.3 218.1 599.2 216.8Q598.0 215.5 597.4 213.7Q596.8 211.9 596.8 209.7L596.8 209.7Q596.8 207.5 597.4 205.7Q598.1 203.9 599.2 202.6Q600.3 201.4 601.9 200.7Q603.4 200.0 605.3 200.0L605.3 200.0Q607.2 200.0 608.7 200.7Q610.3 201.4 611.4 202.6Q612.4 203.8 613.0 205.4Q613.6 207.1 613.6 209.1L613.6 209.1L613.6 210.4L599.8 210.4L599.8 211.3Q599.8 212.5 600.2 213.6Q600.6 214.6 601.4 215.4Q602.1 216.1 603.2 216.5Q604.2 216.9 605.5 216.9L605.5 216.9Q607.4 216.9 608.8 216.1Q610.1 215.2 610.9 213.7L610.9 213.7L613.0 215.1Q612.1 217.0 610.2 218.2Q608.3 219.4 605.5 219.4ZM605.3 202.4L605.3 202.4Q604.2 202.4 603.1 202.8Q602.1 203.2 601.4 204.0Q600.7 204.7 600.3 205.8Q599.8 206.8 599.8 208.0L599.8 208.0L599.8 208.3L610.5 208.3L610.5 207.9Q610.5 206.7 610.1 205.6Q609.7 204.6 609.1 203.9Q608.4 203.2 607.5 202.8Q606.5 202.4 605.3 202.4ZM627.1 219.4L627.1 219.4Q625.1 219.4 623.5 218.7Q621.9 218.1 620.8 216.8Q619.6 215.5 619.0 213.7Q618.4 211.9 618.4 209.7L618.4 209.7Q618.4 207.5 619.0 205.7Q619.7 203.9 620.8 202.6Q621.9 201.4 623.5 200.7Q625.0 200.0 626.9 200.0L626.9 200.0Q628.8 200.0 630.3 200.7Q631.9 201.4 633.0 202.6Q634.0 203.8 634.6 205.4Q635.2 207.1 635.2 209.1L635.2 209.1L635.2 210.4L621.4 210.4L621.4 211.3Q621.4 212.5 621.8 213.6Q622.2 214.6 623.0 215.4Q623.7 216.1 624.8 216.5Q625.8 216.9 627.1 216.9L627.1 216.9Q629.0 216.9 630.4 216.1Q631.7 215.2 632.5 213.7L632.5 213.7L634.6 215.1Q633.7 217.0 631.8 218.2Q629.9 219.4 627.1 219.4ZM626.9 202.4L626.9 202.4Q625.8 202.4 624.7 202.8Q623.7 203.2 623.0 204.0Q622.3 204.7 621.9 205.8Q621.4 206.8 621.4 208.0L621.4 208.0L621.4 208.3L632.1 208.3L632.1 207.9Q632.1 206.7 631.7 205.6Q631.3 204.6 630.7 203.9Q630.0 203.2 629.1 202.8Q628.1 202.4 626.9 202.4ZM648.4 219.3L648.4 219.3Q646.9 219.3 646.3 218.7Q645.7 218.1 645.7 217.2L645.7 217.2L645.7 216.5Q645.7 215.6 646.3 215.0Q646.9 214.4 648.4 214.4L648.4 214.4Q649.9 214.4 650.5 215.0Q651.1 215.6 651.1 216.5L651.1 216.5L651.1 217.2Q651.1 218.1 650.5 218.7Q649.9 219.3 648.4 219.3ZM674.5 219L674.5 216.0L674.4 216.0Q672.6 219.4 668.6 219.4L668.6 219.4Q665.2 219.4 663.3 216.9Q661.4 214.3 661.4 209.7L661.4 209.7Q661.4 205.1 663.3 202.5Q665.2 200.0 668.6 200.0L668.6 200.0Q672.6 200.0 674.4 203.4L674.4 203.4L674.5 203.4L674.5 192.4L677.4 192.4L677.4 219L674.5 219ZM669.7 216.9L669.7 216.9Q670.7 216.9 671.6 216.6Q672.4 216.4 673.1 215.9Q673.7 215.4 674.1 214.7Q674.5 214.0 674.5 213.1L674.5 213.1L674.5 206.4Q674.5 205.4 674.1 204.7Q673.7 204.0 673.1 203.5Q672.4 203.1 671.6 202.8Q670.7 202.5 669.7 202.5L669.7 202.5Q667.2 202.5 665.8 204.1Q664.5 205.6 664.5 208.1L664.5 208.1L664.5 211.3Q664.5 213.8 665.8 215.3Q667.2 216.9 669.7 216.9ZM691.9 219.4L691.9 219.4Q689.9 219.4 688.3 218.7Q686.7 218.1 685.6 216.8Q684.4 215.5 683.8 213.7Q683.2 211.9 683.2 209.7L683.2 209.7Q683.2 207.5 683.8 205.7Q684.5 203.9 685.6 202.6Q686.7 201.4 688.3 200.7Q689.8 200.0 691.7 200.0L691.7 200.0Q693.6 200.0 695.1 200.7Q696.7 201.4 697.8 202.6Q698.8 203.8 699.4 205.4Q700.0 207.1 700.0 209.1L700.0 209.1L700.0 210.4L686.2 210.4L686.2 211.3Q686.2 212.5 686.6 213.6Q687.0 214.6 687.8 215.4Q688.5 216.1 689.6 216.5Q690.6 216.9 691.9 216.9L691.9 216.9Q693.8 216.9 695.2 216.1Q696.5 215.2 697.3 213.7L697.3 213.7L699.4 215.1Q698.5 217.0 696.6 218.2Q694.7 219.4 691.9 219.4ZM691.7 202.4L691.7 202.4Q690.6 202.4 689.5 202.8Q688.5 203.2 687.8 204.0Q687.1 204.7 686.7 205.8Q686.2 206.8 686.2 208.0L686.2 208.0L686.2 208.3L696.9 208.3L696.9 207.9Q696.9 206.7 696.5 205.6Q696.1 204.6 695.5 203.9Q694.8 203.2 693.9 202.8Q692.9 202.4 691.7 202.4ZM715.0 219L711.4 219L704.7 200.4L707.6 200.4L710.3 208.2L713.2 216.6L713.3 216.6L716.2 208.2L718.9 200.4L721.7 200.4L715.0 219Z "/></g><mask id="satori_om-id-0-1"><rect x="0" y="325" width="1200" height="124" fill="#fff"/></mask><g  ><path fill="black" d="M151.1 374L129.4 374L129.4 340.5L136.7 340.5L136.7 368.1L151.1 368.1L151.1 374ZM168.9 374.6L168.9 374.6Q162.6 374.6 159.4 371.1Q156.2 367.7 156.2 361.7L156.2 361.7Q156.2 358.7 157.0 356.3Q157.9 353.8 159.4 352.1Q161 350.4 163.2 349.5Q165.5 348.7 168.2 348.7L168.2 348.7Q171.0 348.7 173.2 349.5Q175.4 350.4 177.0 352.1Q178.5 353.7 179.4 356.0Q180.2 358.4 180.2 361.2L180.2 361.2L180.2 363.3L163.3 363.3L163.3 363.8Q163.3 366.2 164.7 367.6Q166.2 369.1 169.1 369.1L169.1 369.1Q171.3 369.1 172.9 368.3Q174.5 367.4 175.6 366.0L175.6 366.0L179.5 370.2Q178.0 372.0 175.4 373.3Q172.9 374.6 168.9 374.6ZM168.3 353.7L168.3 353.7Q166.0 353.7 164.6 355.2Q163.3 356.6 163.3 359.0L163.3 359.0L163.3 359.4L173.2 359.4L173.2 359.0Q173.2 356.5 171.9 355.1Q170.6 353.7 168.3 353.7ZM197.7 374.6L197.7 374.6Q191.4 374.6 188.2 371.1Q185.0 367.7 185.0 361.7L185.0 361.7Q185.0 358.7 185.8 356.3Q186.7 353.8 188.2 352.1Q189.8 350.4 192.0 349.5Q194.3 348.7 197.0 348.7L197.0 348.7Q199.8 348.7 202.0 349.5Q204.2 350.4 205.8 352.1Q207.3 353.7 208.2 356.0Q209.0 358.4 209.0 361.2L209.0 361.2L209.0 363.3L192.1 363.3L192.1 363.8Q192.1 366.2 193.5 367.6Q195.0 369.1 197.9 369.1L197.9 369.1Q200.1 369.1 201.7 368.3Q203.3 367.4 204.4 366.0L204.4 366.0L208.3 370.2Q206.8 372.0 204.2 373.3Q201.7 374.6 197.7 374.6ZM197.1 353.7L197.1 353.7Q194.8 353.7 193.4 355.2Q192.1 356.6 192.1 359.0L192.1 359.0L192.1 359.4L202.0 359.4L202.0 359.0Q202.0 356.5 200.7 355.1Q199.4 353.7 197.1 353.7ZM236.9 374L227.7 374Q223.9 374 222.0 372.0Q220.1 370.0 220.1 366.8L220.1 366.8L220.1 354.8L213.4 354.8L213.4 349.2L217.8 349.2Q219.4 349.2 220.0 348.6Q220.7 348.0 220.7 346.3L220.7 346.3L220.7 340.5L227.2 340.5L227.2 349.2L236.9 349.2L236.9 354.8L227.2 354.8L227.2 368.5L236.9 368.5L236.9 374ZM255.4 374.6L255.4 374.6Q248.6 374.6 245.4 370.0Q242.2 365.5 242.2 357.2L242.2 357.2Q242.2 349.0 245.4 344.5Q248.6 339.9 255.4 339.9L255.4 339.9Q258.0 339.9 260.0 340.6Q261.9 341.3 263.4 342.6Q264.8 343.8 265.8 345.6Q266.7 347.4 267.2 349.6L267.2 349.6L260.5 351.2Q260.2 350 259.8 349.0Q259.4 348.0 258.8 347.3Q258.2 346.5 257.4 346.1Q256.5 345.7 255.2 345.7L255.2 345.7Q252.3 345.7 251.1 348.0Q249.8 350.3 249.8 354.3L249.8 354.3L249.8 360.2Q249.8 364.2 251.1 366.5Q252.3 368.8 255.2 368.8L255.2 368.8Q257.7 368.8 258.8 367.2Q260.0 365.7 260.5 363.3L260.5 363.3L267.2 364.9Q266.7 367.1 265.8 368.9Q264.8 370.7 263.4 372.0Q261.9 373.2 260.0 373.9Q258.0 374.6 255.4 374.6ZM283.4 374.6L283.4 374.6Q280.5 374.6 278.2 373.7Q275.9 372.8 274.3 371.1Q272.7 369.4 271.8 367.0Q271.0 364.6 271.0 361.6L271.0 361.6Q271.0 358.6 271.8 356.2Q272.7 353.8 274.3 352.1Q275.9 350.4 278.2 349.5Q280.5 348.7 283.4 348.7L283.4 348.7Q286.3 348.7 288.6 349.5Q290.9 350.4 292.5 352.1Q294.1 353.8 295.0 356.2Q295.8 358.6 295.8 361.6L295.8 361.6Q295.8 364.6 295.0 367.0Q294.1 369.4 292.5 371.1Q290.9 372.8 288.6 373.7Q286.3 374.6 283.4 374.6ZM283.4 369.3L283.4 369.3Q285.8 369.3 287.1 367.8Q288.5 366.3 288.5 363.6L288.5 363.6L288.5 359.6Q288.5 356.9 287.1 355.4Q285.8 353.9 283.4 353.9L283.4 353.9Q281.0 353.9 279.7 355.4Q278.3 356.9 278.3 359.6L278.3 359.6L278.3 363.6Q278.3 366.3 279.7 367.8Q281.0 369.3 283.4 369.3ZM316.7 374L316.7 369.5L316.3 369.5Q315.4 371.7 313.7 373.2Q312.0 374.6 309.0 374.6L309.0 374.6Q306.9 374.6 305.2 373.8Q303.5 373.0 302.3 371.5Q301.1 369.9 300.4 367.4Q299.7 365.0 299.7 361.6L299.7 361.6Q299.7 358.3 300.4 355.8Q301.1 353.4 302.3 351.8Q303.5 350.2 305.2 349.4Q306.9 348.7 309.0 348.7L309.0 348.7Q310.5 348.7 311.6 349.0Q312.8 349.4 313.7 350.1Q314.6 350.8 315.2 351.7Q315.8 352.6 316.3 353.7L316.3 353.7L316.7 353.7L316.7 338.5L323.8 338.5L323.8 374L316.7 374ZM312.1 369.1L312.1 369.1Q313.9 369.1 315.3 368.1Q316.7 367.2 316.7 365.3L316.7 365.3L316.7 358.0Q316.7 356 315.3 355.1Q313.9 354.2 312.1 354.2L312.1 354.2Q309.7 354.2 308.4 355.6Q307.1 357.1 307.1 359.7L307.1 359.7L307.1 363.5Q307.1 366.1 308.4 367.6Q309.7 369.1 312.1 369.1ZM341.7 374.6L341.7 374.6Q335.4 374.6 332.2 371.1Q329.0 367.7 329.0 361.7L329.0 361.7Q329.0 358.7 329.8 356.3Q330.7 353.8 332.2 352.1Q333.8 350.4 336.0 349.5Q338.3 348.7 341.0 348.7L341.0 348.7Q343.8 348.7 346.0 349.5Q348.2 350.4 349.8 352.1Q351.3 353.7 352.2 356.0Q353.0 358.4 353.0 361.2L353.0 361.2L353.0 363.3L336.1 363.3L336.1 363.8Q336.1 366.2 337.5 367.6Q339.0 369.1 341.9 369.1L341.9 369.1Q344.1 369.1 345.7 368.3Q347.3 367.4 348.4 366.0L348.4 366.0L352.3 370.2Q350.8 372.0 348.2 373.3Q345.7 374.6 341.7 374.6ZM341.1 353.7L341.1 353.7Q338.8 353.7 337.4 355.2Q336.1 356.6 336.1 359.0L336.1 359.0L336.1 359.4L346.0 359.4L346.0 359.0Q346.0 356.5 344.7 355.1Q343.4 353.7 341.1 353.7Z M406.1 362.8L390.7 362.8L390.7 356.0L406.1 356.0L406.1 362.8Z M467.2 340.5L467.2 346.8L451.7 346.8L450.9 357.4L451.4 357.4Q451.9 356.2 452.6 355.3Q453.2 354.3 454.1 353.6Q455.1 352.9 456.3 352.5Q457.5 352.1 459.0 352.1L459.0 352.1Q461.1 352.1 462.9 352.8Q464.8 353.6 466.2 354.9Q467.6 356.3 468.4 358.3Q469.2 360.3 469.2 362.8L469.2 362.8Q469.2 365.3 468.4 367.5Q467.5 369.6 465.8 371.2Q464.2 372.8 461.7 373.7Q459.3 374.6 456.2 374.6L456.2 374.6Q453.7 374.6 451.8 374.0Q449.9 373.5 448.4 372.6Q446.9 371.7 445.9 370.6Q444.8 369.4 444.0 368.1L444.0 368.1L449.2 364.0Q449.8 365.0 450.5 365.8Q451.1 366.7 452.0 367.4Q452.8 368 453.8 368.4Q454.9 368.7 456.2 368.7L456.2 368.7Q458.9 368.7 460.3 367.3Q461.6 365.8 461.6 363.3L461.6 363.3L461.6 363.0Q461.6 360.6 460.2 359.3Q458.8 357.9 456.4 357.9L456.4 357.9Q454.4 357.9 453.1 358.7Q451.7 359.5 451.1 360.3L451.1 360.3L445.2 359.5L446.4 340.5L467.2 340.5ZM485.2 374.6L485.2 374.6Q482.5 374.6 481.3 373.4Q480.2 372.2 480.2 370.6L480.2 370.6L480.2 368.9Q480.2 367.3 481.3 366.1Q482.5 364.9 485.2 364.9L485.2 364.9Q487.9 364.9 489.1 366.1Q490.2 367.3 490.2 368.9L490.2 368.9L490.2 370.6Q490.2 372.2 489.1 373.4Q487.9 374.6 485.2 374.6Z M554.1 374L532.4 374L532.4 340.5L539.7 340.5L539.7 368.1L554.1 368.1L554.1 374ZM571.2 374.6L571.2 374.6Q568.3 374.6 566.0 373.7Q563.7 372.8 562.1 371.1Q560.5 369.4 559.6 367.0Q558.8 364.6 558.8 361.6L558.8 361.6Q558.8 358.6 559.6 356.2Q560.5 353.8 562.1 352.1Q563.7 350.4 566.0 349.5Q568.3 348.7 571.2 348.7L571.2 348.7Q574.1 348.7 576.4 349.5Q578.7 350.4 580.3 352.1Q581.9 353.8 582.8 356.2Q583.6 358.6 583.6 361.6L583.6 361.6Q583.6 364.6 582.8 367.0Q581.9 369.4 580.3 371.1Q578.7 372.8 576.4 373.7Q574.1 374.6 571.2 374.6ZM571.2 369.3L571.2 369.3Q573.6 369.3 574.9 367.8Q576.3 366.3 576.3 363.6L576.3 363.6L576.3 359.6Q576.3 356.9 574.9 355.4Q573.6 353.9 571.2 353.9L571.2 353.9Q568.8 353.9 567.5 355.4Q566.1 356.9 566.1 359.6L566.1 359.6L566.1 363.6Q566.1 366.3 567.5 367.8Q568.8 369.3 571.2 369.3ZM595.8 374L588.7 374L588.7 349.2L595.8 349.2L595.8 353.7L596.1 353.7Q596.5 352.7 597.2 351.8Q597.8 350.9 598.7 350.2Q599.6 349.5 600.7 349.1Q601.9 348.7 603.4 348.7L603.4 348.7Q605.2 348.7 606.7 349.3Q608.2 349.9 609.2 351.1Q610.3 352.3 610.9 354.0Q611.5 355.7 611.5 358.0L611.5 358.0L611.5 374L604.4 374L604.4 358.9Q604.4 354.1 600.2 354.1L600.2 354.1Q599.4 354.1 598.6 354.3Q597.8 354.6 597.2 355.0Q596.5 355.5 596.2 356.1Q595.8 356.8 595.8 357.7L595.8 357.7L595.8 374ZM642.4 376.5L642.4 376.5Q642.4 380.4 639.1 382.3Q635.8 384.2 628.7 384.2L628.7 384.2Q625.1 384.2 622.8 383.8Q620.5 383.4 619.1 382.6Q617.8 381.8 617.2 380.8Q616.7 379.7 616.7 378.5L616.7 378.5Q616.7 376.4 617.9 375.3Q619.2 374.2 621.4 373.6L621.4 373.6L621.4 373.3Q619.8 372.8 618.9 372.0Q618.0 371.1 618.0 369.4L618.0 369.4Q618.0 367.6 619.2 366.8Q620.4 365.9 622.4 365.4L622.4 365.4L622.4 365.1Q620.2 364.1 619.0 362.1Q617.8 360.2 617.8 357.5L617.8 357.5Q617.8 355.3 618.5 353.7Q619.3 352.0 620.7 350.9Q622.1 349.8 624.1 349.2Q626.1 348.7 628.5 348.7L628.5 348.7Q630.9 348.7 632.9 349.2L632.9 349.2L632.9 347.8Q632.9 346.4 633.9 345.4Q634.9 344.5 636.7 344.5L636.7 344.5L641.0 344.5L641.0 349.7L635.1 349.7L635.1 350.1Q637.1 351.2 638.2 353Q639.4 354.8 639.4 357.5L639.4 357.5Q639.4 359.6 638.6 361.3Q637.8 362.9 636.4 364.0Q634.9 365.2 633.0 365.7Q631.0 366.3 628.5 366.3L628.5 366.3Q627.4 366.3 626.4 366.2Q625.4 366.1 624.5 365.8L624.5 365.8Q624.0 366.1 623.6 366.6Q623.2 367.0 623.2 367.7L623.2 367.7Q623.2 368.2 623.5 368.6Q623.8 368.9 624.3 369.1Q624.8 369.2 625.5 369.3Q626.2 369.3 626.9 369.3L626.9 369.3L632.5 369.3Q635.2 369.3 637.1 369.9Q638.9 370.4 640.1 371.4Q641.3 372.3 641.9 373.6Q642.4 374.9 642.4 376.5ZM635.7 377.0L635.7 377.0Q635.7 376.1 634.9 375.5Q634.1 375.0 632.0 375.0L632.0 375.0L623.5 375.0Q622.5 375.8 622.5 377.0L622.5 377.0Q622.5 378.1 623.5 378.9Q624.5 379.6 626.8 379.6L626.8 379.6L631.0 379.6Q633.5 379.6 634.6 378.9Q635.7 378.3 635.7 377.0ZM628.5 361.8L628.5 361.8Q630.7 361.8 631.7 360.8Q632.6 359.7 632.6 358.1L632.6 358.1L632.6 356.9Q632.6 355.3 631.7 354.2Q630.7 353.2 628.5 353.2L628.5 353.2Q626.4 353.2 625.4 354.2Q624.5 355.3 624.5 356.9L624.5 356.9L624.5 358.1Q624.5 359.7 625.4 360.8Q626.4 361.8 628.5 361.8ZM658.3 374.6L658.3 374.6Q652.0 374.6 648.8 371.1Q645.6 367.7 645.6 361.7L645.6 361.7Q645.6 358.7 646.4 356.3Q647.3 353.8 648.8 352.1Q650.4 350.4 652.6 349.5Q654.9 348.7 657.6 348.7L657.6 348.7Q660.4 348.7 662.6 349.5Q664.8 350.4 666.4 352.1Q667.9 353.7 668.8 356.0Q669.6 358.4 669.6 361.2L669.6 361.2L669.6 363.3L652.7 363.3L652.7 363.8Q652.7 366.2 654.1 367.6Q655.6 369.1 658.5 369.1L658.5 369.1Q660.7 369.1 662.3 368.3Q663.9 367.4 665.0 366.0L665.0 366.0L668.9 370.2Q667.4 372.0 664.8 373.3Q662.3 374.6 658.3 374.6ZM657.7 353.7L657.7 353.7Q655.4 353.7 654.0 355.2Q652.7 356.6 652.7 359.0L652.7 359.0L652.7 359.4L662.6 359.4L662.6 359.0Q662.6 356.5 661.3 355.1Q660.0 353.7 657.7 353.7ZM686.1 374.6L686.1 374.6Q682.0 374.6 678.9 373.3Q675.9 372.1 674.4 369.9L674.4 369.9L678.3 366.2Q679.8 367.8 681.7 368.7Q683.7 369.6 686.2 369.6L686.2 369.6Q688.3 369.6 689.5 368.9Q690.7 368.3 690.7 366.9L690.7 366.9Q690.7 365.9 689.9 365.5Q689.0 365.1 687.6 364.8L687.6 364.8L683.6 364.2Q681.9 364.0 680.5 363.5Q679.1 363.0 678.0 362.1Q676.9 361.2 676.3 360.0Q675.7 358.7 675.7 357.0L675.7 357.0Q675.7 353.1 678.7 350.9Q681.6 348.7 687.0 348.7L687.0 348.7Q690.7 348.7 693.2 349.6Q695.8 350.6 697.3 352.4L697.3 352.4L693.8 356.5Q692.7 355.3 691.0 354.5Q689.2 353.6 686.8 353.6L686.8 353.6Q682.7 353.6 682.7 356.1L682.7 356.1Q682.7 357.2 683.5 357.7Q684.3 358.1 685.7 358.3L685.7 358.3L689.7 358.9Q691.3 359.2 692.8 359.7Q694.2 360.2 695.3 361.0Q696.4 361.9 697.0 363.2Q697.6 364.4 697.6 366.2L697.6 366.2Q697.6 370.1 694.6 372.3Q691.6 374.6 686.1 374.6ZM726.3 374L717.1 374Q713.3 374 711.4 372.0Q709.5 370.0 709.5 366.8L709.5 366.8L709.5 354.8L702.8 354.8L702.8 349.2L707.2 349.2Q708.8 349.2 709.4 348.6Q710.1 348.0 710.1 346.3L710.1 346.3L710.1 340.5L716.6 340.5L716.6 349.2L726.3 349.2L726.3 354.8L716.6 354.8L716.6 368.5L726.3 368.5L726.3 374Z M768.9 374L761.6 374L761.6 340.5L774.6 340.5Q777.1 340.5 779.0 341.2Q780.9 342.0 782.2 343.4Q783.5 344.8 784.2 346.7Q784.9 348.7 784.9 351.2L784.9 351.2Q784.9 353.6 784.2 355.6Q783.5 357.5 782.2 358.9Q780.9 360.3 779.0 361.1Q777.1 361.8 774.6 361.8L774.6 361.8L768.9 361.8L768.9 374ZM768.9 346.3L768.9 356L772.8 356Q775.3 356 776.3 355.0Q777.3 354.1 777.3 351.9L777.3 351.9L777.3 350.4Q777.3 348.2 776.3 347.3Q775.3 346.3 772.8 346.3L772.8 346.3L768.9 346.3ZM814.3 374L810.2 374Q808.0 374 806.6 372.9Q805.3 371.7 805.0 369.6L805.0 369.6L804.8 369.6Q804.1 372.1 802.1 373.3Q800.1 374.6 797.3 374.6L797.3 374.6Q793.7 374.6 791.5 372.6Q789.3 370.7 789.3 367.2L789.3 367.2Q789.3 363.3 792.1 361.4Q795.0 359.6 800.4 359.6L800.4 359.6L804.4 359.6L804.4 358.3Q804.4 356.1 803.4 355.0Q802.4 353.8 799.9 353.8L799.9 353.8Q797.6 353.8 796.3 354.7Q794.9 355.6 793.9 357.0L793.9 357.0L790.0 353.5Q791.2 351.4 793.9 350.0Q796.5 348.7 800.7 348.7L800.7 348.7Q805.8 348.7 808.7 351.0Q811.5 353.3 811.5 358.0L811.5 358.0L811.5 368.9L814.3 368.9L814.3 374ZM800.0 369.9L800.0 369.9Q801.8 369.9 803.1 369.0Q804.4 368.1 804.4 366.4L804.4 366.4L804.4 363.4L800.6 363.4Q796.3 363.4 796.3 366.3L796.3 366.3L796.3 367.3Q796.3 368.6 797.3 369.2Q798.3 369.9 800.0 369.9ZM818.9 374L818.9 368.5L826.4 368.5L826.4 344L818.9 344L818.9 338.5L833.6 338.5L833.6 368.5L841.1 368.5L841.1 374L818.9 374ZM860.3 346.1L860.3 346.1Q857.9 346.1 857.0 345.1Q856.1 344.1 856.1 342.7L856.1 342.7L856.1 341.3Q856.1 339.9 857.0 338.9Q857.9 338.0 860.3 338.0L860.3 338.0Q862.7 338.0 863.7 338.9Q864.6 339.9 864.6 341.3L864.6 341.3L864.6 342.7Q864.6 344.1 863.7 345.1Q862.7 346.1 860.3 346.1ZM848.9 374L848.9 368.5L856.8 368.5L856.8 354.8L848.9 354.8L848.9 349.2L863.9 349.2L863.9 368.5L871.2 368.5L871.2 374L848.9 374ZM883.4 374L876.3 374L876.3 349.2L883.4 349.2L883.4 353.7L883.7 353.7Q884.1 352.7 884.8 351.8Q885.4 350.9 886.3 350.2Q887.2 349.5 888.3 349.1Q889.5 348.7 891.0 348.7L891.0 348.7Q892.8 348.7 894.3 349.3Q895.8 349.9 896.8 351.1Q897.9 352.3 898.5 354.0Q899.1 355.7 899.1 358.0L899.1 358.0L899.1 374L892.0 374L892.0 358.9Q892.0 354.1 887.8 354.1L887.8 354.1Q887.0 354.1 886.2 354.3Q885.4 354.6 884.8 355.0Q884.1 355.5 883.8 356.1Q883.4 356.8 883.4 357.7L883.4 357.7L883.4 374ZM920.9 374L920.9 369.5L920.5 369.5Q919.6 371.7 917.9 373.2Q916.2 374.6 913.2 374.6L913.2 374.6Q911.1 374.6 909.4 373.8Q907.7 373.0 906.5 371.5Q905.3 369.9 904.6 367.4Q903.9 365.0 903.9 361.6L903.9 361.6Q903.9 358.3 904.6 355.8Q905.3 353.4 906.5 351.8Q907.7 350.2 909.4 349.4Q911.1 348.7 913.2 348.7L913.2 348.7Q914.7 348.7 915.8 349.0Q917.0 349.4 917.9 350.1Q918.8 350.8 919.4 351.7Q920.0 352.6 920.5 353.7L920.5 353.7L920.9 353.7L920.9 338.5L928.0 338.5L928.0 374L920.9 374ZM916.3 369.1L916.3 369.1Q918.1 369.1 919.5 368.1Q920.9 367.2 920.9 365.3L920.9 365.3L920.9 358.0Q920.9 356 919.5 355.1Q918.1 354.2 916.3 354.2L916.3 354.2Q913.9 354.2 912.6 355.6Q911.3 357.1 911.3 359.7L911.3 359.7L911.3 363.5Q911.3 366.1 912.6 367.6Q913.9 369.1 916.3 369.1ZM934.4 374L934.4 368.5L940.1 368.5L940.1 354.8L934.4 354.8L934.4 349.2L947.2 349.2L947.2 356.2L947.5 356.2Q947.8 354.9 948.4 353.6Q949.0 352.4 950.0 351.4Q950.9 350.4 952.3 349.8Q953.6 349.2 955.4 349.2L955.4 349.2L957.8 349.2L957.8 355.8L952.5 355.8Q949.9 355.8 948.5 357.3Q947.2 358.9 947.2 361.1L947.2 361.1L947.2 368.5L955.3 368.5L955.3 374L934.4 374ZM974.0 374.6L974.0 374.6Q971.1 374.6 968.8 373.7Q966.5 372.8 964.9 371.1Q963.3 369.4 962.4 367.0Q961.6 364.6 961.6 361.6L961.6 361.6Q961.6 358.6 962.4 356.2Q963.3 353.8 964.9 352.1Q966.5 350.4 968.8 349.5Q971.1 348.7 974.0 348.7L974.0 348.7Q976.9 348.7 979.2 349.5Q981.5 350.4 983.1 352.1Q984.7 353.8 985.6 356.2Q986.4 358.6 986.4 361.6L986.4 361.6Q986.4 364.6 985.6 367.0Q984.7 369.4 983.1 371.1Q981.5 372.8 979.2 373.7Q976.9 374.6 974.0 374.6ZM974.0 369.3L974.0 369.3Q976.4 369.3 977.7 367.8Q979.1 366.3 979.1 363.6L979.1 363.6L979.1 359.6Q979.1 356.9 977.7 355.4Q976.4 353.9 974.0 353.9L974.0 353.9Q971.6 353.9 970.3 355.4Q968.9 356.9 968.9 359.6L968.9 359.6L968.9 363.6Q968.9 366.3 970.3 367.8Q971.6 369.3 974.0 369.3ZM995.6 374L989.8 374L989.8 349.2L995.6 349.2L995.6 352.9L995.9 352.9Q996.5 351.2 997.5 349.9Q998.6 348.7 1000.6 348.7L1000.6 348.7Q1004.2 348.7 1005.0 352.9L1005.0 352.9L1005.3 352.9Q1005.6 352.0 1006.0 351.2Q1006.4 350.5 1007.1 349.9Q1007.7 349.3 1008.6 349.0Q1009.4 348.7 1010.6 348.7L1010.6 348.7Q1015.8 348.7 1015.8 356.3L1015.8 356.3L1015.8 374L1010.0 374L1010.0 357.0Q1010.0 355.3 1009.4 354.6Q1008.8 353.9 1007.9 353.9L1007.9 353.9Q1007.0 353.9 1006.3 354.5Q1005.7 355.1 1005.7 356.3L1005.7 356.3L1005.7 374L999.9 374L999.9 357.0Q999.9 355.3 999.4 354.6Q998.8 353.9 997.9 353.9L997.9 353.9Q996.9 353.9 996.2 354.5Q995.6 355.1 995.6 356.3L995.6 356.3L995.6 374ZM1033.1 346.1L1033.1 346.1Q1030.7 346.1 1029.8 345.1Q1028.9 344.1 1028.9 342.7L1028.9 342.7L1028.9 341.3Q1028.9 339.9 1029.8 338.9Q1030.7 338.0 1033.1 338.0L1033.1 338.0Q1035.5 338.0 1036.5 338.9Q1037.4 339.9 1037.4 341.3L1037.4 341.3L1037.4 342.7Q1037.4 344.1 1036.5 345.1Q1035.5 346.1 1033.1 346.1ZM1021.7 374L1021.7 368.5L1029.6 368.5L1029.6 354.8L1021.7 354.8L1021.7 349.2L1036.7 349.2L1036.7 368.5L1044.0 368.5L1044.0 374L1021.7 374ZM1061.4 374.6L1061.4 374.6Q1058.5 374.6 1056.2 373.7Q1053.8 372.8 1052.2 371.1Q1050.6 369.4 1049.7 367.0Q1048.9 364.6 1048.9 361.6L1048.9 361.6Q1048.9 358.6 1049.7 356.2Q1050.6 353.8 1052.2 352.1Q1053.8 350.4 1056.2 349.5Q1058.5 348.7 1061.4 348.7L1061.4 348.7Q1065.4 348.7 1067.9 350.3Q1070.4 352.0 1071.7 354.7L1071.7 354.7L1066.2 357.7Q1065.5 356.2 1064.5 355.3Q1063.4 354.3 1061.4 354.3L1061.4 354.3Q1058.9 354.3 1057.6 355.7Q1056.3 357.2 1056.3 359.6L1056.3 359.6L1056.3 363.6Q1056.3 366.1 1057.6 367.5Q1058.9 368.9 1061.5 368.9L1061.5 368.9Q1063.5 368.9 1064.7 368.0Q1065.9 367.0 1066.7 365.5L1066.7 365.5L1072.1 368.5Q1070.7 371.3 1068.2 372.9Q1065.6 374.6 1061.4 374.6Z M483.9 436.6L483.9 436.6Q479.6 436.6 476.5 435.2Q473.4 433.8 471.5 431.4L471.5 431.4L475.7 426.8Q477.5 428.8 479.7 429.8Q481.9 430.7 484.1 430.7L484.1 430.7Q486.7 430.7 488.0 429.6Q489.4 428.4 489.4 426.3L489.4 426.3Q489.4 424.5 488.4 423.6Q487.3 422.7 484.9 422.3L484.9 422.3L481.4 421.7Q476.9 420.9 474.8 418.4Q472.8 415.8 472.8 412.1L472.8 412.1Q472.8 407.2 476 404.6Q479.2 401.9 484.9 401.9L484.9 401.9Q488.8 401.9 491.6 403.1Q494.5 404.3 496.3 406.4L496.3 406.4L492.2 410.9Q490.9 409.5 489.1 408.6Q487.2 407.8 484.9 407.8L484.9 407.8Q480.1 407.8 480.1 411.8L480.1 411.8Q480.1 413.5 481.2 414.4Q482.2 415.2 484.7 415.6L484.7 415.6L488.2 416.3Q492.3 417.0 494.5 419.3Q496.7 421.7 496.7 425.7L496.7 425.7Q496.7 428.0 495.9 430.0Q495.1 432.0 493.4 433.5Q491.8 434.9 489.4 435.8Q487.0 436.6 483.9 436.6ZM517.4 436L517.4 431.5L517.1 431.5Q516.3 433.6 514.5 435.1Q512.8 436.6 509.8 436.6L509.8 436.6Q508.0 436.6 506.5 436.0Q505.0 435.4 504.0 434.2Q502.9 433.0 502.3 431.2Q501.7 429.5 501.7 427.3L501.7 427.3L501.7 411.2L508.8 411.2L508.8 426.3Q508.8 431.1 513.0 431.1L513.0 431.1Q513.8 431.1 514.6 430.9Q515.4 430.7 516.0 430.2Q516.6 429.8 517.0 429.1Q517.4 428.4 517.4 427.5L517.4 427.5L517.4 411.2L524.5 411.2L524.5 436L517.4 436ZM530.4 436L530.4 400.5L537.5 400.5L537.5 415.7L537.9 415.7Q538.8 413.5 540.5 412.1Q542.2 410.7 545.2 410.7L545.2 410.7Q547.3 410.7 549.0 411.4Q550.7 412.2 551.9 413.8Q553.1 415.4 553.8 417.8Q554.5 420.3 554.5 423.6L554.5 423.6Q554.5 427.0 553.8 429.4Q553.1 431.9 551.9 433.5Q550.7 435.0 549.0 435.8Q547.3 436.6 545.2 436.6L545.2 436.6Q542.2 436.6 540.5 435.2Q538.8 433.7 537.9 431.5L537.9 431.5L537.5 431.5L537.5 436L530.4 436ZM542.1 431.1L542.1 431.1Q544.5 431.1 545.8 429.6Q547.1 428.1 547.1 425.5L547.1 425.5L547.1 421.7Q547.1 419.1 545.8 417.6Q544.5 416.2 542.1 416.2L542.1 416.2Q540.3 416.2 538.9 417.1Q537.5 418 537.5 420.0L537.5 420.0L537.5 427.3Q537.5 429.2 538.9 430.1Q540.3 431.1 542.1 431.1ZM570.5 436.6L570.5 436.6Q566.4 436.6 563.3 435.3Q560.3 434.1 558.8 431.9L558.8 431.9L562.7 428.2Q564.2 429.8 566.1 430.7Q568.1 431.6 570.6 431.6L570.6 431.6Q572.7 431.6 573.9 430.9Q575.1 430.3 575.1 428.9L575.1 428.9Q575.1 427.9 574.3 427.5Q573.4 427.1 572 426.8L572 426.8L568.0 426.2Q566.3 426.0 564.9 425.5Q563.5 425.0 562.4 424.1Q561.3 423.2 560.7 422.0Q560.1 420.7 560.1 419.0L560.1 419.0Q560.1 415.1 563.1 412.9Q566.0 410.7 571.4 410.7L571.4 410.7Q575.1 410.7 577.6 411.6Q580.2 412.6 581.7 414.4L581.7 414.4L578.2 418.5Q577.1 417.3 575.4 416.5Q573.6 415.6 571.2 415.6L571.2 415.6Q567.1 415.6 567.1 418.1L567.1 418.1Q567.1 419.2 567.9 419.7Q568.7 420.1 570.1 420.3L570.1 420.3L574.1 420.9Q575.7 421.2 577.2 421.7Q578.6 422.2 579.7 423.0Q580.8 423.9 581.4 425.2Q582.0 426.4 582.0 428.2L582.0 428.2Q582.0 432.1 579.0 434.3Q576.0 436.6 570.5 436.6ZM610.7 436L601.5 436Q597.7 436 595.8 434.0Q593.9 432.0 593.9 428.8L593.9 428.8L593.9 416.8L587.2 416.8L587.2 411.2L591.6 411.2Q593.2 411.2 593.8 410.6Q594.5 410.0 594.5 408.3L594.5 408.3L594.5 402.5L601.0 402.5L601.0 411.2L610.7 411.2L610.7 416.8L601.0 416.8L601.0 430.5L610.7 430.5L610.7 436ZM617.6 436L617.6 430.5L623.3 430.5L623.3 416.8L617.6 416.8L617.6 411.2L630.4 411.2L630.4 418.2L630.7 418.2Q631.0 416.9 631.6 415.6Q632.2 414.4 633.2 413.4Q634.1 412.4 635.5 411.8Q636.8 411.2 638.6 411.2L638.6 411.2L641.0 411.2L641.0 417.8L635.7 417.8Q633.1 417.8 631.7 419.3Q630.4 420.9 630.4 423.1L630.4 423.1L630.4 430.5L638.5 430.5L638.5 436L617.6 436ZM658.7 408.1L658.7 408.1Q656.3 408.1 655.4 407.1Q654.5 406.1 654.5 404.7L654.5 404.7L654.5 403.3Q654.5 401.9 655.4 400.9Q656.3 400.0 658.7 400.0L658.7 400.0Q661.1 400.0 662.1 400.9Q663.0 401.9 663.0 403.3L663.0 403.3L663.0 404.7Q663.0 406.1 662.1 407.1Q661.1 408.1 658.7 408.1ZM647.3 436L647.3 430.5L655.2 430.5L655.2 416.8L647.3 416.8L647.3 411.2L662.3 411.2L662.3 430.5L669.6 430.5L669.6 436L647.3 436ZM681.8 436L674.7 436L674.7 411.2L681.8 411.2L681.8 415.7L682.1 415.7Q682.5 414.7 683.2 413.8Q683.8 412.9 684.7 412.2Q685.6 411.5 686.7 411.1Q687.9 410.7 689.4 410.7L689.4 410.7Q691.2 410.7 692.7 411.3Q694.2 411.9 695.2 413.1Q696.3 414.3 696.9 416.0Q697.5 417.7 697.5 420.0L697.5 420.0L697.5 436L690.4 436L690.4 420.9Q690.4 416.1 686.2 416.1L686.2 416.1Q685.4 416.1 684.6 416.3Q683.8 416.6 683.2 417.0Q682.5 417.5 682.2 418.1Q681.8 418.8 681.8 419.7L681.8 419.7L681.8 436ZM728.4 438.5L728.4 438.5Q728.4 442.4 725.1 444.3Q721.8 446.2 714.7 446.2L714.7 446.2Q711.1 446.2 708.8 445.8Q706.5 445.4 705.1 444.6Q703.8 443.8 703.2 442.8Q702.7 441.7 702.7 440.5L702.7 440.5Q702.7 438.4 703.9 437.3Q705.2 436.2 707.4 435.6L707.4 435.6L707.4 435.3Q705.8 434.8 704.9 434.0Q704.0 433.1 704.0 431.4L704.0 431.4Q704.0 429.6 705.2 428.8Q706.4 427.9 708.4 427.4L708.4 427.4L708.4 427.1Q706.2 426.1 705.0 424.1Q703.8 422.2 703.8 419.5L703.8 419.5Q703.8 417.3 704.5 415.7Q705.3 414.0 706.7 412.9Q708.1 411.8 710.1 411.2Q712.1 410.7 714.5 410.7L714.5 410.7Q716.9 410.7 718.9 411.2L718.9 411.2L718.9 409.8Q718.9 408.4 719.9 407.4Q720.9 406.5 722.7 406.5L722.7 406.5L727.0 406.5L727.0 411.7L721.1 411.7L721.1 412.1Q723.1 413.2 724.2 415Q725.4 416.8 725.4 419.5L725.4 419.5Q725.4 421.6 724.6 423.3Q723.8 424.9 722.4 426.0Q720.9 427.2 719.0 427.7Q717.0 428.3 714.5 428.3L714.5 428.3Q713.4 428.3 712.4 428.2Q711.4 428.1 710.5 427.8L710.5 427.8Q710.0 428.1 709.6 428.6Q709.2 429.0 709.2 429.7L709.2 429.7Q709.2 430.2 709.5 430.6Q709.8 430.9 710.3 431.1Q710.8 431.2 711.5 431.3Q712.2 431.3 712.9 431.3L712.9 431.3L718.5 431.3Q721.2 431.3 723.1 431.9Q724.9 432.4 726.1 433.4Q727.3 434.3 727.9 435.6Q728.4 436.9 728.4 438.5ZM721.7 439.0L721.7 439.0Q721.7 438.1 720.9 437.5Q720.1 437.0 718.0 437.0L718.0 437.0L709.5 437.0Q708.5 437.8 708.5 439.0L708.5 439.0Q708.5 440.1 709.5 440.9Q710.5 441.6 712.8 441.6L712.8 441.6L717.0 441.6Q719.5 441.6 720.6 440.9Q721.7 440.3 721.7 439.0ZM714.5 423.8L714.5 423.8Q716.7 423.8 717.7 422.8Q718.6 421.7 718.6 420.1L718.6 420.1L718.6 418.9Q718.6 417.3 717.7 416.2Q716.7 415.2 714.5 415.2L714.5 415.2Q712.4 415.2 711.4 416.2Q710.5 417.3 710.5 418.9L710.5 418.9L710.5 420.1Q710.5 421.7 711.4 422.8Q712.4 423.8 714.5 423.8Z "/></g></svg>