<svg width="1200" height="630" viewBox="0 0 1200 630" xmlns="http://www.w3.org/2000/svg"><defs><pattern id="satori_pattern_id_1" x="0" y="0" width="0.08333333333333333" height="0.15873015873015872" patternUnits="objectBoundingBox"><radialGradient id="satori_radial_id_1" spreadMethod="pad"><stop offset="0" stop-color="lightgray"/><stop offset="0.03" stop-color="lightgray"/><stop offset="0" stop-color="transparent"/><stop offset="1" stop-color="transparent"/></radialGradient><mask id="satori_mask_id_1"><rect x="0" y="0" width="100" height="100" fill="#fff"/></mask><rect x="0" y="0" width="100" height="100" fill="transparent"/><circle cx="75" cy="75" width="100" height="100" r="106.06601717798213" fill="url(#satori_radial_id_1)" mask="url(#satori_mask_id_1)"/></pattern><pattern id="satori_pattern_id_0" x="0" y="0" width="0.08333333333333333" height="0.15873015873015872" patternUnits="objectBoundingBox"><radialGradient id="satori_radial_id_0" spreadMethod="pad"><stop offset="0" stop-color="lightgray"/><stop offset="0.03" stop-color="lightgray"/><stop offset="0" stop-color="transparent"/><stop offset="1" stop-color="transparent"/></radialGradient><mask id="satori_mask_id_0"><rect x="0" y="0" width="100" height="100" fill="#fff"/></mask><rect x="0" y="0" width="100" height="100" fill="transparent"/><circle cx="25" cy="25" width="100" height="100" r="106.06601717798213" fill="url(#satori_radial_id_0)" mask="url(#satori_mask_id_0)"/></pattern></defs><mask id="satori_om-id"><rect x="0" y="0" width="1200" height="630" fill="#fff"/></mask><rect x="0" y="0" width="1200" height="630" fill="white"/><rect x="0" y="0" width="1200" height="630" fill="url(#satori_pattern_id_1)"/><rect x="0" y="0" width="1200" height="630" fill="url(#satori_pattern_id_0)"/><mask id="satori_om-id-0"><rect x="24" y="213" width="1152" height="205" fill="#fff"/></mask><mask id="satori_om-id-0-0"><rect x="476" y="213" width="248" height="47" fill="#fff"/></mask><mask id="satori_om-id-0-0-0"><rect x="476" y="229" width="16" height="16" fill="#fff"/></mask><rect x="476" y="229" width="16" height="16" fill="black"/><mask id="satori_om-id-0-0-1"><rect x="508" y="213" width="216" height="47" fill="#fff"/></mask><g  ><path fill="black" d="M511.7 257.2L511.7 254.8L520.7 254.8L520.7 233.9L511.3 233.9L511.3 231.4L523.6 231.4L523.6 253.0Q523.6 254.8 522.6 256.0Q521.6 257.2 519.4 257.2L519.4 257.2L511.7 257.2ZM522.1 227.3L522.1 227.3Q520.9 227.3 520.3 226.8Q519.8 226.3 519.8 225.5L519.8 225.5L519.8 224.9Q519.8 224.1 520.3 223.6Q520.9 223.1 522.1 223.1L522.1 223.1Q523.4 223.1 523.9 223.6Q524.4 224.1 524.4 224.9L524.4 224.9L524.4 225.5Q524.4 226.3 523.9 226.8Q523.4 227.3 522.1 227.3ZM549.4 250L547.4 250Q545.7 250 545.0 249.1Q544.3 248.3 544.1 247.0L544.1 247.0L543.9 247.0Q543.3 248.6 542.0 249.5Q540.6 250.4 538.3 250.4L538.3 250.4Q535.4 250.4 533.7 248.9Q532.0 247.4 532.0 244.8L532.0 244.8Q532.0 242.2 533.9 240.8Q535.8 239.4 540.0 239.4L540.0 239.4L543.9 239.4L543.9 237.5Q543.9 235.5 542.8 234.5Q541.6 233.4 539.5 233.4L539.5 233.4Q537.6 233.4 536.4 234.2Q535.3 234.9 534.5 236.2L534.5 236.2L532.6 234.7Q532.9 234.0 533.6 233.3Q534.2 232.6 535.1 232.1Q536.0 231.6 537.1 231.3Q538.3 231.0 539.7 231.0L539.7 231.0Q543.0 231.0 544.9 232.6Q546.8 234.3 546.8 237.3L546.8 237.3L546.8 247.5L549.4 247.5L549.4 250ZM538.9 248.0L538.9 248.0Q540.0 248.0 540.9 247.8Q541.8 247.5 542.5 247.0Q543.2 246.6 543.6 245.9Q543.9 245.3 543.9 244.6L543.9 244.6L543.9 241.5L540.0 241.5Q537.4 241.5 536.2 242.3Q535 243.0 535 244.3L535 244.3L535 245.1Q535 246.5 536.0 247.3Q537.1 248.0 538.9 248.0ZM562.3 250.4L562.3 250.4Q560.3 250.4 558.7 249.7Q557.1 249.1 556.0 247.8Q554.8 246.5 554.2 244.7Q553.6 242.9 553.6 240.7L553.6 240.7Q553.6 238.5 554.2 236.7Q554.9 234.9 556.0 233.6Q557.1 232.4 558.7 231.7Q560.2 231.0 562.1 231.0L562.1 231.0Q564.0 231.0 565.5 231.7Q567.1 232.4 568.2 233.6Q569.2 234.8 569.8 236.4Q570.4 238.1 570.4 240.1L570.4 240.1L570.4 241.4L556.6 241.4L556.6 242.3Q556.6 243.5 557.0 244.6Q557.4 245.6 558.2 246.4Q558.9 247.1 560.0 247.5Q561.0 247.9 562.3 247.9L562.3 247.9Q564.2 247.9 565.6 247.1Q566.9 246.2 567.7 244.7L567.7 244.7L569.8 246.1Q568.9 248.0 567.0 249.2Q565.1 250.4 562.3 250.4ZM562.1 233.4L562.1 233.4Q561.0 233.4 559.9 233.8Q558.9 234.2 558.2 235.0Q557.5 235.7 557.1 236.8Q556.6 237.8 556.6 239.0L556.6 239.0L556.6 239.3L567.3 239.3L567.3 238.9Q567.3 237.7 566.9 236.6Q566.5 235.6 565.9 234.9Q565.2 234.2 564.3 233.8Q563.3 233.4 562.1 233.4ZM576.3 250L576.3 223.4L579.2 223.4L579.2 234.4L579.4 234.4Q579.6 233.8 580.1 233.1Q580.5 232.5 581.1 232.0Q581.8 231.6 582.6 231.3Q583.5 231.0 584.6 231.0L584.6 231.0Q587.6 231.0 589.3 232.8Q591.1 234.7 591.1 238.1L591.1 238.1L591.1 250L588.2 250L588.2 238.6Q588.2 236.0 587.1 234.8Q586.0 233.5 583.8 233.5L583.8 233.5Q583.0 233.5 582.1 233.8Q581.3 234.0 580.6 234.4Q580.0 234.8 579.6 235.5Q579.2 236.2 579.2 237.1L579.2 237.1L579.2 250L576.3 250ZM605.5 250.4L605.5 250.4Q603.5 250.4 601.9 249.7Q600.3 249.1 599.2 247.8Q598.0 246.5 597.4 244.7Q596.8 242.9 596.8 240.7L596.8 240.7Q596.8 238.5 597.4 236.7Q598.1 234.9 599.2 233.6Q600.3 232.4 601.9 231.7Q603.4 231.0 605.3 231.0L605.3 231.0Q607.2 231.0 608.7 231.7Q610.3 232.4 611.4 233.6Q612.4 234.8 613.0 236.4Q613.6 238.1 613.6 240.1L613.6 240.1L613.6 241.4L599.8 241.4L599.8 242.3Q599.8 243.5 600.2 244.6Q600.6 245.6 601.4 246.4Q602.1 247.1 603.2 247.5Q604.2 247.9 605.5 247.9L605.5 247.9Q607.4 247.9 608.8 247.1Q610.1 246.2 610.9 244.7L610.9 244.7L613.0 246.1Q612.1 248.0 610.2 249.2Q608.3 250.4 605.5 250.4ZM605.3 233.4L605.3 233.4Q604.2 233.4 603.1 233.8Q602.1 234.2 601.4 235.0Q600.7 235.7 600.3 236.8Q599.8 237.8 599.8 239.0L599.8 239.0L599.8 239.3L610.5 239.3L610.5 238.9Q610.5 237.7 610.1 236.6Q609.7 235.6 609.1 234.9Q608.4 234.2 607.5 233.8Q606.5 233.4 605.3 233.4ZM627.1 250.4L627.1 250.4Q625.1 250.4 623.5 249.7Q621.9 249.1 620.8 247.8Q619.6 246.5 619.0 244.7Q618.4 242.9 618.4 240.7L618.4 240.7Q618.4 238.5 619.0 236.7Q619.7 234.9 620.8 233.6Q621.9 232.4 623.5 231.7Q625.0 231.0 626.9 231.0L626.9 231.0Q628.8 231.0 630.3 231.7Q631.9 232.4 633.0 233.6Q634.0 234.8 634.6 236.4Q635.2 238.1 635.2 240.1L635.2 240.1L635.2 241.4L621.4 241.4L621.4 242.3Q621.4 243.5 621.8 244.6Q622.2 245.6 623.0 246.4Q623.7 247.1 624.8 247.5Q625.8 247.9 627.1 247.9L627.1 247.9Q629.0 247.9 630.4 247.1Q631.7 246.2 632.5 244.7L632.5 244.7L634.6 246.1Q633.7 248.0 631.8 249.2Q629.9 250.4 627.1 250.4ZM626.9 233.4L626.9 233.4Q625.8 233.4 624.7 233.8Q623.7 234.2 623.0 235.0Q622.3 235.7 621.9 236.8Q621.4 237.8 621.4 239.0L621.4 239.0L621.4 239.3L632.1 239.3L632.1 238.9Q632.1 237.7 631.7 236.6Q631.3 235.6 630.7 234.9Q630.0 234.2 629.1 233.8Q628.1 233.4 626.9 233.4ZM648.4 250.3L648.4 250.3Q646.9 250.3 646.3 249.7Q645.7 249.1 645.7 248.2L645.7 248.2L645.7 247.5Q645.7 246.6 646.3 246.0Q646.9 245.4 648.4 245.4L648.4 245.4Q649.9 245.4 650.5 246.0Q651.1 246.6 651.1 247.5L651.1 247.5L651.1 248.2Q651.1 249.1 650.5 249.7Q649.9 250.3 648.4 250.3ZM674.5 250L674.5 247.0L674.4 247.0Q672.6 250.4 668.6 250.4L668.6 250.4Q665.2 250.4 663.3 247.9Q661.4 245.3 661.4 240.7L661.4 240.7Q661.4 236.1 663.3 233.5Q665.2 231.0 668.6 231.0L668.6 231.0Q672.6 231.0 674.4 234.4L674.4 234.4L674.5 234.4L674.5 223.4L677.4 223.4L677.4 250L674.5 250ZM669.7 247.9L669.7 247.9Q670.7 247.9 671.6 247.6Q672.4 247.4 673.1 246.9Q673.7 246.4 674.1 245.7Q674.5 245.0 674.5 244.1L674.5 244.1L674.5 237.4Q674.5 236.4 674.1 235.7Q673.7 235.0 673.1 234.5Q672.4 234.1 671.6 233.8Q670.7 233.5 669.7 233.5L669.7 233.5Q667.2 233.5 665.8 235.1Q664.5 236.6 664.5 239.1L664.5 239.1L664.5 242.3Q664.5 244.8 665.8 246.3Q667.2 247.9 669.7 247.9ZM691.9 250.4L691.9 250.4Q689.9 250.4 688.3 249.7Q686.7 249.1 685.6 247.8Q684.4 246.5 683.8 244.7Q683.2 242.9 683.2 240.7L683.2 240.7Q683.2 238.5 683.8 236.7Q684.5 234.9 685.6 233.6Q686.7 232.4 688.3 231.7Q689.8 231.0 691.7 231.0L691.7 231.0Q693.6 231.0 695.1 231.7Q696.7 232.4 697.8 233.6Q698.8 234.8 699.4 236.4Q700.0 238.1 700.0 240.1L700.0 240.1L700.0 241.4L686.2 241.4L686.2 242.3Q686.2 243.5 686.6 244.6Q687.0 245.6 687.8 246.4Q688.5 247.1 689.6 247.5Q690.6 247.9 691.9 247.9L691.9 247.9Q693.8 247.9 695.2 247.1Q696.5 246.2 697.3 244.7L697.3 244.7L699.4 246.1Q698.5 248.0 696.6 249.2Q694.7 250.4 691.9 250.4ZM691.7 233.4L691.7 233.4Q690.6 233.4 689.5 233.8Q688.5 234.2 687.8 235.0Q687.1 235.7 686.7 236.8Q686.2 237.8 686.2 239.0L686.2 239.0L686.2 239.3L696.9 239.3L696.9 238.9Q696.9 237.7 696.5 236.6Q696.1 235.6 695.5 234.9Q694.8 234.2 693.9 233.8Q692.9 233.4 691.7 233.4ZM715.0 250L711.4 250L704.7 231.4L707.6 231.4L710.3 239.2L713.2 247.6L713.3 247.6L716.2 239.2L718.9 231.4L721.7 231.4L715.0 250Z "/></g><mask id="satori_om-id-0-1"><rect x="24" y="356" width="1152" height="62" fill="#fff"/></mask><g  ><path fill="black" d="M50.1 405L28.4 405L28.4 371.5L35.7 371.5L35.7 399.1L50.1 399.1L50.1 405ZM67.9 405.6L67.9 405.6Q61.6 405.6 58.4 402.1Q55.2 398.7 55.2 392.7L55.2 392.7Q55.2 389.7 56.0 387.3Q56.9 384.8 58.4 383.1Q60 381.4 62.2 380.5Q64.5 379.7 67.2 379.7L67.2 379.7Q70.0 379.7 72.2 380.5Q74.4 381.4 76.0 383.1Q77.5 384.7 78.4 387.0Q79.2 389.4 79.2 392.2L79.2 392.2L79.2 394.3L62.3 394.3L62.3 394.8Q62.3 397.2 63.7 398.6Q65.2 400.1 68.1 400.1L68.1 400.1Q70.3 400.1 71.9 399.3Q73.5 398.4 74.6 397.0L74.6 397.0L78.5 401.2Q77.0 403.0 74.4 404.3Q71.9 405.6 67.9 405.6ZM67.3 384.7L67.3 384.7Q65.0 384.7 63.6 386.2Q62.3 387.6 62.3 390.0L62.3 390.0L62.3 390.4L72.2 390.4L72.2 390.0Q72.2 387.5 70.9 386.1Q69.6 384.7 67.3 384.7ZM96.7 405.6L96.7 405.6Q90.4 405.6 87.2 402.1Q84 398.7 84 392.7L84 392.7Q84 389.7 84.8 387.3Q85.7 384.8 87.2 383.1Q88.8 381.4 91.0 380.5Q93.3 379.7 96.0 379.7L96.0 379.7Q98.8 379.7 101.0 380.5Q103.2 381.4 104.8 383.1Q106.3 384.7 107.2 387.0Q108 389.4 108 392.2L108 392.2L108 394.3L91.1 394.3L91.1 394.8Q91.1 397.2 92.5 398.6Q94.0 400.1 96.9 400.1L96.9 400.1Q99.1 400.1 100.7 399.3Q102.3 398.4 103.4 397.0L103.4 397.0L107.3 401.2Q105.8 403.0 103.2 404.3Q100.7 405.6 96.7 405.6ZM96.1 384.7L96.1 384.7Q93.8 384.7 92.4 386.2Q91.1 387.6 91.1 390.0L91.1 390.0L91.1 390.4L101.0 390.4L101.0 390.0Q101.0 387.5 99.7 386.1Q98.4 384.7 96.1 384.7ZM135.9 405L126.7 405Q122.9 405 121.0 403.0Q119.1 401.0 119.1 397.8L119.1 397.8L119.1 385.8L112.4 385.8L112.4 380.2L116.8 380.2Q118.4 380.2 119.0 379.6Q119.7 379.0 119.7 377.3L119.7 377.3L119.7 371.5L126.2 371.5L126.2 380.2L135.9 380.2L135.9 385.8L126.2 385.8L126.2 399.5L135.9 399.5L135.9 405ZM154.4 405.6L154.4 405.6Q147.6 405.6 144.4 401.0Q141.2 396.5 141.2 388.2L141.2 388.2Q141.2 380.0 144.4 375.5Q147.6 370.9 154.4 370.9L154.4 370.9Q157.0 370.9 159.0 371.6Q160.9 372.3 162.4 373.6Q163.8 374.8 164.8 376.6Q165.7 378.4 166.2 380.6L166.2 380.6L159.5 382.2Q159.2 381 158.8 380.0Q158.4 379.0 157.8 378.3Q157.2 377.5 156.4 377.1Q155.5 376.7 154.2 376.7L154.2 376.7Q151.3 376.7 150.1 379.0Q148.8 381.3 148.8 385.3L148.8 385.3L148.8 391.2Q148.8 395.2 150.1 397.5Q151.3 399.8 154.2 399.8L154.2 399.8Q156.7 399.8 157.8 398.2Q159.0 396.7 159.5 394.3L159.5 394.3L166.2 395.9Q165.7 398.1 164.8 399.9Q163.8 401.7 162.4 403.0Q160.9 404.2 159.0 404.9Q157.0 405.6 154.4 405.6ZM182.4 405.6L182.4 405.6Q179.5 405.6 177.2 404.7Q174.9 403.8 173.3 402.1Q171.7 400.4 170.8 398.0Q170.0 395.6 170.0 392.6L170.0 392.6Q170.0 389.6 170.8 387.2Q171.7 384.8 173.3 383.1Q174.9 381.4 177.2 380.5Q179.5 379.7 182.4 379.7L182.4 379.7Q185.3 379.7 187.6 380.5Q189.9 381.4 191.5 383.1Q193.1 384.8 194.0 387.2Q194.8 389.6 194.8 392.6L194.8 392.6Q194.8 395.6 194.0 398.0Q193.1 400.4 191.5 402.1Q189.9 403.8 187.6 404.7Q185.3 405.6 182.4 405.6ZM182.4 400.3L182.4 400.3Q184.8 400.3 186.1 398.8Q187.5 397.3 187.5 394.6L187.5 394.6L187.5 390.6Q187.5 387.9 186.1 386.4Q184.8 384.9 182.4 384.9L182.4 384.9Q180 384.9 178.7 386.4Q177.3 387.9 177.3 390.6L177.3 390.6L177.3 394.6Q177.3 397.3 178.7 398.8Q180 400.3 182.4 400.3ZM215.7 405L215.7 400.5L215.3 400.5Q214.4 402.7 212.7 404.2Q211.0 405.6 208.0 405.6L208.0 405.6Q205.9 405.6 204.2 404.8Q202.5 404.0 201.3 402.5Q200.1 400.9 199.4 398.4Q198.7 396.0 198.7 392.6L198.7 392.6Q198.7 389.3 199.4 386.8Q200.1 384.4 201.3 382.8Q202.5 381.2 204.2 380.4Q205.9 379.7 208.0 379.7L208.0 379.7Q209.5 379.7 210.6 380.0Q211.8 380.4 212.7 381.1Q213.6 381.8 214.2 382.7Q214.8 383.6 215.3 384.7L215.3 384.7L215.7 384.7L215.7 369.5L222.8 369.5L222.8 405L215.7 405ZM211.1 400.1L211.1 400.1Q212.9 400.1 214.3 399.1Q215.7 398.2 215.7 396.3L215.7 396.3L215.7 389.0Q215.7 387 214.3 386.1Q212.9 385.2 211.1 385.2L211.1 385.2Q208.7 385.2 207.4 386.6Q206.1 388.1 206.1 390.7L206.1 390.7L206.1 394.5Q206.1 397.1 207.4 398.6Q208.7 400.1 211.1 400.1ZM240.7 405.6L240.7 405.6Q234.4 405.6 231.2 402.1Q228 398.7 228 392.7L228 392.7Q228 389.7 228.8 387.3Q229.7 384.8 231.2 383.1Q232.8 381.4 235.0 380.5Q237.3 379.7 240.0 379.7L240.0 379.7Q242.8 379.7 245.0 380.5Q247.2 381.4 248.8 383.1Q250.3 384.7 251.2 387.0Q252 389.4 252 392.2L252 392.2L252 394.3L235.1 394.3L235.1 394.8Q235.1 397.2 236.5 398.6Q238.0 400.1 240.9 400.1L240.9 400.1Q243.1 400.1 244.7 399.3Q246.3 398.4 247.4 397.0L247.4 397.0L251.3 401.2Q249.8 403.0 247.2 404.3Q244.7 405.6 240.7 405.6ZM240.1 384.7L240.1 384.7Q237.8 384.7 236.4 386.2Q235.1 387.6 235.1 390.0L235.1 390.0L235.1 390.4L245.0 390.4L245.0 390.0Q245.0 387.5 243.7 386.1Q242.4 384.7 240.1 384.7Z M305.3 393.8L289.9 393.8L289.9 387.0L305.3 387.0L305.3 393.8Z M368.6 405L345.3 405L345.3 399.2L354.3 399.2L354.3 376.7L353.9 376.7L347.1 385.7L342.5 382.1L350.5 371.5L361.5 371.5L361.5 399.2L368.6 399.2L368.6 405ZM397.4 405L374.1 405L374.1 399.2L383.1 399.2L383.1 376.7L382.7 376.7L375.9 385.7L371.3 382.1L379.3 371.5L390.3 371.5L390.3 399.2L397.4 399.2L397.4 405ZM412.8 405.6L412.8 405.6Q410.1 405.6 408.9 404.4Q407.8 403.2 407.8 401.6L407.8 401.6L407.8 399.9Q407.8 398.3 408.9 397.1Q410.1 395.9 412.8 395.9L412.8 395.9Q415.5 395.9 416.7 397.1Q417.8 398.3 417.8 399.9L417.8 399.9L417.8 401.6Q417.8 403.2 416.7 404.4Q415.5 405.6 412.8 405.6Z M471.2 405.6L471.2 405.6Q464.4 405.6 461.2 401.0Q458.0 396.5 458.0 388.2L458.0 388.2Q458.0 380.0 461.2 375.5Q464.4 370.9 471.2 370.9L471.2 370.9Q473.8 370.9 475.8 371.6Q477.7 372.3 479.2 373.6Q480.6 374.8 481.6 376.6Q482.5 378.4 483.0 380.6L483.0 380.6L476.3 382.2Q476.0 381 475.6 380.0Q475.2 379.0 474.6 378.3Q474.0 377.5 473.2 377.1Q472.3 376.7 471.0 376.7L471.0 376.7Q468.1 376.7 466.9 379.0Q465.6 381.3 465.6 385.3L465.6 385.3L465.6 391.2Q465.6 395.2 466.9 397.5Q468.1 399.8 471.0 399.8L471.0 399.8Q473.5 399.8 474.6 398.2Q475.8 396.7 476.3 394.3L476.3 394.3L483.0 395.9Q482.5 398.1 481.6 399.9Q480.6 401.7 479.2 403.0Q477.7 404.2 475.8 404.9Q473.8 405.6 471.2 405.6ZM499.2 405.6L499.2 405.6Q496.3 405.6 494.0 404.7Q491.7 403.8 490.1 402.1Q488.5 400.4 487.6 398.0Q486.8 395.6 486.8 392.6L486.8 392.6Q486.8 389.6 487.6 387.2Q488.5 384.8 490.1 383.1Q491.7 381.4 494.0 380.5Q496.3 379.7 499.2 379.7L499.2 379.7Q502.1 379.7 504.4 380.5Q506.7 381.4 508.3 383.1Q509.9 384.8 510.8 387.2Q511.6 389.6 511.6 392.6L511.6 392.6Q511.6 395.6 510.8 398.0Q509.9 400.4 508.3 402.1Q506.7 403.8 504.4 404.7Q502.1 405.6 499.2 405.6ZM499.2 400.3L499.2 400.3Q501.6 400.3 502.9 398.8Q504.3 397.3 504.3 394.6L504.3 394.6L504.3 390.6Q504.3 387.9 502.9 386.4Q501.6 384.9 499.2 384.9L499.2 384.9Q496.8 384.9 495.5 386.4Q494.1 387.9 494.1 390.6L494.1 390.6L494.1 394.6Q494.1 397.3 495.5 398.8Q496.8 400.3 499.2 400.3ZM523.8 405L516.7 405L516.7 380.2L523.8 380.2L523.8 384.7L524.1 384.7Q524.5 383.7 525.2 382.8Q525.8 381.9 526.7 381.2Q527.6 380.5 528.7 380.1Q529.9 379.7 531.4 379.7L531.4 379.7Q533.2 379.7 534.7 380.3Q536.2 380.9 537.2 382.1Q538.3 383.3 538.9 385.0Q539.5 386.7 539.5 389.0L539.5 389.0L539.5 405L532.4 405L532.4 389.9Q532.4 385.1 528.2 385.1L528.2 385.1Q527.4 385.1 526.6 385.3Q525.8 385.6 525.2 386.0Q524.5 386.5 524.2 387.1Q523.8 387.8 523.8 388.7L523.8 388.7L523.8 405ZM567.9 405L558.7 405Q554.9 405 553.0 403.0Q551.1 401.0 551.1 397.8L551.1 397.8L551.1 385.8L544.4 385.8L544.4 380.2L548.8 380.2Q550.4 380.2 551.0 379.6Q551.7 379.0 551.7 377.3L551.7 377.3L551.7 371.5L558.2 371.5L558.2 380.2L567.9 380.2L567.9 385.8L558.2 385.8L558.2 399.5L567.9 399.5L567.9 405ZM598.7 405L594.6 405Q592.4 405 591.0 403.9Q589.7 402.7 589.4 400.6L589.4 400.6L589.2 400.6Q588.5 403.1 586.5 404.3Q584.5 405.6 581.7 405.6L581.7 405.6Q578.1 405.6 575.9 403.6Q573.7 401.7 573.7 398.2L573.7 398.2Q573.7 394.3 576.5 392.4Q579.4 390.6 584.8 390.6L584.8 390.6L588.8 390.6L588.8 389.3Q588.8 387.1 587.8 386.0Q586.8 384.8 584.3 384.8L584.3 384.8Q582.0 384.8 580.7 385.7Q579.3 386.6 578.3 388.0L578.3 388.0L574.4 384.5Q575.6 382.4 578.3 381.0Q580.9 379.7 585.1 379.7L585.1 379.7Q590.2 379.7 593.1 382.0Q595.9 384.3 595.9 389.0L595.9 389.0L595.9 399.9L598.7 399.9L598.7 405ZM584.4 400.9L584.4 400.9Q586.2 400.9 587.5 400.0Q588.8 399.1 588.8 397.4L588.8 397.4L588.8 394.4L585.0 394.4Q580.7 394.4 580.7 397.3L580.7 397.3L580.7 398.3Q580.7 399.6 581.7 400.2Q582.7 400.9 584.4 400.9ZM615.9 377.1L615.9 377.1Q613.5 377.1 612.6 376.1Q611.7 375.1 611.7 373.7L611.7 373.7L611.7 372.3Q611.7 370.9 612.6 369.9Q613.5 369.0 615.9 369.0L615.9 369.0Q618.3 369.0 619.3 369.9Q620.2 370.9 620.2 372.3L620.2 372.3L620.2 373.7Q620.2 375.1 619.3 376.1Q618.3 377.1 615.9 377.1ZM604.5 405L604.5 399.5L612.4 399.5L612.4 385.8L604.5 385.8L604.5 380.2L619.5 380.2L619.5 399.5L626.8 399.5L626.8 405L604.5 405ZM639.0 405L631.9 405L631.9 380.2L639.0 380.2L639.0 384.7L639.3 384.7Q639.7 383.7 640.4 382.8Q641.0 381.9 641.9 381.2Q642.8 380.5 643.9 380.1Q645.1 379.7 646.6 379.7L646.6 379.7Q648.4 379.7 649.9 380.3Q651.4 380.9 652.4 382.1Q653.5 383.3 654.1 385.0Q654.7 386.7 654.7 389.0L654.7 389.0L654.7 405L647.6 405L647.6 389.9Q647.6 385.1 643.4 385.1L643.4 385.1Q642.6 385.1 641.8 385.3Q641.0 385.6 640.4 386.0Q639.7 386.5 639.4 387.1Q639.0 387.8 639.0 388.7L639.0 388.7L639.0 405ZM672.7 405.6L672.7 405.6Q666.4 405.6 663.2 402.1Q660.0 398.7 660.0 392.7L660.0 392.7Q660.0 389.7 660.8 387.3Q661.7 384.8 663.2 383.1Q664.8 381.4 667.0 380.5Q669.3 379.7 672.0 379.7L672.0 379.7Q674.8 379.7 677.0 380.5Q679.2 381.4 680.8 383.1Q682.3 384.7 683.2 387.0Q684.0 389.4 684.0 392.2L684.0 392.2L684.0 394.3L667.1 394.3L667.1 394.8Q667.1 397.2 668.5 398.6Q670.0 400.1 672.9 400.1L672.9 400.1Q675.1 400.1 676.7 399.3Q678.3 398.4 679.4 397.0L679.4 397.0L683.3 401.2Q681.8 403.0 679.2 404.3Q676.7 405.6 672.7 405.6ZM672.1 384.7L672.1 384.7Q669.8 384.7 668.4 386.2Q667.1 387.6 667.1 390.0L667.1 390.0L667.1 390.4L677.0 390.4L677.0 390.0Q677.0 387.5 675.7 386.1Q674.4 384.7 672.1 384.7ZM690.0 405L690.0 399.5L695.7 399.5L695.7 385.8L690.0 385.8L690.0 380.2L702.8 380.2L702.8 387.2L703.1 387.2Q703.4 385.9 704.0 384.6Q704.6 383.4 705.6 382.4Q706.5 381.4 707.9 380.8Q709.2 380.2 711.0 380.2L711.0 380.2L713.4 380.2L713.4 386.8L708.1 386.8Q705.5 386.8 704.1 388.3Q702.8 389.9 702.8 392.1L702.8 392.1L702.8 399.5L710.9 399.5L710.9 405L690.0 405Z M755.7 405L746.6 405L744.5 371.5L750.7 371.5L751.7 391.6L752.0 397.9L752.4 397.9L755.3 378.8L761.8 378.8L764.6 397.9L765.1 397.9L765.4 391.8L766.3 371.5L772.3 371.5L770.2 405L761.1 405L758.6 386.5L758.2 386.5L755.7 405ZM788.7 377.1L788.7 377.1Q786.3 377.1 785.4 376.1Q784.5 375.1 784.5 373.7L784.5 373.7L784.5 372.3Q784.5 370.9 785.4 369.9Q786.3 369.0 788.7 369.0L788.7 369.0Q791.1 369.0 792.1 369.9Q793.0 370.9 793.0 372.3L793.0 372.3L793.0 373.7Q793.0 375.1 792.1 376.1Q791.1 377.1 788.7 377.1ZM777.3 405L777.3 399.5L785.2 399.5L785.2 385.8L777.3 385.8L777.3 380.2L792.3 380.2L792.3 399.5L799.6 399.5L799.6 405L777.3 405ZM827.1 405L817.9 405Q814.1 405 812.2 403.0Q810.3 401.0 810.3 397.8L810.3 397.8L810.3 385.8L803.6 385.8L803.6 380.2L808.0 380.2Q809.6 380.2 810.2 379.6Q810.9 379.0 810.9 377.3L810.9 377.3L810.9 371.5L817.4 371.5L817.4 380.2L827.1 380.2L827.1 385.8L817.4 385.8L817.4 399.5L827.1 399.5L827.1 405ZM833.5 405L833.5 369.5L840.6 369.5L840.6 384.7L840.9 384.7Q841.3 383.7 842.0 382.8Q842.6 381.9 843.5 381.2Q844.4 380.5 845.5 380.1Q846.7 379.7 848.2 379.7L848.2 379.7Q850.0 379.7 851.5 380.3Q853.0 380.9 854.0 382.1Q855.1 383.3 855.7 385.0Q856.3 386.7 856.3 389.0L856.3 389.0L856.3 405L849.2 405L849.2 389.9Q849.2 385.1 845.0 385.1L845.0 385.1Q844.2 385.1 843.4 385.3Q842.6 385.6 842.0 386.0Q841.3 386.5 841.0 387.1Q840.6 387.8 840.6 388.7L840.6 388.7L840.6 405L833.5 405Z M908.7 405L908.7 390.1L909.1 380.7L908.6 380.7L902.4 397.9L896.2 380.7L895.7 380.7L896.1 390.1L896.1 405L889.9 405L889.9 371.5L898.4 371.5L902.5 382.8L902.9 382.8L907.0 371.5L914.9 371.5L914.9 405L908.7 405ZM931.2 405.6L931.2 405.6Q928.3 405.6 926.0 404.7Q923.7 403.8 922.1 402.1Q920.5 400.4 919.6 398.0Q918.8 395.6 918.8 392.6L918.8 392.6Q918.8 389.6 919.6 387.2Q920.5 384.8 922.1 383.1Q923.7 381.4 926.0 380.5Q928.3 379.7 931.2 379.7L931.2 379.7Q934.1 379.7 936.4 380.5Q938.7 381.4 940.3 383.1Q941.9 384.8 942.8 387.2Q943.6 389.6 943.6 392.6L943.6 392.6Q943.6 395.6 942.8 398.0Q941.9 400.4 940.3 402.1Q938.7 403.8 936.4 404.7Q934.1 405.6 931.2 405.6ZM931.2 400.3L931.2 400.3Q933.6 400.3 934.9 398.8Q936.3 397.3 936.3 394.6L936.3 394.6L936.3 390.6Q936.3 387.9 934.9 386.4Q933.6 384.9 931.2 384.9L931.2 384.9Q928.8 384.9 927.5 386.4Q926.1 387.9 926.1 390.6L926.1 390.6L926.1 394.6Q926.1 397.3 927.5 398.8Q928.8 400.3 931.2 400.3ZM959.7 405.6L959.7 405.6Q955.6 405.6 952.5 404.3Q949.5 403.1 948.0 400.9L948.0 400.9L951.9 397.2Q953.4 398.8 955.3 399.7Q957.3 400.6 959.8 400.6L959.8 400.6Q961.9 400.6 963.1 399.9Q964.3 399.3 964.3 397.9L964.3 397.9Q964.3 396.9 963.5 396.5Q962.6 396.1 961.2 395.8L961.2 395.8L957.2 395.2Q955.5 395.0 954.1 394.5Q952.7 394.0 951.6 393.1Q950.5 392.2 949.9 391.0Q949.3 389.7 949.3 388.0L949.3 388.0Q949.3 384.1 952.3 381.9Q955.2 379.7 960.6 379.7L960.6 379.7Q964.3 379.7 966.8 380.6Q969.4 381.6 970.9 383.4L970.9 383.4L967.4 387.5Q966.3 386.3 964.6 385.5Q962.8 384.6 960.4 384.6L960.4 384.6Q956.3 384.6 956.3 387.1L956.3 387.1Q956.3 388.2 957.1 388.7Q957.9 389.1 959.3 389.3L959.3 389.3L963.3 389.9Q964.9 390.2 966.4 390.7Q967.8 391.2 968.9 392.0Q970.0 392.9 970.6 394.2Q971.2 395.4 971.2 397.2L971.2 397.2Q971.2 401.1 968.2 403.3Q965.2 405.6 959.7 405.6ZM999.9 405L990.7 405Q986.9 405 985.0 403.0Q983.1 401.0 983.1 397.8L983.1 397.8L983.1 385.8L976.4 385.8L976.4 380.2L980.8 380.2Q982.4 380.2 983.0 379.6Q983.7 379.0 983.7 377.3L983.7 377.3L983.7 371.5L990.2 371.5L990.2 380.2L999.9 380.2L999.9 385.8L990.2 385.8L990.2 399.5L999.9 399.5L999.9 405Z M1043.7 405L1034.6 405L1032.5 371.5L1038.7 371.5L1039.7 391.6L1040.0 397.9L1040.4 397.9L1043.3 378.8L1049.8 378.8L1052.6 397.9L1053.1 397.9L1053.4 391.8L1054.3 371.5L1060.3 371.5L1058.2 405L1049.1 405L1046.6 386.5L1046.2 386.5L1043.7 405ZM1088.3 405L1084.2 405Q1082.0 405 1080.6 403.9Q1079.3 402.7 1079.0 400.6L1079.0 400.6L1078.8 400.6Q1078.1 403.1 1076.1 404.3Q1074.1 405.6 1071.3 405.6L1071.3 405.6Q1067.7 405.6 1065.5 403.6Q1063.3 401.7 1063.3 398.2L1063.3 398.2Q1063.3 394.3 1066.1 392.4Q1069.0 390.6 1074.4 390.6L1074.4 390.6L1078.4 390.6L1078.4 389.3Q1078.4 387.1 1077.4 386.0Q1076.4 384.8 1073.9 384.8L1073.9 384.8Q1071.6 384.8 1070.3 385.7Q1068.9 386.6 1067.9 388.0L1067.9 388.0L1064.0 384.5Q1065.2 382.4 1067.9 381.0Q1070.5 379.7 1074.7 379.7L1074.7 379.7Q1079.8 379.7 1082.7 382.0Q1085.5 384.3 1085.5 389.0L1085.5 389.0L1085.5 399.9L1088.3 399.9L1088.3 405ZM1074.0 400.9L1074.0 400.9Q1075.8 400.9 1077.1 400.0Q1078.4 399.1 1078.4 397.4L1078.4 397.4L1078.4 394.4L1074.6 394.4Q1070.3 394.4 1070.3 397.3L1070.3 397.3L1070.3 398.3Q1070.3 399.6 1071.3 400.2Q1072.3 400.9 1074.0 400.9ZM1115.1 405L1105.9 405Q1102.1 405 1100.2 403.0Q1098.3 401.0 1098.3 397.8L1098.3 397.8L1098.3 385.8L1091.6 385.8L1091.6 380.2L1096.0 380.2Q1097.6 380.2 1098.2 379.6Q1098.9 379.0 1098.9 377.3L1098.9 377.3L1098.9 371.5L1105.4 371.5L1105.4 380.2L1115.1 380.2L1115.1 385.8L1105.4 385.8L1105.4 399.5L1115.1 399.5L1115.1 405ZM1133.5 405.6L1133.5 405.6Q1127.2 405.6 1124.0 402.1Q1120.8 398.7 1120.8 392.7L1120.8 392.7Q1120.8 389.7 1121.6 387.3Q1122.5 384.8 1124.0 383.1Q1125.6 381.4 1127.8 380.5Q1130.1 379.7 1132.8 379.7L1132.8 379.7Q1135.6 379.7 1137.8 380.5Q1140.0 381.4 1141.6 383.1Q1143.1 384.7 1144.0 387.0Q1144.8 389.4 1144.8 392.2L1144.8 392.2L1144.8 394.3L1127.9 394.3L1127.9 394.8Q1127.9 397.2 1129.3 398.6Q1130.8 400.1 1133.7 400.1L1133.7 400.1Q1135.9 400.1 1137.5 399.3Q1139.1 398.4 1140.2 397.0L1140.2 397.0L1144.1 401.2Q1142.6 403.0 1140.0 404.3Q1137.5 405.6 1133.5 405.6ZM1132.9 384.7L1132.9 384.7Q1130.6 384.7 1129.2 386.2Q1127.9 387.6 1127.9 390.0L1127.9 390.0L1127.9 390.4L1137.8 390.4L1137.8 390.0Q1137.8 387.5 1136.5 386.1Q1135.2 384.7 1132.9 384.7ZM1150.8 405L1150.8 399.5L1156.5 399.5L1156.5 385.8L1150.8 385.8L1150.8 380.2L1163.6 380.2L1163.6 387.2L1163.9 387.2Q1164.2 385.9 1164.8 384.6Q1165.4 383.4 1166.4 382.4Q1167.3 381.4 1168.7 380.8Q1170.0 380.2 1171.8 380.2L1171.8 380.2L1174.2 380.2L1174.2 386.8L1168.9 386.8Q1166.3 386.8 1164.9 388.3Q1163.6 389.9 1163.6 392.1L1163.6 392.1L1163.6 399.5L1171.7 399.5L1171.7 405L1150.8 405Z "/></g></svg>