<svg width="1200" height="630" viewBox="0 0 1200 630" xmlns="http://www.w3.org/2000/svg"><defs><pattern id="satori_pattern_id_1" x="0" y="0" width="0.08333333333333333" height="0.15873015873015872" patternUnits="objectBoundingBox"><radialGradient id="satori_radial_id_1" spreadMethod="pad"><stop offset="0" stop-color="lightgray"/><stop offset="0.03" stop-color="lightgray"/><stop offset="0" stop-color="transparent"/><stop offset="1" stop-color="transparent"/></radialGradient><mask id="satori_mask_id_1"><rect x="0" y="0" width="100" height="100" fill="#fff"/></mask><rect x="0" y="0" width="100" height="100" fill="transparent"/><circle cx="75" cy="75" width="100" height="100" r="106.06601717798213" fill="url(#satori_radial_id_1)" mask="url(#satori_mask_id_1)"/></pattern><pattern id="satori_pattern_id_0" x="0" y="0" width="0.08333333333333333" height="0.15873015873015872" patternUnits="objectBoundingBox"><radialGradient id="satori_radial_id_0" spreadMethod="pad"><stop offset="0" stop-color="lightgray"/><stop offset="0.03" stop-color="lightgray"/><stop offset="0" stop-color="transparent"/><stop offset="1" stop-color="transparent"/></radialGradient><mask id="satori_mask_id_0"><rect x="0" y="0" width="100" height="100" fill="#fff"/></mask><rect x="0" y="0" width="100" height="100" fill="transparent"/><circle cx="25" cy="25" width="100" height="100" r="106.06601717798213" fill="url(#satori_radial_id_0)" mask="url(#satori_mask_id_0)"/></pattern></defs><mask id="satori_om-id"><rect x="0" y="0" width="1200" height="630" fill="#fff"/></mask><rect x="0" y="0" width="1200" height="630" fill="white"/><rect x="0" y="0" width="1200" height="630" fill="url(#satori_pattern_id_1)"/><rect x="0" y="0" width="1200" height="630" fill="url(#satori_pattern_id_0)"/><mask id="satori_om-id-0"><rect x="0" y="182" width="1200" height="267" fill="#fff"/></mask><mask id="satori_om-id-0-0"><rect x="476" y="182" width="248" height="47" fill="#fff"/></mask><mask id="satori_om-id-0-0-0"><rect x="476" y="198" width="16" height="16" fill="#fff"/></mask><rect x="476" y="198" width="16" height="16" fill="black"/><mask id="satori_om-id-0-0-1"><rect x="508" y="182" width="216" height="47" fill="#fff"/></mask><g  ><path fill="black" d="M511.7 226.2L511.7 223.8L520.7 223.8L520.7 202.9L511.3 202.9L511.3 200.4L523.6 200.4L523.6 222.0Q523.6 223.8 522.6 225.0Q521.6 226.2 519.4 226.2L519.4 226.2L511.7 226.2ZM522.1 196.3L522.1 196.3Q520.9 196.3 520.3 195.8Q519.8 195.3 519.8 194.5L519.8 194.5L519.8 193.9Q519.8 193.1 520.3 192.6Q520.9 192.1 522.1 192.1L522.1 192.1Q523.4 192.1 523.9 192.6Q524.4 193.1 524.4 193.9L524.4 193.9L524.4 194.5Q524.4 195.3 523.9 195.8Q523.4 196.3 522.1 196.3ZM549.4 219L547.4 219Q545.7 219 545.0 218.1Q544.3 217.3 544.1 216.0L544.1 216.0L543.9 216.0Q543.3 217.6 542.0 218.5Q540.6 219.4 538.3 219.4L538.3 219.4Q535.4 219.4 533.7 217.9Q532.0 216.4 532.0 213.8L532.0 213.8Q532.0 211.2 533.9 209.8Q535.8 208.4 540.0 208.4L540.0 208.4L543.9 208.4L543.9 206.5Q543.9 204.5 542.8 203.5Q541.6 202.4 539.5 202.4L539.5 202.4Q537.6 202.4 536.4 203.2Q535.3 203.9 534.5 205.2L534.5 205.2L532.6 203.7Q532.9 203.0 533.6 202.3Q534.2 201.6 535.1 201.1Q536.0 200.6 537.1 200.3Q538.3 200.0 539.7 200.0L539.7 200.0Q543.0 200.0 544.9 201.6Q546.8 203.3 546.8 206.3L546.8 206.3L546.8 216.5L549.4 216.5L549.4 219ZM538.9 217.0L538.9 217.0Q540.0 217.0 540.9 216.8Q541.8 216.5 542.5 216.0Q543.2 215.6 543.6 214.9Q543.9 214.3 543.9 213.6L543.9 213.6L543.9 210.5L540.0 210.5Q537.4 210.5 536.2 211.3Q535 212.0 535 213.3L535 213.3L535 214.1Q535 215.5 536.0 216.3Q537.1 217.0 538.9 217.0ZM562.3 219.4L562.3 219.4Q560.3 219.4 558.7 218.7Q557.1 218.1 556.0 216.8Q554.8 215.5 554.2 213.7Q553.6 211.9 553.6 209.7L553.6 209.7Q553.6 207.5 554.2 205.7Q554.9 203.9 556.0 202.6Q557.1 201.4 558.7 200.7Q560.2 200.0 562.1 200.0L562.1 200.0Q564.0 200.0 565.5 200.7Q567.1 201.4 568.2 202.6Q569.2 203.8 569.8 205.4Q570.4 207.1 570.4 209.1L570.4 209.1L570.4 210.4L556.6 210.4L556.6 211.3Q556.6 212.5 557.0 213.6Q557.4 214.6 558.2 215.4Q558.9 216.1 560.0 216.5Q561.0 216.9 562.3 216.9L562.3 216.9Q564.2 216.9 565.6 216.1Q566.9 215.2 567.7 213.7L567.7 213.7L569.8 215.1Q568.9 217.0 567.0 218.2Q565.1 219.4 562.3 219.4ZM562.1 202.4L562.1 202.4Q561.0 202.4 559.9 202.8Q558.9 203.2 558.2 204.0Q557.5 204.7 557.1 205.8Q556.6 206.8 556.6 208.0L556.6 208.0L556.6 208.3L567.3 208.3L567.3 207.9Q567.3 206.7 566.9 205.6Q566.5 204.6 565.9 203.9Q565.2 203.2 564.3 202.8Q563.3 202.4 562.1 202.4ZM576.3 219L576.3 192.4L579.2 192.4L579.2 203.4L579.4 203.4Q579.6 202.8 580.1 202.1Q580.5 201.5 581.1 201.0Q581.8 200.6 582.6 200.3Q583.5 200.0 584.6 200.0L584.6 200.0Q587.6 200.0 589.3 201.8Q591.1 203.7 591.1 207.1L591.1 207.1L591.1 219L588.2 219L588.2 207.6Q588.2 205.0 587.1 203.8Q586.0 202.5 583.8 202.5L583.8 202.5Q583.0 202.5 582.1 202.8Q581.3 203.0 580.6 203.4Q580.0 203.8 579.6 204.5Q579.2 205.2 579.2 206.1L579.2 206.1L579.2 219L576.3 219ZM605.5 219.4L605.5 219.4Q603.5 219.4 601.9 218.7Q600.3 218.1 599.2 216.8Q598.0 215.5 597.4 213.7Q596.8 211.9 596.8 209.7L596.8 209.7Q596.8 207.5 597.4 205.7Q598.1 203.9 599.2 202.6Q600.3 201.4 601.9 200.7Q603.4 200.0 605.3 200.0L605.3 200.0Q607.2 200.0 608.7 200.7Q610.3 201.4 611.4 202.6Q612.4 203.8 613.0 205.4Q613.6 207.1 613.6 209.1L613.6 209.1L613.6 210.4L599.8 210.4L599.8 211.3Q599.8 212.5 600.2 213.6Q600.6 214.6 601.4 215.4Q602.1 216.1 603.2 216.5Q604.2 216.9 605.5 216.9L605.5 216.9Q607.4 216.9 608.8 216.1Q610.1 215.2 610.9 213.7L610.9 213.7L613.0 215.1Q612.1 217.0 610.2 218.2Q608.3 219.4 605.5 219.4ZM605.3 202.4L605.3 202.4Q604.2 202.4 603.1 202.8Q602.1 203.2 601.4 204.0Q600.7 204.7 600.3 205.8Q599.8 206.8 599.8 208.0L599.8 208.0L599.8 208.3L610.5 208.3L610.5 207.9Q610.5 206.7 610.1 205.6Q609.7 204.6 609.1 203.9Q608.4 203.2 607.5 202.8Q606.5 202.4 605.3 202.4ZM627.1 219.4L627.1 219.4Q625.1 219.4 623.5 218.7Q621.9 218.1 620.8 216.8Q619.6 215.5 619.0 213.7Q618.4 211.9 618.4 209.7L618.4 209.7Q618.4 207.5 619.0 205.7Q619.7 203.9 620.8 202.6Q621.9 201.4 623.5 200.7Q625.0 200.0 626.9 200.0L626.9 200.0Q628.8 200.0 630.3 200.7Q631.9 201.4 633.0 202.6Q634.0 203.8 634.6 205.4Q635.2 207.1 635.2 209.1L635.2 209.1L635.2 210.4L621.4 210.4L621.4 211.3Q621.4 212.5 621.8 213.6Q622.2 214.6 623.0 215.4Q623.7 216.1 624.8 216.5Q625.8 216.9 627.1 216.9L627.1 216.9Q629.0 216.9 630.4 216.1Q631.7 215.2 632.5 213.7L632.5 213.7L634.6 215.1Q633.7 217.0 631.8 218.2Q629.9 219.4 627.1 219.4ZM626.9 202.4L626.9 202.4Q625.8 202.4 624.7 202.8Q623.7 203.2 623.0 204.0Q622.3 204.7 621.9 205.8Q621.4 206.8 621.4 208.0L621.4 208.0L621.4 208.3L632.1 208.3L632.1 207.9Q632.1 206.7 631.7 205.6Q631.3 204.6 630.7 203.9Q630.0 203.2 629.1 202.8Q628.1 202.4 626.9 202.4ZM648.4 219.3L648.4 219.3Q646.9 219.3 646.3 218.7Q645.7 218.1 645.7 217.2L645.7 217.2L645.7 216.5Q645.7 215.6 646.3 215.0Q646.9 214.4 648.4 214.4L648.4 214.4Q649.9 214.4 650.5 215.0Q651.1 215.6 651.1 216.5L651.1 216.5L651.1 217.2Q651.1 218.1 650.5 218.7Q649.9 219.3 648.4 219.3ZM674.5 219L674.5 216.0L674.4 216.0Q672.6 219.4 668.6 219.4L668.6 219.4Q665.2 219.4 663.3 216.9Q661.4 214.3 661.4 209.7L661.4 209.7Q661.4 205.1 663.3 202.5Q665.2 200.0 668.6 200.0L668.6 200.0Q672.6 200.0 674.4 203.4L674.4 203.4L674.5 203.4L674.5 192.4L677.4 192.4L677.4 219L674.5 219ZM669.7 216.9L669.7 216.9Q670.7 216.9 671.6 216.6Q672.4 216.4 673.1 215.9Q673.7 215.4 674.1 214.7Q674.5 214.0 674.5 213.1L674.5 213.1L674.5 206.4Q674.5 205.4 674.1 204.7Q673.7 204.0 673.1 203.5Q672.4 203.1 671.6 202.8Q670.7 202.5 669.7 202.5L669.7 202.5Q667.2 202.5 665.8 204.1Q664.5 205.6 664.5 208.1L664.5 208.1L664.5 211.3Q664.5 213.8 665.8 215.3Q667.2 216.9 669.7 216.9ZM691.9 219.4L691.9 219.4Q689.9 219.4 688.3 218.7Q686.7 218.1 685.6 216.8Q684.4 215.5 683.8 213.7Q683.2 211.9 683.2 209.7L683.2 209.7Q683.2 207.5 683.8 205.7Q684.5 203.9 685.6 202.6Q686.7 201.4 688.3 200.7Q689.8 200.0 691.7 200.0L691.7 200.0Q693.6 200.0 695.1 200.7Q696.7 201.4 697.8 202.6Q698.8 203.8 699.4 205.4Q700.0 207.1 700.0 209.1L700.0 209.1L700.0 210.4L686.2 210.4L686.2 211.3Q686.2 212.5 686.6 213.6Q687.0 214.6 687.8 215.4Q688.5 216.1 689.6 216.5Q690.6 216.9 691.9 216.9L691.9 216.9Q693.8 216.9 695.2 216.1Q696.5 215.2 697.3 213.7L697.3 213.7L699.4 215.1Q698.5 217.0 696.6 218.2Q694.7 219.4 691.9 219.4ZM691.7 202.4L691.7 202.4Q690.6 202.4 689.5 202.8Q688.5 203.2 687.8 204.0Q687.1 204.7 686.7 205.8Q686.2 206.8 686.2 208.0L686.2 208.0L686.2 208.3L696.9 208.3L696.9 207.9Q696.9 206.7 696.5 205.6Q696.1 204.6 695.5 203.9Q694.8 203.2 693.9 202.8Q692.9 202.4 691.7 202.4ZM715.0 219L711.4 219L704.7 200.4L707.6 200.4L710.3 208.2L713.2 216.6L713.3 216.6L716.2 208.2L718.9 200.4L721.7 200.4L715.0 219Z "/></g><mask id="satori_om-id-0-1"><rect x="0" y="325" width="1200" height="124" fill="#fff"/></mask><g  ><path fill="black" d="M64.1 374L42.4 374L42.4 340.5L49.7 340.5L49.7 368.1L64.1 368.1L64.1 374ZM81.9 374.6L81.9 374.6Q75.6 374.6 72.4 371.1Q69.2 367.7 69.2 361.7L69.2 361.7Q69.2 358.7 70.0 356.3Q70.9 353.8 72.4 352.1Q74 350.4 76.2 349.5Q78.5 348.7 81.2 348.7L81.2 348.7Q84.0 348.7 86.2 349.5Q88.4 350.4 90.0 352.1Q91.5 353.7 92.4 356.0Q93.2 358.4 93.2 361.2L93.2 361.2L93.2 363.3L76.3 363.3L76.3 363.8Q76.3 366.2 77.7 367.6Q79.2 369.1 82.1 369.1L82.1 369.1Q84.3 369.1 85.9 368.3Q87.5 367.4 88.6 366.0L88.6 366.0L92.5 370.2Q91.0 372.0 88.4 373.3Q85.9 374.6 81.9 374.6ZM81.3 353.7L81.3 353.7Q79.0 353.7 77.6 355.2Q76.3 356.6 76.3 359.0L76.3 359.0L76.3 359.4L86.2 359.4L86.2 359.0Q86.2 356.5 84.9 355.1Q83.6 353.7 81.3 353.7ZM110.7 374.6L110.7 374.6Q104.4 374.6 101.2 371.1Q98 367.7 98 361.7L98 361.7Q98 358.7 98.8 356.3Q99.7 353.8 101.2 352.1Q102.8 350.4 105.0 349.5Q107.3 348.7 110.0 348.7L110.0 348.7Q112.8 348.7 115.0 349.5Q117.2 350.4 118.8 352.1Q120.3 353.7 121.2 356.0Q122 358.4 122 361.2L122 361.2L122 363.3L105.1 363.3L105.1 363.8Q105.1 366.2 106.5 367.6Q108.0 369.1 110.9 369.1L110.9 369.1Q113.1 369.1 114.7 368.3Q116.3 367.4 117.4 366.0L117.4 366.0L121.3 370.2Q119.8 372.0 117.2 373.3Q114.7 374.6 110.7 374.6ZM110.1 353.7L110.1 353.7Q107.8 353.7 106.4 355.2Q105.1 356.6 105.1 359.0L105.1 359.0L105.1 359.4L115.0 359.4L115.0 359.0Q115.0 356.5 113.7 355.1Q112.4 353.7 110.1 353.7ZM149.9 374L140.7 374Q136.9 374 135.0 372.0Q133.1 370.0 133.1 366.8L133.1 366.8L133.1 354.8L126.4 354.8L126.4 349.2L130.8 349.2Q132.4 349.2 133.0 348.6Q133.7 348.0 133.7 346.3L133.7 346.3L133.7 340.5L140.2 340.5L140.2 349.2L149.9 349.2L149.9 354.8L140.2 354.8L140.2 368.5L149.9 368.5L149.9 374ZM168.4 374.6L168.4 374.6Q161.6 374.6 158.4 370.0Q155.2 365.5 155.2 357.2L155.2 357.2Q155.2 349.0 158.4 344.5Q161.6 339.9 168.4 339.9L168.4 339.9Q171.0 339.9 173.0 340.6Q174.9 341.3 176.4 342.6Q177.8 343.8 178.8 345.6Q179.7 347.4 180.2 349.6L180.2 349.6L173.5 351.2Q173.2 350 172.8 349.0Q172.4 348.0 171.8 347.3Q171.2 346.5 170.4 346.1Q169.5 345.7 168.2 345.7L168.2 345.7Q165.3 345.7 164.1 348.0Q162.8 350.3 162.8 354.3L162.8 354.3L162.8 360.2Q162.8 364.2 164.1 366.5Q165.3 368.8 168.2 368.8L168.2 368.8Q170.7 368.8 171.8 367.2Q173.0 365.7 173.5 363.3L173.5 363.3L180.2 364.9Q179.7 367.1 178.8 368.9Q177.8 370.7 176.4 372.0Q174.9 373.2 173.0 373.9Q171.0 374.6 168.4 374.6ZM196.4 374.6L196.4 374.6Q193.5 374.6 191.2 373.7Q188.9 372.8 187.3 371.1Q185.7 369.4 184.8 367.0Q184.0 364.6 184.0 361.6L184.0 361.6Q184.0 358.6 184.8 356.2Q185.7 353.8 187.3 352.1Q188.9 350.4 191.2 349.5Q193.5 348.7 196.4 348.7L196.4 348.7Q199.3 348.7 201.6 349.5Q203.9 350.4 205.5 352.1Q207.1 353.8 208.0 356.2Q208.8 358.6 208.8 361.6L208.8 361.6Q208.8 364.6 208.0 367.0Q207.1 369.4 205.5 371.1Q203.9 372.8 201.6 373.7Q199.3 374.6 196.4 374.6ZM196.4 369.3L196.4 369.3Q198.8 369.3 200.1 367.8Q201.5 366.3 201.5 363.6L201.5 363.6L201.5 359.6Q201.5 356.9 200.1 355.4Q198.8 353.9 196.4 353.9L196.4 353.9Q194 353.9 192.7 355.4Q191.3 356.9 191.3 359.6L191.3 359.6L191.3 363.6Q191.3 366.3 192.7 367.8Q194 369.3 196.4 369.3ZM229.7 374L229.7 369.5L229.3 369.5Q228.4 371.7 226.7 373.2Q225.0 374.6 222.0 374.6L222.0 374.6Q219.9 374.6 218.2 373.8Q216.5 373.0 215.3 371.5Q214.1 369.9 213.4 367.4Q212.7 365.0 212.7 361.6L212.7 361.6Q212.7 358.3 213.4 355.8Q214.1 353.4 215.3 351.8Q216.5 350.2 218.2 349.4Q219.9 348.7 222.0 348.7L222.0 348.7Q223.5 348.7 224.6 349.0Q225.8 349.4 226.7 350.1Q227.6 350.8 228.2 351.7Q228.8 352.6 229.3 353.7L229.3 353.7L229.7 353.7L229.7 338.5L236.8 338.5L236.8 374L229.7 374ZM225.1 369.1L225.1 369.1Q226.9 369.1 228.3 368.1Q229.7 367.2 229.7 365.3L229.7 365.3L229.7 358.0Q229.7 356 228.3 355.1Q226.9 354.2 225.1 354.2L225.1 354.2Q222.7 354.2 221.4 355.6Q220.1 357.1 220.1 359.7L220.1 359.7L220.1 363.5Q220.1 366.1 221.4 367.6Q222.7 369.1 225.1 369.1ZM254.7 374.6L254.7 374.6Q248.4 374.6 245.2 371.1Q242 367.7 242 361.7L242 361.7Q242 358.7 242.8 356.3Q243.7 353.8 245.2 352.1Q246.8 350.4 249.0 349.5Q251.3 348.7 254.0 348.7L254.0 348.7Q256.8 348.7 259.0 349.5Q261.2 350.4 262.8 352.1Q264.3 353.7 265.2 356.0Q266 358.4 266 361.2L266 361.2L266 363.3L249.1 363.3L249.1 363.8Q249.1 366.2 250.5 367.6Q252.0 369.1 254.9 369.1L254.9 369.1Q257.1 369.1 258.7 368.3Q260.3 367.4 261.4 366.0L261.4 366.0L265.3 370.2Q263.8 372.0 261.2 373.3Q258.7 374.6 254.7 374.6ZM254.1 353.7L254.1 353.7Q251.8 353.7 250.4 355.2Q249.1 356.6 249.1 359.0L249.1 359.0L249.1 359.4L259.0 359.4L259.0 359.0Q259.0 356.5 257.7 355.1Q256.4 353.7 254.1 353.7Z M320.1 362.8L304.7 362.8L304.7 356.0L320.1 356.0L320.1 362.8Z M364.9 353.7L368.1 353.7Q370.9 353.7 372.2 352.7Q373.4 351.6 373.4 350.1L373.4 350.1L373.4 349.8Q373.4 347.9 372.2 346.9Q371.0 345.8 368.7 345.8L368.7 345.8Q366.7 345.8 364.9 346.8Q363.1 347.8 361.8 349.8L361.8 349.8L357.3 345.5Q358.2 344.3 359.4 343.3Q360.5 342.2 361.9 341.5Q363.3 340.7 365.1 340.3Q366.8 339.9 369.0 339.9L369.0 339.9Q371.8 339.9 374.0 340.5Q376.2 341.2 377.7 342.3Q379.3 343.5 380.2 345.2Q381.0 346.8 381.0 348.8L381.0 348.8Q381.0 350.4 380.5 351.7Q380.0 353.0 379.1 353.9Q378.2 354.9 377.0 355.5Q375.8 356.1 374.5 356.3L374.5 356.3L374.5 356.6Q377.6 357.2 379.6 359.2Q381.6 361.2 381.6 364.7L381.6 364.7Q381.6 366.9 380.7 368.8Q379.8 370.6 378.1 371.9Q376.4 373.2 373.9 373.9Q371.5 374.6 368.5 374.6L368.5 374.6Q366.0 374.6 364.0 374.0Q362.1 373.5 360.6 372.6Q359.1 371.7 358.0 370.6Q357.0 369.4 356.2 368.1L356.2 368.1L361.5 364.0Q362.6 366.1 364.2 367.4Q365.9 368.7 368.7 368.7L368.7 368.7Q371.3 368.7 372.7 367.5Q374.1 366.3 374.1 364.2L374.1 364.2L374.1 363.9Q374.1 361.8 372.5 360.8Q370.9 359.7 368.1 359.7L368.1 359.7L364.9 359.7L364.9 353.7ZM398.2 374.6L398.2 374.6Q395.5 374.6 394.3 373.4Q393.2 372.2 393.2 370.6L393.2 370.6L393.2 368.9Q393.2 367.3 394.3 366.1Q395.5 364.9 398.2 364.9L398.2 364.9Q400.9 364.9 402.1 366.1Q403.2 367.3 403.2 368.9L403.2 368.9L403.2 370.6Q403.2 372.2 402.1 373.4Q400.9 374.6 398.2 374.6Z M468.1 374L446.4 374L446.4 340.5L453.7 340.5L453.7 368.1L468.1 368.1L468.1 374ZM485.2 374.6L485.2 374.6Q482.3 374.6 480.0 373.7Q477.7 372.8 476.1 371.1Q474.5 369.4 473.6 367.0Q472.8 364.6 472.8 361.6L472.8 361.6Q472.8 358.6 473.6 356.2Q474.5 353.8 476.1 352.1Q477.7 350.4 480.0 349.5Q482.3 348.7 485.2 348.7L485.2 348.7Q488.1 348.7 490.4 349.5Q492.7 350.4 494.3 352.1Q495.9 353.8 496.8 356.2Q497.6 358.6 497.6 361.6L497.6 361.6Q497.6 364.6 496.8 367.0Q495.9 369.4 494.3 371.1Q492.7 372.8 490.4 373.7Q488.1 374.6 485.2 374.6ZM485.2 369.3L485.2 369.3Q487.6 369.3 488.9 367.8Q490.3 366.3 490.3 363.6L490.3 363.6L490.3 359.6Q490.3 356.9 488.9 355.4Q487.6 353.9 485.2 353.9L485.2 353.9Q482.8 353.9 481.5 355.4Q480.1 356.9 480.1 359.6L480.1 359.6L480.1 363.6Q480.1 366.3 481.5 367.8Q482.8 369.3 485.2 369.3ZM509.8 374L502.7 374L502.7 349.2L509.8 349.2L509.8 353.7L510.1 353.7Q510.5 352.7 511.2 351.8Q511.8 350.9 512.7 350.2Q513.6 349.5 514.7 349.1Q515.9 348.7 517.4 348.7L517.4 348.7Q519.2 348.7 520.7 349.3Q522.2 349.9 523.2 351.1Q524.3 352.3 524.9 354.0Q525.5 355.7 525.5 358.0L525.5 358.0L525.5 374L518.4 374L518.4 358.9Q518.4 354.1 514.2 354.1L514.2 354.1Q513.4 354.1 512.6 354.3Q511.8 354.6 511.2 355.0Q510.5 355.5 510.2 356.1Q509.8 356.8 509.8 357.7L509.8 357.7L509.8 374ZM556.4 376.5L556.4 376.5Q556.4 380.4 553.1 382.3Q549.8 384.2 542.7 384.2L542.7 384.2Q539.1 384.2 536.8 383.8Q534.5 383.4 533.1 382.6Q531.8 381.8 531.2 380.8Q530.7 379.7 530.7 378.5L530.7 378.5Q530.7 376.4 531.9 375.3Q533.2 374.2 535.4 373.6L535.4 373.6L535.4 373.3Q533.8 372.8 532.9 372.0Q532.0 371.1 532.0 369.4L532.0 369.4Q532.0 367.6 533.2 366.8Q534.4 365.9 536.4 365.4L536.4 365.4L536.4 365.1Q534.2 364.1 533.0 362.1Q531.8 360.2 531.8 357.5L531.8 357.5Q531.8 355.3 532.5 353.7Q533.3 352.0 534.7 350.9Q536.1 349.8 538.1 349.2Q540.1 348.7 542.5 348.7L542.5 348.7Q544.9 348.7 546.9 349.2L546.9 349.2L546.9 347.8Q546.9 346.4 547.9 345.4Q548.9 344.5 550.7 344.5L550.7 344.5L555.0 344.5L555.0 349.7L549.1 349.7L549.1 350.1Q551.1 351.2 552.2 353Q553.4 354.8 553.4 357.5L553.4 357.5Q553.4 359.6 552.6 361.3Q551.8 362.9 550.4 364.0Q548.9 365.2 547.0 365.7Q545.0 366.3 542.5 366.3L542.5 366.3Q541.4 366.3 540.4 366.2Q539.4 366.1 538.5 365.8L538.5 365.8Q538.0 366.1 537.6 366.6Q537.2 367.0 537.2 367.7L537.2 367.7Q537.2 368.2 537.5 368.6Q537.8 368.9 538.3 369.1Q538.8 369.2 539.5 369.3Q540.2 369.3 540.9 369.3L540.9 369.3L546.5 369.3Q549.2 369.3 551.1 369.9Q552.9 370.4 554.1 371.4Q555.3 372.3 555.9 373.6Q556.4 374.9 556.4 376.5ZM549.7 377.0L549.7 377.0Q549.7 376.1 548.9 375.5Q548.1 375.0 546.0 375.0L546.0 375.0L537.5 375.0Q536.5 375.8 536.5 377.0L536.5 377.0Q536.5 378.1 537.5 378.9Q538.5 379.6 540.8 379.6L540.8 379.6L545.0 379.6Q547.5 379.6 548.6 378.9Q549.7 378.3 549.7 377.0ZM542.5 361.8L542.5 361.8Q544.7 361.8 545.7 360.8Q546.6 359.7 546.6 358.1L546.6 358.1L546.6 356.9Q546.6 355.3 545.7 354.2Q544.7 353.2 542.5 353.2L542.5 353.2Q540.4 353.2 539.4 354.2Q538.5 355.3 538.5 356.9L538.5 356.9L538.5 358.1Q538.5 359.7 539.4 360.8Q540.4 361.8 542.5 361.8ZM572.3 374.6L572.3 374.6Q566.0 374.6 562.8 371.1Q559.6 367.7 559.6 361.7L559.6 361.7Q559.6 358.7 560.4 356.3Q561.3 353.8 562.8 352.1Q564.4 350.4 566.6 349.5Q568.9 348.7 571.6 348.7L571.6 348.7Q574.4 348.7 576.6 349.5Q578.8 350.4 580.4 352.1Q581.9 353.7 582.8 356.0Q583.6 358.4 583.6 361.2L583.6 361.2L583.6 363.3L566.7 363.3L566.7 363.8Q566.7 366.2 568.1 367.6Q569.6 369.1 572.5 369.1L572.5 369.1Q574.7 369.1 576.3 368.3Q577.9 367.4 579.0 366.0L579.0 366.0L582.9 370.2Q581.4 372.0 578.8 373.3Q576.3 374.6 572.3 374.6ZM571.7 353.7L571.7 353.7Q569.4 353.7 568.0 355.2Q566.7 356.6 566.7 359.0L566.7 359.0L566.7 359.4L576.6 359.4L576.6 359.0Q576.6 356.5 575.3 355.1Q574.0 353.7 571.7 353.7ZM600.1 374.6L600.1 374.6Q596.0 374.6 592.9 373.3Q589.9 372.1 588.4 369.9L588.4 369.9L592.3 366.2Q593.8 367.8 595.7 368.7Q597.7 369.6 600.2 369.6L600.2 369.6Q602.3 369.6 603.5 368.9Q604.7 368.3 604.7 366.9L604.7 366.9Q604.7 365.9 603.9 365.5Q603.0 365.1 601.6 364.8L601.6 364.8L597.6 364.2Q595.9 364.0 594.5 363.5Q593.1 363.0 592.0 362.1Q590.9 361.2 590.3 360.0Q589.7 358.7 589.7 357.0L589.7 357.0Q589.7 353.1 592.7 350.9Q595.6 348.7 601.0 348.7L601.0 348.7Q604.7 348.7 607.2 349.6Q609.8 350.6 611.3 352.4L611.3 352.4L607.8 356.5Q606.7 355.3 605.0 354.5Q603.2 353.6 600.8 353.6L600.8 353.6Q596.7 353.6 596.7 356.1L596.7 356.1Q596.7 357.2 597.5 357.7Q598.3 358.1 599.7 358.3L599.7 358.3L603.7 358.9Q605.3 359.2 606.8 359.7Q608.2 360.2 609.3 361.0Q610.4 361.9 611.0 363.2Q611.6 364.4 611.6 366.2L611.6 366.2Q611.6 370.1 608.6 372.3Q605.6 374.6 600.1 374.6ZM640.3 374L631.1 374Q627.3 374 625.4 372.0Q623.5 370.0 623.5 366.8L623.5 366.8L623.5 354.8L616.8 354.8L616.8 349.2L621.2 349.2Q622.8 349.2 623.4 348.6Q624.1 348.0 624.1 346.3L624.1 346.3L624.1 340.5L630.6 340.5L630.6 349.2L640.3 349.2L640.3 354.8L630.6 354.8L630.6 368.5L640.3 368.5L640.3 374Z M685.9 374.6L685.9 374.6Q681.6 374.6 678.5 373.2Q675.4 371.8 673.5 369.4L673.5 369.4L677.7 364.8Q679.5 366.8 681.7 367.8Q683.9 368.7 686.1 368.7L686.1 368.7Q688.7 368.7 690.0 367.6Q691.4 366.4 691.4 364.3L691.4 364.3Q691.4 362.5 690.4 361.6Q689.3 360.7 686.9 360.3L686.9 360.3L683.4 359.7Q678.9 358.9 676.8 356.4Q674.8 353.8 674.8 350.1L674.8 350.1Q674.8 345.2 678 342.6Q681.2 339.9 686.9 339.9L686.9 339.9Q690.8 339.9 693.6 341.1Q696.5 342.3 698.3 344.4L698.3 344.4L694.2 348.9Q692.9 347.5 691.1 346.6Q689.2 345.8 686.9 345.8L686.9 345.8Q682.1 345.8 682.1 349.8L682.1 349.8Q682.1 351.5 683.2 352.4Q684.2 353.2 686.7 353.6L686.7 353.6L690.2 354.3Q694.3 355.0 696.5 357.3Q698.7 359.7 698.7 363.7L698.7 363.7Q698.7 366.0 697.9 368.0Q697.1 370.0 695.4 371.5Q693.8 372.9 691.4 373.8Q689.0 374.6 685.9 374.6ZM719.4 374L719.4 369.5L719.1 369.5Q718.3 371.6 716.5 373.1Q714.8 374.6 711.8 374.6L711.8 374.6Q710.0 374.6 708.5 374.0Q707.0 373.4 706.0 372.2Q704.9 371.0 704.3 369.2Q703.7 367.5 703.7 365.3L703.7 365.3L703.7 349.2L710.8 349.2L710.8 364.3Q710.8 369.1 715.0 369.1L715.0 369.1Q715.8 369.1 716.6 368.9Q717.4 368.7 718.0 368.2Q718.6 367.8 719.0 367.1Q719.4 366.4 719.4 365.5L719.4 365.5L719.4 349.2L726.5 349.2L726.5 374L719.4 374ZM732.4 374L732.4 338.5L739.5 338.5L739.5 353.7L739.9 353.7Q740.8 351.5 742.5 350.1Q744.2 348.7 747.2 348.7L747.2 348.7Q749.3 348.7 751.0 349.4Q752.7 350.2 753.9 351.8Q755.1 353.4 755.8 355.8Q756.5 358.3 756.5 361.6L756.5 361.6Q756.5 365.0 755.8 367.4Q755.1 369.9 753.9 371.5Q752.7 373.0 751.0 373.8Q749.3 374.6 747.2 374.6L747.2 374.6Q744.2 374.6 742.5 373.2Q740.8 371.7 739.9 369.5L739.9 369.5L739.5 369.5L739.5 374L732.4 374ZM744.1 369.1L744.1 369.1Q746.5 369.1 747.8 367.6Q749.1 366.1 749.1 363.5L749.1 363.5L749.1 359.7Q749.1 357.1 747.8 355.6Q746.5 354.2 744.1 354.2L744.1 354.2Q742.3 354.2 740.9 355.1Q739.5 356 739.5 358.0L739.5 358.0L739.5 365.3Q739.5 367.2 740.9 368.1Q742.3 369.1 744.1 369.1ZM772.5 374.6L772.5 374.6Q768.4 374.6 765.3 373.3Q762.3 372.1 760.8 369.9L760.8 369.9L764.7 366.2Q766.2 367.8 768.1 368.7Q770.1 369.6 772.6 369.6L772.6 369.6Q774.7 369.6 775.9 368.9Q777.1 368.3 777.1 366.9L777.1 366.9Q777.1 365.9 776.3 365.5Q775.4 365.1 774.0 364.8L774.0 364.8L770.0 364.2Q768.3 364.0 766.9 363.5Q765.5 363.0 764.4 362.1Q763.3 361.2 762.7 360.0Q762.1 358.7 762.1 357.0L762.1 357.0Q762.1 353.1 765.1 350.9Q768.0 348.7 773.4 348.7L773.4 348.7Q777.1 348.7 779.6 349.6Q782.2 350.6 783.7 352.4L783.7 352.4L780.2 356.5Q779.1 355.3 777.4 354.5Q775.6 353.6 773.2 353.6L773.2 353.6Q769.1 353.6 769.1 356.1L769.1 356.1Q769.1 357.2 769.9 357.7Q770.7 358.1 772.1 358.3L772.1 358.3L776.1 358.9Q777.7 359.2 779.2 359.7Q780.6 360.2 781.7 361.0Q782.8 361.9 783.4 363.2Q784.0 364.4 784.0 366.2L784.0 366.2Q784.0 370.1 781.0 372.3Q778.0 374.6 772.5 374.6ZM812.7 374L803.5 374Q799.7 374 797.8 372.0Q795.9 370.0 795.9 366.8L795.9 366.8L795.9 354.8L789.2 354.8L789.2 349.2L793.6 349.2Q795.2 349.2 795.8 348.6Q796.5 348.0 796.5 346.3L796.5 346.3L796.5 340.5L803.0 340.5L803.0 349.2L812.7 349.2L812.7 354.8L803.0 354.8L803.0 368.5L812.7 368.5L812.7 374ZM819.6 374L819.6 368.5L825.3 368.5L825.3 354.8L819.6 354.8L819.6 349.2L832.4 349.2L832.4 356.2L832.7 356.2Q833.0 354.9 833.6 353.6Q834.2 352.4 835.2 351.4Q836.1 350.4 837.5 349.8Q838.8 349.2 840.6 349.2L840.6 349.2L843.0 349.2L843.0 355.8L837.7 355.8Q835.1 355.8 833.7 357.3Q832.4 358.9 832.4 361.1L832.4 361.1L832.4 368.5L840.5 368.5L840.5 374L819.6 374ZM860.7 346.1L860.7 346.1Q858.3 346.1 857.4 345.1Q856.5 344.1 856.5 342.7L856.5 342.7L856.5 341.3Q856.5 339.9 857.4 338.9Q858.3 338.0 860.7 338.0L860.7 338.0Q863.1 338.0 864.1 338.9Q865.0 339.9 865.0 341.3L865.0 341.3L865.0 342.7Q865.0 344.1 864.1 345.1Q863.1 346.1 860.7 346.1ZM849.3 374L849.3 368.5L857.2 368.5L857.2 354.8L849.3 354.8L849.3 349.2L864.3 349.2L864.3 368.5L871.6 368.5L871.6 374L849.3 374ZM883.8 374L876.7 374L876.7 349.2L883.8 349.2L883.8 353.7L884.1 353.7Q884.5 352.7 885.2 351.8Q885.8 350.9 886.7 350.2Q887.6 349.5 888.7 349.1Q889.9 348.7 891.4 348.7L891.4 348.7Q893.2 348.7 894.7 349.3Q896.2 349.9 897.2 351.1Q898.3 352.3 898.9 354.0Q899.5 355.7 899.5 358.0L899.5 358.0L899.5 374L892.4 374L892.4 358.9Q892.4 354.1 888.2 354.1L888.2 354.1Q887.4 354.1 886.6 354.3Q885.8 354.6 885.2 355.0Q884.5 355.5 884.2 356.1Q883.8 356.8 883.8 357.7L883.8 357.7L883.8 374ZM930.4 376.5L930.4 376.5Q930.4 380.4 927.1 382.3Q923.8 384.2 916.7 384.2L916.7 384.2Q913.1 384.2 910.8 383.8Q908.5 383.4 907.1 382.6Q905.8 381.8 905.2 380.8Q904.7 379.7 904.7 378.5L904.7 378.5Q904.7 376.4 905.9 375.3Q907.2 374.2 909.4 373.6L909.4 373.6L909.4 373.3Q907.8 372.8 906.9 372.0Q906.0 371.1 906.0 369.4L906.0 369.4Q906.0 367.6 907.2 366.8Q908.4 365.9 910.4 365.4L910.4 365.4L910.4 365.1Q908.2 364.1 907.0 362.1Q905.8 360.2 905.8 357.5L905.8 357.5Q905.8 355.3 906.5 353.7Q907.3 352.0 908.7 350.9Q910.1 349.8 912.1 349.2Q914.1 348.7 916.5 348.7L916.5 348.7Q918.9 348.7 920.9 349.2L920.9 349.2L920.9 347.8Q920.9 346.4 921.9 345.4Q922.9 344.5 924.7 344.5L924.7 344.5L929.0 344.5L929.0 349.7L923.1 349.7L923.1 350.1Q925.1 351.2 926.2 353Q927.4 354.8 927.4 357.5L927.4 357.5Q927.4 359.6 926.6 361.3Q925.8 362.9 924.4 364.0Q922.9 365.2 921.0 365.7Q919.0 366.3 916.5 366.3L916.5 366.3Q915.4 366.3 914.4 366.2Q913.4 366.1 912.5 365.8L912.5 365.8Q912.0 366.1 911.6 366.6Q911.2 367.0 911.2 367.7L911.2 367.7Q911.2 368.2 911.5 368.6Q911.8 368.9 912.3 369.1Q912.8 369.2 913.5 369.3Q914.2 369.3 914.9 369.3L914.9 369.3L920.5 369.3Q923.2 369.3 925.1 369.9Q926.9 370.4 928.1 371.4Q929.3 372.3 929.9 373.6Q930.4 374.9 930.4 376.5ZM923.7 377.0L923.7 377.0Q923.7 376.1 922.9 375.5Q922.1 375.0 920.0 375.0L920.0 375.0L911.5 375.0Q910.5 375.8 910.5 377.0L910.5 377.0Q910.5 378.1 911.5 378.9Q912.5 379.6 914.8 379.6L914.8 379.6L919.0 379.6Q921.5 379.6 922.6 378.9Q923.7 378.3 923.7 377.0ZM916.5 361.8L916.5 361.8Q918.7 361.8 919.7 360.8Q920.6 359.7 920.6 358.1L920.6 358.1L920.6 356.9Q920.6 355.3 919.7 354.2Q918.7 353.2 916.5 353.2L916.5 353.2Q914.4 353.2 913.4 354.2Q912.5 355.3 912.5 356.9L912.5 356.9L912.5 358.1Q912.5 359.7 913.4 360.8Q914.4 361.8 916.5 361.8Z M971.7 374L962.6 374L960.5 340.5L966.7 340.5L967.7 360.6L968.0 366.9L968.4 366.9L971.3 347.8L977.8 347.8L980.6 366.9L981.1 366.9L981.4 360.8L982.3 340.5L988.3 340.5L986.2 374L977.1 374L974.6 355.5L974.2 355.5L971.7 374ZM1004.7 346.1L1004.7 346.1Q1002.3 346.1 1001.4 345.1Q1000.5 344.1 1000.5 342.7L1000.5 342.7L1000.5 341.3Q1000.5 339.9 1001.4 338.9Q1002.3 338.0 1004.7 338.0L1004.7 338.0Q1007.1 338.0 1008.1 338.9Q1009.0 339.9 1009.0 341.3L1009.0 341.3L1009.0 342.7Q1009.0 344.1 1008.1 345.1Q1007.1 346.1 1004.7 346.1ZM993.3 374L993.3 368.5L1001.2 368.5L1001.2 354.8L993.3 354.8L993.3 349.2L1008.3 349.2L1008.3 368.5L1015.6 368.5L1015.6 374L993.3 374ZM1043.1 374L1033.9 374Q1030.1 374 1028.2 372.0Q1026.3 370.0 1026.3 366.8L1026.3 366.8L1026.3 354.8L1019.6 354.8L1019.6 349.2L1024.0 349.2Q1025.6 349.2 1026.2 348.6Q1026.9 348.0 1026.9 346.3L1026.9 346.3L1026.9 340.5L1033.4 340.5L1033.4 349.2L1043.1 349.2L1043.1 354.8L1033.4 354.8L1033.4 368.5L1043.1 368.5L1043.1 374ZM1049.5 374L1049.5 338.5L1056.6 338.5L1056.6 353.7L1056.9 353.7Q1057.3 352.7 1058.0 351.8Q1058.6 350.9 1059.5 350.2Q1060.4 349.5 1061.5 349.1Q1062.7 348.7 1064.2 348.7L1064.2 348.7Q1066.0 348.7 1067.5 349.3Q1069.0 349.9 1070.0 351.1Q1071.1 352.3 1071.7 354.0Q1072.3 355.7 1072.3 358.0L1072.3 358.0L1072.3 374L1065.2 374L1065.2 358.9Q1065.2 354.1 1061.0 354.1L1061.0 354.1Q1060.2 354.1 1059.4 354.3Q1058.6 354.6 1058.0 355.0Q1057.3 355.5 1057.0 356.1Q1056.6 356.8 1056.6 357.7L1056.6 357.7L1056.6 374L1049.5 374ZM1089.6 374.6L1089.6 374.6Q1086.7 374.6 1084.4 373.7Q1082.1 372.8 1080.5 371.1Q1078.9 369.4 1078.0 367.0Q1077.2 364.6 1077.2 361.6L1077.2 361.6Q1077.2 358.6 1078.0 356.2Q1078.9 353.8 1080.5 352.1Q1082.1 350.4 1084.4 349.5Q1086.7 348.7 1089.6 348.7L1089.6 348.7Q1092.5 348.7 1094.8 349.5Q1097.1 350.4 1098.7 352.1Q1100.3 353.8 1101.2 356.2Q1102.0 358.6 1102.0 361.6L1102.0 361.6Q1102.0 364.6 1101.2 367.0Q1100.3 369.4 1098.7 371.1Q1097.1 372.8 1094.8 373.7Q1092.5 374.6 1089.6 374.6ZM1089.6 369.3L1089.6 369.3Q1092.0 369.3 1093.3 367.8Q1094.7 366.3 1094.7 363.6L1094.7 363.6L1094.7 359.6Q1094.7 356.9 1093.3 355.4Q1092.0 353.9 1089.6 353.9L1089.6 353.9Q1087.2 353.9 1085.9 355.4Q1084.5 356.9 1084.5 359.6L1084.5 359.6L1084.5 363.6Q1084.5 366.3 1085.9 367.8Q1087.2 369.3 1089.6 369.3ZM1122.6 374L1122.6 369.5L1122.3 369.5Q1121.5 371.6 1119.7 373.1Q1118.0 374.6 1115.0 374.6L1115.0 374.6Q1113.2 374.6 1111.7 374.0Q1110.2 373.4 1109.2 372.2Q1108.1 371.0 1107.5 369.2Q1106.9 367.5 1106.9 365.3L1106.9 365.3L1106.9 349.2L1114.0 349.2L1114.0 364.3Q1114.0 369.1 1118.2 369.1L1118.2 369.1Q1119.0 369.1 1119.8 368.9Q1120.6 368.7 1121.2 368.2Q1121.8 367.8 1122.2 367.1Q1122.6 366.4 1122.6 365.5L1122.6 365.5L1122.6 349.2L1129.7 349.2L1129.7 374L1122.6 374ZM1158.3 374L1149.1 374Q1145.3 374 1143.4 372.0Q1141.5 370.0 1141.5 366.8L1141.5 366.8L1141.5 354.8L1134.8 354.8L1134.8 349.2L1139.2 349.2Q1140.8 349.2 1141.4 348.6Q1142.1 348.0 1142.1 346.3L1142.1 346.3L1142.1 340.5L1148.6 340.5L1148.6 349.2L1158.3 349.2L1158.3 354.8L1148.6 354.8L1148.6 368.5L1158.3 368.5L1158.3 374Z M322.8 423.6L322.8 436L315.6 436L315.6 402.5L328.6 402.5Q331.1 402.5 333.0 403.2Q334.9 404.0 336.2 405.4Q337.5 406.8 338.2 408.7Q338.9 410.7 338.9 413.2L338.9 413.2Q338.9 416.7 337.3 419.2Q335.8 421.8 333.0 422.6L333.0 422.6L339.6 436L331.7 436L326.1 423.6L322.8 423.6ZM322.8 418L326.9 418Q329.4 418 330.4 417.0Q331.4 416.1 331.4 413.9L331.4 413.9L331.4 412.4Q331.4 410.2 330.4 409.3Q329.4 408.3 326.9 408.3L326.9 408.3L322.8 408.3L322.8 418ZM355.9 436.6L355.9 436.6Q349.6 436.6 346.4 433.1Q343.2 429.7 343.2 423.7L343.2 423.7Q343.2 420.7 344.0 418.3Q344.9 415.8 346.4 414.1Q348 412.4 350.2 411.5Q352.5 410.7 355.2 410.7L355.2 410.7Q358.0 410.7 360.2 411.5Q362.4 412.4 364.0 414.1Q365.5 415.7 366.4 418.0Q367.2 420.4 367.2 423.2L367.2 423.2L367.2 425.3L350.3 425.3L350.3 425.8Q350.3 428.2 351.7 429.6Q353.2 431.1 356.1 431.1L356.1 431.1Q358.3 431.1 359.9 430.3Q361.5 429.4 362.6 428.0L362.6 428.0L366.5 432.2Q365.0 434.0 362.4 435.3Q359.9 436.6 355.9 436.6ZM355.3 415.7L355.3 415.7Q353.0 415.7 351.6 417.2Q350.3 418.6 350.3 421.0L350.3 421.0L350.3 421.4L360.2 421.4L360.2 421.0Q360.2 418.5 358.9 417.1Q357.6 415.7 355.3 415.7ZM372.4 445.6L372.4 411.2L379.5 411.2L379.5 415.7L379.9 415.7Q380.8 413.5 382.5 412.1Q384.2 410.7 387.2 410.7L387.2 410.7Q389.3 410.7 391.0 411.4Q392.7 412.2 393.9 413.8Q395.1 415.4 395.8 417.8Q396.5 420.3 396.5 423.6L396.5 423.6Q396.5 427.0 395.8 429.4Q395.1 431.9 393.9 433.5Q392.7 435.0 391.0 435.8Q389.3 436.6 387.2 436.6L387.2 436.6Q384.2 436.6 382.5 435.2Q380.8 433.7 379.9 431.5L379.9 431.5L379.5 431.5L379.5 445.6L372.4 445.6ZM384.1 431.1L384.1 431.1Q386.5 431.1 387.8 429.6Q389.1 428.1 389.1 425.5L389.1 425.5L389.1 421.7Q389.1 419.1 387.8 417.6Q386.5 416.2 384.1 416.2L384.1 416.2Q382.3 416.2 380.9 417.1Q379.5 418 379.5 420.0L379.5 420.0L379.5 427.3Q379.5 429.2 380.9 430.1Q382.3 431.1 384.1 431.1ZM413.5 436.6L413.5 436.6Q407.2 436.6 404.0 433.1Q400.8 429.7 400.8 423.7L400.8 423.7Q400.8 420.7 401.6 418.3Q402.5 415.8 404.0 414.1Q405.6 412.4 407.8 411.5Q410.1 410.7 412.8 410.7L412.8 410.7Q415.6 410.7 417.8 411.5Q420.0 412.4 421.6 414.1Q423.1 415.7 424.0 418.0Q424.8 420.4 424.8 423.2L424.8 423.2L424.8 425.3L407.9 425.3L407.9 425.8Q407.9 428.2 409.3 429.6Q410.8 431.1 413.7 431.1L413.7 431.1Q415.9 431.1 417.5 430.3Q419.1 429.4 420.2 428.0L420.2 428.0L424.1 432.2Q422.6 434.0 420.0 435.3Q417.5 436.6 413.5 436.6ZM412.9 415.7L412.9 415.7Q410.6 415.7 409.2 417.2Q407.9 418.6 407.9 421.0L407.9 421.0L407.9 421.4L417.8 421.4L417.8 421.0Q417.8 418.5 416.5 417.1Q415.2 415.7 412.9 415.7ZM454.7 436L450.6 436Q448.4 436 447.0 434.9Q445.7 433.7 445.4 431.6L445.4 431.6L445.2 431.6Q444.5 434.1 442.5 435.3Q440.5 436.6 437.7 436.6L437.7 436.6Q434.1 436.6 431.9 434.6Q429.7 432.7 429.7 429.2L429.7 429.2Q429.7 425.3 432.5 423.4Q435.4 421.6 440.8 421.6L440.8 421.6L444.8 421.6L444.8 420.3Q444.8 418.1 443.8 417.0Q442.8 415.8 440.3 415.8L440.3 415.8Q438.0 415.8 436.7 416.7Q435.3 417.6 434.3 419.0L434.3 419.0L430.4 415.5Q431.6 413.4 434.3 412.0Q436.9 410.7 441.1 410.7L441.1 410.7Q446.2 410.7 449.1 413.0Q451.9 415.3 451.9 420.0L451.9 420.0L451.9 430.9L454.7 430.9L454.7 436ZM440.4 431.9L440.4 431.9Q442.2 431.9 443.5 431.0Q444.8 430.1 444.8 428.4L444.8 428.4L444.8 425.4L441.0 425.4Q436.7 425.4 436.7 428.3L436.7 428.3L436.7 429.3Q436.7 430.6 437.7 431.2Q438.7 431.9 440.4 431.9ZM481.5 436L472.3 436Q468.5 436 466.6 434.0Q464.7 432.0 464.7 428.8L464.7 428.8L464.7 416.8L458.0 416.8L458.0 411.2L462.4 411.2Q464.0 411.2 464.6 410.6Q465.3 410.0 465.3 408.3L465.3 408.3L465.3 402.5L471.8 402.5L471.8 411.2L481.5 411.2L481.5 416.8L471.8 416.8L471.8 430.5L481.5 430.5L481.5 436ZM500.7 408.1L500.7 408.1Q498.3 408.1 497.4 407.1Q496.5 406.1 496.5 404.7L496.5 404.7L496.5 403.3Q496.5 401.9 497.4 400.9Q498.3 400.0 500.7 400.0L500.7 400.0Q503.1 400.0 504.1 400.9Q505.0 401.9 505.0 403.3L505.0 403.3L505.0 404.7Q505.0 406.1 504.1 407.1Q503.1 408.1 500.7 408.1ZM489.3 436L489.3 430.5L497.2 430.5L497.2 416.8L489.3 416.8L489.3 411.2L504.3 411.2L504.3 430.5L511.6 430.5L511.6 436L489.3 436ZM523.8 436L516.7 436L516.7 411.2L523.8 411.2L523.8 415.7L524.1 415.7Q524.5 414.7 525.2 413.8Q525.8 412.9 526.7 412.2Q527.6 411.5 528.7 411.1Q529.9 410.7 531.4 410.7L531.4 410.7Q533.2 410.7 534.7 411.3Q536.2 411.9 537.2 413.1Q538.3 414.3 538.9 416.0Q539.5 417.7 539.5 420.0L539.5 420.0L539.5 436L532.4 436L532.4 420.9Q532.4 416.1 528.2 416.1L528.2 416.1Q527.4 416.1 526.6 416.3Q525.8 416.6 525.2 417.0Q524.5 417.5 524.2 418.1Q523.8 418.8 523.8 419.7L523.8 419.7L523.8 436ZM570.4 438.5L570.4 438.5Q570.4 442.4 567.1 444.3Q563.8 446.2 556.7 446.2L556.7 446.2Q553.1 446.2 550.8 445.8Q548.5 445.4 547.1 444.6Q545.8 443.8 545.2 442.8Q544.7 441.7 544.7 440.5L544.7 440.5Q544.7 438.4 545.9 437.3Q547.2 436.2 549.4 435.6L549.4 435.6L549.4 435.3Q547.8 434.8 546.9 434.0Q546.0 433.1 546.0 431.4L546.0 431.4Q546.0 429.6 547.2 428.8Q548.4 427.9 550.4 427.4L550.4 427.4L550.4 427.1Q548.2 426.1 547.0 424.1Q545.8 422.2 545.8 419.5L545.8 419.5Q545.8 417.3 546.5 415.7Q547.3 414.0 548.7 412.9Q550.1 411.8 552.1 411.2Q554.1 410.7 556.5 410.7L556.5 410.7Q558.9 410.7 560.9 411.2L560.9 411.2L560.9 409.8Q560.9 408.4 561.9 407.4Q562.9 406.5 564.7 406.5L564.7 406.5L569.0 406.5L569.0 411.7L563.1 411.7L563.1 412.1Q565.1 413.2 566.2 415Q567.4 416.8 567.4 419.5L567.4 419.5Q567.4 421.6 566.6 423.3Q565.8 424.9 564.4 426.0Q562.9 427.2 561.0 427.7Q559.0 428.3 556.5 428.3L556.5 428.3Q555.4 428.3 554.4 428.2Q553.4 428.1 552.5 427.8L552.5 427.8Q552.0 428.1 551.6 428.6Q551.2 429.0 551.2 429.7L551.2 429.7Q551.2 430.2 551.5 430.6Q551.8 430.9 552.3 431.1Q552.8 431.2 553.5 431.3Q554.2 431.3 554.9 431.3L554.9 431.3L560.5 431.3Q563.2 431.3 565.1 431.9Q566.9 432.4 568.1 433.4Q569.3 434.3 569.9 435.6Q570.4 436.9 570.4 438.5ZM563.7 439.0L563.7 439.0Q563.7 438.1 562.9 437.5Q562.1 437.0 560.0 437.0L560.0 437.0L551.5 437.0Q550.5 437.8 550.5 439.0L550.5 439.0Q550.5 440.1 551.5 440.9Q552.5 441.6 554.8 441.6L554.8 441.6L559.0 441.6Q561.5 441.6 562.6 440.9Q563.7 440.3 563.7 439.0ZM556.5 423.8L556.5 423.8Q558.7 423.8 559.7 422.8Q560.6 421.7 560.6 420.1L560.6 420.1L560.6 418.9Q560.6 417.3 559.7 416.2Q558.7 415.2 556.5 415.2L556.5 415.2Q554.4 415.2 553.4 416.2Q552.5 417.3 552.5 418.9L552.5 418.9L552.5 420.1Q552.5 421.7 553.4 422.8Q554.4 423.8 556.5 423.8Z M615.2 436.6L615.2 436.6Q608.4 436.6 605.2 432.0Q602.0 427.5 602.0 419.2L602.0 419.2Q602.0 411.0 605.2 406.5Q608.4 401.9 615.2 401.9L615.2 401.9Q617.8 401.9 619.8 402.6Q621.7 403.3 623.2 404.6Q624.6 405.8 625.6 407.6Q626.5 409.4 627.0 411.6L627.0 411.6L620.3 413.2Q620.0 412 619.6 411.0Q619.2 410.0 618.6 409.3Q618.0 408.5 617.2 408.1Q616.3 407.7 615.0 407.7L615.0 407.7Q612.1 407.7 610.9 410.0Q609.6 412.3 609.6 416.3L609.6 416.3L609.6 422.2Q609.6 426.2 610.9 428.5Q612.1 430.8 615.0 430.8L615.0 430.8Q617.5 430.8 618.6 429.2Q619.8 427.7 620.3 425.3L620.3 425.3L627.0 426.9Q626.5 429.1 625.6 430.9Q624.6 432.7 623.2 434.0Q621.7 435.2 619.8 435.9Q617.8 436.6 615.2 436.6ZM631.9 436L631.9 400.5L639.0 400.5L639.0 415.7L639.3 415.7Q639.7 414.7 640.4 413.8Q641.0 412.9 641.9 412.2Q642.8 411.5 643.9 411.1Q645.1 410.7 646.6 410.7L646.6 410.7Q648.4 410.7 649.9 411.3Q651.4 411.9 652.4 413.1Q653.5 414.3 654.1 416.0Q654.7 417.7 654.7 420.0L654.7 420.0L654.7 436L647.6 436L647.6 420.9Q647.6 416.1 643.4 416.1L643.4 416.1Q642.6 416.1 641.8 416.3Q641.0 416.6 640.4 417.0Q639.7 417.5 639.4 418.1Q639.0 418.8 639.0 419.7L639.0 419.7L639.0 436L631.9 436ZM685.1 436L681.0 436Q678.8 436 677.4 434.9Q676.1 433.7 675.8 431.6L675.8 431.6L675.6 431.6Q674.9 434.1 672.9 435.3Q670.9 436.6 668.1 436.6L668.1 436.6Q664.5 436.6 662.3 434.6Q660.1 432.7 660.1 429.2L660.1 429.2Q660.1 425.3 662.9 423.4Q665.8 421.6 671.2 421.6L671.2 421.6L675.2 421.6L675.2 420.3Q675.2 418.1 674.2 417.0Q673.2 415.8 670.7 415.8L670.7 415.8Q668.4 415.8 667.1 416.7Q665.7 417.6 664.7 419.0L664.7 419.0L660.8 415.5Q662.0 413.4 664.7 412.0Q667.3 410.7 671.5 410.7L671.5 410.7Q676.6 410.7 679.5 413.0Q682.3 415.3 682.3 420.0L682.3 420.0L682.3 430.9L685.1 430.9L685.1 436ZM670.8 431.9L670.8 431.9Q672.6 431.9 673.9 431.0Q675.2 430.1 675.2 428.4L675.2 428.4L675.2 425.4L671.4 425.4Q667.1 425.4 667.1 428.3L667.1 428.3L667.1 429.3Q667.1 430.6 668.1 431.2Q669.1 431.9 670.8 431.9ZM690.0 436L690.0 430.5L695.7 430.5L695.7 416.8L690.0 416.8L690.0 411.2L702.8 411.2L702.8 418.2L703.1 418.2Q703.4 416.9 704.0 415.6Q704.6 414.4 705.6 413.4Q706.5 412.4 707.9 411.8Q709.2 411.2 711.0 411.2L711.0 411.2L713.4 411.2L713.4 417.8L708.1 417.8Q705.5 417.8 704.1 419.3Q702.8 420.9 702.8 423.1L702.8 423.1L702.8 430.5L710.9 430.5L710.9 436L690.0 436ZM742.7 436L738.6 436Q736.4 436 735.0 434.9Q733.7 433.7 733.4 431.6L733.4 431.6L733.2 431.6Q732.5 434.1 730.5 435.3Q728.5 436.6 725.7 436.6L725.7 436.6Q722.1 436.6 719.9 434.6Q717.7 432.7 717.7 429.2L717.7 429.2Q717.7 425.3 720.5 423.4Q723.4 421.6 728.8 421.6L728.8 421.6L732.8 421.6L732.8 420.3Q732.8 418.1 731.8 417.0Q730.8 415.8 728.3 415.8L728.3 415.8Q726.0 415.8 724.7 416.7Q723.3 417.6 722.3 419.0L722.3 419.0L718.4 415.5Q719.6 413.4 722.3 412.0Q724.9 410.7 729.1 410.7L729.1 410.7Q734.2 410.7 737.1 413.0Q739.9 415.3 739.9 420.0L739.9 420.0L739.9 430.9L742.7 430.9L742.7 436ZM728.4 431.9L728.4 431.9Q730.2 431.9 731.5 431.0Q732.8 430.1 732.8 428.4L732.8 428.4L732.8 425.4L729.0 425.4Q724.7 425.4 724.7 428.3L724.7 428.3L724.7 429.3Q724.7 430.6 725.7 431.2Q726.7 431.9 728.4 431.9ZM759.4 436.6L759.4 436.6Q756.5 436.6 754.2 435.7Q751.8 434.8 750.2 433.1Q748.6 431.4 747.7 429.0Q746.9 426.6 746.9 423.6L746.9 423.6Q746.9 420.6 747.7 418.2Q748.6 415.8 750.2 414.1Q751.8 412.4 754.2 411.5Q756.5 410.7 759.4 410.7L759.4 410.7Q763.4 410.7 765.9 412.3Q768.4 414.0 769.7 416.7L769.7 416.7L764.2 419.7Q763.5 418.2 762.5 417.3Q761.4 416.3 759.4 416.3L759.4 416.3Q756.9 416.3 755.6 417.7Q754.3 419.2 754.3 421.6L754.3 421.6L754.3 425.6Q754.3 428.1 755.6 429.5Q756.9 430.9 759.5 430.9L759.5 430.9Q761.5 430.9 762.7 430.0Q763.9 429.0 764.7 427.5L764.7 427.5L770.1 430.5Q768.7 433.3 766.2 434.9Q763.6 436.6 759.4 436.6ZM798.3 436L789.1 436Q785.3 436 783.4 434.0Q781.5 432.0 781.5 428.8L781.5 428.8L781.5 416.8L774.8 416.8L774.8 411.2L779.2 411.2Q780.8 411.2 781.4 410.6Q782.1 410.0 782.1 408.3L782.1 408.3L782.1 402.5L788.6 402.5L788.6 411.2L798.3 411.2L798.3 416.8L788.6 416.8L788.6 430.5L798.3 430.5L798.3 436ZM816.7 436.6L816.7 436.6Q810.4 436.6 807.2 433.1Q804.0 429.7 804.0 423.7L804.0 423.7Q804.0 420.7 804.8 418.3Q805.7 415.8 807.2 414.1Q808.8 412.4 811.0 411.5Q813.3 410.7 816.0 410.7L816.0 410.7Q818.8 410.7 821.0 411.5Q823.2 412.4 824.8 414.1Q826.3 415.7 827.2 418.0Q828.0 420.4 828.0 423.2L828.0 423.2L828.0 425.3L811.1 425.3L811.1 425.8Q811.1 428.2 812.5 429.6Q814.0 431.1 816.9 431.1L816.9 431.1Q819.1 431.1 820.7 430.3Q822.3 429.4 823.4 428.0L823.4 428.0L827.3 432.2Q825.8 434.0 823.2 435.3Q820.7 436.6 816.7 436.6ZM816.1 415.7L816.1 415.7Q813.8 415.7 812.4 417.2Q811.1 418.6 811.1 421.0L811.1 421.0L811.1 421.4L821.0 421.4L821.0 421.0Q821.0 418.5 819.7 417.1Q818.4 415.7 816.1 415.7ZM834.0 436L834.0 430.5L839.7 430.5L839.7 416.8L834.0 416.8L834.0 411.2L846.8 411.2L846.8 418.2L847.1 418.2Q847.4 416.9 848.0 415.6Q848.6 414.4 849.6 413.4Q850.5 412.4 851.9 411.8Q853.2 411.2 855.0 411.2L855.0 411.2L857.4 411.2L857.4 417.8L852.1 417.8Q849.5 417.8 848.1 419.3Q846.8 420.9 846.8 423.1L846.8 423.1L846.8 430.5L854.9 430.5L854.9 436L834.0 436ZM873.3 436.6L873.3 436.6Q869.2 436.6 866.1 435.3Q863.1 434.1 861.6 431.9L861.6 431.9L865.5 428.2Q867.0 429.8 868.9 430.7Q870.9 431.6 873.4 431.6L873.4 431.6Q875.5 431.6 876.7 430.9Q877.9 430.3 877.9 428.9L877.9 428.9Q877.9 427.9 877.1 427.5Q876.2 427.1 874.8 426.8L874.8 426.8L870.8 426.2Q869.1 426.0 867.7 425.5Q866.3 425.0 865.2 424.1Q864.1 423.2 863.5 422.0Q862.9 420.7 862.9 419.0L862.9 419.0Q862.9 415.1 865.9 412.9Q868.8 410.7 874.2 410.7L874.2 410.7Q877.9 410.7 880.4 411.6Q883.0 412.6 884.5 414.4L884.5 414.4L881.0 418.5Q879.9 417.3 878.2 416.5Q876.4 415.6 874.0 415.6L874.0 415.6Q869.9 415.6 869.9 418.1L869.9 418.1Q869.9 419.2 870.7 419.7Q871.5 420.1 872.9 420.3L872.9 420.3L876.9 420.9Q878.5 421.2 880.0 421.7Q881.4 422.2 882.5 423.0Q883.6 423.9 884.2 425.2Q884.8 426.4 884.8 428.2L884.8 428.2Q884.8 432.1 881.8 434.3Q878.8 436.6 873.3 436.6Z "/></g></svg>