<svg width="1200" height="630" viewBox="0 0 1200 630" xmlns="http://www.w3.org/2000/svg"><defs><pattern id="satori_pattern_id_1" x="0" y="0" width="0.08333333333333333" height="0.15873015873015872" patternUnits="objectBoundingBox"><radialGradient id="satori_radial_id_1" spreadMethod="pad"><stop offset="0" stop-color="lightgray"/><stop offset="0.03" stop-color="lightgray"/><stop offset="0" stop-color="transparent"/><stop offset="1" stop-color="transparent"/></radialGradient><mask id="satori_mask_id_1"><rect x="0" y="0" width="100" height="100" fill="#fff"/></mask><rect x="0" y="0" width="100" height="100" fill="transparent"/><circle cx="75" cy="75" width="100" height="100" r="106.06601717798213" fill="url(#satori_radial_id_1)" mask="url(#satori_mask_id_1)"/></pattern><pattern id="satori_pattern_id_0" x="0" y="0" width="0.08333333333333333" height="0.15873015873015872" patternUnits="objectBoundingBox"><radialGradient id="satori_radial_id_0" spreadMethod="pad"><stop offset="0" stop-color="lightgray"/><stop offset="0.03" stop-color="lightgray"/><stop offset="0" stop-color="transparent"/><stop offset="1" stop-color="transparent"/></radialGradient><mask id="satori_mask_id_0"><rect x="0" y="0" width="100" height="100" fill="#fff"/></mask><rect x="0" y="0" width="100" height="100" fill="transparent"/><circle cx="25" cy="25" width="100" height="100" r="106.06601717798213" fill="url(#satori_radial_id_0)" mask="url(#satori_mask_id_0)"/></pattern></defs><mask id="satori_om-id"><rect x="0" y="0" width="1200" height="630" fill="#fff"/></mask><rect x="0" y="0" width="1200" height="630" fill="white"/><rect x="0" y="0" width="1200" height="630" fill="url(#satori_pattern_id_1)"/><rect x="0" y="0" width="1200" height="630" fill="url(#satori_pattern_id_0)"/><mask id="satori_om-id-0"><rect x="154" y="213" width="893" height="205" fill="#fff"/></mask><mask id="satori_om-id-0-0"><rect x="477" y="213" width="248" height="47" fill="#fff"/></mask><mask id="satori_om-id-0-0-0"><rect x="477" y="229" width="16" height="16" fill="#fff"/></mask><rect x="477" y="229" width="16" height="16" fill="black"/><mask id="satori_om-id-0-0-1"><rect x="509" y="213" width="216" height="47" fill="#fff"/></mask><g  ><path fill="black" d="M512.7 257.2L512.7 254.8L521.7 254.8L521.7 233.9L512.3 233.9L512.3 231.4L524.6 231.4L524.6 253.0Q524.6 254.8 523.6 256.0Q522.6 257.2 520.4 257.2L520.4 257.2L512.7 257.2ZM523.1 227.3L523.1 227.3Q521.9 227.3 521.3 226.8Q520.8 226.3 520.8 225.5L520.8 225.5L520.8 224.9Q520.8 224.1 521.3 223.6Q521.9 223.1 523.1 223.1L523.1 223.1Q524.4 223.1 524.9 223.6Q525.4 224.1 525.4 224.9L525.4 224.9L525.4 225.5Q525.4 226.3 524.9 226.8Q524.4 227.3 523.1 227.3ZM550.4 250L548.4 250Q546.7 250 546.0 249.1Q545.3 248.3 545.1 247.0L545.1 247.0L544.9 247.0Q544.3 248.6 543.0 249.5Q541.6 250.4 539.3 250.4L539.3 250.4Q536.4 250.4 534.7 248.9Q533.0 247.4 533.0 244.8L533.0 244.8Q533.0 242.2 534.9 240.8Q536.8 239.4 541.0 239.4L541.0 239.4L544.9 239.4L544.9 237.5Q544.9 235.5 543.8 234.5Q542.6 233.4 540.5 233.4L540.5 233.4Q538.6 233.4 537.4 234.2Q536.3 234.9 535.5 236.2L535.5 236.2L533.6 234.7Q533.9 234.0 534.6 233.3Q535.2 232.6 536.1 232.1Q537.0 231.6 538.1 231.3Q539.3 231.0 540.7 231.0L540.7 231.0Q544.0 231.0 545.9 232.6Q547.8 234.3 547.8 237.3L547.8 237.3L547.8 247.5L550.4 247.5L550.4 250ZM539.9 248.0L539.9 248.0Q541.0 248.0 541.9 247.8Q542.8 247.5 543.5 247.0Q544.2 246.6 544.6 245.9Q544.9 245.3 544.9 244.6L544.9 244.6L544.9 241.5L541.0 241.5Q538.4 241.5 537.2 242.3Q536 243.0 536 244.3L536 244.3L536 245.1Q536 246.5 537.0 247.3Q538.1 248.0 539.9 248.0ZM563.3 250.4L563.3 250.4Q561.3 250.4 559.7 249.7Q558.1 249.1 557.0 247.8Q555.8 246.5 555.2 244.7Q554.6 242.9 554.6 240.7L554.6 240.7Q554.6 238.5 555.2 236.7Q555.9 234.9 557.0 233.6Q558.1 232.4 559.7 231.7Q561.2 231.0 563.1 231.0L563.1 231.0Q565.0 231.0 566.5 231.7Q568.1 232.4 569.2 233.6Q570.2 234.8 570.8 236.4Q571.4 238.1 571.4 240.1L571.4 240.1L571.4 241.4L557.6 241.4L557.6 242.3Q557.6 243.5 558.0 244.6Q558.4 245.6 559.2 246.4Q559.9 247.1 561.0 247.5Q562.0 247.9 563.3 247.9L563.3 247.9Q565.2 247.9 566.6 247.1Q567.9 246.2 568.7 244.7L568.7 244.7L570.8 246.1Q569.9 248.0 568.0 249.2Q566.1 250.4 563.3 250.4ZM563.1 233.4L563.1 233.4Q562.0 233.4 560.9 233.8Q559.9 234.2 559.2 235.0Q558.5 235.7 558.1 236.8Q557.6 237.8 557.6 239.0L557.6 239.0L557.6 239.3L568.3 239.3L568.3 238.9Q568.3 237.7 567.9 236.6Q567.5 235.6 566.9 234.9Q566.2 234.2 565.3 233.8Q564.3 233.4 563.1 233.4ZM577.3 250L577.3 223.4L580.2 223.4L580.2 234.4L580.4 234.4Q580.6 233.8 581.1 233.1Q581.5 232.5 582.1 232.0Q582.8 231.6 583.6 231.3Q584.5 231.0 585.6 231.0L585.6 231.0Q588.6 231.0 590.3 232.8Q592.1 234.7 592.1 238.1L592.1 238.1L592.1 250L589.2 250L589.2 238.6Q589.2 236.0 588.1 234.8Q587.0 233.5 584.8 233.5L584.8 233.5Q584.0 233.5 583.1 233.8Q582.3 234.0 581.6 234.4Q581.0 234.8 580.6 235.5Q580.2 236.2 580.2 237.1L580.2 237.1L580.2 250L577.3 250ZM606.5 250.4L606.5 250.4Q604.5 250.4 602.9 249.7Q601.3 249.1 600.2 247.8Q599.0 246.5 598.4 244.7Q597.8 242.9 597.8 240.7L597.8 240.7Q597.8 238.5 598.4 236.7Q599.1 234.9 600.2 233.6Q601.3 232.4 602.9 231.7Q604.4 231.0 606.3 231.0L606.3 231.0Q608.2 231.0 609.7 231.7Q611.3 232.4 612.4 233.6Q613.4 234.8 614.0 236.4Q614.6 238.1 614.6 240.1L614.6 240.1L614.6 241.4L600.8 241.4L600.8 242.3Q600.8 243.5 601.2 244.6Q601.6 245.6 602.4 246.4Q603.1 247.1 604.2 247.5Q605.2 247.9 606.5 247.9L606.5 247.9Q608.4 247.9 609.8 247.1Q611.1 246.2 611.9 244.7L611.9 244.7L614.0 246.1Q613.1 248.0 611.2 249.2Q609.3 250.4 606.5 250.4ZM606.3 233.4L606.3 233.4Q605.2 233.4 604.1 233.8Q603.1 234.2 602.4 235.0Q601.7 235.7 601.3 236.8Q600.8 237.8 600.8 239.0L600.8 239.0L600.8 239.3L611.5 239.3L611.5 238.9Q611.5 237.7 611.1 236.6Q610.7 235.6 610.1 234.9Q609.4 234.2 608.5 233.8Q607.5 233.4 606.3 233.4ZM628.1 250.4L628.1 250.4Q626.1 250.4 624.5 249.7Q622.9 249.1 621.8 247.8Q620.6 246.5 620.0 244.7Q619.4 242.9 619.4 240.7L619.4 240.7Q619.4 238.5 620.0 236.7Q620.7 234.9 621.8 233.6Q622.9 232.4 624.5 231.7Q626.0 231.0 627.9 231.0L627.9 231.0Q629.8 231.0 631.3 231.7Q632.9 232.4 634.0 233.6Q635.0 234.8 635.6 236.4Q636.2 238.1 636.2 240.1L636.2 240.1L636.2 241.4L622.4 241.4L622.4 242.3Q622.4 243.5 622.8 244.6Q623.2 245.6 624.0 246.4Q624.7 247.1 625.8 247.5Q626.8 247.9 628.1 247.9L628.1 247.9Q630.0 247.9 631.4 247.1Q632.7 246.2 633.5 244.7L633.5 244.7L635.6 246.1Q634.7 248.0 632.8 249.2Q630.9 250.4 628.1 250.4ZM627.9 233.4L627.9 233.4Q626.8 233.4 625.7 233.8Q624.7 234.2 624.0 235.0Q623.3 235.7 622.9 236.8Q622.4 237.8 622.4 239.0L622.4 239.0L622.4 239.3L633.1 239.3L633.1 238.9Q633.1 237.7 632.7 236.6Q632.3 235.6 631.7 234.9Q631.0 234.2 630.1 233.8Q629.1 233.4 627.9 233.4ZM649.4 250.3L649.4 250.3Q647.9 250.3 647.3 249.7Q646.7 249.1 646.7 248.2L646.7 248.2L646.7 247.5Q646.7 246.6 647.3 246.0Q647.9 245.4 649.4 245.4L649.4 245.4Q650.9 245.4 651.5 246.0Q652.1 246.6 652.1 247.5L652.1 247.5L652.1 248.2Q652.1 249.1 651.5 249.7Q650.9 250.3 649.4 250.3ZM675.5 250L675.5 247.0L675.4 247.0Q673.6 250.4 669.6 250.4L669.6 250.4Q666.2 250.4 664.3 247.9Q662.4 245.3 662.4 240.7L662.4 240.7Q662.4 236.1 664.3 233.5Q666.2 231.0 669.6 231.0L669.6 231.0Q673.6 231.0 675.4 234.4L675.4 234.4L675.5 234.4L675.5 223.4L678.4 223.4L678.4 250L675.5 250ZM670.7 247.9L670.7 247.9Q671.7 247.9 672.6 247.6Q673.4 247.4 674.1 246.9Q674.7 246.4 675.1 245.7Q675.5 245.0 675.5 244.1L675.5 244.1L675.5 237.4Q675.5 236.4 675.1 235.7Q674.7 235.0 674.1 234.5Q673.4 234.1 672.6 233.8Q671.7 233.5 670.7 233.5L670.7 233.5Q668.2 233.5 666.8 235.1Q665.5 236.6 665.5 239.1L665.5 239.1L665.5 242.3Q665.5 244.8 666.8 246.3Q668.2 247.9 670.7 247.9ZM692.9 250.4L692.9 250.4Q690.9 250.4 689.3 249.7Q687.7 249.1 686.6 247.8Q685.4 246.5 684.8 244.7Q684.2 242.9 684.2 240.7L684.2 240.7Q684.2 238.5 684.8 236.7Q685.5 234.9 686.6 233.6Q687.7 232.4 689.3 231.7Q690.8 231.0 692.7 231.0L692.7 231.0Q694.6 231.0 696.1 231.7Q697.7 232.4 698.8 233.6Q699.8 234.8 700.4 236.4Q701.0 238.1 701.0 240.1L701.0 240.1L701.0 241.4L687.2 241.4L687.2 242.3Q687.2 243.5 687.6 244.6Q688.0 245.6 688.8 246.4Q689.5 247.1 690.6 247.5Q691.6 247.9 692.9 247.9L692.9 247.9Q694.8 247.9 696.2 247.1Q697.5 246.2 698.3 244.7L698.3 244.7L700.4 246.1Q699.5 248.0 697.6 249.2Q695.7 250.4 692.9 250.4ZM692.7 233.4L692.7 233.4Q691.6 233.4 690.5 233.8Q689.5 234.2 688.8 235.0Q688.1 235.7 687.7 236.8Q687.2 237.8 687.2 239.0L687.2 239.0L687.2 239.3L697.9 239.3L697.9 238.9Q697.9 237.7 697.5 236.6Q697.1 235.6 696.5 234.9Q695.8 234.2 694.9 233.8Q693.9 233.4 692.7 233.4ZM716.0 250L712.4 250L705.7 231.4L708.6 231.4L711.3 239.2L714.2 247.6L714.3 247.6L717.2 239.2L719.9 231.4L722.7 231.4L716.0 250Z "/></g><mask id="satori_om-id-0-1"><rect x="154" y="356" width="893" height="62" fill="#fff"/></mask><g  ><path fill="black" d="M180.1 405L158.4 405L158.4 371.5L165.7 371.5L165.7 399.1L180.1 399.1L180.1 405ZM197.9 405.6L197.9 405.6Q191.6 405.6 188.4 402.1Q185.2 398.7 185.2 392.7L185.2 392.7Q185.2 389.7 186.0 387.3Q186.9 384.8 188.4 383.1Q190 381.4 192.2 380.5Q194.5 379.7 197.2 379.7L197.2 379.7Q200.0 379.7 202.2 380.5Q204.4 381.4 206.0 383.1Q207.5 384.7 208.4 387.0Q209.2 389.4 209.2 392.2L209.2 392.2L209.2 394.3L192.3 394.3L192.3 394.8Q192.3 397.2 193.7 398.6Q195.2 400.1 198.1 400.1L198.1 400.1Q200.3 400.1 201.9 399.3Q203.5 398.4 204.6 397.0L204.6 397.0L208.5 401.2Q207.0 403.0 204.4 404.3Q201.9 405.6 197.9 405.6ZM197.3 384.7L197.3 384.7Q195.0 384.7 193.6 386.2Q192.3 387.6 192.3 390.0L192.3 390.0L192.3 390.4L202.2 390.4L202.2 390.0Q202.2 387.5 200.9 386.1Q199.6 384.7 197.3 384.7ZM226.7 405.6L226.7 405.6Q220.4 405.6 217.2 402.1Q214.0 398.7 214.0 392.7L214.0 392.7Q214.0 389.7 214.8 387.3Q215.7 384.8 217.2 383.1Q218.8 381.4 221.0 380.5Q223.3 379.7 226.0 379.7L226.0 379.7Q228.8 379.7 231.0 380.5Q233.2 381.4 234.8 383.1Q236.3 384.7 237.2 387.0Q238.0 389.4 238.0 392.2L238.0 392.2L238.0 394.3L221.1 394.3L221.1 394.8Q221.1 397.2 222.5 398.6Q224.0 400.1 226.9 400.1L226.9 400.1Q229.1 400.1 230.7 399.3Q232.3 398.4 233.4 397.0L233.4 397.0L237.3 401.2Q235.8 403.0 233.2 404.3Q230.7 405.6 226.7 405.6ZM226.1 384.7L226.1 384.7Q223.8 384.7 222.4 386.2Q221.1 387.6 221.1 390.0L221.1 390.0L221.1 390.4L231.0 390.4L231.0 390.0Q231.0 387.5 229.7 386.1Q228.4 384.7 226.1 384.7ZM265.9 405L256.7 405Q252.9 405 251.0 403.0Q249.1 401.0 249.1 397.8L249.1 397.8L249.1 385.8L242.4 385.8L242.4 380.2L246.8 380.2Q248.4 380.2 249.0 379.6Q249.7 379.0 249.7 377.3L249.7 377.3L249.7 371.5L256.2 371.5L256.2 380.2L265.9 380.2L265.9 385.8L256.2 385.8L256.2 399.5L265.9 399.5L265.9 405ZM284.4 405.6L284.4 405.6Q277.6 405.6 274.4 401.0Q271.2 396.5 271.2 388.2L271.2 388.2Q271.2 380.0 274.4 375.5Q277.6 370.9 284.4 370.9L284.4 370.9Q287.0 370.9 289.0 371.6Q290.9 372.3 292.4 373.6Q293.8 374.8 294.8 376.6Q295.7 378.4 296.2 380.6L296.2 380.6L289.5 382.2Q289.2 381 288.8 380.0Q288.4 379.0 287.8 378.3Q287.2 377.5 286.4 377.1Q285.5 376.7 284.2 376.7L284.2 376.7Q281.3 376.7 280.1 379.0Q278.8 381.3 278.8 385.3L278.8 385.3L278.8 391.2Q278.8 395.2 280.1 397.5Q281.3 399.8 284.2 399.8L284.2 399.8Q286.7 399.8 287.8 398.2Q289.0 396.7 289.5 394.3L289.5 394.3L296.2 395.9Q295.7 398.1 294.8 399.9Q293.8 401.7 292.4 403.0Q290.9 404.2 289.0 404.9Q287.0 405.6 284.4 405.6ZM312.4 405.6L312.4 405.6Q309.5 405.6 307.2 404.7Q304.9 403.8 303.3 402.1Q301.7 400.4 300.8 398.0Q300.0 395.6 300.0 392.6L300.0 392.6Q300.0 389.6 300.8 387.2Q301.7 384.8 303.3 383.1Q304.9 381.4 307.2 380.5Q309.5 379.7 312.4 379.7L312.4 379.7Q315.3 379.7 317.6 380.5Q319.9 381.4 321.5 383.1Q323.1 384.8 324.0 387.2Q324.8 389.6 324.8 392.6L324.8 392.6Q324.8 395.6 324.0 398.0Q323.1 400.4 321.5 402.1Q319.9 403.8 317.6 404.7Q315.3 405.6 312.4 405.6ZM312.4 400.3L312.4 400.3Q314.8 400.3 316.1 398.8Q317.5 397.3 317.5 394.6L317.5 394.6L317.5 390.6Q317.5 387.9 316.1 386.4Q314.8 384.9 312.4 384.9L312.4 384.9Q310.0 384.9 308.7 386.4Q307.3 387.9 307.3 390.6L307.3 390.6L307.3 394.6Q307.3 397.3 308.7 398.8Q310.0 400.3 312.4 400.3ZM345.7 405L345.7 400.5L345.3 400.5Q344.4 402.7 342.7 404.2Q341.0 405.6 338.0 405.6L338.0 405.6Q335.9 405.6 334.2 404.8Q332.5 404.0 331.3 402.5Q330.1 400.9 329.4 398.4Q328.7 396.0 328.7 392.6L328.7 392.6Q328.7 389.3 329.4 386.8Q330.1 384.4 331.3 382.8Q332.5 381.2 334.2 380.4Q335.9 379.7 338.0 379.7L338.0 379.7Q339.5 379.7 340.6 380.0Q341.8 380.4 342.7 381.1Q343.6 381.8 344.2 382.7Q344.8 383.6 345.3 384.7L345.3 384.7L345.7 384.7L345.7 369.5L352.8 369.5L352.8 405L345.7 405ZM341.1 400.1L341.1 400.1Q342.9 400.1 344.3 399.1Q345.7 398.2 345.7 396.3L345.7 396.3L345.7 389.0Q345.7 387 344.3 386.1Q342.9 385.2 341.1 385.2L341.1 385.2Q338.7 385.2 337.4 386.6Q336.1 388.1 336.1 390.7L336.1 390.7L336.1 394.5Q336.1 397.1 337.4 398.6Q338.7 400.1 341.1 400.1ZM370.7 405.6L370.7 405.6Q364.4 405.6 361.2 402.1Q358.0 398.7 358.0 392.7L358.0 392.7Q358.0 389.7 358.8 387.3Q359.7 384.8 361.2 383.1Q362.8 381.4 365.0 380.5Q367.3 379.7 370.0 379.7L370.0 379.7Q372.8 379.7 375.0 380.5Q377.2 381.4 378.8 383.1Q380.3 384.7 381.2 387.0Q382.0 389.4 382.0 392.2L382.0 392.2L382.0 394.3L365.1 394.3L365.1 394.8Q365.1 397.2 366.5 398.6Q368.0 400.1 370.9 400.1L370.9 400.1Q373.1 400.1 374.7 399.3Q376.3 398.4 377.4 397.0L377.4 397.0L381.3 401.2Q379.8 403.0 377.2 404.3Q374.7 405.6 370.7 405.6ZM370.1 384.7L370.1 384.7Q367.8 384.7 366.4 386.2Q365.1 387.6 365.1 390.0L365.1 390.0L365.1 390.4L375.0 390.4L375.0 390.0Q375.0 387.5 373.7 386.1Q372.4 384.7 370.1 384.7Z M435.3 393.8L419.9 393.8L419.9 387.0L435.3 387.0L435.3 393.8Z M498.6 405L475.3 405L475.3 399.2L484.3 399.2L484.3 376.7L483.9 376.7L477.1 385.7L472.5 382.1L480.5 371.5L491.5 371.5L491.5 399.2L498.6 399.2L498.6 405ZM509.5 384.7L512.7 384.7Q515.5 384.7 516.8 383.7Q518.0 382.6 518.0 381.1L518.0 381.1L518.0 380.8Q518.0 378.9 516.8 377.9Q515.6 376.8 513.3 376.8L513.3 376.8Q511.3 376.8 509.5 377.8Q507.7 378.8 506.4 380.8L506.4 380.8L501.9 376.5Q502.8 375.3 504.0 374.3Q505.1 373.2 506.5 372.5Q507.9 371.7 509.7 371.3Q511.4 370.9 513.6 370.9L513.6 370.9Q516.4 370.9 518.6 371.5Q520.8 372.2 522.3 373.3Q523.9 374.5 524.8 376.2Q525.6 377.8 525.6 379.8L525.6 379.8Q525.6 381.4 525.1 382.7Q524.6 384.0 523.7 384.9Q522.8 385.9 521.6 386.5Q520.4 387.1 519.1 387.3L519.1 387.3L519.1 387.6Q522.2 388.2 524.2 390.2Q526.2 392.2 526.2 395.7L526.2 395.7Q526.2 397.9 525.3 399.8Q524.4 401.6 522.7 402.9Q521.0 404.2 518.5 404.9Q516.1 405.6 513.1 405.6L513.1 405.6Q510.6 405.6 508.6 405.0Q506.7 404.5 505.2 403.6Q503.7 402.7 502.6 401.6Q501.6 400.4 500.8 399.1L500.8 399.1L506.1 395.0Q507.2 397.1 508.8 398.4Q510.5 399.7 513.3 399.7L513.3 399.7Q515.9 399.7 517.3 398.5Q518.7 397.3 518.7 395.2L518.7 395.2L518.7 394.9Q518.7 392.8 517.1 391.8Q515.5 390.7 512.7 390.7L512.7 390.7L509.5 390.7L509.5 384.7ZM542.8 405.6L542.8 405.6Q540.1 405.6 538.9 404.4Q537.8 403.2 537.8 401.6L537.8 401.6L537.8 399.9Q537.8 398.3 538.9 397.1Q540.1 395.9 542.8 395.9L542.8 395.9Q545.5 395.9 546.7 397.1Q547.8 398.3 547.8 399.9L547.8 399.9L547.8 401.6Q547.8 403.2 546.7 404.4Q545.5 405.6 542.8 405.6Z M596.8 392.6L596.8 405L589.6 405L589.6 371.5L602.6 371.5Q605.1 371.5 607.0 372.2Q608.9 373.0 610.2 374.4Q611.5 375.8 612.2 377.7Q612.9 379.7 612.9 382.2L612.9 382.2Q612.9 385.7 611.3 388.2Q609.8 390.8 607.0 391.6L607.0 391.6L613.6 405L605.7 405L600.1 392.6L596.8 392.6ZM596.8 387L600.9 387Q603.4 387 604.4 386.0Q605.4 385.1 605.4 382.9L605.4 382.9L605.4 381.4Q605.4 379.2 604.4 378.3Q603.4 377.3 600.9 377.3L600.9 377.3L596.8 377.3L596.8 387ZM629.2 405.6L629.2 405.6Q626.3 405.6 624.0 404.7Q621.7 403.8 620.1 402.1Q618.5 400.4 617.6 398.0Q616.8 395.6 616.8 392.6L616.8 392.6Q616.8 389.6 617.6 387.2Q618.5 384.8 620.1 383.1Q621.7 381.4 624.0 380.5Q626.3 379.7 629.2 379.7L629.2 379.7Q632.1 379.7 634.4 380.5Q636.7 381.4 638.3 383.1Q639.9 384.8 640.8 387.2Q641.6 389.6 641.6 392.6L641.6 392.6Q641.6 395.6 640.8 398.0Q639.9 400.4 638.3 402.1Q636.7 403.8 634.4 404.7Q632.1 405.6 629.2 405.6ZM629.2 400.3L629.2 400.3Q631.6 400.3 632.9 398.8Q634.3 397.3 634.3 394.6L634.3 394.6L634.3 390.6Q634.3 387.9 632.9 386.4Q631.6 384.9 629.2 384.9L629.2 384.9Q626.8 384.9 625.5 386.4Q624.1 387.9 624.1 390.6L624.1 390.6L624.1 394.6Q624.1 397.3 625.5 398.8Q626.8 400.3 629.2 400.3ZM650.8 405L645.0 405L645.0 380.2L650.8 380.2L650.8 383.9L651.1 383.9Q651.7 382.2 652.7 380.9Q653.8 379.7 655.8 379.7L655.8 379.7Q659.4 379.7 660.2 383.9L660.2 383.9L660.5 383.9Q660.8 383.0 661.2 382.2Q661.6 381.5 662.3 380.9Q662.9 380.3 663.8 380.0Q664.6 379.7 665.8 379.7L665.8 379.7Q671.0 379.7 671.0 387.3L671.0 387.3L671.0 405L665.2 405L665.2 388.0Q665.2 386.3 664.6 385.6Q664.0 384.9 663.1 384.9L663.1 384.9Q662.2 384.9 661.5 385.5Q660.9 386.1 660.9 387.3L660.9 387.3L660.9 405L655.1 405L655.1 388.0Q655.1 386.3 654.6 385.6Q654.0 384.9 653.1 384.9L653.1 384.9Q652.1 384.9 651.4 385.5Q650.8 386.1 650.8 387.3L650.8 387.3L650.8 405ZM699.9 405L695.8 405Q693.6 405 692.2 403.9Q690.9 402.7 690.6 400.6L690.6 400.6L690.4 400.6Q689.7 403.1 687.7 404.3Q685.7 405.6 682.9 405.6L682.9 405.6Q679.3 405.6 677.1 403.6Q674.9 401.7 674.9 398.2L674.9 398.2Q674.9 394.3 677.7 392.4Q680.6 390.6 686.0 390.6L686.0 390.6L690.0 390.6L690.0 389.3Q690.0 387.1 689.0 386.0Q688.0 384.8 685.5 384.8L685.5 384.8Q683.2 384.8 681.9 385.7Q680.5 386.6 679.5 388.0L679.5 388.0L675.6 384.5Q676.8 382.4 679.5 381.0Q682.1 379.7 686.3 379.7L686.3 379.7Q691.4 379.7 694.3 382.0Q697.1 384.3 697.1 389.0L697.1 389.0L697.1 399.9L699.9 399.9L699.9 405ZM685.6 400.9L685.6 400.9Q687.4 400.9 688.7 400.0Q690.0 399.1 690.0 397.4L690.0 397.4L690.0 394.4L686.2 394.4Q681.9 394.4 681.9 397.3L681.9 397.3L681.9 398.3Q681.9 399.6 682.9 400.2Q683.9 400.9 685.6 400.9ZM711.4 405L704.3 405L704.3 380.2L711.4 380.2L711.4 384.7L711.7 384.7Q712.1 383.7 712.8 382.8Q713.4 381.9 714.3 381.2Q715.2 380.5 716.3 380.1Q717.5 379.7 719.0 379.7L719.0 379.7Q720.8 379.7 722.3 380.3Q723.8 380.9 724.8 382.1Q725.9 383.3 726.5 385.0Q727.1 386.7 727.1 389.0L727.1 389.0L727.1 405L720.0 405L720.0 389.9Q720.0 385.1 715.8 385.1L715.8 385.1Q715.0 385.1 714.2 385.3Q713.4 385.6 712.8 386.0Q712.1 386.5 711.8 387.1Q711.4 387.8 711.4 388.7L711.4 388.7L711.4 405Z M784.3 405L775.1 405Q771.3 405 769.4 403.0Q767.5 401.0 767.5 397.8L767.5 397.8L767.5 385.8L760.8 385.8L760.8 380.2L765.2 380.2Q766.8 380.2 767.4 379.6Q768.1 379.0 768.1 377.3L768.1 377.3L768.1 371.5L774.6 371.5L774.6 380.2L784.3 380.2L784.3 385.8L774.6 385.8L774.6 399.5L784.3 399.5L784.3 405ZM802 405.6L802 405.6Q799.1 405.6 796.8 404.7Q794.5 403.8 792.9 402.1Q791.3 400.4 790.4 398.0Q789.6 395.6 789.6 392.6L789.6 392.6Q789.6 389.6 790.4 387.2Q791.3 384.8 792.9 383.1Q794.5 381.4 796.8 380.5Q799.1 379.7 802 379.7L802 379.7Q804.9 379.7 807.2 380.5Q809.5 381.4 811.1 383.1Q812.7 384.8 813.6 387.2Q814.4 389.6 814.4 392.6L814.4 392.6Q814.4 395.6 813.6 398.0Q812.7 400.4 811.1 402.1Q809.5 403.8 807.2 404.7Q804.9 405.6 802 405.6ZM802 400.3L802 400.3Q804.4 400.3 805.7 398.8Q807.1 397.3 807.1 394.6L807.1 394.6L807.1 390.6Q807.1 387.9 805.7 386.4Q804.4 384.9 802 384.9L802 384.9Q799.6 384.9 798.3 386.4Q796.9 387.9 796.9 390.6L796.9 390.6L796.9 394.6Q796.9 397.3 798.3 398.8Q799.6 400.3 802 400.3Z M870.4 405L848.8 405L848.8 399.7L856 399.7L856 376.8L848.8 376.8L848.8 371.5L870.4 371.5L870.4 376.8L863.2 376.8L863.2 399.7L870.4 399.7L870.4 405ZM884.2 405L877.1 405L877.1 380.2L884.2 380.2L884.2 384.7L884.5 384.7Q884.9 383.7 885.6 382.8Q886.2 381.9 887.1 381.2Q888.0 380.5 889.1 380.1Q890.3 379.7 891.8 379.7L891.8 379.7Q893.6 379.7 895.1 380.3Q896.6 380.9 897.6 382.1Q898.7 383.3 899.3 385.0Q899.9 386.7 899.9 389.0L899.9 389.0L899.9 405L892.8 405L892.8 389.9Q892.8 385.1 888.6 385.1L888.6 385.1Q887.8 385.1 887.0 385.3Q886.2 385.6 885.6 386.0Q884.9 386.5 884.6 387.1Q884.2 387.8 884.2 388.7L884.2 388.7L884.2 405ZM928.3 405L919.1 405Q915.3 405 913.4 403.0Q911.5 401.0 911.5 397.8L911.5 397.8L911.5 385.8L904.8 385.8L904.8 380.2L909.2 380.2Q910.8 380.2 911.4 379.6Q912.1 379.0 912.1 377.3L912.1 377.3L912.1 371.5L918.6 371.5L918.6 380.2L928.3 380.2L928.3 385.8L918.6 385.8L918.6 399.5L928.3 399.5L928.3 405ZM946.7 405.6L946.7 405.6Q940.4 405.6 937.2 402.1Q934.0 398.7 934.0 392.7L934.0 392.7Q934.0 389.7 934.8 387.3Q935.7 384.8 937.2 383.1Q938.8 381.4 941.0 380.5Q943.3 379.7 946.0 379.7L946.0 379.7Q948.8 379.7 951.0 380.5Q953.2 381.4 954.8 383.1Q956.3 384.7 957.2 387.0Q958.0 389.4 958.0 392.2L958.0 392.2L958.0 394.3L941.1 394.3L941.1 394.8Q941.1 397.2 942.5 398.6Q944.0 400.1 946.9 400.1L946.9 400.1Q949.1 400.1 950.7 399.3Q952.3 398.4 953.4 397.0L953.4 397.0L957.3 401.2Q955.8 403.0 953.2 404.3Q950.7 405.6 946.7 405.6ZM946.1 384.7L946.1 384.7Q943.8 384.7 942.4 386.2Q941.1 387.6 941.1 390.0L941.1 390.0L941.1 390.4L951.0 390.4L951.0 390.0Q951.0 387.5 949.7 386.1Q948.4 384.7 946.1 384.7ZM988.4 407.5L988.4 407.5Q988.4 411.4 985.1 413.3Q981.8 415.2 974.7 415.2L974.7 415.2Q971.1 415.2 968.8 414.8Q966.5 414.4 965.1 413.6Q963.8 412.8 963.2 411.8Q962.7 410.7 962.7 409.5L962.7 409.5Q962.7 407.4 963.9 406.3Q965.2 405.2 967.4 404.6L967.4 404.6L967.4 404.3Q965.8 403.8 964.9 403.0Q964.0 402.1 964.0 400.4L964.0 400.4Q964.0 398.6 965.2 397.8Q966.4 396.9 968.4 396.4L968.4 396.4L968.4 396.1Q966.2 395.1 965.0 393.1Q963.8 391.2 963.8 388.5L963.8 388.5Q963.8 386.3 964.5 384.7Q965.3 383.0 966.7 381.9Q968.1 380.8 970.1 380.2Q972.1 379.7 974.5 379.7L974.5 379.7Q976.9 379.7 978.9 380.2L978.9 380.2L978.9 378.8Q978.9 377.4 979.9 376.4Q980.9 375.5 982.7 375.5L982.7 375.5L987.0 375.5L987.0 380.7L981.1 380.7L981.1 381.1Q983.1 382.2 984.2 384Q985.4 385.8 985.4 388.5L985.4 388.5Q985.4 390.6 984.6 392.3Q983.8 393.9 982.4 395.0Q980.9 396.2 979.0 396.7Q977.0 397.3 974.5 397.3L974.5 397.3Q973.4 397.3 972.4 397.2Q971.4 397.1 970.5 396.8L970.5 396.8Q970.0 397.1 969.6 397.6Q969.2 398.0 969.2 398.7L969.2 398.7Q969.2 399.2 969.5 399.6Q969.8 399.9 970.3 400.1Q970.8 400.2 971.5 400.3Q972.2 400.3 972.9 400.3L972.9 400.3L978.5 400.3Q981.2 400.3 983.1 400.9Q984.9 401.4 986.1 402.4Q987.3 403.3 987.9 404.6Q988.4 405.9 988.4 407.5ZM981.7 408.0L981.7 408.0Q981.7 407.1 980.9 406.5Q980.1 406.0 978.0 406.0L978.0 406.0L969.5 406.0Q968.5 406.8 968.5 408.0L968.5 408.0Q968.5 409.1 969.5 409.9Q970.5 410.6 972.8 410.6L972.8 410.6L977.0 410.6Q979.5 410.6 980.6 409.9Q981.7 409.3 981.7 408.0ZM974.5 392.8L974.5 392.8Q976.7 392.8 977.7 391.8Q978.6 390.7 978.6 389.1L978.6 389.1L978.6 387.9Q978.6 386.3 977.7 385.2Q976.7 384.2 974.5 384.2L974.5 384.2Q972.4 384.2 971.4 385.2Q970.5 386.3 970.5 387.9L970.5 387.9L970.5 389.1Q970.5 390.7 971.4 391.8Q972.4 392.8 974.5 392.8ZM1004.3 405.6L1004.3 405.6Q998.0 405.6 994.8 402.1Q991.6 398.7 991.6 392.7L991.6 392.7Q991.6 389.7 992.4 387.3Q993.3 384.8 994.8 383.1Q996.4 381.4 998.6 380.5Q1000.9 379.7 1003.6 379.7L1003.6 379.7Q1006.4 379.7 1008.6 380.5Q1010.8 381.4 1012.4 383.1Q1013.9 384.7 1014.8 387.0Q1015.6 389.4 1015.6 392.2L1015.6 392.2L1015.6 394.3L998.7 394.3L998.7 394.8Q998.7 397.2 1000.1 398.6Q1001.6 400.1 1004.5 400.1L1004.5 400.1Q1006.7 400.1 1008.3 399.3Q1009.9 398.4 1011.0 397.0L1011.0 397.0L1014.9 401.2Q1013.4 403.0 1010.8 404.3Q1008.3 405.6 1004.3 405.6ZM1003.7 384.7L1003.7 384.7Q1001.4 384.7 1000.0 386.2Q998.7 387.6 998.7 390.0L998.7 390.0L998.7 390.4L1008.6 390.4L1008.6 390.0Q1008.6 387.5 1007.3 386.1Q1006.0 384.7 1003.7 384.7ZM1021.6 405L1021.6 399.5L1027.3 399.5L1027.3 385.8L1021.6 385.8L1021.6 380.2L1034.4 380.2L1034.4 387.2L1034.7 387.2Q1035.0 385.9 1035.6 384.6Q1036.2 383.4 1037.2 382.4Q1038.1 381.4 1039.5 380.8Q1040.8 380.2 1042.6 380.2L1042.6 380.2L1045.0 380.2L1045.0 386.8L1039.7 386.8Q1037.1 386.8 1035.7 388.3Q1034.4 389.9 1034.4 392.1L1034.4 392.1L1034.4 399.5L1042.5 399.5L1042.5 405L1021.6 405Z "/></g></svg>