<svg width="1200" height="630" viewBox="0 0 1200 630" xmlns="http://www.w3.org/2000/svg"><defs><pattern id="satori_pattern_id_1" x="0" y="0" width="0.08333333333333333" height="0.15873015873015872" patternUnits="objectBoundingBox"><radialGradient id="satori_radial_id_1" spreadMethod="pad"><stop offset="0" stop-color="lightgray"/><stop offset="0.03" stop-color="lightgray"/><stop offset="0" stop-color="transparent"/><stop offset="1" stop-color="transparent"/></radialGradient><mask id="satori_mask_id_1"><rect x="0" y="0" width="100" height="100" fill="#fff"/></mask><rect x="0" y="0" width="100" height="100" fill="transparent"/><circle cx="75" cy="75" width="100" height="100" r="106.06601717798213" fill="url(#satori_radial_id_1)" mask="url(#satori_mask_id_1)"/></pattern><pattern id="satori_pattern_id_0" x="0" y="0" width="0.08333333333333333" height="0.15873015873015872" patternUnits="objectBoundingBox"><radialGradient id="satori_radial_id_0" spreadMethod="pad"><stop offset="0" stop-color="lightgray"/><stop offset="0.03" stop-color="lightgray"/><stop offset="0" stop-color="transparent"/><stop offset="1" stop-color="transparent"/></radialGradient><mask id="satori_mask_id_0"><rect x="0" y="0" width="100" height="100" fill="#fff"/></mask><rect x="0" y="0" width="100" height="100" fill="transparent"/><circle cx="25" cy="25" width="100" height="100" r="106.06601717798213" fill="url(#satori_radial_id_0)" mask="url(#satori_mask_id_0)"/></pattern></defs><mask id="satori_om-id"><rect x="0" y="0" width="1200" height="630" fill="#fff"/></mask><rect x="0" y="0" width="1200" height="630" fill="white"/><rect x="0" y="0" width="1200" height="630" fill="url(#satori_pattern_id_1)"/><rect x="0" y="0" width="1200" height="630" fill="url(#satori_pattern_id_0)"/><mask id="satori_om-id-0"><rect x="0" y="182" width="1200" height="267" fill="#fff"/></mask><mask id="satori_om-id-0-0"><rect x="476" y="182" width="248" height="47" fill="#fff"/></mask><mask id="satori_om-id-0-0-0"><rect x="476" y="198" width="16" height="16" fill="#fff"/></mask><rect x="476" y="198" width="16" height="16" fill="black"/><mask id="satori_om-id-0-0-1"><rect x="508" y="182" width="216" height="47" fill="#fff"/></mask><g  ><path fill="black" d="M511.7 226.2L511.7 223.8L520.7 223.8L520.7 202.9L511.3 202.9L511.3 200.4L523.6 200.4L523.6 222.0Q523.6 223.8 522.6 225.0Q521.6 226.2 519.4 226.2L519.4 226.2L511.7 226.2ZM522.1 196.3L522.1 196.3Q520.9 196.3 520.3 195.8Q519.8 195.3 519.8 194.5L519.8 194.5L519.8 193.9Q519.8 193.1 520.3 192.6Q520.9 192.1 522.1 192.1L522.1 192.1Q523.4 192.1 523.9 192.6Q524.4 193.1 524.4 193.9L524.4 193.9L524.4 194.5Q524.4 195.3 523.9 195.8Q523.4 196.3 522.1 196.3ZM549.4 219L547.4 219Q545.7 219 545.0 218.1Q544.3 217.3 544.1 216.0L544.1 216.0L543.9 216.0Q543.3 217.6 542.0 218.5Q540.6 219.4 538.3 219.4L538.3 219.4Q535.4 219.4 533.7 217.9Q532.0 216.4 532.0 213.8L532.0 213.8Q532.0 211.2 533.9 209.8Q535.8 208.4 540.0 208.4L540.0 208.4L543.9 208.4L543.9 206.5Q543.9 204.5 542.8 203.5Q541.6 202.4 539.5 202.4L539.5 202.4Q537.6 202.4 536.4 203.2Q535.3 203.9 534.5 205.2L534.5 205.2L532.6 203.7Q532.9 203.0 533.6 202.3Q534.2 201.6 535.1 201.1Q536.0 200.6 537.1 200.3Q538.3 200.0 539.7 200.0L539.7 200.0Q543.0 200.0 544.9 201.6Q546.8 203.3 546.8 206.3L546.8 206.3L546.8 216.5L549.4 216.5L549.4 219ZM538.9 217.0L538.9 217.0Q540.0 217.0 540.9 216.8Q541.8 216.5 542.5 216.0Q543.2 215.6 543.6 214.9Q543.9 214.3 543.9 213.6L543.9 213.6L543.9 210.5L540.0 210.5Q537.4 210.5 536.2 211.3Q535 212.0 535 213.3L535 213.3L535 214.1Q535 215.5 536.0 216.3Q537.1 217.0 538.9 217.0ZM562.3 219.4L562.3 219.4Q560.3 219.4 558.7 218.7Q557.1 218.1 556.0 216.8Q554.8 215.5 554.2 213.7Q553.6 211.9 553.6 209.7L553.6 209.7Q553.6 207.5 554.2 205.7Q554.9 203.9 556.0 202.6Q557.1 201.4 558.7 200.7Q560.2 200.0 562.1 200.0L562.1 200.0Q564.0 200.0 565.5 200.7Q567.1 201.4 568.2 202.6Q569.2 203.8 569.8 205.4Q570.4 207.1 570.4 209.1L570.4 209.1L570.4 210.4L556.6 210.4L556.6 211.3Q556.6 212.5 557.0 213.6Q557.4 214.6 558.2 215.4Q558.9 216.1 560.0 216.5Q561.0 216.9 562.3 216.9L562.3 216.9Q564.2 216.9 565.6 216.1Q566.9 215.2 567.7 213.7L567.7 213.7L569.8 215.1Q568.9 217.0 567.0 218.2Q565.1 219.4 562.3 219.4ZM562.1 202.4L562.1 202.4Q561.0 202.4 559.9 202.8Q558.9 203.2 558.2 204.0Q557.5 204.7 557.1 205.8Q556.6 206.8 556.6 208.0L556.6 208.0L556.6 208.3L567.3 208.3L567.3 207.9Q567.3 206.7 566.9 205.6Q566.5 204.6 565.9 203.9Q565.2 203.2 564.3 202.8Q563.3 202.4 562.1 202.4ZM576.3 219L576.3 192.4L579.2 192.4L579.2 203.4L579.4 203.4Q579.6 202.8 580.1 202.1Q580.5 201.5 581.1 201.0Q581.8 200.6 582.6 200.3Q583.5 200.0 584.6 200.0L584.6 200.0Q587.6 200.0 589.3 201.8Q591.1 203.7 591.1 207.1L591.1 207.1L591.1 219L588.2 219L588.2 207.6Q588.2 205.0 587.1 203.8Q586.0 202.5 583.8 202.5L583.8 202.5Q583.0 202.5 582.1 202.8Q581.3 203.0 580.6 203.4Q580.0 203.8 579.6 204.5Q579.2 205.2 579.2 206.1L579.2 206.1L579.2 219L576.3 219ZM605.5 219.4L605.5 219.4Q603.5 219.4 601.9 218.7Q600.3 218.1 599.2 216.8Q598.0 215.5 597.4 213.7Q596.8 211.9 596.8 209.7L596.8 209.7Q596.8 207.5 597.4 205.7Q598.1 203.9 599.2 202.6Q600.3 201.4 601.9 200.7Q603.4 200.0 605.3 200.0L605.3 200.0Q607.2 200.0 608.7 200.7Q610.3 201.4 611.4 202.6Q612.4 203.8 613.0 205.4Q613.6 207.1 613.6 209.1L613.6 209.1L613.6 210.4L599.8 210.4L599.8 211.3Q599.8 212.5 600.2 213.6Q600.6 214.6 601.4 215.4Q602.1 216.1 603.2 216.5Q604.2 216.9 605.5 216.9L605.5 216.9Q607.4 216.9 608.8 216.1Q610.1 215.2 610.9 213.7L610.9 213.7L613.0 215.1Q612.1 217.0 610.2 218.2Q608.3 219.4 605.5 219.4ZM605.3 202.4L605.3 202.4Q604.2 202.4 603.1 202.8Q602.1 203.2 601.4 204.0Q600.7 204.7 600.3 205.8Q599.8 206.8 599.8 208.0L599.8 208.0L599.8 208.3L610.5 208.3L610.5 207.9Q610.5 206.7 610.1 205.6Q609.7 204.6 609.1 203.9Q608.4 203.2 607.5 202.8Q606.5 202.4 605.3 202.4ZM627.1 219.4L627.1 219.4Q625.1 219.4 623.5 218.7Q621.9 218.1 620.8 216.8Q619.6 215.5 619.0 213.7Q618.4 211.9 618.4 209.7L618.4 209.7Q618.4 207.5 619.0 205.7Q619.7 203.9 620.8 202.6Q621.9 201.4 623.5 200.7Q625.0 200.0 626.9 200.0L626.9 200.0Q628.8 200.0 630.3 200.7Q631.9 201.4 633.0 202.6Q634.0 203.8 634.6 205.4Q635.2 207.1 635.2 209.1L635.2 209.1L635.2 210.4L621.4 210.4L621.4 211.3Q621.4 212.5 621.8 213.6Q622.2 214.6 623.0 215.4Q623.7 216.1 624.8 216.5Q625.8 216.9 627.1 216.9L627.1 216.9Q629.0 216.9 630.4 216.1Q631.7 215.2 632.5 213.7L632.5 213.7L634.6 215.1Q633.7 217.0 631.8 218.2Q629.9 219.4 627.1 219.4ZM626.9 202.4L626.9 202.4Q625.8 202.4 624.7 202.8Q623.7 203.2 623.0 204.0Q622.3 204.7 621.9 205.8Q621.4 206.8 621.4 208.0L621.4 208.0L621.4 208.3L632.1 208.3L632.1 207.9Q632.1 206.7 631.7 205.6Q631.3 204.6 630.7 203.9Q630.0 203.2 629.1 202.8Q628.1 202.4 626.9 202.4ZM648.4 219.3L648.4 219.3Q646.9 219.3 646.3 218.7Q645.7 218.1 645.7 217.2L645.7 217.2L645.7 216.5Q645.7 215.6 646.3 215.0Q646.9 214.4 648.4 214.4L648.4 214.4Q649.9 214.4 650.5 215.0Q651.1 215.6 651.1 216.5L651.1 216.5L651.1 217.2Q651.1 218.1 650.5 218.7Q649.9 219.3 648.4 219.3ZM674.5 219L674.5 216.0L674.4 216.0Q672.6 219.4 668.6 219.4L668.6 219.4Q665.2 219.4 663.3 216.9Q661.4 214.3 661.4 209.7L661.4 209.7Q661.4 205.1 663.3 202.5Q665.2 200.0 668.6 200.0L668.6 200.0Q672.6 200.0 674.4 203.4L674.4 203.4L674.5 203.4L674.5 192.4L677.4 192.4L677.4 219L674.5 219ZM669.7 216.9L669.7 216.9Q670.7 216.9 671.6 216.6Q672.4 216.4 673.1 215.9Q673.7 215.4 674.1 214.7Q674.5 214.0 674.5 213.1L674.5 213.1L674.5 206.4Q674.5 205.4 674.1 204.7Q673.7 204.0 673.1 203.5Q672.4 203.1 671.6 202.8Q670.7 202.5 669.7 202.5L669.7 202.5Q667.2 202.5 665.8 204.1Q664.5 205.6 664.5 208.1L664.5 208.1L664.5 211.3Q664.5 213.8 665.8 215.3Q667.2 216.9 669.7 216.9ZM691.9 219.4L691.9 219.4Q689.9 219.4 688.3 218.7Q686.7 218.1 685.6 216.8Q684.4 215.5 683.8 213.7Q683.2 211.9 683.2 209.7L683.2 209.7Q683.2 207.5 683.8 205.7Q684.5 203.9 685.6 202.6Q686.7 201.4 688.3 200.7Q689.8 200.0 691.7 200.0L691.7 200.0Q693.6 200.0 695.1 200.7Q696.7 201.4 697.8 202.6Q698.8 203.8 699.4 205.4Q700.0 207.1 700.0 209.1L700.0 209.1L700.0 210.4L686.2 210.4L686.2 211.3Q686.2 212.5 686.6 213.6Q687.0 214.6 687.8 215.4Q688.5 216.1 689.6 216.5Q690.6 216.9 691.9 216.9L691.9 216.9Q693.8 216.9 695.2 216.1Q696.5 215.2 697.3 213.7L697.3 213.7L699.4 215.1Q698.5 217.0 696.6 218.2Q694.7 219.4 691.9 219.4ZM691.7 202.4L691.7 202.4Q690.6 202.4 689.5 202.8Q688.5 203.2 687.8 204.0Q687.1 204.7 686.7 205.8Q686.2 206.8 686.2 208.0L686.2 208.0L686.2 208.3L696.9 208.3L696.9 207.9Q696.9 206.7 696.5 205.6Q696.1 204.6 695.5 203.9Q694.8 203.2 693.9 202.8Q692.9 202.4 691.7 202.4ZM715.0 219L711.4 219L704.7 200.4L707.6 200.4L710.3 208.2L713.2 216.6L713.3 216.6L716.2 208.2L718.9 200.4L721.7 200.4L715.0 219Z "/></g><mask id="satori_om-id-0-1"><rect x="0" y="325" width="1200" height="124" fill="#fff"/></mask><g  ><path fill="black" d="M64.1 374L42.4 374L42.4 340.5L49.7 340.5L49.7 368.1L64.1 368.1L64.1 374ZM81.9 374.6L81.9 374.6Q75.6 374.6 72.4 371.1Q69.2 367.7 69.2 361.7L69.2 361.7Q69.2 358.7 70.0 356.3Q70.9 353.8 72.4 352.1Q74 350.4 76.2 349.5Q78.5 348.7 81.2 348.7L81.2 348.7Q84.0 348.7 86.2 349.5Q88.4 350.4 90.0 352.1Q91.5 353.7 92.4 356.0Q93.2 358.4 93.2 361.2L93.2 361.2L93.2 363.3L76.3 363.3L76.3 363.8Q76.3 366.2 77.7 367.6Q79.2 369.1 82.1 369.1L82.1 369.1Q84.3 369.1 85.9 368.3Q87.5 367.4 88.6 366.0L88.6 366.0L92.5 370.2Q91.0 372.0 88.4 373.3Q85.9 374.6 81.9 374.6ZM81.3 353.7L81.3 353.7Q79.0 353.7 77.6 355.2Q76.3 356.6 76.3 359.0L76.3 359.0L76.3 359.4L86.2 359.4L86.2 359.0Q86.2 356.5 84.9 355.1Q83.6 353.7 81.3 353.7ZM110.7 374.6L110.7 374.6Q104.4 374.6 101.2 371.1Q98 367.7 98 361.7L98 361.7Q98 358.7 98.8 356.3Q99.7 353.8 101.2 352.1Q102.8 350.4 105.0 349.5Q107.3 348.7 110.0 348.7L110.0 348.7Q112.8 348.7 115.0 349.5Q117.2 350.4 118.8 352.1Q120.3 353.7 121.2 356.0Q122 358.4 122 361.2L122 361.2L122 363.3L105.1 363.3L105.1 363.8Q105.1 366.2 106.5 367.6Q108.0 369.1 110.9 369.1L110.9 369.1Q113.1 369.1 114.7 368.3Q116.3 367.4 117.4 366.0L117.4 366.0L121.3 370.2Q119.8 372.0 117.2 373.3Q114.7 374.6 110.7 374.6ZM110.1 353.7L110.1 353.7Q107.8 353.7 106.4 355.2Q105.1 356.6 105.1 359.0L105.1 359.0L105.1 359.4L115.0 359.4L115.0 359.0Q115.0 356.5 113.7 355.1Q112.4 353.7 110.1 353.7ZM149.9 374L140.7 374Q136.9 374 135.0 372.0Q133.1 370.0 133.1 366.8L133.1 366.8L133.1 354.8L126.4 354.8L126.4 349.2L130.8 349.2Q132.4 349.2 133.0 348.6Q133.7 348.0 133.7 346.3L133.7 346.3L133.7 340.5L140.2 340.5L140.2 349.2L149.9 349.2L149.9 354.8L140.2 354.8L140.2 368.5L149.9 368.5L149.9 374ZM168.4 374.6L168.4 374.6Q161.6 374.6 158.4 370.0Q155.2 365.5 155.2 357.2L155.2 357.2Q155.2 349.0 158.4 344.5Q161.6 339.9 168.4 339.9L168.4 339.9Q171.0 339.9 173.0 340.6Q174.9 341.3 176.4 342.6Q177.8 343.8 178.8 345.6Q179.7 347.4 180.2 349.6L180.2 349.6L173.5 351.2Q173.2 350 172.8 349.0Q172.4 348.0 171.8 347.3Q171.2 346.5 170.4 346.1Q169.5 345.7 168.2 345.7L168.2 345.7Q165.3 345.7 164.1 348.0Q162.8 350.3 162.8 354.3L162.8 354.3L162.8 360.2Q162.8 364.2 164.1 366.5Q165.3 368.8 168.2 368.8L168.2 368.8Q170.7 368.8 171.8 367.2Q173.0 365.7 173.5 363.3L173.5 363.3L180.2 364.9Q179.7 367.1 178.8 368.9Q177.8 370.7 176.4 372.0Q174.9 373.2 173.0 373.9Q171.0 374.6 168.4 374.6ZM196.4 374.6L196.4 374.6Q193.5 374.6 191.2 373.7Q188.9 372.8 187.3 371.1Q185.7 369.4 184.8 367.0Q184.0 364.6 184.0 361.6L184.0 361.6Q184.0 358.6 184.8 356.2Q185.7 353.8 187.3 352.1Q188.9 350.4 191.2 349.5Q193.5 348.7 196.4 348.7L196.4 348.7Q199.3 348.7 201.6 349.5Q203.9 350.4 205.5 352.1Q207.1 353.8 208.0 356.2Q208.8 358.6 208.8 361.6L208.8 361.6Q208.8 364.6 208.0 367.0Q207.1 369.4 205.5 371.1Q203.9 372.8 201.6 373.7Q199.3 374.6 196.4 374.6ZM196.4 369.3L196.4 369.3Q198.8 369.3 200.1 367.8Q201.5 366.3 201.5 363.6L201.5 363.6L201.5 359.6Q201.5 356.9 200.1 355.4Q198.8 353.9 196.4 353.9L196.4 353.9Q194 353.9 192.7 355.4Q191.3 356.9 191.3 359.6L191.3 359.6L191.3 363.6Q191.3 366.3 192.7 367.8Q194 369.3 196.4 369.3ZM229.7 374L229.7 369.5L229.3 369.5Q228.4 371.7 226.7 373.2Q225.0 374.6 222.0 374.6L222.0 374.6Q219.9 374.6 218.2 373.8Q216.5 373.0 215.3 371.5Q214.1 369.9 213.4 367.4Q212.7 365.0 212.7 361.6L212.7 361.6Q212.7 358.3 213.4 355.8Q214.1 353.4 215.3 351.8Q216.5 350.2 218.2 349.4Q219.9 348.7 222.0 348.7L222.0 348.7Q223.5 348.7 224.6 349.0Q225.8 349.4 226.7 350.1Q227.6 350.8 228.2 351.7Q228.8 352.6 229.3 353.7L229.3 353.7L229.7 353.7L229.7 338.5L236.8 338.5L236.8 374L229.7 374ZM225.1 369.1L225.1 369.1Q226.9 369.1 228.3 368.1Q229.7 367.2 229.7 365.3L229.7 365.3L229.7 358.0Q229.7 356 228.3 355.1Q226.9 354.2 225.1 354.2L225.1 354.2Q222.7 354.2 221.4 355.6Q220.1 357.1 220.1 359.7L220.1 359.7L220.1 363.5Q220.1 366.1 221.4 367.6Q222.7 369.1 225.1 369.1ZM254.7 374.6L254.7 374.6Q248.4 374.6 245.2 371.1Q242 367.7 242 361.7L242 361.7Q242 358.7 242.8 356.3Q243.7 353.8 245.2 352.1Q246.8 350.4 249.0 349.5Q251.3 348.7 254.0 348.7L254.0 348.7Q256.8 348.7 259.0 349.5Q261.2 350.4 262.8 352.1Q264.3 353.7 265.2 356.0Q266 358.4 266 361.2L266 361.2L266 363.3L249.1 363.3L249.1 363.8Q249.1 366.2 250.5 367.6Q252.0 369.1 254.9 369.1L254.9 369.1Q257.1 369.1 258.7 368.3Q260.3 367.4 261.4 366.0L261.4 366.0L265.3 370.2Q263.8 372.0 261.2 373.3Q258.7 374.6 254.7 374.6ZM254.1 353.7L254.1 353.7Q251.8 353.7 250.4 355.2Q249.1 356.6 249.1 359.0L249.1 359.0L249.1 359.4L259.0 359.4L259.0 359.0Q259.0 356.5 257.7 355.1Q256.4 353.7 254.1 353.7Z M320.1 362.8L304.7 362.8L304.7 356.0L320.1 356.0L320.1 362.8Z M382.8 374L359.5 374L359.5 368.2L368.5 368.2L368.5 345.7L368.1 345.7L361.3 354.7L356.7 351.1L364.7 340.5L375.7 340.5L375.7 368.2L382.8 368.2L382.8 374ZM399.3 374L391.7 374L403.2 346.4L392.3 346.4L392.3 352.4L386.2 352.4L386.2 340.5L410.3 340.5L410.3 346.7L399.3 374ZM427 374.6L427 374.6Q424.3 374.6 423.1 373.4Q422.0 372.2 422.0 370.6L422.0 370.6L422.0 368.9Q422.0 367.3 423.1 366.1Q424.3 364.9 427 364.9L427 364.9Q429.7 364.9 430.9 366.1Q432.0 367.3 432.0 368.9L432.0 368.9L432.0 370.6Q432.0 372.2 430.9 373.4Q429.7 374.6 427 374.6Z M496.1 374L474.4 374L474.4 340.5L481.7 340.5L481.7 368.1L496.1 368.1L496.1 374ZM513.9 374.6L513.9 374.6Q507.6 374.6 504.4 371.1Q501.2 367.7 501.2 361.7L501.2 361.7Q501.2 358.7 502.0 356.3Q502.9 353.8 504.4 352.1Q506 350.4 508.2 349.5Q510.5 348.7 513.2 348.7L513.2 348.7Q516.0 348.7 518.2 349.5Q520.4 350.4 522.0 352.1Q523.5 353.7 524.4 356.0Q525.2 358.4 525.2 361.2L525.2 361.2L525.2 363.3L508.3 363.3L508.3 363.8Q508.3 366.2 509.7 367.6Q511.2 369.1 514.1 369.1L514.1 369.1Q516.3 369.1 517.9 368.3Q519.5 367.4 520.6 366.0L520.6 366.0L524.5 370.2Q523.0 372.0 520.4 373.3Q517.9 374.6 513.9 374.6ZM513.3 353.7L513.3 353.7Q511.0 353.7 509.6 355.2Q508.3 356.6 508.3 359.0L508.3 359.0L508.3 359.4L518.2 359.4L518.2 359.0Q518.2 356.5 516.9 355.1Q515.6 353.7 513.3 353.7ZM553.1 374L543.9 374Q540.1 374 538.2 372.0Q536.3 370.0 536.3 366.8L536.3 366.8L536.3 354.8L529.6 354.8L529.6 349.2L534.0 349.2Q535.6 349.2 536.2 348.6Q536.9 348.0 536.9 346.3L536.9 346.3L536.9 340.5L543.4 340.5L543.4 349.2L553.1 349.2L553.1 354.8L543.4 354.8L543.4 368.5L553.1 368.5L553.1 374ZM581.9 374L572.7 374Q568.9 374 567.0 372.0Q565.1 370.0 565.1 366.8L565.1 366.8L565.1 354.8L558.4 354.8L558.4 349.2L562.8 349.2Q564.4 349.2 565.0 348.6Q565.7 348.0 565.7 346.3L565.7 346.3L565.7 340.5L572.2 340.5L572.2 349.2L581.9 349.2L581.9 354.8L572.2 354.8L572.2 368.5L581.9 368.5L581.9 374ZM600.3 374.6L600.3 374.6Q594.0 374.6 590.8 371.1Q587.6 367.7 587.6 361.7L587.6 361.7Q587.6 358.7 588.4 356.3Q589.3 353.8 590.8 352.1Q592.4 350.4 594.6 349.5Q596.9 348.7 599.6 348.7L599.6 348.7Q602.4 348.7 604.6 349.5Q606.8 350.4 608.4 352.1Q609.9 353.7 610.8 356.0Q611.6 358.4 611.6 361.2L611.6 361.2L611.6 363.3L594.7 363.3L594.7 363.8Q594.7 366.2 596.1 367.6Q597.6 369.1 600.5 369.1L600.5 369.1Q602.7 369.1 604.3 368.3Q605.9 367.4 607.0 366.0L607.0 366.0L610.9 370.2Q609.4 372.0 606.8 373.3Q604.3 374.6 600.3 374.6ZM599.7 353.7L599.7 353.7Q597.4 353.7 596.0 355.2Q594.7 356.6 594.7 359.0L594.7 359.0L594.7 359.4L604.6 359.4L604.6 359.0Q604.6 356.5 603.3 355.1Q602 353.7 599.7 353.7ZM617.6 374L617.6 368.5L623.3 368.5L623.3 354.8L617.6 354.8L617.6 349.2L630.4 349.2L630.4 356.2L630.7 356.2Q631.0 354.9 631.6 353.6Q632.2 352.4 633.2 351.4Q634.1 350.4 635.5 349.8Q636.8 349.2 638.6 349.2L638.6 349.2L641.0 349.2L641.0 355.8L635.7 355.8Q633.1 355.8 631.7 357.3Q630.4 358.9 630.4 361.1L630.4 361.1L630.4 368.5L638.5 368.5L638.5 374L617.6 374Z M687.2 374.6L687.2 374.6Q680.4 374.6 677.2 370.0Q674.0 365.5 674.0 357.2L674.0 357.2Q674.0 349.0 677.2 344.5Q680.4 339.9 687.2 339.9L687.2 339.9Q689.8 339.9 691.8 340.6Q693.7 341.3 695.2 342.6Q696.6 343.8 697.6 345.6Q698.5 347.4 699.0 349.6L699.0 349.6L692.3 351.2Q692.0 350 691.6 349.0Q691.2 348.0 690.6 347.3Q690.0 346.5 689.2 346.1Q688.3 345.7 687.0 345.7L687.0 345.7Q684.1 345.7 682.9 348.0Q681.6 350.3 681.6 354.3L681.6 354.3L681.6 360.2Q681.6 364.2 682.9 366.5Q684.1 368.8 687.0 368.8L687.0 368.8Q689.5 368.8 690.6 367.2Q691.8 365.7 692.3 363.3L692.3 363.3L699.0 364.9Q698.5 367.1 697.6 368.9Q696.6 370.7 695.2 372.0Q693.7 373.2 691.8 373.9Q689.8 374.6 687.2 374.6ZM715.2 374.6L715.2 374.6Q712.3 374.6 710.0 373.7Q707.7 372.8 706.1 371.1Q704.5 369.4 703.6 367.0Q702.8 364.6 702.8 361.6L702.8 361.6Q702.8 358.6 703.6 356.2Q704.5 353.8 706.1 352.1Q707.7 350.4 710.0 349.5Q712.3 348.7 715.2 348.7L715.2 348.7Q718.1 348.7 720.4 349.5Q722.7 350.4 724.3 352.1Q725.9 353.8 726.8 356.2Q727.6 358.6 727.6 361.6L727.6 361.6Q727.6 364.6 726.8 367.0Q725.9 369.4 724.3 371.1Q722.7 372.8 720.4 373.7Q718.1 374.6 715.2 374.6ZM715.2 369.3L715.2 369.3Q717.6 369.3 718.9 367.8Q720.3 366.3 720.3 363.6L720.3 363.6L720.3 359.6Q720.3 356.9 718.9 355.4Q717.6 353.9 715.2 353.9L715.2 353.9Q712.8 353.9 711.5 355.4Q710.1 356.9 710.1 359.6L710.1 359.6L710.1 363.6Q710.1 366.3 711.5 367.8Q712.8 369.3 715.2 369.3ZM736.8 374L731.0 374L731.0 349.2L736.8 349.2L736.8 352.9L737.1 352.9Q737.7 351.2 738.7 349.9Q739.8 348.7 741.8 348.7L741.8 348.7Q745.4 348.7 746.2 352.9L746.2 352.9L746.5 352.9Q746.8 352.0 747.2 351.2Q747.6 350.5 748.3 349.9Q748.9 349.3 749.8 349.0Q750.6 348.7 751.8 348.7L751.8 348.7Q757.0 348.7 757.0 356.3L757.0 356.3L757.0 374L751.2 374L751.2 357.0Q751.2 355.3 750.6 354.6Q750.0 353.9 749.1 353.9L749.1 353.9Q748.2 353.9 747.5 354.5Q746.9 355.1 746.9 356.3L746.9 356.3L746.9 374L741.1 374L741.1 357.0Q741.1 355.3 740.6 354.6Q740.0 353.9 739.1 353.9L739.1 353.9Q738.1 353.9 737.4 354.5Q736.8 355.1 736.8 356.3L736.8 356.3L736.8 374ZM761.2 374L761.2 338.5L768.3 338.5L768.3 353.7L768.7 353.7Q769.6 351.5 771.3 350.1Q773.0 348.7 776.0 348.7L776.0 348.7Q778.1 348.7 779.8 349.4Q781.5 350.2 782.7 351.8Q783.9 353.4 784.6 355.8Q785.3 358.3 785.3 361.6L785.3 361.6Q785.3 365.0 784.6 367.4Q783.9 369.9 782.7 371.5Q781.5 373.0 779.8 373.8Q778.1 374.6 776.0 374.6L776.0 374.6Q773.0 374.6 771.3 373.2Q769.6 371.7 768.7 369.5L768.7 369.5L768.3 369.5L768.3 374L761.2 374ZM772.9 369.1L772.9 369.1Q775.3 369.1 776.6 367.6Q777.9 366.1 777.9 363.5L777.9 363.5L777.9 359.7Q777.9 357.1 776.6 355.6Q775.3 354.2 772.9 354.2L772.9 354.2Q771.1 354.2 769.7 355.1Q768.3 356 768.3 358.0L768.3 358.0L768.3 365.3Q768.3 367.2 769.7 368.1Q771.1 369.1 772.9 369.1ZM803.1 346.1L803.1 346.1Q800.7 346.1 799.8 345.1Q798.9 344.1 798.9 342.7L798.9 342.7L798.9 341.3Q798.9 339.9 799.8 338.9Q800.7 338.0 803.1 338.0L803.1 338.0Q805.5 338.0 806.5 338.9Q807.4 339.9 807.4 341.3L807.4 341.3L807.4 342.7Q807.4 344.1 806.5 345.1Q805.5 346.1 803.1 346.1ZM791.7 374L791.7 368.5L799.6 368.5L799.6 354.8L791.7 354.8L791.7 349.2L806.7 349.2L806.7 368.5L814.0 368.5L814.0 374L791.7 374ZM826.2 374L819.1 374L819.1 349.2L826.2 349.2L826.2 353.7L826.5 353.7Q826.9 352.7 827.6 351.8Q828.2 350.9 829.1 350.2Q830.0 349.5 831.1 349.1Q832.3 348.7 833.8 348.7L833.8 348.7Q835.6 348.7 837.1 349.3Q838.6 349.9 839.6 351.1Q840.7 352.3 841.3 354.0Q841.9 355.7 841.9 358.0L841.9 358.0L841.9 374L834.8 374L834.8 358.9Q834.8 354.1 830.6 354.1L830.6 354.1Q829.8 354.1 829.0 354.3Q828.2 354.6 827.6 355.0Q826.9 355.5 826.6 356.1Q826.2 356.8 826.2 357.7L826.2 357.7L826.2 374ZM872.3 374L868.2 374Q866.0 374 864.6 372.9Q863.3 371.7 863.0 369.6L863.0 369.6L862.8 369.6Q862.1 372.1 860.1 373.3Q858.1 374.6 855.3 374.6L855.3 374.6Q851.7 374.6 849.5 372.6Q847.3 370.7 847.3 367.2L847.3 367.2Q847.3 363.3 850.1 361.4Q853.0 359.6 858.4 359.6L858.4 359.6L862.4 359.6L862.4 358.3Q862.4 356.1 861.4 355.0Q860.4 353.8 857.9 353.8L857.9 353.8Q855.6 353.8 854.3 354.7Q852.9 355.6 851.9 357.0L851.9 357.0L848.0 353.5Q849.2 351.4 851.9 350.0Q854.5 348.7 858.7 348.7L858.7 348.7Q863.8 348.7 866.7 351.0Q869.5 353.3 869.5 358.0L869.5 358.0L869.5 368.9L872.3 368.9L872.3 374ZM858.0 369.9L858.0 369.9Q859.8 369.9 861.1 369.0Q862.4 368.1 862.4 366.4L862.4 366.4L862.4 363.4L858.6 363.4Q854.3 363.4 854.3 366.3L854.3 366.3L854.3 367.3Q854.3 368.6 855.3 369.2Q856.3 369.9 858.0 369.9ZM899.1 374L889.9 374Q886.1 374 884.2 372.0Q882.3 370.0 882.3 366.8L882.3 366.8L882.3 354.8L875.6 354.8L875.6 349.2L880.0 349.2Q881.6 349.2 882.2 348.6Q882.9 348.0 882.9 346.3L882.9 346.3L882.9 340.5L889.4 340.5L889.4 349.2L899.1 349.2L899.1 354.8L889.4 354.8L889.4 368.5L899.1 368.5L899.1 374ZM918.3 346.1L918.3 346.1Q915.9 346.1 915.0 345.1Q914.1 344.1 914.1 342.7L914.1 342.7L914.1 341.3Q914.1 339.9 915.0 338.9Q915.9 338.0 918.3 338.0L918.3 338.0Q920.7 338.0 921.7 338.9Q922.6 339.9 922.6 341.3L922.6 341.3L922.6 342.7Q922.6 344.1 921.7 345.1Q920.7 346.1 918.3 346.1ZM906.9 374L906.9 368.5L914.8 368.5L914.8 354.8L906.9 354.8L906.9 349.2L921.9 349.2L921.9 368.5L929.2 368.5L929.2 374L906.9 374ZM945.6 374.6L945.6 374.6Q942.7 374.6 940.4 373.7Q938.1 372.8 936.5 371.1Q934.9 369.4 934.0 367.0Q933.2 364.6 933.2 361.6L933.2 361.6Q933.2 358.6 934.0 356.2Q934.9 353.8 936.5 352.1Q938.1 350.4 940.4 349.5Q942.7 348.7 945.6 348.7L945.6 348.7Q948.5 348.7 950.8 349.5Q953.1 350.4 954.7 352.1Q956.3 353.8 957.2 356.2Q958.0 358.6 958.0 361.6L958.0 361.6Q958.0 364.6 957.2 367.0Q956.3 369.4 954.7 371.1Q953.1 372.8 950.8 373.7Q948.5 374.6 945.6 374.6ZM945.6 369.3L945.6 369.3Q948.0 369.3 949.3 367.8Q950.7 366.3 950.7 363.6L950.7 363.6L950.7 359.6Q950.7 356.9 949.3 355.4Q948.0 353.9 945.6 353.9L945.6 353.9Q943.2 353.9 941.9 355.4Q940.5 356.9 940.5 359.6L940.5 359.6L940.5 363.6Q940.5 366.3 941.9 367.8Q943.2 369.3 945.6 369.3ZM970.2 374L963.1 374L963.1 349.2L970.2 349.2L970.2 353.7L970.5 353.7Q970.9 352.7 971.6 351.8Q972.2 350.9 973.1 350.2Q974.0 349.5 975.1 349.1Q976.3 348.7 977.8 348.7L977.8 348.7Q979.6 348.7 981.1 349.3Q982.6 349.9 983.6 351.1Q984.7 352.3 985.3 354.0Q985.9 355.7 985.9 358.0L985.9 358.0L985.9 374L978.8 374L978.8 358.9Q978.8 354.1 974.6 354.1L974.6 354.1Q973.8 354.1 973.0 354.3Q972.2 354.6 971.6 355.0Q970.9 355.5 970.6 356.1Q970.2 356.8 970.2 357.7L970.2 357.7L970.2 374ZM1002.9 374.6L1002.9 374.6Q998.8 374.6 995.7 373.3Q992.7 372.1 991.2 369.9L991.2 369.9L995.1 366.2Q996.6 367.8 998.5 368.7Q1000.5 369.6 1003.0 369.6L1003.0 369.6Q1005.1 369.6 1006.3 368.9Q1007.5 368.3 1007.5 366.9L1007.5 366.9Q1007.5 365.9 1006.7 365.5Q1005.8 365.1 1004.4 364.8L1004.4 364.8L1000.4 364.2Q998.7 364.0 997.3 363.5Q995.9 363.0 994.8 362.1Q993.7 361.2 993.1 360.0Q992.5 358.7 992.5 357.0L992.5 357.0Q992.5 353.1 995.5 350.9Q998.4 348.7 1003.8 348.7L1003.8 348.7Q1007.5 348.7 1010.0 349.6Q1012.6 350.6 1014.1 352.4L1014.1 352.4L1010.6 356.5Q1009.5 355.3 1007.8 354.5Q1006.0 353.6 1003.6 353.6L1003.6 353.6Q999.5 353.6 999.5 356.1L999.5 356.1Q999.5 357.2 1000.3 357.7Q1001.1 358.1 1002.5 358.3L1002.5 358.3L1006.5 358.9Q1008.1 359.2 1009.6 359.7Q1011.0 360.2 1012.1 361.0Q1013.2 361.9 1013.8 363.2Q1014.4 364.4 1014.4 366.2L1014.4 366.2Q1014.4 370.1 1011.4 372.3Q1008.4 374.6 1002.9 374.6Z M1060.4 374.6L1060.4 374.6Q1057.5 374.6 1055.2 373.7Q1052.9 372.8 1051.3 371.1Q1049.7 369.4 1048.8 367.0Q1048.0 364.6 1048.0 361.6L1048.0 361.6Q1048.0 358.6 1048.8 356.2Q1049.7 353.8 1051.3 352.1Q1052.9 350.4 1055.2 349.5Q1057.5 348.7 1060.4 348.7L1060.4 348.7Q1063.3 348.7 1065.6 349.5Q1067.9 350.4 1069.5 352.1Q1071.1 353.8 1072.0 356.2Q1072.8 358.6 1072.8 361.6L1072.8 361.6Q1072.8 364.6 1072.0 367.0Q1071.1 369.4 1069.5 371.1Q1067.9 372.8 1065.6 373.7Q1063.3 374.6 1060.4 374.6ZM1060.4 369.3L1060.4 369.3Q1062.8 369.3 1064.1 367.8Q1065.5 366.3 1065.5 363.6L1065.5 363.6L1065.5 359.6Q1065.5 356.9 1064.1 355.4Q1062.8 353.9 1060.4 353.9L1060.4 353.9Q1058 353.9 1056.7 355.4Q1055.3 356.9 1055.3 359.6L1055.3 359.6L1055.3 363.6Q1055.3 366.3 1056.7 367.8Q1058 369.3 1060.4 369.3ZM1078.2 374L1078.2 368.5L1085.5 368.5L1085.5 354.8L1077.7 354.8L1077.7 349.2L1085.5 349.2L1085.5 345.6Q1085.5 342.5 1087.4 340.5Q1089.2 338.5 1093.1 338.5L1093.1 338.5L1101.5 338.5L1101.5 344L1092.6 344L1092.6 349.2L1101.5 349.2L1101.5 354.8L1092.6 354.8L1092.6 368.5L1100.4 368.5L1100.4 374L1078.2 374Z M1160.5 374L1156.4 374Q1154.2 374 1152.8 372.9Q1151.5 371.7 1151.2 369.6L1151.2 369.6L1151 369.6Q1150.3 372.1 1148.3 373.3Q1146.3 374.6 1143.5 374.6L1143.5 374.6Q1139.9 374.6 1137.7 372.6Q1135.5 370.7 1135.5 367.2L1135.5 367.2Q1135.5 363.3 1138.3 361.4Q1141.2 359.6 1146.6 359.6L1146.6 359.6L1150.6 359.6L1150.6 358.3Q1150.6 356.1 1149.6 355.0Q1148.6 353.8 1146.1 353.8L1146.1 353.8Q1143.8 353.8 1142.5 354.7Q1141.1 355.6 1140.1 357.0L1140.1 357.0L1136.2 353.5Q1137.4 351.4 1140.1 350.0Q1142.7 348.7 1146.9 348.7L1146.9 348.7Q1152.0 348.7 1154.9 351.0Q1157.7 353.3 1157.7 358.0L1157.7 358.0L1157.7 368.9L1160.5 368.9L1160.5 374ZM1146.2 369.9L1146.2 369.9Q1148.0 369.9 1149.3 369.0Q1150.6 368.1 1150.6 366.4L1150.6 366.4L1150.6 363.4L1146.8 363.4Q1142.5 363.4 1142.5 366.3L1142.5 366.3L1142.5 367.3Q1142.5 368.6 1143.5 369.2Q1144.5 369.9 1146.2 369.9Z M437.9 436L430.6 436L430.6 402.5L443.6 402.5Q446.1 402.5 448.0 403.2Q449.9 404.0 451.2 405.4Q452.5 406.8 453.2 408.7Q453.9 410.7 453.9 413.2L453.9 413.2Q453.9 415.6 453.2 417.6Q452.5 419.5 451.2 420.9Q449.9 422.3 448.0 423.1Q446.1 423.8 443.6 423.8L443.6 423.8L437.9 423.8L437.9 436ZM437.9 408.3L437.9 418L441.8 418Q444.3 418 445.3 417.0Q446.3 416.1 446.3 413.9L446.3 413.9L446.3 412.4Q446.3 410.2 445.3 409.3Q444.3 408.3 441.8 408.3L441.8 408.3L437.9 408.3ZM458.9 436L458.9 400.5L466.0 400.5L466.0 415.7L466.3 415.7Q466.7 414.7 467.4 413.8Q468.0 412.9 468.9 412.2Q469.8 411.5 470.9 411.1Q472.1 410.7 473.6 410.7L473.6 410.7Q475.4 410.7 476.9 411.3Q478.4 411.9 479.4 413.1Q480.5 414.3 481.1 416.0Q481.7 417.7 481.7 420.0L481.7 420.0L481.7 436L474.6 436L474.6 420.9Q474.6 416.1 470.4 416.1L470.4 416.1Q469.6 416.1 468.8 416.3Q468.0 416.6 467.4 417.0Q466.7 417.5 466.4 418.1Q466.0 418.8 466.0 419.7L466.0 419.7L466.0 436L458.9 436ZM499 436.6L499 436.6Q496.1 436.6 493.8 435.7Q491.5 434.8 489.9 433.1Q488.3 431.4 487.4 429.0Q486.6 426.6 486.6 423.6L486.6 423.6Q486.6 420.6 487.4 418.2Q488.3 415.8 489.9 414.1Q491.5 412.4 493.8 411.5Q496.1 410.7 499 410.7L499 410.7Q501.9 410.7 504.2 411.5Q506.5 412.4 508.1 414.1Q509.7 415.8 510.6 418.2Q511.4 420.6 511.4 423.6L511.4 423.6Q511.4 426.6 510.6 429.0Q509.7 431.4 508.1 433.1Q506.5 434.8 504.2 435.7Q501.9 436.6 499 436.6ZM499 431.3L499 431.3Q501.4 431.3 502.7 429.8Q504.1 428.3 504.1 425.6L504.1 425.6L504.1 421.6Q504.1 418.9 502.7 417.4Q501.4 415.9 499 415.9L499 415.9Q496.6 415.9 495.3 417.4Q493.9 418.9 493.9 421.6L493.9 421.6L493.9 425.6Q493.9 428.3 495.3 429.8Q496.6 431.3 499 431.3ZM523.6 436L516.5 436L516.5 411.2L523.6 411.2L523.6 415.7L523.9 415.7Q524.3 414.7 525.0 413.8Q525.6 412.9 526.5 412.2Q527.4 411.5 528.5 411.1Q529.7 410.7 531.2 410.7L531.2 410.7Q533.0 410.7 534.5 411.3Q536.0 411.9 537.0 413.1Q538.1 414.3 538.7 416.0Q539.3 417.7 539.3 420.0L539.3 420.0L539.3 436L532.2 436L532.2 420.9Q532.2 416.1 528.0 416.1L528.0 416.1Q527.2 416.1 526.4 416.3Q525.6 416.6 525.0 417.0Q524.3 417.5 524.0 418.1Q523.6 418.8 523.6 419.7L523.6 419.7L523.6 436ZM557.3 436.6L557.3 436.6Q551.0 436.6 547.8 433.1Q544.6 429.7 544.6 423.7L544.6 423.7Q544.6 420.7 545.4 418.3Q546.3 415.8 547.8 414.1Q549.4 412.4 551.6 411.5Q553.9 410.7 556.6 410.7L556.6 410.7Q559.4 410.7 561.6 411.5Q563.8 412.4 565.4 414.1Q566.9 415.7 567.8 418.0Q568.6 420.4 568.6 423.2L568.6 423.2L568.6 425.3L551.7 425.3L551.7 425.8Q551.7 428.2 553.1 429.6Q554.6 431.1 557.5 431.1L557.5 431.1Q559.7 431.1 561.3 430.3Q562.9 429.4 564.0 428.0L564.0 428.0L567.9 432.2Q566.4 434.0 563.8 435.3Q561.3 436.6 557.3 436.6ZM556.7 415.7L556.7 415.7Q554.4 415.7 553.0 417.2Q551.7 418.6 551.7 421.0L551.7 421.0L551.7 421.4L561.6 421.4L561.6 421.0Q561.6 418.5 560.3 417.1Q559.0 415.7 556.7 415.7Z M617.2 436L609.6 413.7L609.1 413.7L609.1 436L602.9 436L602.9 402.5L611.6 402.5L619.2 424.8L619.7 424.8L619.7 402.5L625.9 402.5L625.9 436L617.2 436ZM647.4 436L647.4 431.5L647.1 431.5Q646.3 433.6 644.5 435.1Q642.8 436.6 639.8 436.6L639.8 436.6Q638.0 436.6 636.5 436.0Q635.0 435.4 634.0 434.2Q632.9 433.0 632.3 431.2Q631.7 429.5 631.7 427.3L631.7 427.3L631.7 411.2L638.8 411.2L638.8 426.3Q638.8 431.1 643.0 431.1L643.0 431.1Q643.8 431.1 644.6 430.9Q645.4 430.7 646.0 430.2Q646.6 429.8 647.0 429.1Q647.4 428.4 647.4 427.5L647.4 427.5L647.4 411.2L654.5 411.2L654.5 436L647.4 436ZM664.8 436L659.0 436L659.0 411.2L664.8 411.2L664.8 414.9L665.1 414.9Q665.7 413.2 666.7 411.9Q667.8 410.7 669.8 410.7L669.8 410.7Q673.4 410.7 674.2 414.9L674.2 414.9L674.5 414.9Q674.8 414.0 675.2 413.2Q675.6 412.5 676.3 411.9Q676.9 411.3 677.8 411.0Q678.6 410.7 679.8 410.7L679.8 410.7Q685.0 410.7 685.0 418.3L685.0 418.3L685.0 436L679.2 436L679.2 419.0Q679.2 417.3 678.6 416.6Q678.0 415.9 677.1 415.9L677.1 415.9Q676.2 415.9 675.5 416.5Q674.9 417.1 674.9 418.3L674.9 418.3L674.9 436L669.1 436L669.1 419.0Q669.1 417.3 668.6 416.6Q668.0 415.9 667.1 415.9L667.1 415.9Q666.1 415.9 665.4 416.5Q664.8 417.1 664.8 418.3L664.8 418.3L664.8 436ZM689.2 436L689.2 400.5L696.3 400.5L696.3 415.7L696.7 415.7Q697.6 413.5 699.3 412.1Q701.0 410.7 704.0 410.7L704.0 410.7Q706.1 410.7 707.8 411.4Q709.5 412.2 710.7 413.8Q711.9 415.4 712.6 417.8Q713.3 420.3 713.3 423.6L713.3 423.6Q713.3 427.0 712.6 429.4Q711.9 431.9 710.7 433.5Q709.5 435.0 707.8 435.8Q706.1 436.6 704.0 436.6L704.0 436.6Q701.0 436.6 699.3 435.2Q697.6 433.7 696.7 431.5L696.7 431.5L696.3 431.5L696.3 436L689.2 436ZM700.9 431.1L700.9 431.1Q703.3 431.1 704.6 429.6Q705.9 428.1 705.9 425.5L705.9 425.5L705.9 421.7Q705.9 419.1 704.6 417.6Q703.3 416.2 700.9 416.2L700.9 416.2Q699.1 416.2 697.7 417.1Q696.3 418 696.3 420.0L696.3 420.0L696.3 427.3Q696.3 429.2 697.7 430.1Q699.1 431.1 700.9 431.1ZM730.3 436.6L730.3 436.6Q724.0 436.6 720.8 433.1Q717.6 429.7 717.6 423.7L717.6 423.7Q717.6 420.7 718.4 418.3Q719.3 415.8 720.8 414.1Q722.4 412.4 724.6 411.5Q726.9 410.7 729.6 410.7L729.6 410.7Q732.4 410.7 734.6 411.5Q736.8 412.4 738.4 414.1Q739.9 415.7 740.8 418.0Q741.6 420.4 741.6 423.2L741.6 423.2L741.6 425.3L724.7 425.3L724.7 425.8Q724.7 428.2 726.1 429.6Q727.6 431.1 730.5 431.1L730.5 431.1Q732.7 431.1 734.3 430.3Q735.9 429.4 737.0 428.0L737.0 428.0L740.9 432.2Q739.4 434.0 736.8 435.3Q734.3 436.6 730.3 436.6ZM729.7 415.7L729.7 415.7Q727.4 415.7 726.0 417.2Q724.7 418.6 724.7 421.0L724.7 421.0L724.7 421.4L734.6 421.4L734.6 421.0Q734.6 418.5 733.3 417.1Q732.0 415.7 729.7 415.7ZM747.6 436L747.6 430.5L753.3 430.5L753.3 416.8L747.6 416.8L747.6 411.2L760.4 411.2L760.4 418.2L760.7 418.2Q761.0 416.9 761.6 415.6Q762.2 414.4 763.2 413.4Q764.1 412.4 765.5 411.8Q766.8 411.2 768.6 411.2L768.6 411.2L771.0 411.2L771.0 417.8L765.7 417.8Q763.1 417.8 761.7 419.3Q760.4 420.9 760.4 423.1L760.4 423.1L760.4 430.5L768.5 430.5L768.5 436L747.6 436Z "/></g></svg>