<svg width="1200" height="630" viewBox="0 0 1200 630" xmlns="http://www.w3.org/2000/svg"><defs><pattern id="satori_pattern_id_1" x="0" y="0" width="0.08333333333333333" height="0.15873015873015872" patternUnits="objectBoundingBox"><radialGradient id="satori_radial_id_1" spreadMethod="pad"><stop offset="0" stop-color="lightgray"/><stop offset="0.03" stop-color="lightgray"/><stop offset="0" stop-color="transparent"/><stop offset="1" stop-color="transparent"/></radialGradient><mask id="satori_mask_id_1"><rect x="0" y="0" width="100" height="100" fill="#fff"/></mask><rect x="0" y="0" width="100" height="100" fill="transparent"/><circle cx="75" cy="75" width="100" height="100" r="106.06601717798213" fill="url(#satori_radial_id_1)" mask="url(#satori_mask_id_1)"/></pattern><pattern id="satori_pattern_id_0" x="0" y="0" width="0.08333333333333333" height="0.15873015873015872" patternUnits="objectBoundingBox"><radialGradient id="satori_radial_id_0" spreadMethod="pad"><stop offset="0" stop-color="lightgray"/><stop offset="0.03" stop-color="lightgray"/><stop offset="0" stop-color="transparent"/><stop offset="1" stop-color="transparent"/></radialGradient><mask id="satori_mask_id_0"><rect x="0" y="0" width="100" height="100" fill="#fff"/></mask><rect x="0" y="0" width="100" height="100" fill="transparent"/><circle cx="25" cy="25" width="100" height="100" r="106.06601717798213" fill="url(#satori_radial_id_0)" mask="url(#satori_mask_id_0)"/></pattern></defs><mask id="satori_om-id"><rect x="0" y="0" width="1200" height="630" fill="#fff"/></mask><rect x="0" y="0" width="1200" height="630" fill="white"/><rect x="0" y="0" width="1200" height="630" fill="url(#satori_pattern_id_1)"/><rect x="0" y="0" width="1200" height="630" fill="url(#satori_pattern_id_0)"/><mask id="satori_om-id-0"><rect x="182" y="213" width="836" height="205" fill="#fff"/></mask><mask id="satori_om-id-0-0"><rect x="476" y="213" width="248" height="47" fill="#fff"/></mask><mask id="satori_om-id-0-0-0"><rect x="476" y="229" width="16" height="16" fill="#fff"/></mask><rect x="476" y="229" width="16" height="16" fill="black"/><mask id="satori_om-id-0-0-1"><rect x="508" y="213" width="216" height="47" fill="#fff"/></mask><g  ><path fill="black" d="M511.7 257.2L511.7 254.8L520.7 254.8L520.7 233.9L511.3 233.9L511.3 231.4L523.6 231.4L523.6 253.0Q523.6 254.8 522.6 256.0Q521.6 257.2 519.4 257.2L519.4 257.2L511.7 257.2ZM522.1 227.3L522.1 227.3Q520.9 227.3 520.3 226.8Q519.8 226.3 519.8 225.5L519.8 225.5L519.8 224.9Q519.8 224.1 520.3 223.6Q520.9 223.1 522.1 223.1L522.1 223.1Q523.4 223.1 523.9 223.6Q524.4 224.1 524.4 224.9L524.4 224.9L524.4 225.5Q524.4 226.3 523.9 226.8Q523.4 227.3 522.1 227.3ZM549.4 250L547.4 250Q545.7 250 545.0 249.1Q544.3 248.3 544.1 247.0L544.1 247.0L543.9 247.0Q543.3 248.6 542.0 249.5Q540.6 250.4 538.3 250.4L538.3 250.4Q535.4 250.4 533.7 248.9Q532.0 247.4 532.0 244.8L532.0 244.8Q532.0 242.2 533.9 240.8Q535.8 239.4 540.0 239.4L540.0 239.4L543.9 239.4L543.9 237.5Q543.9 235.5 542.8 234.5Q541.6 233.4 539.5 233.4L539.5 233.4Q537.6 233.4 536.4 234.2Q535.3 234.9 534.5 236.2L534.5 236.2L532.6 234.7Q532.9 234.0 533.6 233.3Q534.2 232.6 535.1 232.1Q536.0 231.6 537.1 231.3Q538.3 231.0 539.7 231.0L539.7 231.0Q543.0 231.0 544.9 232.6Q546.8 234.3 546.8 237.3L546.8 237.3L546.8 247.5L549.4 247.5L549.4 250ZM538.9 248.0L538.9 248.0Q540.0 248.0 540.9 247.8Q541.8 247.5 542.5 247.0Q543.2 246.6 543.6 245.9Q543.9 245.3 543.9 244.6L543.9 244.6L543.9 241.5L540.0 241.5Q537.4 241.5 536.2 242.3Q535 243.0 535 244.3L535 244.3L535 245.1Q535 246.5 536.0 247.3Q537.1 248.0 538.9 248.0ZM562.3 250.4L562.3 250.4Q560.3 250.4 558.7 249.7Q557.1 249.1 556.0 247.8Q554.8 246.5 554.2 244.7Q553.6 242.9 553.6 240.7L553.6 240.7Q553.6 238.5 554.2 236.7Q554.9 234.9 556.0 233.6Q557.1 232.4 558.7 231.7Q560.2 231.0 562.1 231.0L562.1 231.0Q564.0 231.0 565.5 231.7Q567.1 232.4 568.2 233.6Q569.2 234.8 569.8 236.4Q570.4 238.1 570.4 240.1L570.4 240.1L570.4 241.4L556.6 241.4L556.6 242.3Q556.6 243.5 557.0 244.6Q557.4 245.6 558.2 246.4Q558.9 247.1 560.0 247.5Q561.0 247.9 562.3 247.9L562.3 247.9Q564.2 247.9 565.6 247.1Q566.9 246.2 567.7 244.7L567.7 244.7L569.8 246.1Q568.9 248.0 567.0 249.2Q565.1 250.4 562.3 250.4ZM562.1 233.4L562.1 233.4Q561.0 233.4 559.9 233.8Q558.9 234.2 558.2 235.0Q557.5 235.7 557.1 236.8Q556.6 237.8 556.6 239.0L556.6 239.0L556.6 239.3L567.3 239.3L567.3 238.9Q567.3 237.7 566.9 236.6Q566.5 235.6 565.9 234.9Q565.2 234.2 564.3 233.8Q563.3 233.4 562.1 233.4ZM576.3 250L576.3 223.4L579.2 223.4L579.2 234.4L579.4 234.4Q579.6 233.8 580.1 233.1Q580.5 232.5 581.1 232.0Q581.8 231.6 582.6 231.3Q583.5 231.0 584.6 231.0L584.6 231.0Q587.6 231.0 589.3 232.8Q591.1 234.7 591.1 238.1L591.1 238.1L591.1 250L588.2 250L588.2 238.6Q588.2 236.0 587.1 234.8Q586.0 233.5 583.8 233.5L583.8 233.5Q583.0 233.5 582.1 233.8Q581.3 234.0 580.6 234.4Q580.0 234.8 579.6 235.5Q579.2 236.2 579.2 237.1L579.2 237.1L579.2 250L576.3 250ZM605.5 250.4L605.5 250.4Q603.5 250.4 601.9 249.7Q600.3 249.1 599.2 247.8Q598.0 246.5 597.4 244.7Q596.8 242.9 596.8 240.7L596.8 240.7Q596.8 238.5 597.4 236.7Q598.1 234.9 599.2 233.6Q600.3 232.4 601.9 231.7Q603.4 231.0 605.3 231.0L605.3 231.0Q607.2 231.0 608.7 231.7Q610.3 232.4 611.4 233.6Q612.4 234.8 613.0 236.4Q613.6 238.1 613.6 240.1L613.6 240.1L613.6 241.4L599.8 241.4L599.8 242.3Q599.8 243.5 600.2 244.6Q600.6 245.6 601.4 246.4Q602.1 247.1 603.2 247.5Q604.2 247.9 605.5 247.9L605.5 247.9Q607.4 247.9 608.8 247.1Q610.1 246.2 610.9 244.7L610.9 244.7L613.0 246.1Q612.1 248.0 610.2 249.2Q608.3 250.4 605.5 250.4ZM605.3 233.4L605.3 233.4Q604.2 233.4 603.1 233.8Q602.1 234.2 601.4 235.0Q600.7 235.7 600.3 236.8Q599.8 237.8 599.8 239.0L599.8 239.0L599.8 239.3L610.5 239.3L610.5 238.9Q610.5 237.7 610.1 236.6Q609.7 235.6 609.1 234.9Q608.4 234.2 607.5 233.8Q606.5 233.4 605.3 233.4ZM627.1 250.4L627.1 250.4Q625.1 250.4 623.5 249.7Q621.9 249.1 620.8 247.8Q619.6 246.5 619.0 244.7Q618.4 242.9 618.4 240.7L618.4 240.7Q618.4 238.5 619.0 236.7Q619.7 234.9 620.8 233.6Q621.9 232.4 623.5 231.7Q625.0 231.0 626.9 231.0L626.9 231.0Q628.8 231.0 630.3 231.7Q631.9 232.4 633.0 233.6Q634.0 234.8 634.6 236.4Q635.2 238.1 635.2 240.1L635.2 240.1L635.2 241.4L621.4 241.4L621.4 242.3Q621.4 243.5 621.8 244.6Q622.2 245.6 623.0 246.4Q623.7 247.1 624.8 247.5Q625.8 247.9 627.1 247.9L627.1 247.9Q629.0 247.9 630.4 247.1Q631.7 246.2 632.5 244.7L632.5 244.7L634.6 246.1Q633.7 248.0 631.8 249.2Q629.9 250.4 627.1 250.4ZM626.9 233.4L626.9 233.4Q625.8 233.4 624.7 233.8Q623.7 234.2 623.0 235.0Q622.3 235.7 621.9 236.8Q621.4 237.8 621.4 239.0L621.4 239.0L621.4 239.3L632.1 239.3L632.1 238.9Q632.1 237.7 631.7 236.6Q631.3 235.6 630.7 234.9Q630.0 234.2 629.1 233.8Q628.1 233.4 626.9 233.4ZM648.4 250.3L648.4 250.3Q646.9 250.3 646.3 249.7Q645.7 249.1 645.7 248.2L645.7 248.2L645.7 247.5Q645.7 246.6 646.3 246.0Q646.9 245.4 648.4 245.4L648.4 245.4Q649.9 245.4 650.5 246.0Q651.1 246.6 651.1 247.5L651.1 247.5L651.1 248.2Q651.1 249.1 650.5 249.7Q649.9 250.3 648.4 250.3ZM674.5 250L674.5 247.0L674.4 247.0Q672.6 250.4 668.6 250.4L668.6 250.4Q665.2 250.4 663.3 247.9Q661.4 245.3 661.4 240.7L661.4 240.7Q661.4 236.1 663.3 233.5Q665.2 231.0 668.6 231.0L668.6 231.0Q672.6 231.0 674.4 234.4L674.4 234.4L674.5 234.4L674.5 223.4L677.4 223.4L677.4 250L674.5 250ZM669.7 247.9L669.7 247.9Q670.7 247.9 671.6 247.6Q672.4 247.4 673.1 246.9Q673.7 246.4 674.1 245.7Q674.5 245.0 674.5 244.1L674.5 244.1L674.5 237.4Q674.5 236.4 674.1 235.7Q673.7 235.0 673.1 234.5Q672.4 234.1 671.6 233.8Q670.7 233.5 669.7 233.5L669.7 233.5Q667.2 233.5 665.8 235.1Q664.5 236.6 664.5 239.1L664.5 239.1L664.5 242.3Q664.5 244.8 665.8 246.3Q667.2 247.9 669.7 247.9ZM691.9 250.4L691.9 250.4Q689.9 250.4 688.3 249.7Q686.7 249.1 685.6 247.8Q684.4 246.5 683.8 244.7Q683.2 242.9 683.2 240.7L683.2 240.7Q683.2 238.5 683.8 236.7Q684.5 234.9 685.6 233.6Q686.7 232.4 688.3 231.7Q689.8 231.0 691.7 231.0L691.7 231.0Q693.6 231.0 695.1 231.7Q696.7 232.4 697.8 233.6Q698.8 234.8 699.4 236.4Q700.0 238.1 700.0 240.1L700.0 240.1L700.0 241.4L686.2 241.4L686.2 242.3Q686.2 243.5 686.6 244.6Q687.0 245.6 687.8 246.4Q688.5 247.1 689.6 247.5Q690.6 247.9 691.9 247.9L691.9 247.9Q693.8 247.9 695.2 247.1Q696.5 246.2 697.3 244.7L697.3 244.7L699.4 246.1Q698.5 248.0 696.6 249.2Q694.7 250.4 691.9 250.4ZM691.7 233.4L691.7 233.4Q690.6 233.4 689.5 233.8Q688.5 234.2 687.8 235.0Q687.1 235.7 686.7 236.8Q686.2 237.8 686.2 239.0L686.2 239.0L686.2 239.3L696.9 239.3L696.9 238.9Q696.9 237.7 696.5 236.6Q696.1 235.6 695.5 234.9Q694.8 234.2 693.9 233.8Q692.9 233.4 691.7 233.4ZM715.0 250L711.4 250L704.7 231.4L707.6 231.4L710.3 239.2L713.2 247.6L713.3 247.6L716.2 239.2L718.9 231.4L721.7 231.4L715.0 250Z "/></g><mask id="satori_om-id-0-1"><rect x="182" y="356" width="836" height="62" fill="#fff"/></mask><g  ><path fill="black" d="M208.1 405L186.4 405L186.4 371.5L193.7 371.5L193.7 399.1L208.1 399.1L208.1 405ZM225.9 405.6L225.9 405.6Q219.6 405.6 216.4 402.1Q213.2 398.7 213.2 392.7L213.2 392.7Q213.2 389.7 214.0 387.3Q214.9 384.8 216.4 383.1Q218 381.4 220.2 380.5Q222.5 379.7 225.2 379.7L225.2 379.7Q228.0 379.7 230.2 380.5Q232.4 381.4 234.0 383.1Q235.5 384.7 236.4 387.0Q237.2 389.4 237.2 392.2L237.2 392.2L237.2 394.3L220.3 394.3L220.3 394.8Q220.3 397.2 221.7 398.6Q223.2 400.1 226.1 400.1L226.1 400.1Q228.3 400.1 229.9 399.3Q231.5 398.4 232.6 397.0L232.6 397.0L236.5 401.2Q235.0 403.0 232.4 404.3Q229.9 405.6 225.9 405.6ZM225.3 384.7L225.3 384.7Q223.0 384.7 221.6 386.2Q220.3 387.6 220.3 390.0L220.3 390.0L220.3 390.4L230.2 390.4L230.2 390.0Q230.2 387.5 228.9 386.1Q227.6 384.7 225.3 384.7ZM254.7 405.6L254.7 405.6Q248.4 405.6 245.2 402.1Q242.0 398.7 242.0 392.7L242.0 392.7Q242.0 389.7 242.8 387.3Q243.7 384.8 245.2 383.1Q246.8 381.4 249.0 380.5Q251.3 379.7 254.0 379.7L254.0 379.7Q256.8 379.7 259.0 380.5Q261.2 381.4 262.8 383.1Q264.3 384.7 265.2 387.0Q266 389.4 266 392.2L266 392.2L266 394.3L249.1 394.3L249.1 394.8Q249.1 397.2 250.5 398.6Q252.0 400.1 254.9 400.1L254.9 400.1Q257.1 400.1 258.7 399.3Q260.3 398.4 261.4 397.0L261.4 397.0L265.3 401.2Q263.8 403.0 261.2 404.3Q258.7 405.6 254.7 405.6ZM254.1 384.7L254.1 384.7Q251.8 384.7 250.4 386.2Q249.1 387.6 249.1 390.0L249.1 390.0L249.1 390.4L259.0 390.4L259.0 390.0Q259.0 387.5 257.7 386.1Q256.4 384.7 254.1 384.7ZM293.9 405L284.7 405Q280.9 405 279.0 403.0Q277.1 401.0 277.1 397.8L277.1 397.8L277.1 385.8L270.4 385.8L270.4 380.2L274.8 380.2Q276.4 380.2 277.0 379.6Q277.7 379.0 277.7 377.3L277.7 377.3L277.7 371.5L284.2 371.5L284.2 380.2L293.9 380.2L293.9 385.8L284.2 385.8L284.2 399.5L293.9 399.5L293.9 405ZM312.4 405.6L312.4 405.6Q305.6 405.6 302.4 401.0Q299.2 396.5 299.2 388.2L299.2 388.2Q299.2 380.0 302.4 375.5Q305.6 370.9 312.4 370.9L312.4 370.9Q315.0 370.9 317.0 371.6Q318.9 372.3 320.4 373.6Q321.8 374.8 322.8 376.6Q323.7 378.4 324.2 380.6L324.2 380.6L317.5 382.2Q317.2 381 316.8 380.0Q316.4 379.0 315.8 378.3Q315.2 377.5 314.4 377.1Q313.5 376.7 312.2 376.7L312.2 376.7Q309.3 376.7 308.1 379.0Q306.8 381.3 306.8 385.3L306.8 385.3L306.8 391.2Q306.8 395.2 308.1 397.5Q309.3 399.8 312.2 399.8L312.2 399.8Q314.7 399.8 315.8 398.2Q317.0 396.7 317.5 394.3L317.5 394.3L324.2 395.9Q323.7 398.1 322.8 399.9Q321.8 401.7 320.4 403.0Q318.9 404.2 317.0 404.9Q315.0 405.6 312.4 405.6ZM340.4 405.6L340.4 405.6Q337.5 405.6 335.2 404.7Q332.9 403.8 331.3 402.1Q329.7 400.4 328.8 398.0Q328.0 395.6 328.0 392.6L328.0 392.6Q328.0 389.6 328.8 387.2Q329.7 384.8 331.3 383.1Q332.9 381.4 335.2 380.5Q337.5 379.7 340.4 379.7L340.4 379.7Q343.3 379.7 345.6 380.5Q347.9 381.4 349.5 383.1Q351.1 384.8 352.0 387.2Q352.8 389.6 352.8 392.6L352.8 392.6Q352.8 395.6 352.0 398.0Q351.1 400.4 349.5 402.1Q347.9 403.8 345.6 404.7Q343.3 405.6 340.4 405.6ZM340.4 400.3L340.4 400.3Q342.8 400.3 344.1 398.8Q345.5 397.3 345.5 394.6L345.5 394.6L345.5 390.6Q345.5 387.9 344.1 386.4Q342.8 384.9 340.4 384.9L340.4 384.9Q338.0 384.9 336.7 386.4Q335.3 387.9 335.3 390.6L335.3 390.6L335.3 394.6Q335.3 397.3 336.7 398.8Q338.0 400.3 340.4 400.3ZM373.7 405L373.7 400.5L373.3 400.5Q372.4 402.7 370.7 404.2Q369.0 405.6 366.0 405.6L366.0 405.6Q363.9 405.6 362.2 404.8Q360.5 404.0 359.3 402.5Q358.1 400.9 357.4 398.4Q356.7 396.0 356.7 392.6L356.7 392.6Q356.7 389.3 357.4 386.8Q358.1 384.4 359.3 382.8Q360.5 381.2 362.2 380.4Q363.9 379.7 366.0 379.7L366.0 379.7Q367.5 379.7 368.6 380.0Q369.8 380.4 370.7 381.1Q371.6 381.8 372.2 382.7Q372.8 383.6 373.3 384.7L373.3 384.7L373.7 384.7L373.7 369.5L380.8 369.5L380.8 405L373.7 405ZM369.1 400.1L369.1 400.1Q370.9 400.1 372.3 399.1Q373.7 398.2 373.7 396.3L373.7 396.3L373.7 389.0Q373.7 387 372.3 386.1Q370.9 385.2 369.1 385.2L369.1 385.2Q366.7 385.2 365.4 386.6Q364.1 388.1 364.1 390.7L364.1 390.7L364.1 394.5Q364.1 397.1 365.4 398.6Q366.7 400.1 369.1 400.1ZM398.7 405.6L398.7 405.6Q392.4 405.6 389.2 402.1Q386.0 398.7 386.0 392.7L386.0 392.7Q386.0 389.7 386.8 387.3Q387.7 384.8 389.2 383.1Q390.8 381.4 393.0 380.5Q395.3 379.7 398.0 379.7L398.0 379.7Q400.8 379.7 403.0 380.5Q405.2 381.4 406.8 383.1Q408.3 384.7 409.2 387.0Q410.0 389.4 410.0 392.2L410.0 392.2L410.0 394.3L393.1 394.3L393.1 394.8Q393.1 397.2 394.5 398.6Q396.0 400.1 398.9 400.1L398.9 400.1Q401.1 400.1 402.7 399.3Q404.3 398.4 405.4 397.0L405.4 397.0L409.3 401.2Q407.8 403.0 405.2 404.3Q402.7 405.6 398.7 405.6ZM398.1 384.7L398.1 384.7Q395.8 384.7 394.4 386.2Q393.1 387.6 393.1 390.0L393.1 390.0L393.1 390.4L403.0 390.4L403.0 390.0Q403.0 387.5 401.7 386.1Q400.4 384.7 398.1 384.7Z M463.3 393.8L447.9 393.8L447.9 387.0L463.3 387.0L463.3 393.8Z M514.3 405L506.7 405L518.2 377.4L507.3 377.4L507.3 383.4L501.2 383.4L501.2 371.5L525.3 371.5L525.3 377.7L514.3 405ZM542 405.6L542 405.6Q539.3 405.6 538.1 404.4Q537.0 403.2 537.0 401.6L537.0 401.6L537.0 399.9Q537.0 398.3 538.1 397.1Q539.3 395.9 542 395.9L542 395.9Q544.7 395.9 545.9 397.1Q547.0 398.3 547.0 399.9L547.0 399.9L547.0 401.6Q547.0 403.2 545.9 404.4Q544.7 405.6 542 405.6Z M596.0 392.6L596.0 405L588.8 405L588.8 371.5L601.8 371.5Q604.3 371.5 606.2 372.2Q608.1 373.0 609.4 374.4Q610.7 375.8 611.4 377.7Q612.1 379.7 612.1 382.2L612.1 382.2Q612.1 385.7 610.5 388.2Q609.0 390.8 606.2 391.6L606.2 391.6L612.8 405L604.9 405L599.3 392.6L596.0 392.6ZM596.0 387L600.1 387Q602.6 387 603.6 386.0Q604.6 385.1 604.6 382.9L604.6 382.9L604.6 381.4Q604.6 379.2 603.6 378.3Q602.6 377.3 600.1 377.3L600.1 377.3L596.0 377.3L596.0 387ZM629.1 405.6L629.1 405.6Q622.8 405.6 619.6 402.1Q616.4 398.7 616.4 392.7L616.4 392.7Q616.4 389.7 617.2 387.3Q618.1 384.8 619.6 383.1Q621.2 381.4 623.4 380.5Q625.7 379.7 628.4 379.7L628.4 379.7Q631.2 379.7 633.4 380.5Q635.6 381.4 637.2 383.1Q638.7 384.7 639.6 387.0Q640.4 389.4 640.4 392.2L640.4 392.2L640.4 394.3L623.5 394.3L623.5 394.8Q623.5 397.2 624.9 398.6Q626.4 400.1 629.3 400.1L629.3 400.1Q631.5 400.1 633.1 399.3Q634.7 398.4 635.8 397.0L635.8 397.0L639.7 401.2Q638.2 403.0 635.6 404.3Q633.1 405.6 629.1 405.6ZM628.5 384.7L628.5 384.7Q626.2 384.7 624.8 386.2Q623.5 387.6 623.5 390.0L623.5 390.0L623.5 390.4L633.4 390.4L633.4 390.0Q633.4 387.5 632.1 386.1Q630.8 384.7 628.5 384.7ZM661.4 405L653.0 405L644.1 380.2L651.6 380.2L654.8 390.8L657.2 399.1L657.5 399.1L659.9 390.8L663.1 380.2L670.3 380.2L661.4 405ZM686.7 405.6L686.7 405.6Q680.4 405.6 677.2 402.1Q674.0 398.7 674.0 392.7L674.0 392.7Q674.0 389.7 674.8 387.3Q675.7 384.8 677.2 383.1Q678.8 381.4 681.0 380.5Q683.3 379.7 686.0 379.7L686.0 379.7Q688.8 379.7 691.0 380.5Q693.2 381.4 694.8 383.1Q696.3 384.7 697.2 387.0Q698.0 389.4 698.0 392.2L698.0 392.2L698.0 394.3L681.1 394.3L681.1 394.8Q681.1 397.2 682.5 398.6Q684.0 400.1 686.9 400.1L686.9 400.1Q689.1 400.1 690.7 399.3Q692.3 398.4 693.4 397.0L693.4 397.0L697.3 401.2Q695.8 403.0 693.2 404.3Q690.7 405.6 686.7 405.6ZM686.1 384.7L686.1 384.7Q683.8 384.7 682.4 386.2Q681.1 387.6 681.1 390.0L681.1 390.0L681.1 390.4L691.0 390.4L691.0 390.0Q691.0 387.5 689.7 386.1Q688.4 384.7 686.1 384.7ZM704.0 405L704.0 399.5L709.7 399.5L709.7 385.8L704.0 385.8L704.0 380.2L716.8 380.2L716.8 387.2L717.1 387.2Q717.4 385.9 718.0 384.6Q718.6 383.4 719.6 382.4Q720.5 381.4 721.9 380.8Q723.2 380.2 725.0 380.2L725.0 380.2L727.4 380.2L727.4 386.8L722.1 386.8Q719.5 386.8 718.1 388.3Q716.8 389.9 716.8 392.1L716.8 392.1L716.8 399.5L724.9 399.5L724.9 405L704.0 405ZM743.3 405.6L743.3 405.6Q739.2 405.6 736.1 404.3Q733.1 403.1 731.6 400.9L731.6 400.9L735.5 397.2Q737.0 398.8 738.9 399.7Q740.9 400.6 743.4 400.6L743.4 400.6Q745.5 400.6 746.7 399.9Q747.9 399.3 747.9 397.9L747.9 397.9Q747.9 396.9 747.1 396.5Q746.2 396.1 744.8 395.8L744.8 395.8L740.8 395.2Q739.1 395.0 737.7 394.5Q736.3 394.0 735.2 393.1Q734.1 392.2 733.5 391.0Q732.9 389.7 732.9 388.0L732.9 388.0Q732.9 384.1 735.9 381.9Q738.8 379.7 744.2 379.7L744.2 379.7Q747.9 379.7 750.4 380.6Q753.0 381.6 754.5 383.4L754.5 383.4L751.0 387.5Q749.9 386.3 748.2 385.5Q746.4 384.6 744.0 384.6L744.0 384.6Q739.9 384.6 739.9 387.1L739.9 387.1Q739.9 388.2 740.7 388.7Q741.5 389.1 742.9 389.3L742.9 389.3L746.9 389.9Q748.5 390.2 750.0 390.7Q751.4 391.2 752.5 392.0Q753.6 392.9 754.2 394.2Q754.8 395.4 754.8 397.2L754.8 397.2Q754.8 401.1 751.8 403.3Q748.8 405.6 743.3 405.6ZM773.1 405.6L773.1 405.6Q766.8 405.6 763.6 402.1Q760.4 398.7 760.4 392.7L760.4 392.7Q760.4 389.7 761.2 387.3Q762.1 384.8 763.6 383.1Q765.2 381.4 767.4 380.5Q769.7 379.7 772.4 379.7L772.4 379.7Q775.2 379.7 777.4 380.5Q779.6 381.4 781.2 383.1Q782.7 384.7 783.6 387.0Q784.4 389.4 784.4 392.2L784.4 392.2L784.4 394.3L767.5 394.3L767.5 394.8Q767.5 397.2 768.9 398.6Q770.4 400.1 773.3 400.1L773.3 400.1Q775.5 400.1 777.1 399.3Q778.7 398.4 779.8 397.0L779.8 397.0L783.7 401.2Q782.2 403.0 779.6 404.3Q777.1 405.6 773.1 405.6ZM772.5 384.7L772.5 384.7Q770.2 384.7 768.8 386.2Q767.5 387.6 767.5 390.0L767.5 390.0L767.5 390.4L777.4 390.4L777.4 390.0Q777.4 387.5 776.1 386.1Q774.8 384.7 772.5 384.7Z M840.8 405L819.2 405L819.2 399.7L826.4 399.7L826.4 376.8L819.2 376.8L819.2 371.5L840.8 371.5L840.8 376.8L833.6 376.8L833.6 399.7L840.8 399.7L840.8 405ZM854.6 405L847.5 405L847.5 380.2L854.6 380.2L854.6 384.7L854.9 384.7Q855.3 383.7 856.0 382.8Q856.6 381.9 857.5 381.2Q858.4 380.5 859.5 380.1Q860.7 379.7 862.2 379.7L862.2 379.7Q864.0 379.7 865.5 380.3Q867.0 380.9 868.0 382.1Q869.1 383.3 869.7 385.0Q870.3 386.7 870.3 389.0L870.3 389.0L870.3 405L863.2 405L863.2 389.9Q863.2 385.1 859.0 385.1L859.0 385.1Q858.2 385.1 857.4 385.3Q856.6 385.6 856.0 386.0Q855.3 386.5 855.0 387.1Q854.6 387.8 854.6 388.7L854.6 388.7L854.6 405ZM898.7 405L889.5 405Q885.7 405 883.8 403.0Q881.9 401.0 881.9 397.8L881.9 397.8L881.9 385.8L875.2 385.8L875.2 380.2L879.6 380.2Q881.2 380.2 881.8 379.6Q882.5 379.0 882.5 377.3L882.5 377.3L882.5 371.5L889.0 371.5L889.0 380.2L898.7 380.2L898.7 385.8L889.0 385.8L889.0 399.5L898.7 399.5L898.7 405ZM917.1 405.6L917.1 405.6Q910.8 405.6 907.6 402.1Q904.4 398.7 904.4 392.7L904.4 392.7Q904.4 389.7 905.2 387.3Q906.1 384.8 907.6 383.1Q909.2 381.4 911.4 380.5Q913.7 379.7 916.4 379.7L916.4 379.7Q919.2 379.7 921.4 380.5Q923.6 381.4 925.2 383.1Q926.7 384.7 927.6 387.0Q928.4 389.4 928.4 392.2L928.4 392.2L928.4 394.3L911.5 394.3L911.5 394.8Q911.5 397.2 912.9 398.6Q914.4 400.1 917.3 400.1L917.3 400.1Q919.5 400.1 921.1 399.3Q922.7 398.4 923.8 397.0L923.8 397.0L927.7 401.2Q926.2 403.0 923.6 404.3Q921.1 405.6 917.1 405.6ZM916.5 384.7L916.5 384.7Q914.2 384.7 912.8 386.2Q911.5 387.6 911.5 390.0L911.5 390.0L911.5 390.4L921.4 390.4L921.4 390.0Q921.4 387.5 920.1 386.1Q918.8 384.7 916.5 384.7ZM958.8 407.5L958.8 407.5Q958.8 411.4 955.5 413.3Q952.2 415.2 945.1 415.2L945.1 415.2Q941.5 415.2 939.2 414.8Q936.9 414.4 935.5 413.6Q934.2 412.8 933.6 411.8Q933.1 410.7 933.1 409.5L933.1 409.5Q933.1 407.4 934.3 406.3Q935.6 405.2 937.8 404.6L937.8 404.6L937.8 404.3Q936.2 403.8 935.3 403.0Q934.4 402.1 934.4 400.4L934.4 400.4Q934.4 398.6 935.6 397.8Q936.8 396.9 938.8 396.4L938.8 396.4L938.8 396.1Q936.6 395.1 935.4 393.1Q934.2 391.2 934.2 388.5L934.2 388.5Q934.2 386.3 934.9 384.7Q935.7 383.0 937.1 381.9Q938.5 380.8 940.5 380.2Q942.5 379.7 944.9 379.7L944.9 379.7Q947.3 379.7 949.3 380.2L949.3 380.2L949.3 378.8Q949.3 377.4 950.3 376.4Q951.3 375.5 953.1 375.5L953.1 375.5L957.4 375.5L957.4 380.7L951.5 380.7L951.5 381.1Q953.5 382.2 954.6 384Q955.8 385.8 955.8 388.5L955.8 388.5Q955.8 390.6 955.0 392.3Q954.2 393.9 952.8 395.0Q951.3 396.2 949.4 396.7Q947.4 397.3 944.9 397.3L944.9 397.3Q943.8 397.3 942.8 397.2Q941.8 397.1 940.9 396.8L940.9 396.8Q940.4 397.1 940.0 397.6Q939.6 398.0 939.6 398.7L939.6 398.7Q939.6 399.2 939.9 399.6Q940.2 399.9 940.7 400.1Q941.2 400.2 941.9 400.3Q942.6 400.3 943.3 400.3L943.3 400.3L948.9 400.3Q951.6 400.3 953.5 400.9Q955.3 401.4 956.5 402.4Q957.7 403.3 958.3 404.6Q958.8 405.9 958.8 407.5ZM952.1 408.0L952.1 408.0Q952.1 407.1 951.3 406.5Q950.5 406.0 948.4 406.0L948.4 406.0L939.9 406.0Q938.9 406.8 938.9 408.0L938.9 408.0Q938.9 409.1 939.9 409.9Q940.9 410.6 943.2 410.6L943.2 410.6L947.4 410.6Q949.9 410.6 951.0 409.9Q952.1 409.3 952.1 408.0ZM944.9 392.8L944.9 392.8Q947.1 392.8 948.1 391.8Q949.0 390.7 949.0 389.1L949.0 389.1L949.0 387.9Q949.0 386.3 948.1 385.2Q947.1 384.2 944.9 384.2L944.9 384.2Q942.8 384.2 941.8 385.2Q940.9 386.3 940.9 387.9L940.9 387.9L940.9 389.1Q940.9 390.7 941.8 391.8Q942.8 392.8 944.9 392.8ZM974.7 405.6L974.7 405.6Q968.4 405.6 965.2 402.1Q962.0 398.7 962.0 392.7L962.0 392.7Q962.0 389.7 962.8 387.3Q963.7 384.8 965.2 383.1Q966.8 381.4 969.0 380.5Q971.3 379.7 974.0 379.7L974.0 379.7Q976.8 379.7 979.0 380.5Q981.2 381.4 982.8 383.1Q984.3 384.7 985.2 387.0Q986.0 389.4 986.0 392.2L986.0 392.2L986.0 394.3L969.1 394.3L969.1 394.8Q969.1 397.2 970.5 398.6Q972.0 400.1 974.9 400.1L974.9 400.1Q977.1 400.1 978.7 399.3Q980.3 398.4 981.4 397.0L981.4 397.0L985.3 401.2Q983.8 403.0 981.2 404.3Q978.7 405.6 974.7 405.6ZM974.1 384.7L974.1 384.7Q971.8 384.7 970.4 386.2Q969.1 387.6 969.1 390.0L969.1 390.0L969.1 390.4L979.0 390.4L979.0 390.0Q979.0 387.5 977.7 386.1Q976.4 384.7 974.1 384.7ZM992.0 405L992.0 399.5L997.7 399.5L997.7 385.8L992.0 385.8L992.0 380.2L1004.8 380.2L1004.8 387.2L1005.1 387.2Q1005.4 385.9 1006.0 384.6Q1006.6 383.4 1007.6 382.4Q1008.5 381.4 1009.9 380.8Q1011.2 380.2 1013.0 380.2L1013.0 380.2L1015.4 380.2L1015.4 386.8L1010.1 386.8Q1007.5 386.8 1006.1 388.3Q1004.8 389.9 1004.8 392.1L1004.8 392.1L1004.8 399.5L1012.9 399.5L1012.9 405L992.0 405Z "/></g></svg>