<svg width="1200" height="630" viewBox="0 0 1200 630" xmlns="http://www.w3.org/2000/svg"><defs><pattern id="satori_pattern_id_1" x="0" y="0" width="0.08333333333333333" height="0.15873015873015872" patternUnits="objectBoundingBox"><radialGradient id="satori_radial_id_1" spreadMethod="pad"><stop offset="0" stop-color="lightgray"/><stop offset="0.03" stop-color="lightgray"/><stop offset="0" stop-color="transparent"/><stop offset="1" stop-color="transparent"/></radialGradient><mask id="satori_mask_id_1"><rect x="0" y="0" width="100" height="100" fill="#fff"/></mask><rect x="0" y="0" width="100" height="100" fill="transparent"/><circle cx="75" cy="75" width="100" height="100" r="106.06601717798213" fill="url(#satori_radial_id_1)" mask="url(#satori_mask_id_1)"/></pattern><pattern id="satori_pattern_id_0" x="0" y="0" width="0.08333333333333333" height="0.15873015873015872" patternUnits="objectBoundingBox"><radialGradient id="satori_radial_id_0" spreadMethod="pad"><stop offset="0" stop-color="lightgray"/><stop offset="0.03" stop-color="lightgray"/><stop offset="0" stop-color="transparent"/><stop offset="1" stop-color="transparent"/></radialGradient><mask id="satori_mask_id_0"><rect x="0" y="0" width="100" height="100" fill="#fff"/></mask><rect x="0" y="0" width="100" height="100" fill="transparent"/><circle cx="25" cy="25" width="100" height="100" r="106.06601717798213" fill="url(#satori_radial_id_0)" mask="url(#satori_mask_id_0)"/></pattern></defs><mask id="satori_om-id"><rect x="0" y="0" width="1200" height="630" fill="#fff"/></mask><rect x="0" y="0" width="1200" height="630" fill="white"/><rect x="0" y="0" width="1200" height="630" fill="url(#satori_pattern_id_1)"/><rect x="0" y="0" width="1200" height="630" fill="url(#satori_pattern_id_0)"/><mask id="satori_om-id-0"><rect x="82" y="213" width="1037" height="205" fill="#fff"/></mask><mask id="satori_om-id-0-0"><rect x="477" y="213" width="248" height="47" fill="#fff"/></mask><mask id="satori_om-id-0-0-0"><rect x="477" y="229" width="16" height="16" fill="#fff"/></mask><rect x="477" y="229" width="16" height="16" fill="black"/><mask id="satori_om-id-0-0-1"><rect x="509" y="213" width="216" height="47" fill="#fff"/></mask><g  ><path fill="black" d="M512.7 257.2L512.7 254.8L521.7 254.8L521.7 233.9L512.3 233.9L512.3 231.4L524.6 231.4L524.6 253.0Q524.6 254.8 523.6 256.0Q522.6 257.2 520.4 257.2L520.4 257.2L512.7 257.2ZM523.1 227.3L523.1 227.3Q521.9 227.3 521.3 226.8Q520.8 226.3 520.8 225.5L520.8 225.5L520.8 224.9Q520.8 224.1 521.3 223.6Q521.9 223.1 523.1 223.1L523.1 223.1Q524.4 223.1 524.9 223.6Q525.4 224.1 525.4 224.9L525.4 224.9L525.4 225.5Q525.4 226.3 524.9 226.8Q524.4 227.3 523.1 227.3ZM550.4 250L548.4 250Q546.7 250 546.0 249.1Q545.3 248.3 545.1 247.0L545.1 247.0L544.9 247.0Q544.3 248.6 543.0 249.5Q541.6 250.4 539.3 250.4L539.3 250.4Q536.4 250.4 534.7 248.9Q533.0 247.4 533.0 244.8L533.0 244.8Q533.0 242.2 534.9 240.8Q536.8 239.4 541.0 239.4L541.0 239.4L544.9 239.4L544.9 237.5Q544.9 235.5 543.8 234.5Q542.6 233.4 540.5 233.4L540.5 233.4Q538.6 233.4 537.4 234.2Q536.3 234.9 535.5 236.2L535.5 236.2L533.6 234.7Q533.9 234.0 534.6 233.3Q535.2 232.6 536.1 232.1Q537.0 231.6 538.1 231.3Q539.3 231.0 540.7 231.0L540.7 231.0Q544.0 231.0 545.9 232.6Q547.8 234.3 547.8 237.3L547.8 237.3L547.8 247.5L550.4 247.5L550.4 250ZM539.9 248.0L539.9 248.0Q541.0 248.0 541.9 247.8Q542.8 247.5 543.5 247.0Q544.2 246.6 544.6 245.9Q544.9 245.3 544.9 244.6L544.9 244.6L544.9 241.5L541.0 241.5Q538.4 241.5 537.2 242.3Q536 243.0 536 244.3L536 244.3L536 245.1Q536 246.5 537.0 247.3Q538.1 248.0 539.9 248.0ZM563.3 250.4L563.3 250.4Q561.3 250.4 559.7 249.7Q558.1 249.1 557.0 247.8Q555.8 246.5 555.2 244.7Q554.6 242.9 554.6 240.7L554.6 240.7Q554.6 238.5 555.2 236.7Q555.9 234.9 557.0 233.6Q558.1 232.4 559.7 231.7Q561.2 231.0 563.1 231.0L563.1 231.0Q565.0 231.0 566.5 231.7Q568.1 232.4 569.2 233.6Q570.2 234.8 570.8 236.4Q571.4 238.1 571.4 240.1L571.4 240.1L571.4 241.4L557.6 241.4L557.6 242.3Q557.6 243.5 558.0 244.6Q558.4 245.6 559.2 246.4Q559.9 247.1 561.0 247.5Q562.0 247.9 563.3 247.9L563.3 247.9Q565.2 247.9 566.6 247.1Q567.9 246.2 568.7 244.7L568.7 244.7L570.8 246.1Q569.9 248.0 568.0 249.2Q566.1 250.4 563.3 250.4ZM563.1 233.4L563.1 233.4Q562.0 233.4 560.9 233.8Q559.9 234.2 559.2 235.0Q558.5 235.7 558.1 236.8Q557.6 237.8 557.6 239.0L557.6 239.0L557.6 239.3L568.3 239.3L568.3 238.9Q568.3 237.7 567.9 236.6Q567.5 235.6 566.9 234.9Q566.2 234.2 565.3 233.8Q564.3 233.4 563.1 233.4ZM577.3 250L577.3 223.4L580.2 223.4L580.2 234.4L580.4 234.4Q580.6 233.8 581.1 233.1Q581.5 232.5 582.1 232.0Q582.8 231.6 583.6 231.3Q584.5 231.0 585.6 231.0L585.6 231.0Q588.6 231.0 590.3 232.8Q592.1 234.7 592.1 238.1L592.1 238.1L592.1 250L589.2 250L589.2 238.6Q589.2 236.0 588.1 234.8Q587.0 233.5 584.8 233.5L584.8 233.5Q584.0 233.5 583.1 233.8Q582.3 234.0 581.6 234.4Q581.0 234.8 580.6 235.5Q580.2 236.2 580.2 237.1L580.2 237.1L580.2 250L577.3 250ZM606.5 250.4L606.5 250.4Q604.5 250.4 602.9 249.7Q601.3 249.1 600.2 247.8Q599.0 246.5 598.4 244.7Q597.8 242.9 597.8 240.7L597.8 240.7Q597.8 238.5 598.4 236.7Q599.1 234.9 600.2 233.6Q601.3 232.4 602.9 231.7Q604.4 231.0 606.3 231.0L606.3 231.0Q608.2 231.0 609.7 231.7Q611.3 232.4 612.4 233.6Q613.4 234.8 614.0 236.4Q614.6 238.1 614.6 240.1L614.6 240.1L614.6 241.4L600.8 241.4L600.8 242.3Q600.8 243.5 601.2 244.6Q601.6 245.6 602.4 246.4Q603.1 247.1 604.2 247.5Q605.2 247.9 606.5 247.9L606.5 247.9Q608.4 247.9 609.8 247.1Q611.1 246.2 611.9 244.7L611.9 244.7L614.0 246.1Q613.1 248.0 611.2 249.2Q609.3 250.4 606.5 250.4ZM606.3 233.4L606.3 233.4Q605.2 233.4 604.1 233.8Q603.1 234.2 602.4 235.0Q601.7 235.7 601.3 236.8Q600.8 237.8 600.8 239.0L600.8 239.0L600.8 239.3L611.5 239.3L611.5 238.9Q611.5 237.7 611.1 236.6Q610.7 235.6 610.1 234.9Q609.4 234.2 608.5 233.8Q607.5 233.4 606.3 233.4ZM628.1 250.4L628.1 250.4Q626.1 250.4 624.5 249.7Q622.9 249.1 621.8 247.8Q620.6 246.5 620.0 244.7Q619.4 242.9 619.4 240.7L619.4 240.7Q619.4 238.5 620.0 236.7Q620.7 234.9 621.8 233.6Q622.9 232.4 624.5 231.7Q626.0 231.0 627.9 231.0L627.9 231.0Q629.8 231.0 631.3 231.7Q632.9 232.4 634.0 233.6Q635.0 234.8 635.6 236.4Q636.2 238.1 636.2 240.1L636.2 240.1L636.2 241.4L622.4 241.4L622.4 242.3Q622.4 243.5 622.8 244.6Q623.2 245.6 624.0 246.4Q624.7 247.1 625.8 247.5Q626.8 247.9 628.1 247.9L628.1 247.9Q630.0 247.9 631.4 247.1Q632.7 246.2 633.5 244.7L633.5 244.7L635.6 246.1Q634.7 248.0 632.8 249.2Q630.9 250.4 628.1 250.4ZM627.9 233.4L627.9 233.4Q626.8 233.4 625.7 233.8Q624.7 234.2 624.0 235.0Q623.3 235.7 622.9 236.8Q622.4 237.8 622.4 239.0L622.4 239.0L622.4 239.3L633.1 239.3L633.1 238.9Q633.1 237.7 632.7 236.6Q632.3 235.6 631.7 234.9Q631.0 234.2 630.1 233.8Q629.1 233.4 627.9 233.4ZM649.4 250.3L649.4 250.3Q647.9 250.3 647.3 249.7Q646.7 249.1 646.7 248.2L646.7 248.2L646.7 247.5Q646.7 246.6 647.3 246.0Q647.9 245.4 649.4 245.4L649.4 245.4Q650.9 245.4 651.5 246.0Q652.1 246.6 652.1 247.5L652.1 247.5L652.1 248.2Q652.1 249.1 651.5 249.7Q650.9 250.3 649.4 250.3ZM675.5 250L675.5 247.0L675.4 247.0Q673.6 250.4 669.6 250.4L669.6 250.4Q666.2 250.4 664.3 247.9Q662.4 245.3 662.4 240.7L662.4 240.7Q662.4 236.1 664.3 233.5Q666.2 231.0 669.6 231.0L669.6 231.0Q673.6 231.0 675.4 234.4L675.4 234.4L675.5 234.4L675.5 223.4L678.4 223.4L678.4 250L675.5 250ZM670.7 247.9L670.7 247.9Q671.7 247.9 672.6 247.6Q673.4 247.4 674.1 246.9Q674.7 246.4 675.1 245.7Q675.5 245.0 675.5 244.1L675.5 244.1L675.5 237.4Q675.5 236.4 675.1 235.7Q674.7 235.0 674.1 234.5Q673.4 234.1 672.6 233.8Q671.7 233.5 670.7 233.5L670.7 233.5Q668.2 233.5 666.8 235.1Q665.5 236.6 665.5 239.1L665.5 239.1L665.5 242.3Q665.5 244.8 666.8 246.3Q668.2 247.9 670.7 247.9ZM692.9 250.4L692.9 250.4Q690.9 250.4 689.3 249.7Q687.7 249.1 686.6 247.8Q685.4 246.5 684.8 244.7Q684.2 242.9 684.2 240.7L684.2 240.7Q684.2 238.5 684.8 236.7Q685.5 234.9 686.6 233.6Q687.7 232.4 689.3 231.7Q690.8 231.0 692.7 231.0L692.7 231.0Q694.6 231.0 696.1 231.7Q697.7 232.4 698.8 233.6Q699.8 234.8 700.4 236.4Q701.0 238.1 701.0 240.1L701.0 240.1L701.0 241.4L687.2 241.4L687.2 242.3Q687.2 243.5 687.6 244.6Q688.0 245.6 688.8 246.4Q689.5 247.1 690.6 247.5Q691.6 247.9 692.9 247.9L692.9 247.9Q694.8 247.9 696.2 247.1Q697.5 246.2 698.3 244.7L698.3 244.7L700.4 246.1Q699.5 248.0 697.6 249.2Q695.7 250.4 692.9 250.4ZM692.7 233.4L692.7 233.4Q691.6 233.4 690.5 233.8Q689.5 234.2 688.8 235.0Q688.1 235.7 687.7 236.8Q687.2 237.8 687.2 239.0L687.2 239.0L687.2 239.3L697.9 239.3L697.9 238.9Q697.9 237.7 697.5 236.6Q697.1 235.6 696.5 234.9Q695.8 234.2 694.9 233.8Q693.9 233.4 692.7 233.4ZM716.0 250L712.4 250L705.7 231.4L708.6 231.4L711.3 239.2L714.2 247.6L714.3 247.6L717.2 239.2L719.9 231.4L722.7 231.4L716.0 250Z "/></g><mask id="satori_om-id-0-1"><rect x="82" y="356" width="1037" height="62" fill="#fff"/></mask><g  ><path fill="black" d="M108.1 405L86.4 405L86.4 371.5L93.7 371.5L93.7 399.1L108.1 399.1L108.1 405ZM125.9 405.6L125.9 405.6Q119.6 405.6 116.4 402.1Q113.2 398.7 113.2 392.7L113.2 392.7Q113.2 389.7 114.0 387.3Q114.9 384.8 116.4 383.1Q118 381.4 120.2 380.5Q122.5 379.7 125.2 379.7L125.2 379.7Q128.0 379.7 130.2 380.5Q132.4 381.4 134.0 383.1Q135.5 384.7 136.4 387.0Q137.2 389.4 137.2 392.2L137.2 392.2L137.2 394.3L120.3 394.3L120.3 394.8Q120.3 397.2 121.7 398.6Q123.2 400.1 126.1 400.1L126.1 400.1Q128.3 400.1 129.9 399.3Q131.5 398.4 132.6 397.0L132.6 397.0L136.5 401.2Q135.0 403.0 132.4 404.3Q129.9 405.6 125.9 405.6ZM125.3 384.7L125.3 384.7Q123.0 384.7 121.6 386.2Q120.3 387.6 120.3 390.0L120.3 390.0L120.3 390.4L130.2 390.4L130.2 390.0Q130.2 387.5 128.9 386.1Q127.6 384.7 125.3 384.7ZM154.7 405.6L154.7 405.6Q148.4 405.6 145.2 402.1Q142 398.7 142 392.7L142 392.7Q142 389.7 142.8 387.3Q143.7 384.8 145.2 383.1Q146.8 381.4 149.0 380.5Q151.3 379.7 154.0 379.7L154.0 379.7Q156.8 379.7 159.0 380.5Q161.2 381.4 162.8 383.1Q164.3 384.7 165.2 387.0Q166 389.4 166 392.2L166 392.2L166 394.3L149.1 394.3L149.1 394.8Q149.1 397.2 150.5 398.6Q152.0 400.1 154.9 400.1L154.9 400.1Q157.1 400.1 158.7 399.3Q160.3 398.4 161.4 397.0L161.4 397.0L165.3 401.2Q163.8 403.0 161.2 404.3Q158.7 405.6 154.7 405.6ZM154.1 384.7L154.1 384.7Q151.8 384.7 150.4 386.2Q149.1 387.6 149.1 390.0L149.1 390.0L149.1 390.4L159.0 390.4L159.0 390.0Q159.0 387.5 157.7 386.1Q156.4 384.7 154.1 384.7ZM193.9 405L184.7 405Q180.9 405 179.0 403.0Q177.1 401.0 177.1 397.8L177.1 397.8L177.1 385.8L170.4 385.8L170.4 380.2L174.8 380.2Q176.4 380.2 177.0 379.6Q177.7 379.0 177.7 377.3L177.7 377.3L177.7 371.5L184.2 371.5L184.2 380.2L193.9 380.2L193.9 385.8L184.2 385.8L184.2 399.5L193.9 399.5L193.9 405ZM212.4 405.6L212.4 405.6Q205.6 405.6 202.4 401.0Q199.2 396.5 199.2 388.2L199.2 388.2Q199.2 380.0 202.4 375.5Q205.6 370.9 212.4 370.9L212.4 370.9Q215.0 370.9 217.0 371.6Q218.9 372.3 220.4 373.6Q221.8 374.8 222.8 376.6Q223.7 378.4 224.2 380.6L224.2 380.6L217.5 382.2Q217.2 381 216.8 380.0Q216.4 379.0 215.8 378.3Q215.2 377.5 214.4 377.1Q213.5 376.7 212.2 376.7L212.2 376.7Q209.3 376.7 208.1 379.0Q206.8 381.3 206.8 385.3L206.8 385.3L206.8 391.2Q206.8 395.2 208.1 397.5Q209.3 399.8 212.2 399.8L212.2 399.8Q214.7 399.8 215.8 398.2Q217.0 396.7 217.5 394.3L217.5 394.3L224.2 395.9Q223.7 398.1 222.8 399.9Q221.8 401.7 220.4 403.0Q218.9 404.2 217.0 404.9Q215.0 405.6 212.4 405.6ZM240.4 405.6L240.4 405.6Q237.5 405.6 235.2 404.7Q232.9 403.8 231.3 402.1Q229.7 400.4 228.8 398.0Q228.0 395.6 228.0 392.6L228.0 392.6Q228.0 389.6 228.8 387.2Q229.7 384.8 231.3 383.1Q232.9 381.4 235.2 380.5Q237.5 379.7 240.4 379.7L240.4 379.7Q243.3 379.7 245.6 380.5Q247.9 381.4 249.5 383.1Q251.1 384.8 252.0 387.2Q252.8 389.6 252.8 392.6L252.8 392.6Q252.8 395.6 252.0 398.0Q251.1 400.4 249.5 402.1Q247.9 403.8 245.6 404.7Q243.3 405.6 240.4 405.6ZM240.4 400.3L240.4 400.3Q242.8 400.3 244.1 398.8Q245.5 397.3 245.5 394.6L245.5 394.6L245.5 390.6Q245.5 387.9 244.1 386.4Q242.8 384.9 240.4 384.9L240.4 384.9Q238.0 384.9 236.7 386.4Q235.3 387.9 235.3 390.6L235.3 390.6L235.3 394.6Q235.3 397.3 236.7 398.8Q238.0 400.3 240.4 400.3ZM273.7 405L273.7 400.5L273.3 400.5Q272.4 402.7 270.7 404.2Q269.0 405.6 266.0 405.6L266.0 405.6Q263.9 405.6 262.2 404.8Q260.5 404.0 259.3 402.5Q258.1 400.9 257.4 398.4Q256.7 396.0 256.7 392.6L256.7 392.6Q256.7 389.3 257.4 386.8Q258.1 384.4 259.3 382.8Q260.5 381.2 262.2 380.4Q263.9 379.7 266.0 379.7L266.0 379.7Q267.5 379.7 268.6 380.0Q269.8 380.4 270.7 381.1Q271.6 381.8 272.2 382.7Q272.8 383.6 273.3 384.7L273.3 384.7L273.7 384.7L273.7 369.5L280.8 369.5L280.8 405L273.7 405ZM269.1 400.1L269.1 400.1Q270.9 400.1 272.3 399.1Q273.7 398.2 273.7 396.3L273.7 396.3L273.7 389.0Q273.7 387 272.3 386.1Q270.9 385.2 269.1 385.2L269.1 385.2Q266.7 385.2 265.4 386.6Q264.1 388.1 264.1 390.7L264.1 390.7L264.1 394.5Q264.1 397.1 265.4 398.6Q266.7 400.1 269.1 400.1ZM298.7 405.6L298.7 405.6Q292.4 405.6 289.2 402.1Q286 398.7 286 392.7L286 392.7Q286 389.7 286.8 387.3Q287.7 384.8 289.2 383.1Q290.8 381.4 293.0 380.5Q295.3 379.7 298.0 379.7L298.0 379.7Q300.8 379.7 303.0 380.5Q305.2 381.4 306.8 383.1Q308.3 384.7 309.2 387.0Q310 389.4 310 392.2L310 392.2L310 394.3L293.1 394.3L293.1 394.8Q293.1 397.2 294.5 398.6Q296.0 400.1 298.9 400.1L298.9 400.1Q301.1 400.1 302.7 399.3Q304.3 398.4 305.4 397.0L305.4 397.0L309.3 401.2Q307.8 403.0 305.2 404.3Q302.7 405.6 298.7 405.6ZM298.1 384.7L298.1 384.7Q295.8 384.7 294.4 386.2Q293.1 387.6 293.1 390.0L293.1 390.0L293.1 390.4L303.0 390.4L303.0 390.0Q303.0 387.5 301.7 386.1Q300.4 384.7 298.1 384.7Z M363.3 393.8L347.9 393.8L347.9 387.0L363.3 387.0L363.3 393.8Z M426.6 405L403.3 405L403.3 399.2L412.3 399.2L412.3 376.7L411.9 376.7L405.1 385.7L400.5 382.1L408.5 371.5L419.5 371.5L419.5 399.2L426.6 399.2L426.6 405ZM450.8 405L443.9 405L443.9 398.6L428.8 398.6L428.8 392.4L442.1 371.5L450.8 371.5L450.8 393L455.1 393L455.1 398.6L450.8 398.6L450.8 405ZM443.4 378.9L434.6 393L443.9 393L443.9 378.9L443.4 378.9ZM470.8 405.6L470.8 405.6Q468.1 405.6 466.9 404.4Q465.8 403.2 465.8 401.6L465.8 401.6L465.8 399.9Q465.8 398.3 466.9 397.1Q468.1 395.9 470.8 395.9L470.8 395.9Q473.5 395.9 474.7 397.1Q475.8 398.3 475.8 399.9L475.8 399.9L475.8 401.6Q475.8 403.2 474.7 404.4Q473.5 405.6 470.8 405.6Z M540.1 405L518.4 405L518.4 371.5L525.7 371.5L525.7 399.1L540.1 399.1L540.1 405ZM557.2 405.6L557.2 405.6Q554.3 405.6 552.0 404.7Q549.7 403.8 548.1 402.1Q546.5 400.4 545.6 398.0Q544.8 395.6 544.8 392.6L544.8 392.6Q544.8 389.6 545.6 387.2Q546.5 384.8 548.1 383.1Q549.7 381.4 552.0 380.5Q554.3 379.7 557.2 379.7L557.2 379.7Q560.1 379.7 562.4 380.5Q564.7 381.4 566.3 383.1Q567.9 384.8 568.8 387.2Q569.6 389.6 569.6 392.6L569.6 392.6Q569.6 395.6 568.8 398.0Q567.9 400.4 566.3 402.1Q564.7 403.8 562.4 404.7Q560.1 405.6 557.2 405.6ZM557.2 400.3L557.2 400.3Q559.6 400.3 560.9 398.8Q562.3 397.3 562.3 394.6L562.3 394.6L562.3 390.6Q562.3 387.9 560.9 386.4Q559.6 384.9 557.2 384.9L557.2 384.9Q554.8 384.9 553.5 386.4Q552.1 387.9 552.1 390.6L552.1 390.6L552.1 394.6Q552.1 397.3 553.5 398.8Q554.8 400.3 557.2 400.3ZM581.8 405L574.7 405L574.7 380.2L581.8 380.2L581.8 384.7L582.1 384.7Q582.5 383.7 583.2 382.8Q583.8 381.9 584.7 381.2Q585.6 380.5 586.7 380.1Q587.9 379.7 589.4 379.7L589.4 379.7Q591.2 379.7 592.7 380.3Q594.2 380.9 595.2 382.1Q596.3 383.3 596.9 385.0Q597.5 386.7 597.5 389.0L597.5 389.0L597.5 405L590.4 405L590.4 389.9Q590.4 385.1 586.2 385.1L586.2 385.1Q585.4 385.1 584.6 385.3Q583.8 385.6 583.2 386.0Q582.5 386.5 582.2 387.1Q581.8 387.8 581.8 388.7L581.8 388.7L581.8 405ZM628.4 407.5L628.4 407.5Q628.4 411.4 625.1 413.3Q621.8 415.2 614.7 415.2L614.7 415.2Q611.1 415.2 608.8 414.8Q606.5 414.4 605.1 413.6Q603.8 412.8 603.2 411.8Q602.7 410.7 602.7 409.5L602.7 409.5Q602.7 407.4 603.9 406.3Q605.2 405.2 607.4 404.6L607.4 404.6L607.4 404.3Q605.8 403.8 604.9 403.0Q604.0 402.1 604.0 400.4L604.0 400.4Q604.0 398.6 605.2 397.8Q606.4 396.9 608.4 396.4L608.4 396.4L608.4 396.1Q606.2 395.1 605.0 393.1Q603.8 391.2 603.8 388.5L603.8 388.5Q603.8 386.3 604.5 384.7Q605.3 383.0 606.7 381.9Q608.1 380.8 610.1 380.2Q612.1 379.7 614.5 379.7L614.5 379.7Q616.9 379.7 618.9 380.2L618.9 380.2L618.9 378.8Q618.9 377.4 619.9 376.4Q620.9 375.5 622.7 375.5L622.7 375.5L627.0 375.5L627.0 380.7L621.1 380.7L621.1 381.1Q623.1 382.2 624.2 384Q625.4 385.8 625.4 388.5L625.4 388.5Q625.4 390.6 624.6 392.3Q623.8 393.9 622.4 395.0Q620.9 396.2 619.0 396.7Q617.0 397.3 614.5 397.3L614.5 397.3Q613.4 397.3 612.4 397.2Q611.4 397.1 610.5 396.8L610.5 396.8Q610.0 397.1 609.6 397.6Q609.2 398.0 609.2 398.7L609.2 398.7Q609.2 399.2 609.5 399.6Q609.8 399.9 610.3 400.1Q610.8 400.2 611.5 400.3Q612.2 400.3 612.9 400.3L612.9 400.3L618.5 400.3Q621.2 400.3 623.1 400.9Q624.9 401.4 626.1 402.4Q627.3 403.3 627.9 404.6Q628.4 405.9 628.4 407.5ZM621.7 408.0L621.7 408.0Q621.7 407.1 620.9 406.5Q620.1 406.0 618.0 406.0L618.0 406.0L609.5 406.0Q608.5 406.8 608.5 408.0L608.5 408.0Q608.5 409.1 609.5 409.9Q610.5 410.6 612.8 410.6L612.8 410.6L617.0 410.6Q619.5 410.6 620.6 409.9Q621.7 409.3 621.7 408.0ZM614.5 392.8L614.5 392.8Q616.7 392.8 617.7 391.8Q618.6 390.7 618.6 389.1L618.6 389.1L618.6 387.9Q618.6 386.3 617.7 385.2Q616.7 384.2 614.5 384.2L614.5 384.2Q612.4 384.2 611.4 385.2Q610.5 386.3 610.5 387.9L610.5 387.9L610.5 389.1Q610.5 390.7 611.4 391.8Q612.4 392.8 614.5 392.8ZM644.3 405.6L644.3 405.6Q638.0 405.6 634.8 402.1Q631.6 398.7 631.6 392.7L631.6 392.7Q631.6 389.7 632.4 387.3Q633.3 384.8 634.8 383.1Q636.4 381.4 638.6 380.5Q640.9 379.7 643.6 379.7L643.6 379.7Q646.4 379.7 648.6 380.5Q650.8 381.4 652.4 383.1Q653.9 384.7 654.8 387.0Q655.6 389.4 655.6 392.2L655.6 392.2L655.6 394.3L638.7 394.3L638.7 394.8Q638.7 397.2 640.1 398.6Q641.6 400.1 644.5 400.1L644.5 400.1Q646.7 400.1 648.3 399.3Q649.9 398.4 651.0 397.0L651.0 397.0L654.9 401.2Q653.4 403.0 650.8 404.3Q648.3 405.6 644.3 405.6ZM643.7 384.7L643.7 384.7Q641.4 384.7 640.0 386.2Q638.7 387.6 638.7 390.0L638.7 390.0L638.7 390.4L648.6 390.4L648.6 390.0Q648.6 387.5 647.3 386.1Q646.0 384.7 643.7 384.7ZM672.1 405.6L672.1 405.6Q668.0 405.6 664.9 404.3Q661.9 403.1 660.4 400.9L660.4 400.9L664.3 397.2Q665.8 398.8 667.7 399.7Q669.7 400.6 672.2 400.6L672.2 400.6Q674.3 400.6 675.5 399.9Q676.7 399.3 676.7 397.9L676.7 397.9Q676.7 396.9 675.9 396.5Q675.0 396.1 673.6 395.8L673.6 395.8L669.6 395.2Q667.9 395.0 666.5 394.5Q665.1 394.0 664.0 393.1Q662.9 392.2 662.3 391.0Q661.7 389.7 661.7 388.0L661.7 388.0Q661.7 384.1 664.7 381.9Q667.6 379.7 673.0 379.7L673.0 379.7Q676.7 379.7 679.2 380.6Q681.8 381.6 683.3 383.4L683.3 383.4L679.8 387.5Q678.7 386.3 677.0 385.5Q675.2 384.6 672.8 384.6L672.8 384.6Q668.7 384.6 668.7 387.1L668.7 387.1Q668.7 388.2 669.5 388.7Q670.3 389.1 671.7 389.3L671.7 389.3L675.7 389.9Q677.3 390.2 678.8 390.7Q680.2 391.2 681.3 392.0Q682.4 392.9 683.0 394.2Q683.6 395.4 683.6 397.2L683.6 397.2Q683.6 401.1 680.6 403.3Q677.6 405.6 672.1 405.6ZM712.3 405L703.1 405Q699.3 405 697.4 403.0Q695.5 401.0 695.5 397.8L695.5 397.8L695.5 385.8L688.8 385.8L688.8 380.2L693.2 380.2Q694.8 380.2 695.4 379.6Q696.1 379.0 696.1 377.3L696.1 377.3L696.1 371.5L702.6 371.5L702.6 380.2L712.3 380.2L712.3 385.8L702.6 385.8L702.6 399.5L712.3 399.5L712.3 405Z M759.6 405.6L759.6 405.6Q752.8 405.6 749.6 401.0Q746.4 396.5 746.4 388.2L746.4 388.2Q746.4 380.0 749.6 375.5Q752.8 370.9 759.6 370.9L759.6 370.9Q762.2 370.9 764.2 371.6Q766.1 372.3 767.6 373.6Q769.0 374.8 770.0 376.6Q770.9 378.4 771.4 380.6L771.4 380.6L764.7 382.2Q764.4 381 764.0 380.0Q763.6 379.0 763.0 378.3Q762.4 377.5 761.6 377.1Q760.7 376.7 759.4 376.7L759.4 376.7Q756.5 376.7 755.3 379.0Q754.0 381.3 754.0 385.3L754.0 385.3L754.0 391.2Q754.0 395.2 755.3 397.5Q756.5 399.8 759.4 399.8L759.4 399.8Q761.9 399.8 763.0 398.2Q764.2 396.7 764.7 394.3L764.7 394.3L771.4 395.9Q770.9 398.1 770.0 399.9Q769.0 401.7 767.6 403.0Q766.1 404.2 764.2 404.9Q762.2 405.6 759.6 405.6ZM787.6 405.6L787.6 405.6Q784.7 405.6 782.4 404.7Q780.1 403.8 778.5 402.1Q776.9 400.4 776.0 398.0Q775.2 395.6 775.2 392.6L775.2 392.6Q775.2 389.6 776.0 387.2Q776.9 384.8 778.5 383.1Q780.1 381.4 782.4 380.5Q784.7 379.7 787.6 379.7L787.6 379.7Q790.5 379.7 792.8 380.5Q795.1 381.4 796.7 383.1Q798.3 384.8 799.2 387.2Q800.0 389.6 800.0 392.6L800.0 392.6Q800.0 395.6 799.2 398.0Q798.3 400.4 796.7 402.1Q795.1 403.8 792.8 404.7Q790.5 405.6 787.6 405.6ZM787.6 400.3L787.6 400.3Q790 400.3 791.3 398.8Q792.7 397.3 792.7 394.6L792.7 394.6L792.7 390.6Q792.7 387.9 791.3 386.4Q790 384.9 787.6 384.9L787.6 384.9Q785.2 384.9 783.9 386.4Q782.5 387.9 782.5 390.6L782.5 390.6L782.5 394.6Q782.5 397.3 783.9 398.8Q785.2 400.3 787.6 400.3ZM809.2 405L803.4 405L803.4 380.2L809.2 380.2L809.2 383.9L809.5 383.9Q810.1 382.2 811.1 380.9Q812.2 379.7 814.2 379.7L814.2 379.7Q817.8 379.7 818.6 383.9L818.6 383.9L818.9 383.9Q819.2 383.0 819.6 382.2Q820.0 381.5 820.7 380.9Q821.3 380.3 822.2 380.0Q823.0 379.7 824.2 379.7L824.2 379.7Q829.4 379.7 829.4 387.3L829.4 387.3L829.4 405L823.6 405L823.6 388.0Q823.6 386.3 823.0 385.6Q822.4 384.9 821.5 384.9L821.5 384.9Q820.6 384.9 819.9 385.5Q819.3 386.1 819.3 387.3L819.3 387.3L819.3 405L813.5 405L813.5 388.0Q813.5 386.3 813.0 385.6Q812.4 384.9 811.5 384.9L811.5 384.9Q810.5 384.9 809.8 385.5Q809.2 386.1 809.2 387.3L809.2 387.3L809.2 405ZM838.0 405L832.2 405L832.2 380.2L838.0 380.2L838.0 383.9L838.3 383.9Q838.9 382.2 839.9 380.9Q841.0 379.7 843.0 379.7L843.0 379.7Q846.6 379.7 847.4 383.9L847.4 383.9L847.7 383.9Q848.0 383.0 848.4 382.2Q848.8 381.5 849.5 380.9Q850.1 380.3 851.0 380.0Q851.8 379.7 853.0 379.7L853.0 379.7Q858.2 379.7 858.2 387.3L858.2 387.3L858.2 405L852.4 405L852.4 388.0Q852.4 386.3 851.8 385.6Q851.2 384.9 850.3 384.9L850.3 384.9Q849.4 384.9 848.7 385.5Q848.1 386.1 848.1 387.3L848.1 387.3L848.1 405L842.3 405L842.3 388.0Q842.3 386.3 841.8 385.6Q841.2 384.9 840.3 384.9L840.3 384.9Q839.3 384.9 838.6 385.5Q838.0 386.1 838.0 387.3L838.0 387.3L838.0 405ZM874.0 405.6L874.0 405.6Q871.1 405.6 868.8 404.7Q866.5 403.8 864.9 402.1Q863.3 400.4 862.4 398.0Q861.6 395.6 861.6 392.6L861.6 392.6Q861.6 389.6 862.4 387.2Q863.3 384.8 864.9 383.1Q866.5 381.4 868.8 380.5Q871.1 379.7 874.0 379.7L874.0 379.7Q876.9 379.7 879.2 380.5Q881.5 381.4 883.1 383.1Q884.7 384.8 885.6 387.2Q886.4 389.6 886.4 392.6L886.4 392.6Q886.4 395.6 885.6 398.0Q884.7 400.4 883.1 402.1Q881.5 403.8 879.2 404.7Q876.9 405.6 874.0 405.6ZM874.0 400.3L874.0 400.3Q876.4 400.3 877.7 398.8Q879.1 397.3 879.1 394.6L879.1 394.6L879.1 390.6Q879.1 387.9 877.7 386.4Q876.4 384.9 874.0 384.9L874.0 384.9Q871.6 384.9 870.3 386.4Q868.9 387.9 868.9 390.6L868.9 390.6L868.9 394.6Q868.9 397.3 870.3 398.8Q871.6 400.3 874.0 400.3ZM898.6 405L891.5 405L891.5 380.2L898.6 380.2L898.6 384.7L898.9 384.7Q899.3 383.7 900.0 382.8Q900.6 381.9 901.5 381.2Q902.4 380.5 903.5 380.1Q904.7 379.7 906.2 379.7L906.2 379.7Q908.0 379.7 909.5 380.3Q911.0 380.9 912.0 382.1Q913.1 383.3 913.7 385.0Q914.3 386.7 914.3 389.0L914.3 389.0L914.3 405L907.2 405L907.2 389.9Q907.2 385.1 903.0 385.1L903.0 385.1Q902.2 385.1 901.4 385.3Q900.6 385.6 900.0 386.0Q899.3 386.5 899.0 387.1Q898.6 387.8 898.6 388.7L898.6 388.7L898.6 405Z M956.9 405L949.6 405L949.6 371.5L962.6 371.5Q965.1 371.5 967.0 372.2Q968.9 373.0 970.2 374.4Q971.5 375.8 972.2 377.7Q972.9 379.7 972.9 382.2L972.9 382.2Q972.9 384.6 972.2 386.6Q971.5 388.5 970.2 389.9Q968.9 391.3 967.0 392.1Q965.1 392.8 962.6 392.8L962.6 392.8L956.9 392.8L956.9 405ZM956.9 377.3L956.9 387L960.8 387Q963.3 387 964.3 386.0Q965.3 385.1 965.3 382.9L965.3 382.9L965.3 381.4Q965.3 379.2 964.3 378.3Q963.3 377.3 960.8 377.3L960.8 377.3L956.9 377.3ZM978.4 405L978.4 399.5L984.1 399.5L984.1 385.8L978.4 385.8L978.4 380.2L991.2 380.2L991.2 387.2L991.5 387.2Q991.8 385.9 992.4 384.6Q993.0 383.4 994.0 382.4Q994.9 381.4 996.3 380.8Q997.6 380.2 999.4 380.2L999.4 380.2L1001.8 380.2L1001.8 386.8L996.5 386.8Q993.9 386.8 992.5 388.3Q991.2 389.9 991.2 392.1L991.2 392.1L991.2 399.5L999.3 399.5L999.3 405L978.4 405ZM1018.7 405.6L1018.7 405.6Q1012.4 405.6 1009.2 402.1Q1006.0 398.7 1006.0 392.7L1006.0 392.7Q1006.0 389.7 1006.8 387.3Q1007.7 384.8 1009.2 383.1Q1010.8 381.4 1013.0 380.5Q1015.3 379.7 1018.0 379.7L1018.0 379.7Q1020.8 379.7 1023.0 380.5Q1025.2 381.4 1026.8 383.1Q1028.3 384.7 1029.2 387.0Q1030.0 389.4 1030.0 392.2L1030.0 392.2L1030.0 394.3L1013.1 394.3L1013.1 394.8Q1013.1 397.2 1014.5 398.6Q1016.0 400.1 1018.9 400.1L1018.9 400.1Q1021.1 400.1 1022.7 399.3Q1024.3 398.4 1025.4 397.0L1025.4 397.0L1029.3 401.2Q1027.8 403.0 1025.2 404.3Q1022.7 405.6 1018.7 405.6ZM1018.1 384.7L1018.1 384.7Q1015.8 384.7 1014.4 386.2Q1013.1 387.6 1013.1 390.0L1013.1 390.0L1013.1 390.4L1023.0 390.4L1023.0 390.0Q1023.0 387.5 1021.7 386.1Q1020.4 384.7 1018.1 384.7ZM1035.8 405L1035.8 399.5L1043.1 399.5L1043.1 385.8L1035.3 385.8L1035.3 380.2L1043.1 380.2L1043.1 376.6Q1043.1 373.5 1045.0 371.5Q1046.8 369.5 1050.7 369.5L1050.7 369.5L1059.1 369.5L1059.1 375L1050.2 375L1050.2 380.2L1059.1 380.2L1059.1 385.8L1050.2 385.8L1050.2 399.5L1058.0 399.5L1058.0 405L1035.8 405ZM1077.1 377.1L1077.1 377.1Q1074.7 377.1 1073.8 376.1Q1072.9 375.1 1072.9 373.7L1072.9 373.7L1072.9 372.3Q1072.9 370.9 1073.8 369.9Q1074.7 369.0 1077.1 369.0L1077.1 369.0Q1079.5 369.0 1080.5 369.9Q1081.4 370.9 1081.4 372.3L1081.4 372.3L1081.4 373.7Q1081.4 375.1 1080.5 376.1Q1079.5 377.1 1077.1 377.1ZM1065.7 405L1065.7 399.5L1073.6 399.5L1073.6 385.8L1065.7 385.8L1065.7 380.2L1080.7 380.2L1080.7 399.5L1088.0 399.5L1088.0 405L1065.7 405ZM1098.6 405L1091.1 405L1100.4 392.4L1091.7 380.2L1099.8 380.2L1102.5 384.2L1104.5 387.4L1104.9 387.4L1106.9 384.2L1109.6 380.2L1117.1 380.2L1108.4 392.0L1117.7 405L1109.5 405L1106.4 400.3L1104.3 397.0L1103.9 397.0L1101.8 400.3L1098.6 405Z "/></g></svg>