<svg width="1200" height="630" viewBox="0 0 1200 630" xmlns="http://www.w3.org/2000/svg"><defs><pattern id="satori_pattern_id_1" x="0" y="0" width="0.08333333333333333" height="0.15873015873015872" patternUnits="objectBoundingBox"><radialGradient id="satori_radial_id_1" spreadMethod="pad"><stop offset="0" stop-color="lightgray"/><stop offset="0.03" stop-color="lightgray"/><stop offset="0" stop-color="transparent"/><stop offset="1" stop-color="transparent"/></radialGradient><mask id="satori_mask_id_1"><rect x="0" y="0" width="100" height="100" fill="#fff"/></mask><rect x="0" y="0" width="100" height="100" fill="transparent"/><circle cx="75" cy="75" width="100" height="100" r="106.06601717798213" fill="url(#satori_radial_id_1)" mask="url(#satori_mask_id_1)"/></pattern><pattern id="satori_pattern_id_0" x="0" y="0" width="0.08333333333333333" height="0.15873015873015872" patternUnits="objectBoundingBox"><radialGradient id="satori_radial_id_0" spreadMethod="pad"><stop offset="0" stop-color="lightgray"/><stop offset="0.03" stop-color="lightgray"/><stop offset="0" stop-color="transparent"/><stop offset="1" stop-color="transparent"/></radialGradient><mask id="satori_mask_id_0"><rect x="0" y="0" width="100" height="100" fill="#fff"/></mask><rect x="0" y="0" width="100" height="100" fill="transparent"/><circle cx="25" cy="25" width="100" height="100" r="106.06601717798213" fill="url(#satori_radial_id_0)" mask="url(#satori_mask_id_0)"/></pattern></defs><mask id="satori_om-id"><rect x="0" y="0" width="1200" height="630" fill="#fff"/></mask><rect x="0" y="0" width="1200" height="630" fill="white"/><rect x="0" y="0" width="1200" height="630" fill="url(#satori_pattern_id_1)"/><rect x="0" y="0" width="1200" height="630" fill="url(#satori_pattern_id_0)"/><mask id="satori_om-id-0"><rect x="326" y="213" width="548" height="205" fill="#fff"/></mask><mask id="satori_om-id-0-0"><rect x="476" y="213" width="248" height="47" fill="#fff"/></mask><mask id="satori_om-id-0-0-0"><rect x="476" y="229" width="16" height="16" fill="#fff"/></mask><rect x="476" y="229" width="16" height="16" fill="black"/><mask id="satori_om-id-0-0-1"><rect x="508" y="213" width="216" height="47" fill="#fff"/></mask><g  ><path fill="black" d="M511.7 257.2L511.7 254.8L520.7 254.8L520.7 233.9L511.3 233.9L511.3 231.4L523.6 231.4L523.6 253.0Q523.6 254.8 522.6 256.0Q521.6 257.2 519.4 257.2L519.4 257.2L511.7 257.2ZM522.1 227.3L522.1 227.3Q520.9 227.3 520.3 226.8Q519.8 226.3 519.8 225.5L519.8 225.5L519.8 224.9Q519.8 224.1 520.3 223.6Q520.9 223.1 522.1 223.1L522.1 223.1Q523.4 223.1 523.9 223.6Q524.4 224.1 524.4 224.9L524.4 224.9L524.4 225.5Q524.4 226.3 523.9 226.8Q523.4 227.3 522.1 227.3ZM549.4 250L547.4 250Q545.7 250 545.0 249.1Q544.3 248.3 544.1 247.0L544.1 247.0L543.9 247.0Q543.3 248.6 542.0 249.5Q540.6 250.4 538.3 250.4L538.3 250.4Q535.4 250.4 533.7 248.9Q532.0 247.4 532.0 244.8L532.0 244.8Q532.0 242.2 533.9 240.8Q535.8 239.4 540.0 239.4L540.0 239.4L543.9 239.4L543.9 237.5Q543.9 235.5 542.8 234.5Q541.6 233.4 539.5 233.4L539.5 233.4Q537.6 233.4 536.4 234.2Q535.3 234.9 534.5 236.2L534.5 236.2L532.6 234.7Q532.9 234.0 533.6 233.3Q534.2 232.6 535.1 232.1Q536.0 231.6 537.1 231.3Q538.3 231.0 539.7 231.0L539.7 231.0Q543.0 231.0 544.9 232.6Q546.8 234.3 546.8 237.3L546.8 237.3L546.8 247.5L549.4 247.5L549.4 250ZM538.9 248.0L538.9 248.0Q540.0 248.0 540.9 247.8Q541.8 247.5 542.5 247.0Q543.2 246.6 543.6 245.9Q543.9 245.3 543.9 244.6L543.9 244.6L543.9 241.5L540.0 241.5Q537.4 241.5 536.2 242.3Q535 243.0 535 244.3L535 244.3L535 245.1Q535 246.5 536.0 247.3Q537.1 248.0 538.9 248.0ZM562.3 250.4L562.3 250.4Q560.3 250.4 558.7 249.7Q557.1 249.1 556.0 247.8Q554.8 246.5 554.2 244.7Q553.6 242.9 553.6 240.7L553.6 240.7Q553.6 238.5 554.2 236.7Q554.9 234.9 556.0 233.6Q557.1 232.4 558.7 231.7Q560.2 231.0 562.1 231.0L562.1 231.0Q564.0 231.0 565.5 231.7Q567.1 232.4 568.2 233.6Q569.2 234.8 569.8 236.4Q570.4 238.1 570.4 240.1L570.4 240.1L570.4 241.4L556.6 241.4L556.6 242.3Q556.6 243.5 557.0 244.6Q557.4 245.6 558.2 246.4Q558.9 247.1 560.0 247.5Q561.0 247.9 562.3 247.9L562.3 247.9Q564.2 247.9 565.6 247.1Q566.9 246.2 567.7 244.7L567.7 244.7L569.8 246.1Q568.9 248.0 567.0 249.2Q565.1 250.4 562.3 250.4ZM562.1 233.4L562.1 233.4Q561.0 233.4 559.9 233.8Q558.9 234.2 558.2 235.0Q557.5 235.7 557.1 236.8Q556.6 237.8 556.6 239.0L556.6 239.0L556.6 239.3L567.3 239.3L567.3 238.9Q567.3 237.7 566.9 236.6Q566.5 235.6 565.9 234.9Q565.2 234.2 564.3 233.8Q563.3 233.4 562.1 233.4ZM576.3 250L576.3 223.4L579.2 223.4L579.2 234.4L579.4 234.4Q579.6 233.8 580.1 233.1Q580.5 232.5 581.1 232.0Q581.8 231.6 582.6 231.3Q583.5 231.0 584.6 231.0L584.6 231.0Q587.6 231.0 589.3 232.8Q591.1 234.7 591.1 238.1L591.1 238.1L591.1 250L588.2 250L588.2 238.6Q588.2 236.0 587.1 234.8Q586.0 233.5 583.8 233.5L583.8 233.5Q583.0 233.5 582.1 233.8Q581.3 234.0 580.6 234.4Q580.0 234.8 579.6 235.5Q579.2 236.2 579.2 237.1L579.2 237.1L579.2 250L576.3 250ZM605.5 250.4L605.5 250.4Q603.5 250.4 601.9 249.7Q600.3 249.1 599.2 247.8Q598.0 246.5 597.4 244.7Q596.8 242.9 596.8 240.7L596.8 240.7Q596.8 238.5 597.4 236.7Q598.1 234.9 599.2 233.6Q600.3 232.4 601.9 231.7Q603.4 231.0 605.3 231.0L605.3 231.0Q607.2 231.0 608.7 231.7Q610.3 232.4 611.4 233.6Q612.4 234.8 613.0 236.4Q613.6 238.1 613.6 240.1L613.6 240.1L613.6 241.4L599.8 241.4L599.8 242.3Q599.8 243.5 600.2 244.6Q600.6 245.6 601.4 246.4Q602.1 247.1 603.2 247.5Q604.2 247.9 605.5 247.9L605.5 247.9Q607.4 247.9 608.8 247.1Q610.1 246.2 610.9 244.7L610.9 244.7L613.0 246.1Q612.1 248.0 610.2 249.2Q608.3 250.4 605.5 250.4ZM605.3 233.4L605.3 233.4Q604.2 233.4 603.1 233.8Q602.1 234.2 601.4 235.0Q600.7 235.7 600.3 236.8Q599.8 237.8 599.8 239.0L599.8 239.0L599.8 239.3L610.5 239.3L610.5 238.9Q610.5 237.7 610.1 236.6Q609.7 235.6 609.1 234.9Q608.4 234.2 607.5 233.8Q606.5 233.4 605.3 233.4ZM627.1 250.4L627.1 250.4Q625.1 250.4 623.5 249.7Q621.9 249.1 620.8 247.8Q619.6 246.5 619.0 244.7Q618.4 242.9 618.4 240.7L618.4 240.7Q618.4 238.5 619.0 236.7Q619.7 234.9 620.8 233.6Q621.9 232.4 623.5 231.7Q625.0 231.0 626.9 231.0L626.9 231.0Q628.8 231.0 630.3 231.7Q631.9 232.4 633.0 233.6Q634.0 234.8 634.6 236.4Q635.2 238.1 635.2 240.1L635.2 240.1L635.2 241.4L621.4 241.4L621.4 242.3Q621.4 243.5 621.8 244.6Q622.2 245.6 623.0 246.4Q623.7 247.1 624.8 247.5Q625.8 247.9 627.1 247.9L627.1 247.9Q629.0 247.9 630.4 247.1Q631.7 246.2 632.5 244.7L632.5 244.7L634.6 246.1Q633.7 248.0 631.8 249.2Q629.9 250.4 627.1 250.4ZM626.9 233.4L626.9 233.4Q625.8 233.4 624.7 233.8Q623.7 234.2 623.0 235.0Q622.3 235.7 621.9 236.8Q621.4 237.8 621.4 239.0L621.4 239.0L621.4 239.3L632.1 239.3L632.1 238.9Q632.1 237.7 631.7 236.6Q631.3 235.6 630.7 234.9Q630.0 234.2 629.1 233.8Q628.1 233.4 626.9 233.4ZM648.4 250.3L648.4 250.3Q646.9 250.3 646.3 249.7Q645.7 249.1 645.7 248.2L645.7 248.2L645.7 247.5Q645.7 246.6 646.3 246.0Q646.9 245.4 648.4 245.4L648.4 245.4Q649.9 245.4 650.5 246.0Q651.1 246.6 651.1 247.5L651.1 247.5L651.1 248.2Q651.1 249.1 650.5 249.7Q649.9 250.3 648.4 250.3ZM674.5 250L674.5 247.0L674.4 247.0Q672.6 250.4 668.6 250.4L668.6 250.4Q665.2 250.4 663.3 247.9Q661.4 245.3 661.4 240.7L661.4 240.7Q661.4 236.1 663.3 233.5Q665.2 231.0 668.6 231.0L668.6 231.0Q672.6 231.0 674.4 234.4L674.4 234.4L674.5 234.4L674.5 223.4L677.4 223.4L677.4 250L674.5 250ZM669.7 247.9L669.7 247.9Q670.7 247.9 671.6 247.6Q672.4 247.4 673.1 246.9Q673.7 246.4 674.1 245.7Q674.5 245.0 674.5 244.1L674.5 244.1L674.5 237.4Q674.5 236.4 674.1 235.7Q673.7 235.0 673.1 234.5Q672.4 234.1 671.6 233.8Q670.7 233.5 669.7 233.5L669.7 233.5Q667.2 233.5 665.8 235.1Q664.5 236.6 664.5 239.1L664.5 239.1L664.5 242.3Q664.5 244.8 665.8 246.3Q667.2 247.9 669.7 247.9ZM691.9 250.4L691.9 250.4Q689.9 250.4 688.3 249.7Q686.7 249.1 685.6 247.8Q684.4 246.5 683.8 244.7Q683.2 242.9 683.2 240.7L683.2 240.7Q683.2 238.5 683.8 236.7Q684.5 234.9 685.6 233.6Q686.7 232.4 688.3 231.7Q689.8 231.0 691.7 231.0L691.7 231.0Q693.6 231.0 695.1 231.7Q696.7 232.4 697.8 233.6Q698.8 234.8 699.4 236.4Q700.0 238.1 700.0 240.1L700.0 240.1L700.0 241.4L686.2 241.4L686.2 242.3Q686.2 243.5 686.6 244.6Q687.0 245.6 687.8 246.4Q688.5 247.1 689.6 247.5Q690.6 247.9 691.9 247.9L691.9 247.9Q693.8 247.9 695.2 247.1Q696.5 246.2 697.3 244.7L697.3 244.7L699.4 246.1Q698.5 248.0 696.6 249.2Q694.7 250.4 691.9 250.4ZM691.7 233.4L691.7 233.4Q690.6 233.4 689.5 233.8Q688.5 234.2 687.8 235.0Q687.1 235.7 686.7 236.8Q686.2 237.8 686.2 239.0L686.2 239.0L686.2 239.3L696.9 239.3L696.9 238.9Q696.9 237.7 696.5 236.6Q696.1 235.6 695.5 234.9Q694.8 234.2 693.9 233.8Q692.9 233.4 691.7 233.4ZM715.0 250L711.4 250L704.7 231.4L707.6 231.4L710.3 239.2L713.2 247.6L713.3 247.6L716.2 239.2L718.9 231.4L721.7 231.4L715.0 250Z "/></g><mask id="satori_om-id-0-1"><rect x="326" y="356" width="548" height="62" fill="#fff"/></mask><g  ><path fill="black" d="M352.1 405L330.4 405L330.4 371.5L337.7 371.5L337.7 399.1L352.1 399.1L352.1 405ZM369.9 405.6L369.9 405.6Q363.6 405.6 360.4 402.1Q357.2 398.7 357.2 392.7L357.2 392.7Q357.2 389.7 358.0 387.3Q358.9 384.8 360.4 383.1Q362 381.4 364.2 380.5Q366.5 379.7 369.2 379.7L369.2 379.7Q372.0 379.7 374.2 380.5Q376.4 381.4 378.0 383.1Q379.5 384.7 380.4 387.0Q381.2 389.4 381.2 392.2L381.2 392.2L381.2 394.3L364.3 394.3L364.3 394.8Q364.3 397.2 365.7 398.6Q367.2 400.1 370.1 400.1L370.1 400.1Q372.3 400.1 373.9 399.3Q375.5 398.4 376.6 397.0L376.6 397.0L380.5 401.2Q379.0 403.0 376.4 404.3Q373.9 405.6 369.9 405.6ZM369.3 384.7L369.3 384.7Q367.0 384.7 365.6 386.2Q364.3 387.6 364.3 390.0L364.3 390.0L364.3 390.4L374.2 390.4L374.2 390.0Q374.2 387.5 372.9 386.1Q371.6 384.7 369.3 384.7ZM398.7 405.6L398.7 405.6Q392.4 405.6 389.2 402.1Q386 398.7 386 392.7L386 392.7Q386 389.7 386.8 387.3Q387.7 384.8 389.2 383.1Q390.8 381.4 393.0 380.5Q395.3 379.7 398.0 379.7L398.0 379.7Q400.8 379.7 403.0 380.5Q405.2 381.4 406.8 383.1Q408.3 384.7 409.2 387.0Q410 389.4 410 392.2L410 392.2L410 394.3L393.1 394.3L393.1 394.8Q393.1 397.2 394.5 398.6Q396.0 400.1 398.9 400.1L398.9 400.1Q401.1 400.1 402.7 399.3Q404.3 398.4 405.4 397.0L405.4 397.0L409.3 401.2Q407.8 403.0 405.2 404.3Q402.7 405.6 398.7 405.6ZM398.1 384.7L398.1 384.7Q395.8 384.7 394.4 386.2Q393.1 387.6 393.1 390.0L393.1 390.0L393.1 390.4L403.0 390.4L403.0 390.0Q403.0 387.5 401.7 386.1Q400.4 384.7 398.1 384.7ZM437.9 405L428.7 405Q424.9 405 423.0 403.0Q421.1 401.0 421.1 397.8L421.1 397.8L421.1 385.8L414.4 385.8L414.4 380.2L418.8 380.2Q420.4 380.2 421.0 379.6Q421.7 379.0 421.7 377.3L421.7 377.3L421.7 371.5L428.2 371.5L428.2 380.2L437.9 380.2L437.9 385.8L428.2 385.8L428.2 399.5L437.9 399.5L437.9 405ZM456.4 405.6L456.4 405.6Q449.6 405.6 446.4 401.0Q443.2 396.5 443.2 388.2L443.2 388.2Q443.2 380.0 446.4 375.5Q449.6 370.9 456.4 370.9L456.4 370.9Q459.0 370.9 461.0 371.6Q462.9 372.3 464.4 373.6Q465.8 374.8 466.8 376.6Q467.7 378.4 468.2 380.6L468.2 380.6L461.5 382.2Q461.2 381 460.8 380.0Q460.4 379.0 459.8 378.3Q459.2 377.5 458.4 377.1Q457.5 376.7 456.2 376.7L456.2 376.7Q453.3 376.7 452.1 379.0Q450.8 381.3 450.8 385.3L450.8 385.3L450.8 391.2Q450.8 395.2 452.1 397.5Q453.3 399.8 456.2 399.8L456.2 399.8Q458.7 399.8 459.8 398.2Q461.0 396.7 461.5 394.3L461.5 394.3L468.2 395.9Q467.7 398.1 466.8 399.9Q465.8 401.7 464.4 403.0Q462.9 404.2 461.0 404.9Q459.0 405.6 456.4 405.6ZM484.4 405.6L484.4 405.6Q481.5 405.6 479.2 404.7Q476.9 403.8 475.3 402.1Q473.7 400.4 472.8 398.0Q472.0 395.6 472.0 392.6L472.0 392.6Q472.0 389.6 472.8 387.2Q473.7 384.8 475.3 383.1Q476.9 381.4 479.2 380.5Q481.5 379.7 484.4 379.7L484.4 379.7Q487.3 379.7 489.6 380.5Q491.9 381.4 493.5 383.1Q495.1 384.8 496.0 387.2Q496.8 389.6 496.8 392.6L496.8 392.6Q496.8 395.6 496.0 398.0Q495.1 400.4 493.5 402.1Q491.9 403.8 489.6 404.7Q487.3 405.6 484.4 405.6ZM484.4 400.3L484.4 400.3Q486.8 400.3 488.1 398.8Q489.5 397.3 489.5 394.6L489.5 394.6L489.5 390.6Q489.5 387.9 488.1 386.4Q486.8 384.9 484.4 384.9L484.4 384.9Q482.0 384.9 480.7 386.4Q479.3 387.9 479.3 390.6L479.3 390.6L479.3 394.6Q479.3 397.3 480.7 398.8Q482.0 400.3 484.4 400.3ZM517.7 405L517.7 400.5L517.3 400.5Q516.4 402.7 514.7 404.2Q513.0 405.6 510.0 405.6L510.0 405.6Q507.9 405.6 506.2 404.8Q504.5 404.0 503.3 402.5Q502.1 400.9 501.4 398.4Q500.7 396.0 500.7 392.6L500.7 392.6Q500.7 389.3 501.4 386.8Q502.1 384.4 503.3 382.8Q504.5 381.2 506.2 380.4Q507.9 379.7 510.0 379.7L510.0 379.7Q511.5 379.7 512.6 380.0Q513.8 380.4 514.7 381.1Q515.6 381.8 516.2 382.7Q516.8 383.6 517.3 384.7L517.3 384.7L517.7 384.7L517.7 369.5L524.8 369.5L524.8 405L517.7 405ZM513.1 400.1L513.1 400.1Q514.9 400.1 516.3 399.1Q517.7 398.2 517.7 396.3L517.7 396.3L517.7 389.0Q517.7 387 516.3 386.1Q514.9 385.2 513.1 385.2L513.1 385.2Q510.7 385.2 509.4 386.6Q508.1 388.1 508.1 390.7L508.1 390.7L508.1 394.5Q508.1 397.1 509.4 398.6Q510.7 400.1 513.1 400.1ZM542.7 405.6L542.7 405.6Q536.4 405.6 533.2 402.1Q530 398.7 530 392.7L530 392.7Q530 389.7 530.8 387.3Q531.7 384.8 533.2 383.1Q534.8 381.4 537.0 380.5Q539.3 379.7 542.0 379.7L542.0 379.7Q544.8 379.7 547.0 380.5Q549.2 381.4 550.8 383.1Q552.3 384.7 553.2 387.0Q554 389.4 554 392.2L554 392.2L554 394.3L537.1 394.3L537.1 394.8Q537.1 397.2 538.5 398.6Q540.0 400.1 542.9 400.1L542.9 400.1Q545.1 400.1 546.7 399.3Q548.3 398.4 549.4 397.0L549.4 397.0L553.3 401.2Q551.8 403.0 549.2 404.3Q546.7 405.6 542.7 405.6ZM542.1 384.7L542.1 384.7Q539.8 384.7 538.4 386.2Q537.1 387.6 537.1 390.0L537.1 390.0L537.1 390.4L547.0 390.4L547.0 390.0Q547.0 387.5 545.7 386.1Q544.4 384.7 542.1 384.7Z M607.3 393.8L591.9 393.8L591.9 387.0L607.3 387.0L607.3 393.8Z M670.6 405L647.3 405L647.3 399.2L656.3 399.2L656.3 376.7L655.9 376.7L649.1 385.7L644.5 382.1L652.5 371.5L663.5 371.5L663.5 399.2L670.6 399.2L670.6 405ZM696.8 371.5L696.8 377.8L681.3 377.8L680.5 388.4L681.0 388.4Q681.5 387.2 682.2 386.3Q682.8 385.3 683.7 384.6Q684.7 383.9 685.9 383.5Q687.1 383.1 688.6 383.1L688.6 383.1Q690.7 383.1 692.5 383.8Q694.4 384.6 695.8 385.9Q697.2 387.3 698 389.3Q698.8 391.3 698.8 393.8L698.8 393.8Q698.8 396.3 698.0 398.5Q697.1 400.6 695.4 402.2Q693.8 403.8 691.3 404.7Q688.9 405.6 685.8 405.6L685.8 405.6Q683.3 405.6 681.4 405.0Q679.5 404.5 678.0 403.6Q676.5 402.7 675.5 401.6Q674.4 400.4 673.6 399.1L673.6 399.1L678.8 395.0Q679.4 396.0 680.1 396.8Q680.7 397.7 681.6 398.4Q682.4 399 683.4 399.4Q684.5 399.7 685.8 399.7L685.8 399.7Q688.5 399.7 689.9 398.3Q691.2 396.8 691.2 394.3L691.2 394.3L691.2 394.0Q691.2 391.6 689.8 390.3Q688.4 388.9 686 388.9L686 388.9Q684.0 388.9 682.7 389.7Q681.3 390.5 680.7 391.3L680.7 391.3L674.8 390.5L676.0 371.5L696.8 371.5ZM714.8 405.6L714.8 405.6Q712.1 405.6 710.9 404.4Q709.8 403.2 709.8 401.6L709.8 401.6L709.8 399.9Q709.8 398.3 710.9 397.1Q712.1 395.9 714.8 395.9L714.8 395.9Q717.5 395.9 718.7 397.1Q719.8 398.3 719.8 399.9L719.8 399.9L719.8 401.6Q719.8 403.2 718.7 404.4Q717.5 405.6 714.8 405.6Z M767.9 384.7L771.1 384.7Q773.9 384.7 775.2 383.7Q776.4 382.6 776.4 381.1L776.4 381.1L776.4 380.8Q776.4 378.9 775.2 377.9Q774.0 376.8 771.7 376.8L771.7 376.8Q769.7 376.8 767.9 377.8Q766.1 378.8 764.8 380.8L764.8 380.8L760.3 376.5Q761.2 375.3 762.4 374.3Q763.5 373.2 764.9 372.5Q766.3 371.7 768.1 371.3Q769.8 370.9 772.0 370.9L772.0 370.9Q774.8 370.9 777.0 371.5Q779.2 372.2 780.7 373.3Q782.3 374.5 783.2 376.2Q784.0 377.8 784.0 379.8L784.0 379.8Q784.0 381.4 783.5 382.7Q783.0 384.0 782.1 384.9Q781.2 385.9 780.0 386.5Q778.8 387.1 777.5 387.3L777.5 387.3L777.5 387.6Q780.6 388.2 782.6 390.2Q784.6 392.2 784.6 395.7L784.6 395.7Q784.6 397.9 783.7 399.8Q782.8 401.6 781.1 402.9Q779.4 404.2 776.9 404.9Q774.5 405.6 771.5 405.6L771.5 405.6Q769.0 405.6 767.0 405.0Q765.1 404.5 763.6 403.6Q762.1 402.7 761.0 401.6Q760.0 400.4 759.2 399.1L759.2 399.1L764.5 395.0Q765.6 397.1 767.2 398.4Q768.9 399.7 771.7 399.7L771.7 399.7Q774.3 399.7 775.7 398.5Q777.1 397.3 777.1 395.2L777.1 395.2L777.1 394.9Q777.1 392.8 775.5 391.8Q773.9 390.7 771.1 390.7L771.1 390.7L767.9 390.7L767.9 384.7ZM800.7 405.6L800.7 405.6Q796.4 405.6 793.3 404.2Q790.2 402.8 788.3 400.4L788.3 400.4L792.5 395.8Q794.3 397.8 796.5 398.8Q798.7 399.7 800.9 399.7L800.9 399.7Q803.5 399.7 804.8 398.6Q806.2 397.4 806.2 395.3L806.2 395.3Q806.2 393.5 805.2 392.6Q804.1 391.7 801.7 391.3L801.7 391.3L798.2 390.7Q793.7 389.9 791.6 387.4Q789.6 384.8 789.6 381.1L789.6 381.1Q789.6 376.2 792.8 373.6Q796.0 370.9 801.7 370.9L801.7 370.9Q805.6 370.9 808.4 372.1Q811.3 373.3 813.1 375.4L813.1 375.4L809.0 379.9Q807.7 378.5 805.9 377.6Q804.0 376.8 801.7 376.8L801.7 376.8Q796.9 376.8 796.9 380.8L796.9 380.8Q796.9 382.5 798.0 383.4Q799.0 384.2 801.5 384.6L801.5 384.6L805.0 385.3Q809.1 386.0 811.3 388.3Q813.5 390.7 813.5 394.7L813.5 394.7Q813.5 397.0 812.7 399.0Q811.9 401.0 810.2 402.5Q808.6 403.9 806.2 404.8Q803.8 405.6 800.7 405.6ZM834.2 405L834.2 400.5L833.9 400.5Q833.1 402.6 831.3 404.1Q829.6 405.6 826.6 405.6L826.6 405.6Q824.8 405.6 823.3 405.0Q821.8 404.4 820.8 403.2Q819.7 402.0 819.1 400.2Q818.5 398.5 818.5 396.3L818.5 396.3L818.5 380.2L825.6 380.2L825.6 395.3Q825.6 400.1 829.8 400.1L829.8 400.1Q830.6 400.1 831.4 399.9Q832.2 399.7 832.8 399.2Q833.4 398.8 833.8 398.1Q834.2 397.4 834.2 396.5L834.2 396.5L834.2 380.2L841.3 380.2L841.3 405L834.2 405ZM851.6 405L845.8 405L845.8 380.2L851.6 380.2L851.6 383.9L851.9 383.9Q852.5 382.2 853.5 380.9Q854.6 379.7 856.6 379.7L856.6 379.7Q860.2 379.7 861.0 383.9L861.0 383.9L861.3 383.9Q861.6 383.0 862.0 382.2Q862.4 381.5 863.1 380.9Q863.7 380.3 864.6 380.0Q865.4 379.7 866.6 379.7L866.6 379.7Q871.8 379.7 871.8 387.3L871.8 387.3L871.8 405L866.0 405L866.0 388.0Q866.0 386.3 865.4 385.6Q864.8 384.9 863.9 384.9L863.9 384.9Q863.0 384.9 862.3 385.5Q861.7 386.1 861.7 387.3L861.7 387.3L861.7 405L855.9 405L855.9 388.0Q855.9 386.3 855.4 385.6Q854.8 384.9 853.9 384.9L853.9 384.9Q852.9 384.9 852.2 385.5Q851.6 386.1 851.6 387.3L851.6 387.3L851.6 405Z "/></g></svg>