<svg width="1200" height="630" viewBox="0 0 1200 630" xmlns="http://www.w3.org/2000/svg"><defs><pattern id="satori_pattern_id_1" x="0" y="0" width="0.08333333333333333" height="0.15873015873015872" patternUnits="objectBoundingBox"><radialGradient id="satori_radial_id_1" spreadMethod="pad"><stop offset="0" stop-color="lightgray"/><stop offset="0.03" stop-color="lightgray"/><stop offset="0" stop-color="transparent"/><stop offset="1" stop-color="transparent"/></radialGradient><mask id="satori_mask_id_1"><rect x="0" y="0" width="100" height="100" fill="#fff"/></mask><rect x="0" y="0" width="100" height="100" fill="transparent"/><circle cx="75" cy="75" width="100" height="100" r="106.06601717798213" fill="url(#satori_radial_id_1)" mask="url(#satori_mask_id_1)"/></pattern><pattern id="satori_pattern_id_0" x="0" y="0" width="0.08333333333333333" height="0.15873015873015872" patternUnits="objectBoundingBox"><radialGradient id="satori_radial_id_0" spreadMethod="pad"><stop offset="0" stop-color="lightgray"/><stop offset="0.03" stop-color="lightgray"/><stop offset="0" stop-color="transparent"/><stop offset="1" stop-color="transparent"/></radialGradient><mask id="satori_mask_id_0"><rect x="0" y="0" width="100" height="100" fill="#fff"/></mask><rect x="0" y="0" width="100" height="100" fill="transparent"/><circle cx="25" cy="25" width="100" height="100" r="106.06601717798213" fill="url(#satori_radial_id_0)" mask="url(#satori_mask_id_0)"/></pattern></defs><mask id="satori_om-id"><rect x="0" y="0" width="1200" height="630" fill="#fff"/></mask><rect x="0" y="0" width="1200" height="630" fill="white"/><rect x="0" y="0" width="1200" height="630" fill="url(#satori_pattern_id_1)"/><rect x="0" y="0" width="1200" height="630" fill="url(#satori_pattern_id_0)"/><mask id="satori_om-id-0"><rect x="67" y="213" width="1066" height="205" fill="#fff"/></mask><mask id="satori_om-id-0-0"><rect x="476" y="213" width="248" height="47" fill="#fff"/></mask><mask id="satori_om-id-0-0-0"><rect x="476" y="229" width="16" height="16" fill="#fff"/></mask><rect x="476" y="229" width="16" height="16" fill="black"/><mask id="satori_om-id-0-0-1"><rect x="508" y="213" width="216" height="47" fill="#fff"/></mask><g  ><path fill="black" d="M511.7 257.2L511.7 254.8L520.7 254.8L520.7 233.9L511.3 233.9L511.3 231.4L523.6 231.4L523.6 253.0Q523.6 254.8 522.6 256.0Q521.6 257.2 519.4 257.2L519.4 257.2L511.7 257.2ZM522.1 227.3L522.1 227.3Q520.9 227.3 520.3 226.8Q519.8 226.3 519.8 225.5L519.8 225.5L519.8 224.9Q519.8 224.1 520.3 223.6Q520.9 223.1 522.1 223.1L522.1 223.1Q523.4 223.1 523.9 223.6Q524.4 224.1 524.4 224.9L524.4 224.9L524.4 225.5Q524.4 226.3 523.9 226.8Q523.4 227.3 522.1 227.3ZM549.4 250L547.4 250Q545.7 250 545.0 249.1Q544.3 248.3 544.1 247.0L544.1 247.0L543.9 247.0Q543.3 248.6 542.0 249.5Q540.6 250.4 538.3 250.4L538.3 250.4Q535.4 250.4 533.7 248.9Q532.0 247.4 532.0 244.8L532.0 244.8Q532.0 242.2 533.9 240.8Q535.8 239.4 540.0 239.4L540.0 239.4L543.9 239.4L543.9 237.5Q543.9 235.5 542.8 234.5Q541.6 233.4 539.5 233.4L539.5 233.4Q537.6 233.4 536.4 234.2Q535.3 234.9 534.5 236.2L534.5 236.2L532.6 234.7Q532.9 234.0 533.6 233.3Q534.2 232.6 535.1 232.1Q536.0 231.6 537.1 231.3Q538.3 231.0 539.7 231.0L539.7 231.0Q543.0 231.0 544.9 232.6Q546.8 234.3 546.8 237.3L546.8 237.3L546.8 247.5L549.4 247.5L549.4 250ZM538.9 248.0L538.9 248.0Q540.0 248.0 540.9 247.8Q541.8 247.5 542.5 247.0Q543.2 246.6 543.6 245.9Q543.9 245.3 543.9 244.6L543.9 244.6L543.9 241.5L540.0 241.5Q537.4 241.5 536.2 242.3Q535 243.0 535 244.3L535 244.3L535 245.1Q535 246.5 536.0 247.3Q537.1 248.0 538.9 248.0ZM562.3 250.4L562.3 250.4Q560.3 250.4 558.7 249.7Q557.1 249.1 556.0 247.8Q554.8 246.5 554.2 244.7Q553.6 242.9 553.6 240.7L553.6 240.7Q553.6 238.5 554.2 236.7Q554.9 234.9 556.0 233.6Q557.1 232.4 558.7 231.7Q560.2 231.0 562.1 231.0L562.1 231.0Q564.0 231.0 565.5 231.7Q567.1 232.4 568.2 233.6Q569.2 234.8 569.8 236.4Q570.4 238.1 570.4 240.1L570.4 240.1L570.4 241.4L556.6 241.4L556.6 242.3Q556.6 243.5 557.0 244.6Q557.4 245.6 558.2 246.4Q558.9 247.1 560.0 247.5Q561.0 247.9 562.3 247.9L562.3 247.9Q564.2 247.9 565.6 247.1Q566.9 246.2 567.7 244.7L567.7 244.7L569.8 246.1Q568.9 248.0 567.0 249.2Q565.1 250.4 562.3 250.4ZM562.1 233.4L562.1 233.4Q561.0 233.4 559.9 233.8Q558.9 234.2 558.2 235.0Q557.5 235.7 557.1 236.8Q556.6 237.8 556.6 239.0L556.6 239.0L556.6 239.3L567.3 239.3L567.3 238.9Q567.3 237.7 566.9 236.6Q566.5 235.6 565.9 234.9Q565.2 234.2 564.3 233.8Q563.3 233.4 562.1 233.4ZM576.3 250L576.3 223.4L579.2 223.4L579.2 234.4L579.4 234.4Q579.6 233.8 580.1 233.1Q580.5 232.5 581.1 232.0Q581.8 231.6 582.6 231.3Q583.5 231.0 584.6 231.0L584.6 231.0Q587.6 231.0 589.3 232.8Q591.1 234.7 591.1 238.1L591.1 238.1L591.1 250L588.2 250L588.2 238.6Q588.2 236.0 587.1 234.8Q586.0 233.5 583.8 233.5L583.8 233.5Q583.0 233.5 582.1 233.8Q581.3 234.0 580.6 234.4Q580.0 234.8 579.6 235.5Q579.2 236.2 579.2 237.1L579.2 237.1L579.2 250L576.3 250ZM605.5 250.4L605.5 250.4Q603.5 250.4 601.9 249.7Q600.3 249.1 599.2 247.8Q598.0 246.5 597.4 244.7Q596.8 242.9 596.8 240.7L596.8 240.7Q596.8 238.5 597.4 236.7Q598.1 234.9 599.2 233.6Q600.3 232.4 601.9 231.7Q603.4 231.0 605.3 231.0L605.3 231.0Q607.2 231.0 608.7 231.7Q610.3 232.4 611.4 233.6Q612.4 234.8 613.0 236.4Q613.6 238.1 613.6 240.1L613.6 240.1L613.6 241.4L599.8 241.4L599.8 242.3Q599.8 243.5 600.2 244.6Q600.6 245.6 601.4 246.4Q602.1 247.1 603.2 247.5Q604.2 247.9 605.5 247.9L605.5 247.9Q607.4 247.9 608.8 247.1Q610.1 246.2 610.9 244.7L610.9 244.7L613.0 246.1Q612.1 248.0 610.2 249.2Q608.3 250.4 605.5 250.4ZM605.3 233.4L605.3 233.4Q604.2 233.4 603.1 233.8Q602.1 234.2 601.4 235.0Q600.7 235.7 600.3 236.8Q599.8 237.8 599.8 239.0L599.8 239.0L599.8 239.3L610.5 239.3L610.5 238.9Q610.5 237.7 610.1 236.6Q609.7 235.6 609.1 234.9Q608.4 234.2 607.5 233.8Q606.5 233.4 605.3 233.4ZM627.1 250.4L627.1 250.4Q625.1 250.4 623.5 249.7Q621.9 249.1 620.8 247.8Q619.6 246.5 619.0 244.7Q618.4 242.9 618.4 240.7L618.4 240.7Q618.4 238.5 619.0 236.7Q619.7 234.9 620.8 233.6Q621.9 232.4 623.5 231.7Q625.0 231.0 626.9 231.0L626.9 231.0Q628.8 231.0 630.3 231.7Q631.9 232.4 633.0 233.6Q634.0 234.8 634.6 236.4Q635.2 238.1 635.2 240.1L635.2 240.1L635.2 241.4L621.4 241.4L621.4 242.3Q621.4 243.5 621.8 244.6Q622.2 245.6 623.0 246.4Q623.7 247.1 624.8 247.5Q625.8 247.9 627.1 247.9L627.1 247.9Q629.0 247.9 630.4 247.1Q631.7 246.2 632.5 244.7L632.5 244.7L634.6 246.1Q633.7 248.0 631.8 249.2Q629.9 250.4 627.1 250.4ZM626.9 233.4L626.9 233.4Q625.8 233.4 624.7 233.8Q623.7 234.2 623.0 235.0Q622.3 235.7 621.9 236.8Q621.4 237.8 621.4 239.0L621.4 239.0L621.4 239.3L632.1 239.3L632.1 238.9Q632.1 237.7 631.7 236.6Q631.3 235.6 630.7 234.9Q630.0 234.2 629.1 233.8Q628.1 233.4 626.9 233.4ZM648.4 250.3L648.4 250.3Q646.9 250.3 646.3 249.7Q645.7 249.1 645.7 248.2L645.7 248.2L645.7 247.5Q645.7 246.6 646.3 246.0Q646.9 245.4 648.4 245.4L648.4 245.4Q649.9 245.4 650.5 246.0Q651.1 246.6 651.1 247.5L651.1 247.5L651.1 248.2Q651.1 249.1 650.5 249.7Q649.9 250.3 648.4 250.3ZM674.5 250L674.5 247.0L674.4 247.0Q672.6 250.4 668.6 250.4L668.6 250.4Q665.2 250.4 663.3 247.9Q661.4 245.3 661.4 240.7L661.4 240.7Q661.4 236.1 663.3 233.5Q665.2 231.0 668.6 231.0L668.6 231.0Q672.6 231.0 674.4 234.4L674.4 234.4L674.5 234.4L674.5 223.4L677.4 223.4L677.4 250L674.5 250ZM669.7 247.9L669.7 247.9Q670.7 247.9 671.6 247.6Q672.4 247.4 673.1 246.9Q673.7 246.4 674.1 245.7Q674.5 245.0 674.5 244.1L674.5 244.1L674.5 237.4Q674.5 236.4 674.1 235.7Q673.7 235.0 673.1 234.5Q672.4 234.1 671.6 233.8Q670.7 233.5 669.7 233.5L669.7 233.5Q667.2 233.5 665.8 235.1Q664.5 236.6 664.5 239.1L664.5 239.1L664.5 242.3Q664.5 244.8 665.8 246.3Q667.2 247.9 669.7 247.9ZM691.9 250.4L691.9 250.4Q689.9 250.4 688.3 249.7Q686.7 249.1 685.6 247.8Q684.4 246.5 683.8 244.7Q683.2 242.9 683.2 240.7L683.2 240.7Q683.2 238.5 683.8 236.7Q684.5 234.9 685.6 233.6Q686.7 232.4 688.3 231.7Q689.8 231.0 691.7 231.0L691.7 231.0Q693.6 231.0 695.1 231.7Q696.7 232.4 697.8 233.6Q698.8 234.8 699.4 236.4Q700.0 238.1 700.0 240.1L700.0 240.1L700.0 241.4L686.2 241.4L686.2 242.3Q686.2 243.5 686.6 244.6Q687.0 245.6 687.8 246.4Q688.5 247.1 689.6 247.5Q690.6 247.9 691.9 247.9L691.9 247.9Q693.8 247.9 695.2 247.1Q696.5 246.2 697.3 244.7L697.3 244.7L699.4 246.1Q698.5 248.0 696.6 249.2Q694.7 250.4 691.9 250.4ZM691.7 233.4L691.7 233.4Q690.6 233.4 689.5 233.8Q688.5 234.2 687.8 235.0Q687.1 235.7 686.7 236.8Q686.2 237.8 686.2 239.0L686.2 239.0L686.2 239.3L696.9 239.3L696.9 238.9Q696.9 237.7 696.5 236.6Q696.1 235.6 695.5 234.9Q694.8 234.2 693.9 233.8Q692.9 233.4 691.7 233.4ZM715.0 250L711.4 250L704.7 231.4L707.6 231.4L710.3 239.2L713.2 247.6L713.3 247.6L716.2 239.2L718.9 231.4L721.7 231.4L715.0 250Z "/></g><mask id="satori_om-id-0-1"><rect x="67" y="356" width="1066" height="62" fill="#fff"/></mask><g  ><path fill="black" d="M93.1 405L71.4 405L71.4 371.5L78.7 371.5L78.7 399.1L93.1 399.1L93.1 405ZM110.9 405.6L110.9 405.6Q104.6 405.6 101.4 402.1Q98.2 398.7 98.2 392.7L98.2 392.7Q98.2 389.7 99.0 387.3Q99.9 384.8 101.4 383.1Q103 381.4 105.2 380.5Q107.5 379.7 110.2 379.7L110.2 379.7Q113.0 379.7 115.2 380.5Q117.4 381.4 119.0 383.1Q120.5 384.7 121.4 387.0Q122.2 389.4 122.2 392.2L122.2 392.2L122.2 394.3L105.3 394.3L105.3 394.8Q105.3 397.2 106.7 398.6Q108.2 400.1 111.1 400.1L111.1 400.1Q113.3 400.1 114.9 399.3Q116.5 398.4 117.6 397.0L117.6 397.0L121.5 401.2Q120.0 403.0 117.4 404.3Q114.9 405.6 110.9 405.6ZM110.3 384.7L110.3 384.7Q108.0 384.7 106.6 386.2Q105.3 387.6 105.3 390.0L105.3 390.0L105.3 390.4L115.2 390.4L115.2 390.0Q115.2 387.5 113.9 386.1Q112.6 384.7 110.3 384.7ZM139.7 405.6L139.7 405.6Q133.4 405.6 130.2 402.1Q127 398.7 127 392.7L127 392.7Q127 389.7 127.8 387.3Q128.7 384.8 130.2 383.1Q131.8 381.4 134.0 380.5Q136.3 379.7 139.0 379.7L139.0 379.7Q141.8 379.7 144.0 380.5Q146.2 381.4 147.8 383.1Q149.3 384.7 150.2 387.0Q151 389.4 151 392.2L151 392.2L151 394.3L134.1 394.3L134.1 394.8Q134.1 397.2 135.5 398.6Q137.0 400.1 139.9 400.1L139.9 400.1Q142.1 400.1 143.7 399.3Q145.3 398.4 146.4 397.0L146.4 397.0L150.3 401.2Q148.8 403.0 146.2 404.3Q143.7 405.6 139.7 405.6ZM139.1 384.7L139.1 384.7Q136.8 384.7 135.4 386.2Q134.1 387.6 134.1 390.0L134.1 390.0L134.1 390.4L144.0 390.4L144.0 390.0Q144.0 387.5 142.7 386.1Q141.4 384.7 139.1 384.7ZM178.9 405L169.7 405Q165.9 405 164.0 403.0Q162.1 401.0 162.1 397.8L162.1 397.8L162.1 385.8L155.4 385.8L155.4 380.2L159.8 380.2Q161.4 380.2 162.0 379.6Q162.7 379.0 162.7 377.3L162.7 377.3L162.7 371.5L169.2 371.5L169.2 380.2L178.9 380.2L178.9 385.8L169.2 385.8L169.2 399.5L178.9 399.5L178.9 405ZM197.4 405.6L197.4 405.6Q190.6 405.6 187.4 401.0Q184.2 396.5 184.2 388.2L184.2 388.2Q184.2 380.0 187.4 375.5Q190.6 370.9 197.4 370.9L197.4 370.9Q200.0 370.9 202.0 371.6Q203.9 372.3 205.4 373.6Q206.8 374.8 207.8 376.6Q208.7 378.4 209.2 380.6L209.2 380.6L202.5 382.2Q202.2 381 201.8 380.0Q201.4 379.0 200.8 378.3Q200.2 377.5 199.4 377.1Q198.5 376.7 197.2 376.7L197.2 376.7Q194.3 376.7 193.1 379.0Q191.8 381.3 191.8 385.3L191.8 385.3L191.8 391.2Q191.8 395.2 193.1 397.5Q194.3 399.8 197.2 399.8L197.2 399.8Q199.7 399.8 200.8 398.2Q202.0 396.7 202.5 394.3L202.5 394.3L209.2 395.9Q208.7 398.1 207.8 399.9Q206.8 401.7 205.4 403.0Q203.9 404.2 202.0 404.9Q200.0 405.6 197.4 405.6ZM225.4 405.6L225.4 405.6Q222.5 405.6 220.2 404.7Q217.9 403.8 216.3 402.1Q214.7 400.4 213.8 398.0Q213.0 395.6 213.0 392.6L213.0 392.6Q213.0 389.6 213.8 387.2Q214.7 384.8 216.3 383.1Q217.9 381.4 220.2 380.5Q222.5 379.7 225.4 379.7L225.4 379.7Q228.3 379.7 230.6 380.5Q232.9 381.4 234.5 383.1Q236.1 384.8 237.0 387.2Q237.8 389.6 237.8 392.6L237.8 392.6Q237.8 395.6 237.0 398.0Q236.1 400.4 234.5 402.1Q232.9 403.8 230.6 404.7Q228.3 405.6 225.4 405.6ZM225.4 400.3L225.4 400.3Q227.8 400.3 229.1 398.8Q230.5 397.3 230.5 394.6L230.5 394.6L230.5 390.6Q230.5 387.9 229.1 386.4Q227.8 384.9 225.4 384.9L225.4 384.9Q223.0 384.9 221.7 386.4Q220.3 387.9 220.3 390.6L220.3 390.6L220.3 394.6Q220.3 397.3 221.7 398.8Q223.0 400.3 225.4 400.3ZM258.7 405L258.7 400.5L258.3 400.5Q257.4 402.7 255.7 404.2Q254.0 405.6 251.0 405.6L251.0 405.6Q248.9 405.6 247.2 404.8Q245.5 404.0 244.3 402.5Q243.1 400.9 242.4 398.4Q241.7 396.0 241.7 392.6L241.7 392.6Q241.7 389.3 242.4 386.8Q243.1 384.4 244.3 382.8Q245.5 381.2 247.2 380.4Q248.9 379.7 251.0 379.7L251.0 379.7Q252.5 379.7 253.6 380.0Q254.8 380.4 255.7 381.1Q256.6 381.8 257.2 382.7Q257.8 383.6 258.3 384.7L258.3 384.7L258.7 384.7L258.7 369.5L265.8 369.5L265.8 405L258.7 405ZM254.1 400.1L254.1 400.1Q255.9 400.1 257.3 399.1Q258.7 398.2 258.7 396.3L258.7 396.3L258.7 389.0Q258.7 387 257.3 386.1Q255.9 385.2 254.1 385.2L254.1 385.2Q251.7 385.2 250.4 386.6Q249.1 388.1 249.1 390.7L249.1 390.7L249.1 394.5Q249.1 397.1 250.4 398.6Q251.7 400.1 254.1 400.1ZM283.7 405.6L283.7 405.6Q277.4 405.6 274.2 402.1Q271 398.7 271 392.7L271 392.7Q271 389.7 271.8 387.3Q272.7 384.8 274.2 383.1Q275.8 381.4 278.0 380.5Q280.3 379.7 283.0 379.7L283.0 379.7Q285.8 379.7 288.0 380.5Q290.2 381.4 291.8 383.1Q293.3 384.7 294.2 387.0Q295 389.4 295 392.2L295 392.2L295 394.3L278.1 394.3L278.1 394.8Q278.1 397.2 279.5 398.6Q281.0 400.1 283.9 400.1L283.9 400.1Q286.1 400.1 287.7 399.3Q289.3 398.4 290.4 397.0L290.4 397.0L294.3 401.2Q292.8 403.0 290.2 404.3Q287.7 405.6 283.7 405.6ZM283.1 384.7L283.1 384.7Q280.8 384.7 279.4 386.2Q278.1 387.6 278.1 390.0L278.1 390.0L278.1 390.4L288.0 390.4L288.0 390.0Q288.0 387.5 286.7 386.1Q285.4 384.7 283.1 384.7Z M348.3 393.8L332.9 393.8L332.9 387.0L348.3 387.0L348.3 393.8Z M410.4 399.0L410.4 405L386.3 405L386.3 398.4L396.9 389.6Q399.6 387.3 400.8 385.6Q402.0 383.8 402.0 381.9L402.0 381.9L402.0 381.4Q402.0 379.3 400.8 378.2Q399.5 377.2 397.4 377.2L397.4 377.2Q395.0 377.2 393.7 378.6Q392.4 379.9 391.9 381.9L391.9 381.9L385.6 379.5Q386.2 377.7 387.2 376.2Q388.2 374.6 389.8 373.5Q391.3 372.3 393.4 371.6Q395.5 370.9 398.2 370.9L398.2 370.9Q400.9 370.9 403.0 371.7Q405.2 372.5 406.7 373.8Q408.2 375.1 409.0 377.0Q409.7 378.8 409.7 381L409.7 381Q409.7 383.1 409.0 384.9Q408.3 386.6 407.1 388.2Q405.9 389.7 404.2 391.1Q402.6 392.6 400.7 394.0L400.7 394.0L394.3 399.0L410.4 399.0ZM440.4 405L417.1 405L417.1 399.2L426.1 399.2L426.1 376.7L425.7 376.7L418.9 385.7L414.3 382.1L422.3 371.5L433.3 371.5L433.3 399.2L440.4 399.2L440.4 405ZM455.8 405.6L455.8 405.6Q453.1 405.6 451.9 404.4Q450.8 403.2 450.8 401.6L450.8 401.6L450.8 399.9Q450.8 398.3 451.9 397.1Q453.1 395.9 455.8 395.9L455.8 395.9Q458.5 395.9 459.7 397.1Q460.8 398.3 460.8 399.9L460.8 399.9L460.8 401.6Q460.8 403.2 459.7 404.4Q458.5 405.6 455.8 405.6Z M519.7 405L519.7 390.1L520.1 380.7L519.6 380.7L513.4 397.9L507.2 380.7L506.7 380.7L507.1 390.1L507.1 405L500.9 405L500.9 371.5L509.4 371.5L513.5 382.8L513.9 382.8L518.0 371.5L525.9 371.5L525.9 405L519.7 405ZM542.9 405.6L542.9 405.6Q536.6 405.6 533.4 402.1Q530.2 398.7 530.2 392.7L530.2 392.7Q530.2 389.7 531.0 387.3Q531.9 384.8 533.4 383.1Q535.0 381.4 537.2 380.5Q539.5 379.7 542.2 379.7L542.2 379.7Q545.0 379.7 547.2 380.5Q549.4 381.4 551.0 383.1Q552.5 384.7 553.4 387.0Q554.2 389.4 554.2 392.2L554.2 392.2L554.2 394.3L537.3 394.3L537.3 394.8Q537.3 397.2 538.7 398.6Q540.2 400.1 543.1 400.1L543.1 400.1Q545.3 400.1 546.9 399.3Q548.5 398.4 549.6 397.0L549.6 397.0L553.5 401.2Q552.0 403.0 549.4 404.3Q546.9 405.6 542.9 405.6ZM542.3 384.7L542.3 384.7Q540.0 384.7 538.6 386.2Q537.3 387.6 537.3 390.0L537.3 390.0L537.3 390.4L547.2 390.4L547.2 390.0Q547.2 387.5 545.9 386.1Q544.6 384.7 542.3 384.7ZM560.2 405L560.2 399.5L565.9 399.5L565.9 385.8L560.2 385.8L560.2 380.2L573.0 380.2L573.0 387.2L573.3 387.2Q573.6 385.9 574.2 384.6Q574.8 383.4 575.8 382.4Q576.7 381.4 578.1 380.8Q579.4 380.2 581.2 380.2L581.2 380.2L583.6 380.2L583.6 386.8L578.3 386.8Q575.7 386.8 574.3 388.3Q573.0 389.9 573.0 392.1L573.0 392.1L573.0 399.5L581.1 399.5L581.1 405L560.2 405ZM613.4 407.5L613.4 407.5Q613.4 411.4 610.1 413.3Q606.8 415.2 599.7 415.2L599.7 415.2Q596.1 415.2 593.8 414.8Q591.5 414.4 590.1 413.6Q588.8 412.8 588.2 411.8Q587.7 410.7 587.7 409.5L587.7 409.5Q587.7 407.4 588.9 406.3Q590.2 405.2 592.4 404.6L592.4 404.6L592.4 404.3Q590.8 403.8 589.9 403.0Q589.0 402.1 589.0 400.4L589.0 400.4Q589.0 398.6 590.2 397.8Q591.4 396.9 593.4 396.4L593.4 396.4L593.4 396.1Q591.2 395.1 590.0 393.1Q588.8 391.2 588.8 388.5L588.8 388.5Q588.8 386.3 589.5 384.7Q590.3 383.0 591.7 381.9Q593.1 380.8 595.1 380.2Q597.1 379.7 599.5 379.7L599.5 379.7Q601.9 379.7 603.9 380.2L603.9 380.2L603.9 378.8Q603.9 377.4 604.9 376.4Q605.9 375.5 607.7 375.5L607.7 375.5L612.0 375.5L612.0 380.7L606.1 380.7L606.1 381.1Q608.1 382.2 609.2 384Q610.4 385.8 610.4 388.5L610.4 388.5Q610.4 390.6 609.6 392.3Q608.8 393.9 607.4 395.0Q605.9 396.2 604.0 396.7Q602.0 397.3 599.5 397.3L599.5 397.3Q598.4 397.3 597.4 397.2Q596.4 397.1 595.5 396.8L595.5 396.8Q595.0 397.1 594.6 397.6Q594.2 398.0 594.2 398.7L594.2 398.7Q594.2 399.2 594.5 399.6Q594.8 399.9 595.3 400.1Q595.8 400.2 596.5 400.3Q597.2 400.3 597.9 400.3L597.9 400.3L603.5 400.3Q606.2 400.3 608.1 400.9Q609.9 401.4 611.1 402.4Q612.3 403.3 612.9 404.6Q613.4 405.9 613.4 407.5ZM606.7 408.0L606.7 408.0Q606.7 407.1 605.9 406.5Q605.1 406.0 603.0 406.0L603.0 406.0L594.5 406.0Q593.5 406.8 593.5 408.0L593.5 408.0Q593.5 409.1 594.5 409.9Q595.5 410.6 597.8 410.6L597.8 410.6L602.0 410.6Q604.5 410.6 605.6 409.9Q606.7 409.3 606.7 408.0ZM599.5 392.8L599.5 392.8Q601.7 392.8 602.7 391.8Q603.6 390.7 603.6 389.1L603.6 389.1L603.6 387.9Q603.6 386.3 602.7 385.2Q601.7 384.2 599.5 384.2L599.5 384.2Q597.4 384.2 596.4 385.2Q595.5 386.3 595.5 387.9L595.5 387.9L595.5 389.1Q595.5 390.7 596.4 391.8Q597.4 392.8 599.5 392.8ZM629.3 405.6L629.3 405.6Q623.0 405.6 619.8 402.1Q616.6 398.7 616.6 392.7L616.6 392.7Q616.6 389.7 617.4 387.3Q618.3 384.8 619.8 383.1Q621.4 381.4 623.6 380.5Q625.9 379.7 628.6 379.7L628.6 379.7Q631.4 379.7 633.6 380.5Q635.8 381.4 637.4 383.1Q638.9 384.7 639.8 387.0Q640.6 389.4 640.6 392.2L640.6 392.2L640.6 394.3L623.7 394.3L623.7 394.8Q623.7 397.2 625.1 398.6Q626.6 400.1 629.5 400.1L629.5 400.1Q631.7 400.1 633.3 399.3Q634.9 398.4 636.0 397.0L636.0 397.0L639.9 401.2Q638.4 403.0 635.8 404.3Q633.3 405.6 629.3 405.6ZM628.7 384.7L628.7 384.7Q626.4 384.7 625.0 386.2Q623.7 387.6 623.7 390.0L623.7 390.0L623.7 390.4L633.6 390.4L633.6 390.0Q633.6 387.5 632.3 386.1Q631.0 384.7 628.7 384.7Z M699.4 377.4L689.8 377.4L689.8 405L682.6 405L682.6 377.4L673.0 377.4L673.0 371.5L699.4 371.5L699.4 377.4ZM703.9 405L700.9 380.2L706.8 380.2L708.6 400.3L709.1 400.3L712.0 380.2L718.3 380.2L721.1 400.3L721.6 400.3L723.4 380.2L729.1 380.2L726.1 405L717.7 405L715.2 387.9L714.8 387.9L712.3 405L703.9 405ZM743.8 405.6L743.8 405.6Q740.9 405.6 738.6 404.7Q736.3 403.8 734.7 402.1Q733.1 400.4 732.2 398.0Q731.4 395.6 731.4 392.6L731.4 392.6Q731.4 389.6 732.2 387.2Q733.1 384.8 734.7 383.1Q736.3 381.4 738.6 380.5Q740.9 379.7 743.8 379.7L743.8 379.7Q746.7 379.7 749.0 380.5Q751.3 381.4 752.9 383.1Q754.5 384.8 755.4 387.2Q756.2 389.6 756.2 392.6L756.2 392.6Q756.2 395.6 755.4 398.0Q754.5 400.4 752.9 402.1Q751.3 403.8 749.0 404.7Q746.7 405.6 743.8 405.6ZM743.8 400.3L743.8 400.3Q746.2 400.3 747.5 398.8Q748.9 397.3 748.9 394.6L748.9 394.6L748.9 390.6Q748.9 387.9 747.5 386.4Q746.2 384.9 743.8 384.9L743.8 384.9Q741.4 384.9 740.1 386.4Q738.7 387.9 738.7 390.6L738.7 390.6L738.7 394.6Q738.7 397.3 740.1 398.8Q741.4 400.3 743.8 400.3Z M800.9 405.6L800.9 405.6Q796.6 405.6 793.5 404.2Q790.4 402.8 788.5 400.4L788.5 400.4L792.7 395.8Q794.5 397.8 796.7 398.8Q798.9 399.7 801.1 399.7L801.1 399.7Q803.7 399.7 805.0 398.6Q806.4 397.4 806.4 395.3L806.4 395.3Q806.4 393.5 805.4 392.6Q804.3 391.7 801.9 391.3L801.9 391.3L798.4 390.7Q793.9 389.9 791.8 387.4Q789.8 384.8 789.8 381.1L789.8 381.1Q789.8 376.2 793.0 373.6Q796.2 370.9 801.9 370.9L801.9 370.9Q805.8 370.9 808.6 372.1Q811.5 373.3 813.3 375.4L813.3 375.4L809.2 379.9Q807.9 378.5 806.1 377.6Q804.2 376.8 801.9 376.8L801.9 376.8Q797.1 376.8 797.1 380.8L797.1 380.8Q797.1 382.5 798.2 383.4Q799.2 384.2 801.7 384.6L801.7 384.6L805.2 385.3Q809.3 386.0 811.5 388.3Q813.7 390.7 813.7 394.7L813.7 394.7Q813.7 397.0 812.9 399.0Q812.1 401.0 810.4 402.5Q808.8 403.9 806.4 404.8Q804.0 405.6 800.9 405.6ZM830.2 405.6L830.2 405.6Q827.3 405.6 825.0 404.7Q822.7 403.8 821.1 402.1Q819.5 400.4 818.6 398.0Q817.8 395.6 817.8 392.6L817.8 392.6Q817.8 389.6 818.6 387.2Q819.5 384.8 821.1 383.1Q822.7 381.4 825.0 380.5Q827.3 379.7 830.2 379.7L830.2 379.7Q833.1 379.7 835.4 380.5Q837.7 381.4 839.3 383.1Q840.9 384.8 841.8 387.2Q842.6 389.6 842.6 392.6L842.6 392.6Q842.6 395.6 841.8 398.0Q840.9 400.4 839.3 402.1Q837.7 403.8 835.4 404.7Q833.1 405.6 830.2 405.6ZM830.2 400.3L830.2 400.3Q832.6 400.3 833.9 398.8Q835.3 397.3 835.3 394.6L835.3 394.6L835.3 390.6Q835.3 387.9 833.9 386.4Q832.6 384.9 830.2 384.9L830.2 384.9Q827.8 384.9 826.5 386.4Q825.1 387.9 825.1 390.6L825.1 390.6L825.1 394.6Q825.1 397.3 826.5 398.8Q827.8 400.3 830.2 400.3ZM848.2 405L848.2 399.5L853.9 399.5L853.9 385.8L848.2 385.8L848.2 380.2L861.0 380.2L861.0 387.2L861.3 387.2Q861.6 385.9 862.2 384.6Q862.8 383.4 863.8 382.4Q864.7 381.4 866.1 380.8Q867.4 380.2 869.2 380.2L869.2 380.2L871.6 380.2L871.6 386.8L866.3 386.8Q863.7 386.8 862.3 388.3Q861.0 389.9 861.0 392.1L861.0 392.1L861.0 399.5L869.1 399.5L869.1 405L848.2 405ZM898.9 405L889.7 405Q885.9 405 884.0 403.0Q882.1 401.0 882.1 397.8L882.1 397.8L882.1 385.8L875.4 385.8L875.4 380.2L879.8 380.2Q881.4 380.2 882.0 379.6Q882.7 379.0 882.7 377.3L882.7 377.3L882.7 371.5L889.2 371.5L889.2 380.2L898.9 380.2L898.9 385.8L889.2 385.8L889.2 399.5L898.9 399.5L898.9 405ZM917.3 405.6L917.3 405.6Q911.0 405.6 907.8 402.1Q904.6 398.7 904.6 392.7L904.6 392.7Q904.6 389.7 905.4 387.3Q906.3 384.8 907.8 383.1Q909.4 381.4 911.6 380.5Q913.9 379.7 916.6 379.7L916.6 379.7Q919.4 379.7 921.6 380.5Q923.8 381.4 925.4 383.1Q926.9 384.7 927.8 387.0Q928.6 389.4 928.6 392.2L928.6 392.2L928.6 394.3L911.7 394.3L911.7 394.8Q911.7 397.2 913.1 398.6Q914.6 400.1 917.5 400.1L917.5 400.1Q919.7 400.1 921.3 399.3Q922.9 398.4 924.0 397.0L924.0 397.0L927.9 401.2Q926.4 403.0 923.8 404.3Q921.3 405.6 917.3 405.6ZM916.7 384.7L916.7 384.7Q914.4 384.7 913.0 386.2Q911.7 387.6 911.7 390.0L911.7 390.0L911.7 390.4L921.6 390.4L921.6 390.0Q921.6 387.5 920.3 386.1Q919.0 384.7 916.7 384.7ZM949.9 405L949.9 400.5L949.5 400.5Q948.6 402.7 946.9 404.2Q945.2 405.6 942.2 405.6L942.2 405.6Q940.1 405.6 938.4 404.8Q936.7 404.0 935.5 402.5Q934.3 400.9 933.6 398.4Q932.9 396.0 932.9 392.6L932.9 392.6Q932.9 389.3 933.6 386.8Q934.3 384.4 935.5 382.8Q936.7 381.2 938.4 380.4Q940.1 379.7 942.2 379.7L942.2 379.7Q943.7 379.7 944.8 380.0Q946.0 380.4 946.9 381.1Q947.8 381.8 948.4 382.7Q949.0 383.6 949.5 384.7L949.5 384.7L949.9 384.7L949.9 369.5L957.0 369.5L957.0 405L949.9 405ZM945.3 400.1L945.3 400.1Q947.1 400.1 948.5 399.1Q949.9 398.2 949.9 396.3L949.9 396.3L949.9 389.0Q949.9 387 948.5 386.1Q947.1 385.2 945.3 385.2L945.3 385.2Q942.9 385.2 941.6 386.6Q940.3 388.1 940.3 390.7L940.3 390.7L940.3 394.5Q940.3 397.1 941.6 398.6Q942.9 400.1 945.3 400.1Z M1014.7 405L993.0 405L993.0 371.5L1000.3 371.5L1000.3 399.1L1014.7 399.1L1014.7 405ZM1033.3 377.1L1033.3 377.1Q1030.9 377.1 1030 376.1Q1029.1 375.1 1029.1 373.7L1029.1 373.7L1029.1 372.3Q1029.1 370.9 1030 369.9Q1030.9 369.0 1033.3 369.0L1033.3 369.0Q1035.7 369.0 1036.7 369.9Q1037.6 370.9 1037.6 372.3L1037.6 372.3L1037.6 373.7Q1037.6 375.1 1036.7 376.1Q1035.7 377.1 1033.3 377.1ZM1021.9 405L1021.9 399.5L1029.8 399.5L1029.8 385.8L1021.9 385.8L1021.9 380.2L1036.9 380.2L1036.9 399.5L1044.2 399.5L1044.2 405L1021.9 405ZM1060.3 405.6L1060.3 405.6Q1056.2 405.6 1053.1 404.3Q1050.1 403.1 1048.6 400.9L1048.6 400.9L1052.5 397.2Q1054.0 398.8 1055.9 399.7Q1057.9 400.6 1060.4 400.6L1060.4 400.6Q1062.5 400.6 1063.7 399.9Q1064.9 399.3 1064.9 397.9L1064.9 397.9Q1064.9 396.9 1064.1 396.5Q1063.2 396.1 1061.8 395.8L1061.8 395.8L1057.8 395.2Q1056.1 395.0 1054.7 394.5Q1053.3 394.0 1052.2 393.1Q1051.1 392.2 1050.5 391.0Q1049.9 389.7 1049.9 388.0L1049.9 388.0Q1049.9 384.1 1052.9 381.9Q1055.8 379.7 1061.2 379.7L1061.2 379.7Q1064.9 379.7 1067.4 380.6Q1070.0 381.6 1071.5 383.4L1071.5 383.4L1068.0 387.5Q1066.9 386.3 1065.2 385.5Q1063.4 384.6 1061.0 384.6L1061.0 384.6Q1056.9 384.6 1056.9 387.1L1056.9 387.1Q1056.9 388.2 1057.7 388.7Q1058.5 389.1 1059.9 389.3L1059.9 389.3L1063.9 389.9Q1065.5 390.2 1067.0 390.7Q1068.4 391.2 1069.5 392.0Q1070.6 392.9 1071.2 394.2Q1071.8 395.4 1071.8 397.2L1071.8 397.2Q1071.8 401.1 1068.8 403.3Q1065.8 405.6 1060.3 405.6ZM1100.5 405L1091.3 405Q1087.5 405 1085.6 403.0Q1083.7 401.0 1083.7 397.8L1083.7 397.8L1083.7 385.8L1077.0 385.8L1077.0 380.2L1081.4 380.2Q1083.0 380.2 1083.6 379.6Q1084.3 379.0 1084.3 377.3L1084.3 377.3L1084.3 371.5L1090.8 371.5L1090.8 380.2L1100.5 380.2L1100.5 385.8L1090.8 385.8L1090.8 399.5L1100.5 399.5L1100.5 405ZM1117.9 405.6L1117.9 405.6Q1113.8 405.6 1110.7 404.3Q1107.7 403.1 1106.2 400.9L1106.2 400.9L1110.1 397.2Q1111.6 398.8 1113.5 399.7Q1115.5 400.6 1118.0 400.6L1118.0 400.6Q1120.1 400.6 1121.3 399.9Q1122.5 399.3 1122.5 397.9L1122.5 397.9Q1122.5 396.9 1121.7 396.5Q1120.8 396.1 1119.4 395.8L1119.4 395.8L1115.4 395.2Q1113.7 395.0 1112.3 394.5Q1110.9 394.0 1109.8 393.1Q1108.7 392.2 1108.1 391.0Q1107.5 389.7 1107.5 388.0L1107.5 388.0Q1107.5 384.1 1110.5 381.9Q1113.4 379.7 1118.8 379.7L1118.8 379.7Q1122.5 379.7 1125.0 380.6Q1127.6 381.6 1129.1 383.4L1129.1 383.4L1125.6 387.5Q1124.5 386.3 1122.8 385.5Q1121.0 384.6 1118.6 384.6L1118.6 384.6Q1114.5 384.6 1114.5 387.1L1114.5 387.1Q1114.5 388.2 1115.3 388.7Q1116.1 389.1 1117.5 389.3L1117.5 389.3L1121.5 389.9Q1123.1 390.2 1124.6 390.7Q1126.0 391.2 1127.1 392.0Q1128.2 392.9 1128.8 394.2Q1129.4 395.4 1129.4 397.2L1129.4 397.2Q1129.4 401.1 1126.4 403.3Q1123.4 405.6 1117.9 405.6Z "/></g></svg>