<svg width="1200" height="630" viewBox="0 0 1200 630" xmlns="http://www.w3.org/2000/svg"><defs><pattern id="satori_pattern_id_1" x="0" y="0" width="0.08333333333333333" height="0.15873015873015872" patternUnits="objectBoundingBox"><radialGradient id="satori_radial_id_1" spreadMethod="pad"><stop offset="0" stop-color="lightgray"/><stop offset="0.03" stop-color="lightgray"/><stop offset="0" stop-color="transparent"/><stop offset="1" stop-color="transparent"/></radialGradient><mask id="satori_mask_id_1"><rect x="0" y="0" width="100" height="100" fill="#fff"/></mask><rect x="0" y="0" width="100" height="100" fill="transparent"/><circle cx="75" cy="75" width="100" height="100" r="106.06601717798213" fill="url(#satori_radial_id_1)" mask="url(#satori_mask_id_1)"/></pattern><pattern id="satori_pattern_id_0" x="0" y="0" width="0.08333333333333333" height="0.15873015873015872" patternUnits="objectBoundingBox"><radialGradient id="satori_radial_id_0" spreadMethod="pad"><stop offset="0" stop-color="lightgray"/><stop offset="0.03" stop-color="lightgray"/><stop offset="0" stop-color="transparent"/><stop offset="1" stop-color="transparent"/></radialGradient><mask id="satori_mask_id_0"><rect x="0" y="0" width="100" height="100" fill="#fff"/></mask><rect x="0" y="0" width="100" height="100" fill="transparent"/><circle cx="25" cy="25" width="100" height="100" r="106.06601717798213" fill="url(#satori_radial_id_0)" mask="url(#satori_mask_id_0)"/></pattern></defs><mask id="satori_om-id"><rect x="0" y="0" width="1200" height="630" fill="#fff"/></mask><rect x="0" y="0" width="1200" height="630" fill="white"/><rect x="0" y="0" width="1200" height="630" fill="url(#satori_pattern_id_1)"/><rect x="0" y="0" width="1200" height="630" fill="url(#satori_pattern_id_0)"/><mask id="satori_om-id-0"><rect x="53" y="213" width="1095" height="205" fill="#fff"/></mask><mask id="satori_om-id-0-0"><rect x="477" y="213" width="248" height="47" fill="#fff"/></mask><mask id="satori_om-id-0-0-0"><rect x="477" y="229" width="16" height="16" fill="#fff"/></mask><rect x="477" y="229" width="16" height="16" fill="black"/><mask id="satori_om-id-0-0-1"><rect x="509" y="213" width="216" height="47" fill="#fff"/></mask><g  ><path fill="black" d="M512.7 257.2L512.7 254.8L521.7 254.8L521.7 233.9L512.3 233.9L512.3 231.4L524.6 231.4L524.6 253.0Q524.6 254.8 523.6 256.0Q522.6 257.2 520.4 257.2L520.4 257.2L512.7 257.2ZM523.1 227.3L523.1 227.3Q521.9 227.3 521.3 226.8Q520.8 226.3 520.8 225.5L520.8 225.5L520.8 224.9Q520.8 224.1 521.3 223.6Q521.9 223.1 523.1 223.1L523.1 223.1Q524.4 223.1 524.9 223.6Q525.4 224.1 525.4 224.9L525.4 224.9L525.4 225.5Q525.4 226.3 524.9 226.8Q524.4 227.3 523.1 227.3ZM550.4 250L548.4 250Q546.7 250 546.0 249.1Q545.3 248.3 545.1 247.0L545.1 247.0L544.9 247.0Q544.3 248.6 543.0 249.5Q541.6 250.4 539.3 250.4L539.3 250.4Q536.4 250.4 534.7 248.9Q533.0 247.4 533.0 244.8L533.0 244.8Q533.0 242.2 534.9 240.8Q536.8 239.4 541.0 239.4L541.0 239.4L544.9 239.4L544.9 237.5Q544.9 235.5 543.8 234.5Q542.6 233.4 540.5 233.4L540.5 233.4Q538.6 233.4 537.4 234.2Q536.3 234.9 535.5 236.2L535.5 236.2L533.6 234.7Q533.9 234.0 534.6 233.3Q535.2 232.6 536.1 232.1Q537.0 231.6 538.1 231.3Q539.3 231.0 540.7 231.0L540.7 231.0Q544.0 231.0 545.9 232.6Q547.8 234.3 547.8 237.3L547.8 237.3L547.8 247.5L550.4 247.5L550.4 250ZM539.9 248.0L539.9 248.0Q541.0 248.0 541.9 247.8Q542.8 247.5 543.5 247.0Q544.2 246.6 544.6 245.9Q544.9 245.3 544.9 244.6L544.9 244.6L544.9 241.5L541.0 241.5Q538.4 241.5 537.2 242.3Q536 243.0 536 244.3L536 244.3L536 245.1Q536 246.5 537.0 247.3Q538.1 248.0 539.9 248.0ZM563.3 250.4L563.3 250.4Q561.3 250.4 559.7 249.7Q558.1 249.1 557.0 247.8Q555.8 246.5 555.2 244.7Q554.6 242.9 554.6 240.7L554.6 240.7Q554.6 238.5 555.2 236.7Q555.9 234.9 557.0 233.6Q558.1 232.4 559.7 231.7Q561.2 231.0 563.1 231.0L563.1 231.0Q565.0 231.0 566.5 231.7Q568.1 232.4 569.2 233.6Q570.2 234.8 570.8 236.4Q571.4 238.1 571.4 240.1L571.4 240.1L571.4 241.4L557.6 241.4L557.6 242.3Q557.6 243.5 558.0 244.6Q558.4 245.6 559.2 246.4Q559.9 247.1 561.0 247.5Q562.0 247.9 563.3 247.9L563.3 247.9Q565.2 247.9 566.6 247.1Q567.9 246.2 568.7 244.7L568.7 244.7L570.8 246.1Q569.9 248.0 568.0 249.2Q566.1 250.4 563.3 250.4ZM563.1 233.4L563.1 233.4Q562.0 233.4 560.9 233.8Q559.9 234.2 559.2 235.0Q558.5 235.7 558.1 236.8Q557.6 237.8 557.6 239.0L557.6 239.0L557.6 239.3L568.3 239.3L568.3 238.9Q568.3 237.7 567.9 236.6Q567.5 235.6 566.9 234.9Q566.2 234.2 565.3 233.8Q564.3 233.4 563.1 233.4ZM577.3 250L577.3 223.4L580.2 223.4L580.2 234.4L580.4 234.4Q580.6 233.8 581.1 233.1Q581.5 232.5 582.1 232.0Q582.8 231.6 583.6 231.3Q584.5 231.0 585.6 231.0L585.6 231.0Q588.6 231.0 590.3 232.8Q592.1 234.7 592.1 238.1L592.1 238.1L592.1 250L589.2 250L589.2 238.6Q589.2 236.0 588.1 234.8Q587.0 233.5 584.8 233.5L584.8 233.5Q584.0 233.5 583.1 233.8Q582.3 234.0 581.6 234.4Q581.0 234.8 580.6 235.5Q580.2 236.2 580.2 237.1L580.2 237.1L580.2 250L577.3 250ZM606.5 250.4L606.5 250.4Q604.5 250.4 602.9 249.7Q601.3 249.1 600.2 247.8Q599.0 246.5 598.4 244.7Q597.8 242.9 597.8 240.7L597.8 240.7Q597.8 238.5 598.4 236.7Q599.1 234.9 600.2 233.6Q601.3 232.4 602.9 231.7Q604.4 231.0 606.3 231.0L606.3 231.0Q608.2 231.0 609.7 231.7Q611.3 232.4 612.4 233.6Q613.4 234.8 614.0 236.4Q614.6 238.1 614.6 240.1L614.6 240.1L614.6 241.4L600.8 241.4L600.8 242.3Q600.8 243.5 601.2 244.6Q601.6 245.6 602.4 246.4Q603.1 247.1 604.2 247.5Q605.2 247.9 606.5 247.9L606.5 247.9Q608.4 247.9 609.8 247.1Q611.1 246.2 611.9 244.7L611.9 244.7L614.0 246.1Q613.1 248.0 611.2 249.2Q609.3 250.4 606.5 250.4ZM606.3 233.4L606.3 233.4Q605.2 233.4 604.1 233.8Q603.1 234.2 602.4 235.0Q601.7 235.7 601.3 236.8Q600.8 237.8 600.8 239.0L600.8 239.0L600.8 239.3L611.5 239.3L611.5 238.9Q611.5 237.7 611.1 236.6Q610.7 235.6 610.1 234.9Q609.4 234.2 608.5 233.8Q607.5 233.4 606.3 233.4ZM628.1 250.4L628.1 250.4Q626.1 250.4 624.5 249.7Q622.9 249.1 621.8 247.8Q620.6 246.5 620.0 244.7Q619.4 242.9 619.4 240.7L619.4 240.7Q619.4 238.5 620.0 236.7Q620.7 234.9 621.8 233.6Q622.9 232.4 624.5 231.7Q626.0 231.0 627.9 231.0L627.9 231.0Q629.8 231.0 631.3 231.7Q632.9 232.4 634.0 233.6Q635.0 234.8 635.6 236.4Q636.2 238.1 636.2 240.1L636.2 240.1L636.2 241.4L622.4 241.4L622.4 242.3Q622.4 243.5 622.8 244.6Q623.2 245.6 624.0 246.4Q624.7 247.1 625.8 247.5Q626.8 247.9 628.1 247.9L628.1 247.9Q630.0 247.9 631.4 247.1Q632.7 246.2 633.5 244.7L633.5 244.7L635.6 246.1Q634.7 248.0 632.8 249.2Q630.9 250.4 628.1 250.4ZM627.9 233.4L627.9 233.4Q626.8 233.4 625.7 233.8Q624.7 234.2 624.0 235.0Q623.3 235.7 622.9 236.8Q622.4 237.8 622.4 239.0L622.4 239.0L622.4 239.3L633.1 239.3L633.1 238.9Q633.1 237.7 632.7 236.6Q632.3 235.6 631.7 234.9Q631.0 234.2 630.1 233.8Q629.1 233.4 627.9 233.4ZM649.4 250.3L649.4 250.3Q647.9 250.3 647.3 249.7Q646.7 249.1 646.7 248.2L646.7 248.2L646.7 247.5Q646.7 246.6 647.3 246.0Q647.9 245.4 649.4 245.4L649.4 245.4Q650.9 245.4 651.5 246.0Q652.1 246.6 652.1 247.5L652.1 247.5L652.1 248.2Q652.1 249.1 651.5 249.7Q650.9 250.3 649.4 250.3ZM675.5 250L675.5 247.0L675.4 247.0Q673.6 250.4 669.6 250.4L669.6 250.4Q666.2 250.4 664.3 247.9Q662.4 245.3 662.4 240.7L662.4 240.7Q662.4 236.1 664.3 233.5Q666.2 231.0 669.6 231.0L669.6 231.0Q673.6 231.0 675.4 234.4L675.4 234.4L675.5 234.4L675.5 223.4L678.4 223.4L678.4 250L675.5 250ZM670.7 247.9L670.7 247.9Q671.7 247.9 672.6 247.6Q673.4 247.4 674.1 246.9Q674.7 246.4 675.1 245.7Q675.5 245.0 675.5 244.1L675.5 244.1L675.5 237.4Q675.5 236.4 675.1 235.7Q674.7 235.0 674.1 234.5Q673.4 234.1 672.6 233.8Q671.7 233.5 670.7 233.5L670.7 233.5Q668.2 233.5 666.8 235.1Q665.5 236.6 665.5 239.1L665.5 239.1L665.5 242.3Q665.5 244.8 666.8 246.3Q668.2 247.9 670.7 247.9ZM692.9 250.4L692.9 250.4Q690.9 250.4 689.3 249.7Q687.7 249.1 686.6 247.8Q685.4 246.5 684.8 244.7Q684.2 242.9 684.2 240.7L684.2 240.7Q684.2 238.5 684.8 236.7Q685.5 234.9 686.6 233.6Q687.7 232.4 689.3 231.7Q690.8 231.0 692.7 231.0L692.7 231.0Q694.6 231.0 696.1 231.7Q697.7 232.4 698.8 233.6Q699.8 234.8 700.4 236.4Q701.0 238.1 701.0 240.1L701.0 240.1L701.0 241.4L687.2 241.4L687.2 242.3Q687.2 243.5 687.6 244.6Q688.0 245.6 688.8 246.4Q689.5 247.1 690.6 247.5Q691.6 247.9 692.9 247.9L692.9 247.9Q694.8 247.9 696.2 247.1Q697.5 246.2 698.3 244.7L698.3 244.7L700.4 246.1Q699.5 248.0 697.6 249.2Q695.7 250.4 692.9 250.4ZM692.7 233.4L692.7 233.4Q691.6 233.4 690.5 233.8Q689.5 234.2 688.8 235.0Q688.1 235.7 687.7 236.8Q687.2 237.8 687.2 239.0L687.2 239.0L687.2 239.3L697.9 239.3L697.9 238.9Q697.9 237.7 697.5 236.6Q697.1 235.6 696.5 234.9Q695.8 234.2 694.9 233.8Q693.9 233.4 692.7 233.4ZM716.0 250L712.4 250L705.7 231.4L708.6 231.4L711.3 239.2L714.2 247.6L714.3 247.6L717.2 239.2L719.9 231.4L722.7 231.4L716.0 250Z "/></g><mask id="satori_om-id-0-1"><rect x="53" y="356" width="1095" height="62" fill="#fff"/></mask><g  ><path fill="black" d="M79.1 405L57.4 405L57.4 371.5L64.7 371.5L64.7 399.1L79.1 399.1L79.1 405ZM96.9 405.6L96.9 405.6Q90.6 405.6 87.4 402.1Q84.2 398.7 84.2 392.7L84.2 392.7Q84.2 389.7 85.0 387.3Q85.9 384.8 87.4 383.1Q89 381.4 91.2 380.5Q93.5 379.7 96.2 379.7L96.2 379.7Q99.0 379.7 101.2 380.5Q103.4 381.4 105.0 383.1Q106.5 384.7 107.4 387.0Q108.2 389.4 108.2 392.2L108.2 392.2L108.2 394.3L91.3 394.3L91.3 394.8Q91.3 397.2 92.7 398.6Q94.2 400.1 97.1 400.1L97.1 400.1Q99.3 400.1 100.9 399.3Q102.5 398.4 103.6 397.0L103.6 397.0L107.5 401.2Q106.0 403.0 103.4 404.3Q100.9 405.6 96.9 405.6ZM96.3 384.7L96.3 384.7Q94.0 384.7 92.6 386.2Q91.3 387.6 91.3 390.0L91.3 390.0L91.3 390.4L101.2 390.4L101.2 390.0Q101.2 387.5 99.9 386.1Q98.6 384.7 96.3 384.7ZM125.7 405.6L125.7 405.6Q119.4 405.6 116.2 402.1Q113 398.7 113 392.7L113 392.7Q113 389.7 113.8 387.3Q114.7 384.8 116.2 383.1Q117.8 381.4 120.0 380.5Q122.3 379.7 125.0 379.7L125.0 379.7Q127.8 379.7 130.0 380.5Q132.2 381.4 133.8 383.1Q135.3 384.7 136.2 387.0Q137 389.4 137 392.2L137 392.2L137 394.3L120.1 394.3L120.1 394.8Q120.1 397.2 121.5 398.6Q123.0 400.1 125.9 400.1L125.9 400.1Q128.1 400.1 129.7 399.3Q131.3 398.4 132.4 397.0L132.4 397.0L136.3 401.2Q134.8 403.0 132.2 404.3Q129.7 405.6 125.7 405.6ZM125.1 384.7L125.1 384.7Q122.8 384.7 121.4 386.2Q120.1 387.6 120.1 390.0L120.1 390.0L120.1 390.4L130.0 390.4L130.0 390.0Q130.0 387.5 128.7 386.1Q127.4 384.7 125.1 384.7ZM164.9 405L155.7 405Q151.9 405 150.0 403.0Q148.1 401.0 148.1 397.8L148.1 397.8L148.1 385.8L141.4 385.8L141.4 380.2L145.8 380.2Q147.4 380.2 148.0 379.6Q148.7 379.0 148.7 377.3L148.7 377.3L148.7 371.5L155.2 371.5L155.2 380.2L164.9 380.2L164.9 385.8L155.2 385.8L155.2 399.5L164.9 399.5L164.9 405ZM183.4 405.6L183.4 405.6Q176.6 405.6 173.4 401.0Q170.2 396.5 170.2 388.2L170.2 388.2Q170.2 380.0 173.4 375.5Q176.6 370.9 183.4 370.9L183.4 370.9Q186.0 370.9 188.0 371.6Q189.9 372.3 191.4 373.6Q192.8 374.8 193.8 376.6Q194.7 378.4 195.2 380.6L195.2 380.6L188.5 382.2Q188.2 381 187.8 380.0Q187.4 379.0 186.8 378.3Q186.2 377.5 185.4 377.1Q184.5 376.7 183.2 376.7L183.2 376.7Q180.3 376.7 179.1 379.0Q177.8 381.3 177.8 385.3L177.8 385.3L177.8 391.2Q177.8 395.2 179.1 397.5Q180.3 399.8 183.2 399.8L183.2 399.8Q185.7 399.8 186.8 398.2Q188.0 396.7 188.5 394.3L188.5 394.3L195.2 395.9Q194.7 398.1 193.8 399.9Q192.8 401.7 191.4 403.0Q189.9 404.2 188.0 404.9Q186.0 405.6 183.4 405.6ZM211.4 405.6L211.4 405.6Q208.5 405.6 206.2 404.7Q203.9 403.8 202.3 402.1Q200.7 400.4 199.8 398.0Q199.0 395.6 199.0 392.6L199.0 392.6Q199.0 389.6 199.8 387.2Q200.7 384.8 202.3 383.1Q203.9 381.4 206.2 380.5Q208.5 379.7 211.4 379.7L211.4 379.7Q214.3 379.7 216.6 380.5Q218.9 381.4 220.5 383.1Q222.1 384.8 223.0 387.2Q223.8 389.6 223.8 392.6L223.8 392.6Q223.8 395.6 223.0 398.0Q222.1 400.4 220.5 402.1Q218.9 403.8 216.6 404.7Q214.3 405.6 211.4 405.6ZM211.4 400.3L211.4 400.3Q213.8 400.3 215.1 398.8Q216.5 397.3 216.5 394.6L216.5 394.6L216.5 390.6Q216.5 387.9 215.1 386.4Q213.8 384.9 211.4 384.9L211.4 384.9Q209.0 384.9 207.7 386.4Q206.3 387.9 206.3 390.6L206.3 390.6L206.3 394.6Q206.3 397.3 207.7 398.8Q209.0 400.3 211.4 400.3ZM244.7 405L244.7 400.5L244.3 400.5Q243.4 402.7 241.7 404.2Q240.0 405.6 237.0 405.6L237.0 405.6Q234.9 405.6 233.2 404.8Q231.5 404.0 230.3 402.5Q229.1 400.9 228.4 398.4Q227.7 396.0 227.7 392.6L227.7 392.6Q227.7 389.3 228.4 386.8Q229.1 384.4 230.3 382.8Q231.5 381.2 233.2 380.4Q234.9 379.7 237.0 379.7L237.0 379.7Q238.5 379.7 239.6 380.0Q240.8 380.4 241.7 381.1Q242.6 381.8 243.2 382.7Q243.8 383.6 244.3 384.7L244.3 384.7L244.7 384.7L244.7 369.5L251.8 369.5L251.8 405L244.7 405ZM240.1 400.1L240.1 400.1Q241.9 400.1 243.3 399.1Q244.7 398.2 244.7 396.3L244.7 396.3L244.7 389.0Q244.7 387 243.3 386.1Q241.9 385.2 240.1 385.2L240.1 385.2Q237.7 385.2 236.4 386.6Q235.1 388.1 235.1 390.7L235.1 390.7L235.1 394.5Q235.1 397.1 236.4 398.6Q237.7 400.1 240.1 400.1ZM269.7 405.6L269.7 405.6Q263.4 405.6 260.2 402.1Q257.0 398.7 257.0 392.7L257.0 392.7Q257.0 389.7 257.8 387.3Q258.7 384.8 260.2 383.1Q261.8 381.4 264.0 380.5Q266.3 379.7 269.0 379.7L269.0 379.7Q271.8 379.7 274.0 380.5Q276.2 381.4 277.8 383.1Q279.3 384.7 280.2 387.0Q281.0 389.4 281.0 392.2L281.0 392.2L281.0 394.3L264.1 394.3L264.1 394.8Q264.1 397.2 265.5 398.6Q267.0 400.1 269.9 400.1L269.9 400.1Q272.1 400.1 273.7 399.3Q275.3 398.4 276.4 397.0L276.4 397.0L280.3 401.2Q278.8 403.0 276.2 404.3Q273.7 405.6 269.7 405.6ZM269.1 384.7L269.1 384.7Q266.8 384.7 265.4 386.2Q264.1 387.6 264.1 390.0L264.1 390.0L264.1 390.4L274.0 390.4L274.0 390.0Q274.0 387.5 272.7 386.1Q271.4 384.7 269.1 384.7Z M334.3 393.8L318.9 393.8L318.9 387.0L334.3 387.0L334.3 393.8Z M384.2 405.6L384.2 405.6Q381.2 405.6 378.8 404.8Q376.5 404.1 374.8 402.8Q373.2 401.5 372.4 399.7Q371.5 397.9 371.5 395.8L371.5 395.8Q371.5 392.5 373.4 390.5Q375.3 388.5 378.2 387.7L378.2 387.7L378.2 387.3Q375.7 386.4 374.1 384.6Q372.5 382.7 372.5 379.8L372.5 379.8Q372.5 377.8 373.3 376.2Q374.1 374.6 375.6 373.4Q377.0 372.2 379.2 371.6Q381.4 370.9 384.2 370.9L384.2 370.9Q387.0 370.9 389.2 371.6Q391.4 372.2 392.8 373.4Q394.3 374.6 395.1 376.2Q395.9 377.8 395.9 379.8L395.9 379.8Q395.9 382.7 394.3 384.6Q392.7 386.4 390.2 387.3L390.2 387.3L390.2 387.7Q393.1 388.5 395.0 390.5Q396.9 392.5 396.9 395.8L396.9 395.8Q396.9 397.9 396.0 399.7Q395.2 401.5 393.6 402.8Q391.9 404.1 389.6 404.8Q387.2 405.6 384.2 405.6ZM384.2 400.1L384.2 400.1Q386.7 400.1 388.0 398.9Q389.3 397.8 389.3 395.8L389.3 395.8L389.3 394.8Q389.3 392.8 388.0 391.7Q386.7 390.6 384.2 390.6L384.2 390.6Q381.7 390.6 380.4 391.7Q379.1 392.8 379.1 394.8L379.1 394.8L379.1 395.8Q379.1 397.8 380.4 398.9Q381.7 400.1 384.2 400.1ZM384.2 385.3L384.2 385.3Q386.6 385.3 387.8 384.2Q389.1 383.1 389.1 381.2L389.1 381.2L389.1 380.5Q389.1 378.6 387.8 377.5Q386.6 376.4 384.2 376.4L384.2 376.4Q381.8 376.4 380.6 377.5Q379.3 378.6 379.3 380.5L379.3 380.5L379.3 381.2Q379.3 383.1 380.6 384.2Q381.8 385.3 384.2 385.3ZM413.0 405.6L413.0 405.6Q410.3 405.6 409.1 404.4Q408.0 403.2 408.0 401.6L408.0 401.6L408.0 399.9Q408.0 398.3 409.1 397.1Q410.3 395.9 413.0 395.9L413.0 395.9Q415.7 395.9 416.9 397.1Q418.0 398.3 418.0 399.9L418.0 399.9L418.0 401.6Q418.0 403.2 416.9 404.4Q415.7 405.6 413.0 405.6Z M470.1 405.6L470.1 405.6Q465.8 405.6 462.7 404.2Q459.6 402.8 457.7 400.4L457.7 400.4L461.9 395.8Q463.7 397.8 465.9 398.8Q468.1 399.7 470.3 399.7L470.3 399.7Q472.9 399.7 474.2 398.6Q475.6 397.4 475.6 395.3L475.6 395.3Q475.6 393.5 474.6 392.6Q473.5 391.7 471.1 391.3L471.1 391.3L467.6 390.7Q463.1 389.9 461.0 387.4Q459.0 384.8 459.0 381.1L459.0 381.1Q459.0 376.2 462.2 373.6Q465.4 370.9 471.1 370.9L471.1 370.9Q475.0 370.9 477.8 372.1Q480.7 373.3 482.5 375.4L482.5 375.4L478.4 379.9Q477.1 378.5 475.3 377.6Q473.4 376.8 471.1 376.8L471.1 376.8Q466.3 376.8 466.3 380.8L466.3 380.8Q466.3 382.5 467.4 383.4Q468.4 384.2 470.9 384.6L470.9 384.6L474.4 385.3Q478.5 386.0 480.7 388.3Q482.9 390.7 482.9 394.7L482.9 394.7Q482.9 397.0 482.1 399.0Q481.3 401.0 479.6 402.5Q478.0 403.9 475.6 404.8Q473.2 405.6 470.1 405.6ZM510.5 405L501.3 405Q497.5 405 495.6 403.0Q493.7 401.0 493.7 397.8L493.7 397.8L493.7 385.8L487.0 385.8L487.0 380.2L491.4 380.2Q493.0 380.2 493.6 379.6Q494.3 379.0 494.3 377.3L494.3 377.3L494.3 371.5L500.8 371.5L500.8 380.2L510.5 380.2L510.5 385.8L500.8 385.8L500.8 399.5L510.5 399.5L510.5 405ZM517.4 405L517.4 399.5L523.1 399.5L523.1 385.8L517.4 385.8L517.4 380.2L530.2 380.2L530.2 387.2L530.5 387.2Q530.8 385.9 531.4 384.6Q532.0 383.4 533.0 382.4Q533.9 381.4 535.3 380.8Q536.6 380.2 538.4 380.2L538.4 380.2L540.8 380.2L540.8 386.8L535.5 386.8Q532.9 386.8 531.5 388.3Q530.2 389.9 530.2 392.1L530.2 392.1L530.2 399.5L538.3 399.5L538.3 405L517.4 405ZM558.5 377.1L558.5 377.1Q556.1 377.1 555.2 376.1Q554.3 375.1 554.3 373.7L554.3 373.7L554.3 372.3Q554.3 370.9 555.2 369.9Q556.1 369.0 558.5 369.0L558.5 369.0Q560.9 369.0 561.9 369.9Q562.8 370.9 562.8 372.3L562.8 372.3L562.8 373.7Q562.8 375.1 561.9 376.1Q560.9 377.1 558.5 377.1ZM547.1 405L547.1 399.5L555.0 399.5L555.0 385.8L547.1 385.8L547.1 380.2L562.1 380.2L562.1 399.5L569.4 399.5L569.4 405L547.1 405ZM581.6 405L574.5 405L574.5 380.2L581.6 380.2L581.6 384.7L581.9 384.7Q582.3 383.7 583.0 382.8Q583.6 381.9 584.5 381.2Q585.4 380.5 586.5 380.1Q587.7 379.7 589.2 379.7L589.2 379.7Q591.0 379.7 592.5 380.3Q594.0 380.9 595.0 382.1Q596.1 383.3 596.7 385.0Q597.3 386.7 597.3 389.0L597.3 389.0L597.3 405L590.2 405L590.2 389.9Q590.2 385.1 586.0 385.1L586.0 385.1Q585.2 385.1 584.4 385.3Q583.6 385.6 583.0 386.0Q582.3 386.5 582.0 387.1Q581.6 387.8 581.6 388.7L581.6 388.7L581.6 405ZM628.2 407.5L628.2 407.5Q628.2 411.4 624.9 413.3Q621.6 415.2 614.5 415.2L614.5 415.2Q610.9 415.2 608.6 414.8Q606.3 414.4 604.9 413.6Q603.6 412.8 603.0 411.8Q602.5 410.7 602.5 409.5L602.5 409.5Q602.5 407.4 603.7 406.3Q605.0 405.2 607.2 404.6L607.2 404.6L607.2 404.3Q605.6 403.8 604.7 403.0Q603.8 402.1 603.8 400.4L603.8 400.4Q603.8 398.6 605.0 397.8Q606.2 396.9 608.2 396.4L608.2 396.4L608.2 396.1Q606.0 395.1 604.8 393.1Q603.6 391.2 603.6 388.5L603.6 388.5Q603.6 386.3 604.3 384.7Q605.1 383.0 606.5 381.9Q607.9 380.8 609.9 380.2Q611.9 379.7 614.3 379.7L614.3 379.7Q616.7 379.7 618.7 380.2L618.7 380.2L618.7 378.8Q618.7 377.4 619.7 376.4Q620.7 375.5 622.5 375.5L622.5 375.5L626.8 375.5L626.8 380.7L620.9 380.7L620.9 381.1Q622.9 382.2 624.0 384Q625.2 385.8 625.2 388.5L625.2 388.5Q625.2 390.6 624.4 392.3Q623.6 393.9 622.2 395.0Q620.7 396.2 618.8 396.7Q616.8 397.3 614.3 397.3L614.3 397.3Q613.2 397.3 612.2 397.2Q611.2 397.1 610.3 396.8L610.3 396.8Q609.8 397.1 609.4 397.6Q609.0 398.0 609.0 398.7L609.0 398.7Q609.0 399.2 609.3 399.6Q609.6 399.9 610.1 400.1Q610.6 400.2 611.3 400.3Q612.0 400.3 612.7 400.3L612.7 400.3L618.3 400.3Q621.0 400.3 622.9 400.9Q624.7 401.4 625.9 402.4Q627.1 403.3 627.7 404.6Q628.2 405.9 628.2 407.5ZM621.5 408.0L621.5 408.0Q621.5 407.1 620.7 406.5Q619.9 406.0 617.8 406.0L617.8 406.0L609.3 406.0Q608.3 406.8 608.3 408.0L608.3 408.0Q608.3 409.1 609.3 409.9Q610.3 410.6 612.6 410.6L612.6 410.6L616.8 410.6Q619.3 410.6 620.4 409.9Q621.5 409.3 621.5 408.0ZM614.3 392.8L614.3 392.8Q616.5 392.8 617.5 391.8Q618.4 390.7 618.4 389.1L618.4 389.1L618.4 387.9Q618.4 386.3 617.5 385.2Q616.5 384.2 614.3 384.2L614.3 384.2Q612.2 384.2 611.2 385.2Q610.3 386.3 610.3 387.9L610.3 387.9L610.3 389.1Q610.3 390.7 611.2 391.8Q612.2 392.8 614.3 392.8Z M683.3 405L674.1 405Q670.3 405 668.4 403.0Q666.5 401.0 666.5 397.8L666.5 397.8L666.5 385.8L659.8 385.8L659.8 380.2L664.2 380.2Q665.8 380.2 666.4 379.6Q667.1 379.0 667.1 377.3L667.1 377.3L667.1 371.5L673.6 371.5L673.6 380.2L683.3 380.2L683.3 385.8L673.6 385.8L673.6 399.5L683.3 399.5L683.3 405ZM701 405.6L701 405.6Q698.1 405.6 695.8 404.7Q693.5 403.8 691.9 402.1Q690.3 400.4 689.4 398.0Q688.6 395.6 688.6 392.6L688.6 392.6Q688.6 389.6 689.4 387.2Q690.3 384.8 691.9 383.1Q693.5 381.4 695.8 380.5Q698.1 379.7 701 379.7L701 379.7Q703.9 379.7 706.2 380.5Q708.5 381.4 710.1 383.1Q711.7 384.8 712.6 387.2Q713.4 389.6 713.4 392.6L713.4 392.6Q713.4 395.6 712.6 398.0Q711.7 400.4 710.1 402.1Q708.5 403.8 706.2 404.7Q703.9 405.6 701 405.6ZM701 400.3L701 400.3Q703.4 400.3 704.7 398.8Q706.1 397.3 706.1 394.6L706.1 394.6L706.1 390.6Q706.1 387.9 704.7 386.4Q703.4 384.9 701 384.9L701 384.9Q698.6 384.9 697.3 386.4Q695.9 387.9 695.9 390.6L695.9 390.6L695.9 394.6Q695.9 397.3 697.3 398.8Q698.6 400.3 701 400.3Z M769.4 405L747.8 405L747.8 399.7L755 399.7L755 376.8L747.8 376.8L747.8 371.5L769.4 371.5L769.4 376.8L762.2 376.8L762.2 399.7L769.4 399.7L769.4 405ZM783.2 405L776.1 405L776.1 380.2L783.2 380.2L783.2 384.7L783.5 384.7Q783.9 383.7 784.6 382.8Q785.2 381.9 786.1 381.2Q787.0 380.5 788.1 380.1Q789.3 379.7 790.8 379.7L790.8 379.7Q792.6 379.7 794.1 380.3Q795.6 380.9 796.6 382.1Q797.7 383.3 798.3 385.0Q798.9 386.7 798.9 389.0L798.9 389.0L798.9 405L791.8 405L791.8 389.9Q791.8 385.1 787.6 385.1L787.6 385.1Q786.8 385.1 786.0 385.3Q785.2 385.6 784.6 386.0Q783.9 386.5 783.6 387.1Q783.2 387.8 783.2 388.7L783.2 388.7L783.2 405ZM827.3 405L818.1 405Q814.3 405 812.4 403.0Q810.5 401.0 810.5 397.8L810.5 397.8L810.5 385.8L803.8 385.8L803.8 380.2L808.2 380.2Q809.8 380.2 810.4 379.6Q811.1 379.0 811.1 377.3L811.1 377.3L811.1 371.5L817.6 371.5L817.6 380.2L827.3 380.2L827.3 385.8L817.6 385.8L817.6 399.5L827.3 399.5L827.3 405ZM845.7 405.6L845.7 405.6Q839.4 405.6 836.2 402.1Q833.0 398.7 833.0 392.7L833.0 392.7Q833.0 389.7 833.8 387.3Q834.7 384.8 836.2 383.1Q837.8 381.4 840.0 380.5Q842.3 379.7 845.0 379.7L845.0 379.7Q847.8 379.7 850.0 380.5Q852.2 381.4 853.8 383.1Q855.3 384.7 856.2 387.0Q857.0 389.4 857.0 392.2L857.0 392.2L857.0 394.3L840.1 394.3L840.1 394.8Q840.1 397.2 841.5 398.6Q843.0 400.1 845.9 400.1L845.9 400.1Q848.1 400.1 849.7 399.3Q851.3 398.4 852.4 397.0L852.4 397.0L856.3 401.2Q854.8 403.0 852.2 404.3Q849.7 405.6 845.7 405.6ZM845.1 384.7L845.1 384.7Q842.8 384.7 841.4 386.2Q840.1 387.6 840.1 390.0L840.1 390.0L840.1 390.4L850.0 390.4L850.0 390.0Q850.0 387.5 848.7 386.1Q847.4 384.7 845.1 384.7ZM887.4 407.5L887.4 407.5Q887.4 411.4 884.1 413.3Q880.8 415.2 873.7 415.2L873.7 415.2Q870.1 415.2 867.8 414.8Q865.5 414.4 864.1 413.6Q862.8 412.8 862.2 411.8Q861.7 410.7 861.7 409.5L861.7 409.5Q861.7 407.4 862.9 406.3Q864.2 405.2 866.4 404.6L866.4 404.6L866.4 404.3Q864.8 403.8 863.9 403.0Q863.0 402.1 863.0 400.4L863.0 400.4Q863.0 398.6 864.2 397.8Q865.4 396.9 867.4 396.4L867.4 396.4L867.4 396.1Q865.2 395.1 864.0 393.1Q862.8 391.2 862.8 388.5L862.8 388.5Q862.8 386.3 863.5 384.7Q864.3 383.0 865.7 381.9Q867.1 380.8 869.1 380.2Q871.1 379.7 873.5 379.7L873.5 379.7Q875.9 379.7 877.9 380.2L877.9 380.2L877.9 378.8Q877.9 377.4 878.9 376.4Q879.9 375.5 881.7 375.5L881.7 375.5L886.0 375.5L886.0 380.7L880.1 380.7L880.1 381.1Q882.1 382.2 883.2 384Q884.4 385.8 884.4 388.5L884.4 388.5Q884.4 390.6 883.6 392.3Q882.8 393.9 881.4 395.0Q879.9 396.2 878.0 396.7Q876.0 397.3 873.5 397.3L873.5 397.3Q872.4 397.3 871.4 397.2Q870.4 397.1 869.5 396.8L869.5 396.8Q869.0 397.1 868.6 397.6Q868.2 398.0 868.2 398.7L868.2 398.7Q868.2 399.2 868.5 399.6Q868.8 399.9 869.3 400.1Q869.8 400.2 870.5 400.3Q871.2 400.3 871.9 400.3L871.9 400.3L877.5 400.3Q880.2 400.3 882.1 400.9Q883.9 401.4 885.1 402.4Q886.3 403.3 886.9 404.6Q887.4 405.9 887.4 407.5ZM880.7 408.0L880.7 408.0Q880.7 407.1 879.9 406.5Q879.1 406.0 877.0 406.0L877.0 406.0L868.5 406.0Q867.5 406.8 867.5 408.0L867.5 408.0Q867.5 409.1 868.5 409.9Q869.5 410.6 871.8 410.6L871.8 410.6L876.0 410.6Q878.5 410.6 879.6 409.9Q880.7 409.3 880.7 408.0ZM873.5 392.8L873.5 392.8Q875.7 392.8 876.7 391.8Q877.6 390.7 877.6 389.1L877.6 389.1L877.6 387.9Q877.6 386.3 876.7 385.2Q875.7 384.2 873.5 384.2L873.5 384.2Q871.4 384.2 870.4 385.2Q869.5 386.3 869.5 387.9L869.5 387.9L869.5 389.1Q869.5 390.7 870.4 391.8Q871.4 392.8 873.5 392.8ZM903.3 405.6L903.3 405.6Q897.0 405.6 893.8 402.1Q890.6 398.7 890.6 392.7L890.6 392.7Q890.6 389.7 891.4 387.3Q892.3 384.8 893.8 383.1Q895.4 381.4 897.6 380.5Q899.9 379.7 902.6 379.7L902.6 379.7Q905.4 379.7 907.6 380.5Q909.8 381.4 911.4 383.1Q912.9 384.7 913.8 387.0Q914.6 389.4 914.6 392.2L914.6 392.2L914.6 394.3L897.7 394.3L897.7 394.8Q897.7 397.2 899.1 398.6Q900.6 400.1 903.5 400.1L903.5 400.1Q905.7 400.1 907.3 399.3Q908.9 398.4 910.0 397.0L910.0 397.0L913.9 401.2Q912.4 403.0 909.8 404.3Q907.3 405.6 903.3 405.6ZM902.7 384.7L902.7 384.7Q900.4 384.7 899.0 386.2Q897.7 387.6 897.7 390.0L897.7 390.0L897.7 390.4L907.6 390.4L907.6 390.0Q907.6 387.5 906.3 386.1Q905.0 384.7 902.7 384.7ZM920.6 405L920.6 399.5L926.3 399.5L926.3 385.8L920.6 385.8L920.6 380.2L933.4 380.2L933.4 387.2L933.7 387.2Q934.0 385.9 934.6 384.6Q935.2 383.4 936.2 382.4Q937.1 381.4 938.5 380.8Q939.8 380.2 941.6 380.2L941.6 380.2L944.0 380.2L944.0 386.8L938.7 386.8Q936.1 386.8 934.7 388.3Q933.4 389.9 933.4 392.1L933.4 392.1L933.4 399.5L941.5 399.5L941.5 405L920.6 405Z M983.0 390.1L983.0 390.1Q983.0 386.6 983.7 383.3Q984.5 380.1 985.9 377.3Q987.3 374.5 989.1 372.3Q990.9 370.1 992.9 368.5L992.9 368.5L1000.0 368.5Q997.8 370.1 995.8 372.1Q993.8 374.1 992.2 376.6Q990.7 379.0 989.8 381.8Q988.9 384.6 988.9 387.6L988.9 387.6L988.9 392.5Q988.9 395.5 989.8 398.3Q990.7 401.1 992.2 403.6Q993.8 406.0 995.8 408.0Q997.8 410.1 1000.0 411.6L1000.0 411.6L992.9 411.6Q990.9 410.1 989.1 407.9Q987.3 405.6 985.9 402.8Q984.5 400.1 983.7 396.8Q983.0 393.6 983.0 390.1ZM1030.9 405L1026.8 405Q1024.6 405 1023.2 403.9Q1021.9 402.7 1021.6 400.6L1021.6 400.6L1021.4 400.6Q1020.7 403.1 1018.7 404.3Q1016.7 405.6 1013.9 405.6L1013.9 405.6Q1010.3 405.6 1008.1 403.6Q1005.9 401.7 1005.9 398.2L1005.9 398.2Q1005.9 394.3 1008.7 392.4Q1011.6 390.6 1017.0 390.6L1017.0 390.6L1021.0 390.6L1021.0 389.3Q1021.0 387.1 1020.0 386.0Q1019.0 384.8 1016.5 384.8L1016.5 384.8Q1014.2 384.8 1012.9 385.7Q1011.5 386.6 1010.5 388.0L1010.5 388.0L1006.6 384.5Q1007.8 382.4 1010.5 381.0Q1013.1 379.7 1017.3 379.7L1017.3 379.7Q1022.4 379.7 1025.3 382.0Q1028.1 384.3 1028.1 389.0L1028.1 389.0L1028.1 399.9L1030.9 399.9L1030.9 405ZM1016.6 400.9L1016.6 400.9Q1018.4 400.9 1019.7 400.0Q1021.0 399.1 1021.0 397.4L1021.0 397.4L1021.0 394.4L1017.2 394.4Q1012.9 394.4 1012.9 397.3L1012.9 397.3L1012.9 398.3Q1012.9 399.6 1013.9 400.2Q1014.9 400.9 1016.6 400.9ZM1057.7 405L1048.5 405Q1044.7 405 1042.8 403.0Q1040.9 401.0 1040.9 397.8L1040.9 397.8L1040.9 385.8L1034.2 385.8L1034.2 380.2L1038.6 380.2Q1040.2 380.2 1040.8 379.6Q1041.5 379.0 1041.5 377.3L1041.5 377.3L1041.5 371.5L1048.0 371.5L1048.0 380.2L1057.7 380.2L1057.7 385.8L1048.0 385.8L1048.0 399.5L1057.7 399.5L1057.7 405ZM1075.4 405.6L1075.4 405.6Q1072.5 405.6 1070.2 404.7Q1067.9 403.8 1066.3 402.1Q1064.7 400.4 1063.8 398.0Q1063.0 395.6 1063.0 392.6L1063.0 392.6Q1063.0 389.6 1063.8 387.2Q1064.7 384.8 1066.3 383.1Q1067.9 381.4 1070.2 380.5Q1072.5 379.7 1075.4 379.7L1075.4 379.7Q1078.3 379.7 1080.6 380.5Q1082.9 381.4 1084.5 383.1Q1086.1 384.8 1087.0 387.2Q1087.8 389.6 1087.8 392.6L1087.8 392.6Q1087.8 395.6 1087.0 398.0Q1086.1 400.4 1084.5 402.1Q1082.9 403.8 1080.6 404.7Q1078.3 405.6 1075.4 405.6ZM1075.4 400.3L1075.4 400.3Q1077.8 400.3 1079.1 398.8Q1080.5 397.3 1080.5 394.6L1080.5 394.6L1080.5 390.6Q1080.5 387.9 1079.1 386.4Q1077.8 384.9 1075.4 384.9L1075.4 384.9Q1073 384.9 1071.7 386.4Q1070.3 387.9 1070.3 390.6L1070.3 390.6L1070.3 394.6Q1070.3 397.3 1071.7 398.8Q1073 400.3 1075.4 400.3ZM1105.7 377.1L1105.7 377.1Q1103.3 377.1 1102.4 376.1Q1101.5 375.1 1101.5 373.7L1101.5 373.7L1101.5 372.3Q1101.5 370.9 1102.4 369.9Q1103.3 369.0 1105.7 369.0L1105.7 369.0Q1108.1 369.0 1109.1 369.9Q1110.0 370.9 1110.0 372.3L1110.0 372.3L1110.0 373.7Q1110.0 375.1 1109.1 376.1Q1108.1 377.1 1105.7 377.1ZM1094.3 405L1094.3 399.5L1102.2 399.5L1102.2 385.8L1094.3 385.8L1094.3 380.2L1109.3 380.2L1109.3 399.5L1116.6 399.5L1116.6 405L1094.3 405ZM1139.0 390.1L1139.0 390.1Q1139.0 393.6 1138.3 396.8Q1137.5 400.1 1136.1 402.8Q1134.7 405.6 1132.9 407.9Q1131.1 410.1 1129.1 411.6L1129.1 411.6L1122.0 411.6Q1124.2 410.1 1126.2 408.0Q1128.2 406.0 1129.8 403.6Q1131.3 401.1 1132.2 398.3Q1133.1 395.5 1133.1 392.5L1133.1 392.5L1133.1 387.6Q1133.1 384.6 1132.2 381.8Q1131.3 379.0 1129.8 376.6Q1128.2 374.1 1126.2 372.1Q1124.2 370.1 1122.0 368.5L1122.0 368.5L1129.1 368.5Q1131.1 370.1 1132.9 372.3Q1134.7 374.5 1136.1 377.3Q1137.5 380.1 1138.3 383.3Q1139.0 386.6 1139.0 390.1Z "/></g></svg>