<svg width="1200" height="630" viewBox="0 0 1200 630" xmlns="http://www.w3.org/2000/svg"><defs><pattern id="satori_pattern_id_1" x="0" y="0" width="0.08333333333333333" height="0.15873015873015872" patternUnits="objectBoundingBox"><radialGradient id="satori_radial_id_1" spreadMethod="pad"><stop offset="0" stop-color="lightgray"/><stop offset="0.03" stop-color="lightgray"/><stop offset="0" stop-color="transparent"/><stop offset="1" stop-color="transparent"/></radialGradient><mask id="satori_mask_id_1"><rect x="0" y="0" width="100" height="100" fill="#fff"/></mask><rect x="0" y="0" width="100" height="100" fill="transparent"/><circle cx="75" cy="75" width="100" height="100" r="106.06601717798213" fill="url(#satori_radial_id_1)" mask="url(#satori_mask_id_1)"/></pattern><pattern id="satori_pattern_id_0" x="0" y="0" width="0.08333333333333333" height="0.15873015873015872" patternUnits="objectBoundingBox"><radialGradient id="satori_radial_id_0" spreadMethod="pad"><stop offset="0" stop-color="lightgray"/><stop offset="0.03" stop-color="lightgray"/><stop offset="0" stop-color="transparent"/><stop offset="1" stop-color="transparent"/></radialGradient><mask id="satori_mask_id_0"><rect x="0" y="0" width="100" height="100" fill="#fff"/></mask><rect x="0" y="0" width="100" height="100" fill="transparent"/><circle cx="25" cy="25" width="100" height="100" r="106.06601717798213" fill="url(#satori_radial_id_0)" mask="url(#satori_mask_id_0)"/></pattern></defs><mask id="satori_om-id"><rect x="0" y="0" width="1200" height="630" fill="#fff"/></mask><rect x="0" y="0" width="1200" height="630" fill="white"/><rect x="0" y="0" width="1200" height="630" fill="url(#satori_pattern_id_1)"/><rect x="0" y="0" width="1200" height="630" fill="url(#satori_pattern_id_0)"/><mask id="satori_om-id-0"><rect x="0" y="182" width="1200" height="267" fill="#fff"/></mask><mask id="satori_om-id-0-0"><rect x="476" y="182" width="248" height="47" fill="#fff"/></mask><mask id="satori_om-id-0-0-0"><rect x="476" y="198" width="16" height="16" fill="#fff"/></mask><rect x="476" y="198" width="16" height="16" fill="black"/><mask id="satori_om-id-0-0-1"><rect x="508" y="182" width="216" height="47" fill="#fff"/></mask><g  ><path fill="black" d="M511.7 226.2L511.7 223.8L520.7 223.8L520.7 202.9L511.3 202.9L511.3 200.4L523.6 200.4L523.6 222.0Q523.6 223.8 522.6 225.0Q521.6 226.2 519.4 226.2L519.4 226.2L511.7 226.2ZM522.1 196.3L522.1 196.3Q520.9 196.3 520.3 195.8Q519.8 195.3 519.8 194.5L519.8 194.5L519.8 193.9Q519.8 193.1 520.3 192.6Q520.9 192.1 522.1 192.1L522.1 192.1Q523.4 192.1 523.9 192.6Q524.4 193.1 524.4 193.9L524.4 193.9L524.4 194.5Q524.4 195.3 523.9 195.8Q523.4 196.3 522.1 196.3ZM549.4 219L547.4 219Q545.7 219 545.0 218.1Q544.3 217.3 544.1 216.0L544.1 216.0L543.9 216.0Q543.3 217.6 542.0 218.5Q540.6 219.4 538.3 219.4L538.3 219.4Q535.4 219.4 533.7 217.9Q532.0 216.4 532.0 213.8L532.0 213.8Q532.0 211.2 533.9 209.8Q535.8 208.4 540.0 208.4L540.0 208.4L543.9 208.4L543.9 206.5Q543.9 204.5 542.8 203.5Q541.6 202.4 539.5 202.4L539.5 202.4Q537.6 202.4 536.4 203.2Q535.3 203.9 534.5 205.2L534.5 205.2L532.6 203.7Q532.9 203.0 533.6 202.3Q534.2 201.6 535.1 201.1Q536.0 200.6 537.1 200.3Q538.3 200.0 539.7 200.0L539.7 200.0Q543.0 200.0 544.9 201.6Q546.8 203.3 546.8 206.3L546.8 206.3L546.8 216.5L549.4 216.5L549.4 219ZM538.9 217.0L538.9 217.0Q540.0 217.0 540.9 216.8Q541.8 216.5 542.5 216.0Q543.2 215.6 543.6 214.9Q543.9 214.3 543.9 213.6L543.9 213.6L543.9 210.5L540.0 210.5Q537.4 210.5 536.2 211.3Q535 212.0 535 213.3L535 213.3L535 214.1Q535 215.5 536.0 216.3Q537.1 217.0 538.9 217.0ZM562.3 219.4L562.3 219.4Q560.3 219.4 558.7 218.7Q557.1 218.1 556.0 216.8Q554.8 215.5 554.2 213.7Q553.6 211.9 553.6 209.7L553.6 209.7Q553.6 207.5 554.2 205.7Q554.9 203.9 556.0 202.6Q557.1 201.4 558.7 200.7Q560.2 200.0 562.1 200.0L562.1 200.0Q564.0 200.0 565.5 200.7Q567.1 201.4 568.2 202.6Q569.2 203.8 569.8 205.4Q570.4 207.1 570.4 209.1L570.4 209.1L570.4 210.4L556.6 210.4L556.6 211.3Q556.6 212.5 557.0 213.6Q557.4 214.6 558.2 215.4Q558.9 216.1 560.0 216.5Q561.0 216.9 562.3 216.9L562.3 216.9Q564.2 216.9 565.6 216.1Q566.9 215.2 567.7 213.7L567.7 213.7L569.8 215.1Q568.9 217.0 567.0 218.2Q565.1 219.4 562.3 219.4ZM562.1 202.4L562.1 202.4Q561.0 202.4 559.9 202.8Q558.9 203.2 558.2 204.0Q557.5 204.7 557.1 205.8Q556.6 206.8 556.6 208.0L556.6 208.0L556.6 208.3L567.3 208.3L567.3 207.9Q567.3 206.7 566.9 205.6Q566.5 204.6 565.9 203.9Q565.2 203.2 564.3 202.8Q563.3 202.4 562.1 202.4ZM576.3 219L576.3 192.4L579.2 192.4L579.2 203.4L579.4 203.4Q579.6 202.8 580.1 202.1Q580.5 201.5 581.1 201.0Q581.8 200.6 582.6 200.3Q583.5 200.0 584.6 200.0L584.6 200.0Q587.6 200.0 589.3 201.8Q591.1 203.7 591.1 207.1L591.1 207.1L591.1 219L588.2 219L588.2 207.6Q588.2 205.0 587.1 203.8Q586.0 202.5 583.8 202.5L583.8 202.5Q583.0 202.5 582.1 202.8Q581.3 203.0 580.6 203.4Q580.0 203.8 579.6 204.5Q579.2 205.2 579.2 206.1L579.2 206.1L579.2 219L576.3 219ZM605.5 219.4L605.5 219.4Q603.5 219.4 601.9 218.7Q600.3 218.1 599.2 216.8Q598.0 215.5 597.4 213.7Q596.8 211.9 596.8 209.7L596.8 209.7Q596.8 207.5 597.4 205.7Q598.1 203.9 599.2 202.6Q600.3 201.4 601.9 200.7Q603.4 200.0 605.3 200.0L605.3 200.0Q607.2 200.0 608.7 200.7Q610.3 201.4 611.4 202.6Q612.4 203.8 613.0 205.4Q613.6 207.1 613.6 209.1L613.6 209.1L613.6 210.4L599.8 210.4L599.8 211.3Q599.8 212.5 600.2 213.6Q600.6 214.6 601.4 215.4Q602.1 216.1 603.2 216.5Q604.2 216.9 605.5 216.9L605.5 216.9Q607.4 216.9 608.8 216.1Q610.1 215.2 610.9 213.7L610.9 213.7L613.0 215.1Q612.1 217.0 610.2 218.2Q608.3 219.4 605.5 219.4ZM605.3 202.4L605.3 202.4Q604.2 202.4 603.1 202.8Q602.1 203.2 601.4 204.0Q600.7 204.7 600.3 205.8Q599.8 206.8 599.8 208.0L599.8 208.0L599.8 208.3L610.5 208.3L610.5 207.9Q610.5 206.7 610.1 205.6Q609.7 204.6 609.1 203.9Q608.4 203.2 607.5 202.8Q606.5 202.4 605.3 202.4ZM627.1 219.4L627.1 219.4Q625.1 219.4 623.5 218.7Q621.9 218.1 620.8 216.8Q619.6 215.5 619.0 213.7Q618.4 211.9 618.4 209.7L618.4 209.7Q618.4 207.5 619.0 205.7Q619.7 203.9 620.8 202.6Q621.9 201.4 623.5 200.7Q625.0 200.0 626.9 200.0L626.9 200.0Q628.8 200.0 630.3 200.7Q631.9 201.4 633.0 202.6Q634.0 203.8 634.6 205.4Q635.2 207.1 635.2 209.1L635.2 209.1L635.2 210.4L621.4 210.4L621.4 211.3Q621.4 212.5 621.8 213.6Q622.2 214.6 623.0 215.4Q623.7 216.1 624.8 216.5Q625.8 216.9 627.1 216.9L627.1 216.9Q629.0 216.9 630.4 216.1Q631.7 215.2 632.5 213.7L632.5 213.7L634.6 215.1Q633.7 217.0 631.8 218.2Q629.9 219.4 627.1 219.4ZM626.9 202.4L626.9 202.4Q625.8 202.4 624.7 202.8Q623.7 203.2 623.0 204.0Q622.3 204.7 621.9 205.8Q621.4 206.8 621.4 208.0L621.4 208.0L621.4 208.3L632.1 208.3L632.1 207.9Q632.1 206.7 631.7 205.6Q631.3 204.6 630.7 203.9Q630.0 203.2 629.1 202.8Q628.1 202.4 626.9 202.4ZM648.4 219.3L648.4 219.3Q646.9 219.3 646.3 218.7Q645.7 218.1 645.7 217.2L645.7 217.2L645.7 216.5Q645.7 215.6 646.3 215.0Q646.9 214.4 648.4 214.4L648.4 214.4Q649.9 214.4 650.5 215.0Q651.1 215.6 651.1 216.5L651.1 216.5L651.1 217.2Q651.1 218.1 650.5 218.7Q649.9 219.3 648.4 219.3ZM674.5 219L674.5 216.0L674.4 216.0Q672.6 219.4 668.6 219.4L668.6 219.4Q665.2 219.4 663.3 216.9Q661.4 214.3 661.4 209.7L661.4 209.7Q661.4 205.1 663.3 202.5Q665.2 200.0 668.6 200.0L668.6 200.0Q672.6 200.0 674.4 203.4L674.4 203.4L674.5 203.4L674.5 192.4L677.4 192.4L677.4 219L674.5 219ZM669.7 216.9L669.7 216.9Q670.7 216.9 671.6 216.6Q672.4 216.4 673.1 215.9Q673.7 215.4 674.1 214.7Q674.5 214.0 674.5 213.1L674.5 213.1L674.5 206.4Q674.5 205.4 674.1 204.7Q673.7 204.0 673.1 203.5Q672.4 203.1 671.6 202.8Q670.7 202.5 669.7 202.5L669.7 202.5Q667.2 202.5 665.8 204.1Q664.5 205.6 664.5 208.1L664.5 208.1L664.5 211.3Q664.5 213.8 665.8 215.3Q667.2 216.9 669.7 216.9ZM691.9 219.4L691.9 219.4Q689.9 219.4 688.3 218.7Q686.7 218.1 685.6 216.8Q684.4 215.5 683.8 213.7Q683.2 211.9 683.2 209.7L683.2 209.7Q683.2 207.5 683.8 205.7Q684.5 203.9 685.6 202.6Q686.7 201.4 688.3 200.7Q689.8 200.0 691.7 200.0L691.7 200.0Q693.6 200.0 695.1 200.7Q696.7 201.4 697.8 202.6Q698.8 203.8 699.4 205.4Q700.0 207.1 700.0 209.1L700.0 209.1L700.0 210.4L686.2 210.4L686.2 211.3Q686.2 212.5 686.6 213.6Q687.0 214.6 687.8 215.4Q688.5 216.1 689.6 216.5Q690.6 216.9 691.9 216.9L691.9 216.9Q693.8 216.9 695.2 216.1Q696.5 215.2 697.3 213.7L697.3 213.7L699.4 215.1Q698.5 217.0 696.6 218.2Q694.7 219.4 691.9 219.4ZM691.7 202.4L691.7 202.4Q690.6 202.4 689.5 202.8Q688.5 203.2 687.8 204.0Q687.1 204.7 686.7 205.8Q686.2 206.8 686.2 208.0L686.2 208.0L686.2 208.3L696.9 208.3L696.9 207.9Q696.9 206.7 696.5 205.6Q696.1 204.6 695.5 203.9Q694.8 203.2 693.9 202.8Q692.9 202.4 691.7 202.4ZM715.0 219L711.4 219L704.7 200.4L707.6 200.4L710.3 208.2L713.2 216.6L713.3 216.6L716.2 208.2L718.9 200.4L721.7 200.4L715.0 219Z "/></g><mask id="satori_om-id-0-1"><rect x="0" y="325" width="1200" height="124" fill="#fff"/></mask><g  ><path fill="black" d="M151.1 374L129.4 374L129.4 340.5L136.7 340.5L136.7 368.1L151.1 368.1L151.1 374ZM168.9 374.6L168.9 374.6Q162.6 374.6 159.4 371.1Q156.2 367.7 156.2 361.7L156.2 361.7Q156.2 358.7 157.0 356.3Q157.9 353.8 159.4 352.1Q161 350.4 163.2 349.5Q165.5 348.7 168.2 348.7L168.2 348.7Q171.0 348.7 173.2 349.5Q175.4 350.4 177.0 352.1Q178.5 353.7 179.4 356.0Q180.2 358.4 180.2 361.2L180.2 361.2L180.2 363.3L163.3 363.3L163.3 363.8Q163.3 366.2 164.7 367.6Q166.2 369.1 169.1 369.1L169.1 369.1Q171.3 369.1 172.9 368.3Q174.5 367.4 175.6 366.0L175.6 366.0L179.5 370.2Q178.0 372.0 175.4 373.3Q172.9 374.6 168.9 374.6ZM168.3 353.7L168.3 353.7Q166.0 353.7 164.6 355.2Q163.3 356.6 163.3 359.0L163.3 359.0L163.3 359.4L173.2 359.4L173.2 359.0Q173.2 356.5 171.9 355.1Q170.6 353.7 168.3 353.7ZM197.7 374.6L197.7 374.6Q191.4 374.6 188.2 371.1Q185.0 367.7 185.0 361.7L185.0 361.7Q185.0 358.7 185.8 356.3Q186.7 353.8 188.2 352.1Q189.8 350.4 192.0 349.5Q194.3 348.7 197.0 348.7L197.0 348.7Q199.8 348.7 202.0 349.5Q204.2 350.4 205.8 352.1Q207.3 353.7 208.2 356.0Q209.0 358.4 209.0 361.2L209.0 361.2L209.0 363.3L192.1 363.3L192.1 363.8Q192.1 366.2 193.5 367.6Q195.0 369.1 197.9 369.1L197.9 369.1Q200.1 369.1 201.7 368.3Q203.3 367.4 204.4 366.0L204.4 366.0L208.3 370.2Q206.8 372.0 204.2 373.3Q201.7 374.6 197.7 374.6ZM197.1 353.7L197.1 353.7Q194.8 353.7 193.4 355.2Q192.1 356.6 192.1 359.0L192.1 359.0L192.1 359.4L202.0 359.4L202.0 359.0Q202.0 356.5 200.7 355.1Q199.4 353.7 197.1 353.7ZM236.9 374L227.7 374Q223.9 374 222.0 372.0Q220.1 370.0 220.1 366.8L220.1 366.8L220.1 354.8L213.4 354.8L213.4 349.2L217.8 349.2Q219.4 349.2 220.0 348.6Q220.7 348.0 220.7 346.3L220.7 346.3L220.7 340.5L227.2 340.5L227.2 349.2L236.9 349.2L236.9 354.8L227.2 354.8L227.2 368.5L236.9 368.5L236.9 374ZM255.4 374.6L255.4 374.6Q248.6 374.6 245.4 370.0Q242.2 365.5 242.2 357.2L242.2 357.2Q242.2 349.0 245.4 344.5Q248.6 339.9 255.4 339.9L255.4 339.9Q258.0 339.9 260.0 340.6Q261.9 341.3 263.4 342.6Q264.8 343.8 265.8 345.6Q266.7 347.4 267.2 349.6L267.2 349.6L260.5 351.2Q260.2 350 259.8 349.0Q259.4 348.0 258.8 347.3Q258.2 346.5 257.4 346.1Q256.5 345.7 255.2 345.7L255.2 345.7Q252.3 345.7 251.1 348.0Q249.8 350.3 249.8 354.3L249.8 354.3L249.8 360.2Q249.8 364.2 251.1 366.5Q252.3 368.8 255.2 368.8L255.2 368.8Q257.7 368.8 258.8 367.2Q260.0 365.7 260.5 363.3L260.5 363.3L267.2 364.9Q266.7 367.1 265.8 368.9Q264.8 370.7 263.4 372.0Q261.9 373.2 260.0 373.9Q258.0 374.6 255.4 374.6ZM283.4 374.6L283.4 374.6Q280.5 374.6 278.2 373.7Q275.9 372.8 274.3 371.1Q272.7 369.4 271.8 367.0Q271.0 364.6 271.0 361.6L271.0 361.6Q271.0 358.6 271.8 356.2Q272.7 353.8 274.3 352.1Q275.9 350.4 278.2 349.5Q280.5 348.7 283.4 348.7L283.4 348.7Q286.3 348.7 288.6 349.5Q290.9 350.4 292.5 352.1Q294.1 353.8 295.0 356.2Q295.8 358.6 295.8 361.6L295.8 361.6Q295.8 364.6 295.0 367.0Q294.1 369.4 292.5 371.1Q290.9 372.8 288.6 373.7Q286.3 374.6 283.4 374.6ZM283.4 369.3L283.4 369.3Q285.8 369.3 287.1 367.8Q288.5 366.3 288.5 363.6L288.5 363.6L288.5 359.6Q288.5 356.9 287.1 355.4Q285.8 353.9 283.4 353.9L283.4 353.9Q281.0 353.9 279.7 355.4Q278.3 356.9 278.3 359.6L278.3 359.6L278.3 363.6Q278.3 366.3 279.7 367.8Q281.0 369.3 283.4 369.3ZM316.7 374L316.7 369.5L316.3 369.5Q315.4 371.7 313.7 373.2Q312.0 374.6 309.0 374.6L309.0 374.6Q306.9 374.6 305.2 373.8Q303.5 373.0 302.3 371.5Q301.1 369.9 300.4 367.4Q299.7 365.0 299.7 361.6L299.7 361.6Q299.7 358.3 300.4 355.8Q301.1 353.4 302.3 351.8Q303.5 350.2 305.2 349.4Q306.9 348.7 309.0 348.7L309.0 348.7Q310.5 348.7 311.6 349.0Q312.8 349.4 313.7 350.1Q314.6 350.8 315.2 351.7Q315.8 352.6 316.3 353.7L316.3 353.7L316.7 353.7L316.7 338.5L323.8 338.5L323.8 374L316.7 374ZM312.1 369.1L312.1 369.1Q313.9 369.1 315.3 368.1Q316.7 367.2 316.7 365.3L316.7 365.3L316.7 358.0Q316.7 356 315.3 355.1Q313.9 354.2 312.1 354.2L312.1 354.2Q309.7 354.2 308.4 355.6Q307.1 357.1 307.1 359.7L307.1 359.7L307.1 363.5Q307.1 366.1 308.4 367.6Q309.7 369.1 312.1 369.1ZM341.7 374.6L341.7 374.6Q335.4 374.6 332.2 371.1Q329.0 367.7 329.0 361.7L329.0 361.7Q329.0 358.7 329.8 356.3Q330.7 353.8 332.2 352.1Q333.8 350.4 336.0 349.5Q338.3 348.7 341.0 348.7L341.0 348.7Q343.8 348.7 346.0 349.5Q348.2 350.4 349.8 352.1Q351.3 353.7 352.2 356.0Q353.0 358.4 353.0 361.2L353.0 361.2L353.0 363.3L336.1 363.3L336.1 363.8Q336.1 366.2 337.5 367.6Q339.0 369.1 341.9 369.1L341.9 369.1Q344.1 369.1 345.7 368.3Q347.3 367.4 348.4 366.0L348.4 366.0L352.3 370.2Q350.8 372.0 348.2 373.3Q345.7 374.6 341.7 374.6ZM341.1 353.7L341.1 353.7Q338.8 353.7 337.4 355.2Q336.1 356.6 336.1 359.0L336.1 359.0L336.1 359.4L346.0 359.4L346.0 359.0Q346.0 356.5 344.7 355.1Q343.4 353.7 341.1 353.7Z M406.1 362.8L390.7 362.8L390.7 356.0L406.1 356.0L406.1 362.8Z M469.8 374L446.5 374L446.5 368.2L455.5 368.2L455.5 345.7L455.1 345.7L448.3 354.7L443.7 351.1L451.7 340.5L462.7 340.5L462.7 368.2L469.8 368.2L469.8 374ZM485.2 374.6L485.2 374.6Q478.5 374.6 475.3 370.0Q472.1 365.5 472.1 357.2L472.1 357.2Q472.1 349.0 475.3 344.5Q478.5 339.9 485.2 339.9L485.2 339.9Q491.9 339.9 495.1 344.5Q498.3 349.0 498.3 357.2L498.3 357.2Q498.3 365.5 495.1 370.0Q491.9 374.6 485.2 374.6ZM485.2 368.9L485.2 368.9Q488.4 368.9 489.7 366.7Q491.0 364.4 491.0 360.4L491.0 360.4L491.0 354.1Q491.0 350.1 489.7 347.8Q488.4 345.6 485.2 345.6L485.2 345.6Q482.0 345.6 480.7 347.8Q479.4 350.1 479.4 354.1L479.4 354.1L479.4 360.4Q479.4 364.4 480.7 366.7Q482.0 368.9 485.2 368.9ZM485.2 360.1L485.2 360.1Q483.5 360.1 482.9 359.4Q482.2 358.7 482.2 357.8L482.2 357.8L482.2 356.7Q482.2 355.8 482.9 355.1Q483.5 354.4 485.2 354.4L485.2 354.4Q486.9 354.4 487.5 355.1Q488.2 355.8 488.2 356.7L488.2 356.7L488.2 357.8Q488.2 358.7 487.5 359.4Q486.9 360.1 485.2 360.1ZM514 374.6L514 374.6Q511.3 374.6 510.1 373.4Q509.0 372.2 509.0 370.6L509.0 370.6L509.0 368.9Q509.0 367.3 510.1 366.1Q511.3 364.9 514 364.9L514 364.9Q516.7 364.9 517.9 366.1Q519.0 367.3 519.0 368.9L519.0 368.9L519.0 370.6Q519.0 372.2 517.9 373.4Q516.7 374.6 514 374.6Z M567.8 361.6L567.8 374L560.6 374L560.6 340.5L573.6 340.5Q576.1 340.5 578.0 341.2Q579.9 342.0 581.2 343.4Q582.5 344.8 583.2 346.7Q583.9 348.7 583.9 351.2L583.9 351.2Q583.9 354.7 582.3 357.2Q580.8 359.8 578.0 360.6L578.0 360.6L584.6 374L576.7 374L571.1 361.6L567.8 361.6ZM567.8 356L571.9 356Q574.4 356 575.4 355.0Q576.4 354.1 576.4 351.9L576.4 351.9L576.4 350.4Q576.4 348.2 575.4 347.3Q574.4 346.3 571.9 346.3L571.9 346.3L567.8 346.3L567.8 356ZM600.9 374.6L600.9 374.6Q594.6 374.6 591.4 371.1Q588.2 367.7 588.2 361.7L588.2 361.7Q588.2 358.7 589.0 356.3Q589.9 353.8 591.4 352.1Q593 350.4 595.2 349.5Q597.5 348.7 600.2 348.7L600.2 348.7Q603.0 348.7 605.2 349.5Q607.4 350.4 609.0 352.1Q610.5 353.7 611.4 356.0Q612.2 358.4 612.2 361.2L612.2 361.2L612.2 363.3L595.3 363.3L595.3 363.8Q595.3 366.2 596.7 367.6Q598.2 369.1 601.1 369.1L601.1 369.1Q603.3 369.1 604.9 368.3Q606.5 367.4 607.6 366.0L607.6 366.0L611.5 370.2Q610.0 372.0 607.4 373.3Q604.9 374.6 600.9 374.6ZM600.3 353.7L600.3 353.7Q598.0 353.7 596.6 355.2Q595.3 356.6 595.3 359.0L595.3 359.0L595.3 359.4L605.2 359.4L605.2 359.0Q605.2 356.5 603.9 355.1Q602.6 353.7 600.3 353.7ZM642.6 376.5L642.6 376.5Q642.6 380.4 639.3 382.3Q636.0 384.2 628.9 384.2L628.9 384.2Q625.3 384.2 623.0 383.8Q620.7 383.4 619.3 382.6Q618.0 381.8 617.4 380.8Q616.9 379.7 616.9 378.5L616.9 378.5Q616.9 376.4 618.1 375.3Q619.4 374.2 621.6 373.6L621.6 373.6L621.6 373.3Q620.0 372.8 619.1 372.0Q618.2 371.1 618.2 369.4L618.2 369.4Q618.2 367.6 619.4 366.8Q620.6 365.9 622.6 365.4L622.6 365.4L622.6 365.1Q620.4 364.1 619.2 362.1Q618.0 360.2 618.0 357.5L618.0 357.5Q618.0 355.3 618.7 353.7Q619.5 352.0 620.9 350.9Q622.3 349.8 624.3 349.2Q626.3 348.7 628.7 348.7L628.7 348.7Q631.1 348.7 633.1 349.2L633.1 349.2L633.1 347.8Q633.1 346.4 634.1 345.4Q635.1 344.5 636.9 344.5L636.9 344.5L641.2 344.5L641.2 349.7L635.3 349.7L635.3 350.1Q637.3 351.2 638.4 353Q639.6 354.8 639.6 357.5L639.6 357.5Q639.6 359.6 638.8 361.3Q638.0 362.9 636.6 364.0Q635.1 365.2 633.2 365.7Q631.2 366.3 628.7 366.3L628.7 366.3Q627.6 366.3 626.6 366.2Q625.6 366.1 624.7 365.8L624.7 365.8Q624.2 366.1 623.8 366.6Q623.4 367.0 623.4 367.7L623.4 367.7Q623.4 368.2 623.7 368.6Q624.0 368.9 624.5 369.1Q625.0 369.2 625.7 369.3Q626.4 369.3 627.1 369.3L627.1 369.3L632.7 369.3Q635.4 369.3 637.3 369.9Q639.1 370.4 640.3 371.4Q641.5 372.3 642.1 373.6Q642.6 374.9 642.6 376.5ZM635.9 377.0L635.9 377.0Q635.9 376.1 635.1 375.5Q634.3 375.0 632.2 375.0L632.2 375.0L623.7 375.0Q622.7 375.8 622.7 377.0L622.7 377.0Q622.7 378.1 623.7 378.9Q624.7 379.6 627.0 379.6L627.0 379.6L631.2 379.6Q633.7 379.6 634.8 378.9Q635.9 378.3 635.9 377.0ZM628.7 361.8L628.7 361.8Q630.9 361.8 631.9 360.8Q632.8 359.7 632.8 358.1L632.8 358.1L632.8 356.9Q632.8 355.3 631.9 354.2Q630.9 353.2 628.7 353.2L628.7 353.2Q626.6 353.2 625.6 354.2Q624.7 355.3 624.7 356.9L624.7 356.9L624.7 358.1Q624.7 359.7 625.6 360.8Q626.6 361.8 628.7 361.8ZM662.0 374L662.0 369.5L661.7 369.5Q660.9 371.6 659.1 373.1Q657.4 374.6 654.4 374.6L654.4 374.6Q652.6 374.6 651.1 374.0Q649.6 373.4 648.6 372.2Q647.5 371.0 646.9 369.2Q646.3 367.5 646.3 365.3L646.3 365.3L646.3 349.2L653.4 349.2L653.4 364.3Q653.4 369.1 657.6 369.1L657.6 369.1Q658.4 369.1 659.2 368.9Q660.0 368.7 660.6 368.2Q661.2 367.8 661.6 367.1Q662.0 366.4 662.0 365.5L662.0 365.5L662.0 349.2L669.1 349.2L669.1 374L662.0 374ZM675.5 374L675.5 368.5L683.0 368.5L683.0 344L675.5 344L675.5 338.5L690.2 338.5L690.2 368.5L697.7 368.5L697.7 374L675.5 374ZM728.5 374L724.4 374Q722.2 374 720.8 372.9Q719.5 371.7 719.2 369.6L719.2 369.6L719.0 369.6Q718.3 372.1 716.3 373.3Q714.3 374.6 711.5 374.6L711.5 374.6Q707.9 374.6 705.7 372.6Q703.5 370.7 703.5 367.2L703.5 367.2Q703.5 363.3 706.3 361.4Q709.2 359.6 714.6 359.6L714.6 359.6L718.6 359.6L718.6 358.3Q718.6 356.1 717.6 355.0Q716.6 353.8 714.1 353.8L714.1 353.8Q711.8 353.8 710.5 354.7Q709.1 355.6 708.1 357.0L708.1 357.0L704.2 353.5Q705.4 351.4 708.1 350.0Q710.7 348.7 714.9 348.7L714.9 348.7Q720.0 348.7 722.9 351.0Q725.7 353.3 725.7 358.0L725.7 358.0L725.7 368.9L728.5 368.9L728.5 374ZM714.2 369.9L714.2 369.9Q716.0 369.9 717.3 369.0Q718.6 368.1 718.6 366.4L718.6 366.4L718.6 363.4L714.8 363.4Q710.5 363.4 710.5 366.3L710.5 366.3L710.5 367.3Q710.5 368.6 711.5 369.2Q712.5 369.9 714.2 369.9ZM733.4 374L733.4 368.5L739.1 368.5L739.1 354.8L733.4 354.8L733.4 349.2L746.2 349.2L746.2 356.2L746.5 356.2Q746.8 354.9 747.4 353.6Q748.0 352.4 749.0 351.4Q749.9 350.4 751.3 349.8Q752.6 349.2 754.4 349.2L754.4 349.2L756.8 349.2L756.8 355.8L751.5 355.8Q748.9 355.8 747.5 357.3Q746.2 358.9 746.2 361.1L746.2 361.1L746.2 368.5L754.3 368.5L754.3 374L733.4 374Z M812.2 374L790.8 374L790.8 340.5L812.2 340.5L812.2 346.4L798.0 346.4L798.0 354.1L811.8 354.1L811.8 360.0L798.0 360.0L798.0 368.1L812.2 368.1L812.2 374ZM824.4 374L816.9 374L826.2 361.4L817.5 349.2L825.6 349.2L828.3 353.2L830.3 356.4L830.7 356.4L832.7 353.2L835.4 349.2L842.9 349.2L834.2 361.0L843.5 374L835.3 374L832.2 369.3L830.1 366.0L829.7 366.0L827.6 369.3L824.4 374ZM847.4 383.6L847.4 349.2L854.5 349.2L854.5 353.7L854.9 353.7Q855.8 351.5 857.5 350.1Q859.2 348.7 862.2 348.7L862.2 348.7Q864.3 348.7 866.0 349.4Q867.7 350.2 868.9 351.8Q870.1 353.4 870.8 355.8Q871.5 358.3 871.5 361.6L871.5 361.6Q871.5 365.0 870.8 367.4Q870.1 369.9 868.9 371.5Q867.7 373.0 866.0 373.8Q864.3 374.6 862.2 374.6L862.2 374.6Q859.2 374.6 857.5 373.2Q855.8 371.7 854.9 369.5L854.9 369.5L854.5 369.5L854.5 383.6L847.4 383.6ZM859.1 369.1L859.1 369.1Q861.5 369.1 862.8 367.6Q864.1 366.1 864.1 363.5L864.1 363.5L864.1 359.7Q864.1 357.1 862.8 355.6Q861.5 354.2 859.1 354.2L859.1 354.2Q857.3 354.2 855.9 355.1Q854.5 356 854.5 358.0L854.5 358.0L854.5 365.3Q854.5 367.2 855.9 368.1Q857.3 369.1 859.1 369.1ZM877.0 374L877.0 368.5L882.7 368.5L882.7 354.8L877.0 354.8L877.0 349.2L889.8 349.2L889.8 356.2L890.1 356.2Q890.4 354.9 891.0 353.6Q891.6 352.4 892.6 351.4Q893.5 350.4 894.9 349.8Q896.2 349.2 898.0 349.2L898.0 349.2L900.4 349.2L900.4 355.8L895.1 355.8Q892.5 355.8 891.1 357.3Q889.8 358.9 889.8 361.1L889.8 361.1L889.8 368.5L897.9 368.5L897.9 374L877.0 374ZM917.3 374.6L917.3 374.6Q911.0 374.6 907.8 371.1Q904.6 367.7 904.6 361.7L904.6 361.7Q904.6 358.7 905.4 356.3Q906.3 353.8 907.8 352.1Q909.4 350.4 911.6 349.5Q913.9 348.7 916.6 348.7L916.6 348.7Q919.4 348.7 921.6 349.5Q923.8 350.4 925.4 352.1Q926.9 353.7 927.8 356.0Q928.6 358.4 928.6 361.2L928.6 361.2L928.6 363.3L911.7 363.3L911.7 363.8Q911.7 366.2 913.1 367.6Q914.6 369.1 917.5 369.1L917.5 369.1Q919.7 369.1 921.3 368.3Q922.9 367.4 924.0 366.0L924.0 366.0L927.9 370.2Q926.4 372.0 923.8 373.3Q921.3 374.6 917.3 374.6ZM916.7 353.7L916.7 353.7Q914.4 353.7 913.0 355.2Q911.7 356.6 911.7 359.0L911.7 359.0L911.7 359.4L921.6 359.4L921.6 359.0Q921.6 356.5 920.3 355.1Q919.0 353.7 916.7 353.7ZM945.1 374.6L945.1 374.6Q941.0 374.6 937.9 373.3Q934.9 372.1 933.4 369.9L933.4 369.9L937.3 366.2Q938.8 367.8 940.7 368.7Q942.7 369.6 945.2 369.6L945.2 369.6Q947.3 369.6 948.5 368.9Q949.7 368.3 949.7 366.9L949.7 366.9Q949.7 365.9 948.9 365.5Q948.0 365.1 946.6 364.8L946.6 364.8L942.6 364.2Q940.9 364.0 939.5 363.5Q938.1 363.0 937.0 362.1Q935.9 361.2 935.3 360.0Q934.7 358.7 934.7 357.0L934.7 357.0Q934.7 353.1 937.7 350.9Q940.6 348.7 946.0 348.7L946.0 348.7Q949.7 348.7 952.2 349.6Q954.8 350.6 956.3 352.4L956.3 352.4L952.8 356.5Q951.7 355.3 950.0 354.5Q948.2 353.6 945.8 353.6L945.8 353.6Q941.7 353.6 941.7 356.1L941.7 356.1Q941.7 357.2 942.5 357.7Q943.3 358.1 944.7 358.3L944.7 358.3L948.7 358.9Q950.3 359.2 951.8 359.7Q953.2 360.2 954.3 361.0Q955.4 361.9 956.0 363.2Q956.6 364.4 956.6 366.2L956.6 366.2Q956.6 370.1 953.6 372.3Q950.6 374.6 945.1 374.6ZM973.9 374.6L973.9 374.6Q969.8 374.6 966.7 373.3Q963.7 372.1 962.2 369.9L962.2 369.9L966.1 366.2Q967.6 367.8 969.5 368.7Q971.5 369.6 974.0 369.6L974.0 369.6Q976.1 369.6 977.3 368.9Q978.5 368.3 978.5 366.9L978.5 366.9Q978.5 365.9 977.7 365.5Q976.8 365.1 975.4 364.8L975.4 364.8L971.4 364.2Q969.7 364.0 968.3 363.5Q966.9 363.0 965.8 362.1Q964.7 361.2 964.1 360.0Q963.5 358.7 963.5 357.0L963.5 357.0Q963.5 353.1 966.5 350.9Q969.4 348.7 974.8 348.7L974.8 348.7Q978.5 348.7 981.0 349.6Q983.6 350.6 985.1 352.4L985.1 352.4L981.6 356.5Q980.5 355.3 978.8 354.5Q977.0 353.6 974.6 353.6L974.6 353.6Q970.5 353.6 970.5 356.1L970.5 356.1Q970.5 357.2 971.3 357.7Q972.1 358.1 973.5 358.3L973.5 358.3L977.5 358.9Q979.1 359.2 980.6 359.7Q982.0 360.2 983.1 361.0Q984.2 361.9 984.8 363.2Q985.4 364.4 985.4 366.2L985.4 366.2Q985.4 370.1 982.4 372.3Q979.4 374.6 973.9 374.6ZM1004.5 346.1L1004.5 346.1Q1002.1 346.1 1001.2 345.1Q1000.3 344.1 1000.3 342.7L1000.3 342.7L1000.3 341.3Q1000.3 339.9 1001.2 338.9Q1002.1 338.0 1004.5 338.0L1004.5 338.0Q1006.9 338.0 1007.9 338.9Q1008.8 339.9 1008.8 341.3L1008.8 341.3L1008.8 342.7Q1008.8 344.1 1007.9 345.1Q1006.9 346.1 1004.5 346.1ZM993.1 374L993.1 368.5L1001.0 368.5L1001.0 354.8L993.1 354.8L993.1 349.2L1008.1 349.2L1008.1 368.5L1015.4 368.5L1015.4 374L993.1 374ZM1031.8 374.6L1031.8 374.6Q1028.9 374.6 1026.6 373.7Q1024.3 372.8 1022.7 371.1Q1021.1 369.4 1020.2 367.0Q1019.4 364.6 1019.4 361.6L1019.4 361.6Q1019.4 358.6 1020.2 356.2Q1021.1 353.8 1022.7 352.1Q1024.3 350.4 1026.6 349.5Q1028.9 348.7 1031.8 348.7L1031.8 348.7Q1034.7 348.7 1037.0 349.5Q1039.3 350.4 1040.9 352.1Q1042.5 353.8 1043.4 356.2Q1044.2 358.6 1044.2 361.6L1044.2 361.6Q1044.2 364.6 1043.4 367.0Q1042.5 369.4 1040.9 371.1Q1039.3 372.8 1037.0 373.7Q1034.7 374.6 1031.8 374.6ZM1031.8 369.3L1031.8 369.3Q1034.2 369.3 1035.5 367.8Q1036.9 366.3 1036.9 363.6L1036.9 363.6L1036.9 359.6Q1036.9 356.9 1035.5 355.4Q1034.2 353.9 1031.8 353.9L1031.8 353.9Q1029.4 353.9 1028.1 355.4Q1026.7 356.9 1026.7 359.6L1026.7 359.6L1026.7 363.6Q1026.7 366.3 1028.1 367.8Q1029.4 369.3 1031.8 369.3ZM1056.4 374L1049.3 374L1049.3 349.2L1056.4 349.2L1056.4 353.7L1056.7 353.7Q1057.1 352.7 1057.8 351.8Q1058.4 350.9 1059.3 350.2Q1060.2 349.5 1061.3 349.1Q1062.5 348.7 1064.0 348.7L1064.0 348.7Q1065.8 348.7 1067.3 349.3Q1068.8 349.9 1069.8 351.1Q1070.9 352.3 1071.5 354.0Q1072.1 355.7 1072.1 358.0L1072.1 358.0L1072.1 374L1065.0 374L1065.0 358.9Q1065.0 354.1 1060.8 354.1L1060.8 354.1Q1060.0 354.1 1059.2 354.3Q1058.4 354.6 1057.8 355.0Q1057.1 355.5 1056.8 356.1Q1056.4 356.8 1056.4 357.7L1056.4 357.7L1056.4 374Z M505.7 436L505.7 421.1L506.1 411.7L505.6 411.7L499.4 428.9L493.2 411.7L492.7 411.7L493.1 421.1L493.1 436L486.9 436L486.9 402.5L495.4 402.5L499.5 413.8L499.9 413.8L504.0 402.5L511.9 402.5L511.9 436L505.7 436ZM541.3 436L537.2 436Q535.0 436 533.6 434.9Q532.3 433.7 532.0 431.6L532.0 431.6L531.8 431.6Q531.1 434.1 529.1 435.3Q527.1 436.6 524.3 436.6L524.3 436.6Q520.7 436.6 518.5 434.6Q516.3 432.7 516.3 429.2L516.3 429.2Q516.3 425.3 519.1 423.4Q522.0 421.6 527.4 421.6L527.4 421.6L531.4 421.6L531.4 420.3Q531.4 418.1 530.4 417.0Q529.4 415.8 526.9 415.8L526.9 415.8Q524.6 415.8 523.3 416.7Q521.9 417.6 520.9 419.0L520.9 419.0L517.0 415.5Q518.2 413.4 520.9 412.0Q523.5 410.7 527.7 410.7L527.7 410.7Q532.8 410.7 535.7 413.0Q538.5 415.3 538.5 420.0L538.5 420.0L538.5 430.9L541.3 430.9L541.3 436ZM527.0 431.9L527.0 431.9Q528.8 431.9 530.1 431.0Q531.4 430.1 531.4 428.4L531.4 428.4L531.4 425.4L527.6 425.4Q523.3 425.4 523.3 428.3L523.3 428.3L523.3 429.3Q523.3 430.6 524.3 431.2Q525.3 431.9 527.0 431.9ZM568.1 436L558.9 436Q555.1 436 553.2 434.0Q551.3 432.0 551.3 428.8L551.3 428.8L551.3 416.8L544.6 416.8L544.6 411.2L549.0 411.2Q550.6 411.2 551.2 410.6Q551.9 410.0 551.9 408.3L551.9 408.3L551.9 402.5L558.4 402.5L558.4 411.2L568.1 411.2L568.1 416.8L558.4 416.8L558.4 430.5L568.1 430.5L568.1 436ZM586.8 436.6L586.8 436.6Q583.9 436.6 581.6 435.7Q579.2 434.8 577.6 433.1Q576.0 431.4 575.1 429.0Q574.3 426.6 574.3 423.6L574.3 423.6Q574.3 420.6 575.1 418.2Q576.0 415.8 577.6 414.1Q579.2 412.4 581.6 411.5Q583.9 410.7 586.8 410.7L586.8 410.7Q590.8 410.7 593.3 412.3Q595.8 414.0 597.1 416.7L597.1 416.7L591.6 419.7Q590.9 418.2 589.9 417.3Q588.8 416.3 586.8 416.3L586.8 416.3Q584.3 416.3 583.0 417.7Q581.7 419.2 581.7 421.6L581.7 421.6L581.7 425.6Q581.7 428.1 583.0 429.5Q584.3 430.9 586.9 430.9L586.9 430.9Q588.9 430.9 590.1 430.0Q591.3 429.0 592.1 427.5L592.1 427.5L597.5 430.5Q596.1 433.3 593.6 434.9Q591.0 436.6 586.8 436.6ZM603.3 436L603.3 400.5L610.4 400.5L610.4 415.7L610.7 415.7Q611.1 414.7 611.8 413.8Q612.4 412.9 613.3 412.2Q614.2 411.5 615.3 411.1Q616.5 410.7 618.0 410.7L618.0 410.7Q619.8 410.7 621.3 411.3Q622.8 411.9 623.8 413.1Q624.9 414.3 625.5 416.0Q626.1 417.7 626.1 420.0L626.1 420.0L626.1 436L619.0 436L619.0 420.9Q619.0 416.1 614.8 416.1L614.8 416.1Q614.0 416.1 613.2 416.3Q612.4 416.6 611.8 417.0Q611.1 417.5 610.8 418.1Q610.4 418.8 610.4 419.7L610.4 419.7L610.4 436L603.3 436ZM644.9 408.1L644.9 408.1Q642.5 408.1 641.6 407.1Q640.7 406.1 640.7 404.7L640.7 404.7L640.7 403.3Q640.7 401.9 641.6 400.9Q642.5 400.0 644.9 400.0L644.9 400.0Q647.3 400.0 648.3 400.9Q649.2 401.9 649.2 403.3L649.2 403.3L649.2 404.7Q649.2 406.1 648.3 407.1Q647.3 408.1 644.9 408.1ZM633.5 436L633.5 430.5L641.4 430.5L641.4 416.8L633.5 416.8L633.5 411.2L648.5 411.2L648.5 430.5L655.8 430.5L655.8 436L633.5 436ZM668.0 436L660.9 436L660.9 411.2L668.0 411.2L668.0 415.7L668.3 415.7Q668.7 414.7 669.4 413.8Q670.0 412.9 670.9 412.2Q671.8 411.5 672.9 411.1Q674.1 410.7 675.6 410.7L675.6 410.7Q677.4 410.7 678.9 411.3Q680.4 411.9 681.4 413.1Q682.5 414.3 683.1 416.0Q683.7 417.7 683.7 420.0L683.7 420.0L683.7 436L676.6 436L676.6 420.9Q676.6 416.1 672.4 416.1L672.4 416.1Q671.6 416.1 670.8 416.3Q670.0 416.6 669.4 417.0Q668.7 417.5 668.4 418.1Q668.0 418.8 668.0 419.7L668.0 419.7L668.0 436ZM714.6 438.5L714.6 438.5Q714.6 442.4 711.3 444.3Q708.0 446.2 700.9 446.2L700.9 446.2Q697.3 446.2 695.0 445.8Q692.7 445.4 691.3 444.6Q690.0 443.8 689.4 442.8Q688.9 441.7 688.9 440.5L688.9 440.5Q688.9 438.4 690.1 437.3Q691.4 436.2 693.6 435.6L693.6 435.6L693.6 435.3Q692.0 434.8 691.1 434.0Q690.2 433.1 690.2 431.4L690.2 431.4Q690.2 429.6 691.4 428.8Q692.6 427.9 694.6 427.4L694.6 427.4L694.6 427.1Q692.4 426.1 691.2 424.1Q690.0 422.2 690.0 419.5L690.0 419.5Q690.0 417.3 690.7 415.7Q691.5 414.0 692.9 412.9Q694.3 411.8 696.3 411.2Q698.3 410.7 700.7 410.7L700.7 410.7Q703.1 410.7 705.1 411.2L705.1 411.2L705.1 409.8Q705.1 408.4 706.1 407.4Q707.1 406.5 708.9 406.5L708.9 406.5L713.2 406.5L713.2 411.7L707.3 411.7L707.3 412.1Q709.3 413.2 710.4 415Q711.6 416.8 711.6 419.5L711.6 419.5Q711.6 421.6 710.8 423.3Q710.0 424.9 708.6 426.0Q707.1 427.2 705.2 427.7Q703.2 428.3 700.7 428.3L700.7 428.3Q699.6 428.3 698.6 428.2Q697.6 428.1 696.7 427.8L696.7 427.8Q696.2 428.1 695.8 428.6Q695.4 429.0 695.4 429.7L695.4 429.7Q695.4 430.2 695.7 430.6Q696.0 430.9 696.5 431.1Q697.0 431.2 697.7 431.3Q698.4 431.3 699.1 431.3L699.1 431.3L704.7 431.3Q707.4 431.3 709.3 431.9Q711.1 432.4 712.3 433.4Q713.5 434.3 714.1 435.6Q714.6 436.9 714.6 438.5ZM707.9 439.0L707.9 439.0Q707.9 438.1 707.1 437.5Q706.3 437.0 704.2 437.0L704.2 437.0L695.7 437.0Q694.7 437.8 694.7 439.0L694.7 439.0Q694.7 440.1 695.7 440.9Q696.7 441.6 699.0 441.6L699.0 441.6L703.2 441.6Q705.7 441.6 706.8 440.9Q707.9 440.3 707.9 439.0ZM700.7 423.8L700.7 423.8Q702.9 423.8 703.9 422.8Q704.8 421.7 704.8 420.1L704.8 420.1L704.8 418.9Q704.8 417.3 703.9 416.2Q702.9 415.2 700.7 415.2L700.7 415.2Q698.6 415.2 697.6 416.2Q696.7 417.3 696.7 418.9L696.7 418.9L696.7 420.1Q696.7 421.7 697.6 422.8Q698.6 423.8 700.7 423.8Z "/></g></svg>