<svg width="1200" height="630" viewBox="0 0 1200 630" xmlns="http://www.w3.org/2000/svg"><defs><pattern id="satori_pattern_id_1" x="0" y="0" width="0.08333333333333333" height="0.15873015873015872" patternUnits="objectBoundingBox"><radialGradient id="satori_radial_id_1" spreadMethod="pad"><stop offset="0" stop-color="lightgray"/><stop offset="0.03" stop-color="lightgray"/><stop offset="0" stop-color="transparent"/><stop offset="1" stop-color="transparent"/></radialGradient><mask id="satori_mask_id_1"><rect x="0" y="0" width="100" height="100" fill="#fff"/></mask><rect x="0" y="0" width="100" height="100" fill="transparent"/><circle cx="75" cy="75" width="100" height="100" r="106.06601717798213" fill="url(#satori_radial_id_1)" mask="url(#satori_mask_id_1)"/></pattern><pattern id="satori_pattern_id_0" x="0" y="0" width="0.08333333333333333" height="0.15873015873015872" patternUnits="objectBoundingBox"><radialGradient id="satori_radial_id_0" spreadMethod="pad"><stop offset="0" stop-color="lightgray"/><stop offset="0.03" stop-color="lightgray"/><stop offset="0" stop-color="transparent"/><stop offset="1" stop-color="transparent"/></radialGradient><mask id="satori_mask_id_0"><rect x="0" y="0" width="100" height="100" fill="#fff"/></mask><rect x="0" y="0" width="100" height="100" fill="transparent"/><circle cx="25" cy="25" width="100" height="100" r="106.06601717798213" fill="url(#satori_radial_id_0)" mask="url(#satori_mask_id_0)"/></pattern></defs><mask id="satori_om-id"><rect x="0" y="0" width="1200" height="630" fill="#fff"/></mask><rect x="0" y="0" width="1200" height="630" fill="white"/><rect x="0" y="0" width="1200" height="630" fill="url(#satori_pattern_id_1)"/><rect x="0" y="0" width="1200" height="630" fill="url(#satori_pattern_id_0)"/><mask id="satori_om-id-0"><rect x="211" y="213" width="778" height="205" fill="#fff"/></mask><mask id="satori_om-id-0-0"><rect x="476" y="213" width="248" height="47" fill="#fff"/></mask><mask id="satori_om-id-0-0-0"><rect x="476" y="229" width="16" height="16" fill="#fff"/></mask><rect x="476" y="229" width="16" height="16" fill="black"/><mask id="satori_om-id-0-0-1"><rect x="508" y="213" width="216" height="47" fill="#fff"/></mask><g  ><path fill="black" d="M511.7 257.2L511.7 254.8L520.7 254.8L520.7 233.9L511.3 233.9L511.3 231.4L523.6 231.4L523.6 253.0Q523.6 254.8 522.6 256.0Q521.6 257.2 519.4 257.2L519.4 257.2L511.7 257.2ZM522.1 227.3L522.1 227.3Q520.9 227.3 520.3 226.8Q519.8 226.3 519.8 225.5L519.8 225.5L519.8 224.9Q519.8 224.1 520.3 223.6Q520.9 223.1 522.1 223.1L522.1 223.1Q523.4 223.1 523.9 223.6Q524.4 224.1 524.4 224.9L524.4 224.9L524.4 225.5Q524.4 226.3 523.9 226.8Q523.4 227.3 522.1 227.3ZM549.4 250L547.4 250Q545.7 250 545.0 249.1Q544.3 248.3 544.1 247.0L544.1 247.0L543.9 247.0Q543.3 248.6 542.0 249.5Q540.6 250.4 538.3 250.4L538.3 250.4Q535.4 250.4 533.7 248.9Q532.0 247.4 532.0 244.8L532.0 244.8Q532.0 242.2 533.9 240.8Q535.8 239.4 540.0 239.4L540.0 239.4L543.9 239.4L543.9 237.5Q543.9 235.5 542.8 234.5Q541.6 233.4 539.5 233.4L539.5 233.4Q537.6 233.4 536.4 234.2Q535.3 234.9 534.5 236.2L534.5 236.2L532.6 234.7Q532.9 234.0 533.6 233.3Q534.2 232.6 535.1 232.1Q536.0 231.6 537.1 231.3Q538.3 231.0 539.7 231.0L539.7 231.0Q543.0 231.0 544.9 232.6Q546.8 234.3 546.8 237.3L546.8 237.3L546.8 247.5L549.4 247.5L549.4 250ZM538.9 248.0L538.9 248.0Q540.0 248.0 540.9 247.8Q541.8 247.5 542.5 247.0Q543.2 246.6 543.6 245.9Q543.9 245.3 543.9 244.6L543.9 244.6L543.9 241.5L540.0 241.5Q537.4 241.5 536.2 242.3Q535 243.0 535 244.3L535 244.3L535 245.1Q535 246.5 536.0 247.3Q537.1 248.0 538.9 248.0ZM562.3 250.4L562.3 250.4Q560.3 250.4 558.7 249.7Q557.1 249.1 556.0 247.8Q554.8 246.5 554.2 244.7Q553.6 242.9 553.6 240.7L553.6 240.7Q553.6 238.5 554.2 236.7Q554.9 234.9 556.0 233.6Q557.1 232.4 558.7 231.7Q560.2 231.0 562.1 231.0L562.1 231.0Q564.0 231.0 565.5 231.7Q567.1 232.4 568.2 233.6Q569.2 234.8 569.8 236.4Q570.4 238.1 570.4 240.1L570.4 240.1L570.4 241.4L556.6 241.4L556.6 242.3Q556.6 243.5 557.0 244.6Q557.4 245.6 558.2 246.4Q558.9 247.1 560.0 247.5Q561.0 247.9 562.3 247.9L562.3 247.9Q564.2 247.9 565.6 247.1Q566.9 246.2 567.7 244.7L567.7 244.7L569.8 246.1Q568.9 248.0 567.0 249.2Q565.1 250.4 562.3 250.4ZM562.1 233.4L562.1 233.4Q561.0 233.4 559.9 233.8Q558.9 234.2 558.2 235.0Q557.5 235.7 557.1 236.8Q556.6 237.8 556.6 239.0L556.6 239.0L556.6 239.3L567.3 239.3L567.3 238.9Q567.3 237.7 566.9 236.6Q566.5 235.6 565.9 234.9Q565.2 234.2 564.3 233.8Q563.3 233.4 562.1 233.4ZM576.3 250L576.3 223.4L579.2 223.4L579.2 234.4L579.4 234.4Q579.6 233.8 580.1 233.1Q580.5 232.5 581.1 232.0Q581.8 231.6 582.6 231.3Q583.5 231.0 584.6 231.0L584.6 231.0Q587.6 231.0 589.3 232.8Q591.1 234.7 591.1 238.1L591.1 238.1L591.1 250L588.2 250L588.2 238.6Q588.2 236.0 587.1 234.8Q586.0 233.5 583.8 233.5L583.8 233.5Q583.0 233.5 582.1 233.8Q581.3 234.0 580.6 234.4Q580.0 234.8 579.6 235.5Q579.2 236.2 579.2 237.1L579.2 237.1L579.2 250L576.3 250ZM605.5 250.4L605.5 250.4Q603.5 250.4 601.9 249.7Q600.3 249.1 599.2 247.8Q598.0 246.5 597.4 244.7Q596.8 242.9 596.8 240.7L596.8 240.7Q596.8 238.5 597.4 236.7Q598.1 234.9 599.2 233.6Q600.3 232.4 601.9 231.7Q603.4 231.0 605.3 231.0L605.3 231.0Q607.2 231.0 608.7 231.7Q610.3 232.4 611.4 233.6Q612.4 234.8 613.0 236.4Q613.6 238.1 613.6 240.1L613.6 240.1L613.6 241.4L599.8 241.4L599.8 242.3Q599.8 243.5 600.2 244.6Q600.6 245.6 601.4 246.4Q602.1 247.1 603.2 247.5Q604.2 247.9 605.5 247.9L605.5 247.9Q607.4 247.9 608.8 247.1Q610.1 246.2 610.9 244.7L610.9 244.7L613.0 246.1Q612.1 248.0 610.2 249.2Q608.3 250.4 605.5 250.4ZM605.3 233.4L605.3 233.4Q604.2 233.4 603.1 233.8Q602.1 234.2 601.4 235.0Q600.7 235.7 600.3 236.8Q599.8 237.8 599.8 239.0L599.8 239.0L599.8 239.3L610.5 239.3L610.5 238.9Q610.5 237.7 610.1 236.6Q609.7 235.6 609.1 234.9Q608.4 234.2 607.5 233.8Q606.5 233.4 605.3 233.4ZM627.1 250.4L627.1 250.4Q625.1 250.4 623.5 249.7Q621.9 249.1 620.8 247.8Q619.6 246.5 619.0 244.7Q618.4 242.9 618.4 240.7L618.4 240.7Q618.4 238.5 619.0 236.7Q619.7 234.9 620.8 233.6Q621.9 232.4 623.5 231.7Q625.0 231.0 626.9 231.0L626.9 231.0Q628.8 231.0 630.3 231.7Q631.9 232.4 633.0 233.6Q634.0 234.8 634.6 236.4Q635.2 238.1 635.2 240.1L635.2 240.1L635.2 241.4L621.4 241.4L621.4 242.3Q621.4 243.5 621.8 244.6Q622.2 245.6 623.0 246.4Q623.7 247.1 624.8 247.5Q625.8 247.9 627.1 247.9L627.1 247.9Q629.0 247.9 630.4 247.1Q631.7 246.2 632.5 244.7L632.5 244.7L634.6 246.1Q633.7 248.0 631.8 249.2Q629.9 250.4 627.1 250.4ZM626.9 233.4L626.9 233.4Q625.8 233.4 624.7 233.8Q623.7 234.2 623.0 235.0Q622.3 235.7 621.9 236.8Q621.4 237.8 621.4 239.0L621.4 239.0L621.4 239.3L632.1 239.3L632.1 238.9Q632.1 237.7 631.7 236.6Q631.3 235.6 630.7 234.9Q630.0 234.2 629.1 233.8Q628.1 233.4 626.9 233.4ZM648.4 250.3L648.4 250.3Q646.9 250.3 646.3 249.7Q645.7 249.1 645.7 248.2L645.7 248.2L645.7 247.5Q645.7 246.6 646.3 246.0Q646.9 245.4 648.4 245.4L648.4 245.4Q649.9 245.4 650.5 246.0Q651.1 246.6 651.1 247.5L651.1 247.5L651.1 248.2Q651.1 249.1 650.5 249.7Q649.9 250.3 648.4 250.3ZM674.5 250L674.5 247.0L674.4 247.0Q672.6 250.4 668.6 250.4L668.6 250.4Q665.2 250.4 663.3 247.9Q661.4 245.3 661.4 240.7L661.4 240.7Q661.4 236.1 663.3 233.5Q665.2 231.0 668.6 231.0L668.6 231.0Q672.6 231.0 674.4 234.4L674.4 234.4L674.5 234.4L674.5 223.4L677.4 223.4L677.4 250L674.5 250ZM669.7 247.9L669.7 247.9Q670.7 247.9 671.6 247.6Q672.4 247.4 673.1 246.9Q673.7 246.4 674.1 245.7Q674.5 245.0 674.5 244.1L674.5 244.1L674.5 237.4Q674.5 236.4 674.1 235.7Q673.7 235.0 673.1 234.5Q672.4 234.1 671.6 233.8Q670.7 233.5 669.7 233.5L669.7 233.5Q667.2 233.5 665.8 235.1Q664.5 236.6 664.5 239.1L664.5 239.1L664.5 242.3Q664.5 244.8 665.8 246.3Q667.2 247.9 669.7 247.9ZM691.9 250.4L691.9 250.4Q689.9 250.4 688.3 249.7Q686.7 249.1 685.6 247.8Q684.4 246.5 683.8 244.7Q683.2 242.9 683.2 240.7L683.2 240.7Q683.2 238.5 683.8 236.7Q684.5 234.9 685.6 233.6Q686.7 232.4 688.3 231.7Q689.8 231.0 691.7 231.0L691.7 231.0Q693.6 231.0 695.1 231.7Q696.7 232.4 697.8 233.6Q698.8 234.8 699.4 236.4Q700.0 238.1 700.0 240.1L700.0 240.1L700.0 241.4L686.2 241.4L686.2 242.3Q686.2 243.5 686.6 244.6Q687.0 245.6 687.8 246.4Q688.5 247.1 689.6 247.5Q690.6 247.9 691.9 247.9L691.9 247.9Q693.8 247.9 695.2 247.1Q696.5 246.2 697.3 244.7L697.3 244.7L699.4 246.1Q698.5 248.0 696.6 249.2Q694.7 250.4 691.9 250.4ZM691.7 233.4L691.7 233.4Q690.6 233.4 689.5 233.8Q688.5 234.2 687.8 235.0Q687.1 235.7 686.7 236.8Q686.2 237.8 686.2 239.0L686.2 239.0L686.2 239.3L696.9 239.3L696.9 238.9Q696.9 237.7 696.5 236.6Q696.1 235.6 695.5 234.9Q694.8 234.2 693.9 233.8Q692.9 233.4 691.7 233.4ZM715.0 250L711.4 250L704.7 231.4L707.6 231.4L710.3 239.2L713.2 247.6L713.3 247.6L716.2 239.2L718.9 231.4L721.7 231.4L715.0 250Z "/></g><mask id="satori_om-id-0-1"><rect x="211" y="356" width="778" height="62" fill="#fff"/></mask><g  ><path fill="black" d="M237.1 405L215.4 405L215.4 371.5L222.7 371.5L222.7 399.1L237.1 399.1L237.1 405ZM254.9 405.6L254.9 405.6Q248.6 405.6 245.4 402.1Q242.2 398.7 242.2 392.7L242.2 392.7Q242.2 389.7 243.0 387.3Q243.9 384.8 245.4 383.1Q247 381.4 249.2 380.5Q251.5 379.7 254.2 379.7L254.2 379.7Q257.0 379.7 259.2 380.5Q261.4 381.4 263.0 383.1Q264.5 384.7 265.4 387.0Q266.2 389.4 266.2 392.2L266.2 392.2L266.2 394.3L249.3 394.3L249.3 394.8Q249.3 397.2 250.7 398.6Q252.2 400.1 255.1 400.1L255.1 400.1Q257.3 400.1 258.9 399.3Q260.5 398.4 261.6 397.0L261.6 397.0L265.5 401.2Q264.0 403.0 261.4 404.3Q258.9 405.6 254.9 405.6ZM254.3 384.7L254.3 384.7Q252.0 384.7 250.6 386.2Q249.3 387.6 249.3 390.0L249.3 390.0L249.3 390.4L259.2 390.4L259.2 390.0Q259.2 387.5 257.9 386.1Q256.6 384.7 254.3 384.7ZM283.7 405.6L283.7 405.6Q277.4 405.6 274.2 402.1Q271 398.7 271 392.7L271 392.7Q271 389.7 271.8 387.3Q272.7 384.8 274.2 383.1Q275.8 381.4 278.0 380.5Q280.3 379.7 283.0 379.7L283.0 379.7Q285.8 379.7 288.0 380.5Q290.2 381.4 291.8 383.1Q293.3 384.7 294.2 387.0Q295 389.4 295 392.2L295 392.2L295 394.3L278.1 394.3L278.1 394.8Q278.1 397.2 279.5 398.6Q281.0 400.1 283.9 400.1L283.9 400.1Q286.1 400.1 287.7 399.3Q289.3 398.4 290.4 397.0L290.4 397.0L294.3 401.2Q292.8 403.0 290.2 404.3Q287.7 405.6 283.7 405.6ZM283.1 384.7L283.1 384.7Q280.8 384.7 279.4 386.2Q278.1 387.6 278.1 390.0L278.1 390.0L278.1 390.4L288.0 390.4L288.0 390.0Q288.0 387.5 286.7 386.1Q285.4 384.7 283.1 384.7ZM322.9 405L313.7 405Q309.9 405 308.0 403.0Q306.1 401.0 306.1 397.8L306.1 397.8L306.1 385.8L299.4 385.8L299.4 380.2L303.8 380.2Q305.4 380.2 306.0 379.6Q306.7 379.0 306.7 377.3L306.7 377.3L306.7 371.5L313.2 371.5L313.2 380.2L322.9 380.2L322.9 385.8L313.2 385.8L313.2 399.5L322.9 399.5L322.9 405ZM341.4 405.6L341.4 405.6Q334.6 405.6 331.4 401.0Q328.2 396.5 328.2 388.2L328.2 388.2Q328.2 380.0 331.4 375.5Q334.6 370.9 341.4 370.9L341.4 370.9Q344.0 370.9 346.0 371.6Q347.9 372.3 349.4 373.6Q350.8 374.8 351.8 376.6Q352.7 378.4 353.2 380.6L353.2 380.6L346.5 382.2Q346.2 381 345.8 380.0Q345.4 379.0 344.8 378.3Q344.2 377.5 343.4 377.1Q342.5 376.7 341.2 376.7L341.2 376.7Q338.3 376.7 337.1 379.0Q335.8 381.3 335.8 385.3L335.8 385.3L335.8 391.2Q335.8 395.2 337.1 397.5Q338.3 399.8 341.2 399.8L341.2 399.8Q343.7 399.8 344.8 398.2Q346.0 396.7 346.5 394.3L346.5 394.3L353.2 395.9Q352.7 398.1 351.8 399.9Q350.8 401.7 349.4 403.0Q347.9 404.2 346.0 404.9Q344.0 405.6 341.4 405.6ZM369.4 405.6L369.4 405.6Q366.5 405.6 364.2 404.7Q361.9 403.8 360.3 402.1Q358.7 400.4 357.8 398.0Q357.0 395.6 357.0 392.6L357.0 392.6Q357.0 389.6 357.8 387.2Q358.7 384.8 360.3 383.1Q361.9 381.4 364.2 380.5Q366.5 379.7 369.4 379.7L369.4 379.7Q372.3 379.7 374.6 380.5Q376.9 381.4 378.5 383.1Q380.1 384.8 381.0 387.2Q381.8 389.6 381.8 392.6L381.8 392.6Q381.8 395.6 381.0 398.0Q380.1 400.4 378.5 402.1Q376.9 403.8 374.6 404.7Q372.3 405.6 369.4 405.6ZM369.4 400.3L369.4 400.3Q371.8 400.3 373.1 398.8Q374.5 397.3 374.5 394.6L374.5 394.6L374.5 390.6Q374.5 387.9 373.1 386.4Q371.8 384.9 369.4 384.9L369.4 384.9Q367.0 384.9 365.7 386.4Q364.3 387.9 364.3 390.6L364.3 390.6L364.3 394.6Q364.3 397.3 365.7 398.8Q367.0 400.3 369.4 400.3ZM402.7 405L402.7 400.5L402.3 400.5Q401.4 402.7 399.7 404.2Q398.0 405.6 395.0 405.6L395.0 405.6Q392.9 405.6 391.2 404.8Q389.5 404.0 388.3 402.5Q387.1 400.9 386.4 398.4Q385.7 396.0 385.7 392.6L385.7 392.6Q385.7 389.3 386.4 386.8Q387.1 384.4 388.3 382.8Q389.5 381.2 391.2 380.4Q392.9 379.7 395.0 379.7L395.0 379.7Q396.5 379.7 397.6 380.0Q398.8 380.4 399.7 381.1Q400.6 381.8 401.2 382.7Q401.8 383.6 402.3 384.7L402.3 384.7L402.7 384.7L402.7 369.5L409.8 369.5L409.8 405L402.7 405ZM398.1 400.1L398.1 400.1Q399.9 400.1 401.3 399.1Q402.7 398.2 402.7 396.3L402.7 396.3L402.7 389.0Q402.7 387 401.3 386.1Q399.9 385.2 398.1 385.2L398.1 385.2Q395.7 385.2 394.4 386.6Q393.1 388.1 393.1 390.7L393.1 390.7L393.1 394.5Q393.1 397.1 394.4 398.6Q395.7 400.1 398.1 400.1ZM427.7 405.6L427.7 405.6Q421.4 405.6 418.2 402.1Q415.0 398.7 415.0 392.7L415.0 392.7Q415.0 389.7 415.8 387.3Q416.7 384.8 418.2 383.1Q419.8 381.4 422.0 380.5Q424.3 379.7 427.0 379.7L427.0 379.7Q429.8 379.7 432.0 380.5Q434.2 381.4 435.8 383.1Q437.3 384.7 438.2 387.0Q439.0 389.4 439.0 392.2L439.0 392.2L439.0 394.3L422.1 394.3L422.1 394.8Q422.1 397.2 423.5 398.6Q425.0 400.1 427.9 400.1L427.9 400.1Q430.1 400.1 431.7 399.3Q433.3 398.4 434.4 397.0L434.4 397.0L438.3 401.2Q436.8 403.0 434.2 404.3Q431.7 405.6 427.7 405.6ZM427.1 384.7L427.1 384.7Q424.8 384.7 423.4 386.2Q422.1 387.6 422.1 390.0L422.1 390.0L422.1 390.4L432.0 390.4L432.0 390.0Q432.0 387.5 430.7 386.1Q429.4 384.7 427.1 384.7Z M492.3 393.8L476.9 393.8L476.9 387.0L492.3 387.0L492.3 393.8Z M555.6 405L532.3 405L532.3 399.2L541.3 399.2L541.3 376.7L540.9 376.7L534.1 385.7L529.5 382.1L537.5 371.5L548.5 371.5L548.5 399.2L555.6 399.2L555.6 405ZM571.2 405.6L571.2 405.6Q568.2 405.6 565.8 404.6Q563.4 403.7 561.8 402.0Q560.2 400.2 559.3 397.8Q558.4 395.3 558.4 392.3L558.4 392.3Q558.4 388.8 559.5 385.6Q560.6 382.5 562.4 379.8Q564.1 377.2 566.3 375.0Q568.5 372.9 570.7 371.5L570.7 371.5L580.6 371.5Q577.5 373.7 575.0 375.6Q572.5 377.6 570.7 379.6Q568.8 381.6 567.7 383.7Q566.5 385.8 566.0 388.3L566.0 388.3L566.4 388.4Q566.8 387.5 567.4 386.6Q568.1 385.7 569.0 385.0Q569.9 384.3 571.1 383.8Q572.3 383.4 574.0 383.4L574.0 383.4Q576.1 383.4 577.9 384.1Q579.7 384.9 581.1 386.3Q582.4 387.6 583.1 389.5Q583.9 391.5 583.9 393.9L583.9 393.9Q583.9 396.4 583 398.6Q582.1 400.7 580.4 402.3Q578.8 403.8 576.4 404.7Q574.1 405.6 571.2 405.6ZM571.1 400.0L571.1 400.0Q573.7 400.0 575.1 398.6Q576.4 397.2 576.4 394.7L576.4 394.7L576.4 394.1Q576.4 391.6 575.1 390.2Q573.7 388.9 571.1 388.9L571.1 388.9Q568.7 388.9 567.3 390.2Q565.9 391.6 565.9 394.1L565.9 394.1L565.9 394.7Q565.9 397.2 567.2 398.6Q568.6 400.0 571.1 400.0ZM599.8 405.6L599.8 405.6Q597.1 405.6 595.9 404.4Q594.8 403.2 594.8 401.6L594.8 401.6L594.8 399.9Q594.8 398.3 595.9 397.1Q597.1 395.9 599.8 395.9L599.8 395.9Q602.5 395.9 603.7 397.1Q604.8 398.3 604.8 399.9L604.8 399.9L604.8 401.6Q604.8 403.2 603.7 404.4Q602.5 405.6 599.8 405.6Z M652.9 384.7L656.1 384.7Q658.9 384.7 660.2 383.7Q661.4 382.6 661.4 381.1L661.4 381.1L661.4 380.8Q661.4 378.9 660.2 377.9Q659.0 376.8 656.7 376.8L656.7 376.8Q654.7 376.8 652.9 377.8Q651.1 378.8 649.8 380.8L649.8 380.8L645.3 376.5Q646.2 375.3 647.4 374.3Q648.5 373.2 649.9 372.5Q651.3 371.7 653.1 371.3Q654.8 370.9 657.0 370.9L657.0 370.9Q659.8 370.9 662.0 371.5Q664.2 372.2 665.7 373.3Q667.3 374.5 668.2 376.2Q669.0 377.8 669.0 379.8L669.0 379.8Q669.0 381.4 668.5 382.7Q668.0 384.0 667.1 384.9Q666.2 385.9 665.0 386.5Q663.8 387.1 662.5 387.3L662.5 387.3L662.5 387.6Q665.6 388.2 667.6 390.2Q669.6 392.2 669.6 395.7L669.6 395.7Q669.6 397.9 668.7 399.8Q667.8 401.6 666.1 402.9Q664.4 404.2 661.9 404.9Q659.5 405.6 656.5 405.6L656.5 405.6Q654.0 405.6 652.0 405.0Q650.1 404.5 648.6 403.6Q647.1 402.7 646.0 401.6Q645.0 400.4 644.2 399.1L644.2 399.1L649.5 395.0Q650.6 397.1 652.2 398.4Q653.9 399.7 656.7 399.7L656.7 399.7Q659.3 399.7 660.7 398.5Q662.1 397.3 662.1 395.2L662.1 395.2L662.1 394.9Q662.1 392.8 660.5 391.8Q658.9 390.7 656.1 390.7L656.1 390.7L652.9 390.7L652.9 384.7ZM685.7 405.6L685.7 405.6Q681.4 405.6 678.3 404.2Q675.2 402.8 673.3 400.4L673.3 400.4L677.5 395.8Q679.3 397.8 681.5 398.8Q683.7 399.7 685.9 399.7L685.9 399.7Q688.5 399.7 689.8 398.6Q691.2 397.4 691.2 395.3L691.2 395.3Q691.2 393.5 690.2 392.6Q689.1 391.7 686.7 391.3L686.7 391.3L683.2 390.7Q678.7 389.9 676.6 387.4Q674.6 384.8 674.6 381.1L674.6 381.1Q674.6 376.2 677.8 373.6Q681.0 370.9 686.7 370.9L686.7 370.9Q690.6 370.9 693.4 372.1Q696.3 373.3 698.1 375.4L698.1 375.4L694.0 379.9Q692.7 378.5 690.9 377.6Q689.0 376.8 686.7 376.8L686.7 376.8Q681.9 376.8 681.9 380.8L681.9 380.8Q681.9 382.5 683.0 383.4Q684.0 384.2 686.5 384.6L686.5 384.6L690.0 385.3Q694.1 386.0 696.3 388.3Q698.5 390.7 698.5 394.7L698.5 394.7Q698.5 397.0 697.7 399.0Q696.9 401.0 695.2 402.5Q693.6 403.9 691.2 404.8Q688.8 405.6 685.7 405.6ZM719.2 405L719.2 400.5L718.9 400.5Q718.1 402.6 716.3 404.1Q714.6 405.6 711.6 405.6L711.6 405.6Q709.8 405.6 708.3 405.0Q706.8 404.4 705.8 403.2Q704.7 402.0 704.1 400.2Q703.5 398.5 703.5 396.3L703.5 396.3L703.5 380.2L710.6 380.2L710.6 395.3Q710.6 400.1 714.8 400.1L714.8 400.1Q715.6 400.1 716.4 399.9Q717.2 399.7 717.8 399.2Q718.4 398.8 718.8 398.1Q719.2 397.4 719.2 396.5L719.2 396.5L719.2 380.2L726.3 380.2L726.3 405L719.2 405ZM736.6 405L730.8 405L730.8 380.2L736.6 380.2L736.6 383.9L736.9 383.9Q737.5 382.2 738.5 380.9Q739.6 379.7 741.6 379.7L741.6 379.7Q745.2 379.7 746.0 383.9L746.0 383.9L746.3 383.9Q746.6 383.0 747.0 382.2Q747.4 381.5 748.1 380.9Q748.7 380.3 749.6 380.0Q750.4 379.7 751.6 379.7L751.6 379.7Q756.8 379.7 756.8 387.3L756.8 387.3L756.8 405L751.0 405L751.0 388.0Q751.0 386.3 750.4 385.6Q749.8 384.9 748.9 384.9L748.9 384.9Q748.0 384.9 747.3 385.5Q746.7 386.1 746.7 387.3L746.7 387.3L746.7 405L740.9 405L740.9 388.0Q740.9 386.3 740.4 385.6Q739.8 384.9 738.9 384.9L738.9 384.9Q737.9 384.9 737.2 385.5Q736.6 386.1 736.6 387.3L736.6 387.3L736.6 405Z M802.2 405.6L802.2 405.6Q795.4 405.6 792.2 401.0Q789.0 396.5 789.0 388.2L789.0 388.2Q789.0 380.0 792.2 375.5Q795.4 370.9 802.2 370.9L802.2 370.9Q804.8 370.9 806.8 371.6Q808.7 372.3 810.2 373.6Q811.6 374.8 812.6 376.6Q813.5 378.4 814.0 380.6L814.0 380.6L807.3 382.2Q807.0 381 806.6 380.0Q806.2 379.0 805.6 378.3Q805.0 377.5 804.2 377.1Q803.3 376.7 802.0 376.7L802.0 376.7Q799.1 376.7 797.9 379.0Q796.6 381.3 796.6 385.3L796.6 385.3L796.6 391.2Q796.6 395.2 797.9 397.5Q799.1 399.8 802.0 399.8L802.0 399.8Q804.5 399.8 805.6 398.2Q806.8 396.7 807.3 394.3L807.3 394.3L814.0 395.9Q813.5 398.1 812.6 399.9Q811.6 401.7 810.2 403.0Q808.7 404.2 806.8 404.9Q804.8 405.6 802.2 405.6ZM819.1 405L819.1 399.5L826.6 399.5L826.6 375L819.1 375L819.1 369.5L833.8 369.5L833.8 399.5L841.3 399.5L841.3 405L819.1 405ZM859.0 405.6L859.0 405.6Q856.1 405.6 853.8 404.7Q851.5 403.8 849.9 402.1Q848.3 400.4 847.4 398.0Q846.6 395.6 846.6 392.6L846.6 392.6Q846.6 389.6 847.4 387.2Q848.3 384.8 849.9 383.1Q851.5 381.4 853.8 380.5Q856.1 379.7 859.0 379.7L859.0 379.7Q861.9 379.7 864.2 380.5Q866.5 381.4 868.1 383.1Q869.7 384.8 870.6 387.2Q871.4 389.6 871.4 392.6L871.4 392.6Q871.4 395.6 870.6 398.0Q869.7 400.4 868.1 402.1Q866.5 403.8 864.2 404.7Q861.9 405.6 859.0 405.6ZM859.0 400.3L859.0 400.3Q861.4 400.3 862.7 398.8Q864.1 397.3 864.1 394.6L864.1 394.6L864.1 390.6Q864.1 387.9 862.7 386.4Q861.4 384.9 859.0 384.9L859.0 384.9Q856.6 384.9 855.3 386.4Q853.9 387.9 853.9 390.6L853.9 390.6L853.9 394.6Q853.9 397.3 855.3 398.8Q856.6 400.3 859.0 400.3ZM887.5 405.6L887.5 405.6Q883.4 405.6 880.3 404.3Q877.3 403.1 875.8 400.9L875.8 400.9L879.7 397.2Q881.2 398.8 883.1 399.7Q885.1 400.6 887.6 400.6L887.6 400.6Q889.7 400.6 890.9 399.9Q892.1 399.3 892.1 397.9L892.1 397.9Q892.1 396.9 891.3 396.5Q890.4 396.1 889.0 395.8L889.0 395.8L885.0 395.2Q883.3 395.0 881.9 394.5Q880.5 394.0 879.4 393.1Q878.3 392.2 877.7 391.0Q877.1 389.7 877.1 388.0L877.1 388.0Q877.1 384.1 880.1 381.9Q883.0 379.7 888.4 379.7L888.4 379.7Q892.1 379.7 894.6 380.6Q897.2 381.6 898.7 383.4L898.7 383.4L895.2 387.5Q894.1 386.3 892.4 385.5Q890.6 384.6 888.2 384.6L888.2 384.6Q884.1 384.6 884.1 387.1L884.1 387.1Q884.1 388.2 884.9 388.7Q885.7 389.1 887.1 389.3L887.1 389.3L891.1 389.9Q892.7 390.2 894.2 390.7Q895.6 391.2 896.7 392.0Q897.8 392.9 898.4 394.2Q899.0 395.4 899.0 397.2L899.0 397.2Q899.0 401.1 896.0 403.3Q893.0 405.6 887.5 405.6ZM917.3 405.6L917.3 405.6Q911.0 405.6 907.8 402.1Q904.6 398.7 904.6 392.7L904.6 392.7Q904.6 389.7 905.4 387.3Q906.3 384.8 907.8 383.1Q909.4 381.4 911.6 380.5Q913.9 379.7 916.6 379.7L916.6 379.7Q919.4 379.7 921.6 380.5Q923.8 381.4 925.4 383.1Q926.9 384.7 927.8 387.0Q928.6 389.4 928.6 392.2L928.6 392.2L928.6 394.3L911.7 394.3L911.7 394.8Q911.7 397.2 913.1 398.6Q914.6 400.1 917.5 400.1L917.5 400.1Q919.7 400.1 921.3 399.3Q922.9 398.4 924.0 397.0L924.0 397.0L927.9 401.2Q926.4 403.0 923.8 404.3Q921.3 405.6 917.3 405.6ZM916.7 384.7L916.7 384.7Q914.4 384.7 913.0 386.2Q911.7 387.6 911.7 390.0L911.7 390.0L911.7 390.4L921.6 390.4L921.6 390.0Q921.6 387.5 920.3 386.1Q919.0 384.7 916.7 384.7ZM945.1 405.6L945.1 405.6Q941.0 405.6 937.9 404.3Q934.9 403.1 933.4 400.9L933.4 400.9L937.3 397.2Q938.8 398.8 940.7 399.7Q942.7 400.6 945.2 400.6L945.2 400.6Q947.3 400.6 948.5 399.9Q949.7 399.3 949.7 397.9L949.7 397.9Q949.7 396.9 948.9 396.5Q948.0 396.1 946.6 395.8L946.6 395.8L942.6 395.2Q940.9 395.0 939.5 394.5Q938.1 394.0 937.0 393.1Q935.9 392.2 935.3 391.0Q934.7 389.7 934.7 388.0L934.7 388.0Q934.7 384.1 937.7 381.9Q940.6 379.7 946.0 379.7L946.0 379.7Q949.7 379.7 952.2 380.6Q954.8 381.6 956.3 383.4L956.3 383.4L952.8 387.5Q951.7 386.3 950.0 385.5Q948.2 384.6 945.8 384.6L945.8 384.6Q941.7 384.6 941.7 387.1L941.7 387.1Q941.7 388.2 942.5 388.7Q943.3 389.1 944.7 389.3L944.7 389.3L948.7 389.9Q950.3 390.2 951.8 390.7Q953.2 391.2 954.3 392.0Q955.4 392.9 956.0 394.2Q956.6 395.4 956.6 397.2L956.6 397.2Q956.6 401.1 953.6 403.3Q950.6 405.6 945.1 405.6ZM985.3 405L976.1 405Q972.3 405 970.4 403.0Q968.5 401.0 968.5 397.8L968.5 397.8L968.5 385.8L961.8 385.8L961.8 380.2L966.2 380.2Q967.8 380.2 968.4 379.6Q969.1 379.0 969.1 377.3L969.1 377.3L969.1 371.5L975.6 371.5L975.6 380.2L985.3 380.2L985.3 385.8L975.6 385.8L975.6 399.5L985.3 399.5L985.3 405Z "/></g></svg>