<svg width="1200" height="630" viewBox="0 0 1200 630" xmlns="http://www.w3.org/2000/svg"><defs><pattern id="satori_pattern_id_1" x="0" y="0" width="0.08333333333333333" height="0.15873015873015872" patternUnits="objectBoundingBox"><radialGradient id="satori_radial_id_1" spreadMethod="pad"><stop offset="0" stop-color="lightgray"/><stop offset="0.03" stop-color="lightgray"/><stop offset="0" stop-color="transparent"/><stop offset="1" stop-color="transparent"/></radialGradient><mask id="satori_mask_id_1"><rect x="0" y="0" width="100" height="100" fill="#fff"/></mask><rect x="0" y="0" width="100" height="100" fill="transparent"/><circle cx="75" cy="75" width="100" height="100" r="106.06601717798213" fill="url(#satori_radial_id_1)" mask="url(#satori_mask_id_1)"/></pattern><pattern id="satori_pattern_id_0" x="0" y="0" width="0.08333333333333333" height="0.15873015873015872" patternUnits="objectBoundingBox"><radialGradient id="satori_radial_id_0" spreadMethod="pad"><stop offset="0" stop-color="lightgray"/><stop offset="0.03" stop-color="lightgray"/><stop offset="0" stop-color="transparent"/><stop offset="1" stop-color="transparent"/></radialGradient><mask id="satori_mask_id_0"><rect x="0" y="0" width="100" height="100" fill="#fff"/></mask><rect x="0" y="0" width="100" height="100" fill="transparent"/><circle cx="25" cy="25" width="100" height="100" r="106.06601717798213" fill="url(#satori_radial_id_0)" mask="url(#satori_mask_id_0)"/></pattern></defs><mask id="satori_om-id"><rect x="0" y="0" width="1200" height="630" fill="#fff"/></mask><rect x="0" y="0" width="1200" height="630" fill="white"/><rect x="0" y="0" width="1200" height="630" fill="url(#satori_pattern_id_1)"/><rect x="0" y="0" width="1200" height="630" fill="url(#satori_pattern_id_0)"/><mask id="satori_om-id-0"><rect x="154" y="213" width="893" height="205" fill="#fff"/></mask><mask id="satori_om-id-0-0"><rect x="477" y="213" width="248" height="47" fill="#fff"/></mask><mask id="satori_om-id-0-0-0"><rect x="477" y="229" width="16" height="16" fill="#fff"/></mask><rect x="477" y="229" width="16" height="16" fill="black"/><mask id="satori_om-id-0-0-1"><rect x="509" y="213" width="216" height="47" fill="#fff"/></mask><g  ><path fill="black" d="M512.7 257.2L512.7 254.8L521.7 254.8L521.7 233.9L512.3 233.9L512.3 231.4L524.6 231.4L524.6 253.0Q524.6 254.8 523.6 256.0Q522.6 257.2 520.4 257.2L520.4 257.2L512.7 257.2ZM523.1 227.3L523.1 227.3Q521.9 227.3 521.3 226.8Q520.8 226.3 520.8 225.5L520.8 225.5L520.8 224.9Q520.8 224.1 521.3 223.6Q521.9 223.1 523.1 223.1L523.1 223.1Q524.4 223.1 524.9 223.6Q525.4 224.1 525.4 224.9L525.4 224.9L525.4 225.5Q525.4 226.3 524.9 226.8Q524.4 227.3 523.1 227.3ZM550.4 250L548.4 250Q546.7 250 546.0 249.1Q545.3 248.3 545.1 247.0L545.1 247.0L544.9 247.0Q544.3 248.6 543.0 249.5Q541.6 250.4 539.3 250.4L539.3 250.4Q536.4 250.4 534.7 248.9Q533.0 247.4 533.0 244.8L533.0 244.8Q533.0 242.2 534.9 240.8Q536.8 239.4 541.0 239.4L541.0 239.4L544.9 239.4L544.9 237.5Q544.9 235.5 543.8 234.5Q542.6 233.4 540.5 233.4L540.5 233.4Q538.6 233.4 537.4 234.2Q536.3 234.9 535.5 236.2L535.5 236.2L533.6 234.7Q533.9 234.0 534.6 233.3Q535.2 232.6 536.1 232.1Q537.0 231.6 538.1 231.3Q539.3 231.0 540.7 231.0L540.7 231.0Q544.0 231.0 545.9 232.6Q547.8 234.3 547.8 237.3L547.8 237.3L547.8 247.5L550.4 247.5L550.4 250ZM539.9 248.0L539.9 248.0Q541.0 248.0 541.9 247.8Q542.8 247.5 543.5 247.0Q544.2 246.6 544.6 245.9Q544.9 245.3 544.9 244.6L544.9 244.6L544.9 241.5L541.0 241.5Q538.4 241.5 537.2 242.3Q536 243.0 536 244.3L536 244.3L536 245.1Q536 246.5 537.0 247.3Q538.1 248.0 539.9 248.0ZM563.3 250.4L563.3 250.4Q561.3 250.4 559.7 249.7Q558.1 249.1 557.0 247.8Q555.8 246.5 555.2 244.7Q554.6 242.9 554.6 240.7L554.6 240.7Q554.6 238.5 555.2 236.7Q555.9 234.9 557.0 233.6Q558.1 232.4 559.7 231.7Q561.2 231.0 563.1 231.0L563.1 231.0Q565.0 231.0 566.5 231.7Q568.1 232.4 569.2 233.6Q570.2 234.8 570.8 236.4Q571.4 238.1 571.4 240.1L571.4 240.1L571.4 241.4L557.6 241.4L557.6 242.3Q557.6 243.5 558.0 244.6Q558.4 245.6 559.2 246.4Q559.9 247.1 561.0 247.5Q562.0 247.9 563.3 247.9L563.3 247.9Q565.2 247.9 566.6 247.1Q567.9 246.2 568.7 244.7L568.7 244.7L570.8 246.1Q569.9 248.0 568.0 249.2Q566.1 250.4 563.3 250.4ZM563.1 233.4L563.1 233.4Q562.0 233.4 560.9 233.8Q559.9 234.2 559.2 235.0Q558.5 235.7 558.1 236.8Q557.6 237.8 557.6 239.0L557.6 239.0L557.6 239.3L568.3 239.3L568.3 238.9Q568.3 237.7 567.9 236.6Q567.5 235.6 566.9 234.9Q566.2 234.2 565.3 233.8Q564.3 233.4 563.1 233.4ZM577.3 250L577.3 223.4L580.2 223.4L580.2 234.4L580.4 234.4Q580.6 233.8 581.1 233.1Q581.5 232.5 582.1 232.0Q582.8 231.6 583.6 231.3Q584.5 231.0 585.6 231.0L585.6 231.0Q588.6 231.0 590.3 232.8Q592.1 234.7 592.1 238.1L592.1 238.1L592.1 250L589.2 250L589.2 238.6Q589.2 236.0 588.1 234.8Q587.0 233.5 584.8 233.5L584.8 233.5Q584.0 233.5 583.1 233.8Q582.3 234.0 581.6 234.4Q581.0 234.8 580.6 235.5Q580.2 236.2 580.2 237.1L580.2 237.1L580.2 250L577.3 250ZM606.5 250.4L606.5 250.4Q604.5 250.4 602.9 249.7Q601.3 249.1 600.2 247.8Q599.0 246.5 598.4 244.7Q597.8 242.9 597.8 240.7L597.8 240.7Q597.8 238.5 598.4 236.7Q599.1 234.9 600.2 233.6Q601.3 232.4 602.9 231.7Q604.4 231.0 606.3 231.0L606.3 231.0Q608.2 231.0 609.7 231.7Q611.3 232.4 612.4 233.6Q613.4 234.8 614.0 236.4Q614.6 238.1 614.6 240.1L614.6 240.1L614.6 241.4L600.8 241.4L600.8 242.3Q600.8 243.5 601.2 244.6Q601.6 245.6 602.4 246.4Q603.1 247.1 604.2 247.5Q605.2 247.9 606.5 247.9L606.5 247.9Q608.4 247.9 609.8 247.1Q611.1 246.2 611.9 244.7L611.9 244.7L614.0 246.1Q613.1 248.0 611.2 249.2Q609.3 250.4 606.5 250.4ZM606.3 233.4L606.3 233.4Q605.2 233.4 604.1 233.8Q603.1 234.2 602.4 235.0Q601.7 235.7 601.3 236.8Q600.8 237.8 600.8 239.0L600.8 239.0L600.8 239.3L611.5 239.3L611.5 238.9Q611.5 237.7 611.1 236.6Q610.7 235.6 610.1 234.9Q609.4 234.2 608.5 233.8Q607.5 233.4 606.3 233.4ZM628.1 250.4L628.1 250.4Q626.1 250.4 624.5 249.7Q622.9 249.1 621.8 247.8Q620.6 246.5 620.0 244.7Q619.4 242.9 619.4 240.7L619.4 240.7Q619.4 238.5 620.0 236.7Q620.7 234.9 621.8 233.6Q622.9 232.4 624.5 231.7Q626.0 231.0 627.9 231.0L627.9 231.0Q629.8 231.0 631.3 231.7Q632.9 232.4 634.0 233.6Q635.0 234.8 635.6 236.4Q636.2 238.1 636.2 240.1L636.2 240.1L636.2 241.4L622.4 241.4L622.4 242.3Q622.4 243.5 622.8 244.6Q623.2 245.6 624.0 246.4Q624.7 247.1 625.8 247.5Q626.8 247.9 628.1 247.9L628.1 247.9Q630.0 247.9 631.4 247.1Q632.7 246.2 633.5 244.7L633.5 244.7L635.6 246.1Q634.7 248.0 632.8 249.2Q630.9 250.4 628.1 250.4ZM627.9 233.4L627.9 233.4Q626.8 233.4 625.7 233.8Q624.7 234.2 624.0 235.0Q623.3 235.7 622.9 236.8Q622.4 237.8 622.4 239.0L622.4 239.0L622.4 239.3L633.1 239.3L633.1 238.9Q633.1 237.7 632.7 236.6Q632.3 235.6 631.7 234.9Q631.0 234.2 630.1 233.8Q629.1 233.4 627.9 233.4ZM649.4 250.3L649.4 250.3Q647.9 250.3 647.3 249.7Q646.7 249.1 646.7 248.2L646.7 248.2L646.7 247.5Q646.7 246.6 647.3 246.0Q647.9 245.4 649.4 245.4L649.4 245.4Q650.9 245.4 651.5 246.0Q652.1 246.6 652.1 247.5L652.1 247.5L652.1 248.2Q652.1 249.1 651.5 249.7Q650.9 250.3 649.4 250.3ZM675.5 250L675.5 247.0L675.4 247.0Q673.6 250.4 669.6 250.4L669.6 250.4Q666.2 250.4 664.3 247.9Q662.4 245.3 662.4 240.7L662.4 240.7Q662.4 236.1 664.3 233.5Q666.2 231.0 669.6 231.0L669.6 231.0Q673.6 231.0 675.4 234.4L675.4 234.4L675.5 234.4L675.5 223.4L678.4 223.4L678.4 250L675.5 250ZM670.7 247.9L670.7 247.9Q671.7 247.9 672.6 247.6Q673.4 247.4 674.1 246.9Q674.7 246.4 675.1 245.7Q675.5 245.0 675.5 244.1L675.5 244.1L675.5 237.4Q675.5 236.4 675.1 235.7Q674.7 235.0 674.1 234.5Q673.4 234.1 672.6 233.8Q671.7 233.5 670.7 233.5L670.7 233.5Q668.2 233.5 666.8 235.1Q665.5 236.6 665.5 239.1L665.5 239.1L665.5 242.3Q665.5 244.8 666.8 246.3Q668.2 247.9 670.7 247.9ZM692.9 250.4L692.9 250.4Q690.9 250.4 689.3 249.7Q687.7 249.1 686.6 247.8Q685.4 246.5 684.8 244.7Q684.2 242.9 684.2 240.7L684.2 240.7Q684.2 238.5 684.8 236.7Q685.5 234.9 686.6 233.6Q687.7 232.4 689.3 231.7Q690.8 231.0 692.7 231.0L692.7 231.0Q694.6 231.0 696.1 231.7Q697.7 232.4 698.8 233.6Q699.8 234.8 700.4 236.4Q701.0 238.1 701.0 240.1L701.0 240.1L701.0 241.4L687.2 241.4L687.2 242.3Q687.2 243.5 687.6 244.6Q688.0 245.6 688.8 246.4Q689.5 247.1 690.6 247.5Q691.6 247.9 692.9 247.9L692.9 247.9Q694.8 247.9 696.2 247.1Q697.5 246.2 698.3 244.7L698.3 244.7L700.4 246.1Q699.5 248.0 697.6 249.2Q695.7 250.4 692.9 250.4ZM692.7 233.4L692.7 233.4Q691.6 233.4 690.5 233.8Q689.5 234.2 688.8 235.0Q688.1 235.7 687.7 236.8Q687.2 237.8 687.2 239.0L687.2 239.0L687.2 239.3L697.9 239.3L697.9 238.9Q697.9 237.7 697.5 236.6Q697.1 235.6 696.5 234.9Q695.8 234.2 694.9 233.8Q693.9 233.4 692.7 233.4ZM716.0 250L712.4 250L705.7 231.4L708.6 231.4L711.3 239.2L714.2 247.6L714.3 247.6L717.2 239.2L719.9 231.4L722.7 231.4L716.0 250Z "/></g><mask id="satori_om-id-0-1"><rect x="154" y="356" width="893" height="62" fill="#fff"/></mask><g  ><path fill="black" d="M180.1 405L158.4 405L158.4 371.5L165.7 371.5L165.7 399.1L180.1 399.1L180.1 405ZM197.9 405.6L197.9 405.6Q191.6 405.6 188.4 402.1Q185.2 398.7 185.2 392.7L185.2 392.7Q185.2 389.7 186.0 387.3Q186.9 384.8 188.4 383.1Q190 381.4 192.2 380.5Q194.5 379.7 197.2 379.7L197.2 379.7Q200.0 379.7 202.2 380.5Q204.4 381.4 206.0 383.1Q207.5 384.7 208.4 387.0Q209.2 389.4 209.2 392.2L209.2 392.2L209.2 394.3L192.3 394.3L192.3 394.8Q192.3 397.2 193.7 398.6Q195.2 400.1 198.1 400.1L198.1 400.1Q200.3 400.1 201.9 399.3Q203.5 398.4 204.6 397.0L204.6 397.0L208.5 401.2Q207.0 403.0 204.4 404.3Q201.9 405.6 197.9 405.6ZM197.3 384.7L197.3 384.7Q195.0 384.7 193.6 386.2Q192.3 387.6 192.3 390.0L192.3 390.0L192.3 390.4L202.2 390.4L202.2 390.0Q202.2 387.5 200.9 386.1Q199.6 384.7 197.3 384.7ZM226.7 405.6L226.7 405.6Q220.4 405.6 217.2 402.1Q214.0 398.7 214.0 392.7L214.0 392.7Q214.0 389.7 214.8 387.3Q215.7 384.8 217.2 383.1Q218.8 381.4 221.0 380.5Q223.3 379.7 226.0 379.7L226.0 379.7Q228.8 379.7 231.0 380.5Q233.2 381.4 234.8 383.1Q236.3 384.7 237.2 387.0Q238.0 389.4 238.0 392.2L238.0 392.2L238.0 394.3L221.1 394.3L221.1 394.8Q221.1 397.2 222.5 398.6Q224.0 400.1 226.9 400.1L226.9 400.1Q229.1 400.1 230.7 399.3Q232.3 398.4 233.4 397.0L233.4 397.0L237.3 401.2Q235.8 403.0 233.2 404.3Q230.7 405.6 226.7 405.6ZM226.1 384.7L226.1 384.7Q223.8 384.7 222.4 386.2Q221.1 387.6 221.1 390.0L221.1 390.0L221.1 390.4L231.0 390.4L231.0 390.0Q231.0 387.5 229.7 386.1Q228.4 384.7 226.1 384.7ZM265.9 405L256.7 405Q252.9 405 251.0 403.0Q249.1 401.0 249.1 397.8L249.1 397.8L249.1 385.8L242.4 385.8L242.4 380.2L246.8 380.2Q248.4 380.2 249.0 379.6Q249.7 379.0 249.7 377.3L249.7 377.3L249.7 371.5L256.2 371.5L256.2 380.2L265.9 380.2L265.9 385.8L256.2 385.8L256.2 399.5L265.9 399.5L265.9 405ZM284.4 405.6L284.4 405.6Q277.6 405.6 274.4 401.0Q271.2 396.5 271.2 388.2L271.2 388.2Q271.2 380.0 274.4 375.5Q277.6 370.9 284.4 370.9L284.4 370.9Q287.0 370.9 289.0 371.6Q290.9 372.3 292.4 373.6Q293.8 374.8 294.8 376.6Q295.7 378.4 296.2 380.6L296.2 380.6L289.5 382.2Q289.2 381 288.8 380.0Q288.4 379.0 287.8 378.3Q287.2 377.5 286.4 377.1Q285.5 376.7 284.2 376.7L284.2 376.7Q281.3 376.7 280.1 379.0Q278.8 381.3 278.8 385.3L278.8 385.3L278.8 391.2Q278.8 395.2 280.1 397.5Q281.3 399.8 284.2 399.8L284.2 399.8Q286.7 399.8 287.8 398.2Q289.0 396.7 289.5 394.3L289.5 394.3L296.2 395.9Q295.7 398.1 294.8 399.9Q293.8 401.7 292.4 403.0Q290.9 404.2 289.0 404.9Q287.0 405.6 284.4 405.6ZM312.4 405.6L312.4 405.6Q309.5 405.6 307.2 404.7Q304.9 403.8 303.3 402.1Q301.7 400.4 300.8 398.0Q300.0 395.6 300.0 392.6L300.0 392.6Q300.0 389.6 300.8 387.2Q301.7 384.8 303.3 383.1Q304.9 381.4 307.2 380.5Q309.5 379.7 312.4 379.7L312.4 379.7Q315.3 379.7 317.6 380.5Q319.9 381.4 321.5 383.1Q323.1 384.8 324.0 387.2Q324.8 389.6 324.8 392.6L324.8 392.6Q324.8 395.6 324.0 398.0Q323.1 400.4 321.5 402.1Q319.9 403.8 317.6 404.7Q315.3 405.6 312.4 405.6ZM312.4 400.3L312.4 400.3Q314.8 400.3 316.1 398.8Q317.5 397.3 317.5 394.6L317.5 394.6L317.5 390.6Q317.5 387.9 316.1 386.4Q314.8 384.9 312.4 384.9L312.4 384.9Q310.0 384.9 308.7 386.4Q307.3 387.9 307.3 390.6L307.3 390.6L307.3 394.6Q307.3 397.3 308.7 398.8Q310.0 400.3 312.4 400.3ZM345.7 405L345.7 400.5L345.3 400.5Q344.4 402.7 342.7 404.2Q341.0 405.6 338.0 405.6L338.0 405.6Q335.9 405.6 334.2 404.8Q332.5 404.0 331.3 402.5Q330.1 400.9 329.4 398.4Q328.7 396.0 328.7 392.6L328.7 392.6Q328.7 389.3 329.4 386.8Q330.1 384.4 331.3 382.8Q332.5 381.2 334.2 380.4Q335.9 379.7 338.0 379.7L338.0 379.7Q339.5 379.7 340.6 380.0Q341.8 380.4 342.7 381.1Q343.6 381.8 344.2 382.7Q344.8 383.6 345.3 384.7L345.3 384.7L345.7 384.7L345.7 369.5L352.8 369.5L352.8 405L345.7 405ZM341.1 400.1L341.1 400.1Q342.9 400.1 344.3 399.1Q345.7 398.2 345.7 396.3L345.7 396.3L345.7 389.0Q345.7 387 344.3 386.1Q342.9 385.2 341.1 385.2L341.1 385.2Q338.7 385.2 337.4 386.6Q336.1 388.1 336.1 390.7L336.1 390.7L336.1 394.5Q336.1 397.1 337.4 398.6Q338.7 400.1 341.1 400.1ZM370.7 405.6L370.7 405.6Q364.4 405.6 361.2 402.1Q358.0 398.7 358.0 392.7L358.0 392.7Q358.0 389.7 358.8 387.3Q359.7 384.8 361.2 383.1Q362.8 381.4 365.0 380.5Q367.3 379.7 370.0 379.7L370.0 379.7Q372.8 379.7 375.0 380.5Q377.2 381.4 378.8 383.1Q380.3 384.7 381.2 387.0Q382.0 389.4 382.0 392.2L382.0 392.2L382.0 394.3L365.1 394.3L365.1 394.8Q365.1 397.2 366.5 398.6Q368.0 400.1 370.9 400.1L370.9 400.1Q373.1 400.1 374.7 399.3Q376.3 398.4 377.4 397.0L377.4 397.0L381.3 401.2Q379.8 403.0 377.2 404.3Q374.7 405.6 370.7 405.6ZM370.1 384.7L370.1 384.7Q367.8 384.7 366.4 386.2Q365.1 387.6 365.1 390.0L365.1 390.0L365.1 390.4L375.0 390.4L375.0 390.0Q375.0 387.5 373.7 386.1Q372.4 384.7 370.1 384.7Z M435.3 393.8L419.9 393.8L419.9 387.0L435.3 387.0L435.3 393.8Z M485.4 405.6L485.4 405.6Q482.4 405.6 480.0 404.6Q477.6 403.7 476.0 402.0Q474.4 400.2 473.5 397.8Q472.6 395.3 472.6 392.3L472.6 392.3Q472.6 388.8 473.7 385.6Q474.8 382.5 476.6 379.8Q478.3 377.2 480.5 375.0Q482.7 372.9 484.9 371.5L484.9 371.5L494.8 371.5Q491.7 373.7 489.2 375.6Q486.7 377.6 484.9 379.6Q483.0 381.6 481.9 383.7Q480.7 385.8 480.2 388.3L480.2 388.3L480.6 388.4Q481.0 387.5 481.6 386.6Q482.3 385.7 483.2 385.0Q484.1 384.3 485.3 383.8Q486.5 383.4 488.2 383.4L488.2 383.4Q490.3 383.4 492.1 384.1Q493.9 384.9 495.3 386.3Q496.6 387.6 497.3 389.5Q498.1 391.5 498.1 393.9L498.1 393.9Q498.1 396.4 497.2 398.6Q496.3 400.7 494.6 402.3Q493.0 403.8 490.6 404.7Q488.3 405.6 485.4 405.6ZM485.3 400.0L485.3 400.0Q487.9 400.0 489.3 398.6Q490.6 397.2 490.6 394.7L490.6 394.7L490.6 394.1Q490.6 391.6 489.3 390.2Q487.9 388.9 485.3 388.9L485.3 388.9Q482.9 388.9 481.5 390.2Q480.1 391.6 480.1 394.1L480.1 394.1L480.1 394.7Q480.1 397.2 481.4 398.6Q482.8 400.0 485.3 400.0ZM514.0 405.6L514.0 405.6Q511.3 405.6 510.1 404.4Q509.0 403.2 509.0 401.6L509.0 401.6L509.0 399.9Q509.0 398.3 510.1 397.1Q511.3 395.9 514.0 395.9L514.0 395.9Q516.7 395.9 517.9 397.1Q519.0 398.3 519.0 399.9L519.0 399.9L519.0 401.6Q519.0 403.2 517.9 404.4Q516.7 405.6 514.0 405.6Z M583.6 399.1L583.6 405L559.5 405L559.5 398.7L575.1 377.4L560.0 377.4L560.0 371.5L583.2 371.5L583.2 377.8L567.6 399.1L583.6 399.1ZM601.9 377.1L601.9 377.1Q599.5 377.1 598.6 376.1Q597.7 375.1 597.7 373.7L597.7 373.7L597.7 372.3Q597.7 370.9 598.6 369.9Q599.5 369.0 601.9 369.0L601.9 369.0Q604.3 369.0 605.3 369.9Q606.2 370.9 606.2 372.3L606.2 372.3L606.2 373.7Q606.2 375.1 605.3 376.1Q604.3 377.1 601.9 377.1ZM590.5 405L590.5 399.5L598.4 399.5L598.4 385.8L590.5 385.8L590.5 380.2L605.5 380.2L605.5 399.5L612.8 399.5L612.8 405L590.5 405ZM642.8 407.5L642.8 407.5Q642.8 411.4 639.5 413.3Q636.2 415.2 629.1 415.2L629.1 415.2Q625.5 415.2 623.2 414.8Q620.9 414.4 619.5 413.6Q618.2 412.8 617.6 411.8Q617.1 410.7 617.1 409.5L617.1 409.5Q617.1 407.4 618.3 406.3Q619.6 405.2 621.8 404.6L621.8 404.6L621.8 404.3Q620.2 403.8 619.3 403.0Q618.4 402.1 618.4 400.4L618.4 400.4Q618.4 398.6 619.6 397.8Q620.8 396.9 622.8 396.4L622.8 396.4L622.8 396.1Q620.6 395.1 619.4 393.1Q618.2 391.2 618.2 388.5L618.2 388.5Q618.2 386.3 618.9 384.7Q619.7 383.0 621.1 381.9Q622.5 380.8 624.5 380.2Q626.5 379.7 628.9 379.7L628.9 379.7Q631.3 379.7 633.3 380.2L633.3 380.2L633.3 378.8Q633.3 377.4 634.3 376.4Q635.3 375.5 637.1 375.5L637.1 375.5L641.4 375.5L641.4 380.7L635.5 380.7L635.5 381.1Q637.5 382.2 638.6 384Q639.8 385.8 639.8 388.5L639.8 388.5Q639.8 390.6 639.0 392.3Q638.2 393.9 636.8 395.0Q635.3 396.2 633.4 396.7Q631.4 397.3 628.9 397.3L628.9 397.3Q627.8 397.3 626.8 397.2Q625.8 397.1 624.9 396.8L624.9 396.8Q624.4 397.1 624.0 397.6Q623.6 398.0 623.6 398.7L623.6 398.7Q623.6 399.2 623.9 399.6Q624.2 399.9 624.7 400.1Q625.2 400.2 625.9 400.3Q626.6 400.3 627.3 400.3L627.3 400.3L632.9 400.3Q635.6 400.3 637.5 400.9Q639.3 401.4 640.5 402.4Q641.7 403.3 642.3 404.6Q642.8 405.9 642.8 407.5ZM636.1 408.0L636.1 408.0Q636.1 407.1 635.3 406.5Q634.5 406.0 632.4 406.0L632.4 406.0L623.9 406.0Q622.9 406.8 622.9 408.0L622.9 408.0Q622.9 409.1 623.9 409.9Q624.9 410.6 627.2 410.6L627.2 410.6L631.4 410.6Q633.9 410.6 635.0 409.9Q636.1 409.3 636.1 408.0ZM628.9 392.8L628.9 392.8Q631.1 392.8 632.1 391.8Q633.0 390.7 633.0 389.1L633.0 389.1L633.0 387.9Q633.0 386.3 632.1 385.2Q631.1 384.2 628.9 384.2L628.9 384.2Q626.8 384.2 625.8 385.2Q624.9 386.3 624.9 387.9L624.9 387.9L624.9 389.1Q624.9 390.7 625.8 391.8Q626.8 392.8 628.9 392.8ZM669.2 405L646.8 405L646.8 399.1L660.5 385.8L647.2 385.8L647.2 380.2L668.8 380.2L668.8 386.1L655.0 399.5L669.2 399.5L669.2 405ZM699.9 405L695.8 405Q693.6 405 692.2 403.9Q690.9 402.7 690.6 400.6L690.6 400.6L690.4 400.6Q689.7 403.1 687.7 404.3Q685.7 405.6 682.9 405.6L682.9 405.6Q679.3 405.6 677.1 403.6Q674.9 401.7 674.9 398.2L674.9 398.2Q674.9 394.3 677.7 392.4Q680.6 390.6 686.0 390.6L686.0 390.6L690.0 390.6L690.0 389.3Q690.0 387.1 689.0 386.0Q688.0 384.8 685.5 384.8L685.5 384.8Q683.2 384.8 681.9 385.7Q680.5 386.6 679.5 388.0L679.5 388.0L675.6 384.5Q676.8 382.4 679.5 381.0Q682.1 379.7 686.3 379.7L686.3 379.7Q691.4 379.7 694.3 382.0Q697.1 384.3 697.1 389.0L697.1 389.0L697.1 399.9L699.9 399.9L699.9 405ZM685.6 400.9L685.6 400.9Q687.4 400.9 688.7 400.0Q690.0 399.1 690.0 397.4L690.0 397.4L690.0 394.4L686.2 394.4Q681.9 394.4 681.9 397.3L681.9 397.3L681.9 398.3Q681.9 399.6 682.9 400.2Q683.9 400.9 685.6 400.9ZM729.2 407.5L729.2 407.5Q729.2 411.4 725.9 413.3Q722.6 415.2 715.5 415.2L715.5 415.2Q711.9 415.2 709.6 414.8Q707.3 414.4 705.9 413.6Q704.6 412.8 704.0 411.8Q703.5 410.7 703.5 409.5L703.5 409.5Q703.5 407.4 704.7 406.3Q706.0 405.2 708.2 404.6L708.2 404.6L708.2 404.3Q706.6 403.8 705.7 403.0Q704.8 402.1 704.8 400.4L704.8 400.4Q704.8 398.6 706.0 397.8Q707.2 396.9 709.2 396.4L709.2 396.4L709.2 396.1Q707.0 395.1 705.8 393.1Q704.6 391.2 704.6 388.5L704.6 388.5Q704.6 386.3 705.3 384.7Q706.1 383.0 707.5 381.9Q708.9 380.8 710.9 380.2Q712.9 379.7 715.3 379.7L715.3 379.7Q717.7 379.7 719.7 380.2L719.7 380.2L719.7 378.8Q719.7 377.4 720.7 376.4Q721.7 375.5 723.5 375.5L723.5 375.5L727.8 375.5L727.8 380.7L721.9 380.7L721.9 381.1Q723.9 382.2 725.0 384Q726.2 385.8 726.2 388.5L726.2 388.5Q726.2 390.6 725.4 392.3Q724.6 393.9 723.2 395.0Q721.7 396.2 719.8 396.7Q717.8 397.3 715.3 397.3L715.3 397.3Q714.2 397.3 713.2 397.2Q712.2 397.1 711.3 396.8L711.3 396.8Q710.8 397.1 710.4 397.6Q710.0 398.0 710.0 398.7L710.0 398.7Q710.0 399.2 710.3 399.6Q710.6 399.9 711.1 400.1Q711.6 400.2 712.3 400.3Q713.0 400.3 713.7 400.3L713.7 400.3L719.3 400.3Q722.0 400.3 723.9 400.9Q725.7 401.4 726.9 402.4Q728.1 403.3 728.7 404.6Q729.2 405.9 729.2 407.5ZM722.5 408.0L722.5 408.0Q722.5 407.1 721.7 406.5Q720.9 406.0 718.8 406.0L718.8 406.0L710.3 406.0Q709.3 406.8 709.3 408.0L709.3 408.0Q709.3 409.1 710.3 409.9Q711.3 410.6 713.6 410.6L713.6 410.6L717.8 410.6Q720.3 410.6 721.4 409.9Q722.5 409.3 722.5 408.0ZM715.3 392.8L715.3 392.8Q717.5 392.8 718.5 391.8Q719.4 390.7 719.4 389.1L719.4 389.1L719.4 387.9Q719.4 386.3 718.5 385.2Q717.5 384.2 715.3 384.2L715.3 384.2Q713.2 384.2 712.2 385.2Q711.3 386.3 711.3 387.9L711.3 387.9L711.3 389.1Q711.3 390.7 712.2 391.8Q713.2 392.8 715.3 392.8Z M774.0 405.6L774.0 405.6Q767.2 405.6 764.0 401.0Q760.8 396.5 760.8 388.2L760.8 388.2Q760.8 380.0 764.0 375.5Q767.2 370.9 774.0 370.9L774.0 370.9Q776.6 370.9 778.6 371.6Q780.5 372.3 782.0 373.6Q783.4 374.8 784.4 376.6Q785.3 378.4 785.8 380.6L785.8 380.6L779.1 382.2Q778.8 381 778.4 380.0Q778.0 379.0 777.4 378.3Q776.8 377.5 776.0 377.1Q775.1 376.7 773.8 376.7L773.8 376.7Q770.9 376.7 769.7 379.0Q768.4 381.3 768.4 385.3L768.4 385.3L768.4 391.2Q768.4 395.2 769.7 397.5Q770.9 399.8 773.8 399.8L773.8 399.8Q776.3 399.8 777.4 398.2Q778.6 396.7 779.1 394.3L779.1 394.3L785.8 395.9Q785.3 398.1 784.4 399.9Q783.4 401.7 782.0 403.0Q780.5 404.2 778.6 404.9Q776.6 405.6 774.0 405.6ZM802.0 405.6L802.0 405.6Q799.1 405.6 796.8 404.7Q794.5 403.8 792.9 402.1Q791.3 400.4 790.4 398.0Q789.6 395.6 789.6 392.6L789.6 392.6Q789.6 389.6 790.4 387.2Q791.3 384.8 792.9 383.1Q794.5 381.4 796.8 380.5Q799.1 379.7 802.0 379.7L802.0 379.7Q804.9 379.7 807.2 380.5Q809.5 381.4 811.1 383.1Q812.7 384.8 813.6 387.2Q814.4 389.6 814.4 392.6L814.4 392.6Q814.4 395.6 813.6 398.0Q812.7 400.4 811.1 402.1Q809.5 403.8 807.2 404.7Q804.9 405.6 802.0 405.6ZM802.0 400.3L802.0 400.3Q804.4 400.3 805.7 398.8Q807.1 397.3 807.1 394.6L807.1 394.6L807.1 390.6Q807.1 387.9 805.7 386.4Q804.4 384.9 802.0 384.9L802.0 384.9Q799.6 384.9 798.3 386.4Q796.9 387.9 796.9 390.6L796.9 390.6L796.9 394.6Q796.9 397.3 798.3 398.8Q799.6 400.3 802.0 400.3ZM826.6 405L819.5 405L819.5 380.2L826.6 380.2L826.6 384.7L826.9 384.7Q827.3 383.7 828.0 382.8Q828.6 381.9 829.5 381.2Q830.4 380.5 831.5 380.1Q832.7 379.7 834.2 379.7L834.2 379.7Q836.0 379.7 837.5 380.3Q839.0 380.9 840.0 382.1Q841.1 383.3 841.7 385.0Q842.3 386.7 842.3 389.0L842.3 389.0L842.3 405L835.2 405L835.2 389.9Q835.2 385.1 831.0 385.1L831.0 385.1Q830.2 385.1 829.4 385.3Q828.6 385.6 828.0 386.0Q827.3 386.5 827.0 387.1Q826.6 387.8 826.6 388.7L826.6 388.7L826.6 405ZM863.8 405L855.4 405L846.5 380.2L854.0 380.2L857.2 390.8L859.6 399.1L859.9 399.1L862.3 390.8L865.5 380.2L872.7 380.2L863.8 405ZM889.1 405.6L889.1 405.6Q882.8 405.6 879.6 402.1Q876.4 398.7 876.4 392.7L876.4 392.7Q876.4 389.7 877.2 387.3Q878.1 384.8 879.6 383.1Q881.2 381.4 883.4 380.5Q885.7 379.7 888.4 379.7L888.4 379.7Q891.2 379.7 893.4 380.5Q895.6 381.4 897.2 383.1Q898.7 384.7 899.6 387.0Q900.4 389.4 900.4 392.2L900.4 392.2L900.4 394.3L883.5 394.3L883.5 394.8Q883.5 397.2 884.9 398.6Q886.4 400.1 889.3 400.1L889.3 400.1Q891.5 400.1 893.1 399.3Q894.7 398.4 895.8 397.0L895.8 397.0L899.7 401.2Q898.2 403.0 895.6 404.3Q893.1 405.6 889.1 405.6ZM888.5 384.7L888.5 384.7Q886.2 384.7 884.8 386.2Q883.5 387.6 883.5 390.0L883.5 390.0L883.5 390.4L893.4 390.4L893.4 390.0Q893.4 387.5 892.1 386.1Q890.8 384.7 888.5 384.7ZM906.4 405L906.4 399.5L912.1 399.5L912.1 385.8L906.4 385.8L906.4 380.2L919.2 380.2L919.2 387.2L919.5 387.2Q919.8 385.9 920.4 384.6Q921.0 383.4 922.0 382.4Q922.9 381.4 924.3 380.8Q925.6 380.2 927.4 380.2L927.4 380.2L929.8 380.2L929.8 386.8L924.5 386.8Q921.9 386.8 920.5 388.3Q919.2 389.9 919.2 392.1L919.2 392.1L919.2 399.5L927.3 399.5L927.3 405L906.4 405ZM945.7 405.6L945.7 405.6Q941.6 405.6 938.5 404.3Q935.5 403.1 934.0 400.9L934.0 400.9L937.9 397.2Q939.4 398.8 941.3 399.7Q943.3 400.6 945.8 400.6L945.8 400.6Q947.9 400.6 949.1 399.9Q950.3 399.3 950.3 397.9L950.3 397.9Q950.3 396.9 949.5 396.5Q948.6 396.1 947.2 395.8L947.2 395.8L943.2 395.2Q941.5 395.0 940.1 394.5Q938.7 394.0 937.6 393.1Q936.5 392.2 935.9 391.0Q935.3 389.7 935.3 388.0L935.3 388.0Q935.3 384.1 938.3 381.9Q941.2 379.7 946.6 379.7L946.6 379.7Q950.3 379.7 952.8 380.6Q955.4 381.6 956.9 383.4L956.9 383.4L953.4 387.5Q952.3 386.3 950.6 385.5Q948.8 384.6 946.4 384.6L946.4 384.6Q942.3 384.6 942.3 387.1L942.3 387.1Q942.3 388.2 943.1 388.7Q943.9 389.1 945.3 389.3L945.3 389.3L949.3 389.9Q950.9 390.2 952.4 390.7Q953.8 391.2 954.9 392.0Q956.0 392.9 956.6 394.2Q957.2 395.4 957.2 397.2L957.2 397.2Q957.2 401.1 954.2 403.3Q951.2 405.6 945.7 405.6ZM976.3 377.1L976.3 377.1Q973.9 377.1 973.0 376.1Q972.1 375.1 972.1 373.7L972.1 373.7L972.1 372.3Q972.1 370.9 973.0 369.9Q973.9 369.0 976.3 369.0L976.3 369.0Q978.7 369.0 979.7 369.9Q980.6 370.9 980.6 372.3L980.6 372.3L980.6 373.7Q980.6 375.1 979.7 376.1Q978.7 377.1 976.3 377.1ZM964.9 405L964.9 399.5L972.8 399.5L972.8 385.8L964.9 385.8L964.9 380.2L979.9 380.2L979.9 399.5L987.2 399.5L987.2 405L964.9 405ZM1003.6 405.6L1003.6 405.6Q1000.7 405.6 998.4 404.7Q996.1 403.8 994.5 402.1Q992.9 400.4 992.0 398.0Q991.2 395.6 991.2 392.6L991.2 392.6Q991.2 389.6 992.0 387.2Q992.9 384.8 994.5 383.1Q996.1 381.4 998.4 380.5Q1000.7 379.7 1003.6 379.7L1003.6 379.7Q1006.5 379.7 1008.8 380.5Q1011.1 381.4 1012.7 383.1Q1014.3 384.8 1015.2 387.2Q1016.0 389.6 1016.0 392.6L1016.0 392.6Q1016.0 395.6 1015.2 398.0Q1014.3 400.4 1012.7 402.1Q1011.1 403.8 1008.8 404.7Q1006.5 405.6 1003.6 405.6ZM1003.6 400.3L1003.6 400.3Q1006.0 400.3 1007.3 398.8Q1008.7 397.3 1008.7 394.6L1008.7 394.6L1008.7 390.6Q1008.7 387.9 1007.3 386.4Q1006.0 384.9 1003.6 384.9L1003.6 384.9Q1001.2 384.9 999.9 386.4Q998.5 387.9 998.5 390.6L998.5 390.6L998.5 394.6Q998.5 397.3 999.9 398.8Q1001.2 400.3 1003.6 400.3ZM1028.2 405L1021.1 405L1021.1 380.2L1028.2 380.2L1028.2 384.7L1028.5 384.7Q1028.9 383.7 1029.6 382.8Q1030.2 381.9 1031.1 381.2Q1032.0 380.5 1033.1 380.1Q1034.3 379.7 1035.8 379.7L1035.8 379.7Q1037.6 379.7 1039.1 380.3Q1040.6 380.9 1041.6 382.1Q1042.7 383.3 1043.3 385.0Q1043.9 386.7 1043.9 389.0L1043.9 389.0L1043.9 405L1036.8 405L1036.8 389.9Q1036.8 385.1 1032.6 385.1L1032.6 385.1Q1031.8 385.1 1031.0 385.3Q1030.2 385.6 1029.6 386.0Q1028.9 386.5 1028.6 387.1Q1028.2 387.8 1028.2 388.7L1028.2 388.7L1028.2 405Z "/></g></svg>