<svg width="1200" height="630" viewBox="0 0 1200 630" xmlns="http://www.w3.org/2000/svg"><defs><pattern id="satori_pattern_id_1" x="0" y="0" width="0.08333333333333333" height="0.15873015873015872" patternUnits="objectBoundingBox"><radialGradient id="satori_radial_id_1" spreadMethod="pad"><stop offset="0" stop-color="lightgray"/><stop offset="0.03" stop-color="lightgray"/><stop offset="0" stop-color="transparent"/><stop offset="1" stop-color="transparent"/></radialGradient><mask id="satori_mask_id_1"><rect x="0" y="0" width="100" height="100" fill="#fff"/></mask><rect x="0" y="0" width="100" height="100" fill="transparent"/><circle cx="75" cy="75" width="100" height="100" r="106.06601717798213" fill="url(#satori_radial_id_1)" mask="url(#satori_mask_id_1)"/></pattern><pattern id="satori_pattern_id_0" x="0" y="0" width="0.08333333333333333" height="0.15873015873015872" patternUnits="objectBoundingBox"><radialGradient id="satori_radial_id_0" spreadMethod="pad"><stop offset="0" stop-color="lightgray"/><stop offset="0.03" stop-color="lightgray"/><stop offset="0" stop-color="transparent"/><stop offset="1" stop-color="transparent"/></radialGradient><mask id="satori_mask_id_0"><rect x="0" y="0" width="100" height="100" fill="#fff"/></mask><rect x="0" y="0" width="100" height="100" fill="transparent"/><circle cx="25" cy="25" width="100" height="100" r="106.06601717798213" fill="url(#satori_radial_id_0)" mask="url(#satori_mask_id_0)"/></pattern></defs><mask id="satori_om-id"><rect x="0" y="0" width="1200" height="630" fill="#fff"/></mask><rect x="0" y="0" width="1200" height="630" fill="white"/><rect x="0" y="0" width="1200" height="630" fill="url(#satori_pattern_id_1)"/><rect x="0" y="0" width="1200" height="630" fill="url(#satori_pattern_id_0)"/><mask id="satori_om-id-0"><rect x="298" y="213" width="605" height="205" fill="#fff"/></mask><mask id="satori_om-id-0-0"><rect x="477" y="213" width="248" height="47" fill="#fff"/></mask><mask id="satori_om-id-0-0-0"><rect x="477" y="229" width="16" height="16" fill="#fff"/></mask><rect x="477" y="229" width="16" height="16" fill="black"/><mask id="satori_om-id-0-0-1"><rect x="509" y="213" width="216" height="47" fill="#fff"/></mask><g  ><path fill="black" d="M512.7 257.2L512.7 254.8L521.7 254.8L521.7 233.9L512.3 233.9L512.3 231.4L524.6 231.4L524.6 253.0Q524.6 254.8 523.6 256.0Q522.6 257.2 520.4 257.2L520.4 257.2L512.7 257.2ZM523.1 227.3L523.1 227.3Q521.9 227.3 521.3 226.8Q520.8 226.3 520.8 225.5L520.8 225.5L520.8 224.9Q520.8 224.1 521.3 223.6Q521.9 223.1 523.1 223.1L523.1 223.1Q524.4 223.1 524.9 223.6Q525.4 224.1 525.4 224.9L525.4 224.9L525.4 225.5Q525.4 226.3 524.9 226.8Q524.4 227.3 523.1 227.3ZM550.4 250L548.4 250Q546.7 250 546.0 249.1Q545.3 248.3 545.1 247.0L545.1 247.0L544.9 247.0Q544.3 248.6 543.0 249.5Q541.6 250.4 539.3 250.4L539.3 250.4Q536.4 250.4 534.7 248.9Q533.0 247.4 533.0 244.8L533.0 244.8Q533.0 242.2 534.9 240.8Q536.8 239.4 541.0 239.4L541.0 239.4L544.9 239.4L544.9 237.5Q544.9 235.5 543.8 234.5Q542.6 233.4 540.5 233.4L540.5 233.4Q538.6 233.4 537.4 234.2Q536.3 234.9 535.5 236.2L535.5 236.2L533.6 234.7Q533.9 234.0 534.6 233.3Q535.2 232.6 536.1 232.1Q537.0 231.6 538.1 231.3Q539.3 231.0 540.7 231.0L540.7 231.0Q544.0 231.0 545.9 232.6Q547.8 234.3 547.8 237.3L547.8 237.3L547.8 247.5L550.4 247.5L550.4 250ZM539.9 248.0L539.9 248.0Q541.0 248.0 541.9 247.8Q542.8 247.5 543.5 247.0Q544.2 246.6 544.6 245.9Q544.9 245.3 544.9 244.6L544.9 244.6L544.9 241.5L541.0 241.5Q538.4 241.5 537.2 242.3Q536 243.0 536 244.3L536 244.3L536 245.1Q536 246.5 537.0 247.3Q538.1 248.0 539.9 248.0ZM563.3 250.4L563.3 250.4Q561.3 250.4 559.7 249.7Q558.1 249.1 557.0 247.8Q555.8 246.5 555.2 244.7Q554.6 242.9 554.6 240.7L554.6 240.7Q554.6 238.5 555.2 236.7Q555.9 234.9 557.0 233.6Q558.1 232.4 559.7 231.7Q561.2 231.0 563.1 231.0L563.1 231.0Q565.0 231.0 566.5 231.7Q568.1 232.4 569.2 233.6Q570.2 234.8 570.8 236.4Q571.4 238.1 571.4 240.1L571.4 240.1L571.4 241.4L557.6 241.4L557.6 242.3Q557.6 243.5 558.0 244.6Q558.4 245.6 559.2 246.4Q559.9 247.1 561.0 247.5Q562.0 247.9 563.3 247.9L563.3 247.9Q565.2 247.9 566.6 247.1Q567.9 246.2 568.7 244.7L568.7 244.7L570.8 246.1Q569.9 248.0 568.0 249.2Q566.1 250.4 563.3 250.4ZM563.1 233.4L563.1 233.4Q562.0 233.4 560.9 233.8Q559.9 234.2 559.2 235.0Q558.5 235.7 558.1 236.8Q557.6 237.8 557.6 239.0L557.6 239.0L557.6 239.3L568.3 239.3L568.3 238.9Q568.3 237.7 567.9 236.6Q567.5 235.6 566.9 234.9Q566.2 234.2 565.3 233.8Q564.3 233.4 563.1 233.4ZM577.3 250L577.3 223.4L580.2 223.4L580.2 234.4L580.4 234.4Q580.6 233.8 581.1 233.1Q581.5 232.5 582.1 232.0Q582.8 231.6 583.6 231.3Q584.5 231.0 585.6 231.0L585.6 231.0Q588.6 231.0 590.3 232.8Q592.1 234.7 592.1 238.1L592.1 238.1L592.1 250L589.2 250L589.2 238.6Q589.2 236.0 588.1 234.8Q587.0 233.5 584.8 233.5L584.8 233.5Q584.0 233.5 583.1 233.8Q582.3 234.0 581.6 234.4Q581.0 234.8 580.6 235.5Q580.2 236.2 580.2 237.1L580.2 237.1L580.2 250L577.3 250ZM606.5 250.4L606.5 250.4Q604.5 250.4 602.9 249.7Q601.3 249.1 600.2 247.8Q599.0 246.5 598.4 244.7Q597.8 242.9 597.8 240.7L597.8 240.7Q597.8 238.5 598.4 236.7Q599.1 234.9 600.2 233.6Q601.3 232.4 602.9 231.7Q604.4 231.0 606.3 231.0L606.3 231.0Q608.2 231.0 609.7 231.7Q611.3 232.4 612.4 233.6Q613.4 234.8 614.0 236.4Q614.6 238.1 614.6 240.1L614.6 240.1L614.6 241.4L600.8 241.4L600.8 242.3Q600.8 243.5 601.2 244.6Q601.6 245.6 602.4 246.4Q603.1 247.1 604.2 247.5Q605.2 247.9 606.5 247.9L606.5 247.9Q608.4 247.9 609.8 247.1Q611.1 246.2 611.9 244.7L611.9 244.7L614.0 246.1Q613.1 248.0 611.2 249.2Q609.3 250.4 606.5 250.4ZM606.3 233.4L606.3 233.4Q605.2 233.4 604.1 233.8Q603.1 234.2 602.4 235.0Q601.7 235.7 601.3 236.8Q600.8 237.8 600.8 239.0L600.8 239.0L600.8 239.3L611.5 239.3L611.5 238.9Q611.5 237.7 611.1 236.6Q610.7 235.6 610.1 234.9Q609.4 234.2 608.5 233.8Q607.5 233.4 606.3 233.4ZM628.1 250.4L628.1 250.4Q626.1 250.4 624.5 249.7Q622.9 249.1 621.8 247.8Q620.6 246.5 620.0 244.7Q619.4 242.9 619.4 240.7L619.4 240.7Q619.4 238.5 620.0 236.7Q620.7 234.9 621.8 233.6Q622.9 232.4 624.5 231.7Q626.0 231.0 627.9 231.0L627.9 231.0Q629.8 231.0 631.3 231.7Q632.9 232.4 634.0 233.6Q635.0 234.8 635.6 236.4Q636.2 238.1 636.2 240.1L636.2 240.1L636.2 241.4L622.4 241.4L622.4 242.3Q622.4 243.5 622.8 244.6Q623.2 245.6 624.0 246.4Q624.7 247.1 625.8 247.5Q626.8 247.9 628.1 247.9L628.1 247.9Q630.0 247.9 631.4 247.1Q632.7 246.2 633.5 244.7L633.5 244.7L635.6 246.1Q634.7 248.0 632.8 249.2Q630.9 250.4 628.1 250.4ZM627.9 233.4L627.9 233.4Q626.8 233.4 625.7 233.8Q624.7 234.2 624.0 235.0Q623.3 235.7 622.9 236.8Q622.4 237.8 622.4 239.0L622.4 239.0L622.4 239.3L633.1 239.3L633.1 238.9Q633.1 237.7 632.7 236.6Q632.3 235.6 631.7 234.9Q631.0 234.2 630.1 233.8Q629.1 233.4 627.9 233.4ZM649.4 250.3L649.4 250.3Q647.9 250.3 647.3 249.7Q646.7 249.1 646.7 248.2L646.7 248.2L646.7 247.5Q646.7 246.6 647.3 246.0Q647.9 245.4 649.4 245.4L649.4 245.4Q650.9 245.4 651.5 246.0Q652.1 246.6 652.1 247.5L652.1 247.5L652.1 248.2Q652.1 249.1 651.5 249.7Q650.9 250.3 649.4 250.3ZM675.5 250L675.5 247.0L675.4 247.0Q673.6 250.4 669.6 250.4L669.6 250.4Q666.2 250.4 664.3 247.9Q662.4 245.3 662.4 240.7L662.4 240.7Q662.4 236.1 664.3 233.5Q666.2 231.0 669.6 231.0L669.6 231.0Q673.6 231.0 675.4 234.4L675.4 234.4L675.5 234.4L675.5 223.4L678.4 223.4L678.4 250L675.5 250ZM670.7 247.9L670.7 247.9Q671.7 247.9 672.6 247.6Q673.4 247.4 674.1 246.9Q674.7 246.4 675.1 245.7Q675.5 245.0 675.5 244.1L675.5 244.1L675.5 237.4Q675.5 236.4 675.1 235.7Q674.7 235.0 674.1 234.5Q673.4 234.1 672.6 233.8Q671.7 233.5 670.7 233.5L670.7 233.5Q668.2 233.5 666.8 235.1Q665.5 236.6 665.5 239.1L665.5 239.1L665.5 242.3Q665.5 244.8 666.8 246.3Q668.2 247.9 670.7 247.9ZM692.9 250.4L692.9 250.4Q690.9 250.4 689.3 249.7Q687.7 249.1 686.6 247.8Q685.4 246.5 684.8 244.7Q684.2 242.9 684.2 240.7L684.2 240.7Q684.2 238.5 684.8 236.7Q685.5 234.9 686.6 233.6Q687.7 232.4 689.3 231.7Q690.8 231.0 692.7 231.0L692.7 231.0Q694.6 231.0 696.1 231.7Q697.7 232.4 698.8 233.6Q699.8 234.8 700.4 236.4Q701.0 238.1 701.0 240.1L701.0 240.1L701.0 241.4L687.2 241.4L687.2 242.3Q687.2 243.5 687.6 244.6Q688.0 245.6 688.8 246.4Q689.5 247.1 690.6 247.5Q691.6 247.9 692.9 247.9L692.9 247.9Q694.8 247.9 696.2 247.1Q697.5 246.2 698.3 244.7L698.3 244.7L700.4 246.1Q699.5 248.0 697.6 249.2Q695.7 250.4 692.9 250.4ZM692.7 233.4L692.7 233.4Q691.6 233.4 690.5 233.8Q689.5 234.2 688.8 235.0Q688.1 235.7 687.7 236.8Q687.2 237.8 687.2 239.0L687.2 239.0L687.2 239.3L697.9 239.3L697.9 238.9Q697.9 237.7 697.5 236.6Q697.1 235.6 696.5 234.9Q695.8 234.2 694.9 233.8Q693.9 233.4 692.7 233.4ZM716.0 250L712.4 250L705.7 231.4L708.6 231.4L711.3 239.2L714.2 247.6L714.3 247.6L717.2 239.2L719.9 231.4L722.7 231.4L716.0 250Z "/></g><mask id="satori_om-id-0-1"><rect x="298" y="356" width="605" height="62" fill="#fff"/></mask><g  ><path fill="black" d="M324.1 405L302.4 405L302.4 371.5L309.7 371.5L309.7 399.1L324.1 399.1L324.1 405ZM341.9 405.6L341.9 405.6Q335.6 405.6 332.4 402.1Q329.2 398.7 329.2 392.7L329.2 392.7Q329.2 389.7 330.0 387.3Q330.9 384.8 332.4 383.1Q334 381.4 336.2 380.5Q338.5 379.7 341.2 379.7L341.2 379.7Q344.0 379.7 346.2 380.5Q348.4 381.4 350.0 383.1Q351.5 384.7 352.4 387.0Q353.2 389.4 353.2 392.2L353.2 392.2L353.2 394.3L336.3 394.3L336.3 394.8Q336.3 397.2 337.7 398.6Q339.2 400.1 342.1 400.1L342.1 400.1Q344.3 400.1 345.9 399.3Q347.5 398.4 348.6 397.0L348.6 397.0L352.5 401.2Q351.0 403.0 348.4 404.3Q345.9 405.6 341.9 405.6ZM341.3 384.7L341.3 384.7Q339.0 384.7 337.6 386.2Q336.3 387.6 336.3 390.0L336.3 390.0L336.3 390.4L346.2 390.4L346.2 390.0Q346.2 387.5 344.9 386.1Q343.6 384.7 341.3 384.7ZM370.7 405.6L370.7 405.6Q364.4 405.6 361.2 402.1Q358 398.7 358 392.7L358 392.7Q358 389.7 358.8 387.3Q359.7 384.8 361.2 383.1Q362.8 381.4 365.0 380.5Q367.3 379.7 370.0 379.7L370.0 379.7Q372.8 379.7 375.0 380.5Q377.2 381.4 378.8 383.1Q380.3 384.7 381.2 387.0Q382 389.4 382 392.2L382 392.2L382 394.3L365.1 394.3L365.1 394.8Q365.1 397.2 366.5 398.6Q368.0 400.1 370.9 400.1L370.9 400.1Q373.1 400.1 374.7 399.3Q376.3 398.4 377.4 397.0L377.4 397.0L381.3 401.2Q379.8 403.0 377.2 404.3Q374.7 405.6 370.7 405.6ZM370.1 384.7L370.1 384.7Q367.8 384.7 366.4 386.2Q365.1 387.6 365.1 390.0L365.1 390.0L365.1 390.4L375.0 390.4L375.0 390.0Q375.0 387.5 373.7 386.1Q372.4 384.7 370.1 384.7ZM409.9 405L400.7 405Q396.9 405 395.0 403.0Q393.1 401.0 393.1 397.8L393.1 397.8L393.1 385.8L386.4 385.8L386.4 380.2L390.8 380.2Q392.4 380.2 393.0 379.6Q393.7 379.0 393.7 377.3L393.7 377.3L393.7 371.5L400.2 371.5L400.2 380.2L409.9 380.2L409.9 385.8L400.2 385.8L400.2 399.5L409.9 399.5L409.9 405ZM428.4 405.6L428.4 405.6Q421.6 405.6 418.4 401.0Q415.2 396.5 415.2 388.2L415.2 388.2Q415.2 380.0 418.4 375.5Q421.6 370.9 428.4 370.9L428.4 370.9Q431.0 370.9 433.0 371.6Q434.9 372.3 436.4 373.6Q437.8 374.8 438.8 376.6Q439.7 378.4 440.2 380.6L440.2 380.6L433.5 382.2Q433.2 381 432.8 380.0Q432.4 379.0 431.8 378.3Q431.2 377.5 430.4 377.1Q429.5 376.7 428.2 376.7L428.2 376.7Q425.3 376.7 424.1 379.0Q422.8 381.3 422.8 385.3L422.8 385.3L422.8 391.2Q422.8 395.2 424.1 397.5Q425.3 399.8 428.2 399.8L428.2 399.8Q430.7 399.8 431.8 398.2Q433.0 396.7 433.5 394.3L433.5 394.3L440.2 395.9Q439.7 398.1 438.8 399.9Q437.8 401.7 436.4 403.0Q434.9 404.2 433.0 404.9Q431.0 405.6 428.4 405.6ZM456.4 405.6L456.4 405.6Q453.5 405.6 451.2 404.7Q448.9 403.8 447.3 402.1Q445.7 400.4 444.8 398.0Q444.0 395.6 444.0 392.6L444.0 392.6Q444.0 389.6 444.8 387.2Q445.7 384.8 447.3 383.1Q448.9 381.4 451.2 380.5Q453.5 379.7 456.4 379.7L456.4 379.7Q459.3 379.7 461.6 380.5Q463.9 381.4 465.5 383.1Q467.1 384.8 468.0 387.2Q468.8 389.6 468.8 392.6L468.8 392.6Q468.8 395.6 468.0 398.0Q467.1 400.4 465.5 402.1Q463.9 403.8 461.6 404.7Q459.3 405.6 456.4 405.6ZM456.4 400.3L456.4 400.3Q458.8 400.3 460.1 398.8Q461.5 397.3 461.5 394.6L461.5 394.6L461.5 390.6Q461.5 387.9 460.1 386.4Q458.8 384.9 456.4 384.9L456.4 384.9Q454.0 384.9 452.7 386.4Q451.3 387.9 451.3 390.6L451.3 390.6L451.3 394.6Q451.3 397.3 452.7 398.8Q454.0 400.3 456.4 400.3ZM489.7 405L489.7 400.5L489.3 400.5Q488.4 402.7 486.7 404.2Q485.0 405.6 482.0 405.6L482.0 405.6Q479.9 405.6 478.2 404.8Q476.5 404.0 475.3 402.5Q474.1 400.9 473.4 398.4Q472.7 396.0 472.7 392.6L472.7 392.6Q472.7 389.3 473.4 386.8Q474.1 384.4 475.3 382.8Q476.5 381.2 478.2 380.4Q479.9 379.7 482.0 379.7L482.0 379.7Q483.5 379.7 484.6 380.0Q485.8 380.4 486.7 381.1Q487.6 381.8 488.2 382.7Q488.8 383.6 489.3 384.7L489.3 384.7L489.7 384.7L489.7 369.5L496.8 369.5L496.8 405L489.7 405ZM485.1 400.1L485.1 400.1Q486.9 400.1 488.3 399.1Q489.7 398.2 489.7 396.3L489.7 396.3L489.7 389.0Q489.7 387 488.3 386.1Q486.9 385.2 485.1 385.2L485.1 385.2Q482.7 385.2 481.4 386.6Q480.1 388.1 480.1 390.7L480.1 390.7L480.1 394.5Q480.1 397.1 481.4 398.6Q482.7 400.1 485.1 400.1ZM514.7 405.6L514.7 405.6Q508.4 405.6 505.2 402.1Q502.0 398.7 502.0 392.7L502.0 392.7Q502.0 389.7 502.8 387.3Q503.7 384.8 505.2 383.1Q506.8 381.4 509.0 380.5Q511.3 379.7 514.0 379.7L514.0 379.7Q516.8 379.7 519.0 380.5Q521.2 381.4 522.8 383.1Q524.3 384.7 525.2 387.0Q526 389.4 526 392.2L526 392.2L526 394.3L509.1 394.3L509.1 394.8Q509.1 397.2 510.5 398.6Q512.0 400.1 514.9 400.1L514.9 400.1Q517.1 400.1 518.7 399.3Q520.3 398.4 521.4 397.0L521.4 397.0L525.3 401.2Q523.8 403.0 521.2 404.3Q518.7 405.6 514.7 405.6ZM514.1 384.7L514.1 384.7Q511.8 384.7 510.4 386.2Q509.1 387.6 509.1 390.0L509.1 390.0L509.1 390.4L519.0 390.4L519.0 390.0Q519.0 387.5 517.7 386.1Q516.4 384.7 514.1 384.7Z M579.3 393.8L563.9 393.8L563.9 387.0L579.3 387.0L579.3 393.8Z M642.6 405L619.3 405L619.3 399.2L628.3 399.2L628.3 376.7L627.9 376.7L621.1 385.7L616.5 382.1L624.5 371.5L635.5 371.5L635.5 399.2L642.6 399.2L642.6 405ZM658 405.6L658 405.6Q655.3 405.6 654.1 404.4Q653.0 403.2 653.0 401.6L653.0 401.6L653.0 399.9Q653.0 398.3 654.1 397.1Q655.3 395.9 658 395.9L658 395.9Q660.7 395.9 661.9 397.1Q663.0 398.3 663.0 399.9L663.0 399.9L663.0 401.6Q663.0 403.2 661.9 404.4Q660.7 405.6 658 405.6Z M728.8 377.4L719.2 377.4L719.2 405L712 405L712 377.4L702.4 377.4L702.4 371.5L728.8 371.5L728.8 377.4ZM733.3 405L730.3 380.2L736.2 380.2L738.0 400.3L738.5 400.3L741.4 380.2L747.7 380.2L750.5 400.3L751.0 400.3L752.8 380.2L758.5 380.2L755.5 405L747.1 405L744.6 387.9L744.2 387.9L741.7 405L733.3 405ZM773.2 405.6L773.2 405.6Q770.3 405.6 768.0 404.7Q765.7 403.8 764.1 402.1Q762.5 400.4 761.6 398.0Q760.8 395.6 760.8 392.6L760.8 392.6Q760.8 389.6 761.6 387.2Q762.5 384.8 764.1 383.1Q765.7 381.4 768.0 380.5Q770.3 379.7 773.2 379.7L773.2 379.7Q776.1 379.7 778.4 380.5Q780.7 381.4 782.3 383.1Q783.9 384.8 784.8 387.2Q785.6 389.6 785.6 392.6L785.6 392.6Q785.6 395.6 784.8 398.0Q783.9 400.4 782.3 402.1Q780.7 403.8 778.4 404.7Q776.1 405.6 773.2 405.6ZM773.2 400.3L773.2 400.3Q775.6 400.3 776.9 398.8Q778.3 397.3 778.3 394.6L778.3 394.6L778.3 390.6Q778.3 387.9 776.9 386.4Q775.6 384.9 773.2 384.9L773.2 384.9Q770.8 384.9 769.5 386.4Q768.1 387.9 768.1 390.6L768.1 390.6L768.1 394.6Q768.1 397.3 769.5 398.8Q770.8 400.3 773.2 400.3Z M830.3 405.6L830.3 405.6Q826.0 405.6 822.9 404.2Q819.8 402.8 817.9 400.4L817.9 400.4L822.1 395.8Q823.9 397.8 826.1 398.8Q828.3 399.7 830.5 399.7L830.5 399.7Q833.1 399.7 834.4 398.6Q835.8 397.4 835.8 395.3L835.8 395.3Q835.8 393.5 834.8 392.6Q833.7 391.7 831.3 391.3L831.3 391.3L827.8 390.7Q823.3 389.9 821.2 387.4Q819.2 384.8 819.2 381.1L819.2 381.1Q819.2 376.2 822.4 373.6Q825.6 370.9 831.3 370.9L831.3 370.9Q835.2 370.9 838.0 372.1Q840.9 373.3 842.7 375.4L842.7 375.4L838.6 379.9Q837.3 378.5 835.5 377.6Q833.6 376.8 831.3 376.8L831.3 376.8Q826.5 376.8 826.5 380.8L826.5 380.8Q826.5 382.5 827.6 383.4Q828.6 384.2 831.1 384.6L831.1 384.6L834.6 385.3Q838.7 386.0 840.9 388.3Q843.1 390.7 843.1 394.7L843.1 394.7Q843.1 397.0 842.3 399.0Q841.5 401.0 839.8 402.5Q838.2 403.9 835.8 404.8Q833.4 405.6 830.3 405.6ZM863.8 405L863.8 400.5L863.5 400.5Q862.7 402.6 860.9 404.1Q859.2 405.6 856.2 405.6L856.2 405.6Q854.4 405.6 852.9 405.0Q851.4 404.4 850.4 403.2Q849.3 402.0 848.7 400.2Q848.1 398.5 848.1 396.3L848.1 396.3L848.1 380.2L855.2 380.2L855.2 395.3Q855.2 400.1 859.4 400.1L859.4 400.1Q860.2 400.1 861.0 399.9Q861.8 399.7 862.4 399.2Q863.0 398.8 863.4 398.1Q863.8 397.4 863.8 396.5L863.8 396.5L863.8 380.2L870.9 380.2L870.9 405L863.8 405ZM881.2 405L875.4 405L875.4 380.2L881.2 380.2L881.2 383.9L881.5 383.9Q882.1 382.2 883.1 380.9Q884.2 379.7 886.2 379.7L886.2 379.7Q889.8 379.7 890.6 383.9L890.6 383.9L890.9 383.9Q891.2 383.0 891.6 382.2Q892.0 381.5 892.7 380.9Q893.3 380.3 894.2 380.0Q895.0 379.7 896.2 379.7L896.2 379.7Q901.4 379.7 901.4 387.3L901.4 387.3L901.4 405L895.6 405L895.6 388.0Q895.6 386.3 895.0 385.6Q894.4 384.9 893.5 384.9L893.5 384.9Q892.6 384.9 891.9 385.5Q891.3 386.1 891.3 387.3L891.3 387.3L891.3 405L885.5 405L885.5 388.0Q885.5 386.3 885.0 385.6Q884.4 384.9 883.5 384.9L883.5 384.9Q882.5 384.9 881.8 385.5Q881.2 386.1 881.2 387.3L881.2 387.3L881.2 405Z "/></g></svg>