<svg width="1200" height="630" viewBox="0 0 1200 630" xmlns="http://www.w3.org/2000/svg"><defs><pattern id="satori_pattern_id_1" x="0" y="0" width="0.08333333333333333" height="0.15873015873015872" patternUnits="objectBoundingBox"><radialGradient id="satori_radial_id_1" spreadMethod="pad"><stop offset="0" stop-color="lightgray"/><stop offset="0.03" stop-color="lightgray"/><stop offset="0" stop-color="transparent"/><stop offset="1" stop-color="transparent"/></radialGradient><mask id="satori_mask_id_1"><rect x="0" y="0" width="100" height="100" fill="#fff"/></mask><rect x="0" y="0" width="100" height="100" fill="transparent"/><circle cx="75" cy="75" width="100" height="100" r="106.06601717798213" fill="url(#satori_radial_id_1)" mask="url(#satori_mask_id_1)"/></pattern><pattern id="satori_pattern_id_0" x="0" y="0" width="0.08333333333333333" height="0.15873015873015872" patternUnits="objectBoundingBox"><radialGradient id="satori_radial_id_0" spreadMethod="pad"><stop offset="0" stop-color="lightgray"/><stop offset="0.03" stop-color="lightgray"/><stop offset="0" stop-color="transparent"/><stop offset="1" stop-color="transparent"/></radialGradient><mask id="satori_mask_id_0"><rect x="0" y="0" width="100" height="100" fill="#fff"/></mask><rect x="0" y="0" width="100" height="100" fill="transparent"/><circle cx="25" cy="25" width="100" height="100" r="106.06601717798213" fill="url(#satori_radial_id_0)" mask="url(#satori_mask_id_0)"/></pattern></defs><mask id="satori_om-id"><rect x="0" y="0" width="1200" height="630" fill="#fff"/></mask><rect x="0" y="0" width="1200" height="630" fill="white"/><rect x="0" y="0" width="1200" height="630" fill="url(#satori_pattern_id_1)"/><rect x="0" y="0" width="1200" height="630" fill="url(#satori_pattern_id_0)"/><mask id="satori_om-id-0"><rect x="182" y="213" width="836" height="205" fill="#fff"/></mask><mask id="satori_om-id-0-0"><rect x="476" y="213" width="248" height="47" fill="#fff"/></mask><mask id="satori_om-id-0-0-0"><rect x="476" y="229" width="16" height="16" fill="#fff"/></mask><rect x="476" y="229" width="16" height="16" fill="black"/><mask id="satori_om-id-0-0-1"><rect x="508" y="213" width="216" height="47" fill="#fff"/></mask><g  ><path fill="black" d="M511.7 257.2L511.7 254.8L520.7 254.8L520.7 233.9L511.3 233.9L511.3 231.4L523.6 231.4L523.6 253.0Q523.6 254.8 522.6 256.0Q521.6 257.2 519.4 257.2L519.4 257.2L511.7 257.2ZM522.1 227.3L522.1 227.3Q520.9 227.3 520.3 226.8Q519.8 226.3 519.8 225.5L519.8 225.5L519.8 224.9Q519.8 224.1 520.3 223.6Q520.9 223.1 522.1 223.1L522.1 223.1Q523.4 223.1 523.9 223.6Q524.4 224.1 524.4 224.9L524.4 224.9L524.4 225.5Q524.4 226.3 523.9 226.8Q523.4 227.3 522.1 227.3ZM549.4 250L547.4 250Q545.7 250 545.0 249.1Q544.3 248.3 544.1 247.0L544.1 247.0L543.9 247.0Q543.3 248.6 542.0 249.5Q540.6 250.4 538.3 250.4L538.3 250.4Q535.4 250.4 533.7 248.9Q532.0 247.4 532.0 244.8L532.0 244.8Q532.0 242.2 533.9 240.8Q535.8 239.4 540.0 239.4L540.0 239.4L543.9 239.4L543.9 237.5Q543.9 235.5 542.8 234.5Q541.6 233.4 539.5 233.4L539.5 233.4Q537.6 233.4 536.4 234.2Q535.3 234.9 534.5 236.2L534.5 236.2L532.6 234.7Q532.9 234.0 533.6 233.3Q534.2 232.6 535.1 232.1Q536.0 231.6 537.1 231.3Q538.3 231.0 539.7 231.0L539.7 231.0Q543.0 231.0 544.9 232.6Q546.8 234.3 546.8 237.3L546.8 237.3L546.8 247.5L549.4 247.5L549.4 250ZM538.9 248.0L538.9 248.0Q540.0 248.0 540.9 247.8Q541.8 247.5 542.5 247.0Q543.2 246.6 543.6 245.9Q543.9 245.3 543.9 244.6L543.9 244.6L543.9 241.5L540.0 241.5Q537.4 241.5 536.2 242.3Q535 243.0 535 244.3L535 244.3L535 245.1Q535 246.5 536.0 247.3Q537.1 248.0 538.9 248.0ZM562.3 250.4L562.3 250.4Q560.3 250.4 558.7 249.7Q557.1 249.1 556.0 247.8Q554.8 246.5 554.2 244.7Q553.6 242.9 553.6 240.7L553.6 240.7Q553.6 238.5 554.2 236.7Q554.9 234.9 556.0 233.6Q557.1 232.4 558.7 231.7Q560.2 231.0 562.1 231.0L562.1 231.0Q564.0 231.0 565.5 231.7Q567.1 232.4 568.2 233.6Q569.2 234.8 569.8 236.4Q570.4 238.1 570.4 240.1L570.4 240.1L570.4 241.4L556.6 241.4L556.6 242.3Q556.6 243.5 557.0 244.6Q557.4 245.6 558.2 246.4Q558.9 247.1 560.0 247.5Q561.0 247.9 562.3 247.9L562.3 247.9Q564.2 247.9 565.6 247.1Q566.9 246.2 567.7 244.7L567.7 244.7L569.8 246.1Q568.9 248.0 567.0 249.2Q565.1 250.4 562.3 250.4ZM562.1 233.4L562.1 233.4Q561.0 233.4 559.9 233.8Q558.9 234.2 558.2 235.0Q557.5 235.7 557.1 236.8Q556.6 237.8 556.6 239.0L556.6 239.0L556.6 239.3L567.3 239.3L567.3 238.9Q567.3 237.7 566.9 236.6Q566.5 235.6 565.9 234.9Q565.2 234.2 564.3 233.8Q563.3 233.4 562.1 233.4ZM576.3 250L576.3 223.4L579.2 223.4L579.2 234.4L579.4 234.4Q579.6 233.8 580.1 233.1Q580.5 232.5 581.1 232.0Q581.8 231.6 582.6 231.3Q583.5 231.0 584.6 231.0L584.6 231.0Q587.6 231.0 589.3 232.8Q591.1 234.7 591.1 238.1L591.1 238.1L591.1 250L588.2 250L588.2 238.6Q588.2 236.0 587.1 234.8Q586.0 233.5 583.8 233.5L583.8 233.5Q583.0 233.5 582.1 233.8Q581.3 234.0 580.6 234.4Q580.0 234.8 579.6 235.5Q579.2 236.2 579.2 237.1L579.2 237.1L579.2 250L576.3 250ZM605.5 250.4L605.5 250.4Q603.5 250.4 601.9 249.7Q600.3 249.1 599.2 247.8Q598.0 246.5 597.4 244.7Q596.8 242.9 596.8 240.7L596.8 240.7Q596.8 238.5 597.4 236.7Q598.1 234.9 599.2 233.6Q600.3 232.4 601.9 231.7Q603.4 231.0 605.3 231.0L605.3 231.0Q607.2 231.0 608.7 231.7Q610.3 232.4 611.4 233.6Q612.4 234.8 613.0 236.4Q613.6 238.1 613.6 240.1L613.6 240.1L613.6 241.4L599.8 241.4L599.8 242.3Q599.8 243.5 600.2 244.6Q600.6 245.6 601.4 246.4Q602.1 247.1 603.2 247.5Q604.2 247.9 605.5 247.9L605.5 247.9Q607.4 247.9 608.8 247.1Q610.1 246.2 610.9 244.7L610.9 244.7L613.0 246.1Q612.1 248.0 610.2 249.2Q608.3 250.4 605.5 250.4ZM605.3 233.4L605.3 233.4Q604.2 233.4 603.1 233.8Q602.1 234.2 601.4 235.0Q600.7 235.7 600.3 236.8Q599.8 237.8 599.8 239.0L599.8 239.0L599.8 239.3L610.5 239.3L610.5 238.9Q610.5 237.7 610.1 236.6Q609.7 235.6 609.1 234.9Q608.4 234.2 607.5 233.8Q606.5 233.4 605.3 233.4ZM627.1 250.4L627.1 250.4Q625.1 250.4 623.5 249.7Q621.9 249.1 620.8 247.8Q619.6 246.5 619.0 244.7Q618.4 242.9 618.4 240.7L618.4 240.7Q618.4 238.5 619.0 236.7Q619.7 234.9 620.8 233.6Q621.9 232.4 623.5 231.7Q625.0 231.0 626.9 231.0L626.9 231.0Q628.8 231.0 630.3 231.7Q631.9 232.4 633.0 233.6Q634.0 234.8 634.6 236.4Q635.2 238.1 635.2 240.1L635.2 240.1L635.2 241.4L621.4 241.4L621.4 242.3Q621.4 243.5 621.8 244.6Q622.2 245.6 623.0 246.4Q623.7 247.1 624.8 247.5Q625.8 247.9 627.1 247.9L627.1 247.9Q629.0 247.9 630.4 247.1Q631.7 246.2 632.5 244.7L632.5 244.7L634.6 246.1Q633.7 248.0 631.8 249.2Q629.9 250.4 627.1 250.4ZM626.9 233.4L626.9 233.4Q625.8 233.4 624.7 233.8Q623.7 234.2 623.0 235.0Q622.3 235.7 621.9 236.8Q621.4 237.8 621.4 239.0L621.4 239.0L621.4 239.3L632.1 239.3L632.1 238.9Q632.1 237.7 631.7 236.6Q631.3 235.6 630.7 234.9Q630.0 234.2 629.1 233.8Q628.1 233.4 626.9 233.4ZM648.4 250.3L648.4 250.3Q646.9 250.3 646.3 249.7Q645.7 249.1 645.7 248.2L645.7 248.2L645.7 247.5Q645.7 246.6 646.3 246.0Q646.9 245.4 648.4 245.4L648.4 245.4Q649.9 245.4 650.5 246.0Q651.1 246.6 651.1 247.5L651.1 247.5L651.1 248.2Q651.1 249.1 650.5 249.7Q649.9 250.3 648.4 250.3ZM674.5 250L674.5 247.0L674.4 247.0Q672.6 250.4 668.6 250.4L668.6 250.4Q665.2 250.4 663.3 247.9Q661.4 245.3 661.4 240.7L661.4 240.7Q661.4 236.1 663.3 233.5Q665.2 231.0 668.6 231.0L668.6 231.0Q672.6 231.0 674.4 234.4L674.4 234.4L674.5 234.4L674.5 223.4L677.4 223.4L677.4 250L674.5 250ZM669.7 247.9L669.7 247.9Q670.7 247.9 671.6 247.6Q672.4 247.4 673.1 246.9Q673.7 246.4 674.1 245.7Q674.5 245.0 674.5 244.1L674.5 244.1L674.5 237.4Q674.5 236.4 674.1 235.7Q673.7 235.0 673.1 234.5Q672.4 234.1 671.6 233.8Q670.7 233.5 669.7 233.5L669.7 233.5Q667.2 233.5 665.8 235.1Q664.5 236.6 664.5 239.1L664.5 239.1L664.5 242.3Q664.5 244.8 665.8 246.3Q667.2 247.9 669.7 247.9ZM691.9 250.4L691.9 250.4Q689.9 250.4 688.3 249.7Q686.7 249.1 685.6 247.8Q684.4 246.5 683.8 244.7Q683.2 242.9 683.2 240.7L683.2 240.7Q683.2 238.5 683.8 236.7Q684.5 234.9 685.6 233.6Q686.7 232.4 688.3 231.7Q689.8 231.0 691.7 231.0L691.7 231.0Q693.6 231.0 695.1 231.7Q696.7 232.4 697.8 233.6Q698.8 234.8 699.4 236.4Q700.0 238.1 700.0 240.1L700.0 240.1L700.0 241.4L686.2 241.4L686.2 242.3Q686.2 243.5 686.6 244.6Q687.0 245.6 687.8 246.4Q688.5 247.1 689.6 247.5Q690.6 247.9 691.9 247.9L691.9 247.9Q693.8 247.9 695.2 247.1Q696.5 246.2 697.3 244.7L697.3 244.7L699.4 246.1Q698.5 248.0 696.6 249.2Q694.7 250.4 691.9 250.4ZM691.7 233.4L691.7 233.4Q690.6 233.4 689.5 233.8Q688.5 234.2 687.8 235.0Q687.1 235.7 686.7 236.8Q686.2 237.8 686.2 239.0L686.2 239.0L686.2 239.3L696.9 239.3L696.9 238.9Q696.9 237.7 696.5 236.6Q696.1 235.6 695.5 234.9Q694.8 234.2 693.9 233.8Q692.9 233.4 691.7 233.4ZM715.0 250L711.4 250L704.7 231.4L707.6 231.4L710.3 239.2L713.2 247.6L713.3 247.6L716.2 239.2L718.9 231.4L721.7 231.4L715.0 250Z "/></g><mask id="satori_om-id-0-1"><rect x="182" y="356" width="836" height="62" fill="#fff"/></mask><g  ><path fill="black" d="M200.6 405L192.2 405L183.3 380.2L190.8 380.2L194 390.8L196.4 399.1L196.7 399.1L199.1 390.8L202.3 380.2L209.5 380.2L200.6 405ZM229.4 405L229.4 400.5L229.1 400.5Q228.3 402.6 226.5 404.1Q224.8 405.6 221.8 405.6L221.8 405.6Q220.0 405.6 218.5 405.0Q217.0 404.4 216.0 403.2Q214.9 402.0 214.3 400.2Q213.7 398.5 213.7 396.3L213.7 396.3L213.7 380.2L220.8 380.2L220.8 395.3Q220.8 400.1 225.0 400.1L225.0 400.1Q225.8 400.1 226.6 399.9Q227.4 399.7 228.0 399.2Q228.6 398.8 229.0 398.1Q229.4 397.4 229.4 396.5L229.4 396.5L229.4 380.2L236.5 380.2L236.5 405L229.4 405ZM254.7 405.6L254.7 405.6Q248.4 405.6 245.2 402.1Q242.0 398.7 242.0 392.7L242.0 392.7Q242.0 389.7 242.8 387.3Q243.7 384.8 245.2 383.1Q246.8 381.4 249.0 380.5Q251.3 379.7 254.0 379.7L254.0 379.7Q256.8 379.7 259.0 380.5Q261.2 381.4 262.8 383.1Q264.3 384.7 265.2 387.0Q266 389.4 266 392.2L266 392.2L266 394.3L249.1 394.3L249.1 394.8Q249.1 397.2 250.5 398.6Q252.0 400.1 254.9 400.1L254.9 400.1Q257.1 400.1 258.7 399.3Q260.3 398.4 261.4 397.0L261.4 397.0L265.3 401.2Q263.8 403.0 261.2 404.3Q258.7 405.6 254.7 405.6ZM254.1 384.7L254.1 384.7Q251.8 384.7 250.4 386.2Q249.1 387.6 249.1 390.0L249.1 390.0L249.1 390.4L259.0 390.4L259.0 390.0Q259.0 387.5 257.7 386.1Q256.4 384.7 254.1 384.7ZM272.8 414.6L272.8 409.1L282.3 409.1L282.3 385.8L272.7 385.8L272.7 380.2L289.4 380.2L289.4 407.4Q289.4 410.6 287.6 412.6Q285.7 414.6 281.9 414.6L281.9 414.6L272.8 414.6ZM285.9 377.1L285.9 377.1Q283.5 377.1 282.5 376.1Q281.6 375.1 281.6 373.7L281.6 373.7L281.6 372.3Q281.6 370.9 282.5 369.9Q283.5 369.0 285.9 369.0L285.9 369.0Q288.2 369.0 289.2 369.9Q290.1 370.9 290.1 372.3L290.1 372.3L290.1 373.7Q290.1 375.1 289.2 376.1Q288.2 377.1 285.9 377.1ZM311.3 405.6L311.3 405.6Q307.2 405.6 304.1 404.3Q301.1 403.1 299.6 400.9L299.6 400.9L303.5 397.2Q305.0 398.8 306.9 399.7Q308.9 400.6 311.4 400.6L311.4 400.6Q313.5 400.6 314.7 399.9Q315.9 399.3 315.9 397.9L315.9 397.9Q315.9 396.9 315.1 396.5Q314.2 396.1 312.8 395.8L312.8 395.8L308.8 395.2Q307.1 395.0 305.7 394.5Q304.3 394.0 303.2 393.1Q302.1 392.2 301.5 391.0Q300.9 389.7 300.9 388.0L300.9 388.0Q300.9 384.1 303.9 381.9Q306.8 379.7 312.2 379.7L312.2 379.7Q315.9 379.7 318.4 380.6Q321.0 381.6 322.5 383.4L322.5 383.4L319.0 387.5Q317.9 386.3 316.2 385.5Q314.4 384.6 312.0 384.6L312.0 384.6Q307.9 384.6 307.9 387.1L307.9 387.1Q307.9 388.2 308.7 388.7Q309.5 389.1 310.9 389.3L310.9 389.3L314.9 389.9Q316.5 390.2 318.0 390.7Q319.4 391.2 320.5 392.0Q321.6 392.9 322.2 394.2Q322.8 395.4 322.8 397.2L322.8 397.2Q322.8 401.1 319.8 403.3Q316.8 405.6 311.3 405.6Z M376.9 393.8L361.5 393.8L361.5 387.0L376.9 387.0L376.9 393.8Z M439.7 405L413.9 405L413.9 367.6L439.7 367.6L439.7 405ZM418.7 372.4L418.7 400.2L434.9 400.2L434.9 372.4L418.7 372.4ZM468.5 405L442.7 405L442.7 367.6L468.5 367.6L468.5 405ZM447.5 372.4L447.5 400.2L463.7 400.2L463.7 372.4L447.5 372.4Z M514.7 377.1L514.7 377.1Q512.3 377.1 511.4 376.1Q510.5 375.1 510.5 373.7L510.5 373.7L510.5 372.3Q510.5 370.9 511.4 369.9Q512.3 369.0 514.7 369.0L514.7 369.0Q517.1 369.0 518.1 369.9Q519.0 370.9 519.0 372.3L519.0 372.3L519.0 373.7Q519.0 375.1 518.1 376.1Q517.1 377.1 514.7 377.1ZM503.3 405L503.3 399.5L511.2 399.5L511.2 385.8L503.3 385.8L503.3 380.2L518.3 380.2L518.3 399.5L525.6 399.5L525.6 405L503.3 405ZM534.8 405L529.0 405L529.0 380.2L534.8 380.2L534.8 383.9L535.1 383.9Q535.7 382.2 536.7 380.9Q537.8 379.7 539.8 379.7L539.8 379.7Q543.4 379.7 544.2 383.9L544.2 383.9L544.5 383.9Q544.8 383.0 545.2 382.2Q545.6 381.5 546.3 380.9Q546.9 380.3 547.8 380.0Q548.6 379.7 549.8 379.7L549.8 379.7Q555.0 379.7 555.0 387.3L555.0 387.3L555.0 405L549.2 405L549.2 388.0Q549.2 386.3 548.6 385.6Q548.0 384.9 547.1 384.9L547.1 384.9Q546.2 384.9 545.5 385.5Q544.9 386.1 544.9 387.3L544.9 387.3L544.9 405L539.1 405L539.1 388.0Q539.1 386.3 538.6 385.6Q538.0 384.9 537.1 384.9L537.1 384.9Q536.1 384.9 535.4 385.5Q534.8 386.1 534.8 387.3L534.8 387.3L534.8 405ZM559.2 414.6L559.2 380.2L566.3 380.2L566.3 384.7L566.7 384.7Q567.6 382.5 569.3 381.1Q571.0 379.7 574.0 379.7L574.0 379.7Q576.1 379.7 577.8 380.4Q579.5 381.2 580.7 382.8Q581.9 384.4 582.6 386.8Q583.3 389.3 583.3 392.6L583.3 392.6Q583.3 396.0 582.6 398.4Q581.9 400.9 580.7 402.5Q579.5 404.0 577.8 404.8Q576.1 405.6 574.0 405.6L574.0 405.6Q571.0 405.6 569.3 404.2Q567.6 402.7 566.7 400.5L566.7 400.5L566.3 400.5L566.3 414.6L559.2 414.6ZM570.9 400.1L570.9 400.1Q573.3 400.1 574.6 398.6Q575.9 397.1 575.9 394.5L575.9 394.5L575.9 390.7Q575.9 388.1 574.6 386.6Q573.3 385.2 570.9 385.2L570.9 385.2Q569.1 385.2 567.7 386.1Q566.3 387 566.3 389.0L566.3 389.0L566.3 396.3Q566.3 398.2 567.7 399.1Q569.1 400.1 570.9 400.1ZM599.6 405.6L599.6 405.6Q596.7 405.6 594.4 404.7Q592.1 403.8 590.5 402.1Q588.9 400.4 588.0 398.0Q587.2 395.6 587.2 392.6L587.2 392.6Q587.2 389.6 588.0 387.2Q588.9 384.8 590.5 383.1Q592.1 381.4 594.4 380.5Q596.7 379.7 599.6 379.7L599.6 379.7Q602.5 379.7 604.8 380.5Q607.1 381.4 608.7 383.1Q610.3 384.8 611.2 387.2Q612.0 389.6 612.0 392.6L612.0 392.6Q612.0 395.6 611.2 398.0Q610.3 400.4 608.7 402.1Q607.1 403.8 604.8 404.7Q602.5 405.6 599.6 405.6ZM599.6 400.3L599.6 400.3Q602.0 400.3 603.3 398.8Q604.7 397.3 604.7 394.6L604.7 394.6L604.7 390.6Q604.7 387.9 603.3 386.4Q602.0 384.9 599.6 384.9L599.6 384.9Q597.2 384.9 595.9 386.4Q594.5 387.9 594.5 390.6L594.5 390.6L594.5 394.6Q594.5 397.3 595.9 398.8Q597.2 400.3 599.6 400.3ZM617.6 405L617.6 399.5L623.3 399.5L623.3 385.8L617.6 385.8L617.6 380.2L630.4 380.2L630.4 387.2L630.7 387.2Q631.0 385.9 631.6 384.6Q632.2 383.4 633.2 382.4Q634.1 381.4 635.5 380.8Q636.8 380.2 638.6 380.2L638.6 380.2L641.0 380.2L641.0 386.8L635.7 386.8Q633.1 386.8 631.7 388.3Q630.4 389.9 630.4 392.1L630.4 392.1L630.4 399.5L638.5 399.5L638.5 405L617.6 405ZM668.3 405L659.1 405Q655.3 405 653.4 403.0Q651.5 401.0 651.5 397.8L651.5 397.8L651.5 385.8L644.8 385.8L644.8 380.2L649.2 380.2Q650.8 380.2 651.4 379.6Q652.1 379.0 652.1 377.3L652.1 377.3L652.1 371.5L658.6 371.5L658.6 380.2L668.3 380.2L668.3 385.8L658.6 385.8L658.6 399.5L668.3 399.5L668.3 405ZM698.9 405L673.1 405L673.1 367.6L698.9 367.6L698.9 405ZM677.9 372.4L677.9 400.2L694.1 400.2L694.1 372.4L677.9 372.4Z M744.6 405.6L744.6 405.6Q741.7 405.6 739.4 404.7Q737.0 403.8 735.4 402.1Q733.8 400.4 732.9 398.0Q732.1 395.6 732.1 392.6L732.1 392.6Q732.1 389.6 732.9 387.2Q733.8 384.8 735.4 383.1Q737.0 381.4 739.4 380.5Q741.7 379.7 744.6 379.7L744.6 379.7Q748.6 379.7 751.1 381.3Q753.6 383.0 754.9 385.7L754.9 385.7L749.4 388.7Q748.7 387.2 747.7 386.3Q746.6 385.3 744.6 385.3L744.6 385.3Q742.1 385.3 740.8 386.7Q739.5 388.2 739.5 390.6L739.5 390.6L739.5 394.6Q739.5 397.1 740.8 398.5Q742.1 399.9 744.7 399.9L744.7 399.9Q746.7 399.9 747.9 399.0Q749.1 398.0 749.9 396.5L749.9 396.5L755.3 399.5Q753.9 402.3 751.4 403.9Q748.8 405.6 744.6 405.6ZM772.4 405.6L772.4 405.6Q769.5 405.6 767.2 404.7Q764.9 403.8 763.3 402.1Q761.7 400.4 760.8 398.0Q760.0 395.6 760.0 392.6L760.0 392.6Q760.0 389.6 760.8 387.2Q761.7 384.8 763.3 383.1Q764.9 381.4 767.2 380.5Q769.5 379.7 772.4 379.7L772.4 379.7Q775.3 379.7 777.6 380.5Q779.9 381.4 781.5 383.1Q783.1 384.8 784.0 387.2Q784.8 389.6 784.8 392.6L784.8 392.6Q784.8 395.6 784.0 398.0Q783.1 400.4 781.5 402.1Q779.9 403.8 777.6 404.7Q775.3 405.6 772.4 405.6ZM772.4 400.3L772.4 400.3Q774.8 400.3 776.1 398.8Q777.5 397.3 777.5 394.6L777.5 394.6L777.5 390.6Q777.5 387.9 776.1 386.4Q774.8 384.9 772.4 384.9L772.4 384.9Q770 384.9 768.7 386.4Q767.3 387.9 767.3 390.6L767.3 390.6L767.3 394.6Q767.3 397.3 768.7 398.8Q770 400.3 772.4 400.3ZM805.7 405L805.7 400.5L805.3 400.5Q804.4 402.7 802.7 404.2Q801.0 405.6 798.0 405.6L798.0 405.6Q795.9 405.6 794.2 404.8Q792.5 404.0 791.3 402.5Q790.1 400.9 789.4 398.4Q788.7 396.0 788.7 392.6L788.7 392.6Q788.7 389.3 789.4 386.8Q790.1 384.4 791.3 382.8Q792.5 381.2 794.2 380.4Q795.9 379.7 798.0 379.7L798.0 379.7Q799.5 379.7 800.6 380.0Q801.8 380.4 802.7 381.1Q803.6 381.8 804.2 382.7Q804.8 383.6 805.3 384.7L805.3 384.7L805.7 384.7L805.7 369.5L812.8 369.5L812.8 405L805.7 405ZM801.1 400.1L801.1 400.1Q802.9 400.1 804.3 399.1Q805.7 398.2 805.7 396.3L805.7 396.3L805.7 389.0Q805.7 387 804.3 386.1Q802.9 385.2 801.1 385.2L801.1 385.2Q798.7 385.2 797.4 386.6Q796.1 388.1 796.1 390.7L796.1 390.7L796.1 394.5Q796.1 397.1 797.4 398.6Q798.7 400.1 801.1 400.1ZM830.7 405.6L830.7 405.6Q824.4 405.6 821.2 402.1Q818.0 398.7 818.0 392.7L818.0 392.7Q818.0 389.7 818.8 387.3Q819.7 384.8 821.2 383.1Q822.8 381.4 825.0 380.5Q827.3 379.7 830.0 379.7L830.0 379.7Q832.8 379.7 835.0 380.5Q837.2 381.4 838.8 383.1Q840.3 384.7 841.2 387.0Q842.0 389.4 842.0 392.2L842.0 392.2L842.0 394.3L825.1 394.3L825.1 394.8Q825.1 397.2 826.5 398.6Q828.0 400.1 830.9 400.1L830.9 400.1Q833.1 400.1 834.7 399.3Q836.3 398.4 837.4 397.0L837.4 397.0L841.3 401.2Q839.8 403.0 837.2 404.3Q834.7 405.6 830.7 405.6ZM830.1 384.7L830.1 384.7Q827.8 384.7 826.4 386.2Q825.1 387.6 825.1 390.0L825.1 390.0L825.1 390.4L835.0 390.4L835.0 390.0Q835.0 387.5 833.7 386.1Q832.4 384.7 830.1 384.7Z M887.3 405.6L887.3 405.6Q883.2 405.6 880.1 404.3Q877.1 403.1 875.6 400.9L875.6 400.9L879.5 397.2Q881.0 398.8 882.9 399.7Q884.9 400.6 887.4 400.6L887.4 400.6Q889.5 400.6 890.7 399.9Q891.9 399.3 891.9 397.9L891.9 397.9Q891.9 396.9 891.1 396.5Q890.2 396.1 888.8 395.8L888.8 395.8L884.8 395.2Q883.1 395.0 881.7 394.5Q880.3 394.0 879.2 393.1Q878.1 392.2 877.5 391.0Q876.9 389.7 876.9 388.0L876.9 388.0Q876.9 384.1 879.9 381.9Q882.8 379.7 888.2 379.7L888.2 379.7Q891.9 379.7 894.4 380.6Q897.0 381.6 898.5 383.4L898.5 383.4L895.0 387.5Q893.9 386.3 892.2 385.5Q890.4 384.6 888.0 384.6L888.0 384.6Q883.9 384.6 883.9 387.1L883.9 387.1Q883.9 388.2 884.7 388.7Q885.5 389.1 886.9 389.3L886.9 389.3L890.9 389.9Q892.5 390.2 894.0 390.7Q895.4 391.2 896.5 392.0Q897.6 392.9 898.2 394.2Q898.8 395.4 898.8 397.2L898.8 397.2Q898.8 401.1 895.8 403.3Q892.8 405.6 887.3 405.6ZM904.8 414.6L904.8 380.2L911.9 380.2L911.9 384.7L912.3 384.7Q913.2 382.5 914.9 381.1Q916.6 379.7 919.6 379.7L919.6 379.7Q921.7 379.7 923.4 380.4Q925.1 381.2 926.3 382.8Q927.5 384.4 928.2 386.8Q928.9 389.3 928.9 392.6L928.9 392.6Q928.9 396.0 928.2 398.4Q927.5 400.9 926.3 402.5Q925.1 404.0 923.4 404.8Q921.7 405.6 919.6 405.6L919.6 405.6Q916.6 405.6 914.9 404.2Q913.2 402.7 912.3 400.5L912.3 400.5L911.9 400.5L911.9 414.6L904.8 414.6ZM916.5 400.1L916.5 400.1Q918.9 400.1 920.2 398.6Q921.5 397.1 921.5 394.5L921.5 394.5L921.5 390.7Q921.5 388.1 920.2 386.6Q918.9 385.2 916.5 385.2L916.5 385.2Q914.7 385.2 913.3 386.1Q911.9 387 911.9 389.0L911.9 389.0L911.9 396.3Q911.9 398.2 913.3 399.1Q914.7 400.1 916.5 400.1ZM934.1 405L934.1 399.5L941.6 399.5L941.6 375L934.1 375L934.1 369.5L948.8 369.5L948.8 399.5L956.3 399.5L956.3 405L934.1 405ZM975.5 377.1L975.5 377.1Q973.1 377.1 972.2 376.1Q971.3 375.1 971.3 373.7L971.3 373.7L971.3 372.3Q971.3 370.9 972.2 369.9Q973.1 369.0 975.5 369.0L975.5 369.0Q977.9 369.0 978.9 369.9Q979.8 370.9 979.8 372.3L979.8 372.3L979.8 373.7Q979.8 375.1 978.9 376.1Q977.9 377.1 975.5 377.1ZM964.1 405L964.1 399.5L972.0 399.5L972.0 385.8L964.1 385.8L964.1 380.2L979.1 380.2L979.1 399.5L986.4 399.5L986.4 405L964.1 405ZM1013.9 405L1004.7 405Q1000.9 405 999.0 403.0Q997.1 401.0 997.1 397.8L997.1 397.8L997.1 385.8L990.4 385.8L990.4 380.2L994.8 380.2Q996.4 380.2 997.0 379.6Q997.7 379.0 997.7 377.3L997.7 377.3L997.7 371.5L1004.2 371.5L1004.2 380.2L1013.9 380.2L1013.9 385.8L1004.2 385.8L1004.2 399.5L1013.9 399.5L1013.9 405Z "/></g></svg>